<?xml version="1.0" encoding="UTF-8"?>
<svg id="Layer_1" data-name="Layer 1" xmlns="http://www.w3.org/2000/svg" viewBox="0 0 341.54 230.92">
  <defs>
    <style>
      .cls-1 {
        letter-spacing: -.04em;
      }

      .cls-2 {
        letter-spacing: -.01em;
      }

      .cls-3 {
        letter-spacing: .01em;
      }

      .cls-4 {
        letter-spacing: -.02em;
      }

      .cls-5 {
        font-size: 7.92px;
      }

      .cls-5, .cls-6, .cls-7, .cls-8 {
        font-weight: 300;
      }

      .cls-5, .cls-8 {
        font-family: Futura100-Light, 'Futura 100';
      }

      .cls-9 {
        letter-spacing: -.02em;
      }

      .cls-10 {
        font-size: 22.01px;
      }

      .cls-10, .cls-11 {
        font-family: ArtifexHandCF-Heavy, 'Artifex Hand CF';
        font-weight: 800;
      }

      .cls-12 {
        letter-spacing: -.02em;
      }

      .cls-13, .cls-14 {
        letter-spacing: -.04em;
      }

      .cls-13, .cls-15, .cls-16 {
        font-family: Helvetica, Helvetica;
      }

      .cls-17, .cls-18, .cls-19 {
        font-family: Helvetica-Bold, Helvetica;
        font-weight: 700;
      }

      .cls-17, .cls-20, .cls-16 {
        letter-spacing: 0em;
      }

      .cls-21 {
        font-size: 3.96px;
      }

      .cls-22 {
        letter-spacing: 0em;
      }

      .cls-23 {
        letter-spacing: -.02em;
      }

      .cls-24 {
        letter-spacing: -.03em;
      }

      .cls-25 {
        letter-spacing: -.01em;
      }

      .cls-26 {
        letter-spacing: -.04em;
      }

      .cls-27 {
        letter-spacing: -.01em;
      }

      .cls-6 {
        font-family: Futura100-Demibold, 'Futura 100';
      }

      .cls-6, .cls-8 {
        font-size: 7.2px;
      }

      .cls-28 {
        letter-spacing: -.03em;
      }

      .cls-29 {
        letter-spacing: -.05em;
      }

      .cls-30 {
        letter-spacing: -.01em;
      }

      .cls-31 {
        letter-spacing: 0em;
      }

      .cls-32 {
        letter-spacing: -.02em;
      }

      .cls-33 {
        letter-spacing: -.07em;
      }

      .cls-34 {
        letter-spacing: -.03em;
      }

      .cls-35 {
        letter-spacing: 0em;
      }

      .cls-36 {
        letter-spacing: .06em;
      }

      .cls-37 {
        stroke: #413a29;
        stroke-width: .5px;
      }

      .cls-37, .cls-38 {
        stroke-miterlimit: 10;
      }

      .cls-39 {
        letter-spacing: 0em;
      }

      .cls-40 {
        letter-spacing: -.01em;
      }

      .cls-11 {
        font-size: 9px;
      }

      .cls-41 {
        letter-spacing: 0em;
      }

      .cls-7 {
        font-family: TheSeasons-Light, 'The Seasons';
        font-size: 10.36px;
      }

      .cls-42 {
        letter-spacing: -.02em;
      }

      .cls-43 {
        letter-spacing: 0em;
      }

      .cls-44 {
        letter-spacing: -.02em;
      }

      .cls-45 {
        letter-spacing: -.06em;
      }

      .cls-46 {
        letter-spacing: -.05em;
      }

      .cls-47 {
        letter-spacing: 0em;
      }

      .cls-48 {
        letter-spacing: -.03em;
      }

      .cls-49 {
        letter-spacing: -.02em;
      }

      .cls-50 {
        letter-spacing: -.04em;
      }

      .cls-51 {
        fill: #1f262c;
      }

      .cls-52 {
        letter-spacing: -.05em;
      }

      .cls-19 {
        letter-spacing: -.02em;
      }

      .cls-53 {
        letter-spacing: -.01em;
      }

      .cls-54 {
        letter-spacing: 0em;
      }

      .cls-55 {
        letter-spacing: 0em;
      }

      .cls-56 {
        letter-spacing: -.1em;
      }

      .cls-57 {
        letter-spacing: -.07em;
      }

      .cls-38 {
        fill: none;
        stroke: #4c3e2b;
        stroke-width: .81px;
      }
    </style>
  </defs>
  <g>
    <text class="cls-11" transform="translate(139.6 38.28)"><tspan class="cls-53" x="0" y="0">A</tspan><tspan x="6.79" y="0">a Bb </tspan><tspan class="cls-39" x="27.09" y="0">C</tspan><tspan x="33.48" y="0">c Dd </tspan><tspan class="cls-35" x="54.31" y="0">E</tspan><tspan x="59.96" y="0" xml:space="preserve">e Ff Gg  Ii Jj Kk lL Mm Nn </tspan><tspan x="0" y="10.8">Oo Pp Qq Rr Ss Tt Uu </tspan><tspan class="cls-52" x="94.25" y="10.8">V</tspan><tspan x="100.77" y="10.8">v </tspan><tspan class="cls-29" x="107.6" y="10.8">W</tspan><tspan x="117.18" y="10.8">w Xx </tspan><tspan class="cls-33" x="140.89" y="10.8">Y</tspan><tspan x="147.12" y="10.8">y Zz</tspan><tspan x="0" y="21.6">(123456</tspan><tspan class="cls-44" x="34.99" y="21.6">7</tspan><tspan x="39.6" y="21.6">89!?@#$%^&amp;*)</tspan></text>
    <text class="cls-7" transform="translate(139.38 99.94)"><tspan x="0" y="0" xml:space="preserve">Aa Bb Cc Dd Ee Ff Gg  Ii</tspan><tspan class="cls-36" x="107.17" y="0"> </tspan><tspan x="110.07" y="0">Jj Kk lL Mm Nn </tspan><tspan x="0" y="12.44">Oo Pp Qq Rr Ss Tt Uu </tspan><tspan class="cls-28" x="99.28" y="12.44">V</tspan><tspan x="105.41" y="12.44">v </tspan><tspan class="cls-28" x="112.74" y="12.44">W</tspan><tspan x="121.53" y="12.44">w Xx Yy Zz</tspan><tspan x="0" y="24.87">(123456789!?@#$%^&amp;*)</tspan></text>
    <text class="cls-6" transform="translate(140.5 146.09)"><tspan class="cls-41" x="0" y="0">A</tspan><tspan x="5.34" y="0">a Bb Cc Dd </tspan><tspan class="cls-54" x="43.01" y="0">E</tspan><tspan x="46.67" y="0">e F</tspan><tspan class="cls-12" x="55.77" y="0">f</tspan><tspan x="58.31" y="0" xml:space="preserve"> Gg  </tspan><tspan class="cls-3" x="73.38" y="0">I</tspan><tspan x="75.55" y="0">i Jj Kk lL Mm Nn Oo </tspan><tspan class="cls-22" x="141.96" y="0">P</tspan><tspan x="146.31" y="0">p Qq R</tspan><tspan class="cls-12" x="169.26" y="0">r</tspan><tspan x="171.89" y="0"> </tspan><tspan class="cls-25" x="0" y="8.64">S</tspan><tspan x="4.07" y="8.64">s</tspan><tspan class="cls-1" x="7.24" y="8.64"> </tspan><tspan class="cls-32" x="8.45" y="8.64">T</tspan><tspan class="cls-49" x="12.04" y="8.64">t</tspan><tspan x="14.38" y="8.64" xml:space="preserve"> Uu</tspan><tspan class="cls-23" x="25.33" y="8.64"> </tspan><tspan class="cls-49" x="26.67" y="8.64">V</tspan><tspan class="cls-24" x="31.74" y="8.64">v</tspan><tspan class="cls-30" x="35.61" y="8.64"> </tspan><tspan class="cls-54" x="37.01" y="8.64">W</tspan><tspan class="cls-49" x="44.8" y="8.64">w</tspan><tspan x="50.68" y="8.64" xml:space="preserve"> Xx</tspan><tspan class="cls-48" x="61.96" y="8.64"> </tspan><tspan class="cls-57" x="63.22" y="8.64">Y</tspan><tspan class="cls-48" x="67.5" y="8.64">y</tspan><tspan x="71.56" y="8.64"> </tspan><tspan class="cls-22" x="73.04" y="8.64">Z</tspan><tspan x="77.77" y="8.64">z</tspan><tspan x="0" y="17.28">(</tspan><tspan class="cls-55" x="2.87" y="17.28">1</tspan><tspan class="cls-27" x="5.49" y="17.28">2</tspan><tspan class="cls-43" x="9.91" y="17.28">3</tspan><tspan x="14.46" y="17.28">4</tspan><tspan class="cls-55" x="19.29" y="17.28">5</tspan><tspan class="cls-9" x="23.8" y="17.28">6</tspan><tspan class="cls-26" x="28.5" y="17.28">7</tspan><tspan class="cls-2" x="32.94" y="17.28">8</tspan><tspan x="37.31" y="17.28">9!?@#$%^&amp;*)</tspan></text>
    <text class="cls-8" transform="translate(140.5 188.48)"><tspan x="0" y="0">Aa Bb Cc Dd </tspan><tspan class="cls-54" x="40.46" y="0">E</tspan><tspan x="43.91" y="0">e F</tspan><tspan class="cls-23" x="52.18" y="0">f</tspan><tspan x="53.91" y="0" xml:space="preserve"> Gg  Ii Jj Kk lL Mm Nn Oo </tspan><tspan class="cls-2" x="129.06" y="0">P</tspan><tspan x="132.4" y="0">p Qq R</tspan><tspan class="cls-12" x="153.25" y="0">r</tspan><tspan x="155.12" y="0"> </tspan><tspan class="cls-54" x="156.7" y="0">S</tspan><tspan x="160.33" y="0">s</tspan><tspan class="cls-48" x="162.95" y="0" xml:space="preserve"> T</tspan><tspan class="cls-4" x="167.25" y="0">t</tspan><tspan x="168.77" y="0"> </tspan><tspan x="0" y="8.64">Uu</tspan><tspan class="cls-12" x="8.21" y="8.64"> </tspan><tspan class="cls-4" x="9.65" y="8.64">V</tspan><tspan class="cls-48" x="13.54" y="8.64">v</tspan><tspan x="16.29" y="8.64"> </tspan><tspan class="cls-54" x="17.88" y="8.64">W</tspan><tspan class="cls-4" x="25.83" y="8.64">w</tspan><tspan x="30.86" y="8.64" xml:space="preserve"> Xx</tspan><tspan class="cls-48" x="39.32" y="8.64"> </tspan><tspan class="cls-46" x="40.69" y="8.64">Y</tspan><tspan class="cls-48" x="44.11" y="8.64">y</tspan><tspan x="47.27" y="8.64" xml:space="preserve"> Zz</tspan><tspan x="0" y="17.28">(</tspan><tspan class="cls-31" x="2.52" y="17.28">1</tspan><tspan class="cls-12" x="4.52" y="17.28">23</tspan><tspan x="12.18" y="17.28">4</tspan><tspan class="cls-31" x="16.54" y="17.28">5</tspan><tspan class="cls-54" x="20.73" y="17.28">6</tspan><tspan class="cls-50" x="25.12" y="17.28">7</tspan><tspan class="cls-2" x="29.14" y="17.28">8</tspan><tspan x="32.97" y="17.28">9!?@#$%^&amp;*)</tspan></text>
    <line class="cls-37" x1="139.63" y1="78.34" x2="317.02" y2="78.34"/>
    <line class="cls-37" x1="139.63" y1="136.4" x2="317.02" y2="136.4"/>
    <line class="cls-37" x1="139.63" y1="174.44" x2="317.02" y2="174.44"/>
  </g>
  <g>
    <text class="cls-10" transform="translate(20.04 49.34)"><tspan class="cls-42" x="0" y="0">D</tspan><tspan x="17.35" y="0">ISP</tspan><tspan class="cls-40" x="53.18" y="0">L</tspan><tspan class="cls-56" x="66.92" y="0">A</tspan><tspan x="81.56" y="0">Y</tspan></text>
    <text class="cls-6" transform="translate(20.05 146.09)"><tspan x="0" y="0">SUBHEADING</tspan></text>
    <text class="cls-7" transform="translate(20.05 99.94)"><tspan x="0" y="0">HEADING</tspan></text>
    <text class="cls-5" transform="translate(20.05 189.12)"><tspan class="cls-45" x="0" y="0">P</tspan><tspan x="3.31" y="0">a</tspan><tspan class="cls-34" x="7.67" y="0">r</tspan><tspan class="cls-47" x="9.68" y="0">ag</tspan><tspan class="cls-34" x="18.39" y="0">r</tspan><tspan class="cls-47" x="20.41" y="0">aph</tspan></text>
    <text class="cls-21" transform="translate(20.05 68.11)"><tspan class="cls-15"><tspan x="0" y="0">Artifex Hand CF Heavy</tspan></tspan><tspan class="cls-15"><tspan class="cls-14" x="0" y="4.75">T</tspan><tspan class="cls-20" x="2.28" y="4.75">racking : 0</tspan></tspan><tspan class="cls-15" x="0" y="9.51">Case: </tspan><tspan class="cls-18" x="11.45" y="9.51">AL</tspan><tspan class="cls-19" x="16.73" y="9.51">L</tspan><tspan class="cls-17" x="19.08" y="9.51" xml:space="preserve"> CAPS</tspan></text>
    <g>
      <path d="M22.4,110.67v.34h-.95v2.5h-.39v-2.5h-.95v-.34h2.29Z"/>
      <path d="M22.71,110.66h.35v1.06c.08-.1.16-.18.22-.22.11-.07.25-.11.42-.11.3,0,.5.1.61.32.06.11.09.27.09.48v1.33h-.36v-1.31c0-.15-.02-.26-.06-.33-.06-.11-.18-.17-.35-.17-.14,0-.27.05-.39.15-.12.1-.18.29-.18.56v1.1h-.35v-2.85Z"/>
      <path d="M26.19,111.5c.14.07.24.16.31.27.07.1.12.23.14.37.02.1.03.25.03.46h-1.51c0,.21.06.38.15.51.09.13.24.19.43.19.18,0,.33-.06.43-.18.06-.07.1-.15.13-.24h.34c0,.08-.04.16-.09.25s-.11.17-.17.23c-.1.1-.24.17-.39.21-.08.02-.18.03-.28.03-.26,0-.47-.09-.65-.28s-.27-.45-.27-.79.09-.6.27-.81c.18-.21.42-.31.71-.31.15,0,.29.03.42.1ZM26.31,112.31c-.01-.15-.05-.27-.1-.36-.09-.17-.25-.25-.48-.25-.16,0-.29.06-.4.17-.11.12-.17.26-.17.44h1.15Z"/>
      <path d="M28.49,112.59c0,.16.05.29.11.39.13.19.35.28.67.28.14,0,.28-.02.39-.06.23-.08.34-.22.34-.43,0-.15-.05-.26-.14-.33-.1-.06-.25-.12-.46-.17l-.38-.09c-.25-.06-.43-.12-.53-.19-.18-.12-.27-.3-.27-.53,0-.26.09-.46.26-.63s.42-.25.75-.25c.3,0,.55.07.76.22.21.14.31.37.31.69h-.36c-.02-.15-.06-.27-.12-.35-.12-.15-.31-.22-.59-.22-.23,0-.39.05-.49.14s-.15.21-.15.33c0,.14.06.24.17.31.08.04.25.09.51.15l.4.09c.19.04.34.1.44.18.18.13.27.33.27.58,0,.31-.11.54-.34.67s-.49.2-.79.2c-.35,0-.63-.09-.83-.27-.2-.18-.3-.42-.29-.73h.36Z"/>
      <path d="M32.1,111.5c.14.07.24.16.31.27.07.1.12.23.14.37.02.1.03.25.03.46h-1.51c0,.21.06.38.15.51.09.13.24.19.43.19.18,0,.33-.06.43-.18.06-.07.1-.15.13-.24h.34c0,.08-.04.16-.09.25s-.11.17-.17.23c-.1.1-.24.17-.39.21-.08.02-.18.03-.28.03-.26,0-.47-.09-.65-.28s-.27-.45-.27-.79.09-.6.27-.81c.18-.21.42-.31.71-.31.15,0,.29.03.42.1ZM32.23,112.31c-.01-.15-.05-.27-.1-.36-.09-.17-.25-.25-.48-.25-.16,0-.29.06-.4.17-.11.12-.17.26-.17.44h1.15Z"/>
      <path d="M34.12,112.25c.08,0,.13-.04.16-.1.01-.03.02-.08.02-.13,0-.12-.04-.21-.13-.26s-.2-.08-.36-.08c-.18,0-.31.05-.38.15-.04.05-.07.13-.08.24h-.32c0-.25.09-.43.25-.53.16-.1.34-.15.55-.15.24,0,.44.05.59.14.15.09.22.24.22.43v1.19s0,.07.02.09c.01.02.05.03.09.03.01,0,.03,0,.05,0,.02,0,.04,0,.06,0v.26c-.05.02-.09.03-.12.03s-.07,0-.12,0c-.12,0-.21-.04-.26-.13-.03-.04-.05-.11-.06-.19-.07.09-.17.17-.3.24-.13.07-.28.1-.44.1-.19,0-.35-.06-.47-.17-.12-.12-.18-.26-.18-.44,0-.19.06-.34.18-.45.12-.11.28-.17.47-.2l.55-.07ZM33.39,113.2c.07.06.16.09.26.09.12,0,.24-.03.35-.08.19-.09.29-.25.29-.46v-.28s-.1.05-.16.07c-.07.02-.13.03-.2.04l-.21.03c-.13.02-.22.04-.28.08-.11.06-.16.16-.16.29,0,.1.04.18.11.24Z"/>
      <path d="M35.41,112.86c.01.12.04.21.09.27.09.11.24.17.45.17.13,0,.24-.03.34-.08.1-.06.15-.14.15-.26,0-.09-.04-.16-.12-.2-.05-.03-.15-.06-.3-.1l-.28-.07c-.18-.04-.31-.09-.39-.15-.15-.09-.22-.22-.22-.39,0-.2.07-.35.21-.48s.33-.18.57-.18c.31,0,.53.09.67.27.09.12.13.24.12.38h-.33c0-.08-.03-.15-.08-.21-.08-.09-.22-.14-.41-.14-.13,0-.23.03-.3.08-.07.05-.1.12-.1.2,0,.09.04.16.13.22.05.03.13.06.23.08l.23.06c.25.06.42.12.5.18.13.09.2.23.2.42s-.07.34-.21.48c-.14.13-.35.2-.64.2-.31,0-.52-.07-.65-.21-.13-.14-.2-.31-.21-.52h.33Z"/>
      <path d="M38.68,111.64c.18.18.28.44.28.79s-.08.61-.24.83c-.16.22-.41.33-.75.33-.28,0-.51-.1-.68-.29-.17-.19-.25-.45-.25-.78,0-.35.09-.63.26-.83.18-.21.41-.31.71-.31.27,0,.49.09.67.27ZM38.47,113.02c.09-.17.13-.37.13-.58,0-.19-.03-.35-.09-.47-.1-.19-.27-.29-.5-.29-.21,0-.37.08-.46.24-.1.16-.14.36-.14.59s.05.4.14.55c.1.15.25.22.46.22.23,0,.39-.09.47-.26Z"/>
      <path d="M39.37,111.44h.33v.29c.1-.12.2-.21.31-.26s.23-.08.36-.08c.29,0,.49.1.59.31.06.11.08.27.08.48v1.33h-.35v-1.31c0-.13-.02-.23-.06-.31-.06-.13-.17-.19-.33-.19-.08,0-.15,0-.2.02-.09.03-.18.09-.25.17-.06.07-.1.14-.11.21-.02.07-.03.18-.03.31v1.08h-.35v-2.07Z"/>
      <path d="M41.77,112.86c.01.12.04.21.09.27.09.11.24.17.45.17.13,0,.24-.03.34-.08.1-.06.15-.14.15-.26,0-.09-.04-.16-.12-.2-.05-.03-.15-.06-.3-.1l-.28-.07c-.18-.04-.31-.09-.39-.15-.15-.09-.22-.22-.22-.39,0-.2.07-.35.21-.48s.33-.18.57-.18c.31,0,.53.09.67.27.09.12.13.24.12.38h-.33c0-.08-.03-.15-.08-.21-.08-.09-.22-.14-.41-.14-.13,0-.23.03-.3.08-.07.05-.1.12-.1.2,0,.09.04.16.13.22.05.03.13.06.23.08l.23.06c.25.06.42.12.5.18.13.09.2.23.2.42s-.07.34-.21.48c-.14.13-.35.2-.64.2-.31,0-.52-.07-.65-.21-.13-.14-.2-.31-.21-.52h.33Z"/>
      <path d="M44.68,110.67h.38v2.5h1.43v.34h-1.82v-2.84Z"/>
      <path d="M46.82,110.67h.35v.39h-.35v-.39ZM46.82,111.45h.35v2.06h-.35v-2.06Z"/>
      <path d="M48.85,111.52c.07.05.13.11.2.2v-.26h.32v1.88c0,.26-.04.47-.12.62-.14.28-.42.42-.81.42-.22,0-.41-.05-.56-.15-.15-.1-.24-.26-.25-.47h.35c.02.09.05.17.1.21.08.08.2.12.37.12.27,0,.44-.09.52-.28.05-.11.07-.31.07-.59-.07.11-.15.18-.25.24-.1.05-.23.08-.39.08-.22,0-.42-.08-.59-.24-.17-.16-.25-.42-.25-.79,0-.35.08-.62.25-.81.17-.2.37-.29.61-.29.16,0,.3.04.42.12ZM48.89,111.89c-.11-.12-.24-.19-.4-.19-.24,0-.41.11-.5.34-.05.12-.07.28-.07.48,0,.23.05.41.14.53s.22.18.38.18c.25,0,.42-.11.53-.34.06-.13.08-.28.08-.45,0-.26-.05-.45-.16-.57Z"/>
      <path d="M49.89,110.66h.35v1.06c.08-.1.16-.18.22-.22.11-.07.25-.11.42-.11.3,0,.5.1.61.32.06.11.09.27.09.48v1.33h-.36v-1.31c0-.15-.02-.26-.06-.33-.06-.11-.18-.17-.35-.17-.14,0-.27.05-.39.15-.12.1-.18.29-.18.56v1.1h-.35v-2.85Z"/>
      <path d="M52.16,110.86h.35v.58h.33v.28h-.33v1.35c0,.07.02.12.07.15.03.01.07.02.13.02.02,0,.03,0,.05,0,.02,0,.04,0,.07,0v.27s-.08.02-.12.03c-.04,0-.09,0-.14,0-.16,0-.27-.04-.33-.12s-.09-.19-.09-.32v-1.37h-.28v-.28h.28v-.58Z"/>
      <path d="M22.4,115.42v.34h-.95v2.5h-.39v-2.5h-.95v-.34h2.29Z"/>
      <path d="M22.57,116.19h.33v.36c.03-.07.09-.15.2-.25.11-.1.23-.15.36-.15,0,0,.02,0,.03,0,.02,0,.04,0,.08,0v.37s-.04,0-.06,0-.04,0-.06,0c-.17,0-.31.06-.4.17-.09.11-.14.24-.14.39v1.19h-.35v-2.07Z"/>
      <path d="M24.98,117.01c.08,0,.13-.04.16-.1.01-.03.02-.08.02-.13,0-.12-.04-.21-.13-.26s-.2-.08-.36-.08c-.18,0-.31.05-.38.15-.04.05-.07.13-.08.24h-.32c0-.25.09-.43.25-.53.16-.1.34-.15.55-.15.24,0,.44.05.59.14.15.09.22.24.22.43v1.19s0,.07.02.09c.01.02.05.03.09.03.01,0,.03,0,.05,0,.02,0,.04,0,.06,0v.26c-.05.02-.09.03-.12.03s-.07,0-.12,0c-.12,0-.21-.04-.26-.13-.03-.04-.05-.11-.06-.19-.07.09-.17.17-.3.24-.13.07-.28.1-.44.1-.19,0-.35-.06-.47-.17-.12-.12-.18-.26-.18-.44,0-.19.06-.34.18-.45.12-.11.28-.17.47-.2l.55-.07ZM24.25,117.95c.07.06.16.09.26.09.12,0,.24-.03.35-.08.19-.09.29-.25.29-.46v-.28s-.1.05-.16.07c-.07.02-.13.03-.2.04l-.21.03c-.13.02-.22.04-.28.08-.11.06-.16.16-.16.29,0,.1.04.18.11.24Z"/>
      <path d="M27.43,116.3c.15.11.23.31.26.59h-.34c-.02-.13-.07-.23-.14-.32-.07-.08-.19-.13-.35-.13-.22,0-.38.11-.47.33-.06.14-.09.31-.09.52s.04.38.13.52c.09.14.22.21.41.21.14,0,.26-.04.34-.13.08-.09.14-.21.17-.36h.34c-.04.27-.13.48-.29.6-.15.13-.35.19-.59.19-.27,0-.48-.1-.64-.3-.16-.2-.24-.45-.24-.74,0-.36.09-.65.26-.85.18-.2.4-.3.67-.3.23,0,.42.06.57.17Z"/>
      <path d="M28.03,115.42h.33v1.65l.89-.88h.44l-.79.78.83,1.3h-.44l-.64-1.04-.29.27v.78h-.33v-2.84Z"/>
      <path d="M30.01,115.42h.35v.39h-.35v-.39ZM30.01,116.2h.35v2.06h-.35v-2.06Z"/>
      <path d="M30.89,116.19h.33v.29c.1-.12.2-.21.31-.26s.23-.08.36-.08c.29,0,.49.1.59.31.06.11.08.27.08.48v1.33h-.35v-1.31c0-.13-.02-.23-.06-.31-.06-.13-.17-.19-.33-.19-.08,0-.15,0-.2.02-.09.03-.18.09-.25.17-.06.07-.1.14-.11.21-.02.07-.03.18-.03.31v1.08h-.35v-2.07Z"/>
      <path d="M34.23,116.28c.07.05.13.11.2.2v-.26h.32v1.88c0,.26-.04.47-.12.62-.14.28-.42.42-.81.42-.22,0-.41-.05-.56-.15-.15-.1-.24-.26-.25-.47h.35c.02.09.05.17.1.21.08.08.2.12.37.12.27,0,.44-.09.52-.28.05-.11.07-.31.07-.59-.07.11-.15.18-.25.24-.1.05-.23.08-.39.08-.22,0-.42-.08-.59-.24-.17-.16-.25-.42-.25-.79,0-.35.08-.62.25-.81.17-.2.37-.29.61-.29.16,0,.3.04.42.12ZM34.28,116.65c-.11-.12-.24-.19-.4-.19-.24,0-.41.11-.5.34-.05.12-.07.28-.07.48,0,.23.05.41.14.53s.22.18.38.18c.25,0,.42-.11.53-.34.06-.13.08-.28.08-.45,0-.26-.05-.45-.16-.57Z"/>
      <path d="M36.55,116.22h.4v.42h-.4v-.42ZM36.55,117.84h.4v.42h-.4v-.42Z"/>
      <path d="M40.14,115.82c.14.25.21.61.21,1.07s-.07.82-.21,1.07c-.14.25-.39.38-.75.38s-.6-.12-.75-.38-.21-.61-.21-1.07.07-.82.21-1.07c.14-.25.39-.38.75-.38s.6.12.75.38ZM39.07,117.63c.05.17.16.26.32.26s.27-.09.32-.26.08-.42.08-.74-.03-.59-.08-.75c-.05-.16-.16-.24-.32-.24s-.27.08-.32.24c-.05.16-.08.41-.08.75s.03.57.08.74Z"/>
      <path d="M22.37,120.38c.2.19.31.4.33.65h-.37c-.04-.18-.13-.33-.25-.43-.13-.11-.3-.16-.53-.16-.28,0-.5.1-.67.29-.17.2-.26.5-.26.9,0,.33.08.6.23.81.16.21.39.31.69.31.28,0,.5-.11.64-.33.08-.12.14-.27.18-.45h.37c-.03.3-.14.55-.33.75-.22.24-.53.37-.91.37-.33,0-.6-.1-.83-.3-.29-.26-.44-.67-.44-1.22,0-.42.11-.76.33-1.03.24-.29.57-.44.99-.44.36,0,.64.1.83.29Z"/>
      <path d="M24.25,121.76c.08,0,.13-.04.16-.1.01-.03.02-.08.02-.13,0-.12-.04-.21-.13-.26s-.2-.08-.36-.08c-.18,0-.31.05-.38.15-.04.05-.07.13-.08.24h-.32c0-.25.09-.43.25-.53.16-.1.34-.15.55-.15.24,0,.44.05.59.14.15.09.22.24.22.43v1.19s0,.07.02.09c.01.02.05.03.09.03.01,0,.03,0,.05,0,.02,0,.04,0,.06,0v.26c-.05.02-.09.03-.12.03s-.07,0-.12,0c-.12,0-.21-.04-.26-.13-.03-.04-.05-.11-.06-.19-.07.09-.17.17-.3.24-.13.07-.28.1-.44.1-.19,0-.35-.06-.47-.17-.12-.12-.18-.26-.18-.44,0-.19.06-.34.18-.45.12-.11.28-.17.47-.2l.55-.07ZM23.52,122.71c.07.06.16.09.26.09.12,0,.24-.03.35-.08.19-.09.29-.25.29-.46v-.28s-.1.05-.16.07c-.07.02-.13.03-.2.04l-.21.03c-.13.02-.22.04-.28.08-.11.06-.16.16-.16.29,0,.1.04.18.11.24Z"/>
      <path d="M25.55,122.37c.01.12.04.21.09.27.09.11.24.17.45.17.13,0,.24-.03.34-.08.1-.06.15-.14.15-.26,0-.09-.04-.16-.12-.2-.05-.03-.15-.06-.3-.1l-.28-.07c-.18-.04-.31-.09-.39-.15-.15-.09-.22-.22-.22-.39,0-.2.07-.35.21-.48s.33-.18.57-.18c.31,0,.53.09.67.27.09.12.13.24.12.38h-.33c0-.08-.03-.15-.08-.21-.08-.09-.22-.14-.41-.14-.13,0-.23.03-.3.08-.07.05-.1.12-.1.2,0,.09.04.16.13.22.05.03.13.06.23.08l.23.06c.25.06.42.12.5.18.13.09.2.23.2.42s-.07.34-.21.48c-.14.13-.35.2-.64.2-.31,0-.52-.07-.65-.21-.13-.14-.2-.31-.21-.52h.33Z"/>
      <path d="M28.6,121c.14.07.24.16.31.27.07.1.12.23.14.37.02.1.03.25.03.46h-1.51c0,.21.06.38.15.51.09.13.24.19.43.19.18,0,.33-.06.43-.18.06-.07.1-.15.13-.24h.34c0,.08-.04.16-.09.25s-.11.17-.17.23c-.1.1-.24.17-.39.21-.08.02-.18.03-.28.03-.26,0-.47-.09-.65-.28s-.27-.45-.27-.79.09-.6.27-.81c.18-.21.42-.31.71-.31.15,0,.29.03.42.1ZM28.72,121.82c-.01-.15-.05-.27-.1-.36-.09-.17-.25-.25-.48-.25-.16,0-.29.06-.4.17-.11.12-.17.26-.17.44h1.15Z"/>
      <path d="M29.69,120.97h.4v.42h-.4v-.42ZM29.69,122.6h.4v.42h-.4v-.42Z"/>
      <path d="M32.55,120.17h.67l1,2.85h-.64l-.19-.59h-1.05l-.19.59h-.62l1.01-2.85ZM32.52,121.94h.73l-.36-1.12-.37,1.12Z"/>
      <path d="M34.59,120.17h.59v2.34h1.42v.51h-2.01v-2.85Z"/>
      <path d="M37,120.17h.59v2.34h1.42v.51h-2.01v-2.85Z"/>
      <path d="M40.7,120.47c.23-.23.52-.35.87-.35.47,0,.82.16,1.04.47.12.18.18.35.19.53h-.59c-.04-.14-.09-.24-.14-.31-.11-.12-.26-.19-.47-.19s-.38.09-.5.26-.18.42-.18.74.06.56.19.72c.13.16.29.24.49.24s.36-.07.47-.21c.06-.07.11-.18.15-.33h.59c-.05.31-.18.56-.39.76-.21.2-.48.29-.8.29-.4,0-.72-.13-.95-.39-.23-.26-.35-.63-.35-1.09,0-.5.13-.88.39-1.15Z"/>
      <path d="M44.09,120.17h.67l1,2.85h-.64l-.19-.59h-1.05l-.19.59h-.62l1.01-2.85ZM44.05,121.94h.73l-.36-1.12-.37,1.12Z"/>
      <path d="M48.03,121.79c-.17.14-.4.21-.71.21h-.59v1.03h-.59v-2.85h1.22c.28,0,.5.07.67.22.17.15.25.37.25.68,0,.34-.08.57-.25.71ZM47.58,120.76c-.08-.06-.18-.09-.32-.09h-.53v.84h.53c.13,0,.24-.03.32-.1s.11-.18.11-.33-.04-.25-.11-.32Z"/>
      <path d="M49.19,122.14c.02.13.05.23.11.29.1.12.27.18.5.18.14,0,.26-.02.35-.05.17-.06.25-.17.25-.33,0-.09-.04-.17-.12-.22-.08-.05-.21-.09-.39-.13l-.31-.07c-.3-.07-.51-.14-.62-.22-.19-.13-.29-.34-.29-.62,0-.26.09-.47.28-.64.19-.17.46-.25.83-.25.3,0,.56.08.77.24s.33.39.34.69h-.57c-.01-.17-.09-.29-.23-.37-.09-.05-.21-.07-.35-.07-.16,0-.28.03-.38.09-.09.06-.14.15-.14.26,0,.1.05.18.14.23.06.03.19.07.38.12l.5.12c.22.05.38.12.49.21.17.13.25.33.25.58s-.1.48-.3.65c-.2.17-.48.26-.85.26s-.67-.08-.88-.25c-.21-.17-.32-.4-.32-.7h.57Z"/>
    </g>
    <text class="cls-21" transform="translate(20.05 158.91)"><tspan class="cls-15"><tspan x="0" y="0">futura 100 demibold</tspan></tspan><tspan class="cls-13" x="0" y="4.75">T</tspan><tspan class="cls-16" x="2.28" y="4.75">racking : </tspan><tspan class="cls-18" x="18.35" y="4.75">0</tspan><tspan class="cls-15" x="0" y="9.51">Case: </tspan><tspan class="cls-18" x="11.45" y="9.51">AL</tspan><tspan class="cls-19" x="16.73" y="9.51">L</tspan><tspan class="cls-17" x="19.08" y="9.51" xml:space="preserve"> CAPS</tspan></text>
    <text class="cls-21" transform="translate(20.05 204.31)"><tspan class="cls-15"><tspan x="0" y="0">futura 100 light</tspan></tspan><tspan class="cls-13" x="0" y="4.75">T</tspan><tspan class="cls-16" x="2.28" y="4.75">racking : </tspan><tspan class="cls-18" x="18.35" y="4.75">0</tspan><tspan class="cls-15" x="0" y="9.51">Case: </tspan><tspan class="cls-18" x="11.45" y="9.51">Sentence</tspan></text>
    <line class="cls-37" x1="20.26" y1="59.41" x2="103.16" y2="59.41"/>
    <line class="cls-37" x1="20.26" y1="105.89" x2="97.23" y2="105.89"/>
    <line class="cls-37" x1="20.26" y1="151.39" x2="88.49" y2="151.39"/>
    <line class="cls-37" x1="20.26" y1="195.34" x2="50.45" y2="195.34"/>
    <rect class="cls-38" x="20.92" y="10.36" width="68.83" height="10.43" rx="5.22" ry="5.22"/>
    <g>
      <path class="cls-51" d="M32.43,12.73v1.01h-1.7v4.69h-1.19v-4.69h-1.71v-1.01h4.6Z"/>
      <path class="cls-51" d="M36.36,12.73h1.34l-1.9,3.57v2.14h-1.19v-2.14l-1.96-3.57h1.4l1.18,2.48,1.13-2.48Z"/>
      <path class="cls-51" d="M42.19,15.96c-.33.28-.81.42-1.42.42h-1.18v2.05h-1.18v-5.7h2.44c.56,0,1.01.15,1.34.44s.5.75.5,1.37c0,.67-.17,1.15-.5,1.43ZM41.29,13.91c-.15-.13-.36-.19-.63-.19h-1.07v1.68h1.07c.27,0,.48-.07.63-.21s.23-.35.23-.65-.08-.51-.23-.63Z"/>
      <path class="cls-51" d="M48.01,17.92c-.43.44-1.05.67-1.86.67s-1.43-.22-1.86-.67c-.58-.54-.86-1.33-.86-2.35s.29-1.83.86-2.35c.43-.44,1.05-.67,1.86-.67s1.43.22,1.86.67c.57.52.86,1.31.86,2.35s-.29,1.81-.86,2.35ZM47.27,17.06c.28-.35.41-.84.41-1.49s-.14-1.13-.41-1.48c-.28-.35-.65-.52-1.12-.52s-.84.17-1.12.52-.42.84-.42,1.49.14,1.14.42,1.49.65.52,1.12.52.84-.17,1.12-.52Z"/>
      <path class="cls-51" d="M53.59,14.51c-.09-.39-.31-.66-.66-.82-.2-.09-.41-.13-.65-.13-.46,0-.83.17-1.13.52-.29.35-.44.87-.44,1.56s.16,1.2.48,1.49c.32.29.68.44,1.09.44s.72-.11.98-.34c.25-.23.41-.53.47-.9h-1.31v-.95h2.36v3.06h-.79l-.12-.71c-.23.27-.43.46-.62.57-.31.19-.7.29-1.16.29-.75,0-1.37-.26-1.85-.79-.5-.53-.75-1.25-.75-2.16s.25-1.66.76-2.22c.51-.56,1.17-.84,2.01-.84.72,0,1.3.18,1.74.55s.69.83.75,1.38h-1.17Z"/>
      <path class="cls-51" d="M59.55,12.88c.21.09.39.22.53.4.12.14.22.3.29.48s.11.38.11.6c0,.27-.07.54-.2.8-.14.26-.36.45-.67.56.26.11.45.26.56.45s.16.49.16.89v.38c0,.26.01.44.03.53.03.15.1.26.22.33v.14h-1.31c-.04-.13-.06-.23-.08-.31-.03-.16-.05-.32-.05-.49v-.53c-.01-.36-.08-.61-.2-.73-.12-.12-.35-.18-.68-.18h-1.16v2.24h-1.16v-5.7h2.71c.39,0,.69.06.9.15ZM57.1,13.72v1.53h1.28c.25,0,.44-.03.57-.09.22-.11.34-.32.34-.64,0-.35-.11-.58-.33-.7-.12-.07-.3-.1-.55-.1h-1.31Z"/>
      <path class="cls-51" d="M63.23,12.73h1.34l2.01,5.7h-1.29l-.37-1.17h-2.09l-.38,1.17h-1.24l2.03-5.7ZM63.15,16.28h1.45l-.72-2.24-.74,2.24Z"/>
      <path class="cls-51" d="M71.11,15.96c-.33.28-.81.42-1.42.42h-1.18v2.05h-1.18v-5.7h2.44c.56,0,1.01.15,1.34.44s.5.75.5,1.37c0,.67-.17,1.15-.5,1.43ZM70.21,13.91c-.15-.13-.36-.19-.63-.19h-1.07v1.68h1.07c.27,0,.48-.07.63-.21s.23-.35.23-.65-.08-.51-.23-.63Z"/>
      <path class="cls-51" d="M72.56,18.43v-5.7h1.18v2.17h2.21v-2.17h1.18v5.7h-1.18v-2.55h-2.21v2.55h-1.18Z"/>
      <path class="cls-51" d="M81.5,12.73h1.34l-1.9,3.57v2.14h-1.19v-2.14l-1.96-3.57h1.4l1.18,2.48,1.13-2.48Z"/>
    </g>
    <text/>
    <text/>
  </g>
</svg>