<?xml version="1.0" encoding="UTF-8"?>
<svg id="Layer_2" data-name="Layer 2" xmlns="http://www.w3.org/2000/svg" viewBox="0 0 143.06 175.44">
  <defs>
    <style>
      .cls-1 {
        fill: #1d1712;
      }
    </style>
  </defs>
  <g id="Layer_1-2" data-name="Layer 1">
    <g>
      <g>
        <g>
          <path class="cls-1" d="M5.75,162.7h2.01l2.14,6.11h.05l2.27-6.28h.93l2.26,6.28h.04l2.06-6.11h2l-3.45,9.65h-1.19l-2.21-6.11h-.03l-2.19,6.11h-1.19l-3.49-9.65Z"/>
          <path class="cls-1" d="M21.48,161.75h1.85v4.97h.03c.49-.59,1.16-.92,1.93-.92,1.39,0,2.29.84,2.29,2.19v4.18h-1.85v-3.61c0-.83-.41-1.26-1.14-1.26s-1.26.55-1.26,1.33v3.53h-1.85v-10.43Z"/>
          <path class="cls-1" d="M29.81,169.06c0-1.86,1.29-3.25,3-3.25.84,0,1.65.35,2.06.92h.01v-.79h1.86v6.24h-1.86v-.73h-.01c-.46.55-1.22.85-2.07.85-1.78,0-2.99-1.31-2.99-3.24ZM35,169.02c0-1.02-.7-1.67-1.66-1.67s-1.65.69-1.65,1.7.64,1.71,1.6,1.71c1.03,0,1.71-.72,1.71-1.73Z"/>
          <path class="cls-1" d="M41.65,164.11v1.82h1.23v1.52h-1.23v4.72h-1.85v-4.72h-.78v-1.52h.78v-1.82h1.85Z"/>
          <path class="cls-1" d="M47.95,161.75l-1.82,3.68h-1.41l1.38-3.68h1.85Z"/>
          <path class="cls-1" d="M47.07,171.32l.82-1.22c.38.43.99.77,1.63.77.48,0,.85-.21.85-.6,0-.36-.2-.49-1.12-.67-1.12-.24-1.67-.84-1.67-1.8,0-1.13.9-2,2.32-2,.9,0,1.57.28,2.01.6l-.6,1.19c-.4-.31-.83-.48-1.26-.48-.38,0-.69.14-.69.45s.21.46.97.64c1.24.29,1.81.82,1.81,1.83,0,1.29-.92,2.25-2.56,2.25-1.13,0-2.06-.49-2.51-.98Z"/>
          <path class="cls-1" d="M60.38,167.74l-3.35-5.04h2.3l2,3.24h.05l2.05-3.24h2.26l-3.38,5.04v4.43h-1.92v-4.43Z"/>
          <path class="cls-1" d="M65.54,169.03c0-1.9,1.47-3.23,3.53-3.23s3.47,1.24,3.47,3.19-1.47,3.3-3.52,3.3-3.48-1.29-3.48-3.27ZM70.67,169.06c0-1-.67-1.65-1.62-1.65s-1.63.63-1.63,1.66.69,1.67,1.63,1.67,1.62-.67,1.62-1.68Z"/>
          <path class="cls-1" d="M76.68,165.93v3.54c0,.84.41,1.26,1.17,1.26.79,0,1.18-.41,1.18-1.29v-3.51h1.85v3.84c0,1.57-1.22,2.53-3.09,2.53s-2.95-.92-2.95-2.49v-3.88h1.85Z"/>
          <path class="cls-1" d="M83.49,165.93h1.81v1.01h.04c.41-.67,1.22-1.13,1.78-1.13.16,0,.28.01.38.04v1.93h-.04c-.23-.14-.47-.21-.74-.21-.77,0-1.38.54-1.38,1.31v3.3h-1.85v-6.24Z"/>
          <path class="cls-1" d="M96.24,164.21c-.75,0-1.17.46-1.17,1.02,0,.64.38.87,1.75,1.29,1.38.41,2.44,1.11,2.44,2.58,0,2.01-1.44,3.24-3.32,3.24-1.18,0-2.4-.48-3.18-1.31l1.11-1.48c.63.65,1.27.99,2.03.99s1.31-.45,1.31-1.19-.58-1.01-1.7-1.33c-1.57-.44-2.49-1.14-2.49-2.61,0-1.61,1.17-2.86,3.12-2.86.94,0,2.01.35,2.71,1.11l-.94,1.39c-.49-.54-1.07-.83-1.67-.83Z"/>
          <path class="cls-1" d="M103.82,164.11v1.82h1.23v1.52h-1.23v4.72h-1.85v-4.72h-.78v-1.52h.78v-1.82h1.85Z"/>
          <path class="cls-1" d="M106.73,169.03c0-1.9,1.47-3.23,3.53-3.23s3.47,1.24,3.47,3.19-1.47,3.3-3.52,3.3-3.48-1.29-3.48-3.27ZM111.86,169.06c0-1-.67-1.65-1.62-1.65s-1.63.63-1.63,1.66.69,1.67,1.63,1.67,1.62-.67,1.62-1.68Z"/>
          <path class="cls-1" d="M116.03,165.93h1.81v1.01h.04c.41-.67,1.22-1.13,1.78-1.13.16,0,.28.01.38.04v1.93h-.04c-.23-.14-.47-.21-.74-.21-.77,0-1.38.54-1.38,1.31v3.3h-1.85v-6.24Z"/>
          <path class="cls-1" d="M124.33,171.78l-2.96-5.85h2.1l1.81,3.91h.03l1.77-3.91h2l-4.55,9.51h-2.07l1.88-3.66Z"/>
          <path class="cls-1" d="M132.67,166.73c1,.01,2.19-.25,2.19-1.47,0-.84-.54-1.23-1.17-1.23-.74,0-1.23.52-1.23,1.34h-1.86c.04-2.02,1.52-2.89,3.12-2.89s3.02.84,3.02,2.69c0,1.37-.85,2.36-2.21,2.69v1.55h-1.85v-2.68ZM132.53,171.21c0-.64.45-1.08,1.09-1.08s1.11.44,1.11,1.08-.43,1.09-1.11,1.09-1.09-.43-1.09-1.09Z"/>
        </g>
        <g>
          <path class="cls-1" d="M3.98,110.2v-.43c1.09-.27,1.56-.94,1.56-4.55v-17.49c0-3.61-.47-4.27-1.56-4.55v-.43h17.51l.47,4.67-.35.08c-1.21-3.06-3.35-4.23-6.87-4.23h-7.02v12.08h6.4c4.06,0,4.92-.9,5.23-2.35h.43v5.21h-.43c-.31-1.45-1.17-2.35-5.23-2.35h-6.4v12.27c0,1.02.55,1.57,1.56,1.57h6.51c3.51,0,5.58-.94,6.87-4.23l.35.08-.35,4.67H3.98Z"/>
          <path class="cls-1" d="M24.46,108.86l-.27-4.39.31-.08c1.56,3.69,4.33,5.57,7.92,5.57,2.46,0,4.49-1.29,4.49-3.96,0-3.18-3.55-3.96-6.16-4.86-3.24-1.1-6.05-1.96-6.05-5.61,0-3.21,2.93-5.21,6.59-5.21,2.89,0,5.03.67,6.12,1.14l.16,3.69-.31.08c-1.17-2.9-3.75-4.43-6.44-4.43-2.85,0-4.68,1.29-4.68,3.61,0,2.82,3.08,3.92,5.66,4.74,2.81.9,6.59,1.76,6.59,5.57s-3.08,5.84-6.75,5.88c-3.43.04-6.09-1.02-7.18-1.73Z"/>
          <path class="cls-1" d="M39.71,108.86l-.27-4.39.31-.08c1.56,3.69,4.33,5.57,7.92,5.57,2.46,0,4.49-1.29,4.49-3.96,0-3.18-3.55-3.96-6.16-4.86-3.24-1.1-6.05-1.96-6.05-5.61,0-3.21,2.93-5.21,6.59-5.21,2.89,0,5.03.67,6.12,1.14l.16,3.69-.31.08c-1.17-2.9-3.75-4.43-6.44-4.43-2.85,0-4.68,1.29-4.68,3.61,0,2.82,3.08,3.92,5.66,4.74,2.81.9,6.59,1.76,6.59,5.57s-3.08,5.84-6.75,5.88c-3.43.04-6.09-1.02-7.18-1.73Z"/>
          <path class="cls-1" d="M69.08,109.41v-7.49c-1.33,5.1-5.07,8.66-8.74,8.66-2.93,0-5.66-1.69-5.66-5.14,0-4.12,4.1-5.61,8.58-6.78l5.77-1.53c-.23-3.8-2.07-5.8-5.81-5.8-2.5,0-4.91,1.25-6.79,3.69l-.35-.27c2.26-2.9,4.95-4.43,8.19-4.43,4.72,0,6.83,2.71,6.83,6.74v8.15c0,3.61.47,4.27,1.56,4.55v.43h-2.81c-.51,0-.78-.27-.78-.78ZM61.24,108.86c4.56,0,7.8-5.17,7.84-9.88v-1.37l-5.66,1.49c-4.1,1.1-6.63,2.39-6.59,5.57.04,2.51,1.72,4.19,4.41,4.19Z"/>
          <path class="cls-1" d="M70.29,116.82c0-.71.9-1.76,1.87-1.76s3,.78,4.53,1.06c1.79-1.29,3.32-3.69,4.41-6l-6.16-14.94c-1.4-3.33-2.22-3.88-3-4.16v-.43h4.84v.43c-1.09.27-1.05.82.35,4.16l5.11,12.31,5.31-12.31c1.05-2.47,1.09-3.88-.27-4.16v-.43h4.17v.43c-.98.27-1.95.82-3.35,4.16l-6.16,14.23c-3.71,8.59-7.84,8.35-9.21,8.35s-2.42-.47-2.42-.94Z"/>
          <path class="cls-1" d="M91.32,108.86l-.27-4.39.31-.08c1.56,3.69,4.33,5.57,7.92,5.57,2.46,0,4.49-1.29,4.49-3.96,0-3.18-3.55-3.96-6.16-4.86-3.24-1.1-6.05-1.96-6.05-5.61,0-3.21,2.93-5.21,6.59-5.21,2.89,0,5.03.67,6.12,1.14l.16,3.69-.31.08c-1.17-2.9-3.74-4.43-6.44-4.43-2.85,0-4.68,1.29-4.68,3.61,0,2.82,3.08,3.92,5.66,4.74,2.81.9,6.59,1.76,6.59,5.57s-3.08,5.84-6.75,5.88c-3.43.04-6.08-1.02-7.18-1.73Z"/>
          <path class="cls-1" d="M112.82,109.76c1.09-.27,1.56-.94,1.56-4.55v-9.02c0-3.21-.39-3.57-1.56-4.08v-.35l3.32-1.45.27.24v14.66c0,3.61.47,4.27,1.56,4.55v.43h-5.15v-.43ZM113.56,85.14c0-.9.7-1.61,1.6-1.61s1.6.71,1.6,1.61-.7,1.61-1.6,1.61-1.6-.71-1.6-1.61Z"/>
          <path class="cls-1" d="M119.02,109.76c1.09-.27,1.56-.94,1.56-4.55v-9.02c0-3.21-.39-3.57-1.56-4.08v-.35l3.32-1.45.27.24v3.41c2.38-1.96,5.5-3.65,8.5-3.65,4.1,0,6.36,2.59,6.36,7.21v7.68c0,3.61.47,4.27,1.56,4.55v.43h-5.15v-.43c1.09-.27,1.56-.94,1.56-4.55v-6.86c0-4.67-1.91-7.02-5.97-7.02-2.46,0-4.99,1.61-6.87,3.21v10.66c0,3.61.47,4.27,1.56,4.55v.43h-5.15v-.43Z"/>
          <path class="cls-1" d="M4.28,154.3v-.63c1.44-.43,1.92-1.54,1.92-5.49v-21.49c0-3.95-.48-5.06-1.92-5.49v-.63h11.22c7.38,0,10.41,2.46,10.41,6.36,0,3.28-2.11,6.26-7.58,7.28,7.82.39,11.27,4.29,11.32,9.01.1,5.4-3.93,11.08-15.58,11.08H4.28ZM21.54,127.8c0-4-2.83-6.5-7.77-6.5h-3.64v12.82h4.46c4.75,0,6.95-2.79,6.95-6.31ZM25.28,144.42c0-5.54-3.07-9.59-10.26-9.59h-4.89v14.55c0,3.47.43,4.19,2.49,4.19h1.87c7.82,0,10.79-3.81,10.79-9.15Z"/>
          <path class="cls-1" d="M31.22,154.3v-.63c1.44-.43,1.92-1.54,1.92-5.49v-21.49c0-3.95-.48-5.06-1.92-5.49v-.63h7.77v.63c-1.49.43-1.92,1.54-1.92,5.49v24.67c0,1.4.77,2.17,2.16,2.17h5.71c4.6,0,6.71-1.16,8.39-4.77l.53.1-.34,5.44h-22.3Z"/>
          <path class="cls-1" d="M51.03,137.38c0-9.88,6.9-17.2,17.07-17.2,2.54,0,5.18.53,7.58,1.69,2.3-1.11,4.94-1.69,7.82-1.69,8.1,0,16.97,5.59,16.97,17.39s-8.92,17.2-16.97,17.2c-2.59,0-5.27-.53-7.67-1.69-2.45,1.16-5.13,1.69-7.72,1.69-8.15,0-17.07-5.44-17.07-17.39ZM74.96,152.66c-4.84-2.55-8.54-7.56-8.54-15.27,0-5.88,2.45-10.84,6.57-13.93-2.06-1.35-4.36-2.17-6.86-2.17-7.29,0-11.56,5.44-11.27,13.3.34,9.68,6.67,18.98,15.25,18.98,1.82,0,3.45-.34,4.84-.92ZM77.83,150.83c2.45-2.36,3.64-5.93,3.5-10.07-.24-6.7-3.07-13.11-7.48-16.62-2.45,2.36-3.74,6.02-3.6,10.46.24,6.46,3.12,12.77,7.58,16.24ZM96.72,140.76c-.34-10.07-6.62-19.47-15.2-19.47-1.87,0-3.55.34-4.99,1.01,4.84,2.6,8.54,7.66,8.54,15.27,0,6.5-2.68,11.08-6.43,13.83,2.01,1.35,4.36,2.17,6.86,2.17,7.67,0,11.46-5.59,11.22-12.82Z"/>
          <path class="cls-1" d="M103.78,153.67c1.49-.43,1.92-1.54,1.92-5.49v-19.56c0-5.49-1.01-6.84-2.92-7.42v-.63h5.8l12.51,20.77,12.28-20.77h5.42v.63c-1.92.58-2.93,1.93-2.93,7.42v19.56c0,3.95.43,5.06,1.92,5.49v.63h-7.77v-.63c1.44-.43,1.92-1.54,1.92-5.49v-23.71l-12.18,20.67h-.91l-12.28-20.29v21.39c0,5.49,1.15,6.84,3.26,7.42v.63h-6.04v-.63Z"/>
        </g>
      </g>
      <g>
        <path class="cls-1" d="M36.83,26.36c3.54,20.78,27.4,19.39,33.28,41.01.84-2.54-.82-5.09-.9-7.56-.5-4.19-1.58-8.23-2.15-12.45-.9-3.66-1.6-6.92-2.01-10.67-.37-2.95-2.03-5.17-1.25-8.27-4.91-9.22-18.84-11.05-21.55-22-4.54,5.54-6.87,12.88-5.42,19.94Z"/>
        <path class="cls-1" d="M67.54,25.75c2.31-1.18,4.65-1.14,6.95.26.46-3.76,2.41-7.73,3.87-11.24-2.6-4.83-4.94-9.66-6.88-14.77.17,3.34-.09,6.68-.07,9.96.11,1.85-.1,3.77-.16,5.73,0,.78-1.24.77-1.21-.02.2-5.3.32-10.12.22-15.43-1.49,5.2-4.12,9.76-6.48,14.53,1.31,3.66,3.16,7.06,3.76,10.98Z"/>
        <path class="cls-1" d="M121.59,45.88c-13.61,10.99-34.87,7.96-45.63,23.1.31.13.57.25.77.36,21.22-18.84,37.97-1.19,58.69-10.61-4.86-4.12-9.74-7.97-13.84-12.85Z"/>
        <path class="cls-1" d="M105.03,34.01c-7.94,14.62-26.62,15.32-31.02,34.36.26.06.51.12.74.19,10.7-15.72,32.4-12.66,46.25-23.77.04-.23.25-.42.49-.44,3.07-3.3,5.91-6.66,7.39-10.95-7.93-1.13-14.93-8.24-22.68-2.35-.33.99-.68,2.01-1.17,2.97Z"/>
        <path class="cls-1" d="M76.49,39.41c-.81,5.08-1.41,10.46-2.33,15.58-.33,4.11-2.07,8.34-1.15,12.53,4.3-17.22,19.37-19.26,28.98-30.87,6.43-8.85,6.18-22.04-1.19-30.32-2.97,11.14-17.41,12.72-23.15,21.73.94,1.92.18,3.67-.14,5.45-.35,2.05-.62,4-1.02,5.9Z"/>
        <path class="cls-1" d="M65.42,32.95c1.21,4.83,1.49,9.38,2.83,14.2.97,6.49,2.55,12.52,3.06,19.07.51,2.13.3-4.91.65-5.51,1.92-9.65,2.68-19.38,4.71-29,.28-.88.58-3.33-.96-3.63-1.39-.64-3.34-2.13-4.85-1.96-1.39-.08-6.18,1.85-6.06,3.41-.16,1.73.36,1.8.62,3.42Z"/>
        <path class="cls-1" d="M141.77,71.84c-2.52-3.75-5.24-7.25-7.66-11.08-15.3,6.32-32.37-4.14-47.3,3.47-3.57,1.57-6.71,4.14-10.06,6.48-1.24-.57-2.5-1.4-5.28-1.42-7.53.82-2.59,3.44-9.69-1.9-15.52-12.63-35.78,0-52.8-6.65-2.79,4.46-5.95,8.78-8.98,13.11,20.59,2.39,42.49-7.33,62.49.19,2.9,1.43,5.33,4.92,9.04,4.41,3.78.5,6.11-2.85,8.97-4.55,20.19-7.08,41.82,1.89,62.56.18-.42-.75-.8-1.54-1.28-2.26ZM75.29,75.94c-.79,1.42-5.61,1.61-6.84.34-.51,0-1.44-.26-1.11-.98,1.31-1.07,2.21.8,4.09.69,1.77,0,2.37-.39,3.41-1.17.72-.3,1.19.84.45,1.12Z"/>
        <path class="cls-1" d="M14.12,61.13c19.64,2.31,35.21-7.28,52.35,8.28.19-.11.4-.23.62-.34-10.34-15.38-32.17-12.01-45.56-23.22-4.09,4.85-8.98,8.78-13.8,12.83,1.91,1.23,4.16,1.95,6.39,2.45Z"/>
        <path class="cls-1" d="M21.69,44.39c13.51,11.76,36.17,8.13,46.55,24.21.32-.11.55-.17.92-.26-5.18-20.27-26.2-20.12-32.22-37.07-7.36-5.52-15.45,1.23-23.02,1.97,1.63,4.33,4.4,7.97,7.77,11.15Z"/>
      </g>
    </g>
  </g>
</svg>