<?xml version="1.0" encoding="UTF-8"?>
<svg id="Layer_2" data-name="Layer 2" xmlns="http://www.w3.org/2000/svg" viewBox="0 0 467.82 467.82">
  <defs>
    <style>
      .cls-1 {
        fill: #f2ede3;
      }

      .cls-2 {
        fill: #133430;
      }
    </style>
  </defs>
  <g id="Layer_1-2" data-name="Layer 1">
    <rect class="cls-1" width="467.82" height="467.82" rx="33.04" ry="33.04"/>
    <g>
      <path class="cls-2" d="M132.88,196.36c10.29,60.5,79.76,56.44,96.89,119.39,2.45-7.41-2.37-14.82-2.61-22-1.46-12.21-4.59-23.97-6.27-36.25-2.62-10.65-4.67-20.14-5.84-31.06-1.07-8.57-5.91-15.04-3.65-24.08-14.31-26.83-54.84-32.18-62.75-64.04-13.22,16.14-20,37.5-15.78,58.04Z"/>
      <path class="cls-2" d="M222.29,194.57c6.73-3.43,13.54-3.32,20.22.77,1.35-10.96,7.02-22.5,11.26-32.73-7.58-14.06-14.39-28.12-20.03-42.99.5,9.72-.25,19.46-.19,28.99.32,5.37-.31,10.97-.47,16.67,0,2.28-3.6,2.25-3.53-.05.59-15.44.94-29.46.65-44.91-4.34,15.13-11.99,28.43-18.86,42.3,3.83,10.64,9.21,20.56,10.94,31.95Z"/>
      <path class="cls-2" d="M379.64,253.19c-39.63,32.01-101.5,23.18-132.83,67.26.9.37,1.66.73,2.25,1.04,61.79-54.84,110.55-3.48,170.87-30.88-14.15-12-28.37-23.2-40.29-37.41Z"/>
      <path class="cls-2" d="M331.45,218.64c-23.13,42.57-77.51,44.61-90.29,100.02.76.17,1.49.36,2.17.56,31.15-45.77,94.32-36.87,134.65-69.21.13-.67.73-1.22,1.41-1.28,8.94-9.62,17.21-19.38,21.5-31.89-23.08-3.28-43.47-24-66.02-6.85-.96,2.89-1.97,5.85-3.41,8.65Z"/>
      <path class="cls-2" d="M248.35,234.35c-2.36,14.79-4.12,30.45-6.77,45.37-.95,11.96-6.03,24.29-3.34,36.47,12.52-50.12,56.39-56.06,84.36-89.87,18.73-25.75,17.98-64.17-3.48-88.27-8.65,32.44-50.68,37.03-67.39,63.27,2.73,5.6.54,10.69-.42,15.88-1.02,5.97-1.79,11.65-2.96,17.17Z"/>
      <path class="cls-2" d="M216.11,215.53c3.53,14.06,4.33,27.3,8.25,41.33,2.82,18.9,7.42,36.46,8.91,55.52,1.48,6.19.87-14.31,1.89-16.04,5.59-28.1,7.8-56.41,13.7-84.41.81-2.55,1.69-9.7-2.81-10.57-4.04-1.86-9.71-6.19-14.11-5.7-4.06-.24-17.98,5.38-17.64,9.93-.47,5.03,1.05,5.25,1.8,9.95Z"/>
      <path class="cls-2" d="M438.41,328.78c-7.34-10.91-15.25-21.11-22.3-32.24-44.54,18.41-94.23-12.06-137.71,10.09-10.38,4.59-19.54,12.05-29.3,18.87-3.6-1.66-7.28-4.08-15.36-4.13-21.93,2.38-7.55,10.02-28.21-5.54-45.19-36.76-104.17-.02-153.71-19.35-8.13,12.97-17.31,25.57-26.14,38.18,59.95,6.97,123.7-21.33,181.92.56,8.45,4.17,15.51,14.33,26.32,12.84,11.01,1.47,17.8-8.29,26.1-13.24,58.78-20.62,121.75,5.49,182.13.53-1.21-2.19-2.34-4.48-3.73-6.57ZM244.87,340.68c-2.29,4.14-16.33,4.68-19.92.99-1.49.01-4.18-.75-3.23-2.85,3.81-3.11,6.44,2.33,11.9,2,5.16.02,6.9-1.14,9.93-3.41,2.11-.88,3.46,2.45,1.32,3.27Z"/>
      <path class="cls-2" d="M66.78,297.59c57.19,6.72,102.51-21.21,152.4,24.1.55-.32,1.16-.66,1.82-.98-30.11-44.76-93.64-34.98-132.63-67.6-11.9,14.13-26.13,25.57-40.18,37.35,5.55,3.59,12.1,5.68,18.6,7.12Z"/>
      <path class="cls-2" d="M88.81,248.84c39.32,34.24,105.31,23.68,135.52,70.48.92-.31,1.59-.5,2.67-.75-15.09-59.01-76.28-58.57-93.8-107.93-21.43-16.08-44.97,3.58-67.02,5.73,4.74,12.61,12.8,23.22,22.63,32.46Z"/>
    </g>
  </g>
</svg>