<?xml version="1.0" encoding="UTF-8"?>
<svg id="Layer_2" xmlns="http://www.w3.org/2000/svg" version="1.1" viewBox="0 0 304.3 64.7">
  <!-- Generator: Adobe Illustrator 30.6.0, SVG Export Plug-In . SVG Version: 2.1.4 Build 109)  -->
  <defs>
    <style>
      .st0 {
        fill: #1d1712;
      }
    </style>
  </defs>
  <path class="st0" d="M7.4,30.6c2.5,2.1,1,1.2.2.9s-1.3-.3-1.7.2c-.3.5-.6,1.4-.7,2.2-1,6.2-3.9,21.8-5.1,28.7,12,3.9,275.9.7,287.6,2.1,4.4-1.1,9.7-3.2,14-4.7.9-.3,1.7-.7,2.3-1.3.5-.6.2-1.4-.1-2.1-2.6-5.1-11.2-22.5-8.9-32.6,1-4.4,2.8-7.2-3.2-8.4C206.9-3.6,90.6,46,9.8,0c-2.1.7-2.4,3.4-2.8,5.3-.7,5.4-.7,10.1-1,15.8,0,3.1-.9,7,1.2,9.3h.1Z"/>
</svg>