<?xml version="1.0" encoding="UTF-8"?>
<svg id="Layer_1" data-name="Layer 1" xmlns="http://www.w3.org/2000/svg" viewBox="0 0 72 100">
  <g>
    <path d="M9.75,27.39h6.91v2.26h-4.3v2.85h4.06v2.18h-4.06v3.38h4.3v2.26h-6.91v-12.93Z"/>
    <path d="M22.49,29.45c-1.02,0-1.59.63-1.59,1.39,0,.87.51,1.18,2.37,1.76,1.88.57,3.31,1.51,3.31,3.52,0,2.74-1.96,4.42-4.51,4.42-1.6,0-3.26-.65-4.32-1.78l1.5-2.02c.85.89,1.73,1.35,2.77,1.35s1.78-.62,1.78-1.63-.79-1.37-2.31-1.82c-2.13-.6-3.38-1.56-3.38-3.57,0-2.19,1.59-3.91,4.23-3.91,1.28,0,2.73.48,3.69,1.51l-1.28,1.9c-.67-.74-1.45-1.13-2.27-1.13Z"/>
    <path d="M31.94,29.45c-1.03,0-1.59.63-1.59,1.39,0,.87.51,1.18,2.37,1.76,1.88.57,3.31,1.51,3.31,3.52,0,2.74-1.96,4.42-4.51,4.42-1.6,0-3.26-.65-4.32-1.78l1.5-2.02c.85.89,1.73,1.35,2.77,1.35s1.78-.62,1.78-1.63-.79-1.37-2.31-1.82c-2.13-.6-3.38-1.56-3.38-3.57,0-2.19,1.59-3.91,4.23-3.91,1.28,0,2.73.48,3.69,1.51l-1.28,1.9c-.67-.74-1.45-1.13-2.27-1.13Z"/>
    <path d="M41.87,27.15h1.67l5.39,13.17h-2.73l-1.06-2.67h-5.17l-1.13,2.67h-2.66l5.69-13.17ZM44.31,35.49l-1.67-4.29h-.03l-1.76,4.29h3.47Z"/>
    <path d="M51.02,34.27l-4.56-6.88h3.12l2.72,4.42h.07l2.78-4.42h3.07l-4.59,6.88v6.05h-2.61v-6.05Z"/>
    <path d="M62.53,29.45c-1.02,0-1.59.63-1.59,1.39,0,.87.51,1.18,2.37,1.76,1.88.57,3.31,1.51,3.31,3.52,0,2.74-1.96,4.42-4.51,4.42-1.6,0-3.26-.65-4.32-1.78l1.5-2.02c.85.89,1.73,1.35,2.77,1.35s1.78-.62,1.78-1.63-.79-1.37-2.31-1.82c-2.13-.6-3.38-1.56-3.38-3.57,0-2.19,1.59-3.91,4.23-3.91,1.28,0,2.73.48,3.69,1.51l-1.28,1.9c-.67-.74-1.45-1.13-2.27-1.13Z"/>
  </g>
  <g>
    <path d="M52.39,43.65v12.93h-2.61v-12.93h2.61Z"/>
    <path d="M54.67,43.41h1.67l7.72,8.64.03-.02v-8.39h2.53v13.17h-1.59l-7.8-8.73-.03.02v8.47h-2.53v-13.17Z"/>
  </g>
  <g>
    <path d="M5.37,72.66v-.2c.51-.13.73-.44.73-2.13v-8.18c0-1.69-.22-2-.73-2.13v-.2h4.02c2.61,0,3.84.93,3.84,2.42,0,1.25-.82,2.38-2.67,2.75,2.94.2,4.02,1.78,4.04,3.54.04,1.96-1.39,4.13-5.76,4.13h-3.47ZM12.1,62.48c0-1.45-.97-2.42-2.89-2.42h-2.08v4.93h1.79c2.32,0,3.18-1.12,3.18-2.51ZM13.47,68.77c0-2.02-1.11-3.54-3.87-3.54h-2.47v5.58c0,1.32.17,1.6.95,1.6h.93c3.36,0,4.46-1.5,4.46-3.63Z"/>
    <path d="M16.17,72.66v-.2c.51-.13.73-.44.73-2.13v-8.18c0-1.69-.22-2-.73-2.13v-.2h2.49v.2c-.51.13-.73.44-.73,2.13v9.54c0,.48.26.73.73.73h2.92c1.64,0,2.27-.44,2.81-1.61l.17.04-.11,1.82h-8.28Z"/>
    <path d="M24.05,66.26c0-3.89,2.58-6.58,6.45-6.58,3.09,0,6.43,2.13,6.43,6.62s-3.36,6.55-6.43,6.55-6.45-2.09-6.45-6.58ZM35.97,67.25c0-3.74-2.58-7.23-5.99-7.23-3.09,0-4.93,2.22-4.93,5.25,0,3.7,2.5,7.23,5.94,7.23,3.07,0,4.99-2.13,4.99-5.25Z"/>
    <path d="M38.75,66.26c0-3.89,2.58-6.58,6.45-6.58,3.09,0,6.43,2.13,6.43,6.62s-3.36,6.55-6.43,6.55-6.45-2.09-6.45-6.58ZM50.67,67.25c0-3.74-2.58-7.23-5.99-7.23-3.09,0-4.93,2.22-4.93,5.25,0,3.7,2.5,7.23,5.94,7.23,3.07,0,4.99-2.13,4.99-5.25Z"/>
    <path d="M53.62,72.46c.51-.13.73-.44.73-2.13v-7.85c0-1.91-.38-2.31-.99-2.46v-.2h1.63l5.06,8.31,4.57-7.47.02-.04.49-.81h1.5v.2c-.6.15-.99.55-.99,2.46v7.85c0,1.69.22,2,.73,2.13v.2h-2.49v-.2c.51-.13.73-.44.73-2.13v-9.15l-4.9,8h-.26l-4.79-7.89v8.71c0,1.91.42,2.31,1.1,2.46v.2h-2.16v-.2Z"/>
  </g>
</svg>