<?xml version="1.0" encoding="UTF-8"?>
<svg id="Color_Kit" data-name="Color Kit" xmlns="http://www.w3.org/2000/svg" viewBox="0 0 72 100">
  <g>
    <path d="M10.69,40.82c-1.26,0-3.26,0-5.14.06.06-1.09.11-2.41.11-3.97v-5.48c0-1.55-.06-2.88-.11-3.97,1.87.06,3.86.06,5.02.06.8,0,2.25,0,3.78-.1.19-.02.23.04.19.21l-.27,1.13c-.02.1-.08.11-.29.1-1.78-.15-3.03-.25-4.48-.25-.65,0-.96.21-.97.73-.04.82-.06,1.55-.06,2.32v1.23c0,.5.25.59.63.59h.34c1.51,0,2.46-.02,3.53-.15.15-.02.23.08.15.25l-.38,1.03c-.06.21-.17.21-.42.19-.73-.06-2.04-.14-3.05-.14h-.17c-.38,0-.63.1-.63.6v1.42c0,.77,0,1.48.06,2.3.04.52.32.73.97.73,1.54,0,3.11-.15,4.89-.31.21-.02.3,0,.29.1l-.23,1.21c-.04.17-.04.23-.19.21-1.53-.1-2.48-.1-3.57-.1Z"/>
    <path d="M15.4,39.85l.23-.86c.54-2.01.9.84,4.47.84,1.59,0,2.08-.71,2.08-1.63,0-.83-.34-1.13-1.91-2.13l-1.4-.94c-2.25-1.5-3.21-2.3-3.21-3.91,0-2.47,2.48-4.06,4.75-4.06,1.47,0,3.36.65,3.21,1.11l-.25.69c-.63,2.01-.57-.42-3.78-.42-1.26,0-1.85.63-1.85,1.55,0,.86.54,1.34,1.8,2.13l1.64,1.08c2.16,1.4,3.02,2.28,3.02,3.77,0,2.45-2.37,4.12-4.91,4.12-1.6,0-4.09-.63-3.89-1.34Z"/>
    <path d="M24.82,39.85l.23-.86c.54-2.01.9.84,4.47.84,1.58,0,2.08-.71,2.08-1.63,0-.83-.34-1.13-1.91-2.13l-1.39-.94c-2.25-1.5-3.21-2.3-3.21-3.91,0-2.47,2.48-4.06,4.75-4.06,1.47,0,3.36.65,3.21,1.11l-.25.69c-.63,2.01-.57-.42-3.78-.42-1.26,0-1.85.63-1.85,1.55,0,.86.54,1.34,1.8,2.13l1.64,1.08c2.16,1.4,3.02,2.28,3.02,3.77,0,2.45-2.37,4.12-4.91,4.12-1.6,0-4.08-.63-3.89-1.34Z"/>
    <path d="M34.83,38.02l3.17-7.32c.55-1.28.9-2.34.97-3.05.02-.17,1.36-.4,1.41-.27l4.54,10.68c.42.96.82,1.86,1.3,2.82h-2.98l-1.28-2.86c-.23-.54-.38-.56-.9-.56h-3.74c-.57,0-.78,0-.97.56l-.99,2.86h-1.83c.44-.96.9-1.9,1.3-2.86ZM37.66,36.24h3.05c.25,0,.5-.06.38-.32l-1.91-4.62-1.91,4.62c-.12.27.13.32.38.32Z"/>
    <path d="M49.7,36.91v-1.99l-4.81-7.46h3.26c.73,1.26,2.04,3.34,2.92,4.69l.67,1.11.78-1.11c.9-1.3,2.21-3.43,2.85-4.69h1.95l-4.81,7.34v2.11c0,1.55.08,2.88.13,3.97h-3.07c.06-1.09.14-2.41.14-3.97Z"/>
    <path d="M57.64,39.85l.23-.86c.54-2.01.9.84,4.47.84,1.59,0,2.08-.71,2.08-1.63,0-.83-.34-1.13-1.91-2.13l-1.4-.94c-2.25-1.5-3.21-2.3-3.21-3.91,0-2.47,2.48-4.06,4.75-4.06,1.47,0,3.36.65,3.21,1.11l-.25.69c-.63,2.01-.57-.42-3.78-.42-1.26,0-1.85.63-1.85,1.55,0,.86.54,1.34,1.8,2.13l1.64,1.08c2.16,1.4,3.02,2.28,3.02,3.77,0,2.45-2.37,4.12-4.91,4.12-1.6,0-4.09-.63-3.89-1.34Z"/>
  </g>
  <g>
    <path d="M3.26,72.54c.06-1.09.11-2.41.11-3.97v-5.48c0-1.55-.06-2.88-.11-3.97,1.87.06,3.23-.04,4.85-.04,2.39,0,4.35,1.02,4.39,3.11.04,1.46-.88,2.59-2.44,2.91v.14c1.85,0,3.59,1.25,3.59,3.39,0,2.45-2.33,3.95-5.4,3.95-2.04,0-3.11-.1-4.98-.04ZM8.02,64.85c1.15,0,1.58-.81,1.58-2.01,0-1.57-.8-2.65-2.33-2.65-.79,0-1.09.21-1.09,1.11v3.55h1.83ZM8.04,71.47c1.22,0,2.64-.36,2.64-2.32,0-1.67-.99-3.2-2.65-3.2h-1.83v4.12c0,.84.46,1.4,1.85,1.4Z"/>
    <path d="M20.01,72.48c-1.26,0-3.26,0-5.14.06.06-1.09.11-2.41.11-3.97v-5.48c0-1.55-.06-2.88-.11-3.97h3.05c-.04,1.09-.13,2.41-.13,3.97v5.25c0,.77,0,1.48.06,2.3.04.52.32.73.97.73,1.54,0,3.23-.15,5-.31.21-.02.3,0,.29.1l-.23,1.21c-.04.17-.04.23-.19.21-1.53-.1-2.69-.1-3.68-.1Z"/>
    <path d="M24.11,65.93c0-3.87,2.8-7.11,7.01-7.11,3.95,0,6.93,2.89,6.93,6.9s-2.77,7.13-6.99,7.13c-3.93,0-6.95-2.93-6.95-6.92ZM31.88,71.39c1.55,0,3.45-1.17,3.45-4.49,0-3.7-2.54-6.63-5.06-6.63-1.55,0-3.44,1.17-3.44,4.47,0,3.74,2.56,6.65,5.04,6.65Z"/>
    <path d="M38.7,65.93c0-3.87,2.8-7.11,7.01-7.11,3.95,0,6.93,2.89,6.93,6.9s-2.77,7.13-6.99,7.13c-3.93,0-6.95-2.93-6.95-6.92ZM46.47,71.39c1.55,0,3.45-1.17,3.45-4.49,0-3.7-2.54-6.63-5.06-6.63-1.55,0-3.44,1.17-3.44,4.47,0,3.74,2.56,6.65,5.04,6.65Z"/>
    <path d="M54.51,66.9l.46-7.71c.02-.38.74-.42.99,0l5.65,10.14,5.19-10.14c.21-.42,1.01-.38,1.03-.02l.49,7.73c.1,1.88.23,3.76.4,5.64h-2.96c-.08-1.88-.15-3.76-.27-5.64l-.15-2.32-2.84,5.67c-.38.73-.61,1.52-.69,1.77-.09.25-.53.29-.95.29s-.54-.06-.65-.29l-4.22-7.71-.09,2.59c-.08,1.88-.14,3.76-.19,5.64h-1.66c.17-1.88.35-3.76.46-5.64Z"/>
  </g>
  <g>
    <path d="M31.32,45.34c0-.34.79-.98.95-.98.17,0,.94.64.94.98s-.77.96-.94.96c-.16,0-.95-.64-.95-.96ZM32.79,48.17c.11-.03.2-.03.18.12-.06.51-.14,1.51-.14,2.8v1.99c0,1.18.05,2.01.08,2.55h-1.3c.04-.64.06-1.91.06-2.55v-1.99c0-1.2-.04-2.01-.08-2.55l1.19-.37Z"/>
    <path d="M34.52,53.09v-2.5c0-.81-.05-1.49-.08-2.04l1.15-.36c.09-.03.12,0,.12.12,0,.5.11.65.37.54.7-.3,1.47-.73,2.41-.73,1.45,0,2.1,1.17,2.1,2.29v2.67c0,1.18.05,2.01.08,2.55h-1.28c.05-.64.06-1.91.06-2.55v-2.33c0-1.31-.97-1.54-1.8-1.54s-1.98.2-1.98.61v3.27c0,1.18.05,2.01.08,2.55h-1.3c.05-.64.06-1.91.06-2.55Z"/>
  </g>
  <path d="M42.81,55.32c-.14,0-.22,0-.29,0-.07,0-.14,0-.28,0-.04,0-.07-.03-.07-.07s.03-.07.07-.07c.14,0,.22,0,.29,0,.07,0,.14,0,.28,0s.21,0,.28,0c.07,0,.14,0,.29,0s.21,0,.28,0c.07,0,.14,0,.29,0s.22,0,.29,0c.07,0,.14,0,.28,0s.2,0,.27-.02c.07,0,.15-.02.29-.02s.22,0,.29.02c.07,0,.14.02.27.02s.21,0,.28,0c.07,0,.14,0,.28,0s.2,0,.27-.02c.07,0,.15-.02.29-.02s.22,0,.29.02c.07,0,.14.02.27.02s.21,0,.28,0c.07,0,.14,0,.28,0s.21,0,.28,0c.07,0,.14,0,.28,0s.2,0,.27-.01c.07,0,.14-.01.29-.01s.22,0,.29.01c.07,0,.14.01.27.01s.21,0,.28-.01c.07,0,.14-.01.29-.01s.21,0,.29,0c.07,0,.14,0,.28,0s.21,0,.27-.01c.07,0,.14-.01.29-.01h.56c.14,0,.22,0,.29.02s.14.01.27.01.21,0,.27,0c.07,0,.14,0,.28,0s.21,0,.28,0c.07,0,.14,0,.28,0s.21,0,.28,0c.07,0,.14,0,.28,0h.56c.14,0,.21,0,.28,0,.07,0,.14,0,.28,0s.21,0,.28,0c.07,0,.14,0,.28,0s.22,0,.29.02c.07,0,.14.02.27.02s.21,0,.28,0c.07,0,.14,0,.29,0s.21,0,.28,0c.07,0,.14,0,.29,0s.22,0,.29.01c.07,0,.14.01.27.01s.2,0,.27-.01c.07,0,.14-.01.29-.01s.22,0,.29.02c.07,0,.14.02.27.02s.21,0,.28,0c.07,0,.14,0,.29,0s.21,0,.28,0c.07,0,.14,0,.28,0h.56c.14,0,.22,0,.29.01.07,0,.14.01.27.01s.21,0,.28,0c.07,0,.14,0,.28,0,.28,0,.28,0,.56,0,.14,0,.21,0,.28,0,.07,0,.14,0,.28,0s.21,0,.28,0c.07,0,.14,0,.28,0h.56c.14,0,.21,0,.29,0,.07,0,.14,0,.28,0s.21,0,.28,0c.07,0,.14,0,.28,0s.21,0,.28,0c.07,0,.14,0,.28,0s.21,0,.28,0c.07,0,.14,0,.28,0,.04,0,.07.03.07.07s-.03.07-.07.07c-.14,0-.21,0-.28,0-.07,0-.14,0-.28,0s-.21,0-.28,0c-.07,0-.14,0-.28,0s-.21,0-.28,0c-.07,0-.14,0-.28,0s-.21,0-.29,0c-.07,0-.14,0-.28,0h-.56c-.14,0-.21,0-.28,0-.07,0-.14,0-.29,0s-.21,0-.28,0c-.07,0-.14,0-.28,0-.28,0-.28,0-.56,0-.14,0-.21,0-.28,0-.07,0-.14,0-.28,0s-.22,0-.29-.01c-.07,0-.14-.01-.27-.01h-.56c-.14,0-.21,0-.28,0-.07,0-.14,0-.28,0s-.21,0-.28,0c-.07,0-.14,0-.29,0s-.22,0-.29-.02c-.07,0-.14-.02-.27-.02s-.2,0-.27.01c-.07,0-.14.01-.29.01s-.22,0-.29-.01c-.07,0-.14-.01-.27-.01s-.21,0-.28,0c-.07,0-.14,0-.28,0s-.21,0-.28,0c-.07,0-.14,0-.29,0s-.22,0-.29-.02c-.07,0-.14-.02-.27-.02s-.21,0-.28,0c-.07,0-.14,0-.28,0s-.21,0-.28,0c-.07,0-.14,0-.28,0h-.56c-.14,0-.21,0-.28,0-.07,0-.14,0-.28,0s-.21,0-.28,0c-.07,0-.14,0-.28,0s-.21,0-.27,0c-.07,0-.14,0-.28,0s-.22,0-.29-.01-.14-.01-.27-.01h-.56c-.14,0-.21,0-.27.01-.07,0-.14.01-.29.01s-.21,0-.28,0c-.07,0-.14,0-.28,0s-.21,0-.28.01c-.07,0-.14.01-.29.01s-.22,0-.29-.01c-.07,0-.14-.01-.27-.01s-.2,0-.27.01c-.07,0-.14.01-.29.01s-.21,0-.28,0c-.07,0-.14,0-.28,0s-.21,0-.28,0c-.07,0-.14,0-.28,0s-.22,0-.29-.02c-.07,0-.14-.02-.27-.02s-.2,0-.27.02c-.07,0-.15.02-.29.02s-.21,0-.28,0c-.07,0-.14,0-.28,0s-.22,0-.29-.02c-.07,0-.14-.02-.27-.02s-.2,0-.27.02c-.07,0-.15.02-.29.02s-.22,0-.29,0c-.07,0-.14,0-.28,0s-.21,0-.28,0c-.07,0-.14,0-.29,0s-.21,0-.28,0c-.07,0-.14,0-.29,0Z"/>
  <path d="M9.52,55.32c-.14,0-.21,0-.28,0-.07,0-.14,0-.28,0s-.21,0-.29,0c-.07,0-.14,0-.28,0s-.21,0-.28,0c-.07,0-.14,0-.29,0s-.22,0-.29,0c-.07,0-.14,0-.28,0h-.57c-.14,0-.21,0-.28,0-.07,0-.14,0-.29,0s-.22,0-.29,0c-.07,0-.14,0-.28,0-.04,0-.07-.03-.07-.07s.03-.07.07-.07c.14,0,.21,0,.29,0,.07,0,.14,0,.28,0s.21,0,.28,0c.07,0,.14,0,.29,0h.57c.14,0,.22,0,.29,0,.07,0,.14,0,.28,0s.21,0,.28,0c.07,0,.14,0,.29,0s.21,0,.29,0c.07,0,.14,0,.28,0s.21,0,.28,0c.07,0,.14,0,.28,0s.21,0,.28,0c.07,0,.14,0,.29,0s.21,0,.28,0c.07,0,.14,0,.28,0s.21,0,.28,0c.07,0,.14,0,.29,0s.22,0,.29.01c.07,0,.14.01.28.01s.21,0,.28,0c.07,0,.14,0,.28,0s.21,0,.28,0c.07,0,.14,0,.28,0s.21,0,.28,0c.07,0,.14,0,.28,0s.21,0,.28,0c.07,0,.14,0,.28,0,.28,0,.28,0,.56,0,.14,0,.21,0,.28,0,.07,0,.14,0,.28,0s.21,0,.28,0c.07,0,.14,0,.28,0,.28,0,.28,0,.56,0s.28,0,.56,0c.14,0,.22,0,.29.01.07,0,.14.01.27.01s.21,0,.28,0c.07,0,.14,0,.28,0s.21,0,.28,0c.07,0,.14,0,.29,0s.21,0,.28,0c.07,0,.14,0,.29,0s.22,0,.29.01c.07,0,.14.01.27.01s.2,0,.27-.01.14-.01.29-.01.22.01.29.02c.07.01.14.02.27.02s.21,0,.28,0c.07,0,.14,0,.28,0s.21,0,.28,0c.07,0,.14,0,.28,0s.22,0,.29,0c.07,0,.14,0,.28,0s.2,0,.27-.01c.07,0,.14-.01.29-.01s.22,0,.29.01c.07,0,.14.01.27.01s.2,0,.27-.01c.07,0,.14-.01.29-.01s.21,0,.28,0c.07,0,.14,0,.28,0h.56c.28,0,.28,0,.56,0,.14,0,.22,0,.29.02.07,0,.13.02.27.02.28,0,.28,0,.56,0,.14,0,.21,0,.28,0,.07,0,.14,0,.28,0s.21,0,.28,0c.07,0,.14,0,.28,0s.21,0,.28,0c.07,0,.14,0,.28,0s.21,0,.28,0c.07,0,.14,0,.28,0,.04,0,.07.03.07.07s-.03.07-.07.07c-.14,0-.21,0-.28,0-.07,0-.14,0-.28,0s-.21,0-.28,0c-.07,0-.14,0-.28,0s-.21,0-.28,0c-.07,0-.14,0-.28,0s-.21,0-.28,0c-.07,0-.14,0-.28,0-.28,0-.28,0-.56,0-.14,0-.22,0-.29-.02-.07,0-.13-.02-.27-.02-.28,0-.28,0-.56,0h-.56c-.14,0-.21,0-.28,0-.07,0-.14,0-.28,0s-.2,0-.27.01c-.07,0-.14.01-.29.01s-.22,0-.29-.01c-.07,0-.14-.01-.27-.01s-.2,0-.27.01c-.07,0-.14.01-.29.01s-.22,0-.29,0c-.07,0-.14,0-.28,0s-.21,0-.28,0c-.07,0-.14,0-.28,0s-.21,0-.28,0c-.07,0-.14,0-.28,0s-.22-.01-.29-.02c-.07-.01-.14-.02-.27-.02s-.2,0-.27.01-.14.01-.29.01-.22,0-.29-.01c-.07,0-.14-.01-.27-.01s-.21,0-.28,0c-.07,0-.14,0-.29,0s-.21,0-.28,0c-.07,0-.14,0-.29,0s-.21,0-.28,0c-.07,0-.14,0-.28,0s-.22,0-.29-.01c-.07,0-.14-.01-.28-.01-.28,0-.28,0-.56,0s-.28,0-.56,0c-.14,0-.21,0-.28,0-.07,0-.14,0-.28,0s-.21,0-.28,0c-.07,0-.14,0-.28,0-.28,0-.28,0-.56,0-.14,0-.21,0-.28,0-.07,0-.14,0-.28,0s-.21,0-.28,0c-.07,0-.14,0-.28,0s-.21,0-.28,0c-.07,0-.14,0-.28,0s-.21,0-.28,0c-.07,0-.14,0-.28,0s-.22,0-.29-.01c-.07,0-.14-.01-.27-.01s-.21,0-.28,0c-.07,0-.14,0-.29,0s-.21,0-.28,0c-.07,0-.14,0-.29,0s-.21,0-.28,0c-.07,0-.14,0-.29,0Z"/>
  <path d="M60.27,52.37c-.14,0-.21,0-.28,0-.07,0-.14,0-.28,0h-.56c-.14,0-.21,0-.28,0-.07,0-.14,0-.28,0s-.22,0-.29-.02c-.07,0-.14-.02-.27-.02s-.21,0-.28,0c-.07,0-.14,0-.28,0s-.21,0-.28,0c-.07,0-.14,0-.28,0s-.21,0-.28,0c-.07,0-.14,0-.28,0s-.21,0-.28,0c-.07,0-.14,0-.28,0h-.56c-.14,0-.22,0-.29-.01-.07,0-.14-.01-.28-.01s-.21,0-.27.01c-.07,0-.14.01-.29.01s-.21,0-.28,0c-.07,0-.14,0-.28,0-.28,0-.28,0-.56,0-.14,0-.21,0-.28,0-.07,0-.14,0-.28,0h-.56c-.14,0-.21,0-.28,0-.07,0-.14,0-.28,0s-.21,0-.28,0c-.07,0-.14,0-.29,0s-.22,0-.29-.01c-.07,0-.14-.01-.28-.01h-.56c-.14,0-.21,0-.28,0-.07,0-.14,0-.28,0s-.21,0-.28,0c-.07,0-.14,0-.28,0s-.2,0-.27.02c-.07.01-.15.02-.29.02s-.22,0-.29-.02c-.07,0-.14-.02-.27-.02s-.21,0-.28,0c-.07,0-.14,0-.28,0s-.21,0-.28,0c-.07,0-.14,0-.29,0s-.21,0-.28,0c-.07,0-.14,0-.28,0s-.21,0-.28,0c-.07,0-.14,0-.28,0s-.21,0-.28,0c-.07,0-.14,0-.28,0s-.21,0-.28,0c-.07,0-.14,0-.28,0-.28,0-.29,0-.57,0-.15,0-.22,0-.29-.02-.07,0-.14-.02-.27-.02-.28,0-.28,0-.57,0-.04,0-.07-.03-.07-.07s.03-.07.07-.07c.28,0,.28,0,.57,0,.15,0,.22,0,.29.02.07,0,.14.02.27.02.28,0,.28,0,.57,0,.14,0,.21,0,.28,0,.07,0,.14,0,.28,0s.21,0,.28,0c.07,0,.14,0,.28,0s.21,0,.28,0c.07,0,.14,0,.28,0s.21,0,.28,0c.07,0,.14,0,.28,0s.21,0,.28,0c.07,0,.14,0,.29,0s.21,0,.28,0c.07,0,.14,0,.29,0s.22,0,.29.02c.07,0,.14.02.27.02s.2,0,.27-.02c.07-.01.15-.02.29-.02s.21,0,.28,0c.07,0,.14,0,.28,0s.21,0,.28,0c.07,0,.14,0,.28,0h.56c.14,0,.22,0,.29.01.07,0,.14.01.27.01s.21,0,.28,0c.07,0,.14,0,.28,0s.21,0,.28,0c.07,0,.14,0,.28,0h.56c.14,0,.21,0,.28,0,.07,0,.14,0,.28,0,.28,0,.28,0,.56,0,.14,0,.21,0,.28,0,.07,0,.14,0,.28,0s.2,0,.27-.01c.07,0,.14-.01.29-.01s.22,0,.29.01c.07,0,.14.01.28.01h.56c.14,0,.21,0,.28,0,.07,0,.14,0,.28,0s.21,0,.28,0c.07,0,.14,0,.28,0s.21,0,.28,0c.07,0,.14,0,.28,0s.21,0,.28,0c.07,0,.14,0,.28,0s.22,0,.29.02c.07,0,.14.02.27.02s.21,0,.28,0c.07,0,.14,0,.28,0h.56c.14,0,.21,0,.28,0,.07,0,.14,0,.28,0s.21,0,.28,0c.07,0,.14,0,.28,0s.21,0,.28,0c.07,0,.14,0,.28,0s.21,0,.29.01c.07,0,.14.01.27.01s.21,0,.28,0c.07,0,.14,0,.28,0s.21,0,.28,0c.07,0,.14,0,.28,0s.21,0,.28,0c.07,0,.14,0,.28,0s.21,0,.29,0c.07,0,.14,0,.28,0s.21,0,.28,0c.07,0,.14-.01.29-.01s.21,0,.28,0c.07,0,.14,0,.29,0s.21,0,.28,0c.07,0,.14,0,.28,0s.21,0,.28,0c.07,0,.14,0,.28,0,.04,0,.07.03.07.07s-.03.07-.07.07c-.14,0-.21,0-.28,0-.07,0-.14,0-.28,0s-.21,0-.28,0c-.07,0-.14,0-.28,0s-.21,0-.28,0c-.07,0-.14,0-.29,0s-.21,0-.28,0c-.07,0-.14.01-.29.01s-.21,0-.29,0c-.07,0-.14,0-.28,0s-.21,0-.28,0c-.07,0-.14,0-.28,0s-.21,0-.28,0c-.07,0-.14,0-.28,0s-.21,0-.28,0c-.07,0-.14,0-.28,0s-.21,0-.29-.01c-.07,0-.14-.01-.27-.01s-.21,0-.28,0c-.07,0-.14,0-.28,0s-.21,0-.28,0c-.07,0-.14,0-.28,0Z"/>
  <path d="M13.48,52.37c-.15,0-.22-.01-.29-.02-.07,0-.14-.02-.27-.02s-.21,0-.28,0c-.07,0-.14,0-.28,0s-.21,0-.28,0c-.07,0-.14,0-.28,0s-.21,0-.28,0c-.07,0-.14,0-.28,0s-.21,0-.28,0c-.07,0-.14,0-.29,0-.28,0-.28,0-.56,0-.28,0-.28,0-.57,0-.14,0-.21,0-.28,0-.07,0-.14,0-.28,0s-.21,0-.29,0c-.07,0-.14,0-.28,0s-.21,0-.28,0c-.07,0-.14,0-.29,0s-.21,0-.28,0c-.07,0-.14,0-.29,0s-.22,0-.29,0c-.07,0-.14,0-.28,0s-.21,0-.29,0c-.07,0-.14,0-.28,0s-.21,0-.28,0c-.07,0-.14,0-.28,0-.04,0-.07-.03-.07-.07s.03-.07.07-.07c.14,0,.21,0,.28,0,.07,0,.14,0,.29,0s.21,0,.29,0c.07,0,.14,0,.28,0s.22,0,.29,0c.07,0,.14,0,.28,0s.21,0,.28,0c.07,0,.14,0,.29,0s.21,0,.28,0c.07,0,.14,0,.29,0s.21,0,.29,0c.07,0,.14,0,.28,0s.21,0,.28,0c.07,0,.14,0,.28,0,.28,0,.28,0,.57,0,.28,0,.28,0,.56,0,.14,0,.21,0,.28,0,.07,0,.14,0,.29,0s.21,0,.28,0c.07,0,.14,0,.28,0s.21,0,.28,0c.07,0,.14,0,.29,0s.21,0,.28,0c.07,0,.14,0,.28,0,.15,0,.22.01.29.02.07,0,.14.02.27.02.28,0,.28,0,.56,0,.14,0,.21,0,.28,0,.07,0,.14,0,.29,0h.56c.14,0,.21,0,.27,0,.07,0,.14,0,.28,0s.21,0,.28,0c.07,0,.14,0,.27,0s.21,0,.28,0c.07,0,.14,0,.28,0s.22,0,.29,0c.07,0,.14,0,.28,0s.2,0,.27-.01c.07,0,.14-.01.29-.01s.22.01.29.02c.07.01.14.02.27.02s.21,0,.28,0c.07,0,.14,0,.28,0s.2,0,.27-.02c.07,0,.15-.02.29-.02s.22.01.29.02c.07.01.13.02.27.02s.21,0,.28,0c.07,0,.14,0,.29,0s.21,0,.28,0c.07,0,.14,0,.28,0h.56c.14,0,.21,0,.28,0,.07,0,.14,0,.29,0h.56c.14,0,.21,0,.28-.01.07,0,.14,0,.29,0s.22.01.29.02c.07.01.13.02.27.02s.2,0,.27-.02c.07,0,.14-.02.29-.02s.21,0,.28,0c.07,0,.14,0,.28,0s.21,0,.29.01c.07,0,.14.01.28.01s.2,0,.27-.01c.07,0,.14-.01.29-.01s.22,0,.29.01c.07,0,.14.01.27.01s.21,0,.28,0c.07,0,.14,0,.28,0s.21,0,.28,0c.07,0,.14,0,.28,0s.2,0,.27-.01.14-.01.29-.01.21,0,.28,0c.07,0,.14,0,.28,0,.04,0,.07.03.07.07s-.03.07-.07.07c-.14,0-.21,0-.28,0-.07,0-.14,0-.28,0s-.2,0-.27.01-.14.01-.29.01-.21,0-.28,0c-.07,0-.14,0-.28,0s-.21,0-.28,0c-.07,0-.14,0-.28,0s-.22,0-.29-.01c-.07,0-.14-.01-.27-.01s-.2,0-.27.01c-.07,0-.14.01-.29.01s-.22,0-.29-.01c-.07,0-.14-.01-.27-.01s-.21,0-.28,0c-.07,0-.14,0-.28,0s-.2,0-.27.02c-.07,0-.14.02-.29.02s-.22-.01-.29-.02c-.07-.01-.13-.02-.27-.02s-.21,0-.28,0c-.07,0-.14,0-.29,0h-.56c-.14,0-.21,0-.28,0-.07,0-.14,0-.29,0h-.56c-.14,0-.21,0-.28,0-.07,0-.14,0-.28,0s-.21,0-.28,0c-.07,0-.14,0-.29,0s-.22-.01-.29-.02c-.07-.01-.13-.02-.27-.02s-.2,0-.27.02c-.07,0-.15.02-.29.02s-.21,0-.28,0c-.07,0-.14,0-.28,0s-.22-.01-.29-.02c-.07-.01-.14-.02-.27-.02s-.2,0-.27.01-.14.01-.29.01-.21,0-.29,0c-.07,0-.14,0-.28,0s-.21,0-.28,0c-.07,0-.14,0-.28,0s-.21,0-.28,0c-.07,0-.14,0-.27,0s-.21,0-.27,0c-.07,0-.14,0-.29,0h-.56c-.14,0-.21,0-.28,0-.07,0-.14,0-.29,0-.28,0-.28,0-.56,0Z"/>
  <path d="M61.39,49.41h-.56c-.14,0-.22-.01-.29-.02-.07,0-.13-.02-.27-.02s-.2,0-.27.02c-.07,0-.14.02-.29.02s-.22-.01-.29-.02c-.07-.01-.13-.02-.27-.02h-.56c-.14,0-.21,0-.28,0-.07,0-.14,0-.28,0s-.21,0-.28,0c-.07,0-.14,0-.28,0s-.21,0-.28,0c-.07,0-.14,0-.28,0s-.21,0-.28,0c-.07,0-.14,0-.29,0s-.22,0-.29-.02-.14-.01-.27-.01-.21,0-.28.01c-.07,0-.14.01-.29.01s-.21,0-.28,0c-.07,0-.14,0-.28,0h-.84s-.28,0-.28,0c-.14,0-.21,0-.28,0-.07,0-.14,0-.28,0s-.2,0-.27.01c-.07,0-.14.01-.29.01s-.22-.01-.29-.02c-.07-.01-.13-.02-.27-.02s-.2,0-.27.02c-.07,0-.14.02-.29.02-.28,0-.28,0-.56,0-.14,0-.22,0-.29-.01-.07,0-.14-.01-.28-.01s-.2,0-.27.02c-.07,0-.14.02-.29.02s-.21,0-.29,0c-.07,0-.14,0-.27,0s-.21,0-.28,0c-.07,0-.14,0-.28,0h-.57c-.14,0-.22,0-.29-.01-.07,0-.14,0-.28,0-.28,0-.28,0-.56,0h-.57c-.14,0-.21,0-.29,0-.07,0-.14,0-.28,0s-.2,0-.28.01c-.07,0-.14.01-.29.01s-.21,0-.28,0c-.07,0-.14,0-.28,0s-.21,0-.28,0c-.07,0-.14,0-.28,0s-.22,0-.29-.02c-.07,0-.14-.01-.28-.01s-.21,0-.28.01c-.07,0-.15.01-.29.01s-.22,0-.29-.01c-.07,0-.14-.01-.28-.01-.04,0-.07-.03-.07-.07s.03-.07.07-.07c.15,0,.22,0,.29.01.07,0,.14.01.28.01s.21,0,.28-.01c.07,0,.15-.01.29-.01s.22,0,.29.02c.07,0,.14.01.28.01s.21,0,.28,0c.07,0,.14,0,.28,0s.21,0,.28,0c.07,0,.14,0,.28,0s.2,0,.27-.01.14-.01.29-.01.21,0,.29,0c.07,0,.14,0,.28,0h.57c.28,0,.28,0,.56,0,.14,0,.22,0,.29,0,.07,0,.14,0,.28,0h.57c.14,0,.21,0,.28,0,.07,0,.14,0,.28,0s.21,0,.29,0c.07,0,.14,0,.28,0s.2,0,.27-.02c.07,0,.14-.02.29-.02s.22,0,.29.01c.07,0,.14.01.28.01.28,0,.28,0,.56,0,.14,0,.2,0,.27-.02.07,0,.14-.02.29-.02s.22.01.29.02c.07.01.13.02.27.02s.21,0,.27-.01c.07,0,.14-.01.28-.01s.21,0,.29,0c.07,0,.14,0,.28,0h1.12c.14,0,.21,0,.28,0,.07,0,.14,0,.28,0s.21,0,.28-.01c.07,0,.14-.01.29-.01s.22,0,.29.02.14.01.27.01.21,0,.28,0c.07,0,.14,0,.29,0s.21,0,.28,0c.07,0,.14,0,.28,0s.21,0,.28,0c.07,0,.14,0,.28,0s.21,0,.28,0c.07,0,.14,0,.28,0h.56c.15,0,.22.01.29.02.07.01.13.02.27.02s.2,0,.27-.02c.07,0,.14-.02.29-.02s.22,0,.29.02c.07,0,.13.02.27.02h.56c.14,0,.21,0,.27,0,.07,0,.14,0,.29,0h.56c.14,0,.21,0,.28,0,.07,0,.14,0,.28,0s.21,0,.28,0c.07,0,.14,0,.28,0s.21,0,.29,0c.07,0,.14,0,.28,0s.21,0,.28,0c.07,0,.14,0,.29,0s.21,0,.28,0c.07,0,.14,0,.28,0s.21,0,.28-.01c.07,0,.14-.01.29-.01s.21,0,.28,0c.07,0,.14,0,.28,0,.04,0,.07.03.07.07s-.03.07-.07.07c-.14,0-.21,0-.28,0-.07,0-.14,0-.28,0s-.21,0-.27.01c-.07,0-.14.01-.29.01s-.21,0-.28,0c-.07,0-.14,0-.28,0s-.21,0-.28,0c-.07,0-.14,0-.29,0s-.21,0-.29,0c-.07,0-.14,0-.28,0s-.21,0-.28,0c-.07,0-.14,0-.28,0s-.21,0-.28,0c-.07,0-.14,0-.28,0h-.56c-.14,0-.21,0-.27,0-.07,0-.14,0-.29,0Z"/>
  <path d="M14.6,49.41c-.14,0-.21,0-.28,0-.07,0-.14,0-.28,0s-.22,0-.29-.02c-.07,0-.14-.02-.27-.02s-.2,0-.27.02c-.07.01-.15.02-.29.02s-.22,0-.29-.02c-.07,0-.14-.02-.27-.02s-.21,0-.28,0c-.07,0-.14,0-.28,0s-.21,0-.28.01-.14.01-.29.01h-.57c-.14,0-.21,0-.28,0-.07,0-.14,0-.28,0h-.57c-.14,0-.22,0-.29,0-.07,0-.14,0-.28,0s-.21,0-.28.01c-.07,0-.14.01-.29.01s-.21,0-.28,0c-.07,0-.14,0-.28,0s-.21,0-.28,0c-.07,0-.14,0-.29,0s-.22,0-.29,0c-.07,0-.14,0-.28,0s-.21,0-.28,0c-.07,0-.14,0-.29,0s-.22,0-.29,0c-.07,0-.14,0-.28,0-.04,0-.07-.03-.07-.07s.03-.07.07-.07c.14,0,.21,0,.29,0,.07,0,.14,0,.28,0s.21,0,.28,0c.07,0,.14,0,.29,0s.22,0,.29,0c.07,0,.14,0,.28,0s.21,0,.28,0c.07,0,.14,0,.29,0s.21,0,.29,0c.07,0,.14,0,.28,0s.21,0,.28-.01c.07,0,.14-.01.29-.01s.22,0,.29,0c.07,0,.14,0,.28,0h.57c.14,0,.21,0,.28,0,.07,0,.14,0,.28,0h.57c.14,0,.2,0,.28-.01s.14-.01.29-.01.21,0,.28,0c.07,0,.14,0,.28,0s.22,0,.29.02c.07,0,.14.02.27.02s.2,0,.27-.02c.07-.01.15-.02.29-.02s.22,0,.29.02c.07,0,.14.02.27.02s.21,0,.28,0c.07,0,.14,0,.28,0s.2,0,.27-.01.14-.01.29-.01.21,0,.28,0c.07,0,.14,0,.28,0s.21,0,.28,0c.07,0,.14,0,.28,0s.21,0,.28,0c.07,0,.14,0,.28,0s.22,0,.29,0c.07,0,.14,0,.28,0,.28,0,.28,0,.56,0,.14,0,.2,0,.28-.01.07,0,.14-.01.29-.01s.21,0,.28,0c.07,0,.14,0,.28,0h.56c.14,0,.21,0,.27-.01.07,0,.14-.01.29-.01s.21,0,.28,0c.07,0,.14,0,.28,0s.21,0,.28,0c.07,0,.14,0,.28,0s.22,0,.29.02c.07,0,.14.02.27.02s.21,0,.28-.01c.07,0,.14-.01.29-.01s.21,0,.28,0c.07,0,.14,0,.29,0s.22.01.29.02c.07.01.14.02.27.02s.21,0,.27-.01c.07,0,.14-.01.29-.01s.21,0,.28,0c.07,0,.14,0,.28,0s.22,0,.29.02c.07,0,.13.02.27.02s.21,0,.28,0c.07,0,.14,0,.28,0s.21,0,.28,0c.07,0,.14,0,.28,0s.21,0,.28,0c.07,0,.14,0,.29,0s.21,0,.28,0c.07,0,.14,0,.28,0s.21,0,.28,0c.07,0,.14,0,.28,0h.56c.14,0,.21,0,.28,0,.07,0,.14,0,.28,0,.04,0,.07.03.07.07s-.03.07-.07.07c-.14,0-.21,0-.28,0-.07,0-.14,0-.28,0h-.56c-.14,0-.21,0-.28,0-.07,0-.14,0-.28,0s-.21,0-.28,0c-.07,0-.14,0-.28,0s-.21,0-.27,0c-.07,0-.14,0-.29,0s-.21,0-.28,0c-.07,0-.14,0-.28,0s-.21,0-.28,0c-.07,0-.14,0-.28,0s-.22,0-.29-.02c-.07,0-.13-.02-.27-.02s-.21,0-.28,0c-.07,0-.14,0-.28,0s-.21,0-.27.01c-.07,0-.14.01-.29.01s-.22-.01-.29-.02c-.07-.01-.14-.02-.27-.02s-.21,0-.28,0c-.07,0-.14,0-.28,0s-.21,0-.28.01c-.07,0-.14.01-.29.01s-.22,0-.29-.02c-.07,0-.14-.02-.27-.02s-.21,0-.28,0c-.07,0-.14,0-.28,0s-.21,0-.28,0c-.07,0-.14,0-.28,0s-.21,0-.27.01c-.07,0-.14.01-.29.01h-.56c-.14,0-.21,0-.28,0-.07,0-.14,0-.28,0s-.2,0-.27.01c-.07,0-.14.01-.29.01-.28,0-.28,0-.56,0-.14,0-.21,0-.29,0-.07,0-.14,0-.28,0s-.21,0-.28,0c-.07,0-.14,0-.28,0s-.21,0-.28,0c-.07,0-.14,0-.28,0s-.21,0-.28,0c-.07,0-.14,0-.28,0s-.2,0-.27.01-.14.01-.29.01Z"/>
  <path d="M61.39,46.46c-.15,0-.22-.01-.29-.02-.07-.01-.13-.02-.27-.02s-.21,0-.27,0c-.07,0-.14.01-.29.01s-.21,0-.27.01c-.07,0-.14.01-.29.01s-.22,0-.29-.02c-.07,0-.14-.01-.27-.01s-.21,0-.28,0c-.07,0-.14,0-.28,0-.28,0-.28,0-.56,0s-.28,0-.56,0c-.14,0-.21,0-.28,0-.07,0-.14,0-.28,0s-.21,0-.28,0c-.07,0-.14,0-.28,0s-.21,0-.28,0c-.07,0-.14,0-.28,0s-.21,0-.28,0c-.07,0-.14,0-.28,0s-.21,0-.28,0c-.07,0-.14,0-.28,0s-.21,0-.28,0c-.07,0-.14,0-.29,0s-.21,0-.28,0c-.07,0-.14,0-.28,0s-.21,0-.28,0c-.07,0-.14,0-.28,0s-.22,0-.29-.02c-.07,0-.14-.02-.27-.02s-.2,0-.27.02c-.07,0-.14.02-.29.02s-.21,0-.29,0c-.07,0-.14,0-.27,0s-.21,0-.29,0c-.07,0-.14,0-.28,0s-.21,0-.28.01c-.07,0-.14.01-.29.01s-.21,0-.28,0c-.07,0-.14,0-.29,0s-.22,0-.29-.02c-.07,0-.14-.01-.27-.01s-.21,0-.28.01c-.07,0-.14.01-.29.01s-.22,0-.29-.02c-.07,0-.14-.02-.27-.02s-.2,0-.27.02c-.07,0-.15.02-.29.02h-.56c-.14,0-.22,0-.29-.01-.07,0-.14-.01-.28-.01s-.21,0-.28,0c-.07,0-.14,0-.28,0h-.56c-.14,0-.21,0-.28,0-.07,0-.14,0-.28,0s-.21,0-.29,0c-.07,0-.14,0-.28,0s-.21,0-.28,0c-.07,0-.14,0-.29,0s-.21,0-.28,0c-.07,0-.14,0-.29,0s-.21,0-.28,0c-.07,0-.14,0-.29,0-.04,0-.07-.03-.07-.07s.03-.07.07-.07c.14,0,.21,0,.28,0,.07,0,.14,0,.29,0s.21,0,.28,0c.07,0,.14,0,.29,0s.21,0,.28,0c.07,0,.14,0,.29,0s.21,0,.29,0c.07,0,.14,0,.28,0s.21,0,.28,0c.07,0,.14,0,.28,0h.56c.14,0,.21,0,.28,0,.07,0,.14,0,.28,0s.22,0,.29.01c.07,0,.14.01.28.01h.56c.14,0,.2,0,.27-.02.07,0,.15-.02.29-.02s.22,0,.29.02c.07,0,.14.02.27.02s.21,0,.27-.01c.07,0,.14-.01.29-.01s.22,0,.29.02.14.01.27.01.21,0,.28,0c.07,0,.14,0,.28,0s.21,0,.28-.01c.07,0,.14-.01.29-.01s.22,0,.29,0c.07,0,.14,0,.28,0s.21,0,.29,0c.07,0,.14,0,.27,0s.2,0,.27-.02c.07,0,.14-.02.29-.02s.22,0,.29.02c.07,0,.14.02.27.02s.21,0,.28,0c.07,0,.14,0,.28,0s.21,0,.28,0c.07,0,.14,0,.28,0s.21,0,.28,0c.07,0,.14,0,.28,0s.21,0,.28,0c.07,0,.14,0,.28,0s.21,0,.28,0c.07,0,.14,0,.28,0s.21,0,.28,0c.07,0,.14,0,.28,0s.21,0,.28,0c.07,0,.14,0,.28,0s.21,0,.28,0c.07,0,.14,0,.28,0,.28,0,.28,0,.56,0s.28,0,.56,0c.14,0,.21,0,.28,0,.07,0,.14,0,.28,0s.22,0,.29.02c.07,0,.14.01.27.01s.21,0,.27-.01c.07,0,.14-.01.29-.01s.21,0,.27,0c.07,0,.14-.01.29-.01s.22.01.29.02c.07.01.13.02.27.02s.2,0,.27-.01.14-.01.29-.01.22,0,.29.01c.07,0,.14.01.27.01s.21,0,.28,0c.07,0,.14,0,.28,0s.21,0,.27-.01c.07,0,.14-.01.29-.01h.56c.14,0,.21,0,.28,0,.07,0,.14,0,.28,0s.21,0,.28-.01c.07,0,.14-.01.29-.01s.21,0,.29,0c.07,0,.14,0,.28,0s.21,0,.28,0c.07,0,.14,0,.28,0,.04,0,.07.03.07.07s-.03.07-.07.07c-.14,0-.21,0-.28,0-.07,0-.14,0-.28,0s-.21,0-.28,0c-.07,0-.14,0-.28,0s-.21,0-.28.01c-.07,0-.14.01-.29.01s-.21,0-.28,0c-.07,0-.14,0-.28,0h-.56c-.14,0-.21,0-.27.01-.07,0-.14.01-.29.01s-.21,0-.28,0c-.07,0-.14,0-.28,0s-.22,0-.29-.01c-.07,0-.14-.01-.27-.01s-.2,0-.27.01-.14.01-.29.01Z"/>
  <path d="M25.28,46.46c-.14,0-.21,0-.29-.01-.07,0-.14,0-.27,0s-.21,0-.28,0c-.07,0-.14,0-.28,0s-.21,0-.28,0c-.07,0-.14,0-.28,0-.28,0-.28,0-.56,0-.14,0-.21,0-.28,0-.07,0-.14,0-.28,0h-.56c-.14,0-.21,0-.28,0-.07,0-.14,0-.28,0s-.21,0-.27.01c-.07,0-.14.01-.29.01s-.22,0-.29-.01c-.07,0-.14-.01-.27-.01h-.56c-.14,0-.21,0-.28,0-.07,0-.14,0-.29,0s-.21,0-.29,0c-.07,0-.14,0-.28,0-.28,0-.28,0-.56,0-.14,0-.21,0-.28,0-.07,0-.14,0-.29,0s-.21,0-.28,0c-.07,0-.14,0-.28,0s-.2,0-.27.02c-.07,0-.14.02-.29.02s-.21,0-.29-.01c-.07,0-.14-.01-.27-.01s-.21,0-.28,0c-.07,0-.14,0-.28,0s-.21,0-.28,0c-.07,0-.14,0-.28,0h-1.13c-.14,0-.22,0-.29,0-.07,0-.14,0-.28,0s-.21,0-.27.01c-.07,0-.14.01-.29.01s-.22,0-.29-.01c-.07,0-.14-.01-.28-.01s-.21,0-.28,0c-.07,0-.14,0-.29,0s-.22,0-.29,0c-.07,0-.14,0-.28,0-.28,0-.28,0-.56,0-.14,0-.21,0-.28,0-.07,0-.14,0-.29,0s-.22,0-.29,0c-.07,0-.14,0-.28,0s-.22,0-.29,0c-.07,0-.14,0-.28,0s-.21,0-.28,0c-.07,0-.14.01-.29.01s-.21,0-.28,0c-.07,0-.14,0-.28,0h-.57c-.14,0-.21,0-.28.01-.07,0-.15.01-.29.01s-.21,0-.28,0c-.07,0-.14,0-.29,0-.04,0-.07-.03-.07-.07s.03-.07.07-.07c.14,0,.21,0,.28,0,.07,0,.14,0,.29,0s.21,0,.28-.01c.07,0,.15-.01.29-.01h.57c.14,0,.21,0,.28,0,.07,0,.14,0,.28,0s.21,0,.28,0c.07,0,.14-.01.29-.01s.22,0,.29,0c.07,0,.14,0,.28,0s.22,0,.29,0c.07,0,.14,0,.28,0s.21,0,.28,0c.07,0,.14,0,.29,0,.28,0,.28,0,.56,0,.14,0,.22,0,.29,0,.07,0,.14,0,.28,0s.21,0,.28,0c.07,0,.14,0,.29,0s.22,0,.29.01c.07,0,.14.01.28.01s.21,0,.27-.01c.07,0,.14-.01.29-.01s.22,0,.29,0c.07,0,.14,0,.28,0h1.13c.14,0,.21,0,.28,0,.07,0,.14,0,.28,0s.21,0,.28,0c.07,0,.14,0,.28,0s.21,0,.29.01c.07,0,.14.01.27.01s.2,0,.27-.02c.07,0,.15-.02.29-.02s.21,0,.29,0c.07,0,.14,0,.28,0s.21,0,.28,0c.07,0,.14,0,.28,0,.28,0,.28,0,.56,0,.14,0,.21,0,.29,0,.07,0,.14,0,.28,0s.21,0,.28,0c.07,0,.14,0,.29,0h.56c.14,0,.22,0,.29.01.07,0,.14.01.27.01s.21,0,.27-.01c.07,0,.14-.01.29-.01s.21,0,.29,0c.07,0,.14,0,.28,0h.56c.14,0,.21,0,.28,0,.07,0,.14,0,.28,0,.28,0,.28,0,.56,0,.14,0,.21,0,.28,0,.07,0,.14,0,.28,0s.21,0,.28,0c.07,0,.14,0,.28,0s.21,0,.29.01c.07,0,.14,0,.27,0s.21,0,.27,0c.07,0,.14-.01.29-.01s.21,0,.28,0c.07,0,.14,0,.28,0s.21,0,.27-.01c.07,0,.14-.01.29-.01h.56c.14,0,.22,0,.29.01s.14.01.27.01.21,0,.28,0c.07,0,.14,0,.29,0s.21,0,.28,0c.07,0,.14,0,.28,0,.04,0,.07.03.07.07s-.03.07-.07.07c-.14,0-.21,0-.28,0-.07,0-.14,0-.28,0s-.21,0-.28,0c-.07,0-.14,0-.29,0s-.22,0-.29-.02c-.07,0-.14-.01-.27-.01h-.56c-.14,0-.21,0-.27.01-.07,0-.14.01-.29.01s-.21,0-.28,0c-.07,0-.14,0-.28,0s-.21,0-.28,0c-.07,0-.14.01-.29.01Z"/>
</svg>