<?xml version="1.0" encoding="UTF-8"?>
<svg id="Color_Kit" data-name="Color Kit" xmlns="http://www.w3.org/2000/svg" viewBox="0 0 100 100">
  <g>
    <path d="M52.15,28.85c.8.47,2.02.72,2.92.2.39-.22.61-.56.59-.91-.02-.36-.26-.67-.67-.85-.49-.23-1.17-.26-1.83-.08-.52.13-.99.34-1.41.61-1.42-1.32-1.97-3.45-1.99-5.16,0-.16-.13-.29-.29-.29h0c-.16,0-.29.13-.29.29.03,2.27.79,4.25,2.1,5.5-.96.82-1.52,2.04-1.57,3.47-.87,2.5-1.86,4.7-3.01,6.75l-.07.13.06.13c.58,1.25,1.25,2.83,1.49,4.21-.55.17-.92.54-1.01,1.34-.01.12,0,.25,0,.37,0,.03-.03.04-.03.07,0,.03.02.05.03.08.02.31.08.62.2.93.58,1.5,1.96,5.3,2.22,8.06.01.15.14.26.29.26,0,0,.02,0,.03,0,.16-.02.27-.16.26-.32-.28-2.84-1.67-6.69-2.26-8.21-.07-.17-.11-.34-.14-.51h4.26s0,.07,0,.12c.03,1.51-.59,2.57-.59,2.58-.08.14-.04.31.1.4.14.08.31.04.4-.1.03-.05.71-1.2.67-2.87,0-.15,0-.27,0-.4,0,0,0-.01,0-.02s0-.01,0-.02c0-.68-.14-1.13-.42-1.42-.11-.12-.25-.2-.4-.27.24-1.45.95-3.13,1.5-4.28l.06-.13-.07-.13c-1.14-2.03-2.13-4.23-3-6.71.04-1.32.55-2.41,1.43-3.13.14.11.28.2.42.29ZM53.31,27.77c.52-.14,1.07-.13,1.44.04.21.09.33.22.33.35,0,.13-.1.28-.3.38-.7.4-1.68.19-2.34-.2-.07-.05-.15-.1-.22-.15.33-.19.69-.34,1.08-.44ZM47.75,44.28c.09-.83.45-1,2.04-.95h.22c.92-.03,1.51.01,1.78.29.14.14.22.4.25.75h-4.28s0-.06,0-.09ZM51.25,42.79c-.37-.06-.8-.06-1.25-.04h-.2c-.38-.01-.73-.01-1.05.02-.24-1.4-.89-2.96-1.47-4.21.89-1.6,1.68-3.3,2.4-5.16l-.08,5.49c0,.16.13.29.28.29,0,0,0,0,0,0,.16,0,.29-.13.29-.28l.08-5.63c.73,1.9,1.54,3.65,2.45,5.28-.54,1.16-1.22,2.79-1.47,4.24Z"/>
    <path d="M76.04,53.08c.47-.37.56-.71.57-.78l.03-.2-.18-.09c-2.15-1.1-4.78-4.25-5.45-5.09,2.84-2.43,3.57-4.8,3.6-4.9l.14-.5-.5.14s-1.33.34-3.99-1.5c-1.99-1.39-3.91-.47-5.01.34,1.8-5.56-2.59-10.75-2.64-10.8l-.5-.57v.76c-.01.11-.09,2.82-3.1,4.31-3.27,1.62-4.35,3.76-4.4,3.85-.07.14-.01.32.13.39.14.07.32.01.39-.13,0-.02,1.04-2.05,4.13-3.59,2.38-1.18,3.1-3.07,3.32-4.1,1.1,1.54,3.89,6.14,1.7,10.73l-.02.05c-1.2,2.49-3.69,4.64-7.39,6.39h-.02c-.16.11-4,2.44-6.37,8.42-.15-.01-.31-.02-.48-.02s-.3,0-.44.02c-2.38-5.91-6.25-8.3-6.41-8.4h-.03c-3.7-1.77-6.19-3.92-7.39-6.4l-.02-.05c-2.19-4.6.6-9.19,1.7-10.73.22,1.03.94,2.91,3.32,4.1,3.08,1.52,4.12,3.57,4.13,3.59.07.14.24.2.39.13.14-.07.2-.24.13-.39-.04-.09-1.13-2.23-4.4-3.85-3.01-1.49-3.09-4.2-3.09-4.31v-.76s-.51.58-.51.58c-.05.06-4.43,5.24-2.64,10.79-1.27-.93-3.18-1.61-5.01-.34-2.65,1.84-3.97,1.51-3.98,1.5l-.51-.16.15.52c.03.1.76,2.45,3.55,4.86-.66.84-3.24,4.04-5.4,5.14l-.18.09.03.2c0,.07.1.41.57.78l-3.5,5.91h25.9c.15.25.4.49.76.74.86.6,1.87.9,2.88.9,1.01,0,2.02-.3,2.88-.9.35-.25.6-.49.76-.74h25.9l-3.5-5.91ZM75.94,52.39c-.08.1-.21.24-.44.38-.34.22-.82.4-1.42.55-1.41.34-3.4.43-5.92.28-1.41-.09-2.49-.24-3.44-.38-3.35-.48-4.89-.69-12.45,3.41-.09-.05-.19-.09-.28-.12,2.77-3.85,8.82-5.11,8.88-5.12,3.92-.73,7.18-2.12,9.69-4.11.68.85,3.17,3.85,5.39,5.11ZM75.28,56.53c.43.49.66.85.77,1.03-.09.03-.32.08-.88.08-2.71,0-9.39-1.16-9.46-1.17-1.78-.31-6.49-.8-12.44,1.02,4.01-1.74,6.24-2.41,8.09-2.44,1.04-.01,4.16.38,7.18.76,2.99.38,5.79.73,6.74.71ZM68.62,55.25c-3.04-.38-6.19-.78-7.26-.77-1.96.03-4.28.73-8.49,2.56-.02-.02-.03-.03-.05-.04,7.15-3.86,8.55-3.68,11.83-3.21.96.14,2.05.29,3.48.38,2.48.15,4.45.06,5.9-.26.58.77,1.17,1.67,1.29,2.05-.84.02-3.82-.35-6.69-.71ZM57.14,48.29c3.8-1.8,6.37-4.02,7.63-6.61h0c.23-.26,2.65-2.8,5.16-1.06,1.97,1.37,3.29,1.62,3.96,1.63-.34.79-1.29,2.61-3.47,4.4-2.46,2.03-5.71,3.43-9.66,4.17-.27.05-6.49,1.35-9.35,5.5-.12-.03-.23-.05-.34-.07,2.25-5.53,5.84-7.83,6.06-7.96ZM50.54,56.77c.58,0,1.85.38,2.06.86.02.06.1.23-.17.52-.11.11-.22.15-.27.17-.34.14-.62.29-.87.42-.44.24-.79.43-1.29.43s-.85-.19-1.29-.43c-.25-.13-.53-.28-.87-.42-.04-.01-.15-.06-.24-.15-.28-.31-.21-.48-.19-.54.21-.48,1.48-.85,2.08-.86.16-.02.33-.02.52-.02s.36,0,.54.03ZM34.29,56.48c-.07.01-6.75,1.17-9.46,1.17-.57,0-.8-.05-.88-.08.11-.19.34-.54.77-1.04.94.02,3.75-.34,6.74-.71,3.02-.38,6.15-.77,7.18-.76,1.76.03,3.86.45,8.23,2.34,0,.02-.01.05-.02.07-5.91-1.83-10.74-1.31-12.57-1ZM25.97,53.91c1.45.32,3.42.41,5.9.26,1.53-.09,2.67-.28,3.68-.44,3.21-.51,4.72-.74,11.82,3.1-.04.03-.08.07-.12.1-4.57-1.99-6.75-2.43-8.61-2.46-1.06-.02-4.22.38-7.26.77-2.88.36-5.85.74-6.69.71.12-.38.7-1.28,1.29-2.05ZM26.1,42.25c.67-.01,2-.26,3.96-1.63,2.44-1.7,4.78.65,5.16,1.06h0s0,0,0,0c1.26,2.59,3.83,4.81,7.63,6.61.23.14,3.85,2.5,6.1,7.96-.08.01-.15.03-.23.05-2.87-4.13-9.22-5.42-9.49-5.47-3.98-.74-7.25-2.16-9.71-4.21-2.14-1.78-3.08-3.57-3.42-4.36ZM29.39,47.24c2.51,2.01,5.78,3.41,9.74,4.15.06.01,6.21,1.27,9.01,5.08-.05.02-.09.03-.14.05-7.58-4.13-9.25-3.87-12.53-3.35-1,.16-2.12.34-3.62.43-2.52.15-4.52.06-5.92-.28-.6-.15-1.08-.33-1.42-.55-.23-.15-.36-.28-.44-.38,2.21-1.25,4.66-4.28,5.33-5.15ZM53.27,58.41l-.08.17c-.09.2-.31.43-.65.67-1.52,1.07-3.57,1.07-5.09,0-.34-.23-.56-.47-.65-.67l-.08-.17h-25.25l2.98-5.02c.26.14.57.26.92.37-1.39,1.86-1.34,2.39-1.23,2.57-.42.51-.69.92-.8,1.16l-.05.1.03.1s.05.15.16.27c.13.14.39.28,1.34.28,2.76,0,9.28-1.13,9.56-1.18,1.8-.31,6.61-.83,12.49,1.03.06.15.14.31.3.49.19.18.38.26.45.28.31.12.56.26.81.39.47.25.91.5,1.57.5s1.1-.24,1.57-.5c.24-.13.5-.27.81-.39.17-.07.32-.16.46-.3.13-.15.21-.28.27-.41,5.99-1.91,10.74-1.41,12.51-1.1.28.05,6.8,1.18,9.56,1.18.95,0,1.2-.13,1.34-.28.11-.12.15-.24.16-.27l.03-.1-.05-.1c-.11-.23-.37-.65-.8-1.16.11-.19.14-.73-1.23-2.56.35-.11.66-.23.92-.37l2.98,5.02h-25.25Z"/>
    <path d="M45.3,16.05s0,0,0,0c.16,0,.29-.13.28-.29-.02-1,.16-1.46.31-1.56.05-.03.13-.02.24.03l2.64,2.12c-1.22,1.49-1.44,3.45-.53,5.2.05.1.15.16.26.16.04,0,.09-.01.13-.03.14-.07.2-.25.12-.39-.85-1.64-.6-3.48.66-4.82,1.1-1.17,2.23-1.88,3.44-2.18.08-.02.15-.03.2-.03.07.25.21.87.32,1.41.03.16.18.26.34.23.16-.03.26-.18.23-.34-.32-1.62-.41-1.7-.49-1.77-.15-.12-.4-.15-.73-.06-.43.11-.85.28-1.27.48-.07-.09-.15-.18-.23-.29-.46-.6-1.04-1.34-1.78-1.3-.85.05-1.6,1.11-2.09,1.81,0,0,0,.01-.01.02l-.87-.7-.05-.03c-.39-.21-.67-.13-.84-.02-.41.25-.61.95-.59,2.06,0,.16.13.28.29.28ZM47.84,14.76c.38-.53,1.08-1.53,1.65-1.56.44-.03.92.61,1.28,1.07.06.08.11.14.17.21-.61.36-1.19.84-1.77,1.43l-1.37-1.1s.02-.03.03-.05Z"/>
    <path d="M44.24,19.1c.5,1.52,1.51,2.73,2.77,3.31.94.44,2.07.14,2.64-.69.13-.19.18-.41.23-.63l.03-.13c.37-1.52,1.4-4.1,4.13-4.33.55-.05.96.17,1.17.31-.25.51-.88,1.83-1.19,2.55-.61,1.42-2.12,2.55-3.76,2.8-.16.02-.27.17-.24.33.02.14.14.25.29.25.01,0,.03,0,.04,0,1.84-.28,3.53-1.54,4.21-3.15.37-.87,1.26-2.71,1.27-2.73l.09-.18-.14-.15s-.7-.7-1.78-.6c-2.26.19-3.95,1.93-4.65,4.77l-.03.14c-.04.17-.08.33-.14.43-.41.6-1.24.81-1.92.49-1.11-.52-2.01-1.6-2.46-2.97-.24-.73-.5-1.32-.97-1.87,1.18-.66,3.25.32,3.61.6.13.1.31.07.4-.06.1-.13.07-.31-.06-.4-.34-.26-3.07-1.73-4.59-.4l-.23.2.21.22c.54.55.8,1.11,1.06,1.9Z"/>
  </g>
  <g>
    <path d="M27.27,60.95h6.26v2.05h-3.89v2.58h3.68v1.97h-3.68v3.06h3.89v2.05h-6.26v-11.7Z"/>
    <path d="M34.26,71.59l1-1.5c.47.53,1.22.95,2.01.95.59,0,1.05-.26,1.05-.75,0-.45-.25-.61-1.38-.82-1.38-.29-2.06-1.04-2.06-2.22,0-1.4,1.11-2.47,2.86-2.47,1.11,0,1.93.34,2.47.75l-.74,1.48c-.49-.39-1.02-.59-1.54-.59-.46,0-.85.17-.85.56s.26.57,1.19.79c1.53.36,2.23,1.01,2.23,2.27,0,1.6-1.13,2.78-3.15,2.78-1.39,0-2.54-.61-3.09-1.21Z"/>
    <path d="M41.05,71.59l1-1.5c.47.53,1.22.95,2.01.95.59,0,1.05-.26,1.05-.75,0-.45-.25-.61-1.38-.82-1.38-.29-2.06-1.04-2.06-2.22,0-1.4,1.11-2.47,2.86-2.47,1.11,0,1.93.34,2.47.75l-.74,1.48c-.49-.39-1.02-.59-1.54-.59-.46,0-.85.17-.85.56s.26.57,1.19.79c1.53.36,2.23,1.01,2.23,2.27,0,1.6-1.13,2.78-3.15,2.78-1.39,0-2.54-.61-3.09-1.21Z"/>
    <path d="M48.11,68.8c0-2.3,1.59-4.02,3.69-4.02,1.04,0,2.02.43,2.54,1.13h.01v-.98h2.29v7.71h-2.29v-.9h-.01c-.57.68-1.5,1.06-2.55,1.06-2.2,0-3.68-1.61-3.68-4.01ZM54.5,68.76c0-1.26-.87-2.06-2.04-2.06s-2.02.85-2.02,2.1.79,2.11,1.96,2.11c1.27,0,2.1-.89,2.1-2.14Z"/>
    <path d="M61,72.17l-3.65-7.23h2.58l2.22,4.83h.03l2.18-4.83h2.46l-5.59,11.75h-2.55l2.32-4.52Z"/>
    <path d="M66.49,71.59l1-1.5c.47.53,1.22.95,2.01.95.59,0,1.05-.26,1.05-.75,0-.45-.25-.61-1.38-.82-1.38-.29-2.06-1.04-2.06-2.22,0-1.4,1.11-2.47,2.86-2.47,1.11,0,1.93.34,2.47.75l-.74,1.48c-.49-.39-1.02-.59-1.54-.59-.46,0-.85.17-.85.56s.26.57,1.19.79c1.53.36,2.23,1.01,2.23,2.27,0,1.6-1.13,2.78-3.15,2.78-1.39,0-2.54-.61-3.09-1.21Z"/>
  </g>
  <g>
    <g>
      <path d="M22.88,79.66l-.94,7.71h-2.29l.94-7.71h2.29ZM20.7,77.12c0-.84.62-1.47,1.44-1.47.73,0,1.21.45,1.21,1.1,0,.85-.6,1.46-1.44,1.46-.74,0-1.21-.42-1.21-1.09Z"/>
      <path d="M24.53,79.66h2.29l-.14,1.02h.01c.67-.77,1.52-1.18,2.52-1.18,1.72,0,2.69,1.16,2.46,3.06l-.57,4.81h-2.29l.54-4.28c.14-1.15-.37-1.66-1.22-1.66-.91,0-1.61.62-1.73,1.61l-.52,4.33h-2.29l.94-7.71Z"/>
    </g>
    <g>
      <path d="M35.99,75.52h3.57c2.2,0,3.54,1.15,3.54,3,0,1.18-.46,1.94-1.3,2.39v.05c1.47.22,2.43,1.4,2.43,2.95,0,2.03-1.54,3.32-4,3.32h-4.23v-11.7ZM39.37,80.36c.93,0,1.52-.57,1.52-1.49,0-.82-.56-1.4-1.44-1.4h-1.1v2.89h1.02ZM39.84,85.31c1.22,0,1.87-.58,1.87-1.65,0-.95-.71-1.54-1.75-1.54h-1.61v3.18h1.48Z"/>
      <path d="M47.89,74.34v12.88h-2.27v-12.88h2.27Z"/>
      <path d="M49.25,83.34c0-2.34,1.81-3.99,4.34-3.99s4.27,1.54,4.27,3.94-1.81,4.08-4.33,4.08-4.28-1.6-4.28-4.04ZM55.56,83.37c0-1.24-.82-2.03-2-2.03s-2.01.78-2.01,2.05.85,2.07,2.01,2.07,2-.83,2-2.08Z"/>
      <path d="M58.69,83.34c0-2.34,1.81-3.99,4.34-3.99s4.27,1.54,4.27,3.94-1.81,4.08-4.33,4.08-4.28-1.6-4.28-4.04ZM64.99,83.37c0-1.24-.82-2.03-2-2.03s-2.01.78-2.01,2.05.85,2.07,2.01,2.07,2-.83,2-2.08Z"/>
      <path d="M68.57,79.51h2.27v.95h.03c.42-.59,1.1-1.1,2.17-1.1s1.87.51,2.26,1.3c.59-.87,1.47-1.3,2.47-1.3,1.64,0,2.58,1.09,2.58,2.72v5.15h-2.27v-4.45c0-1.05-.42-1.55-1.22-1.55-.85,0-1.27.51-1.27,1.44v4.56h-2.27v-4.45c0-.99-.36-1.55-1.19-1.55s-1.28.57-1.28,1.54v4.47h-2.27v-7.71Z"/>
    </g>
  </g>
</svg>