<?xml version="1.0" encoding="UTF-8"?>
<svg id="Layer_2" data-name="Layer 2" xmlns="http://www.w3.org/2000/svg" viewBox="0 0 315.35 327.97">
  <defs>
    <style>
      .cls-1 {
        fill: #2a2119;
      }
    </style>
  </defs>
  <g id="Layer_1-2" data-name="Layer 1">
    <g>
      <path class="cls-1" d="M217.59,194.5c-5.37,15.31-16.13,25.23-32.57,28.77,14.14,19.04,22.44,45.38,31.01,67.57,32.62,10.61,64.04,22.39,94.86,37.13-15.19-14.38-28.45-30.62-42.67-45.34-8.46-7.88-15.79-17.51-23.98-26.61-3.38-3.54,2.26-8.82,5.56-5.15,21.96,24.88,42.21,47.19,65.55,70.77-15.68-29.95-23.5-61.95-33.39-93.7-21.72-10.87-44.79-18.31-64.37-33.44Z"/>
      <path class="cls-1" d="M1.13,23.32c31.91,52.65,122.52,140.07,149.44,183.6,2.52,5.18,11.75,17.58,20.04,12.28,9.04-3.09,24.27-4.78,30.39-12.05,6.67-5.64,19.97-35.01,12.69-41.58-6.73-8.51-9.42-6.61-17.55-12.8-26.32-16.62-58.23-59.19-85.11-75.19C96.05,65.93,52.32,22.32,25.16,1.6c-3-2.29-7.2-2.11-9.98.43L2.55,13.52c-2.76,2.51-3.36,6.61-1.43,9.8Z"/>
    </g>
  </g>
</svg>