<?xml version="1.0" encoding="UTF-8"?>
<svg id="Layer_2" data-name="Layer 2" xmlns="http://www.w3.org/2000/svg" viewBox="0 0 36.79 59.67">
  <defs>
    <style>
      .cls-1 {
        stroke-width: .77px;
      }

      .cls-1, .cls-2 {
        fill: none;
        stroke: #000;
        stroke-miterlimit: 10;
      }

      .cls-3 {
        fill: #231f20;
      }

      .cls-2 {
        stroke-linecap: round;
        stroke-width: .19px;
      }
    </style>
  </defs>
  <g id="Color_Kit" data-name="Color Kit">
    <path class="cls-1" d="M.39,41.28c0,9.95,8.06,18.01,18.01,18.01s18.01-8.06,18.01-18.01v-22.88C36.4,8.45,28.34.39,18.39.39S.39,8.45.39,18.39v22.88Z"/>
    <path class="cls-1" d="M.39,41.28c0,9.95,8.06,18.01,18.01,18.01s18.01-8.06,18.01-18.01v-22.88C36.4,8.45,28.34.39,18.39.39S.39,8.45.39,18.39v22.88Z"/>
    <g>
      <g>
        <path d="M8.89,35.42c-.47,0-1.23,0-1.93.02.02-.41.04-.91.04-1.49v-2.06c0-.58-.02-1.08-.04-1.49.7.02,1.45.02,1.89.02.3,0,.85,0,1.42-.04.07,0,.09.01.07.08l-.1.42s-.03.04-.11.04c-.67-.06-1.14-.09-1.68-.09-.24,0-.36.08-.37.27-.01.31-.02.58-.02.87v.46c0,.19.09.22.24.22h.13c.57,0,.93,0,1.33-.06.06,0,.09.03.06.09l-.14.39c-.02.08-.06.08-.16.07-.27-.02-.77-.05-1.15-.05h-.06c-.14,0-.24.04-.24.22v.53c0,.29,0,.55.02.86.01.19.12.27.37.27.58,0,1.17-.06,1.84-.12.08,0,.11,0,.11.04l-.09.45c-.01.06-.01.09-.07.08-.57-.04-.93-.04-1.34-.04Z"/>
        <path d="M10.65,35.06l.09-.32c.2-.76.34.32,1.68.32.6,0,.78-.27.78-.61,0-.31-.13-.43-.72-.8l-.52-.35c-.85-.56-1.2-.87-1.2-1.47,0-.93.93-1.53,1.79-1.53.55,0,1.26.24,1.21.42l-.09.26c-.24.76-.22-.16-1.42-.16-.47,0-.7.24-.7.58,0,.32.2.5.67.8l.62.4c.81.53,1.13.86,1.13,1.42,0,.92-.89,1.55-1.84,1.55-.6,0-1.54-.24-1.46-.5Z"/>
        <path d="M14.19,35.06l.09-.32c.2-.76.34.32,1.68.32.59,0,.78-.27.78-.61,0-.31-.13-.43-.72-.8l-.52-.35c-.85-.56-1.21-.87-1.21-1.47,0-.93.93-1.53,1.79-1.53.55,0,1.26.24,1.21.42l-.09.26c-.24.76-.22-.16-1.42-.16-.47,0-.7.24-.7.58,0,.32.2.5.67.8l.62.4c.81.53,1.13.86,1.13,1.42,0,.92-.89,1.55-1.84,1.55-.6,0-1.53-.24-1.46-.5Z"/>
        <path d="M17.96,34.37l1.19-2.75c.21-.48.34-.88.37-1.15,0-.06.51-.15.53-.1l1.71,4.01c.16.36.31.7.49,1.06h-1.12l-.48-1.07c-.09-.2-.14-.21-.34-.21h-1.41c-.22,0-.29,0-.37.21l-.37,1.07h-.69c.17-.36.34-.71.49-1.07ZM19.02,33.7h1.15c.09,0,.19-.02.14-.12l-.72-1.74-.72,1.74c-.04.1.05.12.14.12Z"/>
        <path d="M23.54,33.95v-.75l-1.81-2.8h1.23c.27.47.77,1.25,1.1,1.76l.25.42.29-.42c.34-.49.83-1.29,1.07-1.76h.73l-1.81,2.76v.79c0,.58.03,1.08.05,1.49h-1.15c.02-.41.05-.91.05-1.49Z"/>
        <path d="M26.52,35.06l.09-.32c.2-.76.34.32,1.68.32.6,0,.78-.27.78-.61,0-.31-.13-.43-.72-.8l-.52-.35c-.85-.56-1.2-.87-1.2-1.47,0-.93.93-1.53,1.79-1.53.55,0,1.26.24,1.21.42l-.09.26c-.24.76-.22-.16-1.42-.16-.47,0-.7.24-.7.58,0,.32.2.5.67.8l.62.4c.81.53,1.13.86,1.13,1.42,0,.92-.89,1.55-1.84,1.55-.6,0-1.54-.24-1.46-.5Z"/>
      </g>
      <g>
        <path d="M6.1,47.34c.02-.41.04-.91.04-1.49v-2.06c0-.58-.02-1.08-.04-1.49.7.02,1.21-.01,1.82-.01.9,0,1.63.38,1.65,1.17.01.55-.33.97-.92,1.09v.05c.7,0,1.35.47,1.35,1.28,0,.92-.88,1.48-2.03,1.48-.77,0-1.17-.04-1.87-.01ZM7.88,44.45c.43,0,.59-.3.59-.76,0-.59-.3-.99-.87-.99-.29,0-.41.08-.41.42v1.33h.69ZM7.89,46.93c.46,0,.99-.14.99-.87,0-.63-.37-1.2-1-1.2h-.69v1.55c0,.32.17.53.7.53Z"/>
        <path d="M12.39,47.32c-.47,0-1.23,0-1.93.02.02-.41.04-.91.04-1.49v-2.06c0-.58-.02-1.08-.04-1.49h1.15c-.01.41-.05.91-.05,1.49v1.97c0,.29,0,.55.02.86.01.19.12.27.37.27.58,0,1.21-.06,1.88-.12.08,0,.11,0,.11.04l-.09.45c-.01.06-.01.09-.07.08-.57-.04-1.01-.04-1.38-.04Z"/>
        <path d="M13.93,44.85c0-1.46,1.05-2.67,2.63-2.67,1.48,0,2.6,1.09,2.6,2.59s-1.04,2.68-2.62,2.68c-1.48,0-2.61-1.1-2.61-2.6ZM16.85,46.91c.58,0,1.3-.44,1.3-1.69,0-1.39-.95-2.49-1.9-2.49-.58,0-1.29.44-1.29,1.68,0,1.4.96,2.5,1.89,2.5Z"/>
        <path d="M19.41,44.85c0-1.46,1.05-2.67,2.63-2.67,1.48,0,2.6,1.09,2.6,2.59s-1.04,2.68-2.62,2.68c-1.48,0-2.61-1.1-2.61-2.6ZM22.33,46.91c.58,0,1.3-.44,1.3-1.69,0-1.39-.95-2.49-1.9-2.49-.58,0-1.29.44-1.29,1.68,0,1.4.96,2.5,1.89,2.5Z"/>
        <path d="M25.35,45.22l.17-2.9c0-.14.28-.16.37,0l2.12,3.81,1.95-3.81c.08-.16.38-.14.39,0l.19,2.9c.04.71.09,1.41.15,2.12h-1.11c-.03-.71-.06-1.41-.1-2.12l-.06-.87-1.07,2.13c-.14.27-.23.57-.26.66-.04.09-.2.11-.36.11s-.2-.02-.24-.11l-1.58-2.9-.04.97c-.03.71-.05,1.41-.07,2.12h-.62c.06-.71.13-1.41.17-2.12Z"/>
      </g>
      <g>
        <g>
          <path d="M16.63,37.12c0-.13.3-.37.36-.37.06,0,.35.24.35.37s-.29.36-.35.36c-.06,0-.36-.24-.36-.36ZM17.19,38.18s.08-.01.07.05c-.02.19-.05.57-.05,1.05v.75c0,.44.02.75.03.96h-.49c.02-.24.02-.72.02-.96v-.75c0-.45-.02-.75-.03-.96l.45-.14Z"/>
          <path d="M17.84,40.03v-.94c0-.3-.02-.56-.03-.77l.43-.13s.05,0,.05.05c0,.19.04.25.14.2.26-.11.55-.27.91-.27.55,0,.79.44.79.86v1c0,.44.02.75.03.96h-.48c.02-.24.02-.72.02-.96v-.88c0-.49-.37-.58-.67-.58s-.74.08-.74.23v1.23c0,.44.02.75.03.96h-.49c.02-.24.02-.72.02-.96Z"/>
        </g>
        <path class="cls-2" d="M7.81,38.81c.95,0,.95.06,1.89.06s.95-.01,1.89-.01.95.06,1.9.06.95-.1,1.9-.1"/>
        <path class="cls-2" d="M21.75,38.9c.95,0,.95.05,1.89.05s.95-.14,1.89-.14.95.04,1.9.04.95-.02,1.9-.02"/>
      </g>
    </g>
    <g>
      <path d="M31.38,49.93c.19.04.28.27.17.43-2.89,4.18-7.71,6.92-13.17,6.92-5.75,0-10.81-3.06-13.63-7.63-.12-.2.05-.45.28-.41,4.35.77,8.85,1.15,13.23.59,4.4-.67,8.72-.82,13.11.1Z"/>
      <path class="cls-3" d="M30.3,11.45c-.36-.88-.64-1.84-1.32-2.42s-1.72-.64-2.61-.86-1.77-.42-2.69-.21c-.22-.91-.54-1.85-1.12-2.54s-1.42-1.21-2.27-1.56-1.74-.35-2.69-.28c-.95.07-1.82.27-2.58.74s-1.38,1.16-1.86,1.94-.95,1.49-1.03,2.42c-.94-.08-1.78.14-2.61.49s-1.64.89-2.24,1.59-.98,1.53-1.21,2.46c-.23.93-.38,1.9-.18,2.77s.68,1.8,1.27,2.5,1.53,1.1,2.39,1.47c-.36.87-.32,1.8-.25,2.7s-.09,1.95.38,2.73,1.39,1.18,2.2,1.68c.81.5,1.62.81,2.51.88s1.8-.04,2.65-.39,1.63-.81,2.24-1.52c.71.61,1.51,1.18,2.39,1.39s1.88.16,2.78-.05,1.82-.54,2.54-1.15c.73-.62.97-1.6,1.31-2.42s.76-1.71.7-2.62-.41-1.77-.89-2.58c.8-.49,1.58-1.07,2.05-1.84s.43-1.78.51-2.7,0-1.74-.36-2.62ZM18.39,19.25c-.93,0-1.62-.67-2.22-1.27s-1.37-1.3-1.37-2.22.58-1.8,1.19-2.41,1.48-.84,2.41-.84,1.74.29,2.35.89,1.13,1.42,1.13,2.35-.47,1.79-1.08,2.4-1.47,1.1-2.4,1.1Z"/>
    </g>
  </g>
</svg>