<?xml version="1.0" encoding="UTF-8"?>
<svg id="Layer_2" data-name="Layer 2" xmlns="http://www.w3.org/2000/svg" viewBox="0 0 66.66 58.9">
  <g id="Layer_1-2" data-name="Layer 1">
    <path d="M49.85,15.15c-5.43.03-12.4-9.99-25.92-5.6-3.2,1.04-5.63,2.87-7.69,5.58,5.23-13.45,33.86-10.06,35.05-2.1.12.81-.72,2.11-1.43,2.11Z"/>
    <path d="M25.86,5.9c-4.54,1-7.69,4.23-10.62,7.06C17.45,3.81,31.85-3.52,36.38,1.79c.58.68.19,1.74-.68,1.93l-9.84,2.18Z"/>
    <path d="M40.36,14.78c-1.83,4.78-9.4-6.69-22.03.36,7.06-8.21,23.63-4.53,22.03-.36Z"/>
    <path d="M18.08,1.11c2.37,1.8-4.75,7.32-4.43,14.92-3.1-5.16-3.14-11.42,1.5-14.84.68-.5,2.37-.51,2.93-.08Z"/>
    <path d="M15.04,21.53c1.5,7.33,7.75,10.77,5.87,13.39-.82,1.14-2.5,1.21-3.5.23-3.5-3.45-4.83-9-2.36-13.62Z"/>
    <path d="M12.67,20.31c-6.11,6.25-1.96,14.99-6.16,15.53-4.12.54-1.7-12.96,6.16-15.53Z"/>
    <path d="M13.38,21.56c-2.92,8.31,2.35,13.88.9,16.67-2.35,4.53-8.08-9.16-.9-16.67Z"/>
    <path d="M12.16,18.26c-3.3.51-6.64,1.34-9.68.44-1.79-.53-3.07-2.42-2.2-3.69,3.11-4.52,6.59.89,11.88,3.25Z"/>
    <path d="M12.04,19.41c-5.28,1.55-9.57,11.65-11.44,7.24-1.68-3.95,6.09-7.83,11.44-7.24Z"/>
    <path d="M31.59,18.3c-2.7,1.61-6.35-2.38-13.51-.85,3.88-3.6,12.39-4.1,14-1.21.32.57,0,1.77-.49,2.06Z"/>
    <path d="M12.33,16.73c-4.55-1.78-9.86-8.53-6.28-10.08,1.11-.48,2.74.28,3.41,1.52.43,2.95,1.36,5.27,2.87,8.57Z"/>
    <path d="M23.46,25.14c.82.49,1.08,2.12.83,2.82-.3.86-1.71,1.77-2.59,1.2-2.77-1.78-4.89-4.64-4.72-7.85l6.48,3.83Z"/>
    <path d="M17.81,19.69c3.6-2.09,9.77-.92,9.76,2.19,0,2.76-6.15.71-9.76-2.19Z"/>
    <path d="M14.3,17.01c.99-.67,2.25-.23,2.81.75.36.64.22,1.95-.53,2.55-.57.46-2.12.24-2.73-.39-.68-.7-.55-2.23.45-2.91Z"/>
    <path d="M52.96,25.04c-1.67-.26-3.54.56-4.2,2.1-.56,1.34.82,2.32,1.02,3.54.12.64.1,1.24.21,1.85.85,4.93,5.57,14.06,2.82,23-.49,1.6-1.55,3.63-3.37,3.35-.97-.22-.56-1.31-.08-1.95.56-.83,1.01-1.81,1.33-2.87,2.69-10.21-2.66-21.32-9.71-28.53-1.35-1.48-4.32-3.18-3.06-5.49,1-1.64,3.2-1.94,5-2.01,8.21-.33,16.79,2.23,21.98,8.61,1.82,2.22,2.56,5.91.65,8.23-.88,1.03-2.51,1.62-3.68.88-.9-.58-1.13-1.99-.09-2.43.62-.28,1.42-.2,2-.57.89-.57.55-2.38-.43-3.84-.37-.57-.96-1.17-1.66-1.06-.69.08-1.29.52-2.02.33-.32-.08-.65-.26-.94-.44-1.83-1.15-3.58-2.28-5.68-2.68h-.08ZM59.85,26.88c.83-.23,1.61-.94,2.48-.32,1.91,1.2,3.57,4.61,2.46,6.76-.45.86-1.6.9-2.39,1.18-.5.18-.51.52-.16.75,2.25,1.1,3.67-1.78,3.43-3.85-.1-2.35-1.49-4.65-3.28-6.16-5.4-4.79-12.45-7.16-19.53-6.69-1.55.1-3.8.5-4.21,2.22-.19,1.58,1.35,2.53,2.35,3.56.71.69,1.39,1.4,2.04,2.14,2.45,2.75,4.38,5.9,6.05,9.19.46.76.26-.25.14-1.32-.17-1.11-.22-2.17-.49-3.17-.37-1.2-1.41-1.75-1.31-3.07.23-2.02,2.11-3.64,4.07-3.96,1.62-.29,3.28.31,4.71,1.03.77.38,1.52.84,2.23,1.3.51.33.96.5,1.35.43h.05Z"/>
    <path d="M31.38,39.01c-.49.24-.83.97-1.03,1.59-.81,2.33-2.03,4.32-3.99,5.73-1.94,1.54-4.55.89-6.74,1.81-3.12,1.05-6.84,1.16-9.09-1.53-.62-.58-1.39-.99-2.17-1.32-2.28-1-4.23-2.89-4.77-5.34-.17-1.16.64-.53,1.44.2.64.58,1.29,1.13,1.96,1.6,4.86,3.83,11.79,2.66,15.91-1.76,1.29-1.31,2.62-3.24,3.49-4.99,1.07-2.05,1.85-4.5,2.83-6.34,1.64-3.4,4.71-2.45,6.99-.26,6.29,5.73,10.78,13.82,10.49,22.55-.12,1-.4,2.01-1.04,2.79-.88,1.15-2.72,1.26-2.52-.52,2.07-6.26-.61-17.34-6.4-17.62-2.2.11-1.43,2.26-2.75,3.09-.68.36-1.81-.13-2.55.27l-.05.03ZM24,46.17c1.27.02,2.36-1.07,3.26-1.89,1.75-1.61,2.2-4.49,3.46-6.52.9-.97,2.36,1.08,3.28-.79,1.1-2.75,4.3-2.72,6.29-.93,1.76,1.53,2.77,3.63,3.77,5.7.38.77.7,1.51.81,1.38-.75-3.53-3.19-7.11-5.44-10.08-1.65-1.98-6.1-7.51-8.63-4.88-1.85,1.93-2.58,6.88-5.96,11.09-1.53,1.94-3.52,3.57-5.71,4.56-2.66,1.22-5.58,1.58-8.46.95-.83-.19-1.73-.48-2.01-.43-.26.06-.02.23.19.38.65.45,1.52.7,2.2,1.13,1,.64,1.83,1.72,3.18,1.88,2.46.42,4.91-.34,7.18-1.3.82-.38,1.77-.28,2.54-.24h.06Z"/>
    <path d="M44.16,57.41c-.38-.6.19-1.1.88-1.78.87-.82,2.09-1.87,2.74-3.59,1.73-4.98-1.87-12.58-4.28-17.05-3.23-6.07-8.12-9.76-14.47-12.27-.19-.27.51-.61.41-1.12-.07-.46-.36-1,.5-.75,11.3,2.77,19.72,16.76,20.32,28.2.13,3.25-.35,6.91-3.15,8.57-.81.55-2.14.7-2.94-.17l-.03-.04Z"/>
  </g>
</svg>