<?xml version="1.0" encoding="UTF-8"?>
<svg id="Layer_1" data-name="Layer 1" xmlns="http://www.w3.org/2000/svg" viewBox="0 0 100 100">
  <path d="M57.94,41.33c-.7-.33-1.68-.37-2.61-.11-.74.19-1.42.49-2.02.88-2.04-1.89-2.82-4.94-2.85-7.38,0-.23-.19-.41-.41-.41h0c-.23,0-.41.19-.41.42.04,3.25,1.13,6.08,3,7.88-1.37,1.18-2.19,2.93-2.25,4.99-1.25,3.57-2.66,6.72-4.31,9.65l-.1.19.09.19c.83,1.78,1.8,4.04,2.14,6.02-.8.24-1.32.78-1.45,1.93-.02.19-.03.38-.02.57,0,.02-.01.04-.01.07,0,.06.01.11.03.16.04.42.13.85.3,1.28.83,2.15,5.72,7.69,6.11,11.66.02.21.2.37.41.37.01,0,.03,0,.04,0,.23-.02.39-.22.37-.45-.39-4.06-5.32-9.69-6.16-11.87-.09-.25-.16-.49-.2-.73h6.11c0,.06,0,.11,0,.17.04,2.17-.84,3.68-.85,3.7-.12.2-.05.45.14.57.19.12.45.05.57-.14.04-.07,1.01-1.72.97-4.11.01-.21.02-.4.02-.59,0,0,0,0,0-.01,0,0,0,0,0-.01,0-.99-.2-1.62-.62-2.05-.16-.17-.36-.3-.58-.39.34-2.08,1.38-4.47,2.15-6.13l.09-.19-.1-.19c-1.64-2.91-3.05-6.06-4.3-9.62.06-1.89.79-3.45,2.05-4.48.2.15.4.29.61.42,1.15.67,2.89,1.03,4.18.29.55-.31.87-.8.85-1.31-.02-.51-.38-.96-.96-1.22ZM50.5,64.3h.31c1.32-.04,2.16.02,2.55.42.2.21.32.56.37,1.08h-6.15s0-.09,0-.13c.13-1.19.65-1.43,2.92-1.37ZM52.57,63.53c-.53-.08-1.13-.08-1.77-.06h-.29c-.54-.02-1.04-.02-1.48.02-.35-2-1.29-4.24-2.12-6.03,1.28-2.29,2.41-4.72,3.44-7.38l-.11,7.86c0,.23.18.42.41.42,0,0,0,0,0,0,.23,0,.41-.18.41-.41l.12-8.05c1.05,2.72,2.2,5.21,3.51,7.55-.77,1.67-1.76,3.99-2.11,6.07ZM57.65,43.14c-1.01.57-2.41.27-3.34-.28-.11-.07-.21-.14-.31-.21.47-.27.99-.48,1.55-.63.74-.21,1.53-.18,2.06.06.29.13.47.31.48.5,0,.19-.15.4-.43.55Z"/>
  <path d="M44.06,25.23s0,0,0,0c.23,0,.41-.19.41-.42-.03-1.43.23-2.1.45-2.24.08-.05.19-.03.35.04l3.77,3.02c-1.76,2.13-2.05,4.95-.75,7.46.07.14.22.22.37.22.06,0,.13-.01.19-.05.2-.11.28-.35.18-.56-1.22-2.35-.85-4.99.95-6.9,1.58-1.67,3.19-2.69,4.92-3.12.12-.03.21-.04.28-.04.11.35.31,1.25.46,2.02.04.22.26.37.49.33.22-.04.37-.26.33-.49-.46-2.33-.58-2.43-.7-2.53-.22-.18-.57-.21-1.04-.09-.62.15-1.23.38-1.83.68-.1-.12-.2-.25-.31-.4-.66-.86-1.49-1.92-2.55-1.86-1.22.08-2.29,1.59-2.99,2.59,0,.01-.01.02-.02.03l-1.25-1-.07-.04c-.56-.3-.96-.18-1.2-.03-.59.36-.87,1.36-.85,2.95,0,.23.19.41.41.41ZM47.7,23.39c.54-.76,1.54-2.19,2.37-2.24.63-.04,1.32.87,1.84,1.54.08.1.16.2.23.3-.86.52-1.71,1.2-2.53,2.04l-1.96-1.57s.03-.04.05-.07Z"/>
  <path d="M59.07,26.13s-1-1-2.55-.86c-3.23.27-5.66,2.76-6.65,6.83l-.05.19c-.06.24-.11.47-.2.61-.59.86-1.78,1.16-2.75.7-1.59-.74-2.88-2.3-3.53-4.26-.35-1.05-.71-1.88-1.38-2.68,1.69-.94,4.65.46,5.17.86.18.14.44.1.58-.08.14-.18.1-.44-.08-.58-.48-.37-4.4-2.47-6.57-.58l-.33.29.31.31c.78.79,1.14,1.6,1.51,2.72.72,2.18,2.16,3.91,3.96,4.75,1.34.63,2.97.2,3.78-.98.19-.27.26-.59.33-.9l.04-.18c.53-2.17,2.01-5.87,5.92-6.2.79-.07,1.37.24,1.67.45-.35.73-1.26,2.63-1.7,3.66-.87,2.04-3.03,3.65-5.39,4.01-.23.03-.38.25-.35.47.03.2.21.35.41.35.02,0,.04,0,.06,0,2.63-.4,5.05-2.21,6.03-4.51.53-1.25,1.81-3.89,1.82-3.91l.13-.26-.21-.21Z"/>
</svg>