<?xml version="1.0" encoding="UTF-8"?>
<svg id="Layer_1" data-name="Layer 1" xmlns="http://www.w3.org/2000/svg" viewBox="0 0 100 32">
  <defs>
    <style>
      .cls-1 {
        letter-spacing: -.12em;
      }

      .cls-2 {
        letter-spacing: -.02em;
      }

      .cls-2, .cls-3, .cls-4, .cls-5, .cls-6, .cls-7 {
        font-family: Futura100-Demibold, 'Futura 100';
      }

      .cls-4 {
        letter-spacing: -.03em;
      }

      .cls-8 {
        font-size: 12.97px;
      }

      .cls-8, .cls-9 {
        font-weight: 300;
      }

      .cls-10 {
        letter-spacing: -.02em;
      }

      .cls-11 {
        font-family: Futura100-DemiboldOblique, 'Futura 100';
        font-style: oblique;
      }

      .cls-5 {
        letter-spacing: 0em;
      }

      .cls-6 {
        letter-spacing: -.13em;
      }

      .cls-7 {
        letter-spacing: -.03em;
      }

      .cls-9 {
        font-family: TheSeasons-Light, 'The Seasons';
        font-size: 18.66px;
      }
    </style>
  </defs>
  <g>
    <text class="cls-8" transform="translate(23.29 12.24)"><tspan class="cls-3" x="0" y="0">E</tspan><tspan class="cls-2" x="6.66" y="0">S</tspan><tspan class="cls-4" x="13.85" y="0">S</tspan><tspan class="cls-6" x="20.95" y="0">A</tspan><tspan class="cls-7" x="28.95" y="0">Y</tspan><tspan class="cls-5" x="37.09" y="0">S </tspan><tspan class="cls-11" x="47.25" y="0">IN</tspan></text>
    <text class="cls-9" transform="translate(23.29 29.1)"><tspan class="cls-10" x="0" y="0">B</tspan><tspan class="cls-1" x="10.6" y="0">L</tspan><tspan class="cls-10" x="18.33" y="0">OOM</tspan></text>
  </g>
  <path d="M16.33,2.29c-1.05,3-2.24,5.66-3.62,8.12l-.09.16.08.16c.7,1.5,1.52,3.4,1.8,5.07-.67.2-1.12.66-1.22,1.63-.02.16-.02.32-.02.48,0,.02-.01.04-.01.06,0,.05,0,.09.03.13.03.36.11.72.25,1.08.7,1.81,4.82,6.48,5.14,9.81.02.18.17.31.35.31.01,0,.02,0,.03,0,.19-.02.33-.19.31-.38-.33-3.42-4.47-8.15-5.18-9.99-.08-.21-.13-.41-.17-.62h5.15s0,.09,0,.14c.03,1.83-.71,3.1-.72,3.11-.1.16-.04.38.12.48.16.1.38.05.48-.12.03-.06.85-1.45.81-3.46.01-.18.01-.34.01-.49,0,0,0,0,0,0,0,0,0,0,0-.01,0-.83-.17-1.37-.52-1.73-.14-.14-.3-.25-.49-.33.29-1.75,1.16-3.76,1.81-5.15l.08-.16-.09-.16c-1.38-2.45-2.56-5.1-3.61-8.1l-.7-.02ZM16.42,16.35h.26c1.11-.03,1.82.02,2.15.35.17.18.27.47.31.91h-5.18s0-.07,0-.11c.11-1,.54-1.2,2.46-1.15ZM18.16,15.7c-.44-.07-.95-.06-1.49-.05h-.24c-.45-.01-.87-.01-1.25.02-.29-1.69-1.08-3.56-1.78-5.08,1.08-1.93,2.03-3.98,2.89-6.21l-.1,6.61c0,.19.15.35.34.35,0,0,0,0,0,0,.19,0,.35-.15.35-.34l.1-6.77c.88,2.29,1.85,4.39,2.95,6.36-.65,1.4-1.48,3.36-1.78,5.11Z"/>
</svg>