<?xml version="1.0" encoding="UTF-8"?>
<svg id="Layer_2" data-name="Layer 2" xmlns="http://www.w3.org/2000/svg" viewBox="0 0 162.02 58.9">
  <defs>
    <style>
      .cls-1 {
        fill: none;
        stroke: #000;
        stroke-linecap: round;
        stroke-miterlimit: 10;
        stroke-width: .19px;
      }
    </style>
  </defs>
  <g id="Color_Kit" data-name="Color Kit">
    <g>
      <g>
        <path d="M84.14,17.62c-1.63,0-4.21,0-6.62.07.07-1.41.15-3.11.15-5.12v-7.07c0-2-.07-3.71-.15-5.11,2.41.07,4.97.07,6.47.07,1.03,0,2.9,0,4.87-.12.24-.03.29.05.24.27l-.35,1.46c-.02.12-.1.15-.37.12-2.29-.2-3.91-.32-5.78-.32-.84,0-1.23.27-1.26.94-.05,1.06-.07,2-.07,2.99v1.58c0,.64.32.76.81.76h.44c1.95,0,3.18-.02,4.55-.2.2-.02.29.1.2.32l-.49,1.33c-.07.27-.22.27-.54.25-.93-.07-2.63-.17-3.94-.17h-.22c-.49,0-.81.12-.81.77v1.83c0,.99,0,1.9.07,2.97.05.67.42.94,1.26.94,1.99,0,4.01-.2,6.3-.4.27-.02.39,0,.37.12l-.29,1.56c-.05.22-.05.29-.25.27-1.97-.12-3.2-.12-4.6-.12Z"/>
        <path d="M90.21,16.36l.29-1.11c.69-2.59,1.16,1.09,5.76,1.09,2.04,0,2.68-.91,2.68-2.1,0-1.07-.44-1.46-2.46-2.74l-1.8-1.21c-2.9-1.93-4.13-2.97-4.13-5.04,0-3.19,3.2-5.24,6.13-5.24,1.9,0,4.33.84,4.14,1.43l-.32.89c-.81,2.59-.74-.55-4.87-.55-1.63,0-2.39.82-2.39,2,0,1.11.69,1.73,2.32,2.74l2.11,1.39c2.78,1.8,3.89,2.94,3.89,4.87,0,3.16-3.05,5.31-6.32,5.31-2.07,0-5.27-.81-5.02-1.73Z"/>
        <path d="M102.36,16.36l.29-1.11c.69-2.59,1.16,1.09,5.76,1.09,2.04,0,2.68-.91,2.68-2.1,0-1.07-.44-1.46-2.46-2.74l-1.8-1.21c-2.91-1.93-4.14-2.97-4.14-5.04,0-3.19,3.2-5.24,6.13-5.24,1.9,0,4.33.84,4.14,1.43l-.32.89c-.81,2.59-.74-.55-4.87-.55-1.63,0-2.39.82-2.39,2,0,1.11.69,1.73,2.32,2.74l2.11,1.39c2.78,1.8,3.89,2.94,3.89,4.87,0,3.16-3.05,5.31-6.32,5.31-2.07,0-5.26-.81-5.02-1.73Z"/>
        <path d="M115.26,14.01l4.08-9.44c.71-1.66,1.16-3.02,1.25-3.93.03-.22,1.75-.52,1.82-.35l5.85,13.77c.54,1.24,1.06,2.4,1.68,3.63h-3.84l-1.65-3.68c-.29-.69-.49-.72-1.16-.72h-4.82c-.74,0-1.01,0-1.26.72l-1.28,3.68h-2.36c.57-1.24,1.16-2.45,1.68-3.68ZM118.9,11.71h3.94c.32,0,.64-.07.49-.42l-2.46-5.96-2.46,5.96c-.15.35.17.42.49.42Z"/>
        <path d="M134.42,12.58v-2.57l-6.2-9.61h4.21c.93,1.63,2.63,4.3,3.76,6.05l.86,1.43,1.01-1.43c1.16-1.68,2.85-4.42,3.67-6.05h2.51l-6.2,9.46v2.72c0,2,.1,3.71.17,5.12h-3.96c.07-1.41.17-3.11.17-5.12Z"/>
        <path d="M144.67,16.36l.29-1.11c.69-2.59,1.16,1.09,5.76,1.09,2.04,0,2.68-.91,2.68-2.1,0-1.07-.44-1.46-2.46-2.74l-1.8-1.21c-2.9-1.93-4.13-2.97-4.13-5.04,0-3.19,3.2-5.24,6.13-5.24,1.9,0,4.33.84,4.14,1.43l-.32.89c-.81,2.59-.74-.55-4.87-.55-1.63,0-2.39.82-2.39,2,0,1.11.69,1.73,2.32,2.74l2.11,1.39c2.78,1.8,3.89,2.94,3.89,4.87,0,3.16-3.05,5.31-6.32,5.31-2.07,0-5.27-.81-5.02-1.73Z"/>
      </g>
      <g>
        <path d="M77.52,58.5c.07-1.41.15-3.11.15-5.12v-7.07c0-2-.07-3.71-.15-5.11,2.41.07,4.16-.05,6.25-.05,3.08,0,5.61,1.31,5.66,4,.05,1.88-1.13,3.33-3.15,3.75v.17c2.39,0,4.62,1.61,4.62,4.38,0,3.16-3,5.09-6.96,5.09-2.63,0-4.01-.12-6.42-.05ZM83.65,48.59c1.48,0,2.04-1.04,2.04-2.6,0-2.02-1.03-3.41-3-3.41-1.01,0-1.4.27-1.4,1.43v4.57h2.36ZM83.68,57.12c1.57,0,3.4-.47,3.4-2.99,0-2.15-1.28-4.13-3.42-4.13h-2.36v5.31c0,1.09.59,1.8,2.39,1.8Z"/>
        <path d="M99.12,58.43c-1.63,0-4.21,0-6.62.07.07-1.41.15-3.11.15-5.12v-7.07c0-2-.07-3.71-.15-5.11h3.94c-.05,1.41-.17,3.11-.17,5.11v6.77c0,.99,0,1.9.07,2.97.05.67.42.94,1.26.94,1.99,0,4.16-.2,6.45-.4.27-.02.39,0,.37.12l-.29,1.56c-.05.22-.05.29-.25.27-1.97-.12-3.47-.12-4.75-.12Z"/>
        <path d="M104.4,49.98c0-4.99,3.62-9.17,9.03-9.17,5.09,0,8.93,3.73,8.93,8.89s-3.57,9.19-9.01,9.19c-5.07,0-8.96-3.78-8.96-8.92ZM114.41,57.02c1.99,0,4.45-1.51,4.45-5.78,0-4.77-3.27-8.55-6.52-8.55-1.99,0-4.43,1.51-4.43,5.76,0,4.82,3.3,8.58,6.5,8.58Z"/>
        <path d="M123.2,49.98c0-4.99,3.62-9.17,9.03-9.17,5.09,0,8.93,3.73,8.93,8.89s-3.57,9.19-9.01,9.19c-5.07,0-8.96-3.78-8.96-8.92ZM133.22,57.02c1.99,0,4.45-1.51,4.45-5.78,0-4.77-3.27-8.55-6.52-8.55-1.99,0-4.43,1.51-4.43,5.76,0,4.82,3.3,8.58,6.5,8.58Z"/>
        <path d="M143.59,51.24l.59-9.94c.02-.49.96-.54,1.28,0l7.28,13.07,6.69-13.07c.27-.54,1.3-.49,1.33-.02l.64,9.96c.12,2.42.3,4.84.52,7.26h-3.82c-.1-2.42-.19-4.85-.34-7.26l-.2-2.99-3.67,7.32c-.49.94-.79,1.95-.89,2.28-.12.32-.69.37-1.23.37s-.69-.08-.84-.37l-5.44-9.94-.12,3.34c-.1,2.42-.17,4.84-.25,7.26h-2.14c.22-2.42.45-4.85.59-7.26Z"/>
      </g>
      <g>
        <g>
          <path d="M77.52,23.44c0-.44,1.02-1.26,1.22-1.26.22,0,1.22.82,1.22,1.26s-1,1.24-1.22,1.24c-.2,0-1.22-.82-1.22-1.24ZM79.42,27.09c.14-.04.26-.04.24.16-.08.66-.18,1.95-.18,3.61v2.57c0,1.52.06,2.59.1,3.29h-1.68c.06-.82.08-2.47.08-3.29v-2.57c0-1.54-.06-2.59-.1-3.29l1.53-.48Z"/>
          <path d="M81.66,33.43v-3.23c0-1.04-.06-1.93-.1-2.63l1.48-.46c.12-.04.16,0,.16.16,0,.64.14.84.48.7.9-.38,1.9-.94,3.11-.94,1.87,0,2.71,1.5,2.71,2.95v3.45c0,1.52.06,2.59.1,3.29h-1.66c.06-.82.08-2.47.08-3.29v-3.01c0-1.69-1.26-1.99-2.32-1.99s-2.55.26-2.55.78v4.21c0,1.52.06,2.59.1,3.29h-1.68c.06-.82.08-2.47.08-3.29Z"/>
        </g>
        <path class="cls-1" d="M95.07,36.14c.36,0,.36.09.72.09s.36-.11.72-.11.36.03.72.03.36,0,.72,0,.36.04.72.04.36.06.72.06.36-.1.72-.1.36.04.72.04.36-.07.72-.07.36.05.72.05.36.07.72.07.36-.12.72-.12.36.1.72.1.36-.06.72-.06.36.04.72.04.36-.06.72-.06.36.03.72.03.36.03.72.03.36-.02.72-.02.36-.02.72-.02.36.06.72.06.36,0,.72,0,.36-.04.72-.04.36.02.72.02.36.04.72.04.36-.1.72-.1.36.06.72.06.36-.06.72-.06.36.1.71.1.36-.02.71-.02.36-.04.71-.04.36,0,.72,0,.36.08.72.08.36-.11.72-.11.36.09.72.09.36-.09.72-.09.36-.01.72-.01.36.03.72.03.36-.03.72-.03.36.1.72.1.36-.03.72-.03.36.02.72.02.36-.05.72-.05.36,0,.72,0,.36.04.72.04.36.05.72.05.36,0,.72,0,.36-.03.72-.03.36-.05.72-.05.36,0,.72,0,.36.07.72.07.36-.02.72-.02.36.02.72.02.36-.04.72-.04.36-.02.72-.02.36.08.72.08.36-.09.72-.09.36.06.72.06.36.02.72.02.36-.06.72-.06.36,0,.72,0,.36-.02.72-.02.36-.01.72-.01.36,0,.72,0,.36.09.72.09.36-.06.72-.06.36.04.72.04.36.04.72.04.36-.04.72-.04.36-.08.72-.08.36.09.72.09.36.02.72.02.36-.03.72-.03.36-.01.72-.01.36.03.72.03.36-.1.72-.1.36,0,.72,0,.36.07.72.07.36,0,.72,0,.36.05.72.05.36-.02.72-.02.36-.02.72-.02.36.03.72.03.36-.02.72-.02.36-.06.72-.06.36.02.72.02.36.02.72.02.36-.02.72-.02.36.01.72.01.36-.05.73-.05.36-.02.73-.02.36.06.73.06.36-.01.73-.01"/>
        <path class="cls-1" d="M95.07,32.38c.36,0,.36-.06.72-.06s.36.05.72.05.36.07.72.07.36-.12.72-.12.36.1.72.1.36-.06.72-.06.36.04.72.04.36-.06.72-.06.36.03.72.03.36.03.72.03.36-.02.72-.02.36-.02.72-.02.36.06.72.06.36,0,.72,0,.36-.04.72-.04.36.02.72.02.36.03.72.03.36-.09.72-.09.36.05.72.05.36-.06.72-.06.36.1.72.1.36-.02.72-.02.36-.04.72-.04.36,0,.72,0,.36.07.72.07.36-.1.71-.1.36.08.72.08.36-.09.72-.09.36-.01.72-.01.36.03.72.03.36-.03.72-.03.36.1.72.1.36-.03.72-.03.36.02.72.02.36-.05.72-.05.36,0,.72,0,.36.03.72.03.36.05.72.05.36,0,.72,0,.36-.03.72-.03.36-.05.72-.05.36,0,.72,0,.36.07.72.07.36-.02.72-.02.36.02.72.02.36-.04.72-.04.36-.02.72-.02.36.08.72.08.36-.09.72-.09.36.06.72.06.36.02.72.02.36-.05.72-.05.36,0,.72,0,.36-.02.72-.02.36-.01.72-.01.36,0,.72,0,.36.09.72.09.36-.06.72-.06.36.04.72.04.36.04.72.04.36-.04.72-.04.36-.08.72-.08.36.09.72.09.36.02.72.02.36-.03.72-.03.36,0,.72,0,.36.03.72.03.36-.1.72-.1.36,0,.72,0,.36.06.72.06.36,0,.72,0,.36.05.72.05.36-.02.72-.02.36-.02.72-.02.36.03.72.03.36-.02.73-.02.36-.06.72-.06.36.02.72.02.36.02.72.02.36-.02.73-.02.36.01.72.01.36-.05.72-.05.36-.02.73-.02.36.05.73.05.36-.01.73-.01.36,0,.72,0,.36.02.73.02.36-.05.73-.05.37.08.73.08.37,0,.73,0"/>
        <path class="cls-1" d="M95.07,28.53c.36,0,.36.08.72.08s.36-.1.72-.1.36.03.72.03.36,0,.71,0,.36.03.71.03.36.05.71.05.36-.09.71-.09.36.04.71.04.36-.06.72-.06.36.04.72.04.36.06.72.06.36-.11.72-.11.36.09.72.09.36-.05.72-.05.36.04.72.04.36-.06.72-.06.36.03.72.03.36.02.72.02.36-.02.72-.02.36-.02.71-.02.36.05.71.05.36,0,.71,0,.36-.04.71-.04.36.02.71.02.36.03.71.03.36-.09.72-.09.36.05.72.05.36-.06.72-.06.36.09.72.09.36-.01.72-.01.36-.04.72-.04.36,0,.71,0,.36.07.71.07.36-.1.71-.1.36.08.71.08.36-.08.71-.08.36-.01.71-.01.36.03.71.03.36-.03.71-.03.36.09.71.09.36-.03.71-.03.36.02.72.02.36-.05.72-.05.36,0,.72,0,.36.03.72.03.36.05.72.05.36,0,.72,0,.36-.03.72-.03.36-.04.72-.04.36,0,.72,0,.36.06.72.06.36-.02.72-.02.36.02.72.02.36-.04.72-.04.36-.02.72-.02.36.08.72.08.36-.09.72-.09.36.05.72.05.36.02.72.02.36-.05.72-.05.36,0,.72,0,.36-.02.72-.02.36-.01.72-.01.36,0,.72,0,.36.08.72.08.36-.06.72-.06.36.04.71.04.36.03.71.03.36-.04.72-.04.36-.08.72-.08.36.08.72.08.36.02.72.02.36-.03.72-.03.36,0,.72,0,.36.03.72.03.36-.09.72-.09.36,0,.72,0,.36.06.72.06.36,0,.72,0,.36.05.72.05.36-.02.72-.02.36-.02.72-.02.36.03.73.03.36-.02.73-.02.36-.06.73-.06"/>
        <path class="cls-1" d="M95.07,24.76c.36,0,.36-.06.72-.06s.36.04.71.04.36.07.71.07.36-.11.71-.11.36.1.71.1.36-.06.71-.06.36.04.71.04.36-.06.71-.06.36.03.71.03.36.02.71.02.36-.02.71-.02.36-.02.71-.02.36.06.71.06.36,0,.71,0,.36-.04.72-.04.36.02.72.02.36.03.72.03.36-.09.72-.09.36.05.72.05.36-.06.72-.06.36.09.72.09.35-.01.71-.01.36-.04.71-.04.36,0,.71,0,.36.07.71.07.36-.1.71-.1.36.08.71.08.36-.08.71-.08.36-.01.72-.01.36.03.72.03.36-.03.72-.03.36.09.72.09.36-.03.71-.03.36.02.71.02.36-.05.71-.05.36,0,.71,0,.36.03.71.03.36.05.71.05.36,0,.71,0,.36-.03.71-.03.36-.05.71-.05.36,0,.71,0,.36.06.71.06.36-.02.71-.02.36.02.72.02.36-.04.72-.04.36-.02.72-.02.36.08.72.08.36-.09.72-.09.36.05.72.05.36.02.72.02.36-.05.72-.05.36,0,.71,0,.36-.02.72-.02.36-.01.72-.01.36,0,.72,0,.36.09.72.09.36-.06.72-.06.36.04.72.04.36.04.72.04.36-.04.72-.04.36-.08.72-.08.36.08.72.08.36.02.72.02.36-.03.72-.03.36,0,.72,0,.36.03.72.03.36-.09.72-.09.36,0,.71,0,.36.06.71.06.36,0,.72,0,.36.05.72.05.36-.02.72-.02.36-.02.72-.02.36.03.72.03.36-.02.72-.02.36-.06.72-.06.36.02.72.02.36.02.72.02.36-.01.72-.01.36.01.72.01.36-.05.72-.05.36-.02.72-.02.36.05.72.05.36,0,.72,0,.36,0,.73,0,.36.02.73.02"/>
      </g>
    </g>
    <g>
      <path d="M49.85,15.15c-5.43.03-12.4-9.99-25.92-5.6-3.2,1.04-5.63,2.87-7.69,5.58,5.23-13.45,33.86-10.06,35.05-2.1.12.81-.72,2.11-1.43,2.11Z"/>
      <path d="M25.86,5.9c-4.54,1-7.69,4.23-10.62,7.06C17.45,3.81,31.85-3.52,36.38,1.79c.58.68.19,1.74-.68,1.93l-9.84,2.18Z"/>
      <path d="M40.36,14.78c-1.83,4.78-9.4-6.69-22.03.36,7.06-8.21,23.63-4.53,22.03-.36Z"/>
      <path d="M18.08,1.11c2.37,1.8-4.75,7.32-4.43,14.92-3.1-5.16-3.14-11.42,1.5-14.84.68-.5,2.37-.51,2.93-.08Z"/>
      <path d="M15.04,21.53c1.5,7.33,7.75,10.77,5.87,13.39-.82,1.14-2.5,1.21-3.5.23-3.5-3.45-4.83-9-2.36-13.62Z"/>
      <path d="M12.67,20.31c-6.11,6.25-1.96,14.99-6.16,15.53-4.12.54-1.7-12.96,6.16-15.53Z"/>
      <path d="M13.38,21.56c-2.92,8.31,2.35,13.88.9,16.67-2.35,4.53-8.08-9.16-.9-16.67Z"/>
      <path d="M12.16,18.26c-3.3.51-6.64,1.34-9.68.44-1.79-.53-3.07-2.42-2.2-3.69,3.11-4.52,6.59.89,11.88,3.25Z"/>
      <path d="M12.04,19.41c-5.28,1.55-9.57,11.65-11.44,7.24-1.68-3.95,6.09-7.83,11.44-7.24Z"/>
      <path d="M31.59,18.3c-2.7,1.61-6.35-2.38-13.51-.85,3.88-3.6,12.39-4.1,14-1.21.32.57,0,1.77-.49,2.06Z"/>
      <path d="M12.33,16.73c-4.55-1.78-9.86-8.53-6.28-10.08,1.11-.48,2.74.28,3.41,1.52.43,2.95,1.36,5.27,2.87,8.57Z"/>
      <path d="M23.46,25.14c.82.49,1.08,2.12.83,2.82-.3.86-1.71,1.77-2.59,1.2-2.77-1.78-4.89-4.64-4.72-7.85l6.48,3.83Z"/>
      <path d="M17.81,19.69c3.6-2.09,9.77-.92,9.76,2.19,0,2.76-6.15.71-9.76-2.19Z"/>
      <path d="M14.3,17.01c.99-.67,2.25-.23,2.81.75.36.64.22,1.95-.53,2.55-.57.46-2.12.24-2.73-.39-.68-.7-.55-2.23.45-2.91Z"/>
      <path d="M52.96,25.04c-1.67-.26-3.54.56-4.2,2.1-.56,1.34.82,2.32,1.02,3.54.12.64.1,1.24.21,1.85.85,4.93,5.57,14.06,2.82,23-.49,1.6-1.55,3.63-3.37,3.35-.97-.22-.56-1.31-.08-1.95.56-.83,1.01-1.81,1.33-2.87,2.69-10.21-2.66-21.32-9.71-28.53-1.35-1.48-4.32-3.18-3.06-5.49,1-1.64,3.2-1.94,5-2.01,8.21-.33,16.79,2.23,21.98,8.61,1.82,2.22,2.56,5.91.65,8.23-.88,1.03-2.51,1.62-3.68.88-.9-.58-1.13-1.99-.09-2.43.62-.28,1.42-.2,2-.57.89-.57.55-2.38-.43-3.84-.37-.57-.96-1.17-1.66-1.06-.69.08-1.29.52-2.02.33-.32-.08-.65-.26-.94-.44-1.83-1.15-3.58-2.28-5.68-2.68h-.08ZM59.85,26.88c.83-.23,1.61-.94,2.48-.32,1.91,1.2,3.57,4.61,2.46,6.76-.45.86-1.6.9-2.39,1.18-.5.18-.51.52-.16.75,2.25,1.1,3.67-1.78,3.43-3.85-.1-2.35-1.49-4.65-3.28-6.16-5.4-4.79-12.45-7.16-19.53-6.69-1.55.1-3.8.5-4.21,2.22-.19,1.58,1.35,2.53,2.35,3.56.71.69,1.39,1.4,2.04,2.14,2.45,2.75,4.38,5.9,6.05,9.19.46.76.26-.25.14-1.32-.17-1.11-.22-2.17-.49-3.17-.37-1.2-1.41-1.75-1.31-3.07.23-2.02,2.11-3.64,4.07-3.96,1.62-.29,3.28.31,4.71,1.03.77.38,1.52.84,2.23,1.3.51.33.96.5,1.35.43h.05Z"/>
      <path d="M31.38,39.01c-.49.24-.83.97-1.03,1.59-.81,2.33-2.03,4.32-3.99,5.73-1.94,1.54-4.55.89-6.74,1.81-3.12,1.05-6.84,1.16-9.09-1.53-.62-.58-1.39-.99-2.17-1.32-2.28-1-4.23-2.89-4.77-5.34-.17-1.16.64-.53,1.44.2.64.58,1.29,1.13,1.96,1.6,4.86,3.83,11.79,2.66,15.91-1.76,1.29-1.31,2.62-3.24,3.49-4.99,1.07-2.05,1.85-4.5,2.83-6.34,1.64-3.4,4.71-2.45,6.99-.26,6.29,5.73,10.78,13.82,10.49,22.55-.12,1-.4,2.01-1.04,2.79-.88,1.15-2.72,1.26-2.52-.52,2.07-6.26-.61-17.34-6.4-17.62-2.2.11-1.43,2.26-2.75,3.09-.68.36-1.81-.13-2.55.27l-.05.03ZM24,46.17c1.27.02,2.36-1.07,3.26-1.89,1.75-1.61,2.2-4.49,3.46-6.52.9-.97,2.36,1.08,3.28-.79,1.1-2.75,4.3-2.72,6.29-.93,1.76,1.53,2.77,3.63,3.77,5.7.38.77.7,1.51.81,1.38-.75-3.53-3.19-7.11-5.44-10.08-1.65-1.98-6.1-7.51-8.63-4.88-1.85,1.93-2.58,6.88-5.96,11.09-1.53,1.94-3.52,3.57-5.71,4.56-2.66,1.22-5.58,1.58-8.46.95-.83-.19-1.73-.48-2.01-.43-.26.06-.02.23.19.38.65.45,1.52.7,2.2,1.13,1,.64,1.83,1.72,3.18,1.88,2.46.42,4.91-.34,7.18-1.3.82-.38,1.77-.28,2.54-.24h.06Z"/>
      <path d="M44.16,57.41c-.38-.6.19-1.1.88-1.78.87-.82,2.09-1.87,2.74-3.59,1.73-4.98-1.87-12.58-4.28-17.05-3.23-6.07-8.12-9.76-14.47-12.27-.19-.27.51-.61.41-1.12-.07-.46-.36-1,.5-.75,11.3,2.77,19.72,16.76,20.32,28.2.13,3.25-.35,6.91-3.15,8.57-.81.55-2.14.7-2.94-.17l-.03-.04Z"/>
    </g>
  </g>
</svg>