<?xml version="1.0" encoding="UTF-8"?>
<svg id="Layer_2" data-name="Layer 2" xmlns="http://www.w3.org/2000/svg" viewBox="0 0 84.4 58.9">
  <defs>
    <style>
      .cls-1 {
        fill: none;
        stroke: #000;
        stroke-linecap: round;
        stroke-miterlimit: 10;
        stroke-width: .19px;
      }
    </style>
  </defs>
  <g id="Color_Kit" data-name="Color Kit">
    <g>
      <g>
        <path d="M9.58,17.62c-1.63,0-4.21,0-6.62.07.07-1.41.15-3.11.15-5.12v-7.07c0-2-.07-3.71-.15-5.11,2.41.07,4.97.07,6.47.07,1.03,0,2.9,0,4.87-.12.24-.03.29.05.24.27l-.35,1.46c-.02.12-.1.15-.37.12-2.29-.2-3.91-.32-5.78-.32-.84,0-1.23.27-1.26.94-.05,1.06-.07,2-.07,2.99v1.58c0,.64.32.76.81.76h.44c1.95,0,3.18-.02,4.55-.2.2-.02.29.1.2.32l-.49,1.33c-.07.27-.22.27-.54.25-.93-.07-2.63-.17-3.94-.17h-.22c-.49,0-.81.12-.81.77v1.83c0,.99,0,1.9.07,2.97.05.67.42.94,1.26.94,1.99,0,4.01-.2,6.3-.4.27-.02.39,0,.37.12l-.29,1.56c-.05.22-.05.29-.25.27-1.97-.12-3.2-.12-4.6-.12Z"/>
        <path d="M15.64,16.36l.29-1.11c.69-2.59,1.16,1.09,5.76,1.09,2.04,0,2.68-.91,2.68-2.1,0-1.07-.44-1.46-2.46-2.74l-1.8-1.21c-2.9-1.93-4.13-2.97-4.13-5.04,0-3.19,3.2-5.24,6.13-5.24,1.9,0,4.33.84,4.14,1.43l-.32.89c-.81,2.59-.74-.55-4.87-.55-1.63,0-2.39.82-2.39,2,0,1.11.69,1.73,2.32,2.74l2.11,1.39c2.78,1.8,3.89,2.94,3.89,4.87,0,3.16-3.05,5.31-6.32,5.31-2.07,0-5.27-.81-5.02-1.73Z"/>
        <path d="M27.79,16.36l.29-1.11c.69-2.59,1.16,1.09,5.76,1.09,2.04,0,2.68-.91,2.68-2.1,0-1.07-.44-1.46-2.46-2.74l-1.8-1.21c-2.91-1.93-4.14-2.97-4.14-5.04,0-3.19,3.2-5.24,6.13-5.24,1.9,0,4.33.84,4.14,1.43l-.32.89c-.81,2.59-.74-.55-4.87-.55-1.63,0-2.39.82-2.39,2,0,1.11.69,1.73,2.32,2.74l2.11,1.39c2.78,1.8,3.89,2.94,3.89,4.87,0,3.16-3.05,5.31-6.32,5.31-2.07,0-5.26-.81-5.02-1.73Z"/>
        <path d="M40.7,14.01l4.08-9.44c.71-1.66,1.16-3.02,1.25-3.93.03-.22,1.75-.52,1.82-.35l5.85,13.77c.54,1.24,1.06,2.4,1.68,3.63h-3.84l-1.65-3.68c-.29-.69-.49-.72-1.16-.72h-4.82c-.74,0-1.01,0-1.26.72l-1.28,3.68h-2.36c.57-1.24,1.16-2.45,1.68-3.68ZM44.34,11.71h3.94c.32,0,.64-.07.49-.42l-2.46-5.96-2.46,5.96c-.15.35.17.42.49.42Z"/>
        <path d="M59.85,12.58v-2.57L53.65.4h4.21c.93,1.63,2.63,4.3,3.76,6.05l.86,1.43,1.01-1.43c1.16-1.68,2.85-4.42,3.67-6.05h2.51l-6.2,9.46v2.72c0,2,.1,3.71.17,5.12h-3.96c.07-1.41.17-3.11.17-5.12Z"/>
        <path d="M70.1,16.36l.29-1.11c.69-2.59,1.16,1.09,5.76,1.09,2.04,0,2.68-.91,2.68-2.1,0-1.07-.44-1.46-2.46-2.74l-1.8-1.21c-2.9-1.93-4.13-2.97-4.13-5.04,0-3.19,3.2-5.24,6.13-5.24,1.9,0,4.33.84,4.14,1.43l-.32.89c-.81,2.59-.74-.55-4.87-.55-1.63,0-2.39.82-2.39,2,0,1.11.69,1.73,2.32,2.74l2.11,1.39c2.78,1.8,3.89,2.94,3.89,4.87,0,3.16-3.05,5.31-6.32,5.31-2.07,0-5.27-.81-5.02-1.73Z"/>
      </g>
      <g>
        <path d="M0,58.5c.07-1.41.15-3.11.15-5.12v-7.07c0-2-.07-3.71-.15-5.11,2.41.07,4.16-.05,6.25-.05,3.08,0,5.61,1.31,5.66,4,.05,1.88-1.13,3.33-3.15,3.75v.17c2.39,0,4.62,1.61,4.62,4.38,0,3.16-3,5.09-6.96,5.09-2.63,0-4.01-.12-6.42-.05ZM6.13,48.59c1.48,0,2.04-1.04,2.04-2.6,0-2.02-1.03-3.41-3-3.41-1.01,0-1.4.27-1.4,1.43v4.57h2.36ZM6.15,57.12c1.57,0,3.4-.47,3.4-2.99,0-2.15-1.28-4.13-3.42-4.13h-2.36v5.31c0,1.09.59,1.8,2.39,1.8Z"/>
        <path d="M21.59,58.43c-1.63,0-4.21,0-6.62.07.07-1.41.15-3.11.15-5.12v-7.07c0-2-.07-3.71-.15-5.11h3.94c-.05,1.41-.17,3.11-.17,5.11v6.77c0,.99,0,1.9.07,2.97.05.67.42.94,1.26.94,1.99,0,4.16-.2,6.45-.4.27-.02.39,0,.37.12l-.29,1.56c-.05.22-.05.29-.25.27-1.97-.12-3.47-.12-4.75-.12Z"/>
        <path d="M26.87,49.98c0-4.99,3.62-9.17,9.03-9.17,5.09,0,8.93,3.73,8.93,8.89s-3.57,9.19-9.01,9.19c-5.07,0-8.96-3.78-8.96-8.92ZM36.89,57.02c1.99,0,4.45-1.51,4.45-5.78,0-4.77-3.27-8.55-6.52-8.55-1.99,0-4.43,1.51-4.43,5.76,0,4.82,3.3,8.58,6.5,8.58Z"/>
        <path d="M45.68,49.98c0-4.99,3.62-9.17,9.03-9.17,5.09,0,8.93,3.73,8.93,8.89s-3.57,9.19-9.01,9.19c-5.07,0-8.96-3.78-8.96-8.92ZM55.7,57.02c1.99,0,4.45-1.51,4.45-5.78,0-4.77-3.27-8.55-6.52-8.55-1.99,0-4.43,1.51-4.43,5.76,0,4.82,3.3,8.58,6.5,8.58Z"/>
        <path d="M66.07,51.24l.59-9.94c.02-.49.96-.54,1.28,0l7.28,13.07,6.69-13.07c.27-.54,1.3-.49,1.33-.02l.64,9.96c.12,2.42.3,4.84.52,7.26h-3.82c-.1-2.42-.19-4.85-.34-7.26l-.2-2.99-3.67,7.32c-.49.94-.79,1.95-.89,2.28-.12.32-.69.37-1.23.37s-.69-.08-.84-.37l-5.44-9.94-.12,3.34c-.1,2.42-.17,4.84-.25,7.26h-2.14c.22-2.42.45-4.85.59-7.26Z"/>
      </g>
      <g>
        <path d="M36.16,23.44c0-.44,1.02-1.26,1.22-1.26.22,0,1.22.82,1.22,1.26s-1,1.24-1.22,1.24c-.2,0-1.22-.82-1.22-1.24ZM38.06,27.09c.14-.04.26-.04.24.16-.08.66-.18,1.95-.18,3.61v2.57c0,1.52.06,2.59.1,3.29h-1.68c.06-.82.08-2.47.08-3.29v-2.57c0-1.54-.06-2.59-.1-3.29l1.53-.48Z"/>
        <path d="M40.3,33.43v-3.23c0-1.04-.06-1.93-.1-2.63l1.48-.46c.12-.04.16,0,.16.16,0,.64.14.84.48.7.9-.38,1.9-.94,3.11-.94,1.87,0,2.71,1.5,2.71,2.95v3.45c0,1.52.06,2.59.1,3.29h-1.66c.06-.82.08-2.47.08-3.29v-3.01c0-1.69-1.26-1.99-2.32-1.99s-2.55.26-2.55.78v4.21c0,1.52.06,2.59.1,3.29h-1.68c.06-.82.08-2.47.08-3.29Z"/>
      </g>
      <path class="cls-1" d="M81.44,36.22c-.36,0-.36-.01-.72-.01s-.36-.01-.72-.01-.36.02-.72.02-.36-.02-.73-.02-.36,0-.72,0-.36.02-.72.02-.36-.01-.72-.01-.36,0-.72,0-.36.01-.72.01-.36-.03-.72-.03-.36,0-.72,0-.36.01-.72.01-.36.02-.73.02-.36-.05-.73-.05-.36.03-.73.03-.36-.03-.72-.03-.36.02-.72.02-.36.02-.72.02-.36-.04-.72-.04-.36,0-.73,0-.36,0-.73,0-.36,0-.73,0-.36-.02-.72-.02-.36,0-.73,0-.36.03-.72.03-.36-.03-.72-.03-.36,0-.72,0-.36.03-.73.03-.36-.01-.73-.01-.36.03-.73.03-.36-.03-.72-.03-.36.03-.73.03-.36,0-.73,0-.36,0-.73,0-.36-.05-.73-.05-.36.05-.73.05-.36,0-.73,0-.36-.05-.73-.05-.36.04-.73.04-.37-.02-.73-.02-.37.01-.73.01-.37.02-.73.02-.37-.02-.73-.02"/>
      <path class="cls-1" d="M33.46,36.2c-.36,0-.36,0-.72,0s-.36,0-.73,0-.36,0-.73,0-.36,0-.72,0-.36,0-.72,0-.36-.05-.72-.05-.36,0-.72,0-.36,0-.72,0-.36,0-.72,0-.36.03-.72.03-.36-.03-.72-.03-.36.04-.73.04-.36-.02-.73-.02-.36,0-.73,0-.36.02-.72.02-.36-.05-.72-.05-.36.03-.72.03-.36-.03-.73-.03-.36.02-.73.02-.36.02-.73.02-.36,0-.73,0-.36-.03-.73-.03-.36,0-.73,0-.36,0-.72,0-.36,0-.72,0-.36.02-.72.02-.36,0-.73,0-.36.01-.73.01-.36-.01-.73-.01-.36,0-.72,0-.36,0-.73,0-.36-.04-.73-.04-.36.02-.73.02-.36.01-.73.01-.37.02-.73.02-.36-.01-.73-.01-.36-.01-.73-.01-.36.02-.73.02-.37-.02-.73-.02-.37,0-.73,0-.37.02-.73.02-.37-.01-.73-.01"/>
      <path class="cls-1" d="M81.44,32.39c-.36,0-.36-.01-.72-.01s-.36-.02-.72-.02-.36.02-.72.02-.36.03-.73.03-.36-.02-.72-.02-.36,0-.72,0-.36,0-.72,0-.36.02-.72.02-.36-.03-.72-.03-.36.02-.72.02-.36.01-.72.01-.36-.01-.72-.01-.36,0-.73,0-.36,0-.73,0-.36-.04-.73-.04-.36.01-.72.01-.36,0-.72,0-.36,0-.72,0-.36,0-.72,0-.36,0-.73,0-.36-.03-.73-.03-.36.03-.73.03-.36-.02-.72-.02-.36,0-.73,0-.36,0-.72,0-.36,0-.72,0-.36-.01-.72-.01-.36.02-.73.02-.36-.03-.73-.03-.36,0-.73,0-.36,0-.72,0-.36,0-.73,0-.36.05-.73.05-.36-.05-.73-.05-.36.02-.73.02-.36.02-.73.02-.36,0-.73,0-.36,0-.73,0-.36,0-.73,0-.37,0-.73,0-.37,0-.73,0-.37-.05-.73-.05-.37,0-.73,0"/>
      <path class="cls-1" d="M33.46,32.37c-.36,0-.36-.01-.72-.01s-.36.03-.73.03-.36.01-.73.01-.36,0-.72,0-.36-.04-.72-.04-.36.04-.72.04-.36-.03-.72-.03-.36,0-.72,0-.36.04-.72.04-.36-.06-.72-.06-.36.03-.72.03-.36,0-.73,0-.36.02-.73.02-.36,0-.73,0-.36-.01-.72-.01-.36.02-.72.02-.36-.06-.72-.06-.36.05-.73.05-.36,0-.73,0-.36-.06-.73-.06-.36.03-.73.03-.36-.03-.73-.03-.36.01-.73.01-.36-.02-.72-.02-.36.03-.72.03-.36,0-.72,0-.36.03-.73.03-.36,0-.73,0-.36-.05-.73-.05-.36,0-.72,0-.36.02-.73.02-.36,0-.73,0-.36.02-.73.02-.36,0-.73,0-.37,0-.73,0-.36,0-.73,0-.36-.02-.73-.02-.36.02-.73.02-.37.03-.73.03-.37-.02-.73-.02-.37,0-.73,0-.37,0-.73,0"/>
      <path class="cls-1" d="M81.44,28.58c-.36,0-.36-.02-.72-.02s-.36.03-.72.03-.36-.01-.72-.01-.36.02-.73.02-.36-.02-.72-.02-.36.01-.72.01-.36-.01-.72-.01-.36,0-.72,0-.36.02-.72.02-.36,0-.72,0-.36-.05-.72-.05-.36.05-.72.05-.36-.06-.73-.06-.36,0-.73,0-.36.02-.73.02-.36,0-.72,0-.36.02-.72.02-.36.02-.72.02-.36-.04-.72-.04-.36.03-.73.03-.36.01-.73.01-.36,0-.73,0-.36,0-.72,0-.36-.02-.73-.02-.36.03-.72.03-.36-.06-.72-.06-.36.04-.72.04-.36,0-.73,0-.36-.03-.73-.03-.36.04-.73.04-.36-.02-.72-.02-.36.01-.73.01-.36,0-.73,0-.36-.02-.73-.02-.36,0-.73,0-.36,0-.73,0-.36-.01-.73-.01-.36.03-.73.03-.36.01-.73.01-.37,0-.73,0-.37-.04-.73-.04-.37.04-.73.04-.37-.03-.73-.03"/>
      <path class="cls-1" d="M33.46,28.55c-.36,0-.36,0-.72,0s-.36,0-.73,0-.36,0-.73,0-.36-.01-.72-.01-.36.03-.72.03-.36,0-.72,0-.36.01-.72.01-.36-.05-.72-.05-.36.02-.72.02-.36.03-.72.03-.36-.05-.72-.05-.36.02-.73.02-.36.03-.73.03-.36-.05-.73-.05-.36.01-.72.01-.36-.01-.72-.01-.36.03-.72.03-.36,0-.73,0-.36-.01-.73-.01-.36.03-.73.03-.36,0-.73,0-.36-.02-.73-.02-.36.01-.73.01-.36-.01-.72-.01-.36,0-.72,0-.36.04-.72.04-.36-.01-.73-.01-.36-.05-.73-.05-.36.05-.73.05-.36-.04-.72-.04-.36,0-.73,0-.36.03-.73.03-.36,0-.73,0-.36,0-.73,0-.37,0-.73,0-.36-.02-.73-.02-.36.03-.73.03-.36-.01-.73-.01-.37.02-.73.02-.37-.02-.73-.02-.37.01-.73.01-.37-.01-.73-.01"/>
      <path class="cls-1" d="M81.44,24.77c-.36,0-.36-.02-.72-.02s-.36-.02-.72-.02-.36.03-.72.03-.36,0-.73,0-.36,0-.72,0-.36.03-.72.03-.36,0-.72,0-.36-.03-.72-.03-.36.04-.72.04-.36-.06-.72-.06-.36.03-.72.03-.36.03-.72.03-.36-.04-.73-.04-.36,0-.73,0-.36,0-.73,0-.36,0-.72,0-.36,0-.72,0-.36-.02-.72-.02-.36.02-.72.02-.36,0-.73,0-.36.01-.73.01-.36.02-.73.02-.36-.01-.72-.01-.36,0-.73,0-.36-.04-.72-.04-.36.05-.72.05-.36-.03-.72-.03-.36-.02-.73-.02-.36.03-.73.03-.36.02-.73.02-.36-.04-.72-.04-.36.03-.73.03-.36-.04-.73-.04-.36.04-.73.04-.36,0-.73,0-.36-.03-.73-.03-.36,0-.73,0-.36,0-.73,0-.36,0-.73,0-.37-.01-.73-.01-.37.03-.73.03-.37,0-.73,0-.37.01-.73.01"/>
      <path class="cls-1" d="M33.46,24.76c-.36,0-.36-.01-.72-.01s-.36.02-.73.02-.36-.04-.73-.04-.36,0-.72,0-.36.03-.72.03-.36-.01-.72-.01-.36.03-.72.03-.36-.03-.72-.03-.36.01-.72.01-.36-.01-.72-.01-.36,0-.72,0-.36,0-.73,0-.36,0-.73,0-.36-.02-.73-.02-.36.03-.72.03-.36-.04-.72-.04-.36,0-.72,0-.36.02-.73.02-.36-.02-.73-.02-.36,0-.73,0-.36.02-.73.02-.36-.02-.73-.02-.36.04-.73.04-.36-.03-.72-.03-.36,0-.72,0-.36.01-.72.01-.36,0-.73,0-.36,0-.73,0-.36-.02-.73-.02-.36.03-.72.03-.36-.03-.73-.03-.36.02-.73.02-.36-.02-.73-.02-.36,0-.73,0-.37.02-.73.02-.36-.02-.73-.02-.36-.02-.73-.02-.36.03-.73.03-.37,0-.73,0-.37,0-.73,0-.37.03-.73.03-.37,0-.73,0"/>
    </g>
  </g>
</svg>