<?xml version="1.0" encoding="UTF-8"?>
<svg id="Layer_1" data-name="Layer 1" xmlns="http://www.w3.org/2000/svg" viewBox="0 0 100 100">
  <g>
    <path d="M57.6,33.09c0-1.92-1.52-3.57-3.45-3.57s-3.57,1.64-3.57,3.57,1.65,3.36,3.57,3.36,3.45-1.44,3.45-3.36Z"/>
    <path d="M54.3,28.76c-1.8.29-2.64-1.74-2.45-3.43.18-1.64-.23-3.09-.89-4.47-.05-.19-.04-.3.08-.31,2.79.79,7.22,6.71,3.47,8.16-.05.02-.15.04-.2.05Z"/>
    <path d="M51.2,29.92c-1.07,1.48-3.1.63-4.16-.69-1.03-1.29-2.35-2.02-3.8-2.53-.17-.09-.24-.18-.16-.28,2.53-1.41,9.85-.36,8.22,3.32-.02.05-.08.13-.11.18Z"/>
    <path d="M49.82,32.94c.29,1.8-1.74,2.64-3.43,2.45-1.64-.18-3.09.23-4.47.89-.19.05-.3.04-.31-.08.79-2.79,6.71-7.22,8.16-3.47.02.05.04.15.05.2Z"/>
    <path d="M50.3,40.22c-1.29,1.03-2.03,2.34-2.53,3.79-.07.12-.13.19-.2.19-.01,0-.04-.01-.07-.03-.51-.91-.69-2.46-.56-3.98h0c.07-.68.19-1.33.38-1.94.46-1.45,1.29-2.55,2.5-2.55.3,0,.64.07,1,.23.06.03.14.09.17.12,1.49,1.07.64,3.1-.68,4.17Z"/>
    <path d="M54.01,37.43c1.8-.29,2.64,1.74,2.45,3.43-.18,1.64.23,3.09.89,4.47.05.19.04.3-.08.31-2.79-.79-7.22-6.71-3.47-8.16.05-.02.15-.04.2-.05Z"/>
    <path d="M57.12,36.26c1.07-1.48,3.1-.63,4.16.69,1.03,1.29,2.35,2.02,3.8,2.53.17.09.24.18.16.28-2.53,1.41-9.85.36-8.22-3.32.02-.05.08-.13.11-.18Z"/>
    <path d="M58.49,33.24c-.29-1.8,1.74-2.64,3.43-2.45,1.64.18,3.09-.23,4.47-.89.19-.05.3-.04.31.08-.79,2.79-6.71,7.22-8.16,3.47-.02-.05-.04-.15-.05-.2Z"/>
    <path d="M57.33,30.13c-1.48-1.07-.63-3.1.69-4.16,1.29-1.03,2.02-2.35,2.53-3.8.09-.17.18-.24.28-.16,1.41,2.53.36,9.85-3.32,8.22-.05-.02-.13-.08-.18-.11Z"/>
  </g>
  <path d="M44.28,72.2c.1-.16.19-.33.27-.48.16-.32.32-.62.46-.92,2.78-5.85.76-9.3-1.33-12.61l-9.8-14.08c-.36-.51-.58-1.14-.58-1.82,0-1.72,1.39-3.12,3.12-3.12,1.42,0,2.66.94,3,2.24.43,1.68,1.53,6.78,1.53,6.78.58-2.33,2.06-5.06,4.98-8.42,0,0,.03-.03.08-.07.07-.07.17-.14.15.07-.04.37-.07.72-.08,1.09,0,.2-.07.41-.2.56-6.54,8.01-4.07,11.89-1.5,16,1.33,2.11,2.7,4.26,3,6.93,0,0,1.21-3.77,1.75-4.98.45-1.02,1.55-1.65,2.73-1.65,1.74,0,3.13,1.4,3.13,3.12,0,.83-.34,1.59-.85,2.16l-7.75,9.09-.69.81-.5.58-.75.92-2.22,2.59c-.09.13-.21.27-.35.44-.2.24-1.7,1.98-1.7,1.98-.22.07-.46.01-.62-.15-.23-.23-.17-.55-.16-.57.34-.39.84-.98.98-1.12.23-.27.46-.54.69-.8l.02-.02c1.05-1.3,1.91-2.52,2.61-3.65l.56-.91Z"/>
</svg>