<?xml version="1.0" encoding="UTF-8"?>
<svg id="Layer_2" data-name="Layer 2" xmlns="http://www.w3.org/2000/svg" viewBox="0 0 84.48 12.49">
  <g id="Layer_1-2" data-name="Layer 1">
    <g>
      <g>
        <path d="M0,.1h2.9v.95h-1.81v1.2h1.71v.92h-1.71v1.42h1.81v.95H0V.1Z"/>
        <path d="M5.35.96c-.43,0-.67.27-.67.58,0,.37.21.5,1,.74.79.24,1.39.63,1.39,1.48,0,1.15-.83,1.86-1.89,1.86-.67,0-1.37-.27-1.81-.75l.63-.85c.36.37.72.57,1.16.57s.75-.26.75-.68-.33-.58-.97-.76c-.9-.25-1.42-.66-1.42-1.5C3.52.73,4.18,0,5.3,0c.54,0,1.15.2,1.55.63l-.54.8c-.28-.31-.61-.48-.95-.48Z"/>
        <path d="M9.32.96c-.43,0-.67.27-.67.58,0,.37.21.5,1,.74.79.24,1.39.63,1.39,1.48,0,1.15-.83,1.86-1.89,1.86-.67,0-1.37-.27-1.81-.75l.63-.85c.36.37.72.57,1.16.57s.75-.26.75-.68-.33-.58-.97-.76c-.9-.25-1.42-.66-1.42-1.5C7.49.73,8.15,0,9.27,0c.54,0,1.15.2,1.55.63l-.54.8c-.28-.31-.61-.48-.95-.48Z"/>
        <path d="M13.49,0h.7l2.27,5.53h-1.15l-.44-1.12h-2.17l-.47,1.12h-1.12L13.49,0ZM14.52,3.5l-.7-1.8h-.01l-.74,1.8h1.46Z"/>
        <path d="M17.33,2.99L15.42.1h1.31l1.14,1.86h.03l1.17-1.86h1.29l-1.93,2.89v2.54h-1.1v-2.54Z"/>
        <path d="M22.17.96c-.43,0-.67.27-.67.58,0,.37.21.5,1,.74.79.24,1.39.63,1.39,1.48,0,1.15-.83,1.86-1.89,1.86-.67,0-1.37-.27-1.81-.75l.63-.85c.36.37.72.57,1.16.57s.75-.26.75-.68-.33-.58-.97-.76c-.9-.25-1.42-.66-1.42-1.5C20.33.73,21,0,22.11,0c.54,0,1.15.2,1.55.63l-.54.8c-.28-.31-.61-.48-.95-.48Z"/>
      </g>
      <g>
        <path d="M17.91,6.93v5.43h-1.1v-5.43h1.1Z"/>
        <path d="M18.87,6.83h.7l3.24,3.63h.01v-3.53h1.06v5.53h-.67l-3.28-3.67h-.01v3.57h-1.06v-5.53Z"/>
      </g>
      <g>
        <path d="M26.54,12.32v-.19c.48-.12.69-.42.69-2.01V2.38c0-1.6-.21-1.89-.69-2.01v-.19h3.8c2.47,0,3.63.88,3.63,2.29,0,1.18-.78,2.26-2.52,2.6,2.78.19,3.8,1.68,3.82,3.35.03,1.86-1.31,3.9-5.44,3.9h-3.28ZM32.9,2.69c0-1.37-.92-2.29-2.73-2.29h-1.97v4.67h1.69c2.2,0,3.01-1.06,3.01-2.38ZM34.2,8.64c0-1.91-1.05-3.35-3.66-3.35h-2.33v5.27c0,1.25.16,1.51.9,1.51h.88c3.18,0,4.22-1.42,4.22-3.43Z"/>
        <path d="M36.75,12.32v-.19c.48-.12.69-.42.69-2.01V2.38c0-1.6-.21-1.89-.69-2.01v-.19h2.35v.19c-.48.12-.69.42-.69,2.01v9.02c0,.45.24.69.69.69h2.76c1.55,0,2.14-.42,2.66-1.53l.16.03-.1,1.72h-7.83Z"/>
        <path d="M44.21,6.27C44.21,2.59,46.65.04,50.31.04c2.92,0,6.08,2.01,6.08,6.26s-3.18,6.19-6.08,6.19-6.1-1.98-6.1-6.23ZM55.48,7.2c0-3.54-2.44-6.83-5.67-6.83-2.92,0-4.67,2.1-4.67,4.96,0,3.5,2.37,6.83,5.62,6.83,2.9,0,4.72-2.01,4.72-4.96Z"/>
        <path d="M58.12,6.27c0-3.68,2.44-6.23,6.1-6.23,2.92,0,6.08,2.01,6.08,6.26s-3.18,6.19-6.08,6.19-6.1-1.98-6.1-6.23ZM69.38,7.2c0-3.54-2.44-6.83-5.67-6.83-2.92,0-4.67,2.1-4.67,4.96,0,3.5,2.37,6.83,5.62,6.83,2.9,0,4.72-2.01,4.72-4.96Z"/>
        <path d="M72.18,12.13c.48-.12.69-.42.69-2.01V2.69c0-1.81-.36-2.19-.93-2.33v-.19h1.54l4.79,7.86,4.32-7.06.02-.03.47-.76h1.42v.19c-.57.14-.93.52-.93,2.33v7.42c0,1.6.21,1.89.69,2.01v.19h-2.35v-.19c.48-.12.69-.42.69-2.01V1.46l-4.63,7.56h-.24l-4.53-7.46v8.24c0,1.8.4,2.19,1.04,2.33v.19h-2.04v-.19Z"/>
      </g>
    </g>
  </g>
</svg>