<?xml version="1.0" encoding="UTF-8"?>
<svg id="Layer_2" data-name="Layer 2" xmlns="http://www.w3.org/2000/svg" viewBox="0 0 47.64 57.89">
  <g id="Layer_1-2" data-name="Layer 1">
    <g>
      <path d="M25.78,52.92l-2.18,2.55c-.09.12-.21.27-.34.43-.2.24-1.67,1.95-1.67,1.95-.22.07-.45.01-.61-.14-.23-.23-.17-.54-.15-.56.33-.38.83-.96.96-1.1.23-.27.45-.53.68-.78l.02-.02c1.03-1.28,1.88-2.48,2.57-3.59.31.34.56.77.72,1.27Z"/>
      <path d="M38.7,12.33c0-1.89-1.5-3.51-3.39-3.51s-3.51,1.62-3.51,3.51,1.62,3.3,3.51,3.3,3.39-1.41,3.39-3.3Z"/>
      <path d="M35.46,8.07c-1.77.29-2.59-1.71-2.41-3.37.18-1.61-.23-3.04-.88-4.4-.05-.18-.04-.29.08-.3,2.74.78,7.1,6.59,3.41,8.02-.05.02-.15.04-.2.05Z"/>
      <path d="M32.41,9.21c-1.05,1.45-3.05.62-4.09-.67-1.01-1.27-2.31-1.99-3.73-2.49-.17-.09-.23-.18-.16-.27,2.49-1.39,9.68-.36,8.08,3.26-.02.05-.08.13-.11.17Z"/>
      <path d="M31.06,12.18c.29,1.77-1.71,2.59-3.37,2.41-1.61-.18-3.04.23-4.4.88-.18.05-.29.04-.3-.08.78-2.74,6.59-7.1,8.02-3.41.02.05.04.15.05.2Z"/>
      <path d="M31.53,19.33c-1.27,1.01-1.99,2.3-2.49,3.73-.07.11-.13.18-.2.18-.01,0-.04-.01-.07-.03-.5-.9-.68-2.42-.55-3.91h0c.07-.67.18-1.31.37-1.91.46-1.42,1.27-2.5,2.46-2.5.3,0,.63.07.98.23.06.03.14.09.17.11,1.46,1.05.63,3.04-.67,4.09Z"/>
      <path d="M35.17,16.58c1.77-.29,2.59,1.71,2.41,3.37-.18,1.61.23,3.04.88,4.4.05.18.04.29-.08.3-2.74-.78-7.1-6.59-3.41-8.02.05-.02.15-.04.2-.05Z"/>
      <path d="M38.22,15.44c1.05-1.45,3.05-.62,4.09.67,1.01,1.27,2.31,1.99,3.73,2.49.17.09.23.18.16.27-2.49,1.39-9.68.36-8.08-3.26.02-.05.08-.13.11-.17Z"/>
      <path d="M39.57,12.47c-.29-1.77,1.71-2.59,3.37-2.41,1.61.18,3.04-.23,4.4-.88.18-.05.29-.04.3.08-.78,2.74-6.59,7.1-8.02,3.41-.02-.05-.04-.15-.05-.2Z"/>
      <path d="M38.43,9.42c-1.45-1.05-.62-3.05.67-4.09,1.27-1.01,1.99-2.31,2.49-3.73.09-.17.18-.23.27-.16,1.39,2.49.36,9.68-3.26,8.08-.05-.02-.13-.08-.17-.11Z"/>
    </g>
    <g>
      <path d="M0,41.45h2.9v.95h-1.81v1.2h1.71v.92h-1.71v1.42h1.81v.95H0v-5.43Z"/>
      <path d="M5.35,42.31c-.43,0-.67.27-.67.58,0,.37.21.5,1,.74.79.24,1.39.63,1.39,1.48,0,1.15-.83,1.86-1.89,1.86-.67,0-1.37-.27-1.81-.75l.63-.85c.36.37.72.57,1.16.57s.75-.26.75-.68-.33-.58-.97-.76c-.9-.25-1.42-.66-1.42-1.5,0-.92.67-1.64,1.78-1.64.54,0,1.15.2,1.55.63l-.54.8c-.28-.31-.61-.48-.95-.48Z"/>
      <path d="M9.32,42.31c-.43,0-.67.27-.67.58,0,.37.21.5,1,.74.79.24,1.39.63,1.39,1.48,0,1.15-.83,1.86-1.89,1.86-.67,0-1.37-.27-1.81-.75l.63-.85c.36.37.72.57,1.16.57s.75-.26.75-.68-.33-.58-.97-.76c-.9-.25-1.42-.66-1.42-1.5,0-.92.67-1.64,1.78-1.64.54,0,1.15.2,1.55.63l-.54.8c-.28-.31-.61-.48-.95-.48Z"/>
      <path d="M13.49,41.35h.7l2.27,5.53h-1.15l-.44-1.12h-2.17l-.47,1.12h-1.12l2.39-5.53ZM14.52,44.85l-.7-1.8h-.01l-.74,1.8h1.46Z"/>
      <path d="M17.33,44.34l-1.92-2.89h1.31l1.14,1.86h.03l1.17-1.86h1.29l-1.93,2.89v2.54h-1.1v-2.54Z"/>
      <path d="M22.17,42.31c-.43,0-.67.27-.67.58,0,.37.21.5,1,.74.79.24,1.39.63,1.39,1.48,0,1.15-.83,1.86-1.89,1.86-.67,0-1.37-.27-1.81-.75l.63-.85c.36.37.72.57,1.16.57s.75-.26.75-.68-.33-.58-.97-.76c-.9-.25-1.42-.66-1.42-1.5,0-.92.67-1.64,1.78-1.64.54,0,1.15.2,1.55.63l-.54.8c-.28-.31-.61-.48-.95-.48Z"/>
      <path d="M1.1,50.09v5.43H0v-5.43h1.1Z"/>
      <path d="M2.06,49.99h.7l3.24,3.63h.01v-3.53h1.06v5.53h-.67l-3.28-3.67h-.01v3.57h-1.06v-5.53Z"/>
    </g>
    <g>
      <path d="M9.67,57.06v-.11c.29-.07.41-.25.41-1.2v-4.62c0-.95-.12-1.13-.41-1.2v-.11h2.27c1.47,0,2.17.53,2.17,1.37,0,.7-.46,1.35-1.51,1.55,1.66.11,2.27,1,2.28,2,.02,1.11-.78,2.33-3.25,2.33h-1.96ZM13.47,51.31c0-.82-.55-1.37-1.63-1.37h-1.18v2.79h1.01c1.31,0,1.79-.63,1.79-1.42ZM14.24,54.86c0-1.14-.63-2-2.19-2h-1.39v3.15c0,.75.09.9.54.9h.53c1.9,0,2.52-.85,2.52-2.05Z"/>
      <path d="M23.87,49.73c-2.19,0-3.64,1.52-3.64,3.72,0,1.35.53,2.31,1.29,2.91.13-.15.26-.3.39-.44-.7-.77-1.13-1.88-1.13-3.03,0-1.71,1.05-2.97,2.79-2.97.78,0,1.48.32,2.04.85.1-.16.19-.32.27-.47-.61-.38-1.32-.57-2.01-.57ZM27,51.46l-.49.57c.28.6.44,1.28.44,1.98,0,1.76-1.08,2.96-2.81,2.96-.53,0-1.03-.15-1.46-.41-.09.1-.18.21-.27.32.47.2.97.29,1.46.29,1.73,0,3.63-1.1,3.63-3.7,0-.8-.19-1.47-.5-2.01Z"/>
      <path d="M36.14,39.6c0,.82-.33,1.56-.84,2.12l-7.62,8.93-.68.8-.49.57c-.22-.49-.53-.92-.9-1.26.1-.16.19-.32.27-.47.16-.31.31-.61.45-.9,2.73-5.75.75-9.14-1.31-12.39l-9.63-13.84c-.35-.5-.57-1.12-.57-1.79,0-1.69,1.37-3.07,3.07-3.07,1.4,0,2.61.92,2.95,2.2.42,1.65,1.5,6.66,1.5,6.66.57-2.29,2.02-4.97,4.89-8.28,0,0,.03-.03.08-.07.07-.07.17-.14.15.07-.04.36-.07.71-.08,1.07,0,.2-.07.4-.2.55-6.43,7.87-4,11.69-1.47,15.73,1.31,2.07,2.65,4.19,2.95,6.81,0,0,1.19-3.71,1.72-4.89.44-1,1.52-1.62,2.68-1.62,1.71,0,3.08,1.38,3.08,3.07Z"/>
      <path d="M28.53,53.44c0-2.2,1.45-3.72,3.64-3.72,1.74,0,3.63,1.2,3.63,3.74s-1.9,3.7-3.63,3.7-3.64-1.18-3.64-3.72ZM35.25,54c0-2.11-1.45-4.08-3.38-4.08-1.74,0-2.79,1.25-2.79,2.96,0,2.09,1.41,4.08,3.35,4.08,1.73,0,2.82-1.2,2.82-2.96Z"/>
      <path d="M36.92,56.94c.29-.07.41-.25.41-1.2v-4.43c0-1.08-.22-1.31-.56-1.39v-.11h.92l2.86,4.69,2.58-4.22v-.02s.29-.46.29-.46h.85v.11c-.34.08-.56.31-.56,1.39v4.43c0,.95.12,1.13.41,1.2v.11h-1.4v-.11c.29-.07.41-.25.41-1.2v-5.17l-2.76,4.52h-.14l-2.7-4.46v4.92c0,1.08.24,1.3.62,1.39v.11h-1.22v-.11Z"/>
      <path d="M15.77,57.06v-.11c.29-.07.41-.25.41-1.2v-4.62c0-.95-.12-1.13-.41-1.2v-.11h1.4v.11c-.29.07-.41.25-.41,1.2v5.39c0,.27.14.41.41.41h1.65c.93,0,1.28-.25,1.59-.91l.09.02-.06,1.03h-4.67Z"/>
    </g>
  </g>
</svg>