<?xml version="1.0" encoding="UTF-8"?>
<svg id="Layer_2" data-name="Layer 2" xmlns="http://www.w3.org/2000/svg" viewBox="0 0 25.73 19.19">
  <g id="Layer_1-2" data-name="Layer 1">
    <g>
      <g>
        <path d="M1.84.1h2.9v.95h-1.81v1.2h1.71v.92h-1.71v1.42h1.81v.95H1.84V.1Z"/>
        <path d="M7.19.96c-.43,0-.67.27-.67.58,0,.37.21.5,1,.74.79.24,1.39.63,1.39,1.48,0,1.15-.83,1.86-1.89,1.86-.67,0-1.37-.27-1.81-.75l.63-.85c.36.37.72.57,1.16.57s.75-.26.75-.68-.33-.58-.97-.76c-.9-.25-1.42-.66-1.42-1.5C5.35.73,6.02,0,7.13,0c.54,0,1.15.2,1.55.63l-.54.8c-.28-.31-.61-.48-.95-.48Z"/>
        <path d="M11.16.96c-.43,0-.67.27-.67.58,0,.37.21.5,1,.74.79.24,1.39.63,1.39,1.48,0,1.15-.83,1.86-1.89,1.86-.67,0-1.37-.27-1.81-.75l.63-.85c.36.37.72.57,1.16.57s.75-.26.75-.68-.33-.58-.97-.76c-.9-.25-1.42-.66-1.42-1.5C9.32.73,9.99,0,11.1,0c.54,0,1.15.2,1.55.63l-.54.8c-.28-.31-.61-.48-.95-.48Z"/>
        <path d="M15.33,0h.7l2.27,5.53h-1.15l-.44-1.12h-2.17l-.47,1.12h-1.12L15.33,0ZM16.36,3.5l-.7-1.8h-.01l-.74,1.8h1.46Z"/>
        <path d="M19.17,2.99L17.26.1h1.31l1.14,1.86h.03l1.17-1.86h1.29l-1.93,2.89v2.54h-1.1v-2.54Z"/>
        <path d="M24.01.96c-.43,0-.67.27-.67.58,0,.37.21.5,1,.74.79.24,1.39.63,1.39,1.48,0,1.15-.83,1.86-1.89,1.86-.67,0-1.37-.27-1.81-.75l.63-.85c.36.37.72.57,1.16.57s.75-.26.75-.68-.33-.58-.97-.76c-.9-.25-1.42-.66-1.42-1.5C22.17.73,22.84,0,23.95,0c.54,0,1.15.2,1.55.63l-.54.8c-.28-.31-.61-.48-.95-.48Z"/>
      </g>
      <g>
        <path d="M19.75,6.93v5.43h-1.1v-5.43h1.1Z"/>
        <path d="M20.71,6.83h.7l3.24,3.63h.01v-3.53h1.06v5.53h-.67l-3.28-3.67h-.01v3.57h-1.06v-5.53Z"/>
      </g>
      <g>
        <path d="M0,19.11v-.08c.21-.05.31-.19.31-.89v-3.44c0-.71-.09-.84-.31-.89v-.08h1.69c1.1,0,1.61.39,1.61,1.02,0,.52-.35,1-1.12,1.16,1.24.09,1.69.75,1.7,1.49.02.82-.58,1.73-2.42,1.73H0ZM2.82,14.84c0-.61-.41-1.02-1.21-1.02h-.87v2.07h.75c.97,0,1.34-.47,1.34-1.05ZM3.4,17.48c0-.85-.47-1.49-1.63-1.49H.74v2.34c0,.55.07.67.4.67h.39c1.41,0,1.87-.63,1.87-1.53Z"/>
        <path d="M4.53,19.11v-.08c.21-.05.31-.19.31-.89v-3.44c0-.71-.09-.84-.31-.89v-.08h1.04v.08c-.21.05-.31.19-.31.89v4.01c0,.2.11.31.31.31h1.23c.69,0,.95-.19,1.18-.68l.07.02-.05.76h-3.48Z"/>
        <path d="M7.85,16.43c0-1.63,1.08-2.77,2.71-2.77,1.3,0,2.7.89,2.7,2.78s-1.41,2.75-2.7,2.75-2.71-.88-2.71-2.77ZM12.85,16.84c0-1.57-1.08-3.04-2.52-3.04-1.3,0-2.07.93-2.07,2.2,0,1.56,1.05,3.04,2.49,3.04,1.29,0,2.1-.89,2.1-2.2Z"/>
        <path d="M14.02,16.43c0-1.63,1.08-2.77,2.71-2.77,1.3,0,2.7.89,2.7,2.78s-1.41,2.75-2.7,2.75-2.71-.88-2.71-2.77ZM19.02,16.84c0-1.57-1.08-3.04-2.52-3.04-1.3,0-2.07.93-2.07,2.2,0,1.56,1.05,3.04,2.49,3.04,1.29,0,2.1-.89,2.1-2.2Z"/>
        <path d="M20.26,19.03c.21-.05.31-.19.31-.89v-3.3c0-.8-.16-.97-.41-1.03v-.08h.68l2.13,3.49,1.92-3.14h0s.21-.35.21-.35h.63v.08c-.25.06-.41.23-.41,1.03v3.3c0,.71.09.84.31.89v.08h-1.04v-.08c.21-.05.31-.19.31-.89v-3.84l-2.06,3.36h-.11l-2.01-3.31v3.66c0,.8.18.97.46,1.03v.08h-.91v-.08Z"/>
      </g>
    </g>
  </g>
</svg>