<?xml version="1.0" encoding="UTF-8"?>
<svg id="Layer_2" data-name="Layer 2" xmlns="http://www.w3.org/2000/svg" viewBox="0 0 38.14 58.9">
  <defs>
    <style>
      .cls-1 {
        fill: #fff;
      }
    </style>
  </defs>
  <g id="Layer_1-2" data-name="Layer 1">
    <g>
      <path d="M24.49,50.68c-1.33-1.69-1.6-5.85-1.6-5.85,0,0,0-.09,0-.12-.04-.18-.51-.03-.72-.05-.29.02-.62,0-.91-.03-.1,0-.39.02-.6.03-.21-.02-.5-.04-.6-.03-.29.04-.62.05-.91.03-.21.02-.68-.13-.72.05,0,.03,0,.12,0,.12,0,0-.28,4.17-1.6,5.85-.31.33-.3.75-.05,1.1,1.04,1.81,2.16,3.72,2.95,5.68.09.23.22.56.32.8.08.21.15.51.37.64.03.02.01-.04.03-.1.06-.38,0-.94.04-1.27.09-1.85.08-3.77-.2-5.64-.09-.53-.21-1.06-.42-1.54.08-.03.51-.02.79-.03.28,0,.71,0,.79.03-.21.47-.33,1.01-.42,1.54-.28,1.87-.29,3.79-.2,5.64.05.33-.01.89.04,1.27.02.06,0,.12.03.1.22-.13.29-.42.37-.64.09-.24.23-.57.32-.8.8-1.97,1.92-3.87,2.95-5.68.25-.35.26-.77-.05-1.1Z"/>
      <path d="M37.01,22.99c-.49,0-.91.02-1.42.08l-.96.12c-4.8.6-9.01,4.02-11.29,8.62-.11.22-.29.65-.45,1.05-.08.19-.35.13-.35-.07v-10.5c.27,0,.53.02.75.13l.03.02c.21.19.4.59.58.85.78,1.1,2.38,1.72,3.62,1.03,1.34-.82,1.15-2.75.42-3.93-.29-.59.35-.23.6-.14,3.39,1.54,5.42-2.07,2.35-4.13-.29-.2-.37-.34.05-.38,4.12-.42,4.02-5.53-.41-5.12-.53.03-.4-.1-.04-.34.89-.58,1.81-1.45,1.91-2.58.11-1.7-1.57-2.6-3.06-1.98-.44.15-.82.4-1.2.64-.12.07-.23.12-.26.07-.05-.06.07-.3.11-.4.34-.73.66-1.52.57-2.33-.24-1.93-2.1-3.04-3.75-1.72-.64.48-1,1.23-1.3,1.92-.05.09-.1.16-.14.16-.11.01-.11-.37-.1-.65.02-.68-.01-1.41-.3-2.05-.55-1.28-2.1-1.69-3.29-1.07-1.26.66-1.39,2.26-1.38,3.54-.05.45-.28-.05-.36-.25-.18-.41-.39-.79-.66-1.13-.92-1.33-3.06-1.42-3.87.06-.57,1.08-.32,2.38.15,3.45.07.17.13.33.08.37-.06.08-.35-.1-.58-.24-.78-.48-1.76-.73-2.65-.46-1.9.66-1.56,3.32-.08,4.28.15.13.63.42.61.58,0,.04-.06.07-.13.08-.5.03-1.03.04-1.52.22-2.41.71-2.02,4.06.26,4.67.31.11.58.16.92.22.22.04.44.08.45.16.02.07-.13.16-.32.27-3.33,2.18-.7,5.79,2.52,4.06.19-.09.42-.18.5-.09.05.05.05.15.03.26-.23.75-.59,1.54-.51,2.33.03,1.23,1.25,2.19,2.46,1.95,1.16-.16,1.96-1.04,2.59-1.99.07-.09.14-.17.23-.22.13-.07.28-.08.43-.08l.17.16v10.51c0,.19-.25.26-.34.09-1.29-2.39-3.57-5.41-5.53-6.97-1.69-1.35-3.61-2.17-5.75-2.51-.68-.11-1.35-.24-2.01-.19-.67.04-1.26-.11-2.22,0l-1.2.12-1.47.23c-.1.02-.52.16-.46.25,1.46,2.58,3.6,5,6.05,6.84,2.9,2.17,6.22,3.46,9.79,4.01l.8.12.32.06s.1-.01.17-.13c-.97-2.28-3.04-4.07-5.31-4.95-.09.05-.24-.02-.2-.19,2.95.6,5.59,3.34,6.4,6.13.29.98.3,1.97.36,3.01.05,1.31.25,2.78-.89,3.81-.59.53-.14,1.58.64,1.57.69,0,4.54-.04,5.16-.04.72.02,1.25-.85.75-1.46-.12-.15-.21-.25-.37-.34-.24-.13-.42-.36-.48-.63-.17-.63-.29-1.25-.36-1.87-.09-.75,0-1.51.21-2.24,1.03-3.4,3.48-6.85,7.1-8-.18.38-.56.41-.9.6-2.28,1.32-4.01,3.37-4.96,5.79-.08.21-.19.4-.16.59.01.09.1.15.2.13l1.69-.51,2.12-.87c1.81-.93,3.51-1.95,5.01-3.39,1.96-1.89,3.3-4.1,4.26-6.56l.74-2.3c-.2-.35-.71-.18-1.13-.17Z"/>
      <path class="cls-1" d="M25.87,11.76c-.26-.93-.67-1.79-1.32-2.42s-1.52-1.14-2.42-1.37-1.81-.08-2.74.18-1.76.65-2.39,1.3-1.15,1.48-1.39,2.38-.23,1.83.02,2.76.81,1.69,1.46,2.32,1.43,1.23,2.33,1.46,1.85.24,2.78-.02,1.65-.88,2.29-1.52,1.21-1.42,1.45-2.32.18-1.81-.08-2.75Z"/>
      <path d="M17.24,16.11c.83.99,1.92,1.64,3.11,1.75s2.38-.33,3.37-1.15,1.58-1.92,1.69-3.11-.26-2.38-1.08-3.38-1.93-1.58-3.12-1.69-2.42.23-3.41,1.05-1.56,1.97-1.67,3.16.29,2.38,1.11,3.37Z"/>
    </g>
  </g>
</svg>