<?xml version="1.0" encoding="UTF-8"?>
<svg xmlns="http://www.w3.org/2000/svg" viewBox="0 0 100 32">
  <g id="Layer_1" data-name="Layer 1">
    <g>
      <path d="M20.87,19.46c-.07,0-.15-.02-.21-.07-.16-.12-.19-.34-.07-.5.06-.09.13-.19.21-.3.6-.86,1.52-2.15,2.56-2.22.9-.06,1.62.86,2.18,1.59.16.21.31.41.44.53.14.14.13.36,0,.5-.14.14-.36.13-.5,0-.15-.16-.32-.37-.49-.59-.44-.57-1.04-1.35-1.57-1.32-.71.05-1.57,1.26-2.03,1.92-.08.12-.16.22-.22.31-.07.09-.18.14-.29.14Z"/>
      <path d="M22.2,27.52c-.13,0-.25-.07-.31-.19-1.19-2.29-.83-4.86.93-6.72,1.45-1.53,2.94-2.47,4.56-2.87.41-.1.71-.07.89.08.1.08.21.17.6,2.17.04.19-.09.38-.28.42-.19.04-.38-.09-.42-.28-.13-.66-.3-1.43-.39-1.73-.06,0-.14.01-.24.04-1.49.37-2.86,1.24-4.22,2.67-1.54,1.63-1.85,3.9-.81,5.91.09.17.02.39-.15.48-.05.03-.11.04-.16.04ZM27.74,18.27h0Z"/>
      <path d="M23.03,21.24c-.08,0-.16-.03-.22-.08l-3.52-2.82c-.13-.06-.23-.08-.3-.04-.19.12-.41.69-.39,1.92,0,.2-.15.36-.35.36,0,0,0,0,0,0-.19,0-.35-.15-.35-.35-.02-1.37.22-2.22.72-2.53.2-.13.55-.22,1.03.03l.06.04,3.54,2.84c.15.12.18.35.05.5-.07.09-.17.13-.28.13Z"/>
      <path d="M24.4,28.97c-.17,0-.32-.13-.35-.3-.03-.19.1-.37.3-.4,2.02-.31,3.88-1.69,4.62-3.44.37-.89,1.15-2.51,1.45-3.14-.26-.18-.76-.44-1.43-.38-3.35.28-4.62,3.45-5.07,5.31l-.04.16c-.06.26-.12.54-.28.77-.7,1.01-2.09,1.38-3.24.84-1.54-.72-2.78-2.2-3.39-4.07-.32-.96-.63-1.65-1.3-2.33l-.26-.27.28-.25c1.86-1.62,5.22.18,5.63.49.16.12.19.34.07.5-.12.16-.34.19-.5.07-.45-.34-2.98-1.54-4.43-.73.58.68.89,1.4,1.19,2.3.55,1.68,1.66,3.01,3.02,3.65.84.39,1.85.13,2.36-.6.08-.12.13-.32.17-.52l.04-.17c.85-3.48,2.93-5.62,5.7-5.85,1.32-.11,2.15.71,2.19.74l.18.18-.11.23s-1.11,2.28-1.56,3.35c-.84,1.97-2.91,3.52-5.16,3.86-.02,0-.04,0-.05,0Z"/>
    </g>
  </g>
  <g id="Color_Kit" data-name="Color Kit">
    <g>
      <path d="M6.47,3.03h6.41v2.1h-3.99v2.64h3.77v2.02h-3.77v3.13h3.99v2.1h-6.41V3.03Z"/>
      <path d="M13.64,13.93l1.03-1.54c.48.54,1.25.97,2.06.97.6,0,1.08-.27,1.08-.76,0-.46-.25-.62-1.41-.84-1.41-.3-2.11-1.07-2.11-2.27,0-1.43,1.14-2.53,2.93-2.53,1.14,0,1.98.35,2.53.76l-.76,1.51c-.51-.4-1.04-.61-1.58-.61-.47,0-.87.17-.87.57s.27.59,1.22.81c1.57.36,2.28,1.03,2.28,2.32,0,1.64-1.16,2.85-3.23,2.85-1.43,0-2.6-.62-3.17-1.24Z"/>
      <path d="M20.6,13.93l1.03-1.54c.48.54,1.25.97,2.06.97.6,0,1.08-.27,1.08-.76,0-.46-.25-.62-1.41-.84-1.41-.3-2.11-1.07-2.11-2.27,0-1.43,1.14-2.53,2.93-2.53,1.14,0,1.98.35,2.53.76l-.76,1.51c-.51-.4-1.04-.61-1.58-.61-.47,0-.87.17-.87.57s.27.59,1.22.81c1.57.36,2.28,1.03,2.28,2.32,0,1.64-1.16,2.85-3.23,2.85-1.43,0-2.6-.62-3.17-1.24Z"/>
      <path d="M27.83,11.07c0-2.35,1.63-4.12,3.78-4.12,1.06,0,2.07.44,2.6,1.16h.02v-1h2.34v7.9h-2.34v-.92h-.02c-.59.7-1.54,1.08-2.61,1.08-2.25,0-3.77-1.65-3.77-4.1ZM34.37,11.03c0-1.29-.89-2.12-2.09-2.12s-2.07.88-2.07,2.15.81,2.16,2.01,2.16c1.3,0,2.15-.91,2.15-2.2Z"/>
      <path d="M41.03,14.52l-3.74-7.41h2.64l2.28,4.94h.03l2.23-4.94h2.52l-5.73,12.04h-2.61l2.38-4.63Z"/>
      <path d="M46.66,13.93l1.03-1.54c.48.54,1.25.97,2.06.97.6,0,1.08-.27,1.08-.76,0-.46-.25-.62-1.41-.84-1.41-.3-2.11-1.07-2.11-2.27,0-1.43,1.14-2.53,2.93-2.53,1.14,0,1.98.35,2.53.76l-.76,1.51c-.51-.4-1.04-.61-1.58-.61-.47,0-.87.17-.87.57s.27.59,1.22.81c1.57.36,2.28,1.03,2.28,2.32,0,1.64-1.16,2.85-3.23,2.85-1.43,0-2.6-.62-3.17-1.24Z"/>
      <g>
        <path d="M36.79,21.07l-.97,7.9h-2.34l.97-7.9h2.34ZM34.56,18.46c0-.86.63-1.51,1.47-1.51.74,0,1.24.46,1.24,1.13,0,.88-.62,1.49-1.47,1.49-.76,0-1.24-.43-1.24-1.11Z"/>
        <path d="M38.48,21.07h2.34l-.14,1.05h.02c.68-.79,1.55-1.21,2.58-1.21,1.76,0,2.76,1.19,2.52,3.13l-.59,4.93h-2.34l.55-4.39c.14-1.18-.38-1.7-1.25-1.7-.93,0-1.65.64-1.77,1.65l-.54,4.44h-2.34l.97-7.9Z"/>
      </g>
      <g>
        <path d="M48.44,16.82h3.66c2.25,0,3.63,1.18,3.63,3.07,0,1.21-.47,1.99-1.33,2.45v.05c1.51.22,2.49,1.43,2.49,3.02,0,2.08-1.58,3.4-4.1,3.4h-4.34v-11.99ZM51.9,21.79c.95,0,1.55-.59,1.55-1.53,0-.84-.57-1.43-1.47-1.43h-1.12v2.96h1.04ZM52.38,26.86c1.25,0,1.91-.59,1.91-1.69,0-.97-.73-1.57-1.79-1.57h-1.65v3.26h1.52Z"/>
        <path d="M60.64,15.62v13.2h-2.33v-13.2h2.33Z"/>
        <path d="M62.03,24.84c0-2.4,1.85-4.09,4.45-4.09s4.37,1.57,4.37,4.04-1.85,4.18-4.44,4.18-4.39-1.64-4.39-4.13ZM68.49,24.87c0-1.27-.84-2.08-2.04-2.08s-2.06.8-2.06,2.1.87,2.12,2.06,2.12,2.04-.85,2.04-2.13Z"/>
        <path d="M71.69,24.84c0-2.4,1.85-4.09,4.45-4.09s4.37,1.57,4.37,4.04-1.85,4.18-4.43,4.18-4.39-1.64-4.39-4.13ZM78.16,24.87c0-1.27-.84-2.08-2.04-2.08s-2.06.8-2.06,2.1.87,2.12,2.06,2.12,2.04-.85,2.04-2.13Z"/>
        <path d="M81.82,20.91h2.33v.97h.03c.43-.61,1.13-1.13,2.22-1.13s1.91.52,2.31,1.33c.6-.89,1.5-1.33,2.53-1.33,1.68,0,2.64,1.11,2.64,2.78v5.28h-2.33v-4.56c0-1.08-.43-1.59-1.25-1.59-.87,0-1.3.52-1.3,1.48v4.67h-2.33v-4.56c0-1.02-.36-1.59-1.22-1.59s-1.31.59-1.31,1.57v4.58h-2.33v-7.9Z"/>
      </g>
    </g>
  </g>
</svg>