<?xml version="1.0" encoding="UTF-8"?>
<svg id="Layer_2" data-name="Layer 2" xmlns="http://www.w3.org/2000/svg" viewBox="0 0 24.6 17.17">
  <defs>
    <style>
      .cls-1 {
        fill: none;
        stroke: #000;
        stroke-linecap: round;
        stroke-miterlimit: 10;
        stroke-width: .19px;
      }
    </style>
  </defs>
  <g id="Color_Kit" data-name="Color Kit">
    <g>
      <g>
        <path d="M2.79,5.13c-.47,0-1.23,0-1.93.02.02-.41.04-.91.04-1.49V1.61c0-.58-.02-1.08-.04-1.49.7.02,1.45.02,1.89.02.3,0,.85,0,1.42-.04.07,0,.09.01.07.08l-.1.42s-.03.04-.11.04c-.67-.06-1.14-.09-1.68-.09-.24,0-.36.08-.37.27-.01.31-.02.58-.02.87v.46c0,.19.09.22.24.22h.13c.57,0,.93,0,1.33-.06.06,0,.09.03.06.09l-.14.39c-.02.08-.06.08-.16.07-.27-.02-.77-.05-1.15-.05h-.06c-.14,0-.24.04-.24.22v.53c0,.29,0,.55.02.86.01.19.12.27.37.27.58,0,1.17-.06,1.84-.12.08,0,.11,0,.11.04l-.09.45c-.01.06-.01.09-.07.08-.57-.04-.93-.04-1.34-.04Z"/>
        <path d="M4.56,4.77l.09-.32c.2-.76.34.32,1.68.32.6,0,.78-.27.78-.61,0-.31-.13-.43-.72-.8l-.52-.35c-.85-.56-1.2-.87-1.2-1.47,0-.93.93-1.53,1.79-1.53.55,0,1.26.24,1.21.42l-.09.26c-.24.76-.22-.16-1.42-.16-.47,0-.7.24-.7.58,0,.32.2.5.67.8l.62.4c.81.53,1.13.86,1.13,1.42,0,.92-.89,1.55-1.84,1.55-.6,0-1.54-.24-1.46-.5Z"/>
        <path d="M8.1,4.77l.09-.32c.2-.76.34.32,1.68.32.59,0,.78-.27.78-.61,0-.31-.13-.43-.72-.8l-.52-.35c-.85-.56-1.21-.87-1.21-1.47,0-.93.93-1.53,1.79-1.53.55,0,1.26.24,1.21.42l-.09.26c-.24.76-.22-.16-1.42-.16-.47,0-.7.24-.7.58,0,.32.2.5.67.8l.62.4c.81.53,1.13.86,1.13,1.42,0,.92-.89,1.55-1.84,1.55-.6,0-1.53-.24-1.46-.5Z"/>
        <path d="M11.86,4.08l1.19-2.75c.21-.48.34-.88.37-1.15,0-.06.51-.15.53-.1l1.71,4.01c.16.36.31.7.49,1.06h-1.12l-.48-1.07c-.09-.2-.14-.21-.34-.21h-1.41c-.22,0-.29,0-.37.21l-.37,1.07h-.69c.17-.36.34-.71.49-1.07ZM12.92,3.41h1.15c.09,0,.19-.02.14-.12l-.72-1.74-.72,1.74c-.04.1.05.12.14.12Z"/>
        <path d="M17.44,3.67v-.75L15.64.12h1.23c.27.47.77,1.25,1.1,1.76l.25.42.29-.42c.34-.49.83-1.29,1.07-1.76h.73l-1.81,2.76v.79c0,.58.03,1.08.05,1.49h-1.15c.02-.41.05-.91.05-1.49Z"/>
        <path d="M20.43,4.77l.09-.32c.2-.76.34.32,1.68.32.6,0,.78-.27.78-.61,0-.31-.13-.43-.72-.8l-.52-.35c-.85-.56-1.2-.87-1.2-1.47,0-.93.93-1.53,1.79-1.53.55,0,1.26.24,1.21.42l-.09.26c-.24.76-.22-.16-1.42-.16-.47,0-.7.24-.7.58,0,.32.2.5.67.8l.62.4c.81.53,1.13.86,1.13,1.42,0,.92-.89,1.55-1.84,1.55-.6,0-1.54-.24-1.46-.5Z"/>
      </g>
      <g>
        <path d="M0,17.05c.02-.41.04-.91.04-1.49v-2.06c0-.58-.02-1.08-.04-1.49.7.02,1.21-.01,1.82-.01.9,0,1.63.38,1.65,1.17.01.55-.33.97-.92,1.09v.05c.7,0,1.35.47,1.35,1.28,0,.92-.88,1.48-2.03,1.48-.77,0-1.17-.04-1.87-.01ZM1.79,14.16c.43,0,.59-.3.59-.76,0-.59-.3-.99-.87-.99-.29,0-.41.08-.41.42v1.33h.69ZM1.79,16.65c.46,0,.99-.14.99-.87,0-.63-.37-1.2-1-1.2h-.69v1.55c0,.32.17.53.7.53Z"/>
        <path d="M6.29,17.03c-.47,0-1.23,0-1.93.02.02-.41.04-.91.04-1.49v-2.06c0-.58-.02-1.08-.04-1.49h1.15c-.01.41-.05.91-.05,1.49v1.97c0,.29,0,.55.02.86.01.19.12.27.37.27.58,0,1.21-.06,1.88-.12.08,0,.11,0,.11.04l-.09.45c-.01.06-.01.09-.07.08-.57-.04-1.01-.04-1.38-.04Z"/>
        <path d="M7.83,14.57c0-1.46,1.05-2.67,2.63-2.67,1.48,0,2.6,1.09,2.6,2.59s-1.04,2.68-2.62,2.68c-1.48,0-2.61-1.1-2.61-2.6ZM10.75,16.62c.58,0,1.3-.44,1.3-1.69,0-1.39-.95-2.49-1.9-2.49-.58,0-1.29.44-1.29,1.68,0,1.4.96,2.5,1.89,2.5Z"/>
        <path d="M13.31,14.57c0-1.46,1.05-2.67,2.63-2.67,1.48,0,2.6,1.09,2.6,2.59s-1.04,2.68-2.62,2.68c-1.48,0-2.61-1.1-2.61-2.6ZM16.23,16.62c.58,0,1.3-.44,1.3-1.69,0-1.39-.95-2.49-1.9-2.49-.58,0-1.29.44-1.29,1.68,0,1.4.96,2.5,1.89,2.5Z"/>
        <path d="M19.25,14.93l.17-2.9c0-.14.28-.16.37,0l2.12,3.81,1.95-3.81c.08-.16.38-.14.39,0l.19,2.9c.04.71.09,1.41.15,2.12h-1.11c-.03-.71-.06-1.41-.1-2.12l-.06-.87-1.07,2.13c-.14.27-.23.57-.26.66-.04.09-.2.11-.36.11s-.2-.02-.24-.11l-1.58-2.9-.04.97c-.03.71-.05,1.41-.07,2.12h-.62c.06-.71.13-1.41.17-2.12Z"/>
      </g>
      <g>
        <g>
          <path d="M10.54,6.83c0-.13.3-.37.36-.37.06,0,.35.24.35.37s-.29.36-.35.36c-.06,0-.36-.24-.36-.36ZM11.09,7.9s.08-.01.07.05c-.02.19-.05.57-.05,1.05v.75c0,.44.02.75.03.96h-.49c.02-.24.02-.72.02-.96v-.75c0-.45-.02-.75-.03-.96l.45-.14Z"/>
          <path d="M11.74,9.74v-.94c0-.3-.02-.56-.03-.77l.43-.13s.05,0,.05.05c0,.19.04.25.14.2.26-.11.55-.27.91-.27.55,0,.79.44.79.86v1c0,.44.02.75.03.96h-.48c.02-.24.02-.72.02-.96v-.88c0-.49-.37-.58-.67-.58s-.74.08-.74.23v1.23c0,.44.02.75.03.96h-.49c.02-.24.02-.72.02-.96Z"/>
        </g>
        <path class="cls-1" d="M1.72,8.52c.95,0,.95.06,1.89.06s.95-.01,1.89-.01.95.06,1.9.06.95-.1,1.9-.1"/>
        <path class="cls-1" d="M15.65,8.61c.95,0,.95.05,1.89.05s.95-.14,1.89-.14.95.04,1.9.04.95-.02,1.9-.02"/>
      </g>
    </g>
  </g>
</svg>