<?xml version="1.0" encoding="UTF-8"?>
<svg id="Layer_2" data-name="Layer 2" xmlns="http://www.w3.org/2000/svg" viewBox="0 0 43.12 41.48">
  <defs>
    <style>
      .cls-1 {
        fill: #1d1712;
      }
    </style>
  </defs>
  <g id="Layer_1-2" data-name="Layer 1">
    <path class="cls-1" d="M.26,16.2c2.17,12.77,16.83,11.91,20.45,25.2.52-1.56-.5-3.13-.55-4.64-.31-2.58-.97-5.06-1.32-7.65-.55-2.25-.99-4.25-1.23-6.55-.23-1.81-1.25-3.17-.77-5.08C13.82,11.8,5.26,10.67,3.59,3.95.8,7.35-.63,11.86.26,16.2Z"/>
    <path class="cls-1" d="M19.13,15.82c1.42-.72,2.86-.7,4.27.16.29-2.31,1.48-4.75,2.38-6.91-1.6-2.97-3.04-5.93-4.23-9.07.11,2.05-.05,4.11-.04,6.12.07,1.13-.06,2.32-.1,3.52,0,.48-.76.47-.74-.01.13-3.26.2-6.22.14-9.48-.92,3.19-2.53,6-3.98,8.93.81,2.25,1.94,4.34,2.31,6.74Z"/>
    <path class="cls-1" d="M24.63,24.21c-.5,3.12-.87,6.43-1.43,9.57-.2,2.52-1.27,5.13-.71,7.7,2.64-10.58,11.9-11.83,17.8-18.97,3.95-5.44,3.79-13.54-.73-18.63-1.83,6.85-10.7,7.81-14.22,13.35.58,1.18.11,2.26-.09,3.35-.22,1.26-.38,2.46-.63,3.62Z"/>
    <path class="cls-1" d="M17.83,20.24c.75,2.97.91,5.76,1.74,8.72.6,3.99,1.57,7.69,1.88,11.72.31,1.31.18-3.02.4-3.39,1.18-5.93,1.65-11.91,2.89-17.81.17-.54.36-2.05-.59-2.23-.85-.39-2.05-1.31-2.98-1.2-.86-.05-3.79,1.14-3.72,2.1-.1,1.06.22,1.11.38,2.1Z"/>
  </g>
</svg>