<?xml version="1.0" encoding="UTF-8"?>
<svg id="Layer_2" data-name="Layer 2" xmlns="http://www.w3.org/2000/svg" viewBox="0 0 166.86 60.11">
  <defs>
    <style>
      .cls-1 {
        fill: #F2EDE3;
      }
    </style>
  </defs>
  <g id="Layer_1-2" data-name="Layer 1">
    <g>
      <g>
        <path class="cls-1" d="M28.28,20.06c2.72,15.96,21.04,14.89,25.56,31.5.65-1.95-.63-3.91-.69-5.8-.38-3.22-1.21-6.32-1.65-9.56-.69-2.81-1.23-5.31-1.54-8.19-.28-2.26-1.56-3.97-.96-6.35-3.77-7.08-14.47-8.49-16.55-16.89-3.49,4.26-5.28,9.89-4.16,15.31Z"/>
        <path class="cls-1" d="M54.89,18.97c-1.01-.11-2.01.1-3.02.61-.46-3-1.87-5.62-2.89-8.42,1.81-3.66,3.83-7.17,4.98-11.16.08,4.07-.02,7.77-.18,11.84-.01.47.56.58.81.33.08-.07.12.22.12.35"/>
        <path class="cls-1" d="M54.89,19.88v31.09s-.07-.11-.12-.31c-.39-5.03-1.6-9.66-2.35-14.65-1.03-3.7-1.24-7.2-2.17-10.91-.2-1.24-.6-1.3-.48-2.63-.09-1.2,3.58-2.68,4.65-2.62.15-.02.31-.02.47.02Z"/>
        <path class="cls-1" d="M54.89,58.14v-4.86c0-.13-.12-.23-.25-.22-5.42.66-1.82,2.55-7.19-1.49-11.92-9.7-27.48,0-40.55-5.11-2.14,3.43-4.56,6.74-6.9,10.08,15.82,1.84,32.63-5.63,47.99.15,2.2,1.08,4.03,3.69,6.81,3.4.05,0,.09-.05.09-.1v-.95c-.97-.02-3.42-.85-3.16-1.41,1-.82,1.72.59,3.13.53.02,0,.03-.02.03-.03Z"/>
        <path class="cls-1" d="M10.85,46.76c15.09,1.77,27.04-5.59,40.2,6.36.15-.09.31-.17.48-.26-7.94-11.81-24.7-9.23-34.99-17.83-3.14,3.73-6.89,6.75-10.6,9.85,1.47.95,3.19,1.5,4.91,1.88Z"/>
        <path class="cls-1" d="M16.66,33.9c10.37,9.03,27.78,6.25,35.75,18.59.24-.08.42-.13.7-.2-3.98-15.57-20.12-15.45-24.75-28.47-5.65-4.24-11.86.94-17.68,1.51,1.25,3.33,3.38,6.12,5.97,8.56Z"/>
      </g>
      <g>
        <path class="cls-1" d="M61.31,23.26v-.34c.85-.21,1.22-.74,1.22-3.55V5.71c0-2.82-.37-3.34-1.22-3.55v-.34h13.69l.37,3.65-.27.06c-.95-2.39-2.62-3.31-5.37-3.31h-5.49v9.44h5c3.17,0,3.84-.7,4.09-1.84h.34v4.08h-.34c-.24-1.13-.91-1.84-4.09-1.84h-5v9.59c0,.8.43,1.23,1.22,1.23h5.09c2.74,0,4.36-.74,5.37-3.31l.27.06-.27,3.65h-14.6Z"/>
        <path class="cls-1" d="M77.31,22.22l-.21-3.43.24-.06c1.22,2.88,3.38,4.35,6.19,4.35,1.92,0,3.51-1.01,3.51-3.09,0-2.48-2.77-3.09-4.82-3.8-2.53-.86-4.73-1.53-4.73-4.38,0-2.51,2.29-4.08,5.15-4.08,2.26,0,3.93.52,4.79.89l.12,2.88-.24.06c-.91-2.27-2.93-3.46-5.03-3.46-2.23,0-3.66,1.01-3.66,2.82,0,2.21,2.41,3.06,4.42,3.71,2.2.7,5.15,1.38,5.15,4.35s-2.41,4.57-5.27,4.6c-2.68.03-4.76-.8-5.61-1.35Z"/>
        <path class="cls-1" d="M89.24,22.22l-.21-3.43.24-.06c1.22,2.88,3.38,4.35,6.19,4.35,1.92,0,3.51-1.01,3.51-3.09,0-2.48-2.77-3.09-4.82-3.8-2.53-.86-4.73-1.53-4.73-4.38,0-2.51,2.29-4.08,5.15-4.08,2.26,0,3.93.52,4.79.89l.12,2.88-.24.06c-.91-2.27-2.93-3.46-5.03-3.46-2.23,0-3.66,1.01-3.66,2.82,0,2.21,2.41,3.06,4.42,3.71,2.2.7,5.15,1.38,5.15,4.35s-2.41,4.57-5.27,4.6c-2.68.03-4.76-.8-5.61-1.35Z"/>
        <path class="cls-1" d="M112.19,22.65v-5.85c-1.04,3.98-3.96,6.77-6.83,6.77-2.29,0-4.42-1.32-4.42-4.01,0-3.22,3.2-4.38,6.71-5.3l4.51-1.2c-.18-2.97-1.62-4.53-4.54-4.53-1.95,0-3.84.98-5.31,2.88l-.27-.21c1.77-2.27,3.87-3.46,6.4-3.46,3.69,0,5.34,2.11,5.34,5.27v6.37c0,2.82.37,3.34,1.22,3.55v.34h-2.2c-.4,0-.61-.21-.61-.61ZM106.07,22.22c3.57,0,6.1-4.04,6.13-7.72v-1.07l-4.42,1.16c-3.2.86-5.18,1.87-5.15,4.35.03,1.96,1.34,3.28,3.45,3.28Z"/>
        <path class="cls-1" d="M113.14,28.44c0-.55.7-1.38,1.46-1.38s2.35.61,3.54.83c1.4-1.01,2.59-2.88,3.45-4.69l-4.82-11.67c-1.1-2.6-1.74-3.03-2.35-3.25v-.34h3.78v.34c-.85.21-.82.64.27,3.25l3.99,9.62,4.15-9.62c.82-1.93.85-3.03-.21-3.25v-.34h3.26v.34c-.76.21-1.52.64-2.62,3.25l-4.82,11.12c-2.9,6.71-6.13,6.53-7.2,6.53s-1.89-.37-1.89-.74Z"/>
        <path class="cls-1" d="M129.57,22.22l-.21-3.43.24-.06c1.22,2.88,3.38,4.35,6.19,4.35,1.92,0,3.51-1.01,3.51-3.09,0-2.48-2.77-3.09-4.82-3.8-2.53-.86-4.73-1.53-4.73-4.38,0-2.51,2.29-4.08,5.15-4.08,2.26,0,3.93.52,4.79.89l.12,2.88-.24.06c-.91-2.27-2.93-3.46-5.03-3.46-2.23,0-3.66,1.01-3.66,2.82,0,2.21,2.41,3.06,4.42,3.71,2.2.7,5.15,1.38,5.15,4.35s-2.41,4.57-5.27,4.6c-2.68.03-4.76-.8-5.61-1.35Z"/>
        <path class="cls-1" d="M146.38,22.93c.85-.21,1.22-.74,1.22-3.55v-7.05c0-2.51-.3-2.79-1.22-3.19v-.28l2.59-1.13.21.18v11.46c0,2.82.37,3.34,1.22,3.55v.34h-4.02v-.34ZM146.95,3.68c0-.7.55-1.26,1.25-1.26s1.25.55,1.25,1.26-.55,1.26-1.25,1.26-1.25-.55-1.25-1.26Z"/>
        <path class="cls-1" d="M151.22,22.93c.85-.21,1.22-.74,1.22-3.55v-7.05c0-2.51-.3-2.79-1.22-3.19v-.28l2.59-1.13.21.18v2.67c1.86-1.53,4.3-2.85,6.65-2.85,3.2,0,4.97,2.02,4.97,5.64v6.01c0,2.82.37,3.34,1.22,3.55v.34h-4.02v-.34c.85-.21,1.22-.74,1.22-3.55v-5.36c0-3.65-1.49-5.48-4.66-5.48-1.92,0-3.9,1.26-5.37,2.51v8.33c0,2.82.37,3.34,1.22,3.55v.34h-4.02v-.34Z"/>
        <path class="cls-1" d="M61.54,57.73v-.49c1.12-.34,1.5-1.21,1.5-4.29v-16.8c0-3.09-.37-3.95-1.5-4.29v-.49h8.77c5.77,0,8.13,1.92,8.13,4.97,0,2.56-1.65,4.9-5.92,5.69,6.11.3,8.81,3.35,8.84,7.04.08,4.22-3.07,8.66-12.18,8.66h-7.65ZM75.03,37.02c0-3.13-2.21-5.08-6.07-5.08h-2.85v10.02h3.49c3.71,0,5.43-2.18,5.43-4.93ZM77.95,50.01c0-4.33-2.4-7.49-8.02-7.49h-3.82v11.37c0,2.71.34,3.28,1.95,3.28h1.46c6.11,0,8.43-2.98,8.43-7.16Z"/>
        <path class="cls-1" d="M82.6,57.73v-.49c1.12-.34,1.5-1.21,1.5-4.29v-16.8c0-3.09-.37-3.95-1.5-4.29v-.49h6.07v.49c-1.16.34-1.5,1.21-1.5,4.29v19.28c0,1.09.6,1.69,1.69,1.69h4.46c3.6,0,5.25-.9,6.56-3.73l.41.08-.26,4.26h-17.43Z"/>
        <path class="cls-1" d="M98.08,44.51c0-7.72,5.4-13.44,13.34-13.44,1.99,0,4.05.41,5.92,1.32,1.8-.87,3.86-1.32,6.11-1.32,6.33,0,13.27,4.37,13.27,13.6s-6.97,13.44-13.27,13.44c-2.02,0-4.12-.41-6-1.32-1.91.9-4.01,1.32-6.03,1.32-6.37,0-13.34-4.26-13.34-13.6ZM116.78,56.45c-3.79-2-6.67-5.91-6.67-11.94,0-4.59,1.91-8.47,5.13-10.88-1.61-1.05-3.41-1.69-5.36-1.69-5.7,0-9.03,4.26-8.81,10.39.26,7.57,5.21,14.84,11.92,14.84,1.42,0,2.7-.26,3.79-.72ZM119.03,55.02c1.91-1.85,2.85-4.63,2.74-7.87-.19-5.23-2.4-10.24-5.85-12.99-1.91,1.85-2.92,4.71-2.81,8.17.19,5.05,2.44,9.98,5.92,12.69ZM133.8,47.15c-.26-7.87-5.17-15.21-11.88-15.21-1.46,0-2.77.26-3.9.79,3.79,2.03,6.67,5.99,6.67,11.94,0,5.08-2.1,8.66-5.02,10.81,1.57,1.05,3.41,1.69,5.36,1.69,6,0,8.96-4.37,8.77-10.02Z"/>
        <path class="cls-1" d="M139.31,57.24c1.16-.34,1.5-1.21,1.5-4.29v-15.29c0-4.29-.79-5.35-2.29-5.8v-.49h4.53l9.78,16.23,9.59-16.23h4.24v.49c-1.5.45-2.29,1.51-2.29,5.8v15.29c0,3.09.34,3.95,1.5,4.29v.49h-6.07v-.49c1.12-.34,1.5-1.21,1.5-4.29v-18.53l-9.52,16.16h-.71l-9.59-15.85v16.72c0,4.29.9,5.35,2.55,5.8v.49h-4.72v-.49Z"/>
      </g>
    </g>
  </g>
</svg>