<?xml version="1.0" encoding="UTF-8"?>
<svg id="Color_Kit" data-name="Color Kit" xmlns="http://www.w3.org/2000/svg" viewBox="0 0 100 100">
  <defs>
    <style>
      .cls-1 {
        stroke-width: .77px;
      }

      .cls-1, .cls-2 {
        fill: none;
        stroke: #000;
        stroke-miterlimit: 10;
      }

      .cls-3 {
        fill: #231f20;
      }

      .cls-2 {
        stroke-linecap: round;
        stroke-width: .19px;
      }
    </style>
  </defs>
  <path class="cls-1" d="M24.33,67.41c0,15.13,12.27,27.4,27.4,27.4s27.4-12.27,27.4-27.4v-34.81c0-15.13-12.27-27.4-27.4-27.4s-27.4,12.27-27.4,27.4v34.81Z"/>
  <path class="cls-1" d="M24.33,67.41c0,15.13,12.27,27.4,27.4,27.4s27.4-12.27,27.4-27.4v-34.81c0-15.13-12.27-27.4-27.4-27.4s-27.4,12.27-27.4,27.4v34.81Z"/>
  <g>
    <g>
      <path d="M37.26,58.5c-.72,0-1.87,0-2.94.03.03-.62.07-1.38.07-2.27v-3.13c0-.89-.03-1.64-.07-2.27,1.07.03,2.2.03,2.87.03.46,0,1.29,0,2.16-.05.11-.01.13.02.11.12l-.15.65c-.01.05-.04.07-.16.05-1.01-.09-1.73-.14-2.56-.14-.37,0-.55.12-.56.42-.02.47-.03.89-.03,1.33v.7c0,.28.14.34.36.34h.2c.86,0,1.41-.01,2.02-.09.09-.01.13.04.09.14l-.22.59c-.03.12-.1.12-.24.11-.41-.03-1.17-.08-1.75-.08h-.1c-.22,0-.36.05-.36.34v.81c0,.44,0,.84.03,1.31.02.3.19.42.56.42.88,0,1.78-.09,2.79-.18.12-.01.17,0,.16.05l-.13.69c-.02.1-.02.13-.11.12-.87-.05-1.42-.05-2.04-.05Z"/>
      <path d="M39.95,57.94l.13-.49c.31-1.15.51.48,2.55.48.91,0,1.19-.4,1.19-.93,0-.47-.2-.65-1.09-1.22l-.8-.54c-1.29-.86-1.83-1.32-1.83-2.24,0-1.41,1.42-2.32,2.72-2.32.84,0,1.92.37,1.83.63l-.14.4c-.36,1.15-.33-.24-2.16-.24-.72,0-1.06.36-1.06.89,0,.49.31.77,1.03,1.22l.94.62c1.23.8,1.72,1.3,1.72,2.16,0,1.4-1.35,2.36-2.8,2.36-.92,0-2.34-.36-2.23-.77Z"/>
      <path d="M45.34,57.94l.13-.49c.31-1.15.51.48,2.55.48.9,0,1.19-.4,1.19-.93,0-.47-.2-.65-1.09-1.22l-.8-.54c-1.29-.86-1.83-1.32-1.83-2.24,0-1.41,1.42-2.32,2.72-2.32.84,0,1.92.37,1.83.63l-.14.4c-.36,1.15-.33-.24-2.16-.24-.72,0-1.06.36-1.06.89,0,.49.31.77,1.03,1.22l.94.62c1.23.8,1.72,1.3,1.72,2.16,0,1.4-1.35,2.36-2.8,2.36-.92,0-2.33-.36-2.23-.77Z"/>
      <path d="M51.06,56.9l1.81-4.19c.32-.73.51-1.34.56-1.74.01-.1.78-.23.81-.15l2.6,6.1c.24.55.47,1.06.74,1.61h-1.7l-.73-1.63c-.13-.31-.22-.32-.51-.32h-2.14c-.33,0-.45,0-.56.32l-.57,1.63h-1.05c.25-.55.51-1.08.74-1.63ZM52.67,55.88h1.75c.14,0,.28-.03.22-.19l-1.09-2.64-1.09,2.64c-.07.15.08.19.22.19Z"/>
      <path d="M59.55,56.26v-1.14l-2.75-4.26h1.87c.41.72,1.17,1.91,1.67,2.68l.38.64.45-.64c.51-.74,1.27-1.96,1.63-2.68h1.11l-2.75,4.2v1.2c0,.89.04,1.64.08,2.27h-1.76c.03-.62.08-1.38.08-2.27Z"/>
      <path d="M64.1,57.94l.13-.49c.31-1.15.51.48,2.55.48.91,0,1.19-.4,1.19-.93,0-.47-.2-.65-1.09-1.22l-.8-.54c-1.29-.86-1.83-1.32-1.83-2.24,0-1.41,1.42-2.32,2.72-2.32.84,0,1.92.37,1.83.63l-.14.4c-.36,1.15-.33-.24-2.16-.24-.72,0-1.06.36-1.06.89,0,.49.31.77,1.03,1.22l.94.62c1.23.8,1.72,1.3,1.72,2.16,0,1.4-1.35,2.36-2.8,2.36-.92,0-2.34-.36-2.23-.77Z"/>
    </g>
    <g>
      <path d="M33.02,76.63c.03-.62.07-1.38.07-2.27v-3.13c0-.89-.03-1.64-.07-2.27,1.07.03,1.84-.02,2.77-.02,1.36,0,2.49.58,2.51,1.78.02.83-.5,1.48-1.4,1.66v.08c1.06,0,2.05.71,2.05,1.94,0,1.4-1.33,2.26-3.09,2.26-1.17,0-1.78-.05-2.85-.02ZM35.73,72.23c.66,0,.9-.46.9-1.15,0-.9-.46-1.51-1.33-1.51-.45,0-.62.12-.62.64v2.03h1.05ZM35.74,76.01c.7,0,1.51-.21,1.51-1.33,0-.95-.57-1.83-1.52-1.83h-1.05v2.36c0,.48.26.8,1.06.8Z"/>
      <path d="M42.59,76.59c-.72,0-1.87,0-2.94.03.03-.62.07-1.38.07-2.27v-3.13c0-.89-.03-1.64-.07-2.27h1.75c-.02.62-.08,1.38-.08,2.27v3c0,.44,0,.84.03,1.31.02.3.19.42.56.42.88,0,1.84-.09,2.86-.18.12-.01.17,0,.16.05l-.13.69c-.02.1-.02.13-.11.12-.87-.05-1.54-.05-2.11-.05Z"/>
      <path d="M44.93,72.85c0-2.21,1.6-4.06,4-4.06,2.26,0,3.96,1.65,3.96,3.94s-1.58,4.08-3.99,4.08c-2.25,0-3.97-1.68-3.97-3.95ZM49.37,75.97c.88,0,1.97-.67,1.97-2.56,0-2.12-1.45-3.79-2.89-3.79-.88,0-1.96.67-1.96,2.55,0,2.14,1.46,3.8,2.88,3.8Z"/>
      <path d="M53.27,72.85c0-2.21,1.6-4.06,4-4.06,2.26,0,3.96,1.65,3.96,3.94s-1.58,4.08-3.99,4.08c-2.25,0-3.97-1.68-3.97-3.95ZM57.71,75.97c.88,0,1.97-.67,1.97-2.56,0-2.12-1.45-3.79-2.89-3.79-.88,0-1.96.67-1.96,2.55,0,2.14,1.46,3.8,2.88,3.8Z"/>
      <path d="M62.31,73.41l.26-4.41c.01-.22.42-.24.57,0l3.23,5.8,2.97-5.8c.12-.24.58-.22.59-.01l.28,4.42c.05,1.07.13,2.15.23,3.22h-1.69c-.04-1.07-.09-2.15-.15-3.22l-.09-1.33-1.63,3.24c-.22.42-.35.87-.39,1.01-.05.14-.3.16-.55.16s-.31-.03-.37-.16l-2.41-4.41-.05,1.48c-.04,1.07-.08,2.15-.11,3.22h-.95c.1-1.07.2-2.15.26-3.22Z"/>
    </g>
    <g>
      <g>
        <path d="M49.05,61.08c0-.2.45-.56.54-.56.1,0,.54.36.54.56s-.44.55-.54.55c-.09,0-.54-.36-.54-.55ZM49.89,62.7c.06-.02.11-.02.11.07-.03.29-.08.86-.08,1.6v1.14c0,.68.03,1.15.04,1.46h-.74c.03-.36.03-1.09.03-1.46v-1.14c0-.68-.03-1.15-.04-1.46l.68-.21Z"/>
        <path d="M50.88,65.51v-1.43c0-.46-.03-.85-.04-1.16l.66-.2c.05-.02.07,0,.07.07,0,.28.06.37.21.31.4-.17.84-.42,1.38-.42.83,0,1.2.67,1.2,1.31v1.53c0,.68.03,1.15.04,1.46h-.73c.03-.36.04-1.09.04-1.46v-1.33c0-.75-.56-.88-1.03-.88s-1.13.12-1.13.35v1.87c0,.68.03,1.15.04,1.46h-.74c.03-.36.04-1.09.04-1.46Z"/>
      </g>
      <path class="cls-2" d="M35.63,63.7c.96,0,.96,0,1.92,0s.96.06,1.92.06.96.1,1.92.1.96-.17,1.92-.17.96.07,1.92.07.96-.11,1.92-.11"/>
      <path class="cls-2" d="M56.83,63.7c.96,0,.96,0,1.92,0s.96.06,1.92.06.96.1,1.92.1.96-.17,1.92-.17.96.07,1.92.07.96-.11,1.92-.11"/>
    </g>
  </g>
  <g>
    <path d="M71.49,80.58c.29.06.43.41.27.65-4.4,6.36-11.73,10.53-20.03,10.53-8.75,0-16.44-4.65-20.74-11.61-.18-.3.08-.68.43-.62,6.62,1.17,13.47,1.75,20.13.9,6.69-1.03,13.27-1.25,19.95.15Z"/>
    <path class="cls-3" d="M70.01,21.97c-.41-1-.76-2.07-1.45-2.82s-1.86-1.02-2.78-1.49-1.79-1.28-2.83-1.41-2.29.48-3.33.72c-.25-1.04-.63-2.21-1.2-3.06s-1.29-1.57-2.13-2.19-1.67-1.24-2.68-1.53-2.05-.73-3.13-.65c-1.08.08-1.98.89-2.9,1.32s-1.93.83-2.66,1.56-1.01,1.76-1.46,2.71-.98,1.86-1.07,2.92c-1.06-.09-2.25-.34-3.24-.07s-1.66,1.34-2.51,1.95-1.97.94-2.56,1.82-.7,1.95-.96,3c-.26,1.05-.54,2.08-.43,3.09s.75,1.94,1.22,2.86.93,1.84,1.7,2.56,1.51,1.36,2.49,1.78c-.41.99-.54,1.99-.58,3.01s.23,2.05.55,3.04.52,2.08,1.17,2.92,1.47,1.53,2.39,2.1c.92.57,2,.72,3,.93s2.08.35,3.1.19,2.14-.33,3.06-.83,1.59-1.68,2.28-2.48c.81.69,1.75,1.54,2.71,1.89s2.03.2,3.07.2,2.15.37,3.14.01,1.88-.98,2.7-1.67c.82-.7,1.3-1.67,1.8-2.55s.89-1.87,1.06-2.89.58-2.14.39-3.17-1.15-1.99-1.7-2.9c.91-.56,2.13-1.05,2.77-1.86s.7-1.99,1.03-2.98.38-1.93.34-2.99.06-2.05-.35-3.04ZM51.73,33.73c-.93,0-1.68-.51-2.43-.94s-1.77-.75-2.22-1.52-.2-1.75-.2-2.68-.31-1.97.12-2.73,1.31-1.39,2.09-1.83,1.7-.73,2.63-.73,1.8.45,2.55.88,1.13,1.26,1.58,2.03,1.2,1.45,1.2,2.38-.48,1.79-.91,2.54-.9,1.74-1.68,2.19-1.8.41-2.73.41Z"/>
  </g>
</svg>