<?xml version="1.0" encoding="UTF-8"?>
<svg id="Color_Kit" data-name="Color Kit" xmlns="http://www.w3.org/2000/svg" viewBox="0 0 100 100">
  <defs>
    <style>
      .cls-1 {
        fill: #231f20;
      }
    </style>
  </defs>
  <path class="cls-1" d="M78.83,39.95c-.64-1.56-1.18-3.22-2.25-4.39s-2.9-1.59-4.33-2.33-2.78-1.99-4.41-2.2-3.56.74-5.18,1.12c-.38-1.62-.98-3.44-1.87-4.77-.91-1.36-2.01-2.45-3.32-3.41s-2.6-1.94-4.18-2.39-3.2-1.14-4.88-1.01c-1.68.12-3.08,1.39-4.53,2.05s-3.01,1.3-4.16,2.44-1.58,2.74-2.28,4.23-1.54,2.9-1.68,4.56c-1.66-.13-3.51-.54-5.05-.1s-2.59,2.1-3.91,3.05-3.08,1.47-4,2.83-1.09,3.05-1.49,4.68c-.4,1.63-.84,3.24-.66,4.82s1.17,3.02,1.89,4.47,1.45,2.87,2.65,3.98,2.35,2.12,3.88,2.77c-.64,1.54-.84,3.1-.91,4.7s.36,3.2.86,4.74.81,3.25,1.82,4.55c.98,1.25,2.29,2.39,3.72,3.28,1.43.88,3.12,1.13,4.67,1.44s3.24.55,4.84.3,3.33-.51,4.77-1.3,2.47-2.61,3.56-3.87c1.26,1.08,2.72,2.4,4.23,2.95s3.16.31,4.78.32,3.35.58,4.9.02,2.93-1.52,4.21-2.61c1.28-1.09,2.02-2.6,2.8-3.98s1.39-2.91,1.65-4.51.91-3.33.6-4.94-1.8-3.1-2.66-4.53c1.42-.87,3.32-1.64,4.32-2.9s1.09-3.11,1.6-4.65c.5-1.54.6-3.01.54-4.66s.1-3.19-.54-4.75ZM50.33,58.28c-1.45,0-2.61-.79-3.78-1.46s-2.76-1.17-3.45-2.37-.31-2.73-.31-4.18-.49-3.08.19-4.25,2.05-2.16,3.25-2.86,2.66-1.14,4.1-1.14,2.8.7,3.97,1.37,1.76,1.96,2.46,3.17,1.87,2.26,1.87,3.71-.75,2.8-1.43,3.97-1.41,2.71-2.61,3.41-2.81.64-4.26.64Z"/>
</svg>