<?xml version="1.0" encoding="UTF-8"?>
<svg id="Color_Kit" data-name="Color Kit" xmlns="http://www.w3.org/2000/svg" viewBox="0 0 72 100">
  <defs>
    <style>
      .cls-1 {
        fill: none;
        stroke: #000;
        stroke-linecap: round;
        stroke-miterlimit: 10;
        stroke-width: .19px;
      }
    </style>
  </defs>
  <path d="M10.32,40.69c-1.28,0-3.31,0-5.21.06.06-1.11.12-2.45.12-4.03v-5.56c0-1.57-.06-2.92-.12-4.03,1.9.06,3.91.06,5.1.06.81,0,2.28,0,3.84-.1.19-.02.23.04.19.21l-.27,1.15c-.02.1-.08.12-.29.1-1.8-.16-3.08-.25-4.55-.25-.66,0-.97.21-.99.74-.04.84-.06,1.58-.06,2.36v1.25c0,.5.25.6.64.6h.35c1.53,0,2.5-.02,3.59-.16.16-.02.23.08.16.25l-.39,1.05c-.06.22-.17.22-.43.2-.74-.06-2.07-.14-3.1-.14h-.17c-.39,0-.64.1-.64.6v1.44c0,.78,0,1.5.06,2.33.04.52.33.74.99.74,1.57,0,3.16-.16,4.96-.31.21-.02.31,0,.29.1l-.23,1.23c-.04.17-.04.23-.2.21-1.55-.1-2.52-.1-3.62-.1Z"/>
  <path d="M15.09,39.69l.23-.88c.54-2.04.91.85,4.53.85,1.61,0,2.11-.72,2.11-1.65,0-.84-.35-1.15-1.94-2.16l-1.42-.95c-2.28-1.52-3.25-2.34-3.25-3.97,0-2.51,2.52-4.12,4.82-4.12,1.49,0,3.41.66,3.26,1.13l-.25.7c-.64,2.04-.58-.43-3.84-.43-1.28,0-1.88.64-1.88,1.58,0,.88.54,1.36,1.82,2.16l1.66,1.09c2.19,1.42,3.06,2.31,3.06,3.83,0,2.49-2.4,4.18-4.98,4.18-1.63,0-4.15-.64-3.95-1.36Z"/>
  <path d="M24.65,39.69l.23-.88c.54-2.04.91.85,4.53.85,1.61,0,2.11-.72,2.11-1.65,0-.84-.35-1.15-1.94-2.16l-1.41-.95c-2.29-1.52-3.26-2.34-3.26-3.97,0-2.51,2.52-4.12,4.82-4.12,1.49,0,3.41.66,3.26,1.13l-.25.7c-.64,2.04-.58-.43-3.84-.43-1.28,0-1.88.64-1.88,1.58,0,.88.54,1.36,1.82,2.16l1.66,1.09c2.19,1.42,3.06,2.31,3.06,3.83,0,2.49-2.4,4.18-4.98,4.18-1.63,0-4.14-.64-3.95-1.36Z"/>
  <path d="M34.82,37.85l3.22-7.43c.56-1.3.91-2.37.99-3.09.02-.17,1.38-.41,1.44-.27l4.61,10.84c.43.97.83,1.89,1.32,2.86h-3.02l-1.3-2.9c-.23-.54-.39-.56-.91-.56h-3.8c-.58,0-.79,0-.99.56l-1.01,2.9h-1.86c.45-.97.91-1.93,1.32-2.9ZM37.68,36.04h3.1c.25,0,.5-.06.39-.33l-1.94-4.69-1.94,4.69c-.12.27.13.33.39.33Z"/>
  <path d="M49.9,36.72v-2.02l-4.88-7.57h3.31c.74,1.28,2.07,3.38,2.96,4.76l.68,1.13.79-1.13c.91-1.32,2.25-3.48,2.89-4.76h1.98l-4.88,7.45v2.14c0,1.58.08,2.92.13,4.03h-3.12c.06-1.11.14-2.45.14-4.03Z"/>
  <path d="M57.97,39.69l.23-.88c.54-2.04.91.85,4.53.85,1.61,0,2.11-.72,2.11-1.65,0-.84-.35-1.15-1.94-2.16l-1.42-.95c-2.28-1.52-3.25-2.34-3.25-3.97,0-2.51,2.52-4.12,4.82-4.12,1.49,0,3.41.66,3.26,1.13l-.25.7c-.64,2.04-.58-.43-3.84-.43-1.28,0-1.88.64-1.88,1.58,0,.88.54,1.36,1.82,2.16l1.66,1.09c2.19,1.42,3.06,2.31,3.06,3.83,0,2.49-2.4,4.18-4.98,4.18-1.63,0-4.15-.64-3.95-1.36Z"/>
  <path d="M2.78,72.87c.06-1.11.12-2.45.12-4.03v-5.56c0-1.57-.06-2.92-.12-4.03,1.9.06,3.27-.04,4.92-.04,2.42,0,4.42,1.03,4.46,3.15.04,1.48-.89,2.62-2.48,2.95v.14c1.88,0,3.64,1.27,3.64,3.45,0,2.49-2.36,4.01-5.48,4.01-2.07,0-3.16-.1-5.06-.04ZM7.6,65.07c1.16,0,1.61-.82,1.61-2.04,0-1.59-.81-2.69-2.36-2.69-.8,0-1.11.22-1.11,1.13v3.6h1.86ZM7.62,71.78c1.24,0,2.68-.37,2.68-2.35,0-1.69-1.01-3.25-2.69-3.25h-1.86v4.18c0,.85.46,1.42,1.88,1.42Z"/>
  <path d="M19.78,72.82c-1.28,0-3.31,0-5.21.06.06-1.11.12-2.45.12-4.03v-5.56c0-1.57-.06-2.92-.12-4.03h3.1c-.04,1.11-.13,2.45-.13,4.03v5.33c0,.78,0,1.5.06,2.33.04.52.33.74.99.74,1.57,0,3.27-.16,5.08-.31.21-.02.31,0,.29.1l-.23,1.23c-.04.17-.04.23-.2.21-1.55-.1-2.73-.1-3.74-.1Z"/>
  <path d="M23.93,66.16c0-3.93,2.85-7.22,7.11-7.22,4.01,0,7.03,2.94,7.03,7s-2.81,7.24-7.09,7.24c-3.99,0-7.05-2.98-7.05-7.02ZM31.82,71.71c1.57,0,3.51-1.19,3.51-4.55,0-3.76-2.58-6.73-5.13-6.73-1.57,0-3.49,1.19-3.49,4.53,0,3.79,2.6,6.75,5.12,6.75Z"/>
  <path d="M38.74,66.16c0-3.93,2.85-7.22,7.11-7.22,4.01,0,7.03,2.94,7.03,7s-2.81,7.24-7.09,7.24c-3.99,0-7.05-2.98-7.05-7.02ZM46.62,71.71c1.57,0,3.51-1.19,3.51-4.55,0-3.76-2.58-6.73-5.13-6.73-1.57,0-3.49,1.19-3.49,4.53,0,3.79,2.6,6.75,5.12,6.75Z"/>
  <path d="M54.79,67.15l.46-7.82c.02-.39.75-.43,1.01,0l5.74,10.29,5.27-10.29c.21-.43,1.03-.39,1.05-.02l.5,7.84c.1,1.9.23,3.81.41,5.72h-3c-.08-1.91-.15-3.81-.27-5.72l-.16-2.36-2.89,5.76c-.39.74-.62,1.54-.7,1.79-.09.25-.54.29-.97.29s-.54-.06-.66-.29l-4.28-7.82-.09,2.63c-.08,1.9-.14,3.81-.2,5.72h-1.69c.17-1.91.35-3.81.47-5.72Z"/>
  <g>
    <path d="M31.25,45.27c0-.35.8-.99.96-.99.17,0,.96.65.96.99s-.79.98-.96.98c-.16,0-.96-.65-.96-.98ZM32.74,48.14c.11-.03.2-.03.19.13-.06.52-.14,1.53-.14,2.84v2.02c0,1.2.05,2.04.08,2.59h-1.32c.04-.65.06-1.94.06-2.59v-2.02c0-1.21-.04-2.04-.08-2.59l1.21-.38Z"/>
    <path d="M34.5,53.13v-2.54c0-.82-.05-1.52-.08-2.07l1.16-.36c.09-.03.12,0,.12.13,0,.51.11.66.38.55.71-.3,1.49-.74,2.45-.74,1.47,0,2.13,1.18,2.13,2.32v2.71c0,1.2.05,2.04.08,2.59h-1.3c.05-.65.06-1.94.06-2.59v-2.37c0-1.33-.99-1.56-1.82-1.56s-2.01.21-2.01.62v3.31c0,1.2.05,2.04.08,2.59h-1.32c.05-.65.06-1.94.06-2.59Z"/>
  </g>
  <path class="cls-1" d="M7.42,50.07c.93,0,.93.11,1.86.11s.93-.23,1.86-.23.93.18,1.85.18.93-.18,1.86-.18.93.22,1.86.22.93-.35,1.86-.35.93.38,1.86.38.93-.04,1.86-.04.93-.3,1.86-.3.93.13,1.87.13.93.21,1.87.21"/>
  <path class="cls-1" d="M45.06,50.19c.93,0,.93-.07,1.86-.07s.93-.13,1.86-.13.93.06,1.85.06.93-.09,1.86-.09.93.19,1.86.19.93-.3,1.86-.3.93.3,1.86.3.93-.22,1.86-.22.93,0,1.86,0,.93.21,1.87.21.93-.16,1.87-.16"/>
</svg>