<?xml version="1.0" encoding="UTF-8"?>
<svg id="Color_Kit" data-name="Color Kit" xmlns="http://www.w3.org/2000/svg" viewBox="0 0 100 32">
  <defs>
    <style>
      .cls-1 {
        fill: none;
        stroke: #000;
        stroke-linecap: round;
        stroke-miterlimit: 10;
        stroke-width: .19px;
      }
    </style>
  </defs>
  <path class="cls-1" d="M4.37,20.89c.88,0,.88.03,1.75.03s.88-.1,1.75-.1.88.03,1.75.03.88-.02,1.75-.02.88.03,1.75.03.88.02,1.75.02.88-.05,1.75-.05.88,0,1.75,0,.88.04,1.75.04.88,0,1.75,0,.88.04,1.75.04.88-.07,1.75-.07.88.07,1.75.07.88-.08,1.75-.08.88.02,1.75.02.88,0,1.75,0,.88.03,1.75.03.88.04,1.76.04.88-.07,1.75-.07.88.03,1.75.03.88-.05,1.75-.05.88.04,1.75.04.88.05,1.76.05.88-.09,1.75-.09.88.08,1.75.08.87-.04,1.75-.04.88.03,1.75.03.88-.05,1.75-.05.88.02,1.75.02.88.02,1.76.02.88-.01,1.75-.01.88-.02,1.75-.02.88.04,1.75.04.88,0,1.76,0,.88-.03,1.76-.03.88.02,1.75.02.88.03,1.76.03.88-.07,1.76-.07.88.04,1.76.04.88-.05,1.76-.05.88.07,1.76.07.88-.01,1.76-.01.88-.03,1.76-.03.88,0,1.75,0,.88.06,1.76.06.88-.08,1.76-.08.88.07,1.76.07.88-.07,1.76-.07.88-.01,1.76-.01.88.02,1.76.02.88-.02,1.76-.02.88.07,1.76.07"/>
  <g>
    <g>
      <path d="M7.53,19.53c-.77,0-2.01,0-3.16.04.04-.67.07-1.48.07-2.44v-3.37c0-.95-.04-1.77-.07-2.44,1.15.04,2.37.04,3.09.04.49,0,1.38,0,2.32-.06.12-.01.14.02.12.13l-.16.7c-.01.06-.05.07-.18.06-1.09-.09-1.86-.15-2.76-.15-.4,0-.59.13-.6.45-.02.51-.04.96-.04,1.43v.75c0,.31.15.36.39.36h.21c.93,0,1.51-.01,2.17-.09.09-.01.14.05.09.15l-.23.64c-.04.13-.11.13-.26.12-.45-.04-1.25-.08-1.88-.08h-.11c-.23,0-.39.06-.39.37v.87c0,.47,0,.91.04,1.41.02.32.2.45.6.45.95,0,1.91-.09,3-.19.13-.01.19,0,.18.06l-.14.74c-.02.11-.02.14-.12.13-.94-.06-1.53-.06-2.19-.06Z"/>
      <path d="M10.42,18.93l.14-.53c.33-1.24.55.52,2.74.52.97,0,1.28-.43,1.28-1,0-.51-.21-.7-1.17-1.31l-.86-.58c-1.38-.92-1.97-1.42-1.97-2.4,0-1.52,1.52-2.5,2.92-2.5.9,0,2.07.4,1.97.68l-.15.43c-.39,1.24-.35-.26-2.32-.26-.77,0-1.14.39-1.14.96,0,.53.33.82,1.1,1.31l1.01.66c1.33.86,1.85,1.4,1.85,2.32,0,1.51-1.45,2.53-3.01,2.53-.99,0-2.51-.39-2.39-.82Z"/>
      <path d="M16.21,18.93l.14-.53c.33-1.24.55.52,2.75.52.97,0,1.28-.43,1.28-1,0-.51-.21-.7-1.17-1.31l-.86-.58c-1.39-.92-1.97-1.42-1.97-2.4,0-1.52,1.52-2.5,2.92-2.5.9,0,2.07.4,1.97.68l-.15.43c-.39,1.24-.35-.26-2.32-.26-.77,0-1.14.39-1.14.96,0,.53.33.82,1.1,1.31l1.01.66c1.33.86,1.85,1.4,1.85,2.32,0,1.51-1.45,2.53-3.01,2.53-.99,0-2.51-.39-2.39-.82Z"/>
      <path d="M22.37,17.81l1.95-4.5c.34-.79.55-1.44.6-1.87.01-.11.83-.25.87-.16l2.79,6.56c.26.59.5,1.14.8,1.73h-1.83l-.79-1.76c-.14-.33-.23-.34-.55-.34h-2.3c-.35,0-.48,0-.6.34l-.61,1.76h-1.13c.27-.59.55-1.17.8-1.76ZM24.1,16.71h1.88c.15,0,.31-.04.23-.2l-1.17-2.84-1.17,2.84c-.07.16.08.2.23.2Z"/>
      <path d="M31.5,17.12v-1.23l-2.96-4.58h2.01c.45.78,1.25,2.05,1.79,2.89l.41.68.48-.68c.55-.8,1.36-2.11,1.75-2.89h1.2l-2.96,4.51v1.3c0,.96.05,1.77.08,2.44h-1.89c.04-.67.08-1.48.08-2.44Z"/>
      <path d="M36.39,18.93l.14-.53c.33-1.24.55.52,2.74.52.97,0,1.28-.43,1.28-1,0-.51-.21-.7-1.17-1.31l-.86-.58c-1.38-.92-1.97-1.42-1.97-2.4,0-1.52,1.52-2.5,2.92-2.5.9,0,2.07.4,1.97.68l-.15.43c-.39,1.24-.35-.26-2.32-.26-.77,0-1.14.39-1.14.96,0,.53.33.82,1.1,1.31l1.01.66c1.33.86,1.85,1.4,1.85,2.32,0,1.51-1.45,2.53-3.01,2.53-.99,0-2.51-.39-2.39-.82Z"/>
    </g>
    <g>
      <path d="M55.39,19.56c.04-.67.07-1.48.07-2.44v-3.37c0-.95-.04-1.77-.07-2.44,1.15.04,1.98-.02,2.98-.02,1.47,0,2.67.62,2.7,1.91.02.89-.54,1.59-1.5,1.79v.08c1.14,0,2.2.77,2.2,2.09,0,1.51-1.43,2.43-3.32,2.43-1.26,0-1.91-.06-3.06-.02ZM58.31,14.84c.7,0,.97-.5.97-1.24,0-.97-.49-1.63-1.43-1.63-.48,0-.67.13-.67.68v2.18h1.13ZM58.32,18.9c.75,0,1.62-.22,1.62-1.43,0-1.03-.61-1.97-1.63-1.97h-1.13v2.53c0,.52.28.86,1.14.86Z"/>
      <path d="M65.68,19.53c-.77,0-2.01,0-3.16.04.04-.67.07-1.48.07-2.44v-3.37c0-.95-.04-1.77-.07-2.44h1.88c-.02.67-.08,1.48-.08,2.44v3.23c0,.47,0,.91.04,1.41.02.32.2.45.6.45.95,0,1.98-.09,3.07-.19.13-.01.19,0,.18.06l-.14.74c-.02.11-.02.14-.12.13-.94-.06-1.65-.06-2.26-.06Z"/>
      <path d="M68.2,15.5c0-2.38,1.72-4.37,4.31-4.37,2.43,0,4.26,1.78,4.26,4.24s-1.7,4.38-4.29,4.38c-2.42,0-4.27-1.8-4.27-4.25ZM72.98,18.86c.95,0,2.12-.72,2.12-2.76,0-2.28-1.56-4.08-3.11-4.08-.95,0-2.11.72-2.11,2.74,0,2.3,1.57,4.09,3.1,4.09Z"/>
      <path d="M77.17,15.5c0-2.38,1.72-4.37,4.31-4.37,2.43,0,4.26,1.78,4.26,4.24s-1.7,4.38-4.29,4.38c-2.42,0-4.27-1.8-4.27-4.25ZM81.94,18.86c.95,0,2.12-.72,2.12-2.76,0-2.28-1.56-4.08-3.11-4.08-.95,0-2.11.72-2.11,2.74,0,2.3,1.57,4.09,3.1,4.09Z"/>
      <path d="M86.89,16.1l.28-4.74c.01-.23.46-.26.61,0l3.47,6.23,3.19-6.23c.13-.26.62-.23.63-.01l.3,4.75c.06,1.15.14,2.31.25,3.46h-1.82c-.05-1.16-.09-2.31-.16-3.46l-.09-1.43-1.75,3.49c-.23.45-.38.93-.42,1.08-.06.15-.33.18-.59.18s-.33-.04-.4-.18l-2.59-4.74-.06,1.59c-.05,1.15-.08,2.31-.12,3.46h-1.02c.11-1.16.21-2.31.28-3.46Z"/>
    </g>
    <g>
      <path d="M45.71,13.42c0-.21.49-.6.58-.6.1,0,.58.39.58.6s-.48.59-.58.59c-.1,0-.58-.39-.58-.59ZM46.62,15.16c.07-.02.12-.02.11.08-.04.32-.08.93-.08,1.72v1.22c0,.73.03,1.23.05,1.57h-.8c.03-.39.04-1.18.04-1.57v-1.22c0-.74-.03-1.23-.05-1.57l.73-.23Z"/>
      <path d="M47.68,18.18v-1.54c0-.5-.03-.92-.05-1.25l.7-.22c.06-.02.08,0,.08.08,0,.31.07.4.23.33.43-.18.9-.45,1.48-.45.89,0,1.29.72,1.29,1.41v1.64c0,.73.03,1.23.05,1.57h-.79c.03-.39.04-1.18.04-1.57v-1.43c0-.8-.6-.95-1.1-.95s-1.22.12-1.22.37v2.01c0,.73.03,1.23.05,1.57h-.8c.03-.39.04-1.18.04-1.57Z"/>
    </g>
  </g>
</svg>