<?xml version="1.0" encoding="UTF-8"?>
<svg id="Layer_1" data-name="Layer 1" xmlns="http://www.w3.org/2000/svg" viewBox="0 0 100 32">
  <g>
    <path d="M1.56,8.95h3.33v1.09h-2.07v1.37h1.96v1.05h-1.96v1.63h2.07v1.09H1.56v-6.23Z"/>
    <path d="M7.7,9.94c-.49,0-.76.31-.76.67,0,.42.25.57,1.14.85.9.27,1.6.73,1.6,1.69,0,1.32-.95,2.13-2.17,2.13-.77,0-1.57-.31-2.08-.86l.72-.97c.41.43.83.65,1.33.65s.86-.3.86-.78-.38-.66-1.11-.88c-1.03-.29-1.63-.75-1.63-1.72,0-1.06.76-1.88,2.04-1.88.62,0,1.32.23,1.78.73l-.62.92c-.32-.35-.7-.55-1.09-.55Z"/>
    <path d="M12.25,9.94c-.49,0-.76.31-.76.67,0,.42.25.57,1.14.85.9.27,1.6.73,1.6,1.69,0,1.32-.95,2.13-2.17,2.13-.77,0-1.57-.31-2.08-.86l.72-.97c.41.43.83.65,1.33.65s.86-.3.86-.78-.38-.66-1.11-.88c-1.03-.29-1.63-.75-1.63-1.72,0-1.06.76-1.88,2.04-1.88.62,0,1.32.23,1.78.73l-.62.92c-.32-.35-.7-.55-1.09-.55Z"/>
    <path d="M17.04,8.84h.81l2.6,6.34h-1.32l-.51-1.29h-2.49l-.54,1.29h-1.28l2.74-6.34ZM18.21,12.85l-.81-2.06h-.02l-.85,2.06h1.67Z"/>
    <path d="M21.44,12.26l-2.2-3.31h1.5l1.31,2.13h.03l1.34-2.13h1.48l-2.21,3.31v2.91h-1.26v-2.91Z"/>
    <path d="M26.99,9.94c-.49,0-.76.31-.76.67,0,.42.25.57,1.14.85.9.27,1.6.73,1.6,1.69,0,1.32-.95,2.13-2.17,2.13-.77,0-1.57-.31-2.08-.86l.72-.97c.41.43.83.65,1.33.65s.86-.3.86-.78-.38-.66-1.11-.88c-1.03-.29-1.63-.75-1.63-1.72,0-1.06.76-1.88,2.04-1.88.62,0,1.32.23,1.78.73l-.62.92c-.32-.35-.7-.55-1.09-.55Z"/>
  </g>
  <g>
    <path d="M22.1,16.78v6.23h-1.26v-6.23h1.26Z"/>
    <path d="M23.2,16.66h.81l3.72,4.16h.02v-4.05h1.22v6.34h-.76l-3.76-4.2h-.02v4.09h-1.22v-6.34Z"/>
  </g>
  <g>
    <path d="M32,22.96v-.22c.55-.14.79-.48.79-2.31v-8.87c0-1.83-.24-2.17-.79-2.31v-.22h4.36c2.83,0,4.16,1.01,4.16,2.62,0,1.35-.89,2.59-2.89,2.98,3.19.22,4.36,1.93,4.38,3.84.04,2.13-1.51,4.48-6.24,4.48h-3.76ZM39.29,11.92c0-1.57-1.05-2.63-3.13-2.63h-2.26v5.35h1.94c2.52,0,3.45-1.21,3.45-2.72ZM40.78,18.75c0-2.19-1.21-3.84-4.2-3.84h-2.68v6.05c0,1.43.18,1.73,1.03,1.73h1.01c3.65,0,4.84-1.63,4.84-3.94Z"/>
    <path d="M43.7,22.96v-.22c.55-.14.79-.48.79-2.31v-8.87c0-1.83-.24-2.17-.79-2.31v-.22h2.7v.22c-.55.14-.79.48-.79,2.31v10.34c0,.52.28.8.79.8h3.17c1.78,0,2.46-.48,3.05-1.75l.18.04-.12,1.97h-8.98Z"/>
    <path d="M52.26,16.02c0-4.22,2.79-7.14,7-7.14,3.35,0,6.97,2.31,6.97,7.18s-3.65,7.1-6.97,7.1-7-2.27-7-7.14ZM65.18,17.1c0-4.06-2.79-7.84-6.5-7.84-3.35,0-5.35,2.41-5.35,5.69,0,4.02,2.72,7.84,6.44,7.84,3.33,0,5.41-2.31,5.41-5.69Z"/>
    <path d="M68.2,16.02c0-4.22,2.79-7.14,7-7.14,3.35,0,6.97,2.31,6.97,7.18s-3.65,7.1-6.97,7.1-7-2.27-7-7.14ZM81.12,17.1c0-4.06-2.79-7.84-6.5-7.84-3.35,0-5.35,2.41-5.35,5.69,0,4.02,2.72,7.84,6.44,7.84,3.33,0,5.41-2.31,5.41-5.69Z"/>
    <path d="M84.33,22.75c.55-.14.79-.48.79-2.31v-8.51c0-2.07-.42-2.51-1.07-2.67v-.22h1.76l5.49,9.01,4.95-8.1.02-.04.54-.88h1.62v.22c-.65.16-1.07.6-1.07,2.67v8.51c0,1.83.24,2.17.79,2.31v.22h-2.7v-.22c.55-.14.79-.48.79-2.31v-9.92l-5.31,8.67h-.28l-5.19-8.55v9.45c0,2.07.46,2.51,1.19,2.67v.22h-2.34v-.22Z"/>
  </g>
</svg>