<?xml version="1.0" encoding="UTF-8"?>
<svg id="Layer_1" data-name="Layer 1" xmlns="http://www.w3.org/2000/svg" viewBox="0 0 100 100">
  <path d="M64.5,37.45c-4.77.03-10.88-8.77-22.75-4.91-2.81.91-4.94,2.52-6.75,4.9,4.59-11.81,29.72-8.83,30.76-1.84.11.71-.63,1.85-1.25,1.85Z"/>
  <path d="M43.45,29.33c-3.98.88-6.75,3.71-9.32,6.2,1.93-8.04,14.57-14.47,18.55-9.8.51.6.17,1.52-.6,1.69l-8.64,1.91Z"/>
  <path d="M56.17,37.13c-1.6,4.19-8.25-5.87-19.34.32,6.19-7.2,20.74-3.98,19.34-.32Z"/>
  <path d="M36.61,25.13c2.08,1.58-4.17,6.42-3.89,13.09-2.72-4.52-2.75-10.03,1.32-13.02.59-.44,2.08-.45,2.57-.07Z"/>
  <path d="M33.94,43.05c1.32,6.43,6.8,9.46,5.15,11.75-.72,1-2.2,1.06-3.07.2-3.07-3.03-4.24-7.9-2.08-11.95Z"/>
  <path d="M31.87,41.98c-5.36,5.49-1.72,13.15-5.41,13.63-3.62.47-1.49-11.37,5.41-13.63Z"/>
  <path d="M32.49,43.07c-2.56,7.3,2.06,12.18.79,14.63-2.06,3.98-7.09-8.04-.79-14.63Z"/>
  <path d="M31.42,40.18c-2.9.44-5.83,1.18-8.5.38-1.57-.47-2.7-2.13-1.93-3.24,2.73-3.97,5.78.78,10.43,2.86Z"/>
  <path d="M31.31,41.19c-4.64,1.36-8.4,10.23-10.04,6.36-1.47-3.47,5.34-6.87,10.04-6.36Z"/>
  <path d="M48.47,40.21c-2.37,1.41-5.58-2.09-11.86-.75,3.41-3.16,10.87-3.59,12.29-1.06.28.5,0,1.55-.43,1.81Z"/>
  <path d="M31.57,38.83c-3.99-1.56-8.65-7.49-5.51-8.85.98-.42,2.4.24,2.99,1.33.38,2.59,1.19,4.63,2.52,7.52Z"/>
  <path d="M41.34,46.22c.72.43.95,1.86.73,2.47-.26.76-1.5,1.55-2.27,1.05-2.43-1.56-4.29-4.07-4.14-6.89l5.68,3.36Z"/>
  <path d="M36.37,41.44c3.16-1.83,8.58-.81,8.57,1.92,0,2.43-5.39.63-8.57-1.92Z"/>
  <path d="M33.3,39.08c.87-.59,1.97-.2,2.47.66.32.56.19,1.71-.47,2.24-.5.4-1.86.21-2.39-.34-.6-.62-.48-1.96.39-2.56Z"/>
  <path d="M67.23,46.13c-1.46-.23-3.1.49-3.68,1.84-.49,1.18.72,2.04.89,3.11.1.56.09,1.09.18,1.62.74,4.33,4.89,12.34,2.47,20.18-.43,1.4-1.36,3.18-2.96,2.94-.85-.19-.49-1.15-.07-1.71.49-.73.89-1.59,1.16-2.52,2.36-8.96-2.34-18.71-8.52-25.04-1.19-1.3-3.79-2.79-2.69-4.82.88-1.44,2.81-1.7,4.38-1.77,7.21-.29,14.73,1.96,19.29,7.56,1.6,1.95,2.24,5.19.57,7.23-.77.9-2.2,1.42-3.23.77-.79-.51-1-1.75-.08-2.13.54-.25,1.24-.17,1.75-.5.78-.5.49-2.09-.38-3.37-.32-.5-.84-1.03-1.45-.93-.6.07-1.13.45-1.78.29-.28-.07-.57-.23-.83-.39-1.6-1.01-3.14-2-4.99-2.35h-.07ZM73.27,47.74c.73-.2,1.41-.83,2.18-.28,1.68,1.05,3.14,4.05,2.16,5.93-.39.76-1.4.79-2.1,1.03-.44.16-.45.46-.14.66,1.98.97,3.22-1.56,3.01-3.38-.08-2.07-1.31-4.08-2.88-5.41-4.74-4.2-10.93-6.29-17.14-5.87-1.36.09-3.34.44-3.69,1.95-.16,1.39,1.18,2.22,2.07,3.13.62.6,1.22,1.23,1.79,1.88,2.15,2.41,3.84,5.18,5.31,8.06.4.66.23-.22.13-1.16-.15-.98-.19-1.9-.43-2.78-.33-1.05-1.24-1.54-1.15-2.7.2-1.78,1.85-3.19,3.57-3.47,1.42-.25,2.88.27,4.13.9.67.33,1.33.73,1.96,1.14.45.29.84.44,1.19.38h.04Z"/>
  <path d="M48.29,58.39c-.43.21-.73.85-.91,1.39-.71,2.04-1.78,3.79-3.5,5.03-1.7,1.35-3.99.78-5.91,1.59-2.74.92-6.01,1.01-7.98-1.34-.55-.51-1.22-.87-1.91-1.16-2-.88-3.71-2.53-4.19-4.69-.15-1.02.56-.47,1.27.18.56.51,1.13.99,1.72,1.41,4.27,3.36,10.34,2.33,13.97-1.54,1.13-1.15,2.3-2.84,3.06-4.38.94-1.8,1.63-3.95,2.48-5.57,1.44-2.99,4.13-2.15,6.13-.23,5.52,5.03,9.46,12.13,9.2,19.79-.11.87-.35,1.76-.91,2.45-.78,1.01-2.39,1.11-2.22-.45,1.82-5.49-.54-15.22-5.62-15.46-1.93.09-1.26,1.98-2.42,2.71-.6.31-1.59-.11-2.24.24l-.04.02ZM41.81,64.68c1.12.01,2.07-.94,2.86-1.66,1.54-1.41,1.93-3.94,3.03-5.73.79-.85,2.07.95,2.88-.69.97-2.41,3.77-2.38,5.52-.82,1.54,1.34,2.43,3.18,3.31,5,.34.68.61,1.33.71,1.21-.66-3.1-2.8-6.24-4.78-8.85-1.45-1.73-5.35-6.59-7.57-4.28-1.63,1.7-2.27,6.04-5.23,9.73-1.34,1.7-3.09,3.13-5.01,4-2.33,1.07-4.9,1.39-7.43.84-.72-.16-1.52-.42-1.77-.38-.23.05-.01.2.17.34.57.4,1.34.61,1.93.99.87.56,1.6,1.51,2.79,1.65,2.15.37,4.31-.3,6.3-1.14.72-.33,1.56-.25,2.23-.21h.05Z"/>
  <path d="M59.5,74.54c-.33-.53.17-.97.77-1.56.77-.72,1.84-1.64,2.41-3.15,1.52-4.37-1.64-11.04-3.75-14.97-2.83-5.32-7.13-8.57-12.69-10.77-.17-.24.44-.53.36-.98-.06-.41-.31-.88.44-.66,9.91,2.43,17.3,14.71,17.83,24.75.11,2.86-.31,6.06-2.76,7.52-.71.48-1.88.62-2.58-.15l-.03-.03Z"/>
</svg>