<?xml version="1.0" encoding="UTF-8"?>
<svg id="Color_Kit" data-name="Color Kit" xmlns="http://www.w3.org/2000/svg" viewBox="0 0 100 100">
  <g>
    <g>
      <path d="M51.73,46.53c-.9,0-2.32,0-3.65.04.04-.78.08-1.72.08-2.82v-3.9c0-1.1-.04-2.05-.08-2.82,1.33.04,2.74.04,3.57.04.57,0,1.6,0,2.69-.07.13-.01.16.03.13.15l-.19.8c-.01.07-.05.08-.2.07-1.26-.11-2.16-.18-3.19-.18-.46,0-.68.15-.69.52-.03.59-.04,1.11-.04,1.65v.87c0,.35.18.42.45.42h.24c1.07,0,1.75-.01,2.51-.11.11-.01.16.06.11.18l-.27.74c-.04.15-.12.15-.3.14-.52-.04-1.45-.1-2.17-.1h-.12c-.27,0-.45.07-.45.42v1.01c0,.55,0,1.05.04,1.64.03.37.23.52.69.52,1.1,0,2.21-.11,3.48-.22.15-.01.22,0,.2.07l-.16.86c-.03.12-.03.16-.14.15-1.09-.07-1.77-.07-2.54-.07Z"/>
      <path d="M55.08,45.83l.16-.61c.38-1.43.64.6,3.18.6,1.13,0,1.48-.5,1.48-1.16,0-.59-.24-.81-1.36-1.51l-.99-.67c-1.6-1.07-2.28-1.64-2.28-2.78,0-1.76,1.76-2.89,3.38-2.89,1.05,0,2.39.46,2.28.79l-.18.49c-.45,1.43-.41-.3-2.69-.3-.9,0-1.32.45-1.32,1.11,0,.61.38.95,1.28,1.51l1.17.77c1.53.99,2.14,1.62,2.14,2.68,0,1.75-1.68,2.93-3.49,2.93-1.14,0-2.91-.45-2.77-.95Z"/>
      <path d="M61.78,45.83l.16-.61c.38-1.43.64.6,3.18.6,1.13,0,1.48-.5,1.48-1.16,0-.59-.24-.81-1.36-1.51l-.99-.67c-1.6-1.07-2.28-1.64-2.28-2.78,0-1.76,1.76-2.89,3.38-2.89,1.05,0,2.39.46,2.28.79l-.18.49c-.45,1.43-.41-.3-2.69-.3-.9,0-1.32.45-1.32,1.11,0,.61.38.95,1.28,1.51l1.17.77c1.53.99,2.14,1.62,2.14,2.68,0,1.75-1.68,2.93-3.49,2.93-1.14,0-2.9-.45-2.77-.95Z"/>
      <path d="M68.9,44.53l2.25-5.21c.39-.91.64-1.66.69-2.17.01-.12.97-.29,1.01-.19l3.23,7.6c.3.68.58,1.32.92,2h-2.12l-.91-2.03c-.16-.38-.27-.4-.64-.4h-2.66c-.41,0-.56,0-.69.4l-.71,2.03h-1.3c.31-.68.64-1.35.92-2.03ZM70.91,43.27h2.17c.18,0,.35-.04.27-.23l-1.36-3.29-1.36,3.29c-.08.19.09.23.27.23Z"/>
      <path d="M79.47,43.74v-1.42l-3.42-5.3h2.32c.52.9,1.45,2.37,2.08,3.34l.48.79.56-.79c.64-.93,1.58-2.44,2.02-3.34h1.38l-3.42,5.22v1.5c0,1.11.05,2.05.09,2.82h-2.19c.04-.78.1-1.72.1-2.82Z"/>
      <path d="M85.13,45.83l.16-.61c.38-1.43.64.6,3.18.6,1.13,0,1.48-.5,1.48-1.16,0-.59-.24-.81-1.36-1.51l-.99-.67c-1.6-1.07-2.28-1.64-2.28-2.78,0-1.76,1.76-2.89,3.38-2.89,1.05,0,2.39.46,2.28.79l-.18.49c-.45,1.43-.41-.3-2.69-.3-.9,0-1.32.45-1.32,1.11,0,.61.38.95,1.28,1.51l1.17.77c1.53.99,2.14,1.62,2.14,2.68,0,1.75-1.68,2.93-3.49,2.93-1.14,0-2.91-.45-2.77-.95Z"/>
    </g>
    <g>
      <path d="M48.08,69.09c.04-.78.08-1.72.08-2.82v-3.9c0-1.1-.04-2.05-.08-2.82,1.33.04,2.29-.03,3.45-.03,1.7,0,3.1.72,3.12,2.21.03,1.04-.62,1.84-1.74,2.07v.1c1.32,0,2.55.89,2.55,2.41,0,1.75-1.66,2.81-3.84,2.81-1.45,0-2.21-.07-3.54-.03ZM51.46,63.62c.82,0,1.13-.57,1.13-1.43,0-1.12-.57-1.88-1.65-1.88-.56,0-.77.15-.77.79v2.52h1.3ZM51.47,68.32c.87,0,1.87-.26,1.87-1.65,0-1.19-.71-2.28-1.89-2.28h-1.3v2.93c0,.6.33.99,1.32.99Z"/>
      <path d="M59.99,69.05c-.9,0-2.32,0-3.65.04.04-.78.08-1.72.08-2.82v-3.9c0-1.1-.04-2.05-.08-2.82h2.17c-.03.78-.09,1.72-.09,2.82v3.74c0,.55,0,1.05.04,1.64.03.37.23.52.69.52,1.1,0,2.29-.11,3.56-.22.15-.01.22,0,.2.07l-.16.86c-.03.12-.03.16-.14.15-1.09-.07-1.91-.07-2.62-.07Z"/>
      <path d="M62.91,64.38c0-2.76,2-5.06,4.98-5.06,2.81,0,4.93,2.06,4.93,4.91s-1.97,5.07-4.97,5.07c-2.8,0-4.94-2.09-4.94-4.92ZM68.43,68.27c1.1,0,2.46-.83,2.46-3.19,0-2.63-1.81-4.72-3.6-4.72-1.1,0-2.44.83-2.44,3.18,0,2.66,1.82,4.73,3.59,4.73Z"/>
      <path d="M73.28,64.38c0-2.76,2-5.06,4.98-5.06,2.81,0,4.93,2.06,4.93,4.91s-1.97,5.07-4.97,5.07c-2.8,0-4.94-2.09-4.94-4.92ZM78.81,68.27c1.1,0,2.46-.83,2.46-3.19,0-2.63-1.81-4.72-3.6-4.72-1.1,0-2.44.83-2.44,3.18,0,2.66,1.82,4.73,3.59,4.73Z"/>
      <path d="M84.53,65.08l.33-5.48c.01-.27.53-.3.71,0l4.02,7.21,3.69-7.21c.15-.3.72-.27.73-.01l.35,5.5c.07,1.34.16,2.67.29,4.01h-2.11c-.05-1.34-.11-2.67-.19-4.01l-.11-1.65-2.02,4.04c-.27.52-.43,1.08-.49,1.26-.07.18-.38.21-.68.21s-.38-.04-.46-.21l-3-5.48-.07,1.84c-.06,1.34-.1,2.67-.14,4.01h-1.18c.12-1.34.25-2.67.33-4.01Z"/>
    </g>
    <g>
      <g>
        <path d="M48.08,49.74c0-.24.56-.7.67-.7.12,0,.67.45.67.7s-.55.69-.67.69c-.11,0-.67-.45-.67-.69ZM49.12,51.75c.08-.02.14-.02.13.09-.04.37-.1,1.07-.1,1.99v1.42c0,.84.03,1.43.06,1.81h-.92c.03-.45.04-1.36.04-1.81v-1.42c0-.85-.03-1.43-.05-1.81l.85-.27Z"/>
        <path d="M50.36,55.25v-1.78c0-.58-.03-1.06-.06-1.45l.82-.25c.06-.02.09,0,.09.09,0,.35.08.46.26.39.5-.21,1.05-.52,1.72-.52,1.03,0,1.5.83,1.5,1.63v1.9c0,.84.03,1.43.06,1.81h-.91c.03-.45.04-1.36.04-1.81v-1.66c0-.93-.69-1.1-1.28-1.1s-1.41.14-1.41.43v2.32c0,.84.03,1.43.06,1.81h-.92c.03-.45.04-1.36.04-1.81Z"/>
      </g>
      <path d="M69.64,56.86c-.11,0-.16-.02-.21-.03-.05-.01-.09-.03-.18-.03-.1,0-.15,0-.2,0-.05,0-.1,0-.2,0s-.14,0-.19.01c-.05,0-.1.01-.2.01s-.15,0-.2,0c-.05,0-.1,0-.19,0-.1,0-.15,0-.2,0-.05,0-.1,0-.19,0s-.14,0-.19.01c-.05,0-.1.01-.21.01s-.15,0-.2,0c-.05,0-.1,0-.2,0s-.14,0-.19.01c-.05,0-.1.01-.2.01s-.16,0-.21-.02c-.05,0-.09-.02-.19-.02s-.14,0-.19.02c-.05.01-.1.02-.21.02s-.16,0-.21-.02c-.05,0-.09-.02-.19-.02s-.14.01-.19.02c-.05.01-.11.02-.21.02s-.16-.01-.21-.02c-.05,0-.09-.02-.19-.02-.1,0-.15,0-.2,0-.05,0-.1,0-.19,0s-.14,0-.19.02c-.05,0-.1.02-.21.02-.1,0-.14,0-.19.01-.05,0-.1.01-.2.01s-.16-.01-.21-.03c-.05-.01-.09-.02-.18-.02s-.14.01-.19.02c-.05.01-.1.02-.21.02s-.15,0-.2,0c-.05,0-.1,0-.2,0-.1,0-.16,0-.21-.02-.05,0-.09-.02-.19-.02s-.15,0-.2,0c-.05,0-.1,0-.2,0s-.15,0-.2,0c-.05,0-.1,0-.2,0s-.15,0-.2-.01c-.05,0-.1-.01-.19-.01s-.14,0-.19.02c-.05,0-.1.02-.21.02s-.15,0-.2,0c-.05,0-.1,0-.2,0s-.15,0-.2,0c-.05,0-.1,0-.2,0-.1,0-.16-.01-.21-.02-.05-.01-.09-.02-.19-.02s-.14.01-.18.02c-.05.01-.11.03-.21.03s-.16,0-.21-.02c-.05,0-.09-.02-.19-.02-.1,0-.15,0-.2,0-.05,0-.1,0-.19,0-.03,0-.05-.02-.05-.05s.02-.05.05-.05c.1,0,.15,0,.2,0,.05,0,.1,0,.19,0,.1,0,.16,0,.21.02.05,0,.09.02.19.02s.14-.01.18-.02c.05-.01.11-.03.21-.03s.16.01.21.02c.05.01.09.02.19.02.1,0,.15,0,.2,0,.05,0,.1,0,.2,0s.15,0,.2,0c.05,0,.1,0,.2,0,.09,0,.14,0,.19-.02.05,0,.1-.02.21-.02s.15,0,.2.01c.05,0,.1.01.19.01s.15,0,.2,0c.05,0,.1,0,.2,0s.15,0,.2,0c.05,0,.1,0,.2,0s.16,0,.21.02c.05,0,.09.02.19.02.1,0,.15,0,.2,0,.05,0,.1,0,.2,0,.09,0,.14-.01.19-.02.05-.01.1-.02.21-.02s.16.01.21.03c.05.01.09.02.18.02s.14,0,.19-.01c.05,0,.1-.01.2-.01.09,0,.14,0,.19-.02.05,0,.1-.02.21-.02s.15,0,.2,0c.05,0,.1,0,.19,0,.1,0,.16.01.21.02.05,0,.09.02.19.02s.14-.01.19-.02c.05-.01.11-.02.21-.02s.16,0,.21.02c.05,0,.09.02.19.02s.14,0,.19-.02c.05,0,.1-.02.21-.02s.16,0,.21.02c.05,0,.09.02.19.02s.14,0,.19-.01c.05,0,.1-.01.2-.01s.15,0,.2,0c.05,0,.1,0,.2,0s.14,0,.19-.01c.05,0,.1-.01.21-.01s.15,0,.2,0c.05,0,.1,0,.19,0s.15,0,.2,0c.05,0,.1,0,.19,0s.14,0,.19-.01c.05,0,.1-.01.2-.01s.15,0,.2,0c.05,0,.1,0,.2,0,.11,0,.16.02.21.03.05.01.09.03.18.03.1,0,.14,0,.19,0,.05,0,.1,0,.2,0,.2,0,.2,0,.39,0,.09,0,.14,0,.19-.02.05,0,.1-.02.21-.02s.15,0,.2.01c.05,0,.1.01.19.01.2,0,.2,0,.4,0,.1,0,.15,0,.2,0,.05,0,.1,0,.19,0s.15,0,.2,0c.05,0,.1,0,.2,0,.09,0,.14,0,.19-.02.05-.01.1-.02.21-.02s.15,0,.2,0c.05,0,.1,0,.2,0s.15,0,.2,0c.05,0,.1,0,.19,0s.15,0,.2,0c.05,0,.1,0,.2,0,.1,0,.15,0,.2.01.05,0,.1.01.19.01s.14-.01.18-.03c.05-.02.11-.03.21-.03s.16.01.21.02c.05.01.09.02.19.02.1,0,.15,0,.2,0,.05,0,.1,0,.2,0s.15,0,.2,0c.05,0,.1,0,.2,0s.16,0,.21.02c.05,0,.09.02.19.02s.14,0,.19-.02c.05,0,.1-.02.21-.02s.15,0,.21.01c.05,0,.09.01.19.01s.14-.01.18-.03c.05-.01.11-.03.21-.03s.15,0,.2,0c.05,0,.1,0,.19,0,.1,0,.16,0,.21.01.05,0,.1.01.19.01s.15,0,.2,0c.05,0,.1,0,.2,0s.15,0,.2.01c.05,0,.1,0,.19,0s.15,0,.2,0c.05,0,.1,0,.2,0,.09,0,.14,0,.19-.02.05,0,.1-.02.21-.02s.16,0,.21.02c.05,0,.1.02.19.02.1,0,.15,0,.2,0,.05,0,.1,0,.19,0s.14,0,.19-.01c.05,0,.1-.02.21-.02.1,0,.14,0,.19-.01.05,0,.1-.02.21-.02h.4c.1,0,.15,0,.2.01.05,0,.1,0,.19,0s.14,0,.19-.01c.05,0,.1-.01.21-.01s.15,0,.21.01c.05,0,.1.01.19.01.1,0,.16,0,.21.02.05,0,.1.02.19.02s.15,0,.2,0c.05,0,.1,0,.2,0s.15,0,.2,0c.05,0,.1,0,.2,0,.09,0,.14-.01.18-.03.05-.01.11-.03.21-.03.1,0,.15,0,.2,0,.05,0,.1,0,.2,0,.11,0,.16.01.21.03.05.01.09.02.19.02.1,0,.15,0,.2,0,.05,0,.1,0,.2,0s.14,0,.19-.01c.05,0,.1-.02.21-.02.1,0,.14,0,.19,0,.05,0,.1-.01.2-.01s.15,0,.2,0c.05,0,.1,0,.2,0s.15,0,.2.01c.05,0,.1.01.19.01.1,0,.15,0,.2.01.05,0,.1.01.19.01s.14-.01.19-.02c.05-.01.11-.02.21-.02s.15,0,.2,0c.05,0,.1,0,.2,0,.1,0,.15,0,.21.01.05,0,.1,0,.19,0s.14-.01.19-.02c.05-.01.11-.03.21-.03s.16.02.21.03c.05.01.09.03.18.03s.14,0,.19-.02c.05,0,.1-.02.21-.02.2,0,.2,0,.4,0,.2,0,.2,0,.4,0,.1,0,.14,0,.19-.01.05,0,.1-.01.21-.01s.15,0,.21,0c.05,0,.1,0,.2,0,.1,0,.16,0,.21.02.05,0,.1.02.19.02h.4c.1,0,.14,0,.19-.02.05,0,.1-.02.21-.02s.16,0,.21.02c.05,0,.1.02.19.02.1,0,.15,0,.2,0,.05,0,.1,0,.2,0s.14,0,.2-.01.1-.01.21-.01c.1,0,.14,0,.19-.02.05,0,.11-.02.21-.02.03,0,.05.02.05.05s-.02.05-.05.05c-.1,0-.14,0-.19.02-.05,0-.11.02-.21.02-.1,0-.14,0-.2.01s-.1.01-.21.01-.15,0-.2,0c-.05,0-.1,0-.2,0-.1,0-.16,0-.21-.02-.05,0-.1-.02-.19-.02s-.14,0-.19.02c-.05,0-.1.02-.21.02h-.4c-.1,0-.16,0-.21-.02-.05,0-.09-.02-.19-.02-.1,0-.15,0-.2,0-.05,0-.1,0-.2,0s-.14,0-.19.01-.1.01-.2.01c-.2,0-.2,0-.4,0-.2,0-.2,0-.4,0-.09,0-.14,0-.19.02-.05,0-.1.02-.21.02s-.16-.02-.21-.03c-.05-.01-.09-.03-.18-.03s-.14.01-.19.02c-.05.01-.11.03-.21.03s-.15,0-.2-.01c-.05,0-.1,0-.19,0s-.15,0-.2,0c-.05,0-.1,0-.2,0s-.14.01-.19.02c-.05.01-.11.02-.21.02s-.15,0-.2-.01c-.05,0-.1-.01-.19-.01-.1,0-.15,0-.2-.01-.05,0-.1-.01-.19-.01-.1,0-.15,0-.2,0-.05,0-.1,0-.2,0s-.14,0-.19,0c-.05,0-.1.01-.2.01-.1,0-.14,0-.19.01-.05,0-.1.02-.21.02s-.15,0-.2,0c-.05,0-.1,0-.2,0-.11,0-.16-.01-.21-.03-.05-.01-.09-.02-.19-.02-.1,0-.15,0-.2,0-.05,0-.1,0-.2,0-.09,0-.14.01-.18.03-.05.01-.11.03-.21.03s-.15,0-.2,0c-.05,0-.1,0-.19,0s-.15,0-.2,0c-.05,0-.1,0-.2,0s-.16,0-.21-.02c-.05,0-.1-.02-.19-.02-.1,0-.15,0-.2-.01s-.1-.01-.19-.01-.14,0-.19.01c-.05,0-.1.01-.2.01s-.15,0-.2-.01c-.05,0-.1,0-.19,0h-.4c-.09,0-.14,0-.19.01-.05,0-.1.02-.21.02-.09,0-.14,0-.19.01-.05,0-.1.02-.21.02s-.15,0-.2,0c-.05,0-.1,0-.2,0-.1,0-.16,0-.21-.02-.05,0-.09-.02-.19-.02s-.14,0-.19.02c-.05,0-.1.02-.21.02-.1,0-.15,0-.2,0-.05,0-.1,0-.2,0s-.15,0-.2-.01c-.05,0-.1,0-.19,0s-.15,0-.2,0c-.05,0-.1,0-.2,0s-.16,0-.21-.01c-.05,0-.1-.01-.19-.01-.1,0-.15,0-.2,0-.05,0-.1,0-.19,0-.09,0-.14.01-.18.03-.05.01-.11.03-.21.03s-.15,0-.21-.01c-.05,0-.09-.01-.19-.01s-.14,0-.19.02c-.05,0-.1.02-.21.02s-.16,0-.21-.02c-.05,0-.09-.02-.19-.02s-.15,0-.19,0c-.05,0-.1,0-.2,0s-.15,0-.2,0c-.05,0-.1,0-.2,0-.1,0-.16-.01-.21-.02-.05-.01-.09-.02-.19-.02s-.13.01-.18.03c-.05.02-.11.03-.21.03s-.15,0-.2-.01c-.05,0-.1-.01-.19-.01s-.15,0-.2,0c-.05,0-.1,0-.2,0s-.15,0-.2,0c-.05,0-.1,0-.19,0s-.15,0-.2,0c-.05,0-.1,0-.2,0-.09,0-.14,0-.19.02-.05.01-.1.02-.21.02-.1,0-.15,0-.2,0-.05,0-.1,0-.2,0s-.15,0-.2,0c-.05,0-.1,0-.19,0-.2,0-.2,0-.4,0-.1,0-.15,0-.21-.01-.05,0-.1-.01-.19-.01s-.14,0-.19.02c-.05,0-.1.02-.21.02-.2,0-.2,0-.39,0-.1,0-.14,0-.19,0-.05,0-.1,0-.2,0Z"/>
      <path d="M83.97,54.76c-.1,0-.15,0-.2,0-.05,0-.1,0-.2,0s-.15,0-.2,0c-.05,0-.1,0-.2,0-.11,0-.16-.01-.21-.02-.05-.01-.09-.02-.19-.02s-.15,0-.2,0c-.05,0-.1,0-.2,0s-.14,0-.19.01c-.05,0-.1.01-.21.01-.1,0-.14,0-.19.01-.05,0-.1.01-.21.01s-.16,0-.21-.02c-.05,0-.09-.02-.19-.02s-.15,0-.2,0c-.05,0-.1,0-.2,0s-.15,0-.2,0c-.05,0-.1,0-.2,0s-.14,0-.19.02c-.05,0-.1.02-.21.02s-.16,0-.21-.02c-.05,0-.09-.02-.19-.02s-.14,0-.19.01c-.05,0-.1.01-.21.01s-.15,0-.2,0c-.05,0-.1,0-.2,0s-.15,0-.2,0-.1,0-.19,0-.14,0-.19.01c-.05,0-.1.01-.2.01s-.15,0-.2,0c-.05,0-.1,0-.2,0s-.16,0-.21-.02c-.05,0-.1-.02-.19-.02-.1,0-.15,0-.2,0-.05,0-.1,0-.2,0-.09,0-.14.01-.18.02-.05.01-.11.03-.21.03-.1,0-.15,0-.2,0-.05,0-.1,0-.2,0s-.15,0-.2,0c-.05,0-.1,0-.2,0-.1,0-.16-.01-.21-.02-.05,0-.09-.02-.19-.02s-.15,0-.2,0c-.05,0-.1,0-.2,0-.09,0-.14,0-.19.02-.05,0-.1.02-.21.02s-.16,0-.21-.02c-.05,0-.09-.02-.19-.02s-.15,0-.19,0c-.05,0-.1,0-.2,0s-.16-.01-.21-.03c-.05-.01-.09-.02-.18-.02-.1,0-.15,0-.19,0-.05,0-.1,0-.2,0s-.14,0-.19.01c-.05,0-.1.01-.2.01h-.4c-.1,0-.16,0-.21-.02-.05,0-.09-.02-.19-.02s-.14,0-.19.02c-.05,0-.1.02-.21.02-.1,0-.14,0-.19.01-.05,0-.1.01-.21.01s-.15,0-.2,0c-.05,0-.1,0-.2,0-.1,0-.15,0-.2-.01s-.1-.01-.19-.01-.15,0-.2,0c-.05,0-.1,0-.2,0s-.15,0-.2,0c-.05,0-.1,0-.19,0s-.14,0-.19.02c-.05,0-.1.02-.21.02s-.16,0-.21-.02c-.05,0-.09-.02-.19-.02-.1,0-.15,0-.2,0-.05,0-.1,0-.2,0-.09,0-.14.01-.18.02-.05.01-.11.03-.21.03s-.16,0-.21-.02c-.05,0-.1-.01-.19-.01s-.15,0-.19,0c-.05,0-.1,0-.2,0-.1,0-.14,0-.19.01-.05,0-.1.01-.21.01s-.16-.01-.21-.02c-.05-.01-.09-.02-.19-.02-.1,0-.15,0-.2,0-.05,0-.1,0-.2,0-.09,0-.14,0-.19.02-.05,0-.1.02-.21.02h-.4c-.1,0-.16-.01-.21-.02-.05,0-.09-.02-.19-.02-.1,0-.15,0-.2,0-.05,0-.1,0-.2,0s-.15,0-.2,0c-.05,0-.1,0-.2,0s-.14,0-.19.02c-.05.01-.1.02-.21.02s-.15,0-.2,0c-.05,0-.1,0-.2,0-.1,0-.16-.01-.21-.02-.05-.01-.09-.02-.19-.02s-.14,0-.19.02c-.05.01-.1.02-.21.02s-.16,0-.21-.02c-.05,0-.09-.02-.19-.02s-.14.01-.19.02c-.05.01-.11.02-.21.02-.1,0-.15,0-.2,0-.05,0-.1,0-.2,0h-.4c-.1,0-.16,0-.21-.01-.05,0-.1-.01-.19-.01-.1,0-.16,0-.21-.01-.05,0-.1-.01-.19-.01s-.14,0-.19.02c-.05.01-.11.02-.21.02-.1,0-.15,0-.2,0-.05,0-.1,0-.2,0-.11,0-.16-.01-.21-.03-.05-.01-.09-.03-.18-.03-.1,0-.15,0-.2,0-.05,0-.1,0-.2,0-.09,0-.14.01-.19.02-.05.01-.11.02-.21.02-.03,0-.05-.02-.05-.05s.02-.05.05-.05c.09,0,.14-.01.19-.02.05-.01.11-.02.21-.02.1,0,.15,0,.2,0,.05,0,.1,0,.2,0,.11,0,.16.01.21.03.05.01.09.03.18.03.1,0,.15,0,.2,0,.05,0,.1,0,.2,0,.09,0,.14,0,.19-.02.05-.01.11-.02.21-.02s.15,0,.21.01c.05,0,.1.01.19.01.1,0,.16,0,.21.01.05,0,.1.01.19.01h.4c.1,0,.15,0,.2,0,.05,0,.1,0,.2,0,.09,0,.14-.01.19-.02.05-.01.11-.02.21-.02s.16,0,.21.02c.05,0,.09.02.19.02s.14,0,.19-.02c.05-.01.1-.02.21-.02s.16.01.21.02c.05.01.09.02.19.02.1,0,.15,0,.2,0,.05,0,.1,0,.2,0s.14,0,.19-.02c.05-.01.1-.02.21-.02s.15,0,.2,0c.05,0,.1,0,.2,0s.15,0,.2,0c.05,0,.1,0,.2,0s.16.01.21.02c.05,0,.09.02.19.02h.4c.09,0,.14,0,.19-.02.05,0,.1-.02.21-.02s.15,0,.2,0c.05,0,.1,0,.2,0,.11,0,.16.01.21.02.05.01.09.02.19.02s.14,0,.19-.01c.05,0,.1-.01.21-.01.1,0,.14,0,.19,0,.05,0,.1,0,.2,0s.16,0,.21.02c.05,0,.1.01.19.01s.14-.01.18-.02c.05-.01.11-.03.21-.03s.15,0,.2,0c.05,0,.1,0,.19,0,.1,0,.16,0,.21.02.05,0,.09.02.19.02s.14,0,.19-.02c.05,0,.1-.02.21-.02s.15,0,.2,0,.1,0,.19,0,.15,0,.2,0c.05,0,.1,0,.2,0s.15,0,.2.01.1.01.19.01c.1,0,.15,0,.2,0,.05,0,.1,0,.2,0s.14,0,.19-.01c.05,0,.1-.01.2-.01.09,0,.14,0,.19-.02.05,0,.1-.02.21-.02s.16,0,.21.02c.05,0,.09.02.19.02h.4c.1,0,.14,0,.19-.01.05,0,.1-.01.2-.01.1,0,.14,0,.19,0,.05,0,.1,0,.2,0s.16.01.21.03c.05.01.09.02.18.02.1,0,.14,0,.19,0,.05,0,.1,0,.2,0s.16,0,.21.02c.05,0,.09.02.19.02s.14,0,.19-.02c.05,0,.1-.02.21-.02.1,0,.15,0,.2,0,.05,0,.1,0,.2,0s.16.01.21.02c.05,0,.09.02.19.02.1,0,.15,0,.2,0,.05,0,.1,0,.2,0s.15,0,.2,0c.05,0,.1,0,.2,0,.09,0,.14-.01.19-.02.05-.01.11-.03.21-.03s.15,0,.2,0c.05,0,.1,0,.2,0,.1,0,.16,0,.21.02.05,0,.09.02.19.02s.15,0,.2,0c.05,0,.1,0,.2,0s.14,0,.19-.01c.05,0,.1-.01.2-.01s.15,0,.2,0,.1,0,.19,0,.15,0,.2,0c.05,0,.1,0,.2,0s.14,0,.19-.01c.05,0,.1-.01.21-.01s.16,0,.21.02c.05,0,.1.02.19.02s.14,0,.19-.02c.05,0,.1-.02.21-.02s.15,0,.2,0c.05,0,.1,0,.2,0s.15,0,.2,0c.05,0,.1,0,.2,0s.16,0,.21.02c.05,0,.09.02.19.02s.14,0,.19-.01c.05,0,.1-.01.21-.01.1,0,.14,0,.19-.01.05,0,.1-.01.21-.01s.15,0,.2,0c.05,0,.1,0,.2,0s.16.01.21.02c.05.01.09.02.19.02.1,0,.15,0,.2,0,.05,0,.1,0,.2,0s.15,0,.2,0c.05,0,.1,0,.2,0,.09,0,.14-.01.19-.03.05-.01.11-.03.21-.03.1,0,.15,0,.2,0,.05,0,.1,0,.2,0,.2,0,.2,0,.4,0,.1,0,.15,0,.2,0,.05,0,.1,0,.2,0,.11,0,.16.01.21.03.05.01.09.03.19.03.2,0,.2,0,.4,0,.1,0,.15,0,.2,0,.05,0,.1,0,.2,0s.15,0,.2,0c.05,0,.1,0,.2,0s.14,0,.19-.01c.05,0,.1-.01.21-.01.1,0,.14,0,.19-.01.05,0,.1-.01.21-.01s.15,0,.2.01c.05,0,.1.01.19.01s.14,0,.19-.01c.05,0,.1-.01.2-.01s.16.01.21.03c.05.01.09.03.19.03s.14,0,.19-.01c.05,0,.1-.01.21-.01s.15,0,.2,0c.05,0,.1,0,.2,0,.2,0,.2,0,.4,0,.1,0,.15,0,.2,0,.05,0,.1,0,.2,0,.09,0,.14-.01.18-.03.05-.02.11-.03.22-.03s.16,0,.21.01c.05,0,.1.01.19.01s.14,0,.19-.01c.05,0,.1-.01.21-.01s.15,0,.2,0c.05,0,.1,0,.2,0,.11,0,.16.01.21.03.05.01.09.02.19.02.2,0,.2,0,.4,0,.1,0,.15,0,.2,0,.05,0,.1,0,.2,0,.03,0,.05.02.05.05s-.02.05-.05.05c-.1,0-.15,0-.2,0-.05,0-.1,0-.2,0-.2,0-.2,0-.4,0-.11,0-.16-.01-.22-.03-.05-.01-.09-.02-.19-.02-.1,0-.15,0-.2,0-.05,0-.1,0-.2,0s-.14,0-.19.01c-.05,0-.1.01-.21.01s-.16,0-.21-.01c-.05,0-.1-.01-.19-.01s-.14.01-.19.03c-.05.02-.11.03-.22.03-.1,0-.15,0-.2,0-.05,0-.1,0-.2,0-.2,0-.2,0-.4,0-.1,0-.15,0-.2,0-.05,0-.1,0-.2,0s-.14,0-.19.01c-.05,0-.1.01-.21.01s-.16-.01-.21-.03c-.05-.01-.09-.03-.19-.03s-.14,0-.19.01c-.05,0-.1.01-.21.01s-.15,0-.2-.01c-.05,0-.1-.01-.19-.01s-.14,0-.19.01c-.05,0-.1.01-.21.01-.1,0-.14,0-.19.01-.05,0-.1.01-.21.01s-.15,0-.2,0c-.05,0-.1,0-.2,0s-.15,0-.2,0c-.05,0-.1,0-.2,0-.2,0-.2,0-.4,0-.11,0-.16-.01-.21-.03-.05-.01-.09-.03-.19-.03-.1,0-.15,0-.2,0-.05,0-.1,0-.2,0-.2,0-.2,0-.4,0-.1,0-.15,0-.2,0-.05,0-.1,0-.2,0-.09,0-.14.01-.19.03-.05.01-.11.03-.21.03Z"/>
      <path d="M58.55,52.65c-.1,0-.16,0-.21-.02-.05,0-.09-.02-.19-.02-.1,0-.15,0-.2-.01-.05,0-.1-.01-.19-.01-.03,0-.05-.02-.05-.05s.02-.05.05-.05c.1,0,.15,0,.2.01.05,0,.1.01.19.01.1,0,.16,0,.21.02.05,0,.09.02.19.02s.15,0,.2,0c.05,0,.1,0,.2,0s.14,0,.19-.01c.05,0,.1-.01.2-.01.09,0,.14,0,.19-.02.05,0,.1-.02.21-.02s.16.01.21.03c.05.01.09.02.18.02.2,0,.2,0,.39,0,.1,0,.14,0,.19-.01.05,0,.1-.01.2-.01.1,0,.14,0,.19,0,.05,0,.1-.01.2-.01s.15,0,.2.01c.05,0,.09.01.19.01s.14,0,.19,0c.05,0,.1,0,.2,0s.16.01.21.02c.05,0,.09.02.19.02s.14-.01.18-.02c.05-.01.11-.03.21-.03s.16,0,.21.02c.05,0,.09.02.19.02s.15,0,.19,0c.05,0,.1,0,.2,0s.15,0,.2.01c.05,0,.1.01.19.01s.14-.01.19-.02c.05-.01.1-.02.21-.02.1,0,.15,0,.2,0,.05,0,.1,0,.2,0,.2,0,.2,0,.4,0,.1,0,.15,0,.2.01.05,0,.09.01.19.01.1,0,.15,0,.2,0,.05,0,.1,0,.19,0s.14,0,.19-.02c.05,0,.1-.02.21-.02s.16.01.21.02c.05.01.09.02.18.02s.14-.01.18-.02c.05-.01.11-.03.21-.03s.16,0,.21.02c.05,0,.09.02.19.02.1,0,.15,0,.2.01.05,0,.09.01.19.01.2,0,.2,0,.4,0,.1,0,.15,0,.2,0,.05,0,.1,0,.2,0s.15,0,.2,0c.05,0,.1,0,.2,0,.09,0,.14-.01.18-.02.05-.01.11-.03.21-.03.1,0,.15,0,.2,0,.05,0,.1,0,.2,0s.15,0,.2,0c.05,0,.1,0,.2,0s.16,0,.21.02c.05,0,.09.02.19.02s.14,0,.19-.01c.05,0,.1-.02.21-.02s.15,0,.2,0c.05,0,.1,0,.19,0,.1,0,.15,0,.2.01.05,0,.1.01.19.01s.14,0,.19,0c.05,0,.1,0,.2,0s.14,0,.19,0c.05,0,.1,0,.2,0s.15,0,.2.01c.05,0,.09.01.19.01s.14,0,.19,0c.05,0,.1,0,.2,0s.16,0,.21.02c.05,0,.09.02.19.02.1,0,.15,0,.2,0,.05,0,.1,0,.2,0,.2,0,.2,0,.4,0,.1,0,.15,0,.2,0,.05,0,.1,0,.2,0,.09,0,.14,0,.19-.02.05,0,.1-.02.21-.02s.15,0,.2,0c.05,0,.1,0,.2,0s.15,0,.2.01c.05,0,.1.01.19.01s.15,0,.2,0c.05,0,.1,0,.2,0s.14,0,.19-.02c.05,0,.1-.02.21-.02s.16.01.21.03c.05.01.09.02.18.02s.14,0,.19,0c.05,0,.1,0,.2,0,.09,0,.14-.01.19-.02.05-.01.1-.02.21-.02s.15,0,.2,0c.05,0,.1,0,.2,0s.15,0,.2.01c.05,0,.1.01.19.01h.4c.1,0,.15,0,.2,0,.05,0,.1,0,.2,0s.15,0,.19,0c.05,0,.1,0,.2,0s.15,0,.19,0c.05,0,.1,0,.2,0s.15,0,.2,0c.05,0,.1,0,.2,0s.15,0,.2,0c.05,0,.1,0,.2,0h.4c.1,0,.15,0,.2,0,.05,0,.1,0,.2,0,.11,0,.16.01.21.03.05.01.09.02.19.02.1,0,.15,0,.2,0,.05,0,.1,0,.2,0s.14,0,.19-.01c.05,0,.1-.01.21-.01.1,0,.14,0,.19,0,.05,0,.1,0,.2,0s.16.01.21.02c.05.01.09.02.19.02.1,0,.15,0,.2,0,.05,0,.1,0,.2,0,.09,0,.14,0,.19-.02.05,0,.1-.02.21-.02s.15,0,.2.01c.05,0,.1.01.19.01.1,0,.15,0,.21.01.05,0,.1.01.19.01s.15,0,.2,0c.05,0,.1,0,.2,0s.14-.01.19-.02c.05-.01.11-.03.21-.03s.16,0,.21.02c.05,0,.1.01.19.01s.14,0,.19-.02c.05,0,.1-.02.21-.02s.16,0,.21.02c.05,0,.1.01.19.01.1,0,.16,0,.21.02.05,0,.1.01.19.01h.4c.1,0,.14,0,.19-.01.05,0,.1-.01.21-.01s.15,0,.2,0c.05,0,.1,0,.2,0s.14,0,.19,0c.05,0,.1,0,.2,0s.16,0,.21.02c.05,0,.1.02.19.02.1,0,.15,0,.2,0,.05,0,.1,0,.2,0h.4c.09,0,.14-.01.19-.02.05-.01.11-.02.21-.02.03,0,.05.02.05.05s-.02.05-.05.05c-.09,0-.14.01-.19.02-.05.01-.11.02-.21.02h-.4c-.1,0-.15,0-.2,0-.05,0-.1,0-.2,0s-.16,0-.21-.02c-.05,0-.1-.02-.19-.02s-.14,0-.19,0c-.05,0-.1,0-.2,0s-.15,0-.2,0c-.05,0-.1,0-.2,0s-.14,0-.19.01c-.05,0-.1.01-.21.01h-.4c-.1,0-.16,0-.21-.01-.05,0-.1-.01-.19-.01-.1,0-.16,0-.21-.02-.05,0-.1-.01-.19-.01s-.14,0-.19.02c-.05,0-.1.02-.21.02s-.16,0-.21-.02c-.05,0-.1-.01-.19-.01s-.14.01-.19.02c-.05.01-.11.03-.21.03s-.15,0-.2,0c-.05,0-.1,0-.2,0s-.15,0-.21-.01c-.05,0-.1-.01-.19-.01-.1,0-.15,0-.2-.01-.05,0-.1-.01-.19-.01s-.14,0-.19.02c-.05,0-.1.02-.21.02-.1,0-.15,0-.2,0-.05,0-.1,0-.2,0-.1,0-.16-.01-.21-.02-.05-.01-.09-.02-.19-.02s-.14,0-.19,0c-.05,0-.1,0-.2,0-.1,0-.14,0-.19.01-.05,0-.1.01-.21.01s-.15,0-.2,0c-.05,0-.1,0-.2,0-.11,0-.16-.01-.21-.03-.05-.01-.09-.02-.19-.02-.1,0-.15,0-.2,0-.05,0-.1,0-.2,0h-.4c-.1,0-.15,0-.2,0-.05,0-.1,0-.2,0s-.15,0-.19,0c-.05,0-.1,0-.2,0s-.14,0-.19,0c-.05,0-.1,0-.2,0s-.15,0-.19,0c-.05,0-.1,0-.2,0s-.15,0-.2,0c-.05,0-.1,0-.2,0h-.4c-.1,0-.16,0-.21-.01-.05,0-.1-.01-.19-.01s-.15,0-.2,0c-.05,0-.1,0-.2,0-.09,0-.14.01-.19.02-.05.01-.1.02-.21.02-.1,0-.15,0-.19,0-.05,0-.1,0-.2,0-.11,0-.16-.01-.21-.03-.05-.01-.09-.02-.18-.02s-.14,0-.19.02c-.05,0-.1.02-.21.02s-.15,0-.2,0c-.05,0-.1,0-.2,0s-.15,0-.2-.01c-.05,0-.1-.01-.19-.01s-.15,0-.2,0c-.05,0-.1,0-.2,0s-.14,0-.19.02c-.05,0-.1.02-.21.02-.1,0-.15,0-.2,0-.05,0-.1,0-.2,0-.2,0-.2,0-.4,0-.1,0-.15,0-.2,0-.05,0-.1,0-.2,0-.1,0-.16,0-.21-.02-.05,0-.09-.02-.19-.02s-.14,0-.19,0c-.05,0-.1,0-.2,0s-.15,0-.2-.01c-.05,0-.09-.01-.19-.01s-.14,0-.19,0c-.05,0-.1,0-.2,0s-.14,0-.19,0c-.05,0-.1,0-.2,0s-.15,0-.2-.01c-.05,0-.1-.01-.19-.01s-.15,0-.2,0c-.05,0-.1,0-.19,0s-.14,0-.19.01c-.05,0-.1.02-.2.02s-.16,0-.21-.02c-.05,0-.09-.02-.19-.02s-.15,0-.2,0c-.05,0-.1,0-.2,0s-.15,0-.2,0c-.05,0-.1,0-.2,0-.09,0-.14.01-.18.02-.05.01-.11.03-.21.03-.1,0-.15,0-.2,0-.05,0-.1,0-.2,0s-.15,0-.2,0c-.05,0-.1,0-.2,0-.2,0-.2,0-.4,0-.1,0-.15,0-.2-.01-.05,0-.09-.01-.19-.01-.1,0-.16,0-.21-.02-.05,0-.09-.02-.19-.02s-.14.01-.18.02c-.05.01-.11.03-.21.03s-.16-.01-.21-.02c-.05-.01-.09-.02-.19-.02s-.14,0-.19.02c-.05,0-.1.02-.21.02s-.15,0-.2,0c-.05,0-.1,0-.19,0-.1,0-.15,0-.2-.01-.05,0-.09-.01-.19-.01-.2,0-.2,0-.4,0-.1,0-.15,0-.19,0-.05,0-.1,0-.2,0-.09,0-.14.01-.19.02-.05.01-.1.02-.21.02s-.15,0-.2-.01c-.05,0-.1-.01-.19-.01s-.15,0-.19,0c-.05,0-.1,0-.2,0s-.16,0-.21-.02c-.05,0-.09-.02-.19-.02s-.14.01-.19.02c-.05.01-.1.03-.21.03s-.16-.01-.21-.02c-.05,0-.09-.02-.19-.02s-.14,0-.19,0c-.05,0-.1,0-.2,0s-.15,0-.2-.01c-.05,0-.09-.01-.19-.01s-.14,0-.19,0c-.05,0-.1.01-.2.01-.1,0-.14,0-.19.01-.05,0-.1.01-.2.01-.2,0-.2,0-.39,0-.11,0-.16-.01-.21-.03-.05-.01-.09-.02-.18-.02s-.14,0-.19.02c-.05,0-.1.02-.21.02-.1,0-.14,0-.19.01-.05,0-.1.01-.2.01s-.15,0-.2,0c-.05,0-.1,0-.2,0Z"/>
      <path d="M83.4,50.55c-.11,0-.16-.02-.21-.03-.05-.01-.09-.03-.18-.03s-.14,0-.19.01c-.05,0-.1.01-.2.01s-.16,0-.21-.02c-.05,0-.09-.01-.19-.01s-.14,0-.19.01c-.05,0-.1.01-.2.01-.2,0-.2,0-.4,0s-.2,0-.4,0c-.1,0-.15,0-.21-.01-.05,0-.1-.01-.19-.01s-.15,0-.2,0c-.05,0-.1,0-.2,0s-.15,0-.2,0c-.05,0-.1,0-.2,0-.2,0-.2,0-.4,0-.1,0-.14,0-.19,0-.05,0-.1,0-.2,0-.09,0-.14.01-.18.02-.05.01-.1.03-.21.03s-.15,0-.2-.01c-.05,0-.1-.01-.19-.01s-.14,0-.19,0c-.05,0-.1,0-.2,0s-.15,0-.2,0c-.05,0-.1,0-.2,0s-.15,0-.2-.01c-.05,0-.1-.01-.19-.01s-.15,0-.2,0c-.05,0-.1,0-.2,0s-.14,0-.19.01c-.05,0-.1.01-.21.01s-.15,0-.2-.01c-.05,0-.1-.01-.19-.01s-.15,0-.2,0c-.05,0-.1,0-.2,0s-.14,0-.19.02c-.05,0-.1.02-.21.02h-.39c-.1,0-.15,0-.2-.01-.05,0-.09-.01-.19-.01s-.15,0-.2,0c-.05,0-.1,0-.2,0s-.14,0-.19.01c-.05,0-.1.01-.2.01s-.15,0-.19,0c-.05,0-.1,0-.2,0-.11,0-.16-.02-.21-.03-.05-.01-.09-.03-.18-.03h-.39c-.09,0-.14.01-.18.03-.05.01-.11.03-.21.03-.1,0-.15,0-.2,0-.05,0-.1,0-.19,0s-.15,0-.2,0c-.05,0-.1,0-.2,0s-.15,0-.2,0c-.05,0-.1,0-.19,0s-.15,0-.2,0c-.05,0-.1,0-.19,0s-.15,0-.2,0c-.05,0-.1,0-.19,0s-.15,0-.2,0c-.05,0-.1,0-.2,0s-.15,0-.2,0c-.05,0-.1,0-.2,0-.09,0-.14,0-.19.02-.05,0-.1.02-.21.02s-.15,0-.2,0c-.05,0-.1,0-.2,0s-.15,0-.2-.02c-.05,0-.09-.02-.19-.02-.1,0-.15,0-.2,0-.05,0-.1,0-.19,0-.09,0-.13.01-.18.03-.05.02-.11.03-.21.03s-.16-.01-.21-.03c-.05-.01-.09-.03-.18-.03s-.13.01-.18.03c-.05.01-.11.03-.21.03s-.16-.01-.21-.02c-.05-.01-.09-.02-.18-.02-.1,0-.15,0-.2,0-.05,0-.1,0-.19,0s-.14,0-.19.01c-.05,0-.1.01-.2.01s-.15,0-.2,0c-.05,0-.1,0-.2,0s-.14,0-.19.02c-.05.01-.1.02-.21.02s-.16,0-.21-.02c-.05,0-.09-.02-.19-.02s-.15,0-.19,0c-.05,0-.1,0-.2,0s-.15,0-.2,0c-.05,0-.1,0-.19,0h-.39c-.1,0-.15,0-.2,0-.05,0-.1,0-.19,0s-.15,0-.2,0c-.05,0-.1,0-.2,0s-.15,0-.2,0c-.05,0-.1,0-.19,0s-.14,0-.19.02c-.05.01-.1.02-.21.02-.1,0-.14,0-.19.01-.05,0-.1.01-.2.01s-.15,0-.2-.01c-.05,0-.1-.01-.19-.01-.1,0-.16-.01-.21-.02-.05,0-.09-.02-.19-.02s-.14.01-.18.02c-.05.01-.11.03-.21.03h-.39c-.1,0-.16-.01-.21-.02-.05,0-.09-.02-.19-.02s-.14,0-.19.01c-.05,0-.1.01-.2.01-.2,0-.2,0-.39,0-.1,0-.15,0-.2,0-.05,0-.1,0-.19,0-.03,0-.05-.02-.05-.05s.02-.05.05-.05c.1,0,.15,0,.2,0,.05,0,.1,0,.19,0,.2,0,.2,0,.39,0,.09,0,.14,0,.19-.01.05,0,.1-.01.2-.01s.16.01.21.02c.05,0,.09.02.19.02h.39c.09,0,.14-.01.18-.02.05-.01.11-.03.21-.03s.16.01.21.02c.05,0,.09.02.19.02.1,0,.15,0,.2.01.05,0,.1.01.19.01s.14,0,.19-.01c.05,0,.1-.01.2-.01.09,0,.14,0,.19-.02.05-.01.1-.02.21-.02s.15,0,.2,0c.05,0,.1,0,.19,0s.15,0,.2,0c.05,0,.1,0,.2,0s.15,0,.2,0c.05,0,.1,0,.19,0h.39c.1,0,.15,0,.2,0,.05,0,.1,0,.19,0s.15,0,.2,0c.05,0,.1,0,.2,0s.16,0,.21.02c.05,0,.09.02.19.02s.14,0,.19-.02c.05-.01.1-.02.21-.02.1,0,.15,0,.2,0,.05,0,.1,0,.2,0s.14,0,.19-.01c.05,0,.1-.01.2-.01s.15,0,.2,0c.05,0,.1,0,.19,0,.1,0,.16.01.21.02.05.01.09.02.18.02s.13-.01.18-.03c.05-.01.11-.03.21-.03s.16.01.21.03c.05.01.09.03.18.03s.13-.01.18-.03c.05-.02.11-.03.21-.03s.15,0,.2,0c.05,0,.1,0,.19,0,.1,0,.15,0,.2.02.05,0,.09.02.19.02.1,0,.15,0,.2,0,.05,0,.1,0,.2,0s.14,0,.19-.02c.05,0,.1-.02.21-.02.1,0,.15,0,.2,0,.05,0,.1,0,.2,0s.15,0,.2,0c.05,0,.1,0,.2,0s.15,0,.2,0c.05,0,.1,0,.19,0s.15,0,.2,0c.05,0,.1,0,.19,0s.15,0,.2,0c.05,0,.1,0,.19,0s.15,0,.2,0c.05,0,.1,0,.2,0s.15,0,.2,0c.05,0,.1,0,.19,0,.09,0,.13-.01.18-.03.05-.02.11-.03.21-.03h.39c.11,0,.16.02.21.03.05.01.09.03.18.03.1,0,.15,0,.19,0,.05,0,.1,0,.2,0s.14,0,.19-.01c.05,0,.1-.01.2-.01s.15,0,.2,0c.05,0,.1,0,.2,0s.15,0,.2.01c.05,0,.09.01.19.01h.39c.09,0,.14,0,.19-.02.05,0,.1-.02.21-.02s.15,0,.2,0c.05,0,.1,0,.2,0,.1,0,.16,0,.21.01.05,0,.1.01.19.01s.14,0,.19-.01c.05,0,.1-.01.2-.01s.15,0,.2,0c.05,0,.1,0,.2,0s.15,0,.2.01c.05,0,.1.01.19.01s.15,0,.2,0c.05,0,.1,0,.2,0s.14,0,.19,0,.1,0,.2,0,.15,0,.2.01c.05,0,.09.01.19.01s.14-.01.18-.02c.05-.01.1-.03.21-.03.1,0,.15,0,.19,0,.05,0,.1,0,.2,0,.2,0,.2,0,.4,0,.1,0,.15,0,.2,0,.05,0,.1,0,.2,0s.15,0,.2,0c.05,0,.1,0,.2,0s.15,0,.2.01c.05,0,.1.01.19.01.2,0,.2,0,.4,0s.2,0,.4,0c.1,0,.14,0,.19-.01.05,0,.1-.01.2-.01s.16,0,.21.02c.05,0,.09.01.19.01s.14,0,.19-.01c.05,0,.1-.01.2-.01s.16.02.21.03c.05.01.09.03.18.03s.14-.01.19-.02c.05-.01.11-.02.21-.02s.15,0,.2,0c.05,0,.1,0,.19,0,.2,0,.2,0,.4,0,.09,0,.14,0,.19-.01.05,0,.1-.01.2-.01s.16.01.21.02c.05,0,.09.02.19.02s.14,0,.19-.02c.05,0,.1-.02.21-.02s.16,0,.21.02c.05,0,.09.02.19.02s.14-.01.19-.02c.05-.01.11-.02.21-.02s.15,0,.2,0c.05,0,.1,0,.19,0s.15,0,.19,0c.05,0,.1,0,.2,0,.11,0,.16.01.21.03.05.01.09.03.18.03.1,0,.15,0,.2,0,.05,0,.1,0,.2,0s.15,0,.2,0c.05,0,.1,0,.2,0s.15,0,.2,0c.05,0,.1,0,.2,0s.14,0,.19-.01c.05,0,.1-.01.2-.01s.15,0,.2,0c.05,0,.1,0,.2,0s.14,0,.19,0c.05,0,.1-.01.2-.01s.16.01.21.03c.05.01.09.02.19.02s.14-.01.19-.02c.05-.01.11-.03.21-.03s.15,0,.21.01c.05,0,.1,0,.19,0,.1,0,.16,0,.21.01.05,0,.1.01.19.01s.15,0,.2,0c.05,0,.1,0,.2,0,.03,0,.05.02.05.05s-.02.05-.05.05c-.1,0-.15,0-.2,0-.05,0-.1,0-.2,0s-.16,0-.21-.01c-.05,0-.1-.01-.19-.01-.1,0-.15,0-.21-.01-.05,0-.1,0-.19,0s-.14.01-.19.02c-.05.01-.11.03-.21.03s-.16-.01-.21-.03c-.05-.01-.09-.02-.19-.02s-.14,0-.19,0c-.05,0-.1.01-.2.01s-.15,0-.2,0c-.05,0-.1,0-.2,0s-.14,0-.19.01c-.05,0-.1.01-.21.01s-.15,0-.2,0c-.05,0-.1,0-.2,0s-.15,0-.2,0c-.05,0-.1,0-.2,0s-.15,0-.2,0c-.05,0-.1,0-.2,0-.11,0-.16-.01-.21-.03-.05-.01-.09-.03-.18-.03-.1,0-.15,0-.19,0-.05,0-.1,0-.2,0s-.15,0-.2,0c-.05,0-.1,0-.19,0s-.14.01-.19.02c-.05.01-.11.02-.21.02s-.16,0-.21-.02c-.05,0-.09-.02-.19-.02s-.14,0-.19.02c-.05,0-.1.02-.21.02s-.16-.01-.21-.02c-.05,0-.09-.02-.19-.02s-.14,0-.19.01c-.05,0-.1.01-.2.01-.2,0-.2,0-.4,0-.1,0-.15,0-.2,0-.05,0-.1,0-.19,0s-.14.01-.19.02c-.05.01-.1.02-.21.02Z"/>
    </g>
  </g>
  <g>
    <path d="M32.81,45.16c-3,.02-6.84-5.51-14.31-3.09-1.77.57-3.11,1.58-4.25,3.08,2.88-7.42,18.68-5.55,19.34-1.16.07.45-.4,1.16-.79,1.16Z"/>
    <path d="M19.57,40.06c-2.5.55-4.24,2.33-5.86,3.9,1.22-5.05,9.16-9.1,11.66-6.16.32.37.11.96-.37,1.07l-5.43,1.2Z"/>
    <path d="M27.57,44.96c-1.01,2.64-5.19-3.69-12.16.2,3.89-4.53,13.04-2.5,12.16-.2Z"/>
    <path d="M15.27,37.42c1.31.99-2.62,4.04-2.45,8.23-1.71-2.84-1.73-6.3.83-8.19.37-.27,1.31-.28,1.62-.04Z"/>
    <path d="M13.6,48.69c.83,4.05,4.28,5.95,3.24,7.39-.45.63-1.38.67-1.93.13-1.93-1.9-2.67-4.97-1.3-7.52Z"/>
    <path d="M12.29,48.01c-3.37,3.45-1.08,8.27-3.4,8.57-2.27.3-.94-7.15,3.4-8.57Z"/>
    <path d="M12.68,48.7c-1.61,4.59,1.29,7.66.5,9.2-1.3,2.5-4.46-5.05-.5-9.2Z"/>
    <path d="M12.01,46.88c-1.82.28-3.66.74-5.34.24-.99-.29-1.7-1.34-1.22-2.04,1.72-2.49,3.64.49,6.56,1.8Z"/>
    <path d="M11.94,47.51c-2.92.86-5.28,6.43-6.32,4-.93-2.18,3.36-4.32,6.32-4Z"/>
    <path d="M22.73,46.9c-1.49.89-3.51-1.32-7.46-.47,2.14-1.98,6.84-2.26,7.73-.67.18.31,0,.98-.27,1.14Z"/>
    <path d="M12.1,46.03c-2.51-.98-5.44-4.71-3.46-5.56.62-.27,1.51.15,1.88.84.24,1.63.75,2.91,1.58,4.73Z"/>
    <path d="M18.24,50.68c.45.27.6,1.17.46,1.55-.17.48-.94.98-1.43.66-1.53-.98-2.7-2.56-2.61-4.33l3.57,2.12Z"/>
    <path d="M15.12,47.67c1.99-1.15,5.39-.51,5.39,1.21,0,1.53-3.39.39-5.39-1.21Z"/>
    <path d="M13.19,46.19c.54-.37,1.24-.13,1.55.41.2.35.12,1.07-.29,1.41-.32.25-1.17.13-1.5-.21-.38-.39-.3-1.23.25-1.61Z"/>
    <path d="M34.52,50.62c-.92-.15-1.95.31-2.32,1.16-.31.74.45,1.28.56,1.95.06.35.06.69.12,1.02.47,2.72,3.07,7.76,1.56,12.69-.27.88-.86,2-1.86,1.85-.54-.12-.31-.72-.04-1.08.31-.46.56-1,.73-1.58,1.49-5.63-1.47-11.77-5.36-15.74-.75-.82-2.38-1.75-1.69-3.03.55-.91,1.77-1.07,2.76-1.11,4.53-.18,9.26,1.23,12.13,4.75,1,1.23,1.41,3.26.36,4.54-.48.57-1.38.89-2.03.48-.49-.32-.63-1.1-.05-1.34.34-.16.78-.11,1.1-.32.49-.32.31-1.31-.24-2.12-.2-.32-.53-.65-.91-.58-.38.05-.71.29-1.12.18-.18-.04-.36-.14-.52-.24-1.01-.63-1.98-1.26-3.14-1.48h-.04ZM38.33,51.64c.46-.12.89-.52,1.37-.18,1.06.66,1.97,2.54,1.36,3.73-.25.48-.88.49-1.32.65-.28.1-.28.29-.09.41,1.24.61,2.03-.98,1.89-2.12-.05-1.3-.82-2.57-1.81-3.4-2.98-2.64-6.87-3.95-10.78-3.69-.85.06-2.1.28-2.32,1.23-.1.87.74,1.39,1.3,1.97.39.38.77.77,1.13,1.18,1.35,1.52,2.42,3.26,3.34,5.07.25.42.15-.14.08-.73-.09-.61-.12-1.2-.27-1.75-.2-.66-.78-.97-.72-1.7.13-1.12,1.16-2.01,2.25-2.18.89-.16,1.81.17,2.6.57.42.21.84.46,1.23.72.28.18.53.28.75.24h.03Z"/>
    <path d="M22.62,58.33c-.27.13-.46.54-.57.88-.45,1.29-1.12,2.39-2.2,3.16-1.07.85-2.51.49-3.72,1-1.72.58-3.78.64-5.01-.84-.34-.32-.76-.55-1.2-.73-1.26-.55-2.33-1.59-2.63-2.95-.09-.64.35-.29.8.11.35.32.71.62,1.08.88,2.68,2.11,6.5,1.47,8.78-.97.71-.72,1.44-1.79,1.93-2.75.59-1.13,1.02-2.48,1.56-3.5.9-1.88,2.6-1.35,3.86-.14,3.47,3.16,5.95,7.63,5.79,12.44-.07.55-.22,1.11-.57,1.54-.49.63-1.5.7-1.39-.28,1.14-3.45-.34-9.57-3.53-9.72-1.22.06-.79,1.25-1.52,1.71-.38.2-1-.07-1.41.15h-.03ZM18.54,62.28c.7,0,1.3-.59,1.8-1.04.97-.89,1.22-2.48,1.91-3.6.5-.53,1.3.59,1.81-.43.61-1.52,2.37-1.5,3.47-.51.97.84,1.53,2,2.08,3.14.21.42.39.83.45.76-.41-1.95-1.76-3.92-3-5.56-.91-1.09-3.37-4.14-4.76-2.69-1.02,1.07-1.43,3.79-3.29,6.12-.84,1.07-1.94,1.97-3.15,2.51-1.47.67-3.08.87-4.67.53-.46-.1-.96-.26-1.11-.24-.14.03,0,.13.1.21.36.25.84.38,1.21.62.55.35,1.01.95,1.76,1.04,1.35.23,2.71-.19,3.96-.72.45-.21.98-.16,1.4-.13h.03Z"/>
    <path d="M29.67,68.48c-.21-.33.1-.61.49-.98.48-.45,1.15-1.03,1.51-1.98.96-2.75-1.03-6.94-2.36-9.41-1.78-3.35-4.48-5.39-7.98-6.77-.11-.15.28-.33.23-.62-.04-.26-.2-.55.28-.42,6.23,1.53,10.88,9.25,11.21,15.56.07,1.8-.19,3.81-1.74,4.73-.45.3-1.18.39-1.62-.1l-.02-.02Z"/>
  </g>
</svg>