<?xml version="1.0" encoding="UTF-8"?>
<svg id="Color_Kit" data-name="Color Kit" xmlns="http://www.w3.org/2000/svg" viewBox="0 0 100 32">
  <g>
    <path d="M32.7,10.26c-.79,0-2.04,0-3.22.04.04-.68.07-1.51.07-2.48v-3.43c0-.97-.04-1.8-.07-2.48,1.17.04,2.41.04,3.14.04.5,0,1.41,0,2.37-.06.12-.01.14.02.12.13l-.17.71c-.01.06-.05.07-.18.06-1.11-.1-1.9-.16-2.81-.16-.41,0-.6.13-.61.46-.02.52-.04.97-.04,1.45v.77c0,.31.15.37.39.37h.21c.95,0,1.54-.01,2.21-.1.1-.01.14.05.1.16l-.24.65c-.04.13-.11.13-.26.12-.45-.04-1.28-.08-1.91-.08h-.11c-.24,0-.39.06-.39.37v.89c0,.48,0,.92.04,1.44.02.32.2.46.61.46.97,0,1.95-.1,3.06-.19.13-.01.19,0,.18.06l-.14.76c-.02.11-.02.14-.12.13-.96-.06-1.55-.06-2.23-.06Z"/>
    <path d="M35.65,9.64l.14-.54c.34-1.26.56.53,2.8.53.99,0,1.3-.44,1.3-1.02,0-.52-.21-.71-1.19-1.33l-.87-.59c-1.41-.94-2.01-1.44-2.01-2.45,0-1.55,1.55-2.54,2.97-2.54.92,0,2.1.41,2.01.69l-.15.43c-.4,1.26-.36-.27-2.37-.27-.79,0-1.16.4-1.16.97,0,.54.34.84,1.12,1.33l1.03.67c1.35.88,1.89,1.43,1.89,2.36,0,1.54-1.48,2.58-3.07,2.58-1,0-2.56-.4-2.44-.84Z"/>
    <path d="M41.54,9.64l.14-.54c.34-1.26.56.53,2.8.53.99,0,1.3-.44,1.3-1.02,0-.52-.21-.71-1.19-1.33l-.87-.59c-1.41-.94-2.01-1.44-2.01-2.45,0-1.55,1.55-2.54,2.97-2.54.92,0,2.1.41,2.01.69l-.15.43c-.4,1.26-.36-.27-2.37-.27-.79,0-1.16.4-1.16.97,0,.54.34.84,1.12,1.33l1.03.67c1.35.88,1.89,1.43,1.89,2.36,0,1.54-1.48,2.58-3.07,2.58-1,0-2.56-.4-2.44-.84Z"/>
    <path d="M47.81,8.5l1.98-4.58c.35-.8.56-1.46.61-1.91.01-.11.85-.25.89-.17l2.84,6.68c.26.6.51,1.16.81,1.76h-1.86l-.8-1.79c-.14-.34-.24-.35-.56-.35h-2.34c-.36,0-.49,0-.61.35l-.62,1.79h-1.15c.27-.6.56-1.19.81-1.79ZM49.58,7.39h1.91c.16,0,.31-.04.24-.2l-1.19-2.89-1.19,2.89c-.07.17.08.2.24.2Z"/>
    <path d="M57.11,7.81v-1.25l-3.01-4.67h2.04c.45.79,1.28,2.09,1.83,2.94l.42.7.49-.7c.56-.82,1.39-2.15,1.78-2.94h1.22l-3.01,4.59v1.32c0,.97.05,1.8.08,2.48h-1.92c.04-.68.08-1.51.08-2.48Z"/>
    <path d="M62.09,9.64l.14-.54c.34-1.26.56.53,2.8.53.99,0,1.3-.44,1.3-1.02,0-.52-.21-.71-1.19-1.33l-.87-.59c-1.41-.94-2.01-1.44-2.01-2.45,0-1.55,1.55-2.54,2.97-2.54.92,0,2.1.41,2.01.69l-.15.43c-.4,1.26-.36-.27-2.37-.27-.79,0-1.16.4-1.16.97,0,.54.34.84,1.12,1.33l1.03.67c1.35.88,1.89,1.43,1.89,2.36,0,1.54-1.48,2.58-3.07,2.58-1,0-2.56-.4-2.44-.84Z"/>
  </g>
  <g>
    <path d="M29.49,30.11c.04-.68.07-1.51.07-2.48v-3.43c0-.97-.04-1.8-.07-2.48,1.17.04,2.02-.02,3.04-.02,1.49,0,2.72.64,2.75,1.94.02.91-.55,1.62-1.53,1.82v.08c1.16,0,2.25.78,2.25,2.12,0,1.54-1.46,2.47-3.38,2.47-1.28,0-1.95-.06-3.12-.02ZM32.46,25.3c.72,0,.99-.5.99-1.26,0-.98-.5-1.66-1.46-1.66-.49,0-.68.13-.68.7v2.22h1.15ZM32.47,29.44c.76,0,1.65-.23,1.65-1.45,0-1.04-.62-2-1.66-2h-1.15v2.58c0,.53.29.88,1.16.88Z"/>
    <path d="M39.97,30.07c-.79,0-2.04,0-3.22.04.04-.68.07-1.51.07-2.48v-3.43c0-.97-.04-1.8-.07-2.48h1.91c-.02.68-.08,1.51-.08,2.48v3.29c0,.48,0,.92.04,1.44.02.32.2.46.61.46.97,0,2.02-.1,3.13-.19.13-.01.19,0,.18.06l-.14.76c-.02.11-.02.14-.12.13-.96-.06-1.68-.06-2.31-.06Z"/>
    <path d="M42.54,25.97c0-2.42,1.76-4.45,4.38-4.45,2.47,0,4.34,1.81,4.34,4.32s-1.73,4.46-4.37,4.46c-2.46,0-4.35-1.84-4.35-4.33ZM47.4,29.39c.97,0,2.16-.73,2.16-2.81,0-2.32-1.59-4.15-3.17-4.15-.97,0-2.15.73-2.15,2.8,0,2.34,1.6,4.17,3.15,4.17Z"/>
    <path d="M51.67,25.97c0-2.42,1.76-4.45,4.38-4.45,2.47,0,4.34,1.81,4.34,4.32s-1.73,4.46-4.37,4.46c-2.46,0-4.35-1.84-4.35-4.33ZM56.53,29.39c.97,0,2.16-.73,2.16-2.81,0-2.32-1.59-4.15-3.17-4.15-.97,0-2.15.73-2.15,2.8,0,2.34,1.6,4.17,3.15,4.17Z"/>
    <path d="M61.57,26.58l.29-4.82c.01-.24.47-.26.62,0l3.54,6.35,3.25-6.35c.13-.26.63-.24.65-.01l.31,4.84c.06,1.17.14,2.35.25,3.53h-1.85c-.05-1.18-.09-2.35-.17-3.53l-.1-1.45-1.78,3.55c-.24.46-.38.95-.43,1.1-.06.16-.33.18-.6.18s-.34-.04-.41-.18l-2.64-4.82-.06,1.62c-.05,1.17-.08,2.35-.12,3.53h-1.04c.11-1.18.22-2.35.29-3.53Z"/>
  </g>
  <g>
    <g>
      <path d="M29.49,13.08c0-.21.49-.61.59-.61.11,0,.59.4.59.61s-.48.6-.59.6c-.1,0-.59-.4-.59-.6ZM30.41,14.86c.07-.02.13-.02.12.08-.04.32-.09.94-.09,1.75v1.25c0,.74.03,1.26.05,1.6h-.81c.03-.4.04-1.2.04-1.6v-1.25c0-.75-.03-1.26-.05-1.6l.75-.23Z"/>
      <path d="M31.49,17.93v-1.57c0-.51-.03-.93-.05-1.28l.72-.22c.06-.02.08,0,.08.08,0,.31.07.41.23.34.44-.19.92-.46,1.51-.46.91,0,1.32.73,1.32,1.43v1.67c0,.74.03,1.26.05,1.6h-.8c.03-.4.04-1.2.04-1.6v-1.46c0-.82-.61-.96-1.12-.96s-1.24.13-1.24.38v2.04c0,.74.03,1.26.05,1.6h-.81c.03-.4.04-1.2.04-1.6Z"/>
    </g>
    <path d="M48.46,19.35c-.09,0-.14-.01-.19-.03-.04-.01-.08-.02-.16-.02-.09,0-.13,0-.17,0-.04,0-.09,0-.17,0s-.13,0-.17,0c-.04,0-.09,0-.18,0s-.13,0-.18,0c-.04,0-.08,0-.17,0-.09,0-.13,0-.18,0-.04,0-.09,0-.17,0s-.12,0-.17.01c-.04,0-.09.01-.18.01s-.13,0-.18,0c-.04,0-.09,0-.17,0s-.13,0-.17.01c-.04,0-.09.01-.18.01s-.14,0-.18-.02c-.04,0-.08-.01-.17-.01s-.12,0-.17.02c-.05,0-.09.02-.18.02s-.14,0-.18-.02c-.04,0-.08-.01-.17-.01s-.12,0-.16.02c-.05.01-.09.02-.19.02s-.14,0-.18-.02c-.04,0-.08-.02-.16-.02-.09,0-.13,0-.18,0-.04,0-.09,0-.17,0s-.12,0-.17.01c-.04,0-.09.02-.18.02-.08,0-.13,0-.17,0-.04,0-.09.01-.18.01s-.14-.01-.19-.02c-.04-.01-.08-.02-.16-.02s-.12,0-.16.02c-.05.01-.09.02-.18.02s-.13,0-.18,0c-.04,0-.09,0-.17,0-.09,0-.14,0-.18-.02-.04,0-.08-.02-.17-.02s-.13,0-.17,0c-.04,0-.09,0-.18,0s-.13,0-.17,0c-.04,0-.09,0-.18,0s-.14,0-.18-.01c-.04,0-.08,0-.17,0s-.12,0-.17.01c-.04,0-.09.01-.18.01s-.13,0-.17,0c-.04,0-.09,0-.18,0s-.13,0-.17,0c-.04,0-.09,0-.17,0-.09,0-.14,0-.18-.02-.04,0-.08-.02-.17-.02s-.12.01-.16.02c-.05.01-.09.02-.19.02s-.14,0-.18-.01c-.04,0-.08-.01-.17-.01-.09,0-.13,0-.18,0-.04,0-.09,0-.17,0-.03,0-.05-.02-.05-.05s.02-.05.05-.05c.09,0,.13,0,.18,0,.04,0,.09,0,.17,0,.09,0,.14,0,.18.01.04,0,.08.01.17.01s.12-.01.16-.02c.05-.01.09-.02.19-.02s.14,0,.18.02c.04,0,.08.02.17.02.09,0,.13,0,.17,0,.04,0,.09,0,.17,0s.13,0,.17,0c.04,0,.09,0,.18,0,.08,0,.12,0,.17-.01.04,0,.09-.01.18-.01s.14,0,.18.01c.04,0,.08,0,.17,0s.13,0,.17,0c.04,0,.09,0,.18,0s.13,0,.17,0c.04,0,.09,0,.18,0s.14,0,.18.02c.04,0,.08.02.17.02.09,0,.13,0,.18,0,.04,0,.09,0,.17,0,.08,0,.12,0,.16-.02.05-.01.09-.02.18-.02s.14.01.19.02c.04.01.08.02.16.02s.13,0,.17,0c.04,0,.09-.01.18-.01.08,0,.12,0,.17-.01.04,0,.09-.02.18-.02s.13,0,.18,0c.04,0,.09,0,.17,0,.09,0,.14,0,.18.02.04,0,.08.02.16.02s.12,0,.16-.02c.05-.01.09-.02.18-.02s.14,0,.18.02c.04,0,.08.01.17.01s.12,0,.17-.02c.05,0,.09-.02.18-.02s.14,0,.18.02c.04,0,.08.01.17.01s.13,0,.17-.01c.04,0,.09-.01.18-.01s.13,0,.18,0c.04,0,.09,0,.17,0s.12,0,.17-.01c.04,0,.09-.01.18-.01s.13,0,.18,0c.04,0,.09,0,.17,0s.13,0,.18,0c.04,0,.08,0,.17,0s.13,0,.17,0c.04,0,.09,0,.18,0s.13,0,.17,0c.04,0,.09,0,.17,0,.09,0,.14.01.19.03.04.01.08.02.16.02.08,0,.13,0,.17,0,.04,0,.09,0,.18,0,.17,0,.17,0,.35,0,.08,0,.12,0,.17-.01.04,0,.09-.01.18-.01s.14,0,.18.01c.04,0,.08.01.17.01.17,0,.17,0,.35,0,.09,0,.13,0,.18,0,.04,0,.09,0,.17,0s.13,0,.17,0c.04,0,.09,0,.18,0,.08,0,.12,0,.17-.02.05,0,.09-.02.18-.02s.13,0,.18,0c.04,0,.09,0,.17,0s.13,0,.18,0c.04,0,.08,0,.17,0s.13,0,.18,0c.04,0,.09,0,.17,0,.09,0,.14,0,.18.01.04,0,.08.01.17.01s.12-.01.16-.02c.05-.01.09-.03.19-.03s.14.01.18.02c.04,0,.08.02.16.02.09,0,.13,0,.17,0,.04,0,.09,0,.17,0s.13,0,.17,0c.04,0,.09,0,.18,0s.14,0,.18.02c.04,0,.08.02.17.02s.12,0,.17-.01c.04,0,.09-.02.18-.02s.14,0,.18.01c.04,0,.08.01.17.01s.12-.01.16-.02c.05-.01.09-.03.19-.03s.13,0,.18,0c.04,0,.09,0,.17,0,.09,0,.14,0,.18.01.04,0,.08.01.17.01s.13,0,.17,0c.04,0,.09,0,.18,0s.14,0,.18,0c.04,0,.09,0,.17,0s.13,0,.17,0c.04,0,.09,0,.18,0,.08,0,.12,0,.17-.01.04,0,.09-.02.18-.02s.14,0,.18.01c.04,0,.08.01.17.01.09,0,.13,0,.18,0,.04,0,.09,0,.17,0s.12,0,.17-.01c.04,0,.09-.01.18-.01.08,0,.12,0,.17-.01.04,0,.09-.01.18-.01h.35c.09,0,.14,0,.18,0,.04,0,.08,0,.17,0s.13,0,.17-.01c.04,0,.09-.01.18-.01s.14,0,.18,0c.04,0,.08,0,.17,0,.09,0,.14,0,.18.02.04,0,.08.01.17.01s.13,0,.17,0c.04,0,.09,0,.18,0s.13,0,.18,0c.04,0,.09,0,.17,0,.08,0,.12-.01.16-.02.05-.01.09-.03.19-.03.09,0,.13,0,.17,0,.04,0,.09,0,.18,0,.09,0,.14.01.19.02.04.01.08.02.16.02.09,0,.13,0,.18,0,.04,0,.09,0,.17,0s.12,0,.17-.01c.04,0,.09-.01.18-.01.08,0,.13,0,.17,0,.04,0,.09,0,.18,0s.13,0,.18,0c.04,0,.09,0,.17,0s.13,0,.18,0c.04,0,.08,0,.17,0,.09,0,.14,0,.18.01.04,0,.08.01.17.01s.12,0,.16-.02c.05-.01.09-.02.18-.02s.13,0,.18,0c.04,0,.09,0,.17,0,.09,0,.14,0,.18,0,.04,0,.09,0,.17,0s.12-.01.16-.02c.05-.01.09-.02.19-.02s.14.01.19.03c.04.01.08.02.16.02s.12,0,.17-.02c.05,0,.09-.02.18-.02.18,0,.18,0,.35,0,.17,0,.17,0,.35,0,.08,0,.13,0,.17,0,.04,0,.09-.01.18-.01s.14,0,.18,0c.04,0,.09,0,.17,0,.09,0,.14,0,.18.02.04,0,.08.01.17.01h.35c.08,0,.12,0,.17-.01.04,0,.09-.01.18-.01s.14,0,.18.02c.04,0,.08.02.17.02.09,0,.13,0,.18,0,.04,0,.09,0,.17,0s.13,0,.17,0,.09,0,.18,0c.08,0,.13,0,.17-.02.05,0,.09-.02.19-.02.03,0,.05.02.05.05s-.02.05-.05.05c-.08,0-.13,0-.17.02-.05,0-.09.02-.19.02-.09,0-.13,0-.17,0s-.09,0-.18,0-.13,0-.18,0c-.04,0-.09,0-.17,0-.09,0-.14,0-.18-.02-.04,0-.08-.02-.17-.02s-.13,0-.17.01c-.04,0-.09.01-.18.01h-.35c-.09,0-.14,0-.18-.02-.04,0-.08-.01-.17-.01-.09,0-.13,0-.18,0-.04,0-.09,0-.17,0s-.13,0-.17,0-.09.01-.18.01c-.17,0-.17,0-.35,0-.18,0-.18,0-.35,0-.08,0-.12,0-.17.02-.05,0-.09.02-.18.02s-.14-.01-.19-.03c-.04-.01-.08-.02-.16-.02s-.12.01-.16.02c-.05.01-.09.02-.19.02s-.14,0-.18,0c-.04,0-.09,0-.17,0s-.13,0-.18,0c-.04,0-.09,0-.17,0s-.12,0-.16.02c-.05.01-.09.02-.18.02s-.14,0-.18-.01c-.04,0-.08-.01-.17-.01-.09,0-.14,0-.18,0-.04,0-.08,0-.17,0-.09,0-.13,0-.18,0-.04,0-.09,0-.17,0s-.13,0-.17,0c-.04,0-.09,0-.18,0-.08,0-.12,0-.17.01-.04,0-.09.01-.18.01s-.13,0-.18,0c-.04,0-.09,0-.17,0-.09,0-.14-.01-.19-.02-.04-.01-.08-.02-.16-.02-.09,0-.13,0-.17,0-.04,0-.09,0-.18,0-.08,0-.12.01-.16.02-.05.01-.09.03-.19.03s-.13,0-.18,0c-.04,0-.09,0-.17,0s-.13,0-.17,0c-.04,0-.09,0-.18,0s-.14,0-.18-.02c-.04,0-.08-.01-.17-.01-.09,0-.14,0-.18,0s-.09,0-.17,0-.13,0-.17.01c-.04,0-.09.01-.18.01s-.14,0-.18,0c-.04,0-.08,0-.17,0h-.35c-.08,0-.12,0-.17.01-.04,0-.09.01-.18.01-.08,0-.12,0-.17.01-.04,0-.09.01-.18.01s-.13,0-.18,0c-.04,0-.09,0-.17,0-.09,0-.14,0-.18-.01-.04,0-.08-.01-.17-.01s-.12,0-.17.01c-.04,0-.09.02-.18.02-.09,0-.13,0-.17,0-.04,0-.09,0-.18,0s-.14,0-.18,0c-.04,0-.09,0-.17,0s-.13,0-.17,0c-.04,0-.09,0-.18,0s-.14,0-.18-.01c-.04,0-.08-.01-.17-.01-.09,0-.13,0-.18,0-.04,0-.09,0-.17,0-.08,0-.12.01-.16.02-.05.01-.09.03-.19.03s-.14,0-.18-.01c-.04,0-.08-.01-.17-.01s-.12,0-.17.01c-.04,0-.09.02-.18.02s-.14,0-.18-.02c-.04,0-.08-.02-.17-.02s-.13,0-.17,0c-.04,0-.09,0-.18,0s-.13,0-.17,0c-.04,0-.09,0-.17,0-.09,0-.14-.01-.18-.02-.04,0-.08-.02-.16-.02s-.12.01-.16.02c-.05.01-.09.03-.19.03s-.14,0-.18-.01c-.04,0-.08-.01-.17-.01s-.13,0-.17,0c-.04,0-.09,0-.17,0s-.13,0-.18,0c-.04,0-.08,0-.17,0s-.13,0-.17,0c-.04,0-.09,0-.17,0-.08,0-.12,0-.16.02-.05,0-.09.02-.18.02-.09,0-.13,0-.17,0-.04,0-.09,0-.18,0s-.13,0-.18,0c-.04,0-.09,0-.17,0-.17,0-.17,0-.35,0-.09,0-.14,0-.18-.01-.04,0-.08-.01-.17-.01s-.12,0-.17.01c-.04,0-.09.02-.18.02-.17,0-.17,0-.35,0-.08,0-.13,0-.17,0-.04,0-.09,0-.18,0Z"/>
    <path d="M61.07,17.5c-.09,0-.13,0-.18,0-.04,0-.09,0-.17,0s-.13,0-.18,0c-.04,0-.09,0-.17,0-.09,0-.14,0-.18-.02-.04,0-.08-.02-.17-.02s-.13,0-.17,0c-.04,0-.09,0-.18,0s-.13,0-.17.01c-.04,0-.09.01-.18.01-.08,0-.13,0-.17.01-.05,0-.09.01-.18.01s-.14,0-.18-.02c-.04,0-.08-.02-.17-.02s-.13,0-.17,0c-.04,0-.09,0-.18,0s-.13,0-.18,0c-.04,0-.09,0-.17,0s-.12,0-.17.01c-.05,0-.09.01-.18.01s-.14,0-.18-.01c-.04,0-.08-.01-.17-.01s-.13,0-.17.01c-.04,0-.09.01-.18.01s-.13,0-.18,0c-.04,0-.09,0-.17,0s-.14,0-.18,0-.09,0-.17,0-.13,0-.17,0c-.04,0-.09,0-.18,0s-.13,0-.17,0c-.04,0-.09,0-.18,0s-.14,0-.18-.02c-.04,0-.08-.01-.17-.01-.09,0-.13,0-.18,0-.04,0-.09,0-.17,0-.08,0-.12.01-.16.02-.05.01-.09.02-.19.02-.09,0-.13,0-.17,0-.04,0-.09,0-.18,0s-.13,0-.18,0c-.04,0-.09,0-.17,0-.09,0-.14,0-.18-.02-.04,0-.08-.02-.17-.02s-.13,0-.17,0c-.04,0-.09,0-.18,0-.08,0-.12,0-.17.02-.05,0-.09.02-.18.02s-.14,0-.18-.01c-.04,0-.08-.01-.17-.01s-.13,0-.17,0c-.04,0-.09,0-.18,0s-.14-.01-.19-.02c-.04-.01-.08-.02-.16-.02-.09,0-.13,0-.17,0-.04,0-.09,0-.18,0s-.13,0-.17,0c-.04,0-.09,0-.18,0h-.35c-.09,0-.14,0-.18-.02-.04,0-.08-.02-.17-.02s-.12,0-.17.02c-.05,0-.09.02-.18.02-.08,0-.13,0-.17,0-.04,0-.09.01-.18.01s-.13,0-.18,0c-.04,0-.09,0-.17,0-.09,0-.14,0-.18,0s-.09,0-.17,0-.13,0-.17,0c-.04,0-.09,0-.18,0s-.13,0-.18,0c-.04,0-.08,0-.17,0s-.12,0-.17.01c-.04,0-.09.02-.18.02s-.14,0-.18-.02c-.04,0-.08-.01-.17-.01-.09,0-.13,0-.18,0-.04,0-.09,0-.17,0-.08,0-.12.01-.16.02-.05.01-.09.02-.19.02s-.14,0-.18-.01c-.04,0-.08-.01-.17-.01s-.13,0-.17,0c-.04,0-.09,0-.18,0-.08,0-.13,0-.17.01-.04,0-.09.01-.18.01s-.14,0-.18-.02c-.04,0-.08-.02-.17-.02-.09,0-.13,0-.17,0-.04,0-.09,0-.18,0-.08,0-.12,0-.17.01-.05,0-.09.02-.18.02h-.35c-.09,0-.14,0-.18-.02-.04,0-.08-.02-.17-.02-.09,0-.13,0-.17,0-.04,0-.09,0-.18,0s-.13,0-.18,0c-.04,0-.09,0-.17,0s-.12,0-.17.02c-.05,0-.09.02-.18.02s-.13,0-.18,0c-.04,0-.09,0-.17,0-.09,0-.14,0-.18-.02-.04,0-.08-.02-.17-.02s-.12,0-.17.02c-.05,0-.09.02-.18.02s-.14,0-.18-.02c-.04,0-.08-.02-.17-.02s-.12,0-.16.02c-.05.01-.09.02-.18.02-.09,0-.13,0-.17,0-.04,0-.09,0-.18,0h-.35c-.09,0-.14,0-.18-.01-.04,0-.08-.01-.17-.01-.09,0-.14,0-.18-.01-.04,0-.08-.01-.17-.01s-.12,0-.17.02c-.05,0-.09.02-.18.02-.09,0-.13,0-.17,0-.04,0-.09,0-.18,0-.09,0-.14-.01-.19-.03-.04-.01-.08-.02-.16-.02-.09,0-.13,0-.17,0-.04,0-.09,0-.18,0-.08,0-.12,0-.16.02-.05.01-.09.02-.19.02-.03,0-.05-.02-.05-.05s.02-.05.05-.05c.08,0,.12,0,.16-.02.05-.01.09-.02.19-.02.09,0,.13,0,.17,0,.04,0,.09,0,.18,0,.09,0,.14.01.19.03.04.01.08.02.16.02.09,0,.13,0,.17,0,.04,0,.09,0,.18,0,.08,0,.12,0,.16-.02.05,0,.09-.02.18-.02s.14,0,.18.01c.04,0,.08.01.17.01.09,0,.14,0,.18.01.04,0,.08.01.17.01h.35c.09,0,.13,0,.17,0,.04,0,.09,0,.18,0,.08,0,.12,0,.16-.02.05-.01.09-.02.18-.02s.14,0,.18.02c.04,0,.08.02.17.02s.12,0,.17-.02c.05,0,.09-.02.18-.02s.14,0,.18.02c.04,0,.08.02.17.02.09,0,.13,0,.18,0,.04,0,.09,0,.17,0s.12,0,.17-.02c.05,0,.09-.02.18-.02s.13,0,.18,0c.04,0,.09,0,.17,0s.13,0,.17,0c.04,0,.09,0,.18,0s.14,0,.18.02c.04,0,.08.02.17.02h.35c.08,0,.12,0,.17-.01.05,0,.09-.02.18-.02s.13,0,.17,0c.04,0,.09,0,.18,0,.09,0,.14.01.18.02.04,0,.08.02.16.02s.13,0,.17-.01c.04,0,.09-.01.18-.01.09,0,.13,0,.17,0,.05,0,.09,0,.18,0s.14,0,.18.01c.04,0,.08.01.17.01s.12-.01.16-.02c.05-.01.09-.02.19-.02s.13,0,.18,0c.04,0,.09,0,.17,0,.09,0,.14,0,.18.02.04,0,.08.01.17.01s.12,0,.17-.01c.04,0,.09-.02.18-.02s.13,0,.18,0,.08,0,.17,0,.13,0,.17,0c.04,0,.09,0,.18,0s.14,0,.18,0,.09,0,.17,0c.09,0,.13,0,.18,0,.04,0,.09,0,.17,0s.13,0,.17,0c.04,0,.09-.01.18-.01.08,0,.12,0,.17-.02.05,0,.09-.02.18-.02s.14,0,.18.02c.04,0,.08.02.17.02h.35c.08,0,.13,0,.17,0,.04,0,.09,0,.18,0,.08,0,.13,0,.17,0,.04,0,.09,0,.18,0s.14.01.19.02c.04.01.08.02.16.02.09,0,.13,0,.17,0,.04,0,.09,0,.18,0s.14,0,.18.01c.04,0,.08.01.17.01s.12,0,.17-.02c.05,0,.09-.02.18-.02.09,0,.13,0,.17,0,.04,0,.09,0,.18,0s.14,0,.18.02c.04,0,.08.02.16.02.09,0,.13,0,.18,0,.04,0,.09,0,.17,0s.13,0,.17,0c.04,0,.09,0,.18,0,.08,0,.12-.01.16-.02.05-.01.09-.02.19-.02s.13,0,.18,0c.04,0,.09,0,.17,0,.09,0,.14,0,.18.02.04,0,.08.01.17.01s.13,0,.17,0c.04,0,.09,0,.18,0s.13,0,.17,0c.04,0,.09,0,.18,0s.14,0,.18,0,.09,0,.17,0,.13,0,.18,0c.04,0,.09,0,.17,0s.12,0,.17-.01c.04,0,.09-.01.18-.01s.14,0,.18.01c.04,0,.08.01.17.01s.12,0,.17-.01c.05,0,.09-.01.18-.01s.13,0,.18,0c.04,0,.09,0,.17,0s.13,0,.17,0c.04,0,.09,0,.18,0s.14,0,.18.02c.04,0,.08.02.17.02s.13,0,.17-.01c.05,0,.09-.01.18-.01.08,0,.13,0,.17-.01.04,0,.09-.01.18-.01s.13,0,.17,0c.04,0,.09,0,.18,0s.14,0,.18.02c.04,0,.08.02.17.02.09,0,.13,0,.18,0,.04,0,.09,0,.17,0s.13,0,.18,0c.04,0,.09,0,.17,0,.08,0,.12-.01.16-.02.05-.01.09-.03.19-.03.09,0,.13,0,.17,0,.04,0,.09,0,.18,0,.18,0,.18,0,.35,0,.09,0,.13,0,.18,0,.04,0,.09,0,.17,0,.09,0,.14.01.19.03.04.01.08.02.16.02.17,0,.17,0,.35,0,.09,0,.13,0,.17,0,.04,0,.09,0,.18,0s.13,0,.18,0c.04,0,.09,0,.17,0s.13,0,.17-.01c.04,0,.09-.01.18-.01.09,0,.13,0,.17-.01.04,0,.09-.01.18-.01s.14,0,.18,0c.04,0,.09,0,.17,0s.13,0,.17,0c.04,0,.09-.01.18-.01s.14.01.19.03c.04.01.08.02.16.02s.13,0,.17-.01c.05,0,.09-.01.18-.01s.14,0,.18,0c.04,0,.09,0,.17,0,.18,0,.18,0,.35,0,.09,0,.13,0,.18,0,.04,0,.09,0,.18,0,.08,0,.12-.01.16-.02.05-.01.09-.03.19-.03s.14,0,.18.01c.04,0,.09,0,.17,0s.13,0,.17,0c.04,0,.09-.01.18-.01s.13,0,.18,0c.04,0,.09,0,.18,0,.09,0,.14.01.19.02.04.01.08.02.17.02.18,0,.18,0,.35,0,.09,0,.13,0,.18,0,.04,0,.09,0,.18,0,.03,0,.05.02.05.05s-.02.05-.05.05c-.09,0-.13,0-.18,0-.04,0-.09,0-.18,0-.18,0-.18,0-.35,0-.09,0-.14-.01-.19-.02-.04-.01-.08-.02-.17-.02-.09,0-.13,0-.18,0-.04,0-.09,0-.18,0s-.13,0-.17,0c-.04,0-.09.01-.18.01s-.14,0-.18-.01c-.04,0-.09,0-.17,0s-.12.01-.16.02c-.05.01-.09.03-.19.03-.09,0-.13,0-.18,0-.04,0-.09,0-.18,0-.18,0-.18,0-.35,0-.09,0-.14,0-.18,0-.04,0-.09,0-.17,0s-.13,0-.17.01c-.05,0-.09.01-.18.01s-.14-.01-.19-.03c-.04-.01-.08-.02-.16-.02s-.13,0-.17,0c-.04,0-.09.01-.18.01s-.14,0-.18,0c-.04,0-.09,0-.17,0s-.13,0-.17.01c-.04,0-.09.01-.18.01-.09,0-.13,0-.17.01-.04,0-.09.01-.18.01s-.13,0-.18,0c-.04,0-.09,0-.17,0s-.13,0-.17,0c-.04,0-.09,0-.18,0-.18,0-.17,0-.35,0-.09,0-.14-.01-.19-.03-.04-.01-.08-.02-.16-.02-.09,0-.13,0-.18,0-.04,0-.09,0-.17,0-.18,0-.18,0-.35,0-.09,0-.13,0-.17,0-.04,0-.09,0-.18,0-.08,0-.12.01-.16.02-.05.01-.09.03-.19.03Z"/>
    <path d="M38.7,15.65c-.09,0-.14,0-.18-.02-.04,0-.08-.02-.17-.02-.09,0-.13,0-.18,0-.04,0-.08,0-.17,0-.03,0-.05-.02-.05-.05s.02-.05.05-.05c.09,0,.13,0,.18,0,.04,0,.08,0,.17,0,.09,0,.14,0,.18.02.04,0,.08.02.17.02s.13,0,.17,0c.04,0,.09,0,.17,0s.13,0,.17,0c.04,0,.09-.01.18-.01.08,0,.12,0,.17-.01.04,0,.09-.01.18-.01s.14.01.19.02c.04.01.08.02.16.02.17,0,.17,0,.35,0,.08,0,.12,0,.17-.01.04,0,.09-.01.18-.01.08,0,.13,0,.17,0,.04,0,.09,0,.18,0s.14,0,.18.01c.04,0,.08.01.17.01s.13,0,.17,0c.04,0,.09,0,.18,0s.14,0,.18.02c.04,0,.08.02.16.02s.12,0,.16-.02c.05-.01.09-.02.18-.02s.14,0,.18.02c.04,0,.08.01.17.01s.13,0,.17,0c.04,0,.09,0,.18,0s.14,0,.18.01c.04,0,.08,0,.17,0s.12,0,.16-.02c.05-.01.09-.02.18-.02.09,0,.13,0,.17,0,.04,0,.09,0,.18,0,.17,0,.17,0,.35,0,.09,0,.13,0,.18.01.04,0,.08.01.17.01.09,0,.13,0,.18,0,.04,0,.08,0,.17,0s.12,0,.17-.01c.04,0,.09-.02.18-.02s.14,0,.18.02c.04,0,.08.02.16.02s.12-.01.16-.02c.05-.01.09-.02.18-.02s.14,0,.18.02c.04,0,.08.01.17.01.09,0,.14,0,.18.01.04,0,.08.01.17.01.17,0,.17,0,.35,0,.09,0,.13,0,.17,0,.04,0,.09,0,.18,0s.13,0,.18,0c.04,0,.09,0,.17,0,.08,0,.12,0,.16-.02.05-.01.09-.02.19-.02.09,0,.13,0,.18,0,.04,0,.09,0,.17,0s.13,0,.17,0c.04,0,.09,0,.17,0s.14,0,.18.02c.04,0,.08.01.17.01s.12,0,.17-.01c.04,0,.09-.01.18-.01s.13,0,.18,0c.04,0,.08,0,.17,0,.09,0,.13,0,.18,0,.04,0,.08,0,.17,0s.13,0,.17,0c.04,0,.09,0,.18,0s.13,0,.17,0c.04,0,.09,0,.18,0s.13,0,.18.01c.04,0,.08,0,.17,0s.13,0,.17,0c.04,0,.09,0,.18,0s.14,0,.18.02c.04,0,.08.02.17.02.09,0,.13,0,.17,0,.04,0,.09,0,.17,0,.17,0,.17,0,.35,0,.09,0,.13,0,.17,0,.04,0,.09,0,.18,0,.08,0,.12,0,.17-.01.04,0,.09-.02.18-.02s.13,0,.18,0c.04,0,.09,0,.17,0s.14,0,.18.01c.04,0,.08,0,.17,0s.13,0,.18,0c.04,0,.09,0,.17,0s.12,0,.17-.01c.04,0,.09-.02.18-.02s.14.01.18.02c.04.01.08.02.16.02s.13,0,.17,0c.04,0,.09,0,.18,0,.08,0,.12,0,.16-.02.05-.01.09-.02.18-.02s.13,0,.18,0c.04,0,.09,0,.17,0s.14,0,.18.01c.04,0,.08.01.17.01h.35c.09,0,.13,0,.18,0,.04,0,.09,0,.17,0s.13,0,.17,0c.04,0,.09,0,.18,0s.13,0,.17,0c.04,0,.09,0,.18,0s.13,0,.17,0c.04,0,.09,0,.18,0s.13,0,.17,0c.04,0,.09,0,.17,0h.35c.09,0,.13,0,.17,0,.04,0,.09,0,.18,0,.09,0,.14.01.19.02.04.01.08.02.16.02.09,0,.13,0,.17,0,.04,0,.09,0,.18,0s.13,0,.17-.01c.04,0,.09-.01.18-.01.08,0,.13,0,.17,0,.04,0,.09,0,.18,0s.14.01.18.02c.04,0,.08.02.16.02.09,0,.13,0,.17,0,.04,0,.09,0,.17,0,.08,0,.12,0,.17-.02.05,0,.09-.02.18-.02s.14,0,.18,0c.04,0,.08,0,.17,0,.09,0,.14,0,.18.01.04,0,.08,0,.17,0s.13,0,.18,0c.04,0,.09,0,.17,0s.12,0,.16-.02c.05-.01.09-.02.18-.02s.14,0,.18.01c.04,0,.08.01.17.01s.12,0,.17-.01c.05,0,.09-.02.18-.02s.14,0,.18.01c.04,0,.08.01.17.01.09,0,.14,0,.18.01.04,0,.08.01.17.01h.35c.08,0,.13,0,.17-.01.04,0,.09-.01.18-.01s.13,0,.18,0c.04,0,.09,0,.17,0s.13,0,.17,0c.04,0,.09,0,.18,0s.14,0,.18.02c.04,0,.08.01.17.01.09,0,.13,0,.18,0,.04,0,.09,0,.18,0h.35c.08,0,.12,0,.17-.02.05-.01.09-.02.19-.02.03,0,.05.02.05.05s-.02.05-.05.05c-.08,0-.12,0-.17.02-.05.01-.09.02-.19.02h-.35c-.09,0-.13,0-.18,0-.04,0-.09,0-.18,0s-.14,0-.18-.02c-.04,0-.08-.01-.17-.01s-.13,0-.17,0c-.04,0-.09,0-.18,0s-.13,0-.18,0c-.04,0-.09,0-.17,0s-.13,0-.17.01c-.04,0-.09.01-.18.01h-.35c-.09,0-.14,0-.18-.01-.04,0-.08-.01-.17-.01-.09,0-.14,0-.18-.01-.04,0-.08-.01-.17-.01s-.12,0-.17.01c-.05,0-.09.02-.18.02s-.14,0-.18-.01c-.04,0-.08-.01-.17-.01s-.12,0-.16.02c-.05.01-.09.02-.19.02s-.13,0-.18,0c-.04,0-.09,0-.17,0s-.14,0-.18-.01c-.04,0-.08,0-.17,0-.09,0-.14,0-.18,0-.04,0-.08,0-.17,0s-.12,0-.17.02c-.05,0-.09.02-.18.02-.09,0-.13,0-.17,0-.04,0-.09,0-.17,0-.09,0-.14-.01-.18-.02-.04,0-.08-.02-.16-.02s-.13,0-.17,0c-.04,0-.09,0-.18,0-.08,0-.12,0-.17.01-.04,0-.09.01-.18.01s-.13,0-.17,0c-.04,0-.09,0-.18,0-.09,0-.14-.01-.19-.02-.04-.01-.08-.02-.16-.02-.09,0-.13,0-.17,0-.04,0-.09,0-.18,0h-.35c-.09,0-.13,0-.17,0-.04,0-.09,0-.18,0s-.13,0-.17,0c-.04,0-.09,0-.18,0s-.13,0-.17,0c-.04,0-.09,0-.18,0s-.13,0-.17,0c-.04,0-.09,0-.18,0s-.13,0-.18,0c-.04,0-.09,0-.17,0h-.35c-.09,0-.14,0-.18-.01-.04,0-.08-.01-.17-.01s-.13,0-.18,0c-.04,0-.09,0-.17,0-.08,0-.12,0-.16.02-.05.01-.09.02-.18.02-.09,0-.13,0-.17,0-.04,0-.09,0-.18,0-.09,0-.14-.01-.19-.02-.04-.01-.08-.02-.16-.02s-.12,0-.17.01c-.04,0-.09.02-.18.02s-.13,0-.18,0c-.04,0-.09,0-.17,0s-.14,0-.18-.01c-.04,0-.08,0-.17,0s-.13,0-.18,0c-.04,0-.09,0-.17,0s-.12,0-.17.01c-.04,0-.09.02-.18.02-.09,0-.13,0-.17,0-.04,0-.09,0-.18,0-.17,0-.17,0-.35,0-.09,0-.13,0-.17,0-.04,0-.09,0-.17,0-.09,0-.14,0-.18-.02-.04,0-.08-.02-.17-.02s-.13,0-.17,0c-.04,0-.09,0-.18,0s-.13,0-.18-.01c-.04,0-.08,0-.17,0s-.13,0-.17,0c-.04,0-.09,0-.18,0s-.13,0-.17,0c-.04,0-.09,0-.18,0s-.13,0-.18,0c-.04,0-.08,0-.17,0s-.13,0-.18,0c-.04,0-.08,0-.17,0s-.12,0-.17.01c-.04,0-.09.01-.18.01s-.14,0-.18-.02c-.04,0-.08-.01-.17-.01s-.13,0-.17,0c-.04,0-.09,0-.17,0s-.13,0-.18,0c-.04,0-.09,0-.17,0-.08,0-.12,0-.16.02-.05.01-.09.02-.19.02-.09,0-.13,0-.18,0-.04,0-.09,0-.17,0s-.13,0-.17,0c-.04,0-.09,0-.18,0-.17,0-.17,0-.35,0-.09,0-.14,0-.18-.01-.04,0-.08-.01-.17-.01-.09,0-.14,0-.18-.02-.04,0-.08-.01-.17-.01s-.12.01-.16.02c-.05.01-.09.02-.19.02s-.14,0-.18-.02c-.04,0-.08-.02-.16-.02s-.12,0-.16.01c-.04,0-.09.02-.18.02s-.13,0-.18,0c-.04,0-.08,0-.17,0-.09,0-.13,0-.18-.01-.04,0-.08-.01-.17-.01-.17,0-.17,0-.35,0-.09,0-.13,0-.17,0-.04,0-.09,0-.18,0-.08,0-.12,0-.16.02-.05.01-.09.02-.18.02s-.14,0-.18-.01c-.04,0-.08,0-.17,0s-.13,0-.17,0c-.04,0-.09,0-.18,0s-.14,0-.18-.02c-.04,0-.08-.01-.17-.01s-.12,0-.16.02c-.05.01-.09.02-.18.02s-.14,0-.18-.02c-.04,0-.08-.02-.16-.02s-.13,0-.17,0c-.04,0-.09,0-.18,0s-.14,0-.18-.01c-.04,0-.08-.01-.17-.01s-.13,0-.17,0c-.04,0-.09,0-.18,0-.08,0-.12,0-.17.01-.04,0-.09.01-.18.01-.17,0-.17,0-.35,0-.09,0-.14-.01-.19-.02-.04-.01-.08-.02-.16-.02s-.12,0-.17.01c-.04,0-.09.01-.18.01-.08,0-.13,0-.17,0-.04,0-.09.01-.18.01s-.13,0-.17,0c-.04,0-.09,0-.17,0Z"/>
    <path d="M60.57,13.8c-.09,0-.14-.01-.19-.03-.04-.01-.08-.02-.16-.02s-.12,0-.17.01c-.04,0-.09.01-.18.01s-.14,0-.18-.01c-.04,0-.08-.01-.17-.01s-.12,0-.17.01c-.04,0-.09.01-.18.01-.17,0-.17,0-.35,0s-.17,0-.35,0c-.09,0-.14,0-.18-.01-.04,0-.08-.01-.17-.01s-.13,0-.17,0c-.04,0-.09,0-.18,0s-.13,0-.18,0c-.04,0-.09,0-.17,0-.17,0-.17,0-.35,0-.08,0-.13,0-.17,0-.04,0-.09,0-.18,0-.08,0-.12,0-.16.02-.05.01-.09.02-.18.02s-.14,0-.18-.01c-.04,0-.08-.01-.17-.01s-.13,0-.17,0c-.04,0-.09,0-.18,0s-.13,0-.17,0c-.04,0-.09,0-.17,0s-.13,0-.18,0c-.04,0-.08,0-.17,0s-.13,0-.18,0c-.04,0-.09,0-.17,0s-.12,0-.17.01c-.04,0-.09.01-.18.01s-.14,0-.18-.01c-.04,0-.08-.01-.17-.01s-.13,0-.17,0c-.04,0-.09,0-.17,0s-.12,0-.17.01c-.04,0-.09.02-.18.02h-.35c-.09,0-.14,0-.18-.01-.04,0-.08-.01-.17-.01s-.13,0-.17,0c-.04,0-.09,0-.17,0s-.12,0-.17,0c-.04,0-.09,0-.18,0s-.13,0-.17,0c-.04,0-.09,0-.18,0-.09,0-.14-.01-.19-.03-.04-.01-.08-.02-.16-.02h-.35c-.08,0-.12.01-.16.02-.05.01-.09.03-.19.03-.09,0-.13,0-.18,0-.04,0-.09,0-.17,0s-.13,0-.17,0c-.04,0-.09,0-.17,0s-.13,0-.18,0c-.04,0-.09,0-.17,0s-.13,0-.18,0c-.04,0-.08,0-.17,0s-.13,0-.18,0c-.04,0-.08,0-.17,0s-.13,0-.17,0c-.04,0-.09,0-.17,0s-.13,0-.17,0c-.04,0-.09,0-.18,0-.08,0-.12,0-.17.02-.04,0-.09.02-.18.02s-.13,0-.17,0c-.04,0-.09,0-.17,0s-.14,0-.18-.01c-.04,0-.08-.01-.17-.01-.09,0-.13,0-.18,0-.04,0-.08,0-.17,0-.08,0-.12.01-.16.03-.04.01-.09.03-.19.03s-.14-.01-.18-.03c-.04-.01-.08-.02-.16-.02s-.12.01-.16.02c-.05.01-.09.03-.18.03s-.14,0-.18-.02c-.04,0-.08-.02-.16-.02-.09,0-.13,0-.18,0-.04,0-.08,0-.17,0s-.12,0-.17.01c-.04,0-.09.01-.18.01s-.13,0-.18,0c-.04,0-.09,0-.17,0s-.12,0-.16.02c-.05,0-.09.02-.18.02s-.14,0-.18-.01c-.04,0-.08-.01-.17-.01s-.13,0-.17,0c-.04,0-.09,0-.18,0s-.13,0-.18,0c-.04,0-.09,0-.17,0h-.35c-.09,0-.13,0-.18,0-.04,0-.08,0-.17,0s-.13,0-.17,0c-.04,0-.09,0-.17,0s-.13,0-.18,0c-.04,0-.08,0-.17,0s-.12,0-.16.02c-.05,0-.09.02-.18.02-.08,0-.12,0-.17,0-.04,0-.09.01-.18.01s-.13,0-.18-.01c-.04,0-.08,0-.17,0-.09,0-.14,0-.18-.02-.04,0-.08-.02-.16-.02s-.12.01-.16.02c-.05.01-.09.02-.18.02h-.35c-.09,0-.14-.01-.18-.02-.04,0-.08-.02-.16-.02s-.12,0-.17.01c-.04,0-.09.01-.18.01-.17,0-.17,0-.35,0-.09,0-.13,0-.18,0-.04,0-.09,0-.17,0-.03,0-.05-.02-.05-.05s.02-.05.05-.05c.09,0,.13,0,.18,0,.04,0,.09,0,.17,0,.17,0,.17,0,.35,0,.08,0,.12,0,.17-.01.04,0,.09-.01.18-.01s.14,0,.18.02c.04,0,.08.02.16.02h.35c.08,0,.12,0,.16-.02.05-.01.09-.02.19-.02s.14,0,.18.02c.04,0,.08.02.16.02.09,0,.14,0,.18.01.04,0,.08,0,.17,0s.13,0,.17,0c.04,0,.09-.01.18-.01.08,0,.12,0,.16-.02.05,0,.09-.02.18-.02s.13,0,.18,0c.04,0,.08,0,.17,0s.13,0,.17,0c.04,0,.09,0,.17,0s.13,0,.18,0c.04,0,.08,0,.17,0h.35c.09,0,.13,0,.18,0,.04,0,.09,0,.17,0s.13,0,.17,0c.04,0,.09,0,.18,0s.14,0,.18.01c.04,0,.08.01.17.01s.12,0,.16-.02c.05,0,.09-.02.18-.02.09,0,.13,0,.17,0,.04,0,.09,0,.17,0s.12,0,.17-.01c.04,0,.09-.01.18-.01s.13,0,.18,0c.04,0,.08,0,.17,0,.09,0,.14,0,.18.02.04,0,.08.02.16.02s.12-.01.16-.02c.05-.01.09-.03.19-.03s.14.01.18.03c.04.01.08.02.16.02s.12-.01.16-.03c.04-.01.09-.03.19-.03s.13,0,.18,0c.04,0,.08,0,.17,0,.09,0,.14,0,.18.01.04,0,.08.01.17.01.09,0,.13,0,.17,0,.04,0,.09,0,.17,0s.12,0,.17-.02c.04,0,.09-.02.18-.02.09,0,.13,0,.17,0,.04,0,.09,0,.18,0s.13,0,.17,0c.04,0,.09,0,.17,0s.13,0,.18,0c.04,0,.08,0,.17,0s.13,0,.18,0c.04,0,.08,0,.17,0s.13,0,.18,0c.04,0,.09,0,.17,0s.13,0,.17,0c.04,0,.09,0,.17,0s.13,0,.18,0c.04,0,.09,0,.17,0,.08,0,.12-.01.16-.02.05-.01.09-.03.19-.03h.35c.09,0,.14.01.19.03.04.01.08.02.16.02.09,0,.13,0,.17,0,.04,0,.09,0,.18,0s.12,0,.17,0c.04,0,.09,0,.18,0s.13,0,.17,0c.04,0,.09,0,.17,0s.14,0,.18.01c.04,0,.08.01.17.01h.35c.08,0,.12,0,.17-.02.04,0,.09-.02.18-.02s.13,0,.17,0c.04,0,.09,0,.17,0,.09,0,.14,0,.18.01.04,0,.08.01.17.01s.13,0,.17-.01c.04,0,.09-.01.18-.01s.13,0,.18,0c.04,0,.09,0,.17,0s.14,0,.18,0c.04,0,.08,0,.17,0s.13,0,.17,0c.04,0,.09,0,.17,0s.13,0,.17,0,.09,0,.18,0,.14,0,.18.01c.04,0,.08.01.17.01s.12,0,.16-.02c.05-.01.09-.02.18-.02.09,0,.13,0,.17,0,.04,0,.09,0,.18,0,.17,0,.17,0,.35,0,.09,0,.13,0,.18,0,.04,0,.09,0,.17,0s.13,0,.17,0c.04,0,.09,0,.18,0s.14,0,.18.01c.04,0,.08.01.17.01.17,0,.17,0,.35,0s.17,0,.35,0c.08,0,.12,0,.17-.01.04,0,.09-.01.18-.01s.14,0,.18.01c.04,0,.08.01.17.01s.13,0,.17-.01c.04,0,.09-.01.18-.01s.14.01.19.03c.04.01.08.02.16.02s.12,0,.16-.02c.05-.01.09-.02.18-.02s.13,0,.18,0c.04,0,.09,0,.17,0,.17,0,.17,0,.35,0,.08,0,.12,0,.17-.01.04,0,.09-.01.18-.01s.14,0,.18.02c.04,0,.08.02.16.02s.12,0,.17-.02c.05,0,.09-.02.18-.02s.14,0,.18.02c.04,0,.08.01.17.01s.12,0,.16-.02c.05-.01.09-.02.19-.02s.13,0,.18,0c.04,0,.08,0,.17,0s.13,0,.17,0c.04,0,.09,0,.18,0,.09,0,.14.01.19.03.04.01.08.02.16.02.09,0,.13,0,.17,0,.04,0,.09,0,.18,0s.13,0,.18,0c.04,0,.09,0,.17,0s.13,0,.17,0c.04,0,.09,0,.18,0s.13,0,.17,0c.04,0,.09,0,.18,0s.13,0,.17,0c.04,0,.09,0,.18,0s.13,0,.17,0c.04,0,.09,0,.18,0s.14.01.19.02c.04.01.08.02.16.02s.12-.01.16-.02c.05-.01.09-.02.19-.02s.14,0,.18,0c.04,0,.09,0,.17,0,.09,0,.14,0,.18.01.04,0,.08.01.17.01s.13,0,.17,0c.05,0,.09,0,.18,0,.03,0,.05.02.05.05s-.02.05-.05.05c-.09,0-.13,0-.17,0-.05,0-.09,0-.18,0s-.14,0-.18-.01c-.04,0-.08-.01-.17-.01-.09,0-.14,0-.18,0-.04,0-.09,0-.17,0s-.12.01-.16.02c-.05.01-.09.02-.19.02s-.14-.01-.19-.02c-.04-.01-.08-.02-.16-.02s-.13,0-.17,0c-.04,0-.09,0-.18,0s-.13,0-.17,0c-.04,0-.09,0-.18,0s-.13,0-.17,0c-.04,0-.09,0-.18,0s-.13,0-.17,0c-.04,0-.09,0-.18,0s-.13,0-.18,0c-.04,0-.09,0-.17,0s-.13,0-.17,0c-.04,0-.09,0-.18,0-.09,0-.14-.01-.19-.03-.04-.01-.08-.02-.16-.02-.09,0-.13,0-.17,0-.04,0-.09,0-.18,0s-.13,0-.18,0c-.04,0-.08,0-.17,0s-.12,0-.16.02c-.05.01-.09.02-.19.02s-.14,0-.18-.02c-.04,0-.08-.01-.17-.01s-.12,0-.17.02c-.05,0-.09.02-.18.02s-.14,0-.18-.02c-.04,0-.08-.02-.16-.02s-.12,0-.17.01c-.04,0-.09.01-.18.01-.18,0-.17,0-.35,0-.09,0-.13,0-.18,0-.04,0-.09,0-.17,0s-.12,0-.16.02c-.05.01-.09.02-.18.02Z"/>
  </g>
</svg>