<?xml version="1.0" encoding="UTF-8"?>
<svg id="Color_Kit" data-name="Color Kit" xmlns="http://www.w3.org/2000/svg" viewBox="0 0 72 100">
  <path d="M4.1,29.27h7.23v2.37h-4.5v2.98h4.25v2.28h-4.25v3.53h4.5v2.37h-7.23v-13.52Z"/>
  <path d="M12.18,41.57l1.16-1.74c.54.61,1.41,1.09,2.32,1.09.68,0,1.22-.3,1.22-.86,0-.52-.29-.7-1.59-.95-1.59-.34-2.38-1.2-2.38-2.56,0-1.61,1.29-2.85,3.3-2.85,1.29,0,2.23.39,2.86.86l-.86,1.7c-.57-.45-1.18-.68-1.78-.68-.53,0-.98.2-.98.65s.3.66,1.37.91c1.77.41,2.57,1.16,2.57,2.62,0,1.85-1.3,3.21-3.64,3.21-1.61,0-2.93-.7-3.57-1.4Z"/>
  <path d="M20.03,41.57l1.16-1.74c.54.61,1.41,1.09,2.32,1.09.68,0,1.22-.3,1.22-.86,0-.52-.29-.7-1.59-.95-1.59-.34-2.38-1.2-2.38-2.56,0-1.61,1.29-2.85,3.3-2.85,1.29,0,2.23.39,2.86.86l-.86,1.7c-.57-.45-1.18-.68-1.78-.68-.53,0-.98.2-.98.65s.3.66,1.37.91c1.77.41,2.57,1.16,2.57,2.62,0,1.85-1.3,3.21-3.64,3.21-1.61,0-2.93-.7-3.57-1.4Z"/>
  <path d="M28.18,38.34c0-2.65,1.84-4.64,4.27-4.64,1.2,0,2.34.5,2.93,1.31h.02v-1.13h2.64v8.91h-2.64v-1.04h-.02c-.66.79-1.73,1.22-2.95,1.22-2.54,0-4.25-1.86-4.25-4.63ZM35.55,38.29c0-1.45-1-2.38-2.36-2.38s-2.34.99-2.34,2.42.91,2.44,2.27,2.44c1.46,0,2.43-1.02,2.43-2.47Z"/>
  <path d="M43.06,42.23l-4.21-8.35h2.98l2.57,5.57h.04l2.52-5.57h2.84l-6.46,13.57h-2.95l2.68-5.22Z"/>
  <path d="M49.4,41.57l1.16-1.74c.54.61,1.41,1.09,2.32,1.09.68,0,1.22-.3,1.22-.86,0-.52-.29-.7-1.59-.95-1.59-.34-2.38-1.2-2.38-2.56,0-1.61,1.29-2.85,3.3-2.85,1.29,0,2.23.39,2.86.86l-.86,1.7c-.57-.45-1.18-.68-1.78-.68-.53,0-.98.2-.98.65s.3.66,1.37.91c1.77.41,2.57,1.16,2.57,2.62,0,1.85-1.3,3.21-3.64,3.21-1.61,0-2.93-.7-3.57-1.4Z"/>
  <g>
    <path d="M37.91,49.62l-1.09,8.91h-2.64l1.09-8.91h2.64ZM35.39,46.67c0-.97.71-1.7,1.66-1.7.84,0,1.39.52,1.39,1.27,0,.99-.7,1.68-1.66,1.68-.86,0-1.39-.48-1.39-1.25Z"/>
    <path d="M39.82,49.62h2.64l-.16,1.18h.02c.77-.89,1.75-1.36,2.91-1.36,1.98,0,3.11,1.34,2.84,3.53l-.66,5.56h-2.64l.62-4.95c.16-1.33-.43-1.92-1.41-1.92-1.05,0-1.86.72-2,1.86l-.61,5h-2.64l1.09-8.91Z"/>
  </g>
  <g>
    <path d="M16.57,57.03h4.12c2.54,0,4.09,1.33,4.09,3.46,0,1.36-.53,2.24-1.5,2.76v.06c1.7.25,2.8,1.61,2.8,3.41,0,2.35-1.78,3.83-4.62,3.83h-4.89v-13.52ZM20.48,62.63c1.07,0,1.75-.66,1.75-1.72,0-.95-.64-1.61-1.66-1.61h-1.27v3.33h1.18ZM21.02,68.35c1.41,0,2.16-.67,2.16-1.9,0-1.09-.82-1.77-2.02-1.77h-1.85v3.68h1.71Z"/>
    <path d="M30.33,55.67v14.88h-2.63v-14.88h2.63Z"/>
    <path d="M31.89,66.07c0-2.71,2.09-4.61,5.02-4.61s4.93,1.77,4.93,4.55-2.09,4.71-5,4.71-4.94-1.85-4.94-4.66ZM39.18,66.11c0-1.43-.95-2.35-2.3-2.35s-2.32.9-2.32,2.37.98,2.39,2.32,2.39,2.3-.95,2.3-2.4Z"/>
    <path d="M42.79,66.07c0-2.71,2.09-4.61,5.02-4.61s4.93,1.77,4.93,4.55-2.09,4.71-5,4.71-4.95-1.85-4.95-4.66ZM50.08,66.11c0-1.43-.95-2.35-2.3-2.35s-2.32.9-2.32,2.37.98,2.39,2.32,2.39,2.3-.95,2.3-2.4Z"/>
    <path d="M54.21,61.64h2.63v1.09h.03c.48-.68,1.27-1.27,2.5-1.27s2.16.59,2.61,1.5c.68-1,1.69-1.5,2.86-1.5,1.89,0,2.98,1.25,2.98,3.14v5.95h-2.62v-5.15c0-1.22-.48-1.79-1.41-1.79-.98,0-1.47.59-1.47,1.67v5.27h-2.62v-5.15c0-1.15-.41-1.79-1.38-1.79s-1.48.66-1.48,1.77v5.16h-2.63v-8.91Z"/>
  </g>
  <path d="M67.72,58.5c-.35,0-.53,0-.71-.01-.17,0-.35-.01-.69-.01-.7,0-.7,0-1.4,0-.35,0-.53,0-.71,0-.17,0-.35,0-.7,0h-1.4c-.35,0-.53,0-.71-.01-.17,0-.35-.02-.69-.02s-.51.01-.68.03c-.18.02-.36.03-.71.03s-.54-.02-.72-.03c-.17-.02-.34-.03-.68-.03h-1.4c-.35,0-.52.01-.69.02-.18.01-.36.02-.71.02s-.53,0-.71-.02c-.17,0-.35-.02-.69-.02-.7,0-.7,0-1.4,0-.35,0-.52,0-.69.02-.18,0-.36.02-.71.02s-.53,0-.71-.02c-.17,0-.35-.02-.69-.02-.07-.05-.11-.13-.1-.21.01-.1.09-.16.1-.16.36,0,.53,0,.71.02.17,0,.35.02.69.02s.52,0,.69-.02c.18,0,.35-.02.71-.02.7,0,.7,0,1.4,0,.36,0,.53,0,.71.02.17,0,.35.02.69.02s.52-.01.69-.02c.18-.01.36-.02.71-.02h1.4c.36,0,.54.02.72.03.17.02.34.03.68.03s.51-.01.68-.03c.18-.02.36-.03.71-.03s.53,0,.71.02c.17,0,.35.02.69.02h1.4c.35,0,.53,0,.7,0,.17,0,.35,0,.7,0,.7,0,.7,0,1.4,0,.35,0,.53,0,.71.01.17,0,.35.01.69.01.12.01.2.12.18.22-.01.08-.09.15-.18.15Z"/>
  <path d="M4.2,44.97c.35,0,.52,0,.7.02.17,0,.34.02.68.02s.51,0,.68-.02c.17,0,.35-.02.69-.02.69,0,.69,0,1.38,0,.35,0,.52,0,.7.02.17,0,.34.02.68.02s.51-.01.67-.02c.17-.01.35-.02.7-.02h1.37c.35,0,.53.02.7.03.17.02.33.03.67.03s.5-.01.67-.03c.18-.02.35-.03.7-.03s.52,0,.7.02c.17,0,.34.02.68.02h1.38c.34,0,.52,0,.69,0,.17,0,.34,0,.68,0,.69,0,.69,0,1.37,0,.35,0,.52,0,.69.01.17,0,.34.01.68.01s.51,0,.68-.01c.17,0,.35-.01.69-.01s.52.01.7.03c.17.01.34.02.67.02s.5-.01.67-.02c.17-.01.35-.03.7-.03s.52,0,.69.01c.17,0,.34.01.68.01s.5-.01.67-.03c.18-.01.35-.03.7-.03h1.37c.35,0,.53.02.7.03.17.02.33.04.67.04s.5-.01.67-.02c.18-.01.35-.02.7-.02s.52,0,.69.01c.17,0,.34.01.68.01.1,0,.18.08.18.19s-.08.19-.18.19c-.35,0-.52,0-.69-.01-.17,0-.34-.01-.68-.01s-.51.01-.67.02c-.18.01-.35.02-.7.02s-.53-.02-.71-.04c-.17-.02-.33-.04-.67-.04h-1.37c-.33,0-.5.02-.67.03-.18.01-.35.03-.7.03s-.52,0-.69-.01c-.17,0-.34-.01-.68-.01s-.5.01-.67.02c-.17.01-.35.03-.7.03s-.52-.01-.7-.03c-.17-.01-.34-.02-.67-.02s-.51,0-.68.01c-.17,0-.35.01-.69.01s-.52,0-.69-.01c-.17,0-.34-.01-.68-.01-.69,0-.69,0-1.37,0-.35,0-.52,0-.69,0-.17,0-.34,0-.68,0h-1.38c-.35,0-.52,0-.69-.01-.17,0-.34-.02-.68-.02s-.5.01-.67.03c-.18.02-.35.03-.7.03s-.53-.02-.7-.03c-.17-.02-.33-.03-.67-.03h-1.37c-.34,0-.51.01-.67.02-.17.01-.35.02-.7.02s-.52,0-.7-.02c-.17,0-.34-.02-.68-.02-.68,0-.69,0-1.38,0-.34,0-.51,0-.68.02-.17,0-.35.02-.7.02s-.52,0-.69-.02c-.17,0-.34-.02-.68-.02-.07-.05-.11-.13-.1-.21.01-.1.09-.16.1-.16Z"/>
</svg>