<?xml version="1.0" encoding="UTF-8"?>
<svg id="Layer_1" data-name="Layer 1" xmlns="http://www.w3.org/2000/svg" viewBox="0 0 72 100">
  <defs>
    <style>
      .cls-1, .cls-2, .cls-3, .cls-4, .cls-5, .cls-6 {
        font-family: Futura100-Demibold, 'Futura 100';
      }

      .cls-7 {
        font-size: 14.65px;
      }

      .cls-7, .cls-8 {
        font-weight: 300;
      }

      .cls-9 {
        letter-spacing: -.02em;
      }

      .cls-10 {
        font-family: Futura100-DemiboldOblique, 'Futura 100';
        font-style: oblique;
      }

      .cls-10, .cls-6 {
        letter-spacing: 0em;
      }

      .cls-2 {
        letter-spacing: -.02em;
      }

      .cls-8 {
        font-family: TheSeasons-Light, 'The Seasons';
        font-size: 21.09px;
      }

      .cls-11 {
        letter-spacing: -.12em;
      }

      .cls-3 {
        letter-spacing: -.13em;
      }

      .cls-12 {
        letter-spacing: -.02em;
      }

      .cls-4 {
        letter-spacing: -.03em;
      }

      .cls-5 {
        letter-spacing: -.03em;
      }
    </style>
  </defs>
  <g>
    <path d="M23.91,25.18s0,0,.01,0c.46,0,.84-.39.83-.86-.05-2.91.46-4.27.92-4.55.15-.1.39-.06.71.09l7.67,6.16c-3.57,4.34-4.18,10.07-1.52,15.19.15.29.44.45.75.45.13,0,.26-.03.39-.09.41-.21.57-.72.36-1.13-2.48-4.78-1.74-10.16,1.93-14.03,3.21-3.4,6.49-5.47,10.02-6.35.24-.06.43-.08.57-.09.22.72.62,2.55.93,4.11.09.46.53.75.99.66.46-.09.75-.53.66-.99-.94-4.74-1.19-4.94-1.43-5.14-.44-.36-1.15-.43-2.12-.19-1.27.31-2.5.78-3.72,1.38-.2-.25-.41-.51-.64-.81-1.35-1.75-3.03-3.92-5.18-3.78-2.48.16-4.65,3.23-6.09,5.27-.01.02-.03.04-.04.06l-2.53-2.03-.13-.09c-1.14-.6-1.95-.37-2.44-.07-1.2.74-1.78,2.76-1.72,6.01,0,.46.38.83.84.83ZM31.32,21.44c1.1-1.56,3.14-4.45,4.82-4.56,1.27-.08,2.7,1.78,3.74,3.13.16.21.32.41.47.6-1.76,1.06-3.47,2.44-5.15,4.16l-3.98-3.19c.04-.05.06-.09.1-.14Z"/>
    <path d="M54.45,27.01c-.08-.08-2.04-2.03-5.19-1.76-6.58.56-11.51,5.62-13.54,13.9l-.09.39c-.11.5-.22.96-.41,1.24-1.21,1.74-3.62,2.36-5.61,1.43-3.24-1.51-5.86-4.67-7.18-8.66-.7-2.13-1.45-3.84-2.81-5.45,3.44-1.92,9.46.93,10.53,1.75.37.28.9.21,1.18-.16.28-.37.21-.9-.16-1.18-.98-.75-8.96-5.03-13.37-1.17l-.67.59.62.64c1.58,1.61,2.33,3.25,3.08,5.53,1.46,4.43,4.4,7.95,8.06,9.66,2.73,1.27,6.04.41,7.7-2,.38-.55.53-1.2.67-1.82l.09-.37c1.08-4.42,4.09-11.95,12.05-12.62,1.6-.14,2.79.49,3.4.91-.72,1.49-2.57,5.34-3.45,7.45-1.77,4.15-6.17,7.43-10.97,8.16-.46.07-.78.5-.71.96.06.42.42.71.83.71.04,0,.08,0,.13,0,5.35-.82,10.28-4.5,12.27-9.17,1.07-2.55,3.68-7.91,3.71-7.96l.26-.54-.42-.42Z"/>
  </g>
  <g>
    <text class="cls-7" transform="translate(.61 59.48)"><tspan class="cls-1" x="0" y="0">E</tspan><tspan class="cls-2" x="7.53" y="0">S</tspan><tspan class="cls-5" x="15.65" y="0">S</tspan><tspan class="cls-3" x="23.68" y="0">A</tspan><tspan class="cls-4" x="32.72" y="0">Y</tspan><tspan class="cls-6" x="41.92" y="0">S </tspan><tspan class="cls-10" x="53.39" y="0">IN</tspan></text>
    <text class="cls-8" transform="translate(.62 78.54)"><tspan class="cls-9" x="0" y="0">B</tspan><tspan class="cls-11" x="11.98" y="0">L</tspan><tspan class="cls-12" x="20.71" y="0">OOM</tspan></text>
  </g>
</svg>