<?xml version="1.0" encoding="UTF-8"?>
<svg id="Layer_1" data-name="Layer 1" xmlns="http://www.w3.org/2000/svg" viewBox="0 0 100 100">
  <path d="M50,42.88s0,0,0,0c-.25,0-.44-.21-.44-.45.05-2.25.93-4.17,2.43-5.46-2.01-1.94-3.19-4.98-3.23-8.48,0-.25.19-.45.44-.45h0c.24,0,.44.2.45.44.03,2.63.87,5.91,3.06,7.95.64-.42,1.37-.74,2.17-.94,1-.28,2.06-.24,2.81.12.63.28,1.01.76,1.03,1.31.03.55-.32,1.08-.91,1.41-1.39.79-3.26.41-4.5-.32-.22-.14-.44-.29-.65-.45-1.38,1.12-2.17,2.83-2.21,4.89,0,.24-.2.44-.45.44ZM53.43,37.02c.11.08.22.15.34.23,1.01.59,2.52.92,3.6.3.3-.17.47-.39.46-.59,0-.2-.2-.4-.51-.54-.57-.27-1.41-.29-2.21-.07-.61.16-1.17.38-1.67.68Z"/>
  <g>
    <path d="M11.18,83.31c-1.46,0-1.85-.2-2.06-.42-.17-.18-.23-.38-.24-.42l-.05-.16.07-.15c.19-.42.71-1.22,1.58-2.19.16-.18.45-.2.63-.04.18.16.2.45.04.63-.75.84-1.14,1.44-1.31,1.75.12.04.47.12,1.35.12,4.18,0,14.49-1.79,14.59-1.8,2.86-.5,10.53-1.34,19.89,1.68.23.08.36.33.29.56-.08.23-.33.36-.56.29-9.16-2.95-16.66-2.14-19.46-1.65-.43.07-10.49,1.82-14.74,1.82Z"/>
    <path d="M45.84,82.28c-.06,0-.12-.01-.18-.04-7.09-3.11-10.4-3.78-13.18-3.82-1.59,0-6.41.59-11.08,1.17-4.85.61-9.43,1.19-10.63,1.1-.21-.02-.44-.05-.58-.24-.16-.2-.67-.83,2.21-4.56.15-.19.43-.23.62-.08.19.15.23.43.08.62-.95,1.23-1.95,2.75-2.14,3.37,1.3.04,5.88-.54,10.32-1.1,4.69-.59,9.56-1.21,11.2-1.18,2.9.04,6.3.72,13.53,3.9.23.1.33.36.23.59-.07.17-.24.27-.41.27Z"/>
    <path d="M46.88,81.61c-.07,0-.15-.02-.21-.05-11.58-6.34-13.89-5.97-18.94-5.17-1.55.25-3.32.53-5.67.67-3.98.24-7.14.09-9.4-.45-1.02-.25-1.85-.57-2.46-.96-1.07-.68-1.21-1.35-1.22-1.48l-.04-.31.28-.14c3.82-1.95,8.52-8.18,8.57-8.24.15-.2.43-.24.62-.09.2.15.24.43.09.62-.19.25-4.58,6.08-8.5,8.3.11.15.32.36.68.59.53.34,1.27.62,2.19.85,2.17.53,5.24.67,9.13.43,2.31-.14,4.05-.42,5.58-.66,5.1-.81,7.66-1.22,19.51,5.26.22.12.29.39.18.6-.08.15-.23.23-.39.23Z"/>
    <path d="M47.85,81.27c-.14,0-.29-.07-.37-.2-4.13-6.26-14.15-8.29-14.25-8.31-6.29-1.18-11.46-3.42-15.38-6.68-4.6-3.82-5.75-7.62-5.8-7.78l-.23-.79.79.24s2.06.52,6.14-2.32c3.64-2.54,7.47-.06,9.16,1.8.16.18.16.46-.02.63-.18.17-.45.16-.62-.02-.43-.47-4.15-4.37-8.01-1.68-3.04,2.11-5.08,2.5-6.11,2.52.52,1.21,1.97,3.98,5.27,6.72,3.8,3.16,8.84,5.35,14.98,6.49.43.08,10.49,2.12,14.82,8.7.14.21.08.48-.13.62-.08.05-.16.07-.24.07Z"/>
    <path d="M52.36,81.33c-.08,0-.17-.02-.24-.07-.21-.13-.26-.41-.13-.62,4.31-6.63,14.19-8.67,14.61-8.76,6.09-1.14,11.1-3.3,14.9-6.43,3.36-2.77,4.83-5.57,5.35-6.79-1.04-.02-3.08-.41-6.11-2.52-3.97-2.77-7.83,1.48-7.99,1.66l-.34-.29-.32-.31c.18-.2,4.55-5.01,9.16-1.8,4.09,2.84,6.13,2.32,6.15,2.32l.77-.21-.22.77c-.05.16-1.21,4.01-5.88,7.86-3.91,3.22-9.06,5.45-15.3,6.61-.09.02-9.93,2.06-14.03,8.37-.09.13-.23.2-.37.2Z"/>
    <path d="M49.04,81.07c-.18,0-.35-.11-.41-.28-3.45-8.8-9.27-12.58-9.63-12.8-5.86-2.77-9.82-6.2-11.77-10.19h0s-.04-.07-.04-.07c-4.44-9.2,3.29-18.33,3.36-18.42l.77-.89v1.18c.02.18.14,4.35,4.78,6.65,5.04,2.49,6.71,5.79,6.78,5.93.11.22.02.49-.2.6-.22.11-.49.02-.6-.2-.02-.03-1.62-3.18-6.38-5.53-3.68-1.82-4.78-4.73-5.12-6.31-1.7,2.38-6,9.46-2.63,16.55l.04.07c1.85,3.83,5.69,7.15,11.4,9.85l.04.02c.26.16,6.35,3.92,10.01,13.25.09.23-.02.49-.25.58-.05.02-.11.03-.16.03Z"/>
    <path d="M50,87.02c-1.56,0-3.11-.46-4.44-1.4-.54-.38-.93-.76-1.16-1.14H4.45l5.6-9.44c.13-.21.4-.28.61-.16.21.13.28.4.16.61l-4.8,8.1h38.94l.12.27c.14.31.48.67,1,1.03,2.35,1.65,5.51,1.65,7.86,0,.52-.36.86-.72,1-1.03l.12-.27h38.94l-4.8-8.1c-.13-.21-.06-.48.16-.61.21-.13.48-.06.61.16l5.6,9.44h-39.94c-.24.38-.62.76-1.16,1.14-1.33.93-2.88,1.39-4.44,1.4Z"/>
    <path d="M50,85.65c-1.01,0-1.69-.37-2.42-.76-.38-.2-.76-.41-1.24-.6-.1-.04-.4-.16-.69-.44-.71-.77-.64-1.4-.47-1.8.56-1.3,3.04-1.85,3.98-1.87.24-.03.53-.04.85-.04s.61.01.89.04c.9.01,3.38.57,3.94,1.87.17.4.24,1.04-.45,1.78-.22.21-.45.35-.71.46-.49.19-.88.4-1.25.61-.73.39-1.41.76-2.42.76ZM50,81.02c-.29,0-.55.01-.8.04-.93.02-2.89.59-3.21,1.33-.04.09-.15.35.29.83.15.14.32.21.38.23.54.21.97.45,1.35.65.68.37,1.21.66,1.99.66s1.32-.29,1.99-.66c.38-.21.81-.44,1.34-.65.07-.03.24-.09.41-.26.42-.45.3-.72.26-.8-.32-.75-2.28-1.32-3.17-1.33-.29-.03-.55-.04-.83-.04Z"/>
    <path d="M88.82,83.31c-4.25,0-14.32-1.74-14.74-1.82-2.75-.48-10.14-1.27-19.48,1.75-.24.08-.49-.05-.56-.29-.08-.23.05-.49.29-.56,9.53-3.08,17.1-2.27,19.91-1.78.1.02,10.41,1.8,14.59,1.8.86,0,1.22-.08,1.35-.12-.18-.31-.56-.9-1.31-1.74-.16-.18-.15-.47.04-.63.18-.16.46-.15.63.04.87.98,1.39,1.77,1.58,2.19l.07.15-.05.16s-.08.24-.24.41c-.21.22-.6.43-2.06.43Z"/>
    <path d="M54.31,82.46c-.17,0-.34-.1-.41-.27-.1-.23,0-.49.23-.59,6.68-2.93,10.31-4.03,13.38-4.08,1.65-.02,6.51.59,11.2,1.18,4.44.56,9.02,1.13,10.32,1.1-.19-.62-1.19-2.14-2.14-3.37-.15-.19-.12-.47.08-.62.19-.15.47-.12.62.08,2.89,3.73,2.38,4.36,2.21,4.57-.14.18-.37.21-.57.23-1.2.09-5.78-.49-10.63-1.1-4.66-.59-9.47-1.19-11.08-1.17-2.94.04-6.47,1.13-13.03,4-.06.03-.12.04-.18.04ZM89.26,79.79h0Z"/>
    <path d="M53.51,81.8c-.16,0-.31-.08-.39-.23-.12-.22-.04-.49.18-.6,11.84-6.46,14.21-6.12,19.41-5.38,1.46.21,3.12.45,5.3.58,3.89.24,6.96.09,9.13-.43.92-.22,1.66-.51,2.19-.85.36-.23.56-.44.68-.59-3.92-2.21-8.39-7.97-8.58-8.22-.15-.19-.11-.47.08-.62.19-.15.47-.11.62.08.05.06,4.84,6.23,8.66,8.18l.28.14-.04.31c-.02.13-.15.8-1.22,1.48-.61.39-1.44.71-2.46.96-2.26.55-5.42.7-9.4.45-2.21-.14-3.89-.38-5.37-.59-5.14-.74-7.27-1.04-18.85,5.28-.07.04-.14.05-.21.05Z"/>
    <path d="M51.03,81.07c-.05,0-.11,0-.16-.03-.23-.09-.34-.35-.25-.58,3.65-9.45,9.7-13.11,9.96-13.26l.04-.02c5.71-2.7,9.55-6.02,11.4-9.85l.04-.07c3.37-7.09-.93-14.18-2.63-16.55-.34,1.59-1.44,4.49-5.12,6.31-4.77,2.36-6.36,5.5-6.38,5.53-.11.22-.38.31-.6.2-.22-.11-.31-.38-.2-.6.07-.14,1.74-3.44,6.78-5.93,4.65-2.3,4.77-6.47,4.77-6.65l.02-1.17.76.88c.08.09,7.8,9.21,3.36,18.42l-.04.08c-1.95,3.99-5.91,7.42-11.77,10.19-.34.21-6.12,3.89-9.56,12.8-.07.18-.24.28-.42.28Z"/>
  </g>
  <g>
    <path d="M47.73,60.4c-.22,0-.41-.16-.44-.39-.29-2.22-1.42-4.84-2.38-6.87l-.1-.21.11-.2c1.78-3.16,3.3-6.58,4.65-10.44.08-.23.34-.35.57-.27.23.08.35.34.27.57-1.34,3.83-2.85,7.23-4.61,10.39.96,2.06,2.06,4.66,2.36,6.93.03.24-.14.47-.38.5-.02,0-.04,0-.06,0Z"/>
    <path d="M49.84,53.94s0,0,0,0c-.25,0-.44-.21-.44-.45l.16-11.06c0-.24.2-.44.45-.44,0,0,0,0,0,0,.25,0,.44.21.44.45l-.16,11.06c0,.24-.2.44-.45.44Z"/>
    <g>
      <path d="M49.84,76.77c-.23,0-.42-.17-.44-.4-.41-4.27-2.54-10.11-3.43-12.43-.29-.76-.4-1.51-.32-2.24.25-2.2,1.83-2.33,4.04-2.26h.31c1.43-.04,2.68-.01,3.4.72.54.55.73,1.41.65,2.87.05,2.57-1,4.35-1.04,4.42-.13.21-.4.28-.61.15-.21-.13-.28-.4-.15-.61.01-.02.96-1.65.92-3.98.07-1.19-.06-1.88-.4-2.23-.42-.43-1.33-.49-2.75-.45h-.33c-2.45-.07-3,.19-3.14,1.47-.07.58.02,1.19.26,1.82.91,2.35,3.06,8.29,3.48,12.67.02.24-.16.46-.4.49-.01,0-.03,0-.04,0Z"/>
      <path d="M52.28,60.43s-.04,0-.06,0c-.24-.03-.42-.26-.38-.5.31-2.34,1.46-5.05,2.35-6.96-1.76-3.15-3.27-6.55-4.61-10.39-.08-.23.04-.49.27-.57.23-.08.49.04.57.27,1.35,3.87,2.88,7.28,4.65,10.44l.11.2-.1.21c-.87,1.86-2.06,4.6-2.37,6.91-.03.22-.22.39-.44.39Z"/>
      <path d="M53.62,62.83h-7.56c-.25,0-.45-.2-.45-.45s.2-.45.45-.45h7.56c.25,0,.45.2.45.45s-.2.45-.45.45Z"/>
    </g>
  </g>
  <g>
    <path d="M46.03,16.86c-.09,0-.18-.03-.26-.09-.2-.15-.24-.42-.09-.62.08-.11.17-.23.27-.37.76-1.08,1.91-2.7,3.22-2.79,1.14-.07,2.03,1.08,2.74,2,.2.26.39.51.55.67.17.18.17.46-.01.63-.18.17-.46.17-.63,0-.19-.2-.4-.46-.61-.75-.55-.72-1.31-1.7-1.98-1.66-.89.06-1.97,1.59-2.55,2.41-.1.14-.19.28-.28.39-.09.12-.22.18-.36.18Z"/>
    <path d="M47.7,26.98c-.16,0-.32-.09-.4-.24-1.49-2.88-1.04-6.11,1.16-8.45,1.82-1.93,3.7-3.11,5.73-3.61.51-.13.89-.09,1.12.1.13.11.26.22.76,2.72.05.24-.11.48-.35.52-.24.05-.48-.11-.52-.35-.16-.83-.38-1.8-.49-2.18-.07,0-.17.02-.3.05-1.87.46-3.6,1.56-5.3,3.36-1.94,2.05-2.33,4.9-1.02,7.43.11.22.03.49-.19.6-.07.03-.14.05-.2.05ZM54.67,15.36h0Z"/>
    <path d="M48.75,19.09c-.1,0-.2-.03-.28-.1l-4.42-3.55c-.17-.08-.29-.1-.37-.05-.24.15-.51.87-.49,2.41,0,.25-.19.45-.44.45,0,0,0,0,0,0-.24,0-.44-.19-.45-.44-.03-1.72.28-2.79.91-3.18.26-.16.69-.28,1.29.04l.07.05,4.45,3.57c.19.15.22.43.07.63-.09.11-.22.17-.35.17Z"/>
    <path d="M50.47,28.81c-.22,0-.41-.16-.44-.38-.04-.24.13-.47.37-.51,2.54-.39,4.87-2.12,5.8-4.32.47-1.11,1.45-3.15,1.83-3.94-.32-.22-.95-.55-1.8-.48-4.21.36-5.8,4.34-6.37,6.68l-.05.2c-.08.33-.16.68-.36.97-.88,1.28-2.63,1.73-4.08,1.06-1.94-.9-3.49-2.77-4.27-5.11-.4-1.21-.79-2.07-1.63-2.92l-.33-.34.35-.31c2.33-2.04,6.55.23,7.07.62.2.15.23.43.08.62-.15.2-.43.23-.62.08-.57-.43-3.75-1.94-5.57-.92.72.86,1.12,1.76,1.49,2.89.7,2.11,2.08,3.78,3.8,4.58,1.05.49,2.33.17,2.97-.76.1-.15.16-.4.22-.66l.05-.21c1.07-4.38,3.68-7.06,7.16-7.35,1.66-.14,2.7.89,2.75.93l.22.22-.14.28s-1.4,2.87-1.96,4.21c-1.05,2.47-3.66,4.42-6.49,4.85-.02,0-.05,0-.07,0Z"/>
  </g>
</svg>