<?xml version="1.0" encoding="UTF-8"?>
<svg id="Layer_1" xmlns="http://www.w3.org/2000/svg" version="1.1" viewBox="0 0 701.3 72">
  <!-- Generator: Adobe Illustrator 30.6.0, SVG Export Plug-In . SVG Version: 2.1.4 Build 109)  -->
  <defs>
    <style>
      .st0 {
        fill: #a50034;
      }

      .st1 {
        fill: #231f20;
      }
    </style>
  </defs>
  <path id="window" class="st0" d="M33.3,37.2L0,70.5v-33.3h33.3ZM0,34.8V1.5l33.3,33.3H0ZM70.5,0l-33.3,33.3V0h33.3ZM34.8,33.3L1.5,0h33.3v33.3ZM38.7,34.8L72,1.5v33.3h-33.3ZM72,37.2v33.3l-33.3-33.3h33.3ZM34.8,38.7L1.5,72h33.3v-33.3ZM37.2,38.7v33.3h33.3l-33.3-33.3Z"/>
  <g id="chapman-university">
    <path class="st1" d="M123,26.4c-1.8-6.4-5.4-8.2-10.8-8.2-10,0-14.6,7.7-14.6,16.4s5.6,17.9,14.6,17.9,9.2-3.1,12-9l1.3.3c-.8,2.3-2,6.9-2.8,9-3.4.9-7,1.4-10.5,1.5-14.1,0-20.2-9.7-20.2-18.4s9-19.7,21.3-19.7c3.5,0,6.9.5,10.2,1.5.5,3.1.8,5.6,1,8.5l-1.5.3ZM158.1,33.3v-7.9c0-6.1-.5-6.4-4.9-6.9v-1.3h14.9v1.3c-4.6.3-5.1.8-5.1,6.9v20.2c0,6.1.5,6.4,5.1,6.9v1.3h-15.4v-1.3c4.9-.3,5.4-.8,5.4-6.9v-10h-19.5v10c0,6.1.5,6.4,5.1,6.9v1.3h-14.9v-1.3c4.6-.3,5.1-.8,5.1-6.9v-20.2c0-6.1-.5-6.4-5.4-6.9v-1.3h14.9v1.3c-4.4.3-4.9.8-4.9,6.9v7.9h19.5ZM192.9,52.5l1.8-.3c2-.3,2.3-.8,1.8-2.6-.5-1.3-2-5.6-3.6-9.7h-11.3c-.5,1.5-2,5.9-2.8,8.2-1,3.3-.5,4.1,2,4.1l1.8.3v1.3h-12v-1.3c3.6-.3,4.1-.8,6.1-5.6l11.5-30,1.3-.5,4.1,10.8c2.6,7.2,5.1,14.3,7.2,20,1.8,4.6,2.6,5.1,5.9,5.4v1.3h-13.6l-.3-1.3ZM182.2,37.7h10l-5.1-13.8-4.9,13.8ZM218.3,45.6c0,6.1.5,6.4,5.9,6.9v1.3h-15.6v-1.3c4.6-.3,5.1-.8,5.1-6.9v-20.2c0-6.1-.5-6.4-4.9-6.9v-1.3h14.1c3.2-.3,6.5.5,9.2,2.3,2.4,1.8,3.8,4.7,3.6,7.7-.1,6.1-4.9,11-11,11.3h-2.6l-4.1-1v8.2h.3ZM218.3,35.9c1.3.5,2.7.8,4.1.8,3.6,0,8.2-1.8,8.2-9.2s-3.1-8.5-9-8.5c-.9,0-1.9,0-2.8.3-.3,0-.5.5-.5,1.5,0,0,0,15.1,0,15.1ZM249.8,17.2l13.6,29,13.3-29h9.2v1.3c-4.9.5-5.1.5-5.1,6.9l.5,20.2q.3,6.4,5.4,6.9v1.3h-14.9v-1.3q4.9-.5,4.9-6.9l-.3-22.5h-.3l-13.8,30.2h-1.5l-12.6-29.5-.5,15.6c-.3,3.3-.3,6.7,0,10,.3,2,1.5,2.6,5.4,2.8v1.5h-13.3v-1.3c3.1-.3,4.4-.8,4.6-2.8.5-3.6.8-7.2,1-10.8l.8-11.8c.5-7.4,0-8.2-5.4-8.5v-1.5h9ZM311.6,52.5l1.8-.3c2-.3,2.3-.8,1.8-2.6-.5-1.3-2-5.6-3.6-9.7h-11.3c-.5,1.5-2,5.9-2.8,8.2-1,3.3-.5,4.1,2,4.1l1.8.3v1.3h-12v-1.3c3.6-.3,4.1-.8,6.1-5.6l11.5-30,1.3-.5,4.1,10.8c2.6,7.2,5.1,14.3,7.2,20,1.8,4.6,2.6,5.1,5.9,5.4v1.3h-13.6l-.3-1.3ZM300.8,37.7h10l-4.9-13.8-5.1,13.8ZM360.5,54.1h-1.5l-24.3-29.7v14.3c0,3.6,0,7.2.5,10.8.3,2,1.8,2.8,5.4,2.8v1.5h-13.6v-1.3c3.1,0,4.6-1,4.9-2.8.3-3.6.5-7.2.5-10.8v-12.3c0-4.1,0-4.9-1-6.1-1.3-1.3-3-2-4.9-2v-1.3h8.2l23.6,28.2v-13.3c0-3.6,0-7.2-.5-10.8-.3-2-1.8-2.8-5.4-2.8v-1.3h13.6v1.3c-3.1,0-4.6,1-4.9,2.8-.3,3.6-.5,7.2-.5,10.8v22h0ZM396.6,17.2v1.3c-4.6.3-4.9.8-4.9,6.9v11.8c-.3,3.7.5,7.5,2.3,10.8,1.9,2.6,5,4.1,8.2,3.8,3.2,0,6.3-1.5,8.2-4.1,2-3.9,2.9-8.2,2.6-12.6v-3.1c0-3.6-.3-7.2-.5-10.8-.3-2-1.8-2.8-5.4-2.8v-1.3h13.6v1.3c-3.1,0-4.6,1-4.9,2.8-.3,3.6-.5,7.2-.5,10.8v3.8c0,6.4-1,11-4.4,14.6-5.4,4.9-13.5,5.4-19.5,1.3-3.1-2.3-4.4-6.1-4.4-12.6v-13.8c0-6.1-.5-6.4-5.1-6.9v-1.3h14.6ZM456.9,54.1h-1.5l-24.3-29.7v14.3c0,3.6,0,7.2.5,10.8.3,2,1.8,2.8,5.4,2.8v1.5h-13.6v-1.3c3.1,0,4.6-1,4.9-2.8.3-3.6.5-7.2.5-10.8v-12.3c0-4.1,0-4.9-1-6.1-1.3-1.3-3.1-2-4.9-1.8v-1.5h8.2l23.6,28.2v-13.3c0-3.6,0-7.2-.5-10.8-.3-2-1.8-2.8-5.4-2.8v-1.3h13.6v1.3c-3.1,0-4.6,1-4.9,2.8-.3,3.6-.5,7.2-.5,10.8,0,0,0,22,0,22ZM475.3,45.6c0,6.1.5,6.4,5.1,6.9v1.3h-14.9v-1.3c4.6-.3,5.1-.8,5.1-6.9v-20.2c0-6.1-.5-6.4-5.1-6.9v-1.3h14.9v1.3c-4.6.3-5.1.8-5.1,6.9v20.2ZM500.2,54.1c-3.8-10-9.2-23.8-11.5-30.2-1.8-4.6-2.6-5.1-5.9-5.4v-1.3h13.6v1.3l-1.8.3c-2,.3-2.3.8-1.8,2.6,1.5,4.1,5.9,15.1,10,25.6,2.8-7.7,7.7-20.5,9-24.1,1-3.1.5-3.8-2-4.1l-1.8-.3v-1.3h12.3v1.3c-3.8.5-4.4.8-6.4,5.6-.8,1.8-7.7,18.4-11.8,29.7,0,0-1.8.3-1.8.3ZM527.6,25.4c0-6.1-.5-6.4-4.9-6.9v-1.3h24.6c0,1,.3,5.1.5,8.2l-1.5.3c-.2-1.9-.9-3.6-2-5.1-1-1-2.8-1.3-6.1-1.3h-4.4c-1.5,0-1.8,0-1.8,1.8v12.8h5.9c4.9,0,5.1-.3,5.6-4.6h1.5v11h-1.5c0-1.4-.4-2.8-1.3-3.8-1.3-.8-2.9-1-4.4-.8h-5.6v10c0,3.1.3,4.9,1.5,5.6,1.8.6,3.7.9,5.6.8,2.5.3,5-.2,7.2-1.5,1.2-1.7,2.1-3.5,2.8-5.4l1.5.3c-.5,2.9-1.2,5.8-2,8.7h-26.6v-1.3c5.1-.3,5.4-.8,5.4-6.9v-20.5h0ZM563.7,45.6c0,6.1.5,6.4,5.1,6.9v1.3h-14.9v-1.3c4.6-.3,5.1-.8,5.1-6.9v-20.2c0-6.1-.5-6.4-4.9-6.9v-1.3h14.3c3.1-.2,6.2.5,9,2,2.4,1.6,3.8,4.3,3.6,7.2,0,4.5-3.1,8.5-7.4,9.7,1.6,2.7,3.3,5.4,5.1,7.9,1.5,2,3.1,4.4,4.6,6.1,1,1.4,2.5,2.4,4.1,2.8v1h-.8c-6.4-.3-8.5-2-10.5-5.1-1.8-2.6-4.1-6.7-5.6-9.2-.7-1.3-2.1-2.1-3.6-2h-3.3v7.9ZM563.7,36.1h3.3c2,.3,4.1-.3,5.6-1.5,2.2-1.8,3.4-4.6,3.3-7.4.3-4.2-2.9-7.9-7.2-8.2,0,0-.2,0-.3,0h-1c-1,0-2.1,0-3.1.3-.3,0-.5.5-.5,1.5l-.3,15.4h0ZM590.9,43.8c1,2.6,3.8,9,9.7,9,3.6.2,6.7-2.5,6.9-6.1v-1c0-4.9-3.6-6.7-7.2-8.5-1.8-1-9.5-3.6-9.5-10.2s4.1-10.2,11.5-10.2c1.6,0,3.1.3,4.6.8.6.3,1.3.5,2,.5.3,2,.5,4.1,1,7.7l-1.5.3c-1-3.3-2.6-7.2-7.7-7.2-3.2-.2-5.9,2.2-6.1,5.4,0,0,0,.1,0,.2v.5c0,4.1,3.1,5.9,7.2,7.9,3.6,1.5,9.7,3.8,9.7,11s-5.4,11.3-12.6,11.3c-1.8,0-3.6-.3-5.4-.8-1.5-.5-2.3-1-3.1-1.3-.5-1.5-1-5.4-1.5-8.5l1.8-.8ZM626,45.6c0,6.1.5,6.4,5.1,6.9v1.3h-14.9v-1.3c4.6-.3,5.1-.8,5.1-6.9v-20.2c0-6.1-.5-6.4-5.1-6.9v-1.3h14.9v1.3c-4.6.3-5.1.8-5.1,6.9v20.2ZM652.6,45.6c0,6.1.5,6.4,5.9,6.9v1.3h-16.4v-1.3c5.4-.3,5.6-.8,5.6-6.9v-26.4h-2.6c-5.1,0-6.4.8-7.4,1.8-.9,1.5-1.6,3.1-2,4.9h-1.5c.3-3.3.5-6.9.8-10h.8c.5,1.1,1.6,1.7,2.8,1.5h23.1c1.1,0,2.1-.6,2.6-1.5h.8c0,2.3.3,6.4.5,9.7h-1.5c-.3-1.8-1-3.6-2-5.1-1-1-2.6-1.5-6.1-1.5h-3.8l.8,26.6h0ZM686.7,45.6c0,6.1.5,6.4,5.9,6.9v1.3h-16.1v-1.3c5.1-.3,5.6-.8,5.6-6.9v-6.4c0-1.2-.5-2.4-1.3-3.3-2.6-4.4-4.6-8.5-7.2-12.6s-2.6-4.4-5.9-4.6v-1.5h13.6v1.3l-2.6.3c-1.3.3-1.8.8-.8,2.6,2.6,4.6,5.1,9.5,7.9,14.1,2.3-4.6,4.9-9.2,6.9-13.8,1-2,.5-2.6-1.5-2.8l-2.3-.3v-1.3h12.3v1.3c-3.8.3-4.1,1-6.4,4.9-2.3,3.8-4.6,7.7-7.2,12.3-.7.9-1.1,2-1,3.1v6.9h0Z"/>
  </g>
</svg>