<?xml version="1.0" encoding="UTF-8"?>
<svg id="Layer_1" xmlns="http://www.w3.org/2000/svg" version="1.1" viewBox="0 0 375.5 71.8">
  <!-- Generator: Adobe Illustrator 30.6.0, SVG Export Plug-In . SVG Version: 2.1.4 Build 109)  -->
  <polygon points="69.6 35 37.2 35.1 69.4 3 69.6 35"/>
  <polygon points="32.3 35 0 35.1 0 3 32.3 35"/>
  <polygon points="33.7 1.4 33.7 33.5 1.6 1.5 33.7 1.4"/>
  <polygon points="68 1.5 35.9 33.6 35.8 1.4 68 1.5"/>
  <polygon points="32.1 37.3 0 69.3 0 37 32.1 37.3"/>
  <polygon points="33.8 70.7 1.6 70.6 33.7 38.6 33.8 70.7"/>
  <polygon points="68.1 70.6 35.8 70.7 35.9 38.6 68.1 70.6"/>
  <polygon points="69.6 37.1 69.5 69.1 37.4 37.2 69.6 37.1"/>
  <path d="M281.2,32.3l-.4-25-13.3,28-12.4-27.4c-.6,8.2-.8,15.4-.7,23.4s3.2,2.1,5.1,3.4c-4,.4-8.2.3-12.8,0,1.8-1.2,4.7-2,4.8-3.5.8-8.9,1.3-16.9,1.4-25.8,0-2.1-3.1-2.4-5.2-3.6,3.1-.4,6-.4,9-.2l12.3,26.3,12.2-26.4,9.1.2-3.4,1.4c-.7.3-1.8,1.7-1.8,2.6l.5,24.8c0,2.3,2.3,2.6,5,4.2-4.8.3-9.3.3-14.3,0l4.8-2.4Z"/>
  <path d="M163.4,34.7c-4.8.4-9.5.5-14.6,0l5.2-2.2.3-14.1h-18s0,12.2,0,12.2c0,1.7,1.7,3.2,3.6,3l1.1,1.5-14-.2,3.7-2c.7-.4,1.2-2.1,1.2-3V6.4c0-.7-.6-2.4-1.1-2.7l-3.8-1.9c4.8-.5,8.9-.4,14.4,0l-4.9,2.2-.3,12.3h17.9s-.2-12.1-.2-12.1l-4.6-2.4c4.8-.5,9-.5,14.4,0l-3.7,1.6c-.8.4-1.5,2.2-1.5,3.4v23.2c0,2.5,1.7,3.1,4.8,4.7Z"/>
  <path d="M369.8,36.2l-23.4-27.7v20.8c0,1.1.6,3.2,1.5,3.5l4.2,1.8c-4.5.5-8.7.4-13.3,0l5.2-3.3V5.4c-1.7-1.6-3.3-2.3-5.9-3.5l8.1-.3,21.6,25.7V7.3c0-.8-.4-3.1-1.2-3.4l-4.4-2c4.4-.5,8.1-.5,13.1-.1l-3.6,1.7c-.8.4-1.5,2.2-1.6,3.3l-.5,29.4Z"/>
  <path d="M221.8,31.3c0,1.7,3.6,2.2,5.6,3.3-5.1.6-10,.5-15.3,0l3.7-1.6c.9-.4,1.4-2.5,1.4-3.7V6.1c0-.7-.7-2.2-1.3-2.5l-3.6-1.8h16.6c2.8,0,6.1,1.9,7.3,3.8s2,5.9.9,8.7c-2.4,6-9.3,8.3-15.6,6l.2,11.1ZM231.5,16.2c2-3.1,2-8-.2-10.7s-6.2-2.7-9.6-2v15.3c3.8.9,7.6.9,9.9-2.5Z"/>
  <path d="M192.2,22.3h-10.7s-3.2,10.1-3.2,10.1l4.5,2.4h-12c3.2-1.9,4.7-2.6,5.8-5.3L188.2,0l11.9,31.2c.6,1.7,2.9,2.2,5.1,3.6-5,.3-8.5.2-13.7,0l4.3-2.2-3.6-10.3ZM191.4,20.2l-4.6-12.4-4.5,12.5h9.1Z"/>
  <path d="M319.2,22.4h-10.7c0-.1-3.3,10-3.3,10l4.5,2.4h-12c3.1-1.9,4.7-2.6,5.7-5.3L315.2,0l11.5,30.7c.7,2,2.6,2.5,5.2,4-4.4.4-8.1.4-13.4,0l4.2-2.1-3.5-10.2ZM318.3,20.2l-4.6-12.4-4.6,12.5h9.1Z"/>
  <path d="M93.5,11.6c-2.5,8.8.5,19.6,8.7,21.9,4.3,1.2,9.1.8,11.8-2.7l4.2-5.5c-.6,3.8-1.2,5.6-2.2,9-6.2,1.7-12.8,2.5-18.9-.2-7.2-3.2-10.4-10.7-9.3-18.3,1.8-12.7,15.8-17.5,28.7-13.6.4,3.2.7,5.4.3,8.7-2.3-5.5-4.7-8.3-10.2-8.3s-11.3,3-13,9.1Z"/>
  <path d="M147.4,71.5l-17.9-21.2c-.3,6.7-.2,12.1,0,18l4.3,2.1h-10.1s2.9-1.8,2.9-1.8c.5-.4.9-2,.9-2.9v-17.7c0-1.2-2.8-2.3-4.3-3.3h6.1c0,0,16.5,19.5,16.5,19.5.3-6.6.2-11.7,0-17.5l-4.4-2.1h10.2c0-.1-2.7,1.5-2.7,1.5-.7.4-1.1,2.2-1.1,3.1l-.5,22.1Z"/>
  <path d="M254.6,60.2c-.6-1-3.5-1.1-4.3-.8v7.9c0,1.1,1.7,2.2,3.6,3.3h-10.8s2.6-1.4,2.6-1.4c.6-.3,1.1-1.8,1.1-2.5v-18.6c0-1.1-1.9-2.1-3.7-3.2h13c3.5,0,6.1,2.9,6.3,5.7s-1.4,5.9-5.2,7.6c2.1,3.8,4.6,7.4,7.4,10.8l2.7,1.9c-3.5.8-6.6-.6-8.4-3.5l-4.4-7ZM250.4,58c3.7.4,6.3-.3,7.6-2.5s1.2-5.6,0-7.3-4.9-2.6-7.6-2v11.8Z"/>
  <path d="M228.1,58l-6.9-.2.3,10.9c3.1.7,6.2,1,9.2-.2s2-3.1,3.6-4.6l-1.2,6.8h-19.2c0-.1,2.7-1.5,2.7-1.5.6-.3,1.3-1.8,1.3-2.6v-17.8c0-.7-.4-2.1-.8-2.4l-3-1.6,18-.2v6.4c0,0-2.5-4.5-2.5-4.5-2.3-.5-5.7-.5-8.1-.3v10.2s6.5,0,6.5,0l2.1-3.4c.4,2.9.4,5.2.2,8.7l-2.1-3.6Z"/>
  <path d="M105.6,44.8h9.9c0,0-3.7,2.3-3.7,2.3l-.5,14c-.3,6.7-5.1,10.9-11.6,10.3s-8.2-3.4-8.2-8.2l-.2-14c0-.8-.2-2.4-.8-2.7l-3.1-1.6h11.5s-3.8,1.7-3.8,1.7c-.3,10.7-2.2,22.7,7.1,22.8,9.1,0,8.2-12.1,7.3-22.4l-3.8-2.2Z"/>
  <path d="M288.6,69.1c-3.9,3-7.9,2.5-12.3.8l-.9-6.6c2.1,2.6,3,4.3,4.8,5.7s5.6.9,7-1.1,1.5-5.6-.9-7l-5.6-3.2c-2.5-1.4-4.6-3.7-4.5-6.4s1.7-5.5,4.5-6.5,5.6-.6,8.7.1l.6,6-3.6-4.7c-1-1.3-4.6-.7-5.7.4-2.4,2.5-1.4,6.2,1.5,7.7l5.1,2.5c2.1,1.1,3.9,3.4,4.2,5.5s-.8,5.3-2.7,6.8Z"/>
  <path d="M197.3,44.8h9.1c-2.6,1.5-3.8,2.5-4.8,4.9l-9,22.1c-3.8-8.4-6.3-15.2-9.3-23.2s-2.2-2.4-4.4-3.8h10.5s-3.2,2-3.2,2l7.4,18.8,6.7-17.5c0-.6-.2-1.7-.5-1.9l-2.5-1.5Z"/>
  <path d="M333.7,67.5c0,1.3,2.7,2.2,4.3,3h-12.2s4.3-1.8,4.3-1.8v-22.6c-1.8,0-4.6-.1-6.2.7s-1.7,2.9-3,4.4v-7.3c1.9.4,3.3.8,4.4.8h13.2c1,0,2.5-.4,4.4-.9v7.3s-2.2-4.3-2.2-4.3c-1.7-.5-4.6-.8-7-.7v21.4Z"/>
  <path d="M371.1,47.6c-2.4,3.8-4.6,7.3-6.4,11.4-1,2.4-.2,6.8,0,9.5l4.4,2h-12s3.7-2.1,3.7-2.1c.2-2.5,1.1-7,0-9.1l-6.5-11.8c-.5-.9-2.4-1.8-3.7-2.7h10.7s-3.6,1.8-3.6,1.8l6.2,10.9,5.6-10.7-3.5-1.9h9.4c-1.4.9-3.5,1.8-4.1,2.7Z"/>
  <path d="M311.4,70.6h-10.6c0,0,2.6-1.5,2.6-1.5.6-.3,1.1-1.8,1.1-2.5v-17.9c0-.6-.3-2-.8-2.2l-3-1.7h10.9c0,0-2.7,1.5-2.7,1.5-.6.3-1.1,1.8-1.1,2.5v17.8c0,1.7,1.3,2.5,3.4,4Z"/>
  <path d="M171.1,70.6h-10.7s2.7-1.5,2.7-1.5c.6-.3,1.1-1.7,1.1-2.5v-18.6c0-1.1-1.8-2-3.7-3.2h10.8s-3.7,2.3-3.7,2.3v19.5c0,.6.2,2,.7,2.3l2.8,1.8Z"/>
</svg>