<?xml version="1.0" encoding="UTF-8"?>
<svg id="Layer_1" xmlns="http://www.w3.org/2000/svg" version="1.1" xmlns:cc="http://creativecommons.org/ns#" xmlns:dc="http://purl.org/dc/elements/1.1/" xmlns:rdf="http://www.w3.org/1999/02/22-rdf-syntax-ns#" viewBox="0 0 211.6 70.7">
  <!-- Generator: Adobe Illustrator 30.6.0, SVG Export Plug-In . SVG Version: 2.1.4 Build 109)  -->
  <path d="M26.3,0C11.1,0,0,9.9,0,24.3s7.4,23,25,23,11.1-1.5,13.1-1.9c1.1-2.6,2.6-8.2,3.5-11.2l-1.7-.2c-3.4,7.3-7,11.1-14.8,11.1-11.3,0-18.1-8.9-18.1-22.3S12.4,2.3,25,2.3s11.3,2.2,13.3,10.1h1.7c-.4-3.8-.7-6.8-1.3-10.6C36.8,1.4,32.2,0,26.3,0h0ZM105.1,5.6l-1.4.5-12.6,32.4c-2.1,5.4-2.6,5.8-6.6,6.2v1.4h13.1v-1.4l-1.8-.2c-2.7-.2-3.3-1-2.1-4.6.9-2.6,2.4-7.3,3.1-8.9h12.4c1.7,4.4,3.5,9.2,3.9,10.6.6,1.9.4,2.6-1.9,2.8l-2,.2v1.4h14.8v-1.4c-3.8-.3-4.6-.7-6.5-5.9-2.4-6.2-5.1-14-7.9-21.7l-4.3-11.6h0ZM49.4,6.5v1.4c5.1.4,5.6.8,5.6,7.5v22c0,6.7-.5,7.1-5.6,7.5v1.4h27.6c.5-1.7,1.8-7.9,2.1-9.6l-1.5-.2c-.9,2.8-2,4.9-2.9,6-1.3,1.5-4.2,1.8-7.3,1.8s-4.6-.1-5.7-.8c-1.2-.6-1.5-2.3-1.5-6V15.4c0-6.7.5-7.1,5.7-7.5v-1.4h-16.5ZM131.2,6.5v1.4c4.9.4,5.4.8,5.4,7.5v22c0,6.7-.5,7.1-5.6,7.5v1.4h16.2v-1.4c-5-.4-5.5-.8-5.5-7.5v-8.6h3.3c1.9,0,2.9.6,3.8,2.2,1.7,2.9,4.3,7.4,6.2,10.1,2.3,3.4,4.5,5.5,11.5,5.7h.9v-1.2c-2.1-.5-3.2-1.5-4.5-3.1-1.6-1.8-2.9-3.5-5.1-6.7-1.8-2.7-4.3-6.9-5.4-8.7,4.9-2,8.1-5.6,8.1-10.7s-1.6-6.3-4-7.8c-2.3-1.5-5.7-2.1-9.7-2.1h-15.5ZM173.8,6.5v1.4c5.1.4,5.6.8,5.6,7.5v22c0,6.7-.5,7.1-5.3,7.5v1.4h16.2v-1.4c-5.3-.4-5.7-.8-5.7-7.5v-11.5c4.2,4.4,15,17.2,18,20.4h9v-1.4c-2.8-.3-3.9-1-7.3-4.5-2.7-2.8-9.3-10.1-14.8-16.6,4.8-5,9.5-9.5,11.7-11.4,4-3.7,5.6-4,9.3-4.4v-1.4h-14.7v1.4l2.5.3c1.7.2,1.8.9.8,2.2-3.1,3.8-11.6,12.8-14.6,15.3v-10.3c0-6.7.5-7.1,5.4-7.5v-1.4h-16.2ZM145.6,8.3c4.6,0,9.2,2.6,9.2,9s-.9,6-3.5,8.1c-1.6,1.3-3.6,1.7-6.1,1.7h-3.5V10.2c0-1.2.2-1.5.6-1.7.5-.2,1.3-.3,3.4-.3h0ZM102.8,13.8h.1l5.4,15h-10.8l5.3-15ZM173.2,51.5c0,1.4-.2,3.3-.3,5.1h.8c.3-1.3.7-2,1-2.4.4-.5,1.2-.8,3.5-.8h.9v12.7c0,3-.2,3.2-2.7,3.4v.8h8.5v-.8c-2.5-.2-2.8-.4-2.8-3.4v-12.7h1.4c1.7,0,2.6.2,3.1.7.4.4.7,1.1,1,2.6h.8c-.2-1.8-.3-3.9-.3-5.1h-.4c-.4.6-.6.7-1.3.7h-11.4c-.8,0-1.1,0-1.4-.7h-.5,0ZM145.5,51.8c-3.7,0-5.9,2.4-5.9,5.3s2.3,4.2,4.1,5.1l.9.4c2.2,1.1,2.9,2.2,2.9,3.7s-1.1,3.1-2.9,3.1c-2.8,0-4.3-3.1-4.9-4.5l-.8.3c.3,1.7.6,3.6.8,4.3.3.1.8.3,1.6.6.7.3,1.7.5,2.8.5,3.7,0,6.3-2.3,6.3-5.6s-2-4.3-4.1-5.3l-.7-.3c-2.1-1-3.2-2-3.2-3.5s1-2.9,2.8-2.9,3.2,1.9,3.7,3.5l.9-.2c-.3-1.5-.4-2.8-.6-3.7-.3-.1-.7-.2-1.2-.4-.8-.3-1.8-.4-2.5-.4h0ZM3.5,52.3v.8c2.2.2,2.4.3,2.4,3.3v6.4c0,3.3.6,5.3,2.1,6.4,1.4,1.1,3.2,1.5,4.9,1.5s3.9-.7,5.1-2.1c1.5-1.6,2-3.9,2-6.6v-2c0-3.2.1-4.7.2-5.5.1-1,.9-1.4,2.2-1.4v-.8h-6.7v.8c1.8.1,2.5.4,2.7,1.4.1.8.2,2.4.2,5.5v1.7c0,4.8-1.7,7.4-5,7.4s-4.7-2.5-4.7-6.9v-5.8c0-3,.2-3.2,2.3-3.3v-.8H3.5ZM28.8,52.3v.8c2.3.2,2.9.8,2.9,4v5.4c0,3.2-.1,4.7-.2,5.5-.1,1-.9,1.4-2.2,1.4v.8h6.7v-.8c-1.8-.1-2.5-.4-2.7-1.4-.1-.8-.2-2.4-.2-5.5v-6h0l11.4,13.9h1.3v-10.5c0-3.2.1-4.7.2-5.5.1-1,.9-1.4,2.2-1.4v-.8h-6.7v.8c1.8.1,2.5.4,2.7,1.4.1.8.2,2.4.2,5.5v5.3h0l-11-13h-4.5,0ZM55.3,52.3v.8c2.2.2,2.4.4,2.4,3.4v9.7c0,3-.2,3.2-2.4,3.4v.8h7.8v-.8c-2.1-.2-2.3-.4-2.3-3.4v-9.7c0-3,.2-3.2,2.3-3.4v-.8h-7.8ZM69.6,52.3v.8c1.5.2,2,.3,2.9,2.8,1.1,2.8,3.7,9.6,5.6,14.5h1.2c2.1-5.6,5.6-13.8,5.8-14.4,1.3-2.6,1.4-2.8,3.2-3v-.8h-6.3v.8h.8c1.2.2,1.5.6.9,2.3-.5,1.5-2.8,7.8-3.9,10.7-1.7-4.3-3.8-9.8-4.4-11.5-.3-1.1-.3-1.3.8-1.4h.9v-.9h-7.4ZM94.8,52.3v.8c2.1.2,2.3.4,2.3,3.4v9.7c0,3-.2,3.2-2.6,3.4v.8h13.5c.2-.8.8-3.6.9-4.5l-.8-.2c-.5,1.3-.9,2.3-1.4,2.8-.6.7-1.9.8-3.2.8s-2.2,0-2.7-.4c-.5-.4-.6-1.1-.6-2.7v-4.5h2.4c2.4,0,2.4.1,2.7,2.3h.9v-5.9h-.9c-.3,2.1-.3,2.3-2.7,2.3h-2.4v-5.9c0-1,0-1,1.1-1h1.4c1.7,0,2.6.2,3.1.6.4.4.7,1.2,1,2.5h.8c-.2-1.8-.3-3.8-.3-4.3h-12.5,0ZM115.8,52.3v.8c2.1.2,2.3.4,2.3,3.4v9.7c0,3-.2,3.2-2.4,3.4v.8h7.8v-.8c-2.1-.2-2.3-.4-2.3-3.4v-3.7h.9c.8,0,1.2.3,1.6,1.1.8,1.4,1.7,3.2,2.6,4.5,1.1,1.5,2,2.3,5,2.5h1.2c0,0,.1-.7.1-.7-.8-.2-1.2-.6-1.9-1.3-.5-.6-1.2-1.5-2.3-3.1-.9-1.2-2-3.2-2.4-4,2.2-.8,3.7-2.5,3.7-4.8s-.7-2.8-1.8-3.5c-1.1-.7-2.5-.9-4.6-.9h-7.4ZM157.9,52.3v.8c2.2.2,2.4.4,2.4,3.4v9.7c0,3-.2,3.2-2.4,3.4v.8h7.8v-.8c-2.1-.2-2.3-.4-2.3-3.4v-9.7c0-3,.2-3.2,2.3-3.4v-.8h-7.8ZM194.8,52.3v.8c1.4.2,1.6.2,2.8,2.3,1.8,3.2,2.8,4.9,3.7,6.6.4.8.4.9.4,1.5v2.7c0,3-.2,3.2-2.6,3.4v.8h8.4v-.8c-2.5-.2-2.7-.4-2.7-3.4v-3c0-.9,0-1.2.4-1.7,1.4-2.7,2.4-4.5,3.5-6.1,1.2-1.8,1.4-2.2,3.1-2.3v-.8h-6.2v.8h1.1c1,.2,1.1.5.7,1.5-.8,1.9-2.4,4.9-3.2,6.3-1.1-1.8-2.9-5.2-3.6-6.5-.4-.9-.4-1.1.3-1.2l1.2-.2v-.8h-7.1ZM122.6,53.3c1.8,0,3.8,1,3.8,3.9s-.4,2.7-1.5,3.5c-.7.6-1.5.7-2.6.7h-1v-7.1c0-.9,0-1,1.4-1h0Z"/>
</svg>