<?xml version="1.0" encoding="UTF-8" standalone="no"?>
<svg xmlns:rdf="http://www.w3.org/1999/02/22-rdf-syntax-ns#" xmlns="http://www.w3.org/2000/svg" xml:space="preserve" height="71.14" viewBox="0 0 209.10742 71.13965" width="209.11" version="1.1" xmlns:cc="http://creativecommons.org/ns#" xmlns:dc="http://purl.org/dc/elements/1.1/"><g transform="matrix(1.3333 0 0 -1.3333 -265.52 385.17)"><path d="m218.98 288.12c-11.173 0-19.286-7.2961-19.286-17.807 0-8.112 5.4081-16.887 18.317-16.887 3.5715 0 8.1635 1.0717 9.5925 1.4282 0.816 1.9385 1.9381 6.0208 2.6016 8.2148l-1.2752 0.15235c-2.5-5.357-5.1532-8.113-10.868-8.113-8.266 0-13.317 6.5322-13.317 16.379 0 8.01 4.0806 14.949 13.266 14.949 5 0 8.2656-1.5817 9.7962-7.4487l1.2759 0.10108c-0.3055 2.653-0.50996 4.8986-0.91846 7.7051-1.4285 0.306-4.8471 1.3257-9.1846 1.3257zm57.875-4.114-1.0312-0.40357-9.2358-23.807c-1.569-3.99-1.9278-4.2595-4.8428-4.5725v-1.032h9.5947v1.032l-1.3447 0.13403c-2.0175 0.179-2.4214 0.76232-1.5688 3.3618 0.628 1.884 1.7932 5.3811 2.2427 6.5471h9.1003c1.2565-3.2295 2.5559-6.726 2.8689-7.8025 0.4495-1.389 0.26983-1.883-1.3887-2.061l-1.4348-0.17944v-1.032h10.85v1.032c-2.78 0.224-3.3621 0.53771-4.7966 4.3037-1.7495 4.5735-3.7221 10.267-5.8301 15.962l-3.1831 8.5181zm-40.892-0.67237v-1.0312c3.766-0.269 4.125-0.58322 4.125-5.4697v-16.14c0-4.8875-0.359-5.202-4.125-5.4705v-1.0312h20.221c0.359 1.2115 1.3454 5.7843 1.5688 7.0393l-1.1199 0.13404c-0.673-2.0615-1.4346-3.5858-2.1526-4.3938-0.986-1.0755-3.0935-1.3-5.335-1.3-1.7045 0-3.3638 0.0902-4.2158 0.58374-0.8515 0.4475-1.0752 1.7021-1.0752 4.3931v16.186c0 4.8865 0.35909 5.2007 4.2151 5.4697v1.0312h-12.106zm59.993 0v-1.0312c3.586-0.269 3.9456-0.58322 3.9456-5.4697v-16.14c0-4.8875-0.35927-5.202-4.1243-5.4705v-1.0312h11.925v1.0312c-3.676 0.2685-4.0342 0.58296-4.0342 5.4705v6.3215h2.4214c1.3895 0 2.1072-0.44803 2.8242-1.6135 1.256-2.108 3.1388-5.4258 4.5293-7.4443 1.7035-2.4655 3.2715-4.0344 8.428-4.169h0.62841l0.0894 0.85254c-1.6135 0.4035-2.4218 1.1209-3.3633 2.2419-1.21 1.3445-2.1526 2.5552-3.7661 4.9307-1.3445 1.973-3.1825 5.0666-3.9895 6.4116 3.6315 1.48 5.918 4.1257 5.918 7.8472 0 2.6-1.1655 4.6175-2.959 5.7385-1.659 1.121-4.2157 1.5242-7.0847 1.5242h-11.388zm31.296 0v-1.0312c3.765-0.2695 4.1257-0.58322 4.1257-5.4697v-16.14c0-4.8875-0.36061-5.2017-3.9016-5.4697v-1.032h11.881v1.032c-3.855 0.268-4.2144 0.58223-4.2144 5.4697v8.4741c3.094-3.2285 11.031-12.6 13.183-14.976h6.6343v1.032c-2.061 0.224-2.8692 0.76164-5.3342 3.3171-1.9735 2.0625-6.8596 7.4439-10.85 12.151 3.5415 3.6765 6.9932 6.9488 8.6082 8.3833 2.9585 2.7355 4.0794 2.959 6.8599 3.2285v1.0312h-10.805v-1.0312l1.8369-0.22412c1.2115-0.134 1.3457-0.67252 0.58374-1.6135-2.287-2.825-8.5188-9.4162-10.717-11.21v7.5776c0 4.8865 0.35947 5.2002 3.991 5.4697v1.0312h-11.881zm-20.67-1.3c3.3625 0 6.7705-1.8833 6.7705-6.5903 0-2.1975-0.67333-4.3945-2.6008-5.918-1.21-0.9865-2.6446-1.2114-4.4832-1.2114h-2.6008v12.284c0 0.898 0.1348 1.1209 0.4043 1.2114 0.3585 0.1345 0.98551 0.22412 2.51 0.22412zm-31.43-4.0349h0.0893l3.9463-11.03h-7.9365l3.9009 11.03zm51.686-27.709c-0.04-1.056-0.16217-2.3951-0.24317-3.7346h0.60938c0.242 0.973 0.48649 1.5009 0.72949 1.7849 0.3255 0.3655 0.8534 0.60937 2.5979 0.60937h0.69067v-9.3354c0-2.192-0.16297-2.3536-1.949-2.4756v-0.56909h6.2512v0.56909c-1.868 0.122-2.0295 0.28359-2.0295 2.4756v9.3354h1.0554c1.258 0 1.9072-0.12156 2.2522-0.50756 0.305-0.304 0.54796-0.83172 0.75146-1.8867l0.60865 0.0403c-0.12201 1.2995-0.20267 2.8413-0.24317 3.6943h-0.32519c-0.3245-0.4065-0.44663-0.52808-0.97412-0.52808h-8.3613c-0.5685 0-0.77169 0.0406-1.0547 0.52808h-0.36621zm-20.353-0.22413c-2.719 0-4.3228-1.7455-4.3228-3.876 0-1.9895 1.7054-3.0654 3.0439-3.7544l0.64966-0.3252c1.6035-0.792 2.1511-1.603 2.1511-2.74 0-1.2585-0.81111-2.2932-2.1306-2.2932-2.0905 0-3.186 2.2526-3.5925 3.3091l-0.60865-0.20361c0.20351-1.2385 0.44665-2.618 0.60865-3.145 0.244-0.0815 0.6085-0.24427 1.177-0.42627 0.528-0.18351 1.259-0.34571 2.0295-0.34571 2.74 0 4.6274 1.7046 4.6274 4.1206 0 2.11-1.4607 3.185-3.0447 3.8965l-0.52734 0.24243c-1.5625 0.71001-2.3745 1.4616-2.3745 2.5986 0 1.1565 0.73105 2.1299 2.0706 2.1299 1.7045 0 2.3335-1.4207 2.699-2.5972l0.64966 0.12085c-0.2035 1.1375-0.32526 2.0303-0.40576 2.7393-0.24401 0.1025-0.52778 0.14391-0.85328 0.2644-0.56749 0.20351-1.2989 0.28491-1.8464 0.28491zm-104.24-0.30395v-0.56836c1.6235-0.1215 1.7864-0.24403 1.7864-2.436v-4.6882c0-2.395 0.44574-3.856 1.5212-4.7285 1.015-0.832 2.3548-1.0752 3.6123-1.0752 1.421 0 2.8616 0.54701 3.7551 1.5205 1.1155 1.198 1.4817 2.8841 1.4817 4.8516v1.4414c0 2.313 0.10114 3.4494 0.18164 4.0584 0.102 0.731 0.62979 1.0156 1.6443 1.0562v0.56836h-4.9519v-0.56836c1.2985-0.082 1.8672-0.32515 1.9688-1.0562 0.081-0.609 0.18237-1.7454 0.18237-4.0584v-1.2173c0-3.5515-1.2181-5.4192-3.6731-5.4192-2.3945 0-3.4504 1.8067-3.4504 5.0332v4.2817c0 2.192 0.1628 2.3145 1.6648 2.436v0.56836h-5.7231zm18.608 0v-0.56836c1.6645-0.1215 2.1108-0.60938 2.1108-2.9634v-3.9785c0-2.3125-0.10138-3.4494-0.18238-4.0584-0.1015-0.7295-0.63052-1.0137-1.645-1.0547v-0.56836h4.9519v0.56836c-1.299 0.081-1.8665 0.32519-1.968 1.0547-0.0815 0.609-0.18237 1.7458-0.18237 4.0584v4.385h0.041l8.3606-10.229h0.93384v7.6714c0 2.313 0.1016 3.4494 0.1831 4.0584 0.1015 0.731 0.62782 1.0156 1.6428 1.0562v0.56836h-4.9519v-0.56836c1.2995-0.082 1.868-0.32515 1.9695-1.0562 0.081-0.609 0.18238-1.7454 0.18238-4.0584v-3.8562h-0.041l-8.0969 9.5391h-3.3084zm19.4 0v-0.56836c1.5825-0.1215 1.7454-0.28482 1.7454-2.4763v-7.103c0-2.192-0.16287-2.3541-1.7454-2.4756v-0.56836h5.7232v0.56836c-1.543 0.1215-1.7051 0.28359-1.7051 2.4756v7.103c0 2.1915 0.16208 2.3548 1.7051 2.4763v0.56836h-5.7232zm10.532 0v-0.56836c1.1365-0.1215 1.4609-0.24432 2.1504-2.0698 0.772-2.0305 2.7001-7.0216 4.0796-10.675h0.87304c1.5625 4.1395 4.0792 10.146 4.2817 10.553 0.933 1.8875 1.0142 2.0291 2.3137 2.1921v0.56836h-4.6069v-0.56836l0.60938-0.0608c0.893-0.102 1.0749-0.34556 0.64892-1.6436-0.366-1.0965-2.0698-5.703-2.8814-7.875-1.2385 3.166-2.821 7.1844-3.227 8.4419-0.24401 0.791-0.20288 0.93464 0.56762 1.0356l0.64966 0.1018v0.56836h-5.4587zm18.507 0v-0.56836c1.542-0.1215 1.7043-0.28482 1.7043-2.4763v-7.103c0-2.192-0.16246-2.3541-1.908-2.4756v-0.56836h9.9038c0.1625 0.5685 0.60917 2.6374 0.69068 3.3274l-0.60938 0.12305c-0.344-0.9745-0.69041-1.6653-1.0349-2.0508-0.4265-0.506-1.3595-0.58887-2.3745-0.58887-0.853 0-1.584 0.0221-1.949 0.26514-0.365 0.2635-0.44604 0.83103-0.44604 2.009v3.3274h1.7454c1.745 0 1.786-0.0803 1.9885-1.6838h0.64966v4.3015h-0.64966c-0.2025-1.5615-0.24352-1.6846-1.9885-1.6846h-1.7454v4.303c0 0.7305 0.041 0.73095 0.81152 0.73095h1.0151c1.259 0 1.9072-0.12178 2.2522-0.46728 0.304-0.303 0.54847-0.8717 0.75147-1.8457l0.60864 0.0403c-0.1215 1.258-0.20216 2.76-0.24316 3.085h-9.1728zm15.421 0v-0.56836c1.543-0.1215 1.7043-0.28458 1.7043-2.4756v-7.1038c0-2.192-0.16164-2.3541-1.7856-2.4756v-0.56836h5.7231v0.56836c-1.5425 0.1215-1.7036 0.28359-1.7036 2.4756v2.7195h0.6482c0.60949 0 0.85296-0.20274 1.1785-0.77124 0.588-1.055 1.257-2.3546 1.9065-3.2886 0.79099-1.1355 1.4821-1.7037 3.6936-1.8662l0.85327-0.041 0.0806 0.52807c-0.5885 0.1425-0.9134 0.44611-1.4004 0.93311-0.385 0.4065-0.91308 1.1369-1.6846 2.2529-0.6495 0.9135-1.4406 2.3346-1.7651 2.9026 1.6435 0.608 2.6982 1.8055 2.6982 3.5105 0 1.198-0.54713 2.0501-1.3381 2.5781-0.8125 0.528-1.8681 0.68994-3.3486 0.68994h-5.4602zm30.886 0v-0.56836c1.5825-0.1215 1.7454-0.28482 1.7454-2.4763v-7.103c0-2.192-0.16286-2.3541-1.7454-2.4756v-0.56836h5.7239v0.56836c-1.543 0.1215-1.7058 0.28359-1.7058 2.4756v7.103c0 2.1915 0.16281 2.3548 1.7058 2.4763v0.56836h-5.7239zm27.049 0v-0.56836c1.055-0.1215 1.1565-0.18285 2.0295-1.7043 1.3395-2.3145 2.0704-3.5926 2.721-4.8106 0.3035-0.568 0.28271-0.67044 0.28271-1.0964v-1.968c0-2.192-0.16245-2.3541-1.908-2.4756v-0.56836h6.1692v0.56836c-1.826 0.1215-1.9885 0.28359-1.9885 2.4756v2.1724c0 0.6895 0.0617 0.85128 0.26367 1.2173 1.0355 2.009 1.7861 3.2674 2.5576 4.4854 0.853 1.339 1.0342 1.5828 2.2522 1.7043v0.56836h-4.5659v-0.56836l0.81152-0.082c0.7105-0.081 0.83306-0.28392 0.48706-1.0554-0.609-1.3795-1.725-3.571-2.354-4.6465-0.8325 1.3395-2.1299 3.7935-2.6184 4.7695-0.3245 0.6485-0.28361 0.81182 0.2439 0.89282l0.85254 0.12158v0.56836h-5.2361zm-52.982-0.77124c1.298 0 2.7598-0.7318 2.7598-2.8418 0-0.975-0.2852-1.9487-1.0957-2.5972-0.528-0.4065-1.0965-0.52808-1.908-0.52808h-0.77051v5.2354c0 0.6495 0.0399 0.73169 1.0144 0.73169z"/></g></svg>
