<?xml version="1.0" encoding="UTF-8" standalone="no"?>
<!-- Created with Inkscape (http://www.inkscape.org/) -->

<svg
   xmlns:dc="http://purl.org/dc/elements/1.1/"
   xmlns:cc="http://creativecommons.org/ns#"
   xmlns:rdf="http://www.w3.org/1999/02/22-rdf-syntax-ns#"
   xmlns:svg="http://www.w3.org/2000/svg"
   xmlns="http://www.w3.org/2000/svg"
   xmlns:sodipodi="http://sodipodi.sourceforge.net/DTD/sodipodi-0.dtd"
   xmlns:inkscape="http://www.inkscape.org/namespaces/inkscape"
   id="svg3355"
   version="1.1"
   inkscape:version="0.91 r13725"
   xml:space="preserve"
   width="386.94098"
   height="72.602501"
   viewBox="0 0 386.94098 72.602501"
   sodipodi:docname="logo.svg"><metadata
     id="metadata3361"><rdf:RDF><cc:Work
         rdf:about=""><dc:format>image/svg+xml</dc:format><dc:type
           rdf:resource="http://purl.org/dc/dcmitype/StillImage" /><dc:title></dc:title></cc:Work></rdf:RDF></metadata><defs
     id="defs3359"><clipPath
       clipPathUnits="userSpaceOnUse"
       id="clipPath3377"><path
         d="M 0,792 612,792 612,0 0,0 0,792 Z"
         id="path3379"
         inkscape:connector-curvature="0" /></clipPath><clipPath
       clipPathUnits="userSpaceOnUse"
       id="clipPath3393"><path
         d="m -32768,32767 65535,0 0,-65535 -65535,0 0,65535 z"
         id="path3395"
         inkscape:connector-curvature="0" /></clipPath><linearGradient
       x1="0"
       y1="0"
       x2="1"
       y2="0"
       gradientUnits="userSpaceOnUse"
       gradientTransform="matrix(0,147.59,147.59,0,22.5,47.25)"
       spreadMethod="pad"
       id="linearGradient3397"><stop
         style="stop-opacity:1;stop-color:#ffffff"
         offset="0"
         id="stop3399" /><stop
         style="stop-opacity:0;stop-color:#ffffff"
         offset="1"
         id="stop3401" /></linearGradient><mask
       maskUnits="userSpaceOnUse"
       x="0"
       y="0"
       width="1"
       height="1"
       id="mask3403"><g
         id="g3405"><g
           clip-path="url(#clipPath3393)"
           id="g3407"><g
             id="g3409"><g
               id="g3411"><path
                 d="m -32768,32767 65535,0 0,-65535 -65535,0 0,65535 z"
                 style="fill:url(#linearGradient3397);stroke:none"
                 id="path3413"
                 inkscape:connector-curvature="0" /></g></g></g></g></mask><clipPath
       clipPathUnits="userSpaceOnUse"
       id="clipPath3419"><path
         d="m 21.5,195.84 569,0 0,-149.59 -569,0 0,149.59 z"
         id="path3421"
         inkscape:connector-curvature="0" /></clipPath><clipPath
       clipPathUnits="userSpaceOnUse"
       id="clipPath3437"><path
         d="m 266.655,728.351 78.69,0 0,52.009 -78.69,0 0,-52.009 z"
         id="path3439"
         inkscape:connector-curvature="0" /></clipPath><clipPath
       clipPathUnits="userSpaceOnUse"
       id="clipPath3501"><path
         d="M 0,0 612,0 612,792 0,792 0,0 Z"
         id="path3503"
         inkscape:connector-curvature="0" /></clipPath><clipPath
       clipPathUnits="userSpaceOnUse"
       id="clipPath3567"><path
         d="M 0,0 612,0 612,792 0,792 0,0 Z"
         id="path3569"
         inkscape:connector-curvature="0" /></clipPath><clipPath
       clipPathUnits="userSpaceOnUse"
       id="clipPath3575"><path
         d="m -32768,32767 65535,0 0,-65535 -65535,0 0,65535 z"
         id="path3577"
         inkscape:connector-curvature="0" /></clipPath><linearGradient
       x1="0"
       y1="0"
       x2="1"
       y2="0"
       gradientUnits="userSpaceOnUse"
       gradientTransform="matrix(-274.32001,0,0,-274.32001,305.5,678.67993)"
       spreadMethod="pad"
       id="linearGradient3579"><stop
         style="stop-opacity:1;stop-color:#ffffff"
         offset="0"
         id="stop3581" /><stop
         style="stop-opacity:0;stop-color:#ffffff"
         offset="1"
         id="stop3583" /></linearGradient><mask
       maskUnits="userSpaceOnUse"
       x="0"
       y="0"
       width="1"
       height="1"
       id="mask3585"><g
         id="g3587"><g
           clip-path="url(#clipPath3575)"
           id="g3589"><g
             id="g3591"><g
               id="g3593"><path
                 d="m -32768,32767 65535,0 0,-65535 -65535,0 0,65535 z"
                 style="fill:url(#linearGradient3579);stroke:none"
                 id="path3595"
                 inkscape:connector-curvature="0" /></g></g></g></g></mask><clipPath
       clipPathUnits="userSpaceOnUse"
       id="clipPath3601"><path
         d="m 30.18,680.68 276.32,0 0,-3 -276.32,0 0,3 z"
         id="path3603"
         inkscape:connector-curvature="0" /></clipPath><clipPath
       clipPathUnits="userSpaceOnUse"
       id="clipPath3617"><path
         d="m -32768,32767 65535,0 0,-65535 -65535,0 0,65535 z"
         id="path3619"
         inkscape:connector-curvature="0" /></clipPath><linearGradient
       x1="0"
       y1="0"
       x2="1"
       y2="0"
       gradientUnits="userSpaceOnUse"
       gradientTransform="matrix(0,-243.86,243.86,0,305,679.67993)"
       spreadMethod="pad"
       id="linearGradient3621"><stop
         style="stop-opacity:1;stop-color:#ffffff"
         offset="0"
         id="stop3623" /><stop
         style="stop-opacity:0;stop-color:#ffffff"
         offset="1"
         id="stop3625" /></linearGradient><mask
       maskUnits="userSpaceOnUse"
       x="0"
       y="0"
       width="1"
       height="1"
       id="mask3627"><g
         id="g3629"><g
           clip-path="url(#clipPath3617)"
           id="g3631"><g
             id="g3633"><g
               id="g3635"><path
                 d="m -32768,32767 65535,0 0,-65535 -65535,0 0,65535 z"
                 style="fill:url(#linearGradient3621);stroke:none"
                 id="path3637"
                 inkscape:connector-curvature="0" /></g></g></g></g></mask><clipPath
       clipPathUnits="userSpaceOnUse"
       id="clipPath3643"><path
         d="m 304,680.68 3,0 0,-385.04 -3,0 0,385.04 z"
         id="path3645"
         inkscape:connector-curvature="0" /></clipPath><clipPath
       clipPathUnits="userSpaceOnUse"
       id="clipPath3675"><path
         d="M 0,0 612,0 612,792 0,792 0,0 Z"
         id="path3677"
         inkscape:connector-curvature="0" /></clipPath><clipPath
       clipPathUnits="userSpaceOnUse"
       id="clipPath3699"><path
         d="M 0,0 612,0 612,792 0,792 0,0 Z"
         id="path3701"
         inkscape:connector-curvature="0" /></clipPath><clipPath
       clipPathUnits="userSpaceOnUse"
       id="clipPath3835"><path
         d="m 401.732,347.154 80.431,0 0,80.431 -80.431,0 0,-80.431 z"
         id="path3837"
         inkscape:connector-curvature="0" /></clipPath><clipPath
       clipPathUnits="userSpaceOnUse"
       id="clipPath3847"><path
         d="M 0,0 612,0 612,792 0,792 0,0 Z"
         id="path3849"
         inkscape:connector-curvature="0" /></clipPath><clipPath
       clipPathUnits="userSpaceOnUse"
       id="clipPath3875"><path
         d="M 0,0 612,0 612,792 0,792 0,0 Z"
         id="path3877"
         inkscape:connector-curvature="0" /></clipPath><clipPath
       clipPathUnits="userSpaceOnUse"
       id="clipPath3891"><path
         d="M 0,0 612,0 612,792 0,792 0,0 Z"
         id="path3893"
         inkscape:connector-curvature="0" /></clipPath><clipPath
       clipPathUnits="userSpaceOnUse"
       id="clipPath3915"><path
         d="M 0,0 612,0 612,792 0,792 0,0 Z"
         id="path3917"
         inkscape:connector-curvature="0" /></clipPath><clipPath
       clipPathUnits="userSpaceOnUse"
       id="clipPath3939"><path
         d="M 0,0 612,0 612,792 0,792 0,0 Z"
         id="path3941"
         inkscape:connector-curvature="0" /></clipPath><clipPath
       clipPathUnits="userSpaceOnUse"
       id="clipPath3955"><path
         d="M 0,0 612,0 612,792 0,792 0,0 Z"
         id="path3957"
         inkscape:connector-curvature="0" /></clipPath><clipPath
       clipPathUnits="userSpaceOnUse"
       id="clipPath3977"><path
         d="M 0,0 612,0 612,792 0,792 0,0 Z"
         id="path3979"
         inkscape:connector-curvature="0" /></clipPath><clipPath
       clipPathUnits="userSpaceOnUse"
       id="clipPath3999"><path
         d="M 0,0 612,0 612,792 0,792 0,0 Z"
         id="path4001"
         inkscape:connector-curvature="0" /></clipPath><clipPath
       clipPathUnits="userSpaceOnUse"
       id="clipPath4023"><path
         d="M 0,0 612,0 612,792 0,792 0,0 Z"
         id="path4025"
         inkscape:connector-curvature="0" /></clipPath><clipPath
       clipPathUnits="userSpaceOnUse"
       id="clipPath4055"><path
         d="M 0,0 612,0 612,792 0,792 0,0 Z"
         id="path4057"
         inkscape:connector-curvature="0" /></clipPath><clipPath
       clipPathUnits="userSpaceOnUse"
       id="clipPath4075"><path
         d="M 0,0 612,0 612,792 0,792 0,0 Z"
         id="path4077"
         inkscape:connector-curvature="0" /></clipPath><clipPath
       clipPathUnits="userSpaceOnUse"
       id="clipPath4091"><path
         d="M 0,0 612,0 612,792 0,792 0,0 Z"
         id="path4093"
         inkscape:connector-curvature="0" /></clipPath><clipPath
       clipPathUnits="userSpaceOnUse"
       id="clipPath4135"><path
         d="M 0,0 612,0 612,792 0,792 0,0 Z"
         id="path4137"
         inkscape:connector-curvature="0" /></clipPath><clipPath
       clipPathUnits="userSpaceOnUse"
       id="clipPath4159"><path
         d="M 0,0 612,0 612,792 0,792 0,0 Z"
         id="path4161"
         inkscape:connector-curvature="0" /></clipPath><clipPath
       clipPathUnits="userSpaceOnUse"
       id="clipPath4179"><path
         d="M 0,0 612,0 612,792 0,792 0,0 Z"
         id="path4181"
         inkscape:connector-curvature="0" /></clipPath><clipPath
       clipPathUnits="userSpaceOnUse"
       id="clipPath4203"><path
         d="M 0,0 612,0 612,792 0,792 0,0 Z"
         id="path4205"
         inkscape:connector-curvature="0" /></clipPath><clipPath
       clipPathUnits="userSpaceOnUse"
       id="clipPath4223"><path
         d="M 0,0 612,0 612,792 0,792 0,0 Z"
         id="path4225"
         inkscape:connector-curvature="0" /></clipPath><clipPath
       clipPathUnits="userSpaceOnUse"
       id="clipPath4267"><path
         d="M 0,0 612,0 612,792 0,792 0,0 Z"
         id="path4269"
         inkscape:connector-curvature="0" /></clipPath><clipPath
       clipPathUnits="userSpaceOnUse"
       id="clipPath4287"><path
         d="M 0,0 612,0 612,792 0,792 0,0 Z"
         id="path4289"
         inkscape:connector-curvature="0" /></clipPath><clipPath
       clipPathUnits="userSpaceOnUse"
       id="clipPath4323"><path
         d="M 0,0 612,0 612,792 0,792 0,0 Z"
         id="path4325"
         inkscape:connector-curvature="0" /></clipPath><clipPath
       clipPathUnits="userSpaceOnUse"
       id="clipPath4339"><path
         d="M 0,0 612,0 612,792 0,792 0,0 Z"
         id="path4341"
         inkscape:connector-curvature="0" /></clipPath><clipPath
       clipPathUnits="userSpaceOnUse"
       id="clipPath4391"><path
         d="m 344.731,628.41 194.434,0 0,36.482 -194.434,0 0,-36.482 z"
         id="path4393"
         inkscape:connector-curvature="0" /></clipPath></defs><sodipodi:namedview
     pagecolor="#ffffff"
     bordercolor="#666666"
     borderopacity="1"
     objecttolerance="10"
     gridtolerance="10"
     guidetolerance="10"
     inkscape:pageopacity="0"
     inkscape:pageshadow="2"
     inkscape:window-width="1280"
     inkscape:window-height="781"
     id="namedview3357"
     showgrid="false"
     inkscape:zoom="1"
     inkscape:cx="252.41989"
     inkscape:cy="27.849366"
     inkscape:window-x="0"
     inkscape:window-y="0"
     inkscape:window-maximized="0"
     inkscape:current-layer="g3363"
     fit-margin-top="0"
     fit-margin-left="0"
     fit-margin-right="0"
     fit-margin-bottom="0" /><g
     id="g3363"
     inkscape:groupmode="layer"
     inkscape:label="992378552837085212-f-m-athletics-identity-guide"
     transform="matrix(1.25,0,0,-1.25,-287.01529,831.115)"><g
       id="g4387"
       transform="matrix(1.5920728,0,0,1.5920728,-319.22493,-393.66447)"><g
         id="g4389"
         clip-path="url(#clipPath4391)"><g
           id="g4395"
           transform="translate(411.9958,656.7617)"><path
             d="m 0,0 c -0.021,1.835 -1.559,1.132 -1.659,1.798 -0.023,0.156 0.157,0.364 0.231,0.363 0.801,-0.008 1.555,-0.012 2.299,-0.012 0.624,0 1.247,0.015 1.87,0.014 C 7.151,2.157 4.684,1.177 3.687,1.374 3.426,1.425 3.191,1.376 3.24,1.387 2.724,1.27 1.698,1.473 1.589,0 l 0.005,-13.498 c 0.031,-1.812 1.79,-1.131 1.791,-1.885 0,-0.176 -0.128,-0.305 -0.607,-0.31 -0.424,-0.004 -1.095,0.018 -1.958,0.013 -1.265,-0.01 -1.644,-0.01 -1.989,-0.015 -0.362,-0.005 -0.409,0.185 -0.394,0.435 0.039,0.62 1.701,-0.167 1.568,2.389 L 0,0 Z"
             style="fill:#10427a;fill-opacity:1;fill-rule:nonzero;stroke:none"
             id="path4397"
             inkscape:connector-curvature="0" /></g><g
           id="g4399"
           transform="translate(418.035,653.9739)"><path
             d="m 0,0 c 0.183,5.753 -2.478,3.268 -2.668,4.583 -0.022,0.149 -0.003,0.281 0.097,0.281 -0.123,0 -0.567,0.165 1.558,0.075 0.323,-0.014 0.6,0.079 0.779,-0.074 C 0.185,4.506 0.139,4.55 0.26,4.374 L 9.857,-8.971 c 0.121,-0.175 0.201,-0.276 0.241,-0.276 0.04,0 0.061,0.075 0.061,0.276 L 10.154,1.537 C 10.01,5.18 7.853,3.692 7.921,4.704 7.933,4.88 8.22,4.956 8.23,4.956 8.465,4.946 9.557,4.94 10.118,4.943 c 0.78,0.004 1.641,0.004 2.119,0.014 0.077,0.001 0.368,-0.01 0.375,-0.255 0.024,-0.764 -1.581,0.099 -1.593,-2.008 l 0.006,-14.555 c 0,-0.729 -0.02,-1.081 -0.181,-1.081 -0.141,0 -0.342,0.126 -0.764,0.703 L 1.428,-0.075 c -0.04,0.05 -0.282,0.478 -0.423,0.478 -0.08,0 -0.141,-0.076 -0.14,-0.579 l 0.004,-10.281 c 0.022,-2.15 1.771,-1.333 1.77,-2.061 0,-0.264 -0.107,-0.387 -0.308,-0.385 -0.477,0.004 -0.944,0.004 -1.973,0.012 -0.704,0.006 -1.449,-0.008 -1.89,-0.014 -0.241,-0.002 -0.392,0.276 -0.349,0.394 0.323,0.894 1.886,-0.284 1.885,3.235 L 0,0 Z"
             style="fill:#10427a;fill-opacity:1;fill-rule:nonzero;stroke:none"
             id="path4401"
             inkscape:connector-curvature="0" /></g><g
           id="g4403"
           transform="translate(348.9502,655.1104)"><path
             d="m 0,0 c 0,-1.14 -0.053,-1.295 1.019,-1.294 l 1.987,0 c 2.789,0.002 2.064,2.838 2.708,2.838 0.214,0 0.382,-0.223 0.382,-0.491 0.001,-1.173 0.006,-2.341 0.006,-3.414 10e-4,-0.871 -0.004,-1.714 -0.003,-2.619 0,-0.301 -0.195,-0.581 -0.383,-0.581 -0.831,-0.001 0.08,3.104 -2.173,3.103 l -3.06,-10e-4 c -0.616,0 -0.482,-0.725 -0.482,-1.228 l 0.003,-6.926 c -0.173,-3.302 1.976,-2.194 2.356,-2.927 0.078,-0.15 0.079,-0.529 -0.56,-0.528 -0.188,10e-4 -0.102,0.007 -2.6,0.021 -0.589,0.004 -2.55,-0.023 -2.585,-0.023 -0.69,0.007 -0.619,0.452 -0.559,0.564 0.277,0.522 2.201,-0.148 2.14,3.484 L -1.81,5.429 c -10e-4,1.508 0.176,2.9 -1.605,3.384 -0.217,0.06 -0.804,0.134 -0.804,0.537 -10e-4,0.268 0.164,0.482 0.938,0.402 C -2.189,9.64 5.038,9.748 6.5,9.739 7.724,9.731 9.211,9.738 10.042,9.729 10.476,9.724 10.465,9.402 10.428,9.021 10.098,5.671 10.314,5.097 9.893,5.032 9.183,4.922 9.544,6.74 9.103,7.566 8.418,8.848 6.894,8.711 5.885,8.737 3.497,8.797 -0.328,9.043 -0.032,6.302 L 0,0 Z"
             style="fill:#10427a;fill-opacity:1;fill-rule:nonzero;stroke:none"
             id="path4405"
             inkscape:connector-curvature="0" /></g><g
           id="g4407"
           transform="translate(390.7324,650.9465)"><path
             d="m 0,0 c 0,-0.151 0.04,-0.251 0.101,-0.251 0.06,0 0.14,0.025 0.221,0.126 l 4.04,4.576 C 4.744,4.879 5.654,5.874 5.789,6.488 5.972,7.321 4.602,7 4.662,7.669 4.689,7.967 4.895,7.979 4.923,7.97 4.952,7.962 6.194,7.958 7.259,7.958 8.305,7.959 8.304,7.964 8.905,7.972 9.033,7.974 9.431,7.927 9.442,7.8 9.529,6.827 8.805,7.922 6.513,5.583 L 1.81,0.353 C 1.629,0.151 1.508,0 1.508,-0.125 c 0,-0.151 0.081,-0.276 0.222,-0.478 l 5.593,-7.313 c 1.348,-1.759 2.212,-0.803 2.213,-1.583 0,-0.2 -0.188,-0.386 -0.329,-0.384 C 8.82,-9.879 8.573,-9.879 8.009,-9.871 7.666,-9.866 7.524,-9.879 6.967,-9.884 6.705,-9.887 6.398,-9.424 6.217,-9.198 L 0.544,-1.81 c -0.121,0.176 -0.262,0.251 -0.362,0.251 -0.101,0 -0.181,-0.075 -0.181,-0.251 L 0,0 Z"
             style="fill:#10427a;fill-opacity:1;fill-rule:nonzero;stroke:none"
             id="path4409"
             inkscape:connector-curvature="0" /></g><g
           id="g4411"
           transform="translate(403.8435,644.2147)"><path
             d="m 0,0 c 0,-1.483 -0.16,-2.087 1.529,-2.086 4.645,0.002 5.328,2.591 5.589,2.592 0.141,0 0.162,-0.252 0.162,-0.302 0,-0.905 -0.523,-1.785 -1.005,-2.439 -0.643,-0.905 -1.056,-0.913 -1.941,-0.914 -1.529,0 -3.012,0.03 -4.585,0.012 -0.73,-0.009 -1.692,-0.009 -2.395,-0.014 -0.181,-0.002 -0.362,0.052 -0.389,0.251 -0.074,0.541 0.567,0.453 0.884,0.712 0.468,0.381 0.563,1.005 0.562,2.187 l -0.004,12.745 c -0.001,1.307 -1.727,0.99 -1.72,1.575 0.004,0.341 0.226,0.377 0.431,0.386 0.422,0.017 1.105,-0.013 2.09,-0.013 1.146,10e-4 1.571,0.043 1.872,0.014 0.09,-0.008 0.615,0.137 0.586,-0.352 -0.042,-0.734 -1.779,0.197 -1.671,-2.137 L 0,0 Z"
             style="fill:#10427a;fill-opacity:1;fill-rule:nonzero;stroke:none"
             id="path4413"
             inkscape:connector-curvature="0" /></g><g
           id="g4415"
           transform="translate(358.932,657.1617)"><path
             d="m 0,0 0.002,-6.064 c 0.001,-0.251 -0.036,-0.723 0.608,-0.723 0.249,-0.006 0.878,-0.047 1.268,-0.031 0.305,0.012 0.465,0.082 0.665,0.082 0.975,10e-4 3.153,0.454 3.152,3.571 C 5.693,-0.098 3.805,0.932 1.582,0.931 0.765,0.931 -0.022,0.981 -0.021,0 L 0,0 m 1.512,-7.005 c 2.162,-0.055 2.86,-1.783 3.621,-3.263 0.839,-1.627 1.322,-3.788 2.34,-4.66 0.408,-0.349 1.862,-1.069 2.466,-1.217 l -0.579,0.052 -0.518,-0.056 -0.759,0.038 -0.232,-0.04 -0.472,-0.003 c -0.11,0.011 -0.723,0.215 -1.179,0.626 -1.297,1.169 -2.423,4.194 -2.919,5.085 -0.554,0.997 -1.085,2.833 -2.71,2.832 -0.064,0 0.023,10e-4 -0.045,10e-4 -0.644,0 -0.523,-0.453 -0.523,-0.704 l 0.002,-5.305 c -0.039,-2.286 2.18,-1.294 2.18,-2.148 0,-0.252 -0.12,-0.341 -0.342,-0.347 -0.273,-0.008 -0.886,0.006 -2.4,0.012 -1.037,0.004 -1.688,-0.051 -2.263,-0.014 -0.12,0.008 -0.596,0.093 -0.551,0.422 0.085,0.623 1.792,0.051 1.788,2.1 l -0.005,12.795 c -10e-4,2.414 -1.73,1.382 -1.731,2.237 0,0.15 0.19,0.302 0.432,0.302 0.404,0 0.017,0.014 0.805,-0.011 l 0.689,0.017 c 2.109,0.008 0.478,-0.013 3.37,-0.015 0.363,0 5.417,0.535 5.419,-4.317 C 7.397,-4.547 6.127,-6.231 4.539,-6.936 3.33,-7.508 2.32,-7.597 1.685,-7.609 l -0.173,0.604 z"
             style="fill:#10427a;fill-opacity:1;fill-rule:nonzero;stroke:none"
             id="path4417"
             inkscape:connector-curvature="0" /></g><g
           id="g4419"
           transform="translate(369.1358,649.6304)"><path
             d="m 0,0 c -0.141,-0.352 0,-0.452 0.262,-0.452 l 4.269,0.001 c 0.443,0.001 0.423,0.177 0.322,0.503 L 2.503,6.11 C 2.402,6.412 2.302,6.412 2.181,6.11 L 0,0 Z m 9.228,-7.642 c 0.592,0.209 1.379,-0.316 1.36,2.694 l -0.003,9.276 c -0.003,5.229 -2.435,3.77 -2.435,4.7 0,0.151 0.2,0.252 0.301,0.252 0.322,0 0.682,-0.013 1.004,-0.013 -0.047,0 0.943,-0.02 0.691,0.013 0.257,-0.034 0.578,-0.402 0.698,-0.578 l 9.423,-13.111 c 0.12,-0.176 0.347,-0.451 0.387,-0.451 -0.013,0 -0.592,-0.261 -0.385,0.396 L 20.243,5.924 c 0.095,3.439 -2.12,2.126 -1.912,3.166 0.034,0.173 0.275,0.194 0.396,0.194 0.603,0 1.332,-0.013 1.976,-0.013 0.683,10e-4 1.356,0.005 1.885,0.014 0.026,0 0.528,-0.005 0.58,-0.168 0.32,-1.006 -1.576,-0.103 -1.565,-2.095 l 0.006,-14.555 c -0.01,-1.033 -0.078,-1.022 -0.239,-1.022 -0.141,-10e-4 -0.284,0.067 -0.706,0.645 L 12.012,4.253 c -0.04,0.051 -0.281,0.478 -0.422,0.478 -0.081,0 -0.141,-0.076 -0.141,-0.578 l 0.004,-10.282 c 0.001,-2.263 1.677,-1.388 1.771,-2.06 0.036,-0.263 -0.108,-0.389 -0.309,-0.386 -0.325,0.006 -0.937,0.006 -1.972,0.013 L 8.155,-8.564 c -0.039,0 0.072,-0.004 0.033,-0.007 -0.626,-0.037 -0.962,0 -1.528,-0.006 -0.12,-0.002 -0.413,0.058 -0.413,0.309 -10e-4,0.603 1.299,0.251 1.206,1.308 -0.049,0.551 -0.578,1.709 -0.78,2.387 L 5.874,-2.511 C 5.672,-1.933 5.552,-1.556 4.989,-1.556 L 0.121,-1.558 c -0.382,0 -0.589,-10e-4 -0.789,-0.528 L -1.799,-5.607 C -1.859,-5.782 -2,-6.101 -1.998,-6.428 c 0.011,-1.564 2.109,-1.184 2.204,-1.6 0.143,-0.625 -0.371,-0.582 -1.462,-0.592 -0.068,-0.001 -1.025,-0.005 -1.151,0.084 l -0.673,0.253 c -0.673,0.399 -0.207,0.894 0.015,1.628 L 1.492,6.11 c 1.17,3.126 1.39,3.569 1.39,3.569 C 3.137,9.795 3.313,8.949 3.421,8.75 L 7.908,-3.729 c 0.302,-0.93 0.804,-2.437 1.24,-3.331 0.381,-0.781 0.781,-0.392 1.148,-0.486 L 9.228,-7.642 Z"
             style="fill:#10427a;fill-opacity:1;fill-rule:nonzero;stroke:none"
             id="path4421"
             inkscape:connector-curvature="0" /></g><g
           id="g4423"
           transform="translate(460.1732,644.2452)"><path
             d="m 0,0 c -0.169,-3.389 2.119,-1.574 2.12,-2.747 0,-0.336 -0.349,-0.394 -0.644,-0.394 -0.51,0 -1.361,-0.012 -2.433,-0.013 -0.831,0 -1.661,-0.002 -2.36,0.011 -0.241,0.004 -0.467,0.103 -0.47,0.36 -0.01,0.896 1.84,-0.081 1.75,2.749 l -0.304,12.771 -0.184,2.138 c 0,0 -0.649,-1.381 -0.807,-1.836 L -8.877,-1.108 c -0.134,-0.302 -0.563,-1.676 -0.831,-1.676 -0.268,0 -0.456,0.737 -0.537,0.972 l -5.717,14.946 c -0.081,0.268 -0.489,1.477 -0.489,1.477 L -16.471,13 -16.759,1.41 c 0.002,-5.096 2.654,-2.675 2.502,-4.247 -0.032,-0.333 -0.382,-0.31 -0.758,-0.311 -0.348,0 -1.467,-0.011 -2.272,-0.012 -1.394,-10e-4 -1.85,-0.006 -2.333,0.011 0.535,-0.019 -0.303,0.077 -0.272,0.008 -0.028,0.063 -0.308,-0.027 -0.346,0.335 -0.106,1.014 1.935,-0.181 2.165,3.311 0.36,5.461 0.598,8.841 0.609,12.394 0.027,8.254 -2.588,6.27 -2.637,7.342 -0.018,0.386 0.361,0.401 0.514,0.397 0.518,-0.01 0.936,-0.016 1.446,-0.016 0.482,0 0.763,0.035 1.273,0.018 0.375,-0.013 0.662,-0.803 0.796,-1.172 L -9.683,2.444 c 0.295,-0.703 0.402,-1.005 0.59,-1.004 0.134,0 0.402,0.703 0.831,1.809 l 6.375,16.024 c 0.161,0.369 0.636,1.377 0.959,1.373 0.955,-0.012 0.87,-0.017 1.027,-0.017 0.617,0 0.832,0.006 1.286,0.018 C 1.543,20.651 1.864,20.46 1.8,20.158 1.569,19.054 -0.527,21.101 -0.411,16.391 L 0,0 Z"
             style="fill:#10427a;fill-opacity:1;fill-rule:nonzero;stroke:none"
             id="path4425"
             inkscape:connector-curvature="0" /></g><g
           id="g4427"
           transform="translate(494.1583,656.7557)"><path
             d="M 0,0 C -0.185,2.033 -1.759,1.04 -1.779,1.914 -1.785,2.14 -1.44,2.194 -1.196,2.191 -0.36,2.178 0.04,2.172 0.784,2.178 1.487,2.184 1.797,2.203 2.392,2.192 3.08,2.179 3.233,2.034 3.24,1.941 3.314,1.042 1.651,2.062 1.589,0.001 l 0.002,-5.43 c 0,-0.352 0,-0.453 0.302,-0.452 l 7.36,0.003 c 0.201,0 0.161,0.628 0.161,0.729 L 9.412,0.004 C 9.319,1.891 7.949,1.161 7.903,1.801 7.891,1.951 8.06,2.187 8.361,2.194 9.057,2.211 9.809,2.182 10.19,2.182 c 0.744,0 1.192,0.014 1.594,0.014 0.523,0 0.703,-0.016 0.738,-0.373 C 12.585,1.192 10.952,1.891 11,0.005 l 0.006,-13.324 c -0.117,-2.097 1.253,-1.135 1.218,-1.602 -0.005,-0.075 0.532,-0.709 0.391,-0.709 -0.543,0 -1.136,-0.017 -1.861,-0.017 -1.287,-10e-4 -1.821,-0.014 -2.203,-0.014 -0.18,0 -0.57,-0.001 -0.628,0.355 -0.114,0.694 1.519,-0.005 1.494,1.836 l -0.003,6.033 c 0,0.402 0.081,0.628 -0.16,0.628 L 1.833,-6.811 c -0.241,0 -0.241,-0.151 -0.241,-0.428 l 0.002,-6.259 c -0.082,-1.874 2.25,-0.999 2.057,-1.876 -0.027,-0.123 -0.199,-0.289 -0.38,-0.289 -0.261,-10e-4 -1.583,0.012 -2.649,0.011 -1.463,0 -1.723,-0.043 -1.875,-0.013 -0.033,0.006 -0.625,0.006 -0.63,0.318 -0.016,0.936 1.821,-0.23 1.889,2.477 L 0,0 Z"
             style="fill:#10427a;fill-opacity:1;fill-rule:nonzero;stroke:none"
             id="path4429"
             inkscape:connector-curvature="0" /></g><g
           id="g4431"
           transform="translate(522.1093,644.2234)"><path
             d="M 0,0 C 0.001,-1.483 -0.16,-2.086 1.53,-2.086 6.175,-2.084 6.858,0.505 7.119,0.506 7.26,0.506 7.28,0.254 7.28,0.204 7.28,-0.701 6.758,-1.581 6.275,-2.235 5.632,-3.14 5.073,-3.102 4.189,-3.119 c -1.533,-0.03 -2.815,0.036 -4.381,0.011 -0.854,-0.014 -1.737,0.015 -2.541,0.015 -0.181,0 -0.419,0.458 -0.419,0.66 0.04,0.301 0.288,0.079 1.002,0.245 0.587,0.137 0.562,1.006 0.562,2.188 l -0.005,12.744 c 0.016,1.451 -1.601,1.046 -1.69,1.575 -0.043,0.255 0.228,0.404 0.489,0.414 0.43,0.016 1.017,-0.011 2.002,-0.012 1.168,0 1.022,0.029 1.755,0.014 0.262,-0.006 0.636,0.008 0.645,-0.294 C 1.63,13.76 -0.119,14.4 -0.005,12.217 L 0,0 Z"
             style="fill:#10427a;fill-opacity:1;fill-rule:nonzero;stroke:none"
             id="path4433"
             inkscape:connector-curvature="0" /></g><g
           id="g4435"
           transform="translate(509.7081,649.6286)"><path
             d="m 0,0 c -0.14,-0.352 0,-0.452 0.262,-0.452 l 3.826,0.001 c 0.443,0 0.422,0.177 0.322,0.503 L 2.281,6.11 C 2.181,6.412 2.08,6.412 1.96,6.11 L 0,0 Z M 1.251,6.11 C 2.436,9.277 2.435,9.493 2.583,9.709 2.738,9.935 2.924,9.312 3.122,8.75 L 7.445,-3.729 c 0.303,-0.93 0.822,-2.43 1.239,-3.331 0.474,-1.02 2.049,-0.232 1.938,-1.095 -0.032,-0.255 -0.14,-0.372 -0.282,-0.372 -0.824,0 -1.531,0.012 -2.357,0.012 -0.543,0 -1.147,-0.043 -1.657,-0.014 -0.121,0.007 -0.568,0.088 -0.56,0.368 0.019,0.573 1.536,0.361 1.243,1.201 -0.182,0.522 -0.665,1.65 -0.867,2.329 l -0.711,2.12 C 5.229,-1.933 5.108,-1.556 4.545,-1.557 L 0.121,-1.558 c -0.381,0 -0.589,0 -0.789,-0.528 L -1.77,-5.752 c -0.06,-0.176 -0.033,-0.131 -0.187,-0.618 -0.517,-1.627 1.417,-1.17 1.438,-1.755 0.014,-0.408 -0.427,-0.407 -0.718,-0.407 -0.527,0 -0.805,0.013 -1.368,0.013 -0.55,0 -0.751,-0.014 -1.317,0.015 -0.121,0.007 -0.072,0.505 -0.065,0.656 0.026,0.551 0.58,-0.207 0.902,1.135 L 1.251,6.11 Z"
             style="fill:#10427a;fill-opacity:1;fill-rule:nonzero;stroke:none"
             id="path4437"
             inkscape:connector-curvature="0" /></g><g
           id="g4439"
           transform="translate(531.8857,644.2271)"><path
             d="M 0,0 C 0,-1.483 -0.16,-2.086 1.529,-2.085 6.174,-2.084 6.857,0.506 7.118,0.506 7.26,0.506 7.28,0.255 7.28,0.204 7.28,-0.701 6.757,-1.581 6.275,-2.234 5.632,-3.139 5.102,-3.119 4.217,-3.119 2.689,-3.12 1.685,-3.121 0.127,-3.108 c -0.804,0.007 -1.969,-0.014 -2.774,-0.014 -0.18,0 -0.389,0.079 -0.389,0.28 0.04,0.302 0.242,0.252 0.885,0.655 0.523,0.301 0.562,1.005 0.562,2.187 l -0.005,12.744 c 0.008,1.422 -1.683,1.043 -1.69,1.633 -0.004,0.277 0.228,0.356 0.49,0.357 0.422,0 1.016,-0.013 2.002,-0.012 1.146,0 1.617,0.013 1.919,0.013 0.261,0 0.534,-0.08 0.556,-0.381 0.055,-0.711 -1.667,0.163 -1.688,-2.137 L 0,0 Z"
             style="fill:#10427a;fill-opacity:1;fill-rule:nonzero;stroke:none"
             id="path4441"
             inkscape:connector-curvature="0" /></g><g
           id="g4443"
           transform="translate(476.4791,650.1448)"><path
             d="m 0,0 c 2.162,-0.055 3.592,-2.524 4.513,-3.889 1.081,-1.601 1.081,-1.601 2.143,-2.937 0.947,-1.19 2.728,-1.72 3.579,-1.726 0.047,0 0.913,0.041 0.984,0.057 2.259,0.523 3.733,2.192 3.214,4.594 -0.735,3.401 -7.995,2.23 -7.993,8.578 10e-4,3.193 2.326,4.494 4.638,4.495 2.433,0 3.107,-1.03 3.379,-0.904 0.165,0.076 0.221,0.277 0.422,0.277 0.121,0 0.224,-0.019 0.241,-0.352 l 0.303,-3.419 c 0.02,-0.201 -0.02,-0.377 -0.22,-0.377 -0.222,0 -0.363,0.528 -0.423,0.754 C 14.175,7.312 12.735,8.249 10.967,8.33 9.67,8.389 7.892,7.776 7.894,5.148 c 0.003,-4.432 7.422,-3.591 8.401,-8.05 0.523,-2.38 -0.671,-6.024 -5.224,-6.493 L 10.056,-9.429 C 8.594,-9.472 6.44,-9.047 5.038,-7.62 c -0.995,1.012 -2.302,2.974 -3.182,4.189 -0.665,0.918 -1.643,2.826 -2.973,2.825 -0.587,0 -0.822,-0.4 -0.822,-0.645 l 0.002,-5.304 c -0.096,-2.33 2.266,-1.236 2.093,-2.237 -0.031,-0.18 -0.41,-0.268 -0.43,-0.259 0.012,-0.005 -0.324,0.013 -1.817,0.012 l -2.06,-0.002 -0.178,0.002 c -0.543,0 -1.057,-0.021 -1.6,-0.014 -0.138,0.002 -0.691,-0.115 -0.734,0.251 -0.106,0.912 1.365,0.148 1.323,1.308 -0.02,0.552 -0.578,1.709 -0.78,2.388 l -0.799,2.061 c -0.202,0.577 -0.323,0.955 -0.886,0.955 l -4.867,-0.003 c -0.382,0 -0.589,0 -0.789,-0.528 l -0.956,-3.519 c -0.06,-0.176 -0.176,-0.66 -0.228,-0.909 -0.332,-1.608 1.766,-0.82 1.738,-1.63 -0.016,-0.451 -0.297,-0.391 -0.559,-0.388 -1.075,0.013 -1.347,0.013 -2.024,0.016 l -0.792,1.05 c 0.147,0.334 0.215,0.142 0.394,0.696 l 4.587,12.88 c 1.185,3.168 1.361,3.599 1.361,3.599 0.233,0.334 0.321,-0.395 0.451,-0.609 l 4.604,-12.829 c 0.303,-0.929 0.951,-2.45 1.414,-3.33 0.264,-0.505 0.519,-0.859 0.887,-0.952 l -0.93,0.037 c 0.384,0.285 -0.011,0.468 -0.011,1.978 L -3.53,6.265 c -0.113,2.283 -2.055,1.294 -2.022,2.149 0.014,0.367 0.451,0.385 0.577,0.389 0.622,0.018 0.714,-0.029 1.184,-0.01 l 0.845,0 C -1.369,8.782 -0.203,8.802 0.444,8.795 1.663,8.783 5.424,9.076 5.735,4.419 5.918,1.674 3.821,0.387 2.907,-0.018 1.392,-0.736 0.626,-0.604 0.084,-0.604 m -12.877,0.07 c -0.141,-0.352 0,-0.453 0.262,-0.452 l 4.269,0.001 c 0.443,0.001 0.423,0.176 0.322,0.503 l -2.35,6.058 c -0.101,0.301 -0.201,0.301 -0.322,-10e-4 l -2.181,-6.109 z M -1.942,7.063 -1.95,1.01 c 0,-0.252 0.226,-0.723 0.87,-0.723 C -0.739,0.128 0.178,0.182 0.567,0.198 0.872,0.21 0.763,0.183 0.959,0.222 1.976,0.427 3.872,0.719 4.023,3.851 4.172,6.914 1.912,7.948 -0.311,7.947 c -0.817,0 -1.681,0.117 -1.663,-0.99 l 0.062,-0.331"
             style="fill:#10427a;fill-opacity:1;fill-rule:nonzero;stroke:none"
             id="path4445"
             inkscape:connector-curvature="0" /></g><g
           id="g4447"
           transform="translate(443.3211,633.422)"><path
             d="m 0,0 c -4.881,4.188 -9.206,8.504 -10.021,9.326 -0.031,0.031 -0.156,0.093 -0.204,0.101 l -0.297,0.091 c 0,0 -0.212,0.016 -0.332,0.011 -2.105,-0.086 -3.599,-2.601 -3.776,-4.261 -0.565,-5.278 4.418,-8.14 8.722,-7.93 C -1.932,-2.468 0,0 0,0 m -2.74,14.785 c 0,-0.167 -0.117,-0.293 -0.333,-0.267 -0.299,0.035 -0.401,0.4 -0.501,0.601 -0.803,1.736 -2.466,3.777 -4.5,3.653 -1.543,-0.093 -2.674,-1.29 -2.952,-2.869 -0.194,-1.103 0.069,-2.24 1.628,-4.033 2.24,-2.577 5.889,-6.104 10.587,-10.248 0,0 1.177,1.703 1.314,3.402 C 2.6,6.207 2.357,6.785 1.938,7.174 1.828,7.275 1.661,7.356 1.524,7.396 1.115,7.517 1.163,7.519 0.946,7.571 0.783,7.61 0.197,7.695 0.092,7.677 0.085,7.676 -0.51,7.905 -0.298,7.808 -0.455,7.88 -0.605,8.011 -0.638,8.368 -0.654,8.556 -0.489,8.77 -0.19,8.756 1.173,8.694 2.658,8.716 3.159,8.716 4.287,8.716 3.622,8.712 5.029,8.7 5.33,8.696 5.659,8.604 5.642,8.27 5.601,7.415 4.347,8.284 4.206,6.928 4.005,4.988 3.654,2.977 2.239,0.642 c 0,0 2.234,-2.309 5.6,-3.335 0.675,-0.206 0.467,-0.149 0.922,-0.251 1.523,-0.339 1.886,-0.231 1.886,-0.231 -0.78,-0.752 -2.618,-0.926 -4.053,-0.652 -3.433,0.655 -5.409,2.855 -5.409,2.855 -2.666,-2.953 -5.844,-3.657 -8.298,-3.662 -4.91,-0.009 -9.168,3.124 -9.339,8.332 -0.124,3.801 2.523,6.699 5.493,6.694 -0.028,0 -2.68,2.075 -1.734,5.852 0.555,2.217 2.521,3.426 5.275,3.249 2.134,-0.136 3.261,-0.976 3.54,-0.97 0.281,0.006 0.336,0.37 0.637,0.37 0.467,0 0.4,-0.634 0.4,-0.934 l 0.101,-3.174 z"
             style="fill:#10427a;fill-opacity:1;fill-rule:nonzero;stroke:none"
             id="path4449"
             inkscape:connector-curvature="0" /></g><g
           id="g4451"
           transform="translate(466.4877,629.838)"><path
             d="m 0,0 c -1.281,1.15 -1.599,2.656 -1.599,3.912 0,0.886 0.304,2.431 1.481,3.608 0.792,0.792 1.995,1.414 4.031,1.414 0.529,0 1.268,-0.039 1.916,-0.159 C 6.332,8.683 6.755,8.603 7.178,8.578 7.323,8.563 7.349,8.51 7.349,8.432 7.349,8.327 7.31,8.168 7.283,7.692 7.257,7.255 7.257,6.528 7.244,6.33 7.231,6.132 7.203,6.052 7.125,6.052 7.033,6.052 7.019,6.145 7.019,6.33 7.019,6.847 6.807,7.388 6.464,7.678 6.002,8.076 4.984,8.432 3.82,8.432 2.063,8.432 1.243,7.916 0.781,7.466 c -0.965,-0.924 -1.19,-2.1 -1.19,-3.449 0,-2.523 1.943,-4.836 4.771,-4.836 0.991,0 1.771,0.117 2.3,0.66 C 6.94,0.131 7.111,0.714 7.15,0.952 7.178,1.096 7.203,1.15 7.283,1.15 7.349,1.15 7.376,1.057 7.376,0.952 7.376,0.859 7.218,-0.291 7.085,-0.741 7.005,-0.992 6.98,-1.018 6.741,-1.124 6.213,-1.336 5.208,-1.429 4.362,-1.429 2.38,-1.429 1.045,-0.939 0,0"
             style="fill:#10427a;fill-opacity:1;fill-rule:nonzero;stroke:none"
             id="path4453"
             inkscape:connector-curvature="0" /></g><g
           id="g4455"
           transform="translate(482.9368,628.9119)"><path
             d="m 0,0 c 1.043,0 3.145,0.556 3.145,3.807 0,2.696 -1.639,4.11 -3.476,4.11 -1.942,0 -3.344,-1.216 -3.344,-3.662 C -3.675,1.64 -2.101,0 0,0 m -0.264,8.341 c 2.616,0 4.598,-1.599 4.598,-4.217 0,-2.511 -1.863,-4.586 -4.665,-4.586 -3.186,0 -4.546,2.392 -4.546,4.414 0,1.81 1.4,4.389 4.613,4.389"
             style="fill:#10427a;fill-opacity:1;fill-rule:nonzero;stroke:none"
             id="path4457"
             inkscape:connector-curvature="0" /></g><g
           id="g4459"
           transform="translate(493.7688,631.8332)"><path
             d="m 0,0 c 0,-1.652 0.027,-2.327 0.238,-2.525 0.185,-0.185 0.635,-0.264 1.546,-0.264 0.608,0 1.124,0.013 1.401,0.344 0.146,0.172 0.238,0.41 0.278,0.635 0.013,0.078 0.053,0.144 0.118,0.144 0.054,0 0.081,-0.052 0.081,-0.171 0,-0.12 -0.081,-0.794 -0.172,-1.124 -0.079,-0.265 -0.119,-0.303 -0.74,-0.303 -0.833,0 -1.481,0.013 -2.022,0.038 -0.53,0.015 -0.926,0.028 -1.269,0.028 -0.053,0 -0.252,0 -0.477,-0.013 -0.238,-0.015 -0.489,-0.027 -0.674,-0.027 -0.118,0 -0.185,0.027 -0.185,0.092 0,0.04 0.027,0.093 0.093,0.093 0.106,0 0.25,0.026 0.358,0.053 0.223,0.053 0.25,0.264 0.303,0.594 0.066,0.462 0.066,1.349 0.066,2.432 l 0,1.983 c 0,1.744 0,2.061 -0.026,2.418 -0.028,0.384 -0.093,0.568 -0.476,0.622 -0.093,0.013 -0.291,0.026 -0.397,0.026 -0.039,0 -0.093,0.053 -0.093,0.093 0,0.066 0.054,0.092 0.185,0.092 0.53,0 1.256,-0.026 1.323,-0.026 0.052,0 0.924,0.026 1.282,0.026 0.118,0 0.185,-0.026 0.185,-0.092 0,-0.04 -0.053,-0.08 -0.093,-0.08 C 0.753,5.088 0.581,5.075 0.45,5.062 0.106,4.995 0.04,4.823 0.013,4.427 0,4.07 0,3.753 0,2.009 L 0,0 Z"
             style="fill:#10427a;fill-opacity:1;fill-rule:nonzero;stroke:none"
             id="path4461"
             inkscape:connector-curvature="0" /></g><g
           id="g4463"
           transform="translate(503.4879,631.8332)"><path
             d="m 0,0 c 0,-1.652 0.027,-2.327 0.238,-2.525 0.185,-0.185 0.635,-0.264 1.546,-0.264 0.608,0 1.124,0.013 1.401,0.344 0.146,0.172 0.238,0.41 0.278,0.635 0.013,0.078 0.053,0.144 0.118,0.144 0.053,0 0.08,-0.052 0.08,-0.171 0,-0.12 -0.08,-0.794 -0.172,-1.124 C 3.41,-3.226 3.371,-3.264 2.75,-3.264 c -0.833,0 -1.481,0.013 -2.022,0.038 -0.53,0.015 -0.926,0.028 -1.27,0.028 -0.053,0 -0.251,0 -0.476,-0.013 -0.238,-0.015 -0.489,-0.027 -0.674,-0.027 -0.118,0 -0.185,0.027 -0.185,0.092 0,0.04 0.027,0.093 0.093,0.093 0.105,0 0.251,0.026 0.357,0.053 0.225,0.053 0.251,0.264 0.303,0.594 0.067,0.462 0.067,1.349 0.067,2.432 l 0,1.983 c 0,1.744 0,2.061 -0.027,2.418 -0.028,0.384 -0.092,0.568 -0.476,0.622 -0.093,0.013 -0.29,0.026 -0.397,0.026 -0.038,0 -0.091,0.053 -0.091,0.093 0,0.066 0.053,0.092 0.184,0.092 0.53,0 1.256,-0.026 1.322,-0.026 0.053,0 0.924,0.026 1.282,0.026 0.118,0 0.186,-0.026 0.186,-0.092 0,-0.04 -0.053,-0.08 -0.093,-0.08 C 0.753,5.088 0.581,5.075 0.45,5.062 0.105,4.995 0.04,4.823 0.013,4.427 0,4.07 0,3.753 0,2.009 L 0,0 Z"
             style="fill:#10427a;fill-opacity:1;fill-rule:nonzero;stroke:none"
             id="path4465"
             inkscape:connector-curvature="0" /></g><g
           id="g4467"
           transform="translate(512.1509,633.8425)"><path
             d="M 0,0 C 0,1.744 0,2.061 -0.027,2.418 -0.054,2.801 -0.119,2.986 -0.502,3.04 -0.596,3.053 -0.793,3.066 -0.9,3.066 c -0.038,0 -0.091,0.053 -0.091,0.093 0,0.066 0.053,0.092 0.184,0.092 0.53,0 1.283,-0.026 1.349,-0.026 0.079,0 2.511,-0.014 2.775,0 0.224,0.013 0.435,0.051 0.528,0.066 0.054,0.012 0.107,0.053 0.159,0.053 0.04,0 0.053,-0.053 0.053,-0.106 C 4.057,3.159 3.991,3.026 3.964,2.709 3.952,2.603 3.925,2.101 3.899,1.968 3.885,1.916 3.845,1.849 3.792,1.849 3.727,1.849 3.699,1.903 3.699,1.996 3.699,2.074 3.687,2.26 3.634,2.392 3.555,2.577 3.436,2.657 2.801,2.735 2.603,2.762 1.255,2.775 1.122,2.775 1.07,2.775 1.057,2.735 1.057,2.657 l 0,-3.054 c 0,-0.08 0,-0.119 0.065,-0.119 0.147,0 1.679,0 1.944,0.026 0.277,0.027 0.448,0.04 0.568,0.159 0.079,0.08 0.133,0.146 0.173,0.146 0.038,0 0.065,-0.027 0.065,-0.093 0,-0.066 -0.065,-0.25 -0.092,-0.621 -0.028,-0.225 -0.053,-0.648 -0.053,-0.727 0,-0.093 -0.028,-0.211 -0.105,-0.211 -0.053,0 -0.081,0.039 -0.081,0.105 0,0.106 0,0.225 -0.052,0.37 -0.04,0.159 -0.146,0.291 -0.595,0.344 -0.318,0.04 -1.559,0.052 -1.758,0.052 -0.066,0 -0.079,-0.038 -0.079,-0.079 l 0,-0.938 c 0,-0.384 -0.013,-1.692 0,-1.917 0.027,-0.753 0.237,-0.898 1.388,-0.898 0.303,0 0.858,0 1.162,0.118 0.305,0.133 0.463,0.331 0.53,0.78 0.026,0.132 0.052,0.173 0.118,0.173 0.067,0 0.079,-0.092 0.079,-0.173 0,-0.079 -0.092,-0.845 -0.158,-1.083 -0.079,-0.291 -0.199,-0.291 -0.647,-0.291 -0.873,0 -1.547,0.026 -2.022,0.039 -0.49,0.027 -0.793,0.027 -0.965,0.027 -0.026,0 -0.251,0 -0.503,-0.013 -0.224,-0.014 -0.489,-0.027 -0.674,-0.027 -0.118,0 -0.185,0.027 -0.185,0.093 0,0.04 0.027,0.093 0.092,0.093 0.105,0 0.251,0.04 0.358,0.053 0.224,0.039 0.251,0.264 0.303,0.594 C 0,-3.953 0,-3.066 0,-1.983 L 0,0 Z"
             style="fill:#10427a;fill-opacity:1;fill-rule:nonzero;stroke:none"
             id="path4469"
             inkscape:connector-curvature="0" /></g><g
           id="g4471"
           transform="translate(527.5529,631.4623)"><path
             d="m 0,0 c 0,0.913 -0.027,1.044 -0.502,1.137 -0.093,0.013 -0.29,0.027 -0.397,0.027 -0.039,0 -0.092,0.052 -0.092,0.092 0,0.079 0.053,0.093 0.185,0.093 0.529,0 1.308,-0.027 1.375,-0.027 0.052,0 0.78,0.027 1.135,0.027 0.132,0 0.186,-0.014 0.186,-0.093 0,-0.04 -0.054,-0.092 -0.092,-0.092 -0.079,0 -0.159,0 -0.291,-0.027 C 1.189,1.085 1.097,0.913 1.071,0.516 1.058,0.16 1.058,-0.171 1.058,-0.647 l 0,-1.255 c 0,-0.516 -0.014,-0.529 -0.16,-0.608 -0.74,-0.383 -1.797,-0.503 -2.47,-0.503 -0.886,0 -2.538,0.106 -3.833,1.203 -0.714,0.594 -1.388,1.797 -1.388,3.199 0,1.797 0.912,3.066 1.943,3.686 1.044,0.636 2.207,0.715 3.092,0.715 0.74,0 1.56,-0.134 1.785,-0.185 C 0.265,5.552 0.674,5.486 0.966,5.486 1.084,5.486 1.111,5.433 1.111,5.379 1.111,5.223 1.044,4.917 1.044,3.794 1.044,3.609 0.991,3.556 0.912,3.556 0.845,3.556 0.833,3.622 0.833,3.728 0.819,3.872 0.753,4.204 0.569,4.467 0.278,4.891 -0.608,5.34 -2.115,5.34 c -0.7,0 -1.546,-0.053 -2.432,-0.727 -0.673,-0.514 -1.149,-1.52 -1.149,-2.828 0,-1.587 0.819,-2.722 1.229,-3.106 0.925,-0.859 1.902,-1.177 2.974,-1.177 0.409,0 0.952,0.041 1.255,0.213 C -0.093,-2.207 0,-2.154 0,-1.941 L 0,0 Z"
             style="fill:#10427a;fill-opacity:1;fill-rule:nonzero;stroke:none"
             id="path4473"
             inkscape:connector-curvature="0" /></g><g
           id="g4475"
           transform="translate(534.7634,633.8425)"><path
             d="m 0,0 c 0,1.744 0,2.061 -0.028,2.418 -0.026,0.383 -0.092,0.568 -0.474,0.622 -0.093,0.013 -0.291,0.026 -0.399,0.026 -0.038,0 -0.09,0.053 -0.09,0.093 0,0.066 0.052,0.092 0.184,0.092 0.529,0 1.283,-0.026 1.348,-0.026 0.08,0 2.511,-0.014 2.775,0 0.225,0.013 0.437,0.051 0.529,0.066 0.054,0.012 0.107,0.053 0.159,0.053 0.04,0 0.052,-0.053 0.052,-0.106 C 4.056,3.159 3.991,3.026 3.964,2.709 3.952,2.603 3.925,2.101 3.899,1.968 3.885,1.916 3.845,1.849 3.792,1.849 3.727,1.849 3.699,1.903 3.699,1.996 3.699,2.074 3.686,2.26 3.634,2.392 3.554,2.577 3.436,2.657 2.801,2.735 2.603,2.762 1.254,2.775 1.122,2.775 1.069,2.775 1.057,2.735 1.057,2.657 l 0,-3.054 c 0,-0.08 0,-0.119 0.065,-0.119 0.147,0 1.679,0 1.944,0.026 0.278,0.027 0.448,0.04 0.568,0.159 0.079,0.08 0.133,0.146 0.172,0.146 0.039,0 0.066,-0.027 0.066,-0.093 0,-0.066 -0.066,-0.25 -0.092,-0.621 -0.027,-0.225 -0.053,-0.648 -0.053,-0.727 0,-0.093 -0.028,-0.211 -0.106,-0.211 -0.053,0 -0.08,0.039 -0.08,0.105 0,0.106 0,0.225 -0.052,0.37 -0.04,0.159 -0.145,0.291 -0.595,0.344 -0.318,0.04 -1.56,0.052 -1.758,0.052 -0.067,0 -0.079,-0.038 -0.079,-0.079 l 0,-0.938 c 0,-0.384 -0.014,-1.692 0,-1.917 0.026,-0.753 0.237,-0.898 1.388,-0.898 0.304,0 0.858,0 1.162,0.118 0.305,0.133 0.463,0.331 0.53,0.78 0.025,0.132 0.052,0.173 0.118,0.173 0.067,0 0.08,-0.092 0.08,-0.173 0,-0.079 -0.093,-0.845 -0.16,-1.083 -0.078,-0.291 -0.198,-0.291 -0.647,-0.291 -0.872,0 -1.546,0.026 -2.022,0.039 -0.489,0.027 -0.793,0.027 -0.965,0.027 -0.026,0 -0.251,0 -0.502,-0.013 -0.224,-0.014 -0.489,-0.027 -0.674,-0.027 -0.118,0 -0.185,0.027 -0.185,0.093 0,0.04 0.027,0.093 0.092,0.093 0.105,0 0.251,0.04 0.358,0.053 0.225,0.039 0.25,0.264 0.303,0.594 C 0,-3.953 0,-3.066 0,-1.983 L 0,0 Z"
             style="fill:#10427a;fill-opacity:1;fill-rule:nonzero;stroke:none"
             id="path4477"
             inkscape:connector-curvature="0" /></g></g></g></g></svg>