<?xml version="1.0" encoding="UTF-8"?>
<svg id="Layer_1" xmlns="http://www.w3.org/2000/svg" version="1.1" xmlns:cc="http://creativecommons.org/ns#" xmlns:dc="http://purl.org/dc/elements/1.1/" xmlns:rdf="http://www.w3.org/1999/02/22-rdf-syntax-ns#" viewBox="0 0 372.6 72">
  <!-- Generator: Adobe Illustrator 30.6.0, SVG Export Plug-In . SVG Version: 2.1.4 Build 109)  -->
  <path d="M243.7,0l-.5,5.3h.6c.5-2.9,1.1-3.7,2.4-3.7h5.7v16.3c0,1.8-.6,2.4-2.6,2.4h-1.2v.6h10.4v-.6h-1.2c-2,0-2.6-.6-2.6-2.4V1.7h5.7c1.3,0,1.9.8,2.4,3.7h.6L262.8,0h-.6c0,.4-.6.5-1,.5h-15.8c-.2,0-.5,0-.7,0-.2,0-.3-.2-.4-.4h-.6,0ZM201,0c-3.4,0-5.8,2-5.8,4.8,0,5.7,10.5,7.2,10.5,11.9s-2.3,3.9-4.5,3.9-4.8-1.7-5.5-4.6h-.6l.7,5h.6c.1-.3.4-.4.7-.4.5,0,2.8.9,4.5.9,3.8,0,6.7-2.4,6.7-5.6,0-6-10.5-7.3-10.5-11.9s1.5-3.1,3.7-3.1,4.4,1.5,5.3,3.9h.6l-.6-4.2h-.5c-.2.3-.3.3-.6.3-1.1,0-1.7-.8-4.5-.8ZM333.6,0c-7,0-12,4.6-12,11.2s5.4,10.3,11.9,10.3,11.7-4.6,11.7-11.3S339.9,0,333.6,0h0ZM169.5.2c-2.1,0-2.8,0-4.2,0-1.3,0-3.4.2-4.1.2v.6h.7c1.9,0,2.5.6,2.5,2.6v13.9c0,2.2-.7,2.7-2.6,2.7h-.6v.6h9.3v-.6h-.8c-1.8,0-2.6-.5-2.6-2.5v-5.6c.5,0,1,0,1.7,0s1.4,0,2.2,0c.8.5,1.9,1.5,3.4,2.9l2.2,2.2c2.9,2.9,4.4,4.2,10.2,3.9v-.6c-2.5-.2-4.5-1.4-6.5-3.3l-2.6-2.6c-1.6-1.5-2.5-2.5-3.8-3.4,2.7-.8,4.4-2.9,4.4-5.3s-2.7-5.8-8.8-5.8h0ZM3.3.5v.6c2.2,0,2.8.4,2.8,2.5v9.6c0,4.7,3.2,8.3,9.5,8.3s9.7-4.4,9.7-8.4V4.1c0-2.1.8-3,3-3V.5h-7.7v.6c2.7.1,3.2.7,3.2,3.8v7.7c0,5.6-3.8,7.1-7.5,7.1s-7.5-2.7-7.5-7.1V3.5c0-1.9.8-2.4,2.6-2.4h.3V.5s-8.5,0-8.5,0ZM39.2.5v.6c1.2,0,2,.3,2.8.8v16.2c0,1.5-.7,2.2-2.7,2.2h-.1v.6h7.6v-.6c-2.8,0-3.3-.5-3.3-2.9V3.3l17,17.9h.8V2.8c0-1.3.5-1.7,3-1.7V.5h-7.7v.6c2.6,0,3.2.4,3.2,2.4v13.1L44.4.5h-5.1s0,0,0,0ZM77.5.5v.6c1.8,0,2.5.6,2.5,2.4v14c0,2.2-.4,2.7-2.5,2.8v.6h8v-.6c-2.3,0-2.8-.7-2.8-2.6V3.8c0-2.2.7-2.7,2.8-2.7V.5s-8,0-8,0ZM97.2.5v.6c2,0,2.4.5,3.2,2.6l7.1,17.8h1.6l6.8-17.5c.8-2,1.7-2.8,3.4-2.8V.5h-7.6v.6c2.2,0,3.1.4,3.1,1.4s-.2,1.1-.6,2l-5.2,13.6-5.9-14.7c-.6-1.5,0-2.2,3.1-2.3V.5h-9,0ZM130.6.5v.6h.7c2.2,0,2.6.8,2.6,2.6v13.9c0,2-.5,2.7-3.1,2.7h-.9v.6h17.5l.5-4.9h-.6c-.8,2.8-1.5,3.7-3.8,3.7h-5.1c-1.2,0-1.8-.3-1.8-1.8v-7h5.6c1.4,0,2,.3,2.2,2.6h.6v-6.2h-.6c-.2,1.9-.7,2.5-1.9,2.5h-5.9V1.7h7c1.2,0,2,.6,2.4,3.4h.6l-.3-4.6h-15.8,0ZM223.2.5v.6c1.8,0,2.5.6,2.5,2.4v14c0,2.2-.4,2.7-2.5,2.8v.6h8v-.6c-2.3,0-2.8-.7-2.8-2.6V3.8c0-2.2.7-2.7,2.8-2.7V.5s-8,0-8,0ZM273.6.5v.6c2.1,0,2.9.5,4.5,3.1l5.8,9.2v4.6c0,1.6-.6,2.4-2.6,2.4h-.6v.6h9v-.6h-.4c-2,0-2.6-.7-2.6-2.4v-4.9l5.5-9.3c.9-1.5,1.9-2.4,4.1-2.6V.5h-7.4v.6c2.1,0,2.7.6,1.7,2.4l-4.7,7.9-5.2-8.1c-1-1.5-.8-2.1,1.7-2.1V.5h-8.7ZM353.2.5v.6c2.3,0,2.5,1,2.5,3.1v12.9c0,2.7-.4,3.1-2.4,3.2v.6h8v-.6c-2.5,0-2.9-.7-2.9-2.5v-7.2h6.1c1.6,0,2.3.6,2.3,2.5h.6v-5.8h-.6c0,1.4-.7,2.1-1.9,2.1h-6.5V1.7h6.2c2,0,2.7.8,2.7,2.7h.5V.5h-14.7ZM332.8.8c5.4,0,9.3,4.3,9.3,10.4s-2.6,9.4-7.9,9.4-9.5-4.3-9.5-10.5,2.3-9.3,8.1-9.3h0ZM168.8.8c5.1,0,6.4,2.4,6.4,5.4s-2.4,5.5-6,5.5-1.2,0-2,0V.9c.6,0,1,0,1.6,0ZM79.3,27.8l.6,1.5-12.4,33.8c-2.2,5.9-2.9,6.7-7.4,6.7h0v1.3h15.7v-1.3h-1.1c-3.7,0-5.5-.7-5.5-2.5s.9-3,1.4-4.3l4-10.7h14.1l4.6,12.4c.3.7.8,1.7.8,2.8,0,1.9-1.4,2.3-5.3,2.3h-1.8v1.3h38v-1.3h-1.6c-3.8,0-5.5-1-5.5-5.1v-11.4c1.1,0,2,.1,3.5.1s2.9,0,4.7-.1c1.6,1.1,4,3,7.1,6l4.5,4.5c6,6.1,9.1,8.6,21,8.1v-1.2c-5.3-.3-9.4-2.8-13.4-6.9l-5.4-5.4c-3.2-3.2-5.2-5.1-7.7-7.1,5.6-1.6,9-5.9,9-11s-5.6-12.2-18.3-12.2-5.8,0-8.6.2c-2.8.1-6.9.4-8.6.4v1.3h1.5c4,0,5.1,1.2,5.1,5.4v28.6c0,4.5-1.4,5.6-5.5,5.6h-1.2c-3.4,0-4.8-.7-6.2-4.3l-14.2-37.7s-5.9,0-5.9,0ZM246.6,27.8l.6,1.5-12.4,33.8c-2.2,5.9-2.9,6.7-7.4,6.7v1.3h15.8v-1.3h-1.1c-3.7,0-5.5-.7-5.5-2.5s.9-3,1.4-4.3l3.9-10.7h14.1l4.6,12.4c.3.7.8,1.7.8,2.8,0,1.9-1.4,2.3-5.3,2.3h-1.8v1.3h18.8v-1.3c-3.4,0-4.8-.7-6.2-4.3l-14.2-37.7s-5.9,0-5.9,0ZM346.7,28.2c-3.6,0-7.7,0-11.4.2-3.7.1-7,.3-9.5.4h0c0,0-.8,0-.8,0h0c0,0,.2,0,.2,0v1.2h.6s1.3,0,1.3,0c4,0,5.2,1.1,5.2,5.5v29.3c0,3.9-1.7,5-5.4,5h-1.2v1.3h21.8c17.3,0,25.2-12.3,25.2-22.6s-7.9-20.4-25.9-20.4ZM325.1,30h-.2v-1.2h-15.7v1.3c5.4.1,6.7.9,6.7,5v27.1l-32-33.5h-10.7v1.3c2.4,0,4.2.6,5.7,1.7v33.5c0,3.1-1.4,4.6-5.6,4.6h-.3v1.3h15.8v-1.3c-5.8,0-6.9-1-6.9-5.9v-29.2l35.2,36.9h1.8v-38c0-2.7,1.1-3.5,6.2-3.5h0q0-.1,0-.1ZM3.5,28.8v1.2c4.2.3,4.4,1.5,4.1,6l-1.6,26.5c-.3,6.2-1,7.3-5.9,7.3v1.3s14.2,0,14.2,0v-1.3c-3.1-.1-5.7-.9-5.5-4.4l1.9-30.7h.1l17.4,36.4h1.6l17-36.4h.1l2,30.6c.3,3.6-2.9,4.5-6.1,4.5v1.3h17.5v-1.3c-4.9,0-5.5,0-5.9-6.3l-2.2-30.9c-.1-2.3,1.2-2.4,4.5-2.7v-1.2h-10l-16.4,34.4L13.8,28.8s-10.3,0-10.3,0ZM147,28.8v1.3c4.4.1,6,1.1,9.3,6.3l12.2,18.9v9.6c0,3.3-1.2,4.9-5.5,4.9h-1.3v1.3h18.8v-1.3h-.9c-4.2,0-5.4-1.4-5.4-5v-10.2l11.3-19.1c1.9-3.2,3.9-5,8.5-5.4h.6c4.3,0,5.4,1.5,5.4,5.1v30.1c0,3.5-1.2,4.5-4.3,4.5h-2.3v1.3h30.4l5.3-10h-1.2c-4.3,6-5.5,7.5-9.5,7.5h-10c-2,0-2.7-.7-2.7-2.5v-31.4c0-4.2,1.2-4.7,5.6-4.7h2.5v-1.3h-35.1v1.3c4.4,0,5.6,1.2,3.5,4.9l-9.6,16.3-10.9-16.8c-2-3.1-1.7-4.4,3.6-4.4v-1.3s-18.1,0-18.1,0ZM121.3,29.5c10.6,0,13.4,4.9,13.4,11.2s-5,11.4-12.6,11.4-2.6,0-4.2-.1v-22.3c1.2-.1,2.1-.1,3.4-.1ZM343.3,29.5c9.6,0,14.4,2.4,17.5,5.5,4,4,5.5,9.6,5.5,14.6s-3.1,12.2-5.7,14.7c-4.2,4.2-8,5.5-17.2,5.5s-5.6-1-5.6-3.7V29.8c.8,0,2.7-.3,5.5-.3h0ZM81.6,33.6l6,15.8h-11.8l5.8-15.8ZM248.8,33.6l6,15.8h-11.8l5.8-15.8h0Z"/>
</svg>