<?xml version="1.0" encoding="UTF-8"?>
<svg id="Layer_1" xmlns="http://www.w3.org/2000/svg" version="1.1" viewBox="0 0 70.9 70.9">
  <!-- Generator: Adobe Illustrator 30.6.0, SVG Export Plug-In . SVG Version: 2.1.4 Build 109)  -->
  <defs>
    <style>
      .st0 {
        fill: #ffcb05;
      }

      .st1 {
        fill: #00274c;
      }
    </style>
  </defs>
  <path class="st1" d="M35.4,0C15.9,0,0,15.9,0,35.4s15.9,35.4,35.4,35.4,35.4-15.9,35.4-35.4S55,0,35.4,0ZM35.4.5c19.3,0,35,15.7,35,35s-15.6,35-35,35S.5,54.8.5,35.4,16.1.5,35.4.5ZM35.4,2.4c-18.2,0-33,14.8-33,33s14.8,33,33,33,33-14.8,33-33S53.7,2.4,35.4,2.4h0ZM35.4,10.4c13.8,0,25,11.2,25,25s-11.2,25-25,25-25-11.2-25-25,11.2-25,25-25h0ZM35.2,11.1s0,0-.1,0c-.5.2-.8,1.3-1,1.8-.1.3-.2.7-.3,1,0,.2,0,.3-.1.5-.4,0-.7.1-1.1.2l-.3-.4c-.2-.3-.4-.7-.6-1-.2-.3-.4-.6-.6-.8-.2-.2-.4-.6-.7-.6-.3,0-.4.3-.4.5,0,.4-.2.7-.2,1.1-.2.7-.1,1.3,0,2,0,.1,0,.2-.2.3-.3.1-.6.3-.9.5-.2-.1-.3-.3-.4-.5-.4-.5-.7-1.1-1.2-1.5-.3-.3-1-1.2-1.5-.8-.4.3-.1,1.1-.1,1.6,0,.7,0,1.4.3,2,.1.3.3.6.4.8.1.2,0,.2-.2.4,0,.1-.2.2-.3.3-.4.3-1.3-.6-1.6-.8-.5-.4-.9-.9-1.3-1.3-.3-.3-1.2-.8-1.6-.5-.3.2,0,.7,0,.9.3.7.3,1.4.6,2.1.1.3.3.6.4.8,0,.1.5.5.5.6h-1.3c-.3,0-.5-.1-.7-.2-1.1-.5-2-1.3-3.3-.7-.3.1-.4.2-.2.5.2.3.4.5.5.8.4.5.9,1,1.3,1.4h0c.5.6,1.2,1.5,1.6,2.6-.3,0-1-.2-1.1-.3-1.2-.4-2.4-1.1-3.7-1.2-.3,0-1.4-.2-1.3.3,0,.5.4.9.8,1.2.7.6,1.7.7,2.4,1.3.8.6,1.6,1.2,2.5,1.6.2,0,.7.2.8.5h0c0,.3-.5.4-1,.5-.7,0-1.5-.1-2.2-.3-1.3-.4-2.8-1.2-4.2-.9-.2,0-1.2.2-1.2.5,0,.3.4.5.6.6.6.4,1.3.7,1.9,1.1,1.2.7,2.5,1.4,3.9,1.7.4,0,2.1.1,2.1.7,0,.2-.4.3-.6.3-.2,0-.3,0-.5,0-1.9.2-3.8,0-5.7-.2-.9,0-2.3-.3-2.9.5-.4.5.6.7.9.9.4.1,1.6.2,1.6.7,0,.3,0,.6,0,1-1.8,0-1.5,1.2-1.5,1.8.6,12.2,10.6,21.9,22.9,21.9s22.5-9.8,23-22.2c0,0,0-.8-.9-.9-.2,0,0,0-.3,0-.3,0-.2-.2-.2-.4s0-.4.2-.7c.3-.1.6-.3.9-.4.4-.3,1.4-.8,1.5-1.3,0-.1,0-.2-.1-.2,0,0,0,0,0,0-.7,0-1.4-.1-2.1-.1-.3,0-.6,0-.9.1,0,0,0,0-.2-.1-.2,0-4.6.2-4.3.2-.4,0-.6.2-.9.2-.2,0-1-.2-1.2-.4v-.2c0-.1.4,0,.8-.2.6-.2,1.3-.5,1.9-.8,1.1-.5,2.2-.6,3.4-.9.6-.1,1.1-.3,1.6-.7.2-.2.4-.4.6-.5.2-.2.5-.3.6-.5,0-.3-.2-.3-.4-.3-.3,0-.6,0-1,0-.7,0-1.5,0-2.2,0-.7,0-1.3.3-2,.4-.7.1-1.4.1-2.2.2-.2,0-1,0-1.2-.2h0c.1-.3.8-.4,1-.4.7-.3,1.2-.7,1.7-1.2.4-.4.7-.9,1.2-1.1.6-.2,1.2-.5,1.7-.8.3-.2.5-.3.7-.5.2-.1.5-.3.5-.6.2-.7-2.5-.3-2.9-.3-1,.2-2.5.8-3.5.8.5-1,1.1-1.9,1.5-2.3.3-.4.8-.7,1-1,.3-.4.9-.6.9-1.1,0-1.1-1.5-.6-2.1-.4-.5.2-1,.5-1.5.7-.3,0-.5.1-.8.1h-1.1c.7-.8.5-2,.9-3,0-.2.2-.4.4-.6,0-.1.5-.3.5-.5,0-.3-1.2,0-1.3.1-1.1.5-1.9,1.4-2.8,2.2-.1,0-.2.2-.3.3,0,0,0,0-.1,0-.2-.2-.4-.5-.7-.7,0,0,0-.1.1-.3.3-.6.5-1.3.6-1.9.1-.6.2-1.2.4-1.8.3-.9-.6-.4-1,0-.5.4-1.1.8-1.5,1.3-.2.2-.5.5-.7.8,0,.1-.1.2-.2.2,0,0-.2,0-.2-.1-.1,0-.2-.2-.3-.2-.2-.2-.1-.6-.1-.9s0-.7,0-1c0-.7-.2-1.4-.6-2-.5-.9-2.2,1.9-2.5,2.4-.1.2,0,.3-.3.3-.2,0-.4,0-.5,0-.3,0-.7,0-.8-.4-.1-.3-.2-.5-.3-.8-.1-.4-.3-.7-.5-1.1-.2-.4-.5-1.2-1-1.2h0ZM35.3,11.7c.3,0,.5.5.6.8.3.6.6,1.3.7,1.9h0c-.1,0-.3,0-.4,0-.2,0-.4,0-.7,0s-.5,0-.7,0c-.1,0-.2,0-.3,0,0,0-.1,0-.2,0,0-.9.4-1.8.8-2.5.1-.2.2-.3.3-.3h0ZM40.6,12.5c.3,0,.3.4.4.5.2.9.4,1.8.3,2.7h0c-.3-.2-.7-.3-1-.5h-.1c-.3-.2-.7-.3-1-.4,0,0,0,0,0,0,.4-.8.9-1.7,1.7-2.4h0ZM30.6,12.6s0,0,0,0c.6.7,1.1,1.4,1.5,2.2-.3,0-.6.2-.9.3,0,0,0,0,0,0-.3,0-.5.2-.8.3,0,0,0,0,0,0-.4-.9,0-1.9.2-2.7,0,0,0,0,.1,0h0ZM26,13.7s0,0,.1,0c1,.5,1.7,1.7,2.2,2.6,0,0,0,0,0,0-.2.1-.5.3-.7.4,0,0-.1.1-.2.2-.2.1-.3.2-.5.4,0,0,0,0-.1,0-.4-.3-.6-1-.7-1.5,0-.8-.1-1.5-.2-2.2,0,0,0,0,.1,0h0ZM45.1,14.4s.1,0,.1,0c0,1-.3,2.1-.5,2.8,0,.2-.2.4-.3.5-.2-.2-.5-.4-.7-.6,0,0-.1-.1-.2-.2-.2-.1-.3-.3-.5-.4,0,0,0,0-.1,0,0-.1.1-.2.2-.3.6-.7,1.3-1.4,2.1-1.9h0ZM35.5,15c4.2,0,7.9,2,10.3,5.2h-.8c-2.2-2.8-5.7-4.5-9.5-4.5s-7.3,1.8-9.5,4.5h-.8c2.3-3.1,6-5.2,10.3-5.2h0ZM35.5,16.2c3.5,0,6.6,1.5,8.7,3.9h-17.4c2.1-2.4,5.2-3.9,8.7-3.9h0ZM21.9,16.3c0,0,.1,0,.2,0,1.2.4,1.6,1.7,2.7,2.2.2,0,.5.2.7.4-.4.4-.7.8-1,1.3h-.6c-1-.3-1.4-1.3-1.6-2.3-.1-.7-.2-1-.5-1.5,0,0,0,0,.1,0h0ZM48.8,16.7h0c-.4,1-.5,1.9-.7,2.8-.1.3-.1.5-.4.7h-1.2c-.2-.3-.5-.6-.7-.9,0,0,0,0,0-.1,1-.8,1.9-1.9,3-2.5h0ZM52.9,19.5c.1,0,.4,0,.4.2,0,.2-.1.3-.3.4l-1.2,1.1-.9-.8c.5-.4,1.3-.8,2-.9h0ZM18.4,19.5c.6,0,1.4.5,1.7.8l-.8.8c-.4-.4-1.3-1-1.3-1.4.1-.1.3-.2.5-.1h0ZM21.7,20.7h1.6v.7h-1.6v-.7ZM47.6,20.7h1.6v.7h-1.6v-.7ZM20.4,20.7h.3v.7h-.2c0,.2.2.4.3.5l-.6.4c-.3-.4-.5-.6-.5-.6l-.3-.3.9-.8ZM24.3,20.7h1.6v.7h-1.6v-.7ZM26.9,20.7h1.6v.7h-1.6v-.7ZM29.5,20.7h1.6v.7h-1.6v-.7ZM32.1,20.7h1.6v.7h-1.6v-.7ZM34.7,20.7h1.6v.7h-1.6v-.7ZM37.2,20.7h1.6v.7h-1.6v-.7ZM39.8,20.7h1.6v.7h-1.6v-.7ZM42.4,20.7h1.6v.7h-1.6v-.7ZM45,20.7h1.6v.7h-1.6v-.7ZM50,20.7h.4l1,.8-.3.3s-.2.2-.5.6l-.6-.4c.1-.2.2-.3.3-.4l-.2-.2h0v-.7ZM21.4,22.8c.3.5.5,1.1.6,1.6l-.7.2c-.1-.5-.3-1-.6-1.5l.7-.3ZM49.5,22.9l.6.4c-.3.5-.5,1-.6,1.5l-.7-.2c.2-.6.4-1.1.7-1.6h0ZM15.6,23.5c.1,0,.3,0,.4,0,.7,0,2.3.5,2.5.6.7.2,2.2.9,2.7,1.1,0,.4.1.7.1,1.1v.7c-.5,0-.7-.2-.8-.2-1.3-.6-2.2-1.7-3.5-2.1-.7-.2-1.3-.7-1.7-1.2,0,0,.2,0,.3,0h0ZM55.2,23.6c.2,0,.4,0,.6,0h0c-.9.9-2,1.3-3,1.8-.6.5-1.1,1.1-1.6,1.6-.3.2-1,.5-1.4.5v-1.3c0-.6.1-1.2.3-1.7.3,0,.8,0,1,0,.7-.1,1.4-.5,2.1-.6h0c.7-.2,1.4-.4,2.1-.4h0ZM22.3,25.4c0,.5.1,1.1.1,1.6h0c0,.1-.7.1-.7.1h0c0-.6,0-1.1-.1-1.6h.7ZM48.6,25.5h.7c0,.6-.1,1-.1,1.5v.3h-.7v-.3c0-.5,0-1,.1-1.5h0ZM26.8,26.3c.2,0,.3.3.4.5,0,.3.1.5,0,.8.2,0,.4,0,.5.3,0,.1,0,.3,0,.4,0,.1-.2.1-.3.2,0,.2.3.3.2.5h0c0,0-1.8,0-1.8,0-.2-.1,0-.4,0-.5.4,0,0-.6.4-.8.1,0,.2-.2.3-.2,0-.4,0-.9,0-1.3h0ZM35.3,26.7c.1,0,.2,0,.3.3.2.2-.2.5.1.6-.1,0,0,.3-.2.4h-.7c-.2-.2,0-.5,0-.7,0-.2.3-.6.6-.6h0ZM14.3,27.6c.4,0,.8,0,1.2.1,1.7.4,3.3,1.4,5.2,1.1h.6c0-.1,0,1.9,0,1.9-3,0-4.9-1.3-6.9-2.3-.3-.2-.7-.4-.9-.6,0-.2.3-.2.5-.2.1,0,.3,0,.4,0h0ZM21.6,28.1h.7v1.7h-.7v-1.7ZM48.5,28.2h.7v1.7s-.7,0-.7,0v-1.7ZM34.3,28.2c.5.1,1,0,1.5,0-.4.2-1.1.3-1.6,0h0ZM57,28.2c.2,0,.5,0,.7,0,0,.3-.3.5-.5.6-.9.7-2.1.8-3.2,1-.8.3-1.8.4-2.5.9-.5.1-.8.4-1.3.4h-.4s0-2.4,0-2.4c.3,0,.8,0,1.1,0,1.3,0,2.7-.2,4-.5.7,0,1.4-.1,2.1-.1h0ZM43.8,28.5c.4,0,.6.4,1,.3h.3c0,.4-.4.7-.6,1,.3.8.2,1.8,0,2.6-.1,0-.2-.1-.2-.2-.2-.4-.3-.9,0-1.3,0,0,0-.2,0-.2-.4,0-.6.4-1.1.4,0,0,0,0-.1,0h0c0,0-.1,0-.2,0,.2-.3.6-.5.8-.8.1-.2.4-.5.2-.7-.5,0-1.1,0-1.4-.3.2-.5.7-.8,1.2-.8,0,0,.1,0,.2,0h0ZM34.6,28.7c.3,0,.6,0,.9.1.1,0,.3,0,.3.1h0c0,.1-.1.1-.2.2-.3,0-.6,0-.9,0-.1,0-.2-.3,0-.4h0ZM26.6,29.3c.4,0,.9,0,1.3,0,0,.1.6,0,.5.4-.4.1-.8,0-1.2,0-.6-.1-1.4,0-2-.2-.1,0,0-.2,0-.2.5,0,.9,0,1.3,0h0ZM36,29.5c.3,0,.6,0,.9.3l1.5,1.6c.2,0,.3.3.5.4-.5.2-1.1.1-1.6.2-1.7,0-3.6,0-5.3-.1h0c.7-.7,1.3-1.4,2-2.1.3-.2.7-.2,1.1-.2h0c-.2,0-.4,0-.6,0-.9.4-1.4,1.4-2.1,2.1,0,0,.2,0,.2,0,.4,0,1,.3,1.2-.2.4-.6.6-1.5,1.4-1.8,0,0,0-.2,0-.2.3,0,.7,0,1,0h0ZM35.9,29.6c0,0-.2,0-.3,0,.6.5,1,1.2,1.4,1.9.4,0,.8,0,1.3,0h0c0-.2-.2-.2-.4-.3-.4-.4-.8-1-1.3-1.3-.2-.1-.5-.3-.8-.3h0ZM35.4,29.7c0,0-.2,0-.2.1-.6.5-1.1,1.1-1.2,1.9.3,0,.7,0,1,0,.1,0,0-.3,0-.4,0-.4.1-.7.2-1.1,0,0,0-.3.1-.3.2.6,0,1.1,0,1.7h1.3c0,0,0,0,0-.2-.2-.4-.5-.6-.6-1-.2-.2-.4-.8-.7-.8h0ZM36.5,30.1c.5.3.8.8,1.2,1.2,0,.2-.3,0-.4,0-.4-.4-.4-.9-.8-1.2h0ZM26.3,30.1c.2,0,.3,0,.4,0,.3,0,.7,0,.9.2,0,.2.2.3.1.5-.3,0-.6-.2-.9-.3,0,.3,0,.7,0,1-.3-.3-.4-.7-.6-1.1,0,0,0-.2,0-.3,0,0,.1,0,.2,0h0ZM34,30.2c0,.5-.5.8-.7,1.2,0,0-.2,0-.3,0,0,0,0-.2,0-.2.3-.4.6-.8.9-1.1h0ZM35.7,30.5h0c.2.3.4.5.4.8-.2,0-.3,0-.4,0,0-.3,0-.5,0-.8h0ZM34.8,30.5c0,.3,0,.7-.3.9h-.2c0-.3.2-.7.4-.9h0ZM21.6,30.8h.7v1.7h-.7v-1.7ZM48.5,30.8h.7v1.7s-.7,0-.7,0v-1.7ZM27.3,31.2c.2,0,.5,0,.7.2,0,.2.1.5.1.7-.3,0-.6-.2-.9-.2-.1-.3,0-.5,0-.7h0ZM42.2,31.4c.2,0,.5.1.6.3,0,0,0,.3-.2.2,0,0,0,0-.1,0,0,.1.3.1.2.3-.2.1-.4.1-.6.2.2,0,.4,0,.6.1,0,.2-.2.2-.3.2h-.2,0c0,0-1.1,0-1.1,0,0-.1-.2,0-.4,0h0c.4.5,1.1.3,1.6.4h-.1c-.9.3-1.7.3-2.6.3.4.3,1.1.2,1.6.3,0,.2-.3,0-.5,0-.6.1-1.4.1-2,.1,0,.2.2.2.4.2.3,0,.6,0,.9.2h0c-.7.1-1.4,0-2,.2.2.1.4.2.5.3h0c-.6.1-1.1.1-1.7.1h0c.2.2.4.1.6.2h1.1c0,.2-.2.2-.3.2h-1.3c0,.2-.2.1-.3.2,0,.1.2,0,.4.1h-.1c-.5,0-1,.2-1.4.1.2,0,.3-.1.5-.1h0c-.3-.2-.6-.1-.9-.1-.6.2-1.2,0-1.8,0,.3.2.6,0,.9,0,.3,0,.7,0,1,0-.2.1-.4,0-.7,0-.6,0-1.4,0-2.1-.2.1-.2.4.1.5,0,0,0,0,0,0,0h-.1c-.9-.3-1.9,0-2.6-.6.3,0,.6,0,.9,0,0,.1-.1,0-.1.2.4,0,.8.3,1.2,0-.2-.2-.5,0-.7-.1,0,0-.1,0-.2,0h0c0-.2-.3-.2-.4-.2-.6-.1-1.2.3-1.6-.3-.7-.6-1.7-1.3-2.2-2.1,0,0,0,0,.1,0,.3.1.7,0,.8.5,0,.1.3,0,.4,0,0,0-.2.2-.4.2,0,.2.4,0,.4.3,0,.1.2,0,.2.1,0,0-.2,0-.2,0,0,.1.2.1.4,0,0,0,0,0,0,0,0,0,0,0-.1.1,0,.2.3,0,.3.3.2,0,.5,0,.7,0-.1,0-.2,0-.3.1.4.1.8,0,1.1,0-.2,0-.4,0-.5,0,0-.1.2,0,.2-.2-.2-.2-.4.1-.6,0,0-.2.3,0,.4-.2-.2,0-.6,0-.8,0,.1-.1.3,0,.5-.2,0,0-.2,0-.3,0v-.2c0,0,0,0-.2,0,0,0,0,0,0,0,0,0,.1,0,.2-.1,0,0,0,0-.1-.1-.2,0-.4,0-.5,0h.2c0,0,0,0,0,0,0,0,.1,0,.2,0-.2-.2-.7,0-.7-.3h.3c-.1-.2-.3,0-.4,0-.1-.3-.2-.6,0-.9,1,.4,2.1.6,3.2.7h0c.9.1,1.9,0,2.8.2h0c1.6,0,3,0,4.6-.1.1,0,.3,0,.4,0,.7,0,1.4-.4,2.2-.6,0,0,.2,0,.4-.2h0ZM43.7,31.5c.2,0,0,.3,0,.4-.2,0-.4.4-.5.2,0-.3.2-.6.5-.6h0ZM13.9,32.2c.2,0,.5,0,.4.3-.1.2-.2.4-.2.6-.2.2-.4,0-.6,0-.6-.2-1.1-.3-1.5-.5,0,0,0,0,0,0,.6-.3,1.3-.3,2.1-.3h0ZM15.7,32.4c.6,0,1.4.1,2.6.2,0,.2-.1.3-.2.5-.2,1.1.7,2.3,1,2.8.6,1.2.5,1.5.5,2.5s-.2,1-.8.7c-.6-.4-.4-.9-.3-1.4.2-.7.5-1.5,0-2.3-.4-.5-1.2-.4-1.7-.4-.8,0-1.3,0-1.7,0-.4,0-.4,0-.5-.4,0-.2-.2-1.7.4-2.1.2-.1.5-.1.8-.1h0ZM57.6,32.6c.5,0,1,0,1,.2-.5.4-1,1-1.7,1l-.4-1c0-.1.6-.2,1-.2h0ZM21.2,32.6v1.3c-.6,0-.8,0-1,0-.7,0,0-.6-.6-1.2.1,0,.8,0,1.6,0h0ZM19.1,32.7c.3.2.3.5.4.7,0,0,0,.1-.1.2-.2,0-.7.1-.7-.2,0-.2,0-.5.3-.6,0,0,.1,0,.2,0h0ZM55,32.8c.5,0,.9,0,1,.1.5.5.5,2.1.3,2.3-.2.2-.9.1-1.2.1-.5,0-1.1,0-1.6,0-.5.1-.8.5-1,1-.3.7,0,1.6-.1,2.3,0,.3-.2,1-.6.9-.4,0-.4-.6-.4-1,0-.8.5-1.6.8-2.4.3-.9.8-1.8.7-2.8,0-.4-.3-.5.2-.5.2,0,1.2-.1,2-.1h0ZM49.7,32.8c.3,0,1.2.3,1.3.2-.1,1.4.1,1.8,1.1,1.8,0,.3-1.7.8-2.4,1,0-1,0-2,0-3h0ZM51.9,32.9c.2,0,.4.2.4.4,0,.3.2.8-.1,1,0,0-.7.2-.7-.2,0-.3-.1-.8.1-1,0,0,.2-.1.3-.1h0ZM21.6,33.4h.7v1.7h-.7v-1.7ZM48.5,33.4h.7v1.7s-.7,0-.7,0v-1.7ZM19.1,34.1c.6,0,1.9.3,2.1.5,0,4.2,0,8.5,0,8.8,0,1.1,0,4.1,5.6,6.5.5.2,5.4,1.8,6.2,2.2s2.4,1.4,2.5,1.7c.2-.3,1.7-1.4,2.5-1.7.8-.3,5.7-2,6.2-2.2,5.6-2.4,5.7-5.4,5.6-6.5,0-.3,0-3.4,0-6.9.4-.3,1.6-.7,2-.8,0,.2-.2.5-.3.7-.5,1.1-1,2.5-.4,3.4.5.6,1.3.5,1.9.5-2,7.8-9.1,13.6-17.6,13.6s-15.7-5.9-17.7-13.9c.5,0,1.1-.1,1.6-.3,1-.5.7-2.2.4-3.2-.2-.8-1-1.8-1.1-2.2,0,0,.1,0,.3,0h0ZM30.1,34.5c0,0-.2,0-.2.1.3,0,.7,0,1,0-.3,0-.5-.1-.7,0h0ZM32.2,34.8h0c.4.2.8.2,1.3.1h0c-.4,0-.8,0-1.3-.1h0ZM36.4,35c-1.1,0-2.1.1-3.1.1h.2c.9.1,2,.2,2.8,0,.1,0,.2,0,.3,0,0,0-.2,0-.3-.2h0ZM16.2,35.5c.4,0,.5,0,.5.9.4,10,8.6,18,18.7,18s18-7.8,18.7-17.5c0-.2,0-.9.4-.9.3,0,2.3,0,2.7,0,.4,0,.6.3.6.5-.4,12-10.3,21.5-22.4,21.5s-22.1-9.6-22.4-21.7c0-.5.2-.7.8-.8.4,0,2,0,2.4,0h0ZM17.6,35.6c.2,0,.5,0,.5.2.6,1.2-.8,2.8.3,3.5-.3,0-.4,0-.7,0-.2-.4-.5-2.5-.4-3.2,0-.4.1-.6.4-.6h0ZM21.6,36h.7v1.7h-.7v-1.7ZM48.5,36.1h.7v1.7h-.7v-1.7ZM53.3,36.2c.2,0,.4.2.3.5,0,.8-.3,2.5-.5,2.9-.2,0-.3,0-.6,0,.8-1.4,0-2,.5-3.2,0-.1.2-.2.3-.2h0ZM33.6,36.3c.5,0,1,0,1.5,0,.2-.1.5,0,.7,0,0,0-.3.2-.3.3.1,0,.3,0,.4,0-.7,0-1.6,0-2.3-.2-.1,0-.2-.2,0-.3h0ZM14.8,36.5c0,0-.2,0-.2.1-.1.1-.2.4-.1.5,0,.1.2.2.4.2.2,0,.4,0,.4-.2,0-.2,0-.4,0-.5-.1,0-.3-.2-.4-.2h0ZM56,36.7s0,0-.1,0c-.2,0-.2.2-.2.4,0,.2.3.2.5.2.2,0,.1-.3.1-.4,0,0-.2-.1-.3-.1h0ZM34.5,37.1c.3,0,.7,0,1,.1h-.2c0,.1,0,.2,0,.2h.5c0,.1,0,.2,0,.2-.3,0-.5,0-.7.1,0,0,0,0,0,0,.2,0,.5,0,.6.2-.1,0-.3,0-.4.2.2.1.4,0,.6,0-.2.2-.5,0-.6.2.3,0,.6,0,1,0-.2.2-.6.2-1,.2-.5,0-1,0-1.4-.3.3-.4.5-.8.4-1.3h.1ZM54.8,38c-.2.2-.4.5-.4.7,0,.3,0,.6.2.7.9.7,1.1-.8,1.9-.8,0,0,.2.2.3.3,0,.5-.2.8-.6,1h.3c.2,0,.4-.4.5-.7,0-.4,0-.8-.4-1-.8-.3-1,.9-1.7,1-.2,0-.2-.3-.2-.4,0-.3.3-.6.6-.7,0,0-.3,0-.4-.1h0ZM13.9,38.4c0,.2,0,.6.2.7.1,0,0-.1.2-.2.1,0,.2,0,.4,0,.3,0,.2.5.3.7,0,.3.2.5,0,.7-.1.2-.4.2-.5.2,0,.2,0,.4.1.6,0,0,0,.2.2.2.4-.8,1.2-1.2,1.9-1.9h0c-.7-.5-1.6-.7-2.4-1l-.3-.2ZM40,38.6c1.5,0,2.9,0,4.4,0,0,0-1.4,2-2.2,2.9,0,0-14.3,0-15.2,0,0,0,1.9-1.9,2.8-2.8h2.7c-.2.3-.7.5-.8.8v.4c.5.7,1.4.6,2.1.9.5,0,.9.2,1.4.1,1.3,0,2.5-.2,3.6-.6.2-.2.3-.4.3-.6,0-.4-.2-.7-.5-1h0c.5,0,1-.1,1.5,0h0ZM21.6,38.7h.7v1.7h-.7v-1.7ZM48.5,38.7h.7v1.7h-.7v-1.7ZM33.4,38.8c1.1.6,2.7.8,3.9,0,.2,0,.4-.1.5.1-.3.2-.5.4-1.3.5.5.3,1.4,0,1.4,0,0,.3-1,.4-1.5.5.2.2.6,0,.9.2-.3.2-.6.1-.9.2-1.4.1-3,.2-4.3-.5.3-.8,1.3-.9,1.3-.9h0ZM15.2,39.3c.2,0,.5,0,.6.2,0,.2-.3.4-.5.5-.2-.2-.3-.5-.2-.7h0ZM44.6,39.4c0,.9.4,1,.6,1.2-.5.7-1.1,1.4-1.6,2.2-.3.3-.5.8-1,.7-.2,0-.3-.3-.3-.5.2-1.4,1.4-2.4,2.3-3.6h0ZM56.7,40.3h-.1c-.8.5-1.6.6-2.4.8,0,.2.2.4.3.4.5.6,1.3,1,1.4,1.7,0-.2.3-.5.2-.8-.2,0-.4-.2-.6-.4,0-.4.2-.8.4-1.1.2-.1.5,0,.6.2.1-.3.2-.7.1-1h0ZM16.8,41.1c0,.1,0,.2,0,.3-.4.3-1,.4-1.4.6-.2,0-.5,0-.6,0,0,.3.2.6.3.8,0-.3.4-.3.6-.4.1,0,.3,0,.3.2.4.4-.2.7-.2,1.2-.1.5,0,1.1.3,1.4-.3-.6,0-1.3.4-1.8.3,0,.6.4.9.2.4-.4.2-1,0-1.4-.2-.3-.3-.7-.4-1h0ZM55.4,41.3h0c0,.3,0,.5-.2.7-.2,0-.4-.3-.5-.5.2-.2.4-.1.6-.2h0ZM21.6,41.3h.7v1.6h-.4s-.4,0-.4,0v-1.7ZM48.5,41.3h.7v1.7h-.7v-1.7ZM16.8,42c.2,0,.2.2.3.4,0,.2.1.5,0,.6-.1,0-.3.2-.5,0-.3-.2-.3-.5-.4-.8.1-.2.4-.2.6-.3,0,0,0,0,0,0h0ZM26.7,42s12.5,0,15.1,0c-.5.8.2,1.5.2,1.5,0,0-13.4,0-15.9,0-.4,0-.3-1.5.5-1.5h0ZM53.6,42.1c-.3.7-.5,1.4-.9,2l.4.2c0-.2,0-.3,0-.4,0-.1.1-.3.3-.3.6.2,1.2.5,1.8.9,0,0,0,.2,0,.2,0-.3.4-.6.4-1-.1.2-.4,0-.6,0-.5-.3-1.1-.4-1.5-.8,0-.3.2-.5.4-.7,0,0-.2-.1-.3-.1h0ZM22.4,43.9c0,.5.2,1,.5,1.4l-.6.4c-.3-.5-.5-1.1-.6-1.7h.7ZM48.5,43.9h.7c0,.7-.2,1.3-.5,1.8l-.6-.4c.2-.4.4-.9.4-1.4h0ZM18,44.3c0,0-.2,0-.2,0,.3.2.4.5.5.8-.3.4-.7.5-1,.7-.3.1-.5.3-.8.3.1.3.2.6.4.8,0-.2.1-.3.2-.4.5-.3,1-.7,1.6-.8.2.3.4.5.5.8,0,0,.1-.2.2-.2-.4-.6-.8-1.3-1.2-2,0,0-.2,0-.2,0h0ZM52.6,44.6c-.1.2-.2.4-.3.6h.3c.6.4,1.4.6,1.9,1.1.2-.2.2-.4.3-.6-.1,0-.2,0-.3,0-.6-.3-1.2-.6-1.8-1v-.2ZM52.2,46c-.7,0-1,1-1.5,1.5h0c0,0,.1,0,.3,0l.7.5c.3.3.9.5.9,1,.2-.2.3-.5.5-.7-.4.2-.7-.3-1-.4,0-.2.2-.3.3-.5.7,0,1.5,0,1.9-.7-.4.2-1,.4-1.6.3-.3-.2,0-.5-.2-.8h0c-.1-.2-.2-.2-.3-.2h0ZM23.3,46.1c.3.4.7.7,1.2,1.1l-.4.6c-.5-.4-.9-.8-1.3-1.2l.6-.5ZM47.5,46.1l.6.5c-.4.4-.8.8-1.3,1.2l-.4-.6c.5-.4.9-.7,1.2-1.1h0ZM51.9,46.4c.2,0,.4,0,.4.3.1.4-.2.7-.4,1-.2,0-.5-.2-.6-.4.1-.3.4-.6.6-.8h0ZM19.7,46.8v.2c-.3.4-.7.7-1.1.9-.3.2-.6.5-.9.3.4.7.9,1.2,1.3,1.8,0,0,.2,0,.3,0,.1,0,.3,0,.4,0,0,0-.2,0-.2,0h0s-.1,0-.1,0c-.4-.3-.9-.6-.8-1.1.2-.2.4-.4.6-.4.2.2.4.4.4.7.1,0,.3-.1.4-.3-.3,0-.4-.4-.6-.6,0,0,0,0,0-.1.2,0,.4-.5.7-.3.3.4.8.7.7,1.1,0,0,.3-.2.4-.3-.5-.5-.8-1.2-1.3-1.6h0ZM25.3,47.7c.5.3.9.5,1.4.8l-.3.7c-.5-.3-1.1-.5-1.5-.8l.4-.6ZM45.6,47.7l.4.6c-.5.3-1,.6-1.5.8l-.3-.7c.5-.2,1-.5,1.4-.8h0ZM50.1,48.3l-1.2,1.3c.5,0,.7.5,1.1.8.2.3.7.5.6,1,.2-.1.3-.3.5-.5.2-.5,1.2-.7.6-1.3,0,.2,0,.3-.2.5-.3.2-.4.7-.8.7-.2-.2-.5-.3-.5-.6.1-.2.3-.4.5-.4,0-.1-.2-.2-.4-.3,0,.3-.3.4-.4.6-.2,0-.4-.3-.5-.5,0-.2.1-.4.3-.5.2-.2.4-.4.7-.3,0-.1-.3-.3-.4-.3h0ZM27.6,48.8c.3.1.9.3,1.6.5l-.2.7c-.7-.2-1.3-.4-1.6-.6l.3-.7ZM43.3,48.8l.3.7c-.3.1-.9.3-1.6.6l-.2-.7c.7-.2,1.3-.4,1.6-.5h0ZM21.7,49.5c-1,.4.2,1.5-.5,2.1-.3.1-.5,0-.7-.3,0-.3-.3-.6,0-.9-.1,0-.3.2-.4.3l.2.5c.3.4.7.9,1.3.7.7-.5.2-1.3.2-1.9,0-.1.2-.2.3-.2.2,0,.4.2.5.3.2.3,0,.6,0,.9.1-.2.5-.2.4-.5-.2-.5-.6-1.1-1.2-1h0ZM30,49.7c.5.2,1.1.4,1.6.5l-.2.7c-.5-.2-1-.4-1.6-.5l.2-.7ZM40.8,49.7l.2.7c-.5.2-1.1.4-1.6.5l-.2-.7c.5-.2,1-.4,1.6-.5h0ZM48.6,49.9c-.2.2-.4.4-.5.5.4.1.4.7.5,1,0,.2.2.4,0,.6-.5-.1-1-.5-1.4-.7,0,0,0-.2,0-.2-.3.1-.5.4-.7.6h.4c.8.3,1.5.8,2.3,1.1,0-1-.5-1.9-.5-2.9h0ZM38.3,50.5l.2.7c-.3,0-.5.2-.6.2-.3.1-.6.3-.8.4l-.4-.6c.4-.2.7-.4.9-.5.1,0,.4-.1.6-.2h0ZM32.5,50.6c.3,0,.5.2.6.2.3,0,.6.3,1,.5l-.4.6c-.4-.2-.6-.4-.9-.5-.1,0-.3-.1-.6-.2l.3-.7ZM35.9,51.8l.4.6c-.3.2-.5.4-.7.5l-.2.2-.9-.6.4-.6.5.3c.1-.1.3-.2.5-.4h0ZM23.5,51.9c-.2,0-.3.2-.2.4,0,.2,0,.3.2.4.2,0,.3,0,.4-.1,0-.1,0-.4,0-.5,0,0-.2-.2-.4-.1h0ZM26.2,52.6c-.2,0-.4,0-.5.2-.2.5.2,1,.5,1.4,0,.2.1.5,0,.6,0,0-.3,0-.4,0-.4-.2-.6-.6-.6-1.1-.1.1-.2.2-.3.4.1.4.5.8.9.9.3,0,.7.1,1-.2.2-.6-.3-1.1-.6-1.6,0-.1,0-.3,0-.4.1,0,.3,0,.4,0,.4.2.5.5.5,1,.1-.1.3-.3.3-.5-.3-.3-.6-.6-1-.7,0,0-.1,0-.2,0h0ZM46.3,52.7c-.1,0-.2.1-.2.2,0,.2,0,.4.1.5.1,0,.3,0,.4,0,.1-.1.2-.2.2-.4,0-.2-.3-.1-.4-.2h0ZM44,53.1c-.2.8,0,1.6-.1,2.5v.2c0,0,.3-.2.5-.3-.1,0-.2-.2-.2-.4.3-.3.7-.5,1.1-.6.2,0,.3.3.2.5h0c.3,0,.6-.4.8-.5-.2,0-.4,0-.5-.1-.6-.4-1.3-.9-1.8-1.2h0ZM42.5,53.7c-.3,0-.5.2-.7.3l.2.2c.3.7.5,1.4.7,2.1,0,0-.1.1,0,.2.3-.1.5-.2.8-.4-.4,0-.4-.5-.6-.8-.1-.5-.5-1-.3-1.5h0ZM44.3,53.8c.3,0,.5.2.6.4-.2,0-.5.5-.7.3,0-.3,0-.5,0-.7h0ZM29,53.9c-.2,0-.3,0-.5,0-.4.3-.8.7-.7,1.3,0,.4.3.8.7,1.1.4.1.8.2,1.1,0,.1-.2.2-.4.2-.6h0c-.2.3-.5.4-.9.4-.3,0-.5-.3-.6-.6,0-.3,0-.7.1-.9.2-.3.5-.6.9-.5.3,0,.7.3.8.7,0-.1.1-.3.2-.4-.4-.3-.8-.6-1.3-.6h0ZM41.3,54c0,0-.2,0-.2,0-.6.2-1.3.3-1.9.5,0,.2,0,.3,0,.4,0-.2.2-.2.4-.3.2,0,.4-.1.6,0l.4,1.4c0,.2,0,.5-.2.6.2,0,.4,0,.6,0,0,0,.3,0,.3-.1-.1,0-.2,0-.3-.1-.2-.4-.3-1-.4-1.4,0-.2-.1-.4,0-.5.2-.1.6-.3.8,0,0-.1,0-.3-.2-.5h0ZM31.3,54.5c.3.4,0,.8,0,1.2-.1.4-.1.9-.5,1.2.3,0,.7.1.9.2l-.2-.2c0-.7.2-1.3.4-2,0-.1.2-.2.3-.3l-.8-.2ZM38.7,54.8c-.2,0-.5,0-.7.1h0c.4.3.2.8.3,1.2,0,0,0,.2-.1.2-.4-.3-.8-.8-1.2-1.2-.4-.2-.7,0-1.1,0,.1.1.4,0,.5.2,0,.6,0,1.2,0,1.8,0,.1-.2.2-.3.3.3,0,.6,0,.8,0-.6-.4-.3-1.2-.4-1.8h.1c.6.5,1.2,1.1,1.7,1.7h.1c0-.7,0-1.4-.1-2.1,0-.1,0-.3.1-.4h0ZM33.2,54.8h.1c.1.8,0,1.4,0,2,0,.2-.2.5-.3.5.7,0,1.5.1,2.1.2.1-.2.3-.4.3-.6-.4.5-1.1.3-1.6.2h-.1c0-.3,0-.7,0-.9.4,0,.7,0,1,.2,0-.2,0-.3,0-.5-.3.2-.7,0-1,0,0-.3,0-.6.2-.8.4,0,1.1-.1,1.3.4,0,0,0-.2,0-.3,0-.1,0-.3-.2-.3h0c-.7,0-1.3-.1-1.9-.2h0ZM17.4,55.3c.3,0,.6,0,.9,0,.7.2,1.3.6,1.7,1.2.6.8.7,2,.4,2.9-.4,1.1-1.5,1.9-2.7,1.9s-2.5-.8-2.9-2c-.3-1-.2-2.1.4-2.9.6-.8,1.4-1.1,2.2-1.1h0ZM53.7,55.3c.9,0,1.7.4,2.2,1.1.6.8.7,1.9.4,2.9-.4,1.2-1.6,2-2.9,2-1.2,0-2.3-.8-2.7-1.9-.4-.9-.2-2.1.4-2.8.4-.6,1-1,1.7-1.2.3,0,.6,0,.9,0h0ZM17.4,55.6c-.1,0-.3,0-.4,0-.9.1-1.7.9-2,1.7-.3.8-.2,1.7.3,2.3.5.7,1.2,1.1,2,1.2,1,.1,2-.4,2.5-1.2.5-.8.4-2,0-2.8-.6-.8-1.4-1.3-2.3-1.2h0ZM53.7,55.6c-.9,0-1.8.5-2.3,1.2-.4.8-.6,2,0,2.8.5.8,1.5,1.4,2.5,1.2.8,0,1.5-.5,2-1.2.5-.6.5-1.6.3-2.3-.3-.8-1.1-1.5-2-1.7-.1,0-.3,0-.4,0h0ZM17.6,56c.1,0,.3,0,.4,0h0c0,.6-.2,1-.3,1.4-.3,0-.6.3-.8,0-.2-.3-.5-.6-.6-1.1.4-.2.8-.3,1.2-.3h0ZM53.5,56c.4,0,.8,0,1.2.3,0,.4-.4.7-.6,1.1-.2.3-.5,0-.8,0-.1-.5-.3-.9-.3-1.3h0c.1,0,.3-.1.4-.1h0ZM17.6,56.3c-.2,0-.4,0-.6,0-.1,0-.2.2,0,.4,0,.2.2.6.5.4.3,0,.2-.5.3-.8,0,0-.1,0-.2,0h0ZM53.5,56.3c0,0-.1,0-.2,0,0,.2,0,.7.3.8.4.2.5-.2.6-.4,0-.1,0-.3,0-.4-.2,0-.4,0-.6,0h0ZM18.8,56.5c0,0,.1,0,.2.1,0,.3-.3.5-.5.6-.2,0-.2.3-.4.3h0c0-.1.6-1.1.6-1.1,0,0,0,0,0,0h0ZM52.3,56.5s0,0,0,0l.6,1h0c-.2,0-.2-.1-.4-.2-.2-.2-.4-.4-.5-.6,0,0,0-.1.2-.1h0ZM16,56.8s0,0,.1,0l.7.9c-.1,0-.3-.2-.4-.2-.2-.2-.5-.3-.7-.5,0,0,.1-.2.2-.2h0ZM55.1,56.8c.1,0,.2.1.2.2-.2.2-.5.4-.7.5-.1,0-.2.3-.4.2l.7-.9s0,0,.1,0h0ZM19.4,57.3c.2,0,.2.3.3.4,0,.4,0,1-.1,1.3-.4-.1-.9-.3-1.3-.4v-.7c.4-.2.7-.5,1.1-.6h0ZM51.7,57.3c.4.2.7.4,1.1.6v.7c-.4.2-.8.3-1.3.4-.2-.3-.2-.9-.1-1.3,0-.1,0-.4.3-.4h0ZM15.4,57.6c.5,0,.9.3,1.4.4v.6c-.3.2-.7.4-1,.6-.4.2-.3-.3-.5-.5,0-.3,0-.8.1-1.1h0ZM55.7,57.6c.2.3.2.7.1,1.1-.2.2,0,.7-.5.5-.3-.2-.7-.4-1-.6v-.6c.5-.2.9-.3,1.4-.4h0ZM19.3,57.7s0,0,0,0c-.2.2-.8,0-.7.6,0,.3.5.1.8.3.1-.2.1-.4,0-.6,0,0,0-.2-.1-.2h0ZM51.9,57.7c-.1,0,0,.2-.2.2,0,.2,0,.5,0,.6.3-.1.7,0,.8-.3.2-.5-.5-.4-.7-.6,0,0,0,0,0,0h0ZM15.8,58.1c0,0-.1,0-.2,0,0,.2,0,.4,0,.6.1.4.5,0,.7,0,.2,0,.2-.3.1-.4-.2,0-.4-.2-.6-.1h0ZM55.3,58.1c-.2,0-.4,0-.6.1,0,.1,0,.4.1.4.2,0,.5.4.7,0,0-.2.1-.4,0-.6,0,0-.1,0-.2,0h0ZM17.5,58.2s0,0,0,0c0,0,0,0,0,0,0,0,0,0,0,0,0,0,0,0,0,0h0ZM53.6,58.2s0,0,0,0c0,0,0,0,0,0,0,0,0,0,0,0,0,0,0,0,0,0h0ZM18.2,58.8c.4.2.8.4,1.1.6,0,.1,0,.2-.1.2-.3,0-.4-.3-.6-.4-.1-.2-.4-.2-.4-.5h0ZM52.9,58.8c0,.2-.3.3-.4.4-.2,0-.3.4-.6.4,0,0-.2,0-.1-.2.3-.3.7-.5,1.1-.6h0ZM17.1,58.8c-.1.3-.5.6-.6,1,0,.1-.2.1-.3,0,0,0,0-.2,0-.3.3-.3.6-.6,1-.8h0ZM54,58.9c.3.3.6.5,1,.8,0,0,0,.2,0,.2-.1,0-.2,0-.3,0,0-.4-.4-.6-.6-1h0ZM53.5,58.9c.1,0,.2,0,.3,0,.2.4.3.8.4,1.3-.3.3-.8.2-1.2.1-.2-.1-.5,0-.5-.4l.7-1.1c.1,0,.2,0,.3,0h0ZM17.6,58.9c.1,0,.2,0,.3,0l.7,1.1c0,.3-.3.3-.5.4-.4,0-.9.2-1.2-.1,0-.4.2-.9.4-1.3,0,0,.2,0,.3,0h0ZM17.8,59.3c-.2,0-.3,0-.4.1,0,.3-.2.5,0,.7.3,0,.6,0,.8-.2,0-.3-.2-.5-.4-.7h0ZM53.2,59.3c-.1.2-.3.4-.4.7.2.2.5.2.8.2.2-.2,0-.5,0-.7,0-.1-.3-.1-.4-.1h0Z"/>
  <path class="st0" d="M35.4.5C16.1.5.5,16.1.5,35.4s15.6,35,35,35c19.3,0,35-15.6,35-35S54.8.5,35.4.5ZM35.4,2.4c18.2,0,33,14.8,33,33s-14.8,33-33,33S2.4,53.7,2.4,35.4,17.2,2.4,35.4,2.4h0ZM32.8,3.4l-.2.2c-.9.2-1.8.3-2.7.4-.4,0-.9.2-1.3.1,0,.4.2.6.1,1h0c0-.3.2-.6.5-.6s1-.4,1.2,0l.7,4.5c0,.2-.3.2-.3.4.5-.1,1.1-.1,1.6-.2h0c0,0-.1-.1-.2-.1-.2,0-.2-.3-.3-.5l-.5-3.8c0-.2-.1-.5,0-.7.4,0,.8-.2,1.3-.1.1,0,.2.4.4.3,0-.3-.2-.6-.2-.9h0ZM33.2,3.5s-.1,0,0,.1c0,.1.1,0,.2.1.5.8,1.1,1.4,1.5,2.2.7.8.3,1.9.5,2.9v.2c-.2.1-.4,0-.5.2.6-.1,1.3,0,1.9,0,0-.2-.4,0-.5-.3v-2.3c.6-.9,1.1-1.8,1.8-2.7,0,0,.3,0,.3-.2-.5,0-1,0-1.4,0,0,0,.4.2.3.4-.3.6-.7,1.3-1.2,1.9h0c-.6-.6-1-1.3-1.3-2,0-.2.1-.3.2-.4-.5,0-1,0-1.5,0h0ZM28,4.3c-.5.2-1.1.2-1.6.4h0c.1,0,.3.1.4.1.5,1,.6,2.2.9,3.3v.3c0,.6.7,1.3,0,1.7h0c.5,0,1-.2,1.5-.3,0,0,.3,0,.3-.2-.2,0-.5,0-.5-.2-.5-1.6-.8-3.2-1.2-4.9,0-.1.2-.3.3-.3h0ZM43.4,4.6c-.1,0-.3,0-.4,0-1,0-1.9.8-2.3,1.6-.4.8-.3,1.9.1,2.6.4.7,1.2,1.3,2,1.4h0c.4.1,1,.1,1.4,0,0,0,.2,0,.2,0,.9-.2,1.7-.9,2.1-1.8.4-1.1,0-2.2-.7-3-.7-.5-1.4-.9-2.3-.9h0ZM43.4,5.1c.2,0,.5,0,.7.1h.2c.2.2.5.3.7.5.7.8.8,1.8.5,2.8-.2.5-.6,1.1-1.1,1.2-.6.3-1.5.2-2-.3-.8-.6-1-1.6-.8-2.6.2-.6.5-1.4,1.2-1.6.2,0,.4-.1.7-.1h0ZM24.8,5.3h0c0,.3-.2.4-.4.3-.8-.2-1.6.2-2.1.9-.3.5-.4,1.2,0,1.6.1.2.3.4.4.5.9.7,2.5.3,3.3,1.3,0,.1.1.3,0,.5-.1.4-.5.5-.9.6-.8.2-1.4-.6-2-1.1h0c.1.5.4.9.6,1.3,0,.1,0,.3.2.4h.2c.8-.1,1.7-.3,2.4-.8.3-.4.5-.8.4-1.3-.4-1.3-1.9-1.2-2.9-1.5-.4-.2-1.1-.4-1.1-1,0-.4.4-.6.7-.7.8-.2,1.6.3,2.1.9,0-.2-.1-.5-.2-.7-.2-.4-.3-.8-.6-1.1h0ZM48.2,6.2c0,.2.2.2.2.4-.6,1.5-1.3,3-2,4.5,0,.3-.4.3-.6.2.3.2.8.3,1.1.6.2,0,.4.2.5.2-.1-.2-.3-.3-.3-.6.3-.6.5-1.3.9-1.9.3,0,.7.2,1,.4.3.2.8.4.7.8l.6-1h0c0-.1-.1-.1-.2,0-.7,0-1.3-.3-1.9-.8,0-.5.4-1,.6-1.5.5-.7,1.1.2,1.6.3.4.2.6.8.6,1.1l.2-.3c0-.2.3-.5.3-.7-1.2-.6-2.3-1.2-3.5-1.7h0ZM19.6,8c-1.3,0-2.3,1.3-3.3,1.9h.4c1.1,1.3,2.1,2.6,3.1,4,.2.2,0,.4,0,.5.5-.4.7-.6,1.2-.9h-.2c-.5-.5-.8-1-1.2-1.5v-.2c0-.1.2-.3.4-.3.7.5,1.4.8,2.2.9.6,0,1.3.2,1.6-.4-.1-.1-.2,0-.4,0-1.1,0-2-.6-2.8-1.3h0c.2-.3.4-.6.5-1,.1-.4,0-.8-.2-1.2l-.4-.4c-.3-.1-.6-.2-.9-.2h0ZM19,8.7c.3,0,.5,0,.9.3.3.4.5.7.4,1.2,0,.5-.6.9-1,1.1h-.2c-.5-.6-.9-1.1-1.3-1.8,0-.4.6-.6.9-.9.1,0,.3,0,.4,0h0ZM54.2,9.7c.1.2.4.4.4.7-.8,1-1.4,2-2.3,3-.3.4-.7,1.1-1.3,1h0c.4.3.7.6,1,.8h.1c-.1-.1-.2-.3-.2-.5.7-1,1.5-2,2.3-2.9,0,0,.1,0,.1,0-.3,1.5-.6,3-.8,4.5h0c.7,0,1.3-.4,2-.6.3,0,.5-.2.8-.3.4,0,.8-.3,1.2-.4h0c-.7.9-1.6,1.8-2.4,2.5-.2,0-.4,0-.6-.1.3.4.8.8,1.2,1.2v-.3c1-1.2,2.2-2.5,3.4-3.6.2-.2.4.1.6.1-.2-.4-.5-.7-.9-1h-.2c-1.3.4-2.5.9-3.7,1.4-.1,0-.3.1-.4,0,.2-1.5.6-3,.8-4.5-.3-.5-.8-.8-1.3-1.1h0ZM35.4,10.4c-13.8,0-25,11.2-25,25s11.2,25,25,25,25-11.2,25-25-11.2-25-25-25h0ZM15.2,10.6c-.9.8-1.7,1.7-2.5,2.5h0c.1,0,.3,0,.5,0,1.2,1,2.2,2.2,3.3,3.3v.4c0,.2-.2.3,0,.4.8-.8,1.9-1.6,2.8-2.4l-.2-.9c-.3.4-.5,1-1,1.4-.3.2-.6.6-.9.4l-1.3-1.3h0c.3-.5.7-.8,1-1.1.2,0,.4,0,.5.1h0c-.3-.4-.6-.7-.8-1,0,.1,0,.2,0,.3-.3.4-.7,1-1.2,1.2l-1.4-1.4h0c.5-.8,1.2-1.5,2-1.4-.2-.2-.4-.6-.7-.6h0ZM35.3,11.2c.2,0,.3.1.4.2,1.7,0,3.3.2,4.9.6.2-.1.4-.1.5,0,0,0,0,0,0,0,1.5.4,3,.9,4.4,1.5.2,0,.3,0,.3.2,1.3.6,2.5,1.4,3.6,2.2.2,0,.4,0,.4,0,0,0,0,0,0,.1,1.1.9,2.2,1.8,3.1,2.8.4,0,.7.2.7.7,0,0,0,0,0,0,.9,1.1,1.8,2.2,2.5,3.5.3,0,.5.2.4.4,0,0,0,.1,0,.2.7,1.3,1.3,2.7,1.8,4.1.2,0,.3,0,.3.3,0,0,0,.2-.1.2.4,1.2.6,2.5.8,3.8h0c0,0,0,0,0,0,0,0,.2,0,.1.2,0,.1,0,.2-.2.3,0,.9.1,1.7.1,2.6,0,13.3-10.8,24-24,24-13.3,0-24-10.8-24-24s0-1.7.1-2.6c-.2-.1-.3-.3,0-.5,0,0,.1-.1.2-.2.2-1.5.6-3,1.1-4.5,0,0,0,0,0-.1,0,0,0-.2.2-.2.5-1.4,1.1-2.7,1.8-4,0,0,0,0,0,0,0-.2,0-.3.3-.3.7-1.2,1.5-2.3,2.4-3.3-.1-.2,0-.4.2-.5,0,0,.2,0,.3-.1,1-1.1,2.2-2.1,3.4-3,0-.1,0-.3.1-.3.1,0,.3,0,.4,0,1.2-.9,2.5-1.6,3.9-2.2,0,0,0-.2.2-.2.1-.1.3-.1.5,0,1.3-.5,2.6-.9,4-1.3,0-.1.1-.2.3-.2,0,0,.2,0,.2,0,1.4-.3,2.7-.4,4.1-.4,0,0,.2-.2.3-.2,0,0,.1,0,.2,0h0ZM35.3,11.7c0,0-.2,0-.3.3-.4.7-.7,1.6-.8,2.5.4,0,.9,0,1.3,0,.4,0,.7,0,1.1,0,0-.7-.4-1.3-.7-1.9-.1-.3-.3-.9-.6-.8h0ZM40.7,12.5c-.7.7-1.2,1.6-1.7,2.4.8.2,1.6.5,2.3.9,0-.9-.1-1.8-.3-2.7-.1-.2,0-.5-.4-.5h0ZM30.6,12.6s0,0-.1,0c-.2.8-.6,1.9-.2,2.7.6-.3,1.2-.5,1.8-.6-.5-.7-1-1.5-1.5-2.2,0,0,0,0,0,0h0ZM12.4,13.5c-.3.4-.7.7-1,1.1.2,0,.4-.2.6,0,.7,1.1,1.3,2.2,1.9,3.4,0,0,0,0-.1,0l-2.8-.6h0s-1.1-.3-1.1-.3c-.3,0,0-.3,0-.5-.2,0-.3.4-.4.5-.2.3-.5.6-.6.9.1,0,.2,0,.4-.2,1.8.4,3.8.7,5.6,1.1h0s.3,0,.3,0v-.3c0,0-2.7-4.6-2.7-4.6v-.3c0-.2,0-.3,0-.4h0ZM26,13.8s0,0-.1,0c0,.7.2,1.4.2,2.2.1.5.3,1.1.7,1.5.5-.4,1-.8,1.5-1.1-.5-.9-1.2-2-2.2-2.6,0,0,0,0-.1,0h0ZM45.1,14.4c-.8.5-1.4,1.2-2.1,1.9,0,0-.2.2-.2.3.5.4,1,.7,1.5,1.2.1-.2.2-.3.3-.5.3-.7.5-1.8.5-2.8,0,0,0,0-.1,0h0ZM60.5,16c0,.2,0,.5-.2.6-1.2.9-2.3,2-3.6,2.9-.2,0-.4,0-.6-.2.3.4.7.9,1,1.4h.1c0-.1-.2-.4,0-.5l3.6-2.9c.2-.2.4.1.6,0h0c-.3-.5-.7-.9-1-1.4h0ZM35.5,16.3c-3.5,0-6.6,1.5-8.7,3.9h17.4c-2.1-2.4-5.2-3.9-8.7-3.9h0ZM21.9,16.3c0,0-.1,0-.1,0,.2.5.4.8.5,1.5.2.9.6,1.9,1.6,2.3h.6c.3-.4.6-.9,1-1.3-.2-.1-.5-.3-.7-.4-1.1-.5-1.5-1.8-2.7-2.2,0,0-.1,0-.2,0h0ZM48.8,16.7c-1.1.5-2.1,1.6-3,2.5.3.3.5.7.8,1h1.2c.3-.2.3-.4.4-.7.3-.9.4-1.9.7-2.7h0ZM8.4,18.7c-.3.4-.6.9-.8,1.4.2,0,.3-.3.5-.2.5.2,1,.5,1.5.8.9.6,1.9,1.1,2.8,1.8,0,.1,0,.2,0,.3.3-.4.5-.9.8-1.3h0c0-.1-.1,0-.2,0-.1,0-.3,0-.4,0-1.3-.7-2.7-1.6-4.1-2.4,0-.1,0-.3,0-.4h0ZM61.5,19.2c-.1,0-.3,0-.4,0-1.1.1-2.1.8-2.6,1.8-.5.9-.3,2.1.4,2.8.5.3.8,1,1.4.6.2-.2.6-.2.8-.4-.1,0-.2,0-.4,0-.7,0-1.3-.2-1.7-.8-.1-.4-.3-1,0-1.4.7-1.2,2-1.8,3.4-1.6.5.1.8.6,1,1,0,.6,0,1.4-.6,1.9.4,0,.7-.3,1-.4.2-.6,0-1.4-.2-2-.4-.8-1.2-1.4-2.2-1.5h0ZM52.9,19.5c-.7.1-1.4.5-2,.9l.9.8,1.2-1.1c.1-.1.2-.3.3-.4,0-.2-.2-.2-.4-.2h0ZM18.4,19.5c-.2,0-.4,0-.5.2,0,.4.9,1.1,1.3,1.4l.8-.8c-.3-.3-1.1-.8-1.7-.8h0ZM7,21.1c-.2.4-.4.8-.6,1.2.5-.5.9.1,1.4.2.7.4,1.5.6,2.2,1,0,0,.2.1.3.3-1.2.6-2.5.8-3.7,1.3-.4.1-.9.3-1.3.5-.1.4-.4.8-.4,1.2.2-.2.4-.5.7-.4.8.2,1.6.5,2.4.7.6.2,1.1.4,1.7.5h0c.1,0,.3,0,.3.2.3,0,.3.3.4.5,0-.5.3-1,.4-1.4-.1.1-.2.3-.4.3-1.2-.3-2.3-.7-3.4-1.1h-.1c.2-.3.5-.3.7-.5.3,0,.7-.2,1-.4.7-.2,1.4-.5,2.1-.7.5-.2,1-.3,1.4-.5,0,0,0-.2,0-.3-.8-.3-1.5-.7-2.3-1-.1,0-.3-.1-.4-.2-.7-.2-1.2-.6-1.9-.8l-.2-.2v-.4ZM64.9,23.5c-.1,0,0,.2-.2.3-1.3.6-2.8,1-4.2,1.7-.3,0-.7.4-.8,0,.1.5.3,1,.6,1.4,0,0,0,0,0,0,0-.2,0-.4.2-.5.6-.2,1.3-.6,1.9-.7,0,0,.1.1.1.2.3.9.7,1.7.9,2.6-.7.3-1.5.6-2.3.7-.1,0-.2-.2-.3-.3,0,0,0,0,0,0,.2.5.2,1,.4,1.5h0c0-.6.6-.4.8-.6.6,0,1.2-.4,1.9-.5h0c.6-.2,1.2-.5,1.9-.6.3,0,.3.2.5.3,0-.5-.3-1-.4-1.5-.1,0,0,.2-.2.2-.6.3-1.2.4-1.8.6h0c-.3-1-.7-1.9-.9-2.8.5-.4,1.2-.5,1.8-.7.2,0,.3,0,.5.2h0c-.2-.5-.3-1-.5-1.4h0ZM15.5,23.5c-.1,0-.2,0-.3,0,.4.6,1,1,1.7,1.2,1.3.4,2.2,1.5,3.5,2.1,0,0,.4.2.8.2v-.7c0-.4,0-.8-.1-1.1-.5-.2-2-.9-2.7-1.1-.1,0-1.8-.5-2.5-.6-.1,0-.2,0-.4,0h0ZM55.2,23.6c-.7,0-1.4.2-2.1.4h0c-.8.1-1.4.5-2.1.6-.2,0-.7,0-1,0-.2.5-.3,1.1-.3,1.7v1.3c.4,0,1.1-.4,1.4-.5.6-.5,1.1-1.1,1.7-1.6,1-.5,2.1-.9,3-1.7h0c-.2-.2-.4-.2-.6-.2h0ZM26.8,26.4c-.2.4-.2.9,0,1.3-.2,0-.2.1-.3.2-.4.2,0,.7-.4.8,0,.1-.2.4,0,.5h1.8s0,0,0,0c0-.2-.2-.3-.2-.5,0,0,.2,0,.3-.2,0-.1,0-.3,0-.4-.1-.2-.3-.3-.5-.3,0-.3,0-.5,0-.8-.1-.2-.2-.4-.4-.5h0ZM35.3,26.7c-.2,0-.5.4-.6.6,0,.2-.2.5,0,.7h.7c.1,0,0-.3.2-.4-.3-.1,0-.4-.1-.6,0-.2-.2-.3-.3-.3h0ZM14.3,27.6c-.1,0-.3,0-.4,0-.2,0-.4,0-.5.2.3.2.6.4.9.6,1.9,1,3.9,2.3,6.9,2.3v-2h-.6c-1.9.4-3.5-.6-5.2-1h0c-.4,0-.8-.1-1.2-.1h0ZM4.6,27.6c-.1.4-.2.8-.3,1.1l.3-.2c1,0,2,.5,3,.7,0,0,.3,0,.3.1.5.2,1,.4,1.2.9.1.3,0,.6,0,.9-.2.3-.4.5-.7.5-1.4.2-2.9,0-4.4-.2-.2,0-.1-.3-.2-.3-.1.5-.1,1-.2,1.5l.2-.2c1.1,0,2.1.2,3.2.3h0c.8,0,1.6.2,2.2-.3.6-.5.7-1.2.7-1.9,0-.6-.5-1.1-.9-1.4-1.3-.5-2.7-.8-4.1-1.2-.2,0-.2-.2-.2-.3h0ZM34.3,28.2h0c.4.4,1.1.3,1.6.1-.5,0-1,0-1.5-.1h0ZM57,28.3c-.7,0-1.5.1-2.1.1-1.3.4-2.7.5-4,.5-.3,0-.8,0-1.1,0v2.4h.4c.5,0,.9-.3,1.3-.4.7-.5,1.6-.6,2.5-.9,1.1-.2,2.3-.3,3.2-1,.2-.2.6-.3.6-.6-.2,0-.5,0-.7,0h0ZM43.8,28.5c0,0-.1,0-.2,0-.5,0-1,.3-1.2.8.4.3,1,.3,1.4.3.2.2-.1.5-.2.7-.2.3-.6.5-.8.8,0,0,.1,0,.2,0h0c0,0,.2,0,.1,0,.4,0,.7-.3,1.1-.4,0,0,0,.1,0,.2-.2.4-.1.9,0,1.3,0,0,0,.2.2.2.2-.9.3-1.8,0-2.7.2-.3.6-.6.6-1h-.3c-.4,0-.6-.4-1-.3h0ZM34.5,28.7c-.1,0,0,.3,0,.4.3,0,.6,0,.9,0,0,0,.3,0,.2-.2h0c0-.2-.2-.1-.3-.1-.2-.1-.6,0-.9-.1h0ZM26.6,29.3c-.4,0-.9,0-1.3,0,0,0-.2.2,0,.2.6.3,1.4,0,2,.2.4,0,.8,0,1.2,0,.1-.4-.4-.3-.5-.4-.4,0-.9,0-1.3,0h0ZM36,29.5c-.3,0-.6,0-1,0,0,0,0,.2,0,.2-.7.3-1,1.2-1.4,1.8-.2.5-.8.2-1.2.2,0,0-.2,0-.2,0,.7-.7,1.2-1.6,2.1-2.1.2,0,.4,0,.6,0h0c-.4,0-.8,0-1.1.1-.7.7-1.3,1.4-2,2h0c1.8.3,3.6.2,5.4.2h0c.5,0,1.2,0,1.6-.2-.1-.1-.3-.3-.5-.4l-1.5-1.6c-.3-.3-.6-.3-.9-.3h0ZM35.9,29.6c.3,0,.6.2.8.3.5.3.9.9,1.3,1.3.1.1.3,0,.4.3h0c-.4,0-.8.1-1.3,0-.4-.7-.7-1.4-1.4-1.9,0,0,.2,0,.3,0h0ZM35.4,29.7c.3,0,.5.5.7.8.1.4.4.7.6,1,0,0,0,.2,0,.2h-1.3c0-.6.2-1.2,0-1.7-.2,0,0,.2-.1.3,0,.4-.2.7-.2,1.1,0,.2.1.3,0,.4-.3,0-.7,0-1,0,.1-.7.6-1.4,1.2-1.9,0,0,.2-.1.2-.1h0ZM26.3,30.1c0,0-.1,0-.2,0-.1,0,0,.2,0,.3.2.4.3.8.6,1.1.2-.3,0-.7.1-1,.3,0,.6.2.9.3,0-.2,0-.3-.1-.5-.2-.3-.6-.2-.9-.2-.1,0-.3,0-.4,0h0ZM66.7,30.3c0,.1,0,.4-.2.4-.4,0-.8.2-1.1.2h0c-1.2.3-2.4.5-3.6.7h-.2c-.1-.2,0-.4-.2-.4,0,.7.2,1.3.3,2h0c0-.2,0-.5.2-.6,1.6-.3,3.2-.6,4.8-.9.2,0,.1.3.4.3l-.2-1.6h-.1ZM27.3,31.2c0,.2-.2.5,0,.7.3,0,.6.2.9.2,0-.3,0-.5-.1-.7-.2-.2-.5-.1-.7-.2h0ZM42.2,31.4c0,0-.2,0-.3.2-.7.2-1.4.6-2.2.6-.1,0-.3,0-.4,0-1.6.1-3,.1-4.6.2h0c-.9-.1-1.9,0-2.8-.2h0c-1.1-.1-2.2-.4-3.2-.7-.2.3,0,.6,0,.9.1,0,.2,0,.4,0h0c0,0-.3,0-.3,0,0,.4.5,0,.7.3,0,0-.2,0-.2,0h0s-.2,0-.2,0c.1.1.4,0,.5,0,0,0,.1,0,.1.1,0,0-.1,0-.2.1,0,0,0,0,0,0,0,0,.2,0,.3,0v.2s0,0,.2,0c-.2,0-.3,0-.5.2.2,0,.6,0,.8,0,0,.2-.3,0-.4.2.2,0,.4-.2.6,0,0,.1-.2.1-.2.2.1,0,.4,0,.5,0-.3.2-.8.2-1.1,0,.1,0,.2-.1.3-.1-.1,0-.5,0-.7,0,0-.2-.3,0-.3-.3,0,0,.1,0,.1-.1,0,0,0,0,0,0-.1,0-.3,0-.4,0,0,0,.1,0,.2,0,0-.1-.2,0-.2-.1,0-.3-.3-.2-.4-.3.1,0,.3,0,.4-.2-.1,0-.3,0-.4,0,0-.4-.5-.3-.8-.4,0,0-.1,0-.1,0,.5.8,1.4,1.5,2.2,2.1.4.5,1,.1,1.6.3.1,0,.3,0,.4,0h0c0,.2.1.1.2.2.2,0,.5,0,.7.1-.4.2-.8,0-1.2,0,0-.1.2,0,.1-.2-.3,0-.6,0-.9,0,.6.7,1.7.4,2.6.5h.1c0,.2,0,.1,0,.1-.2.2-.4,0-.5,0,.7.2,1.4.2,2.1.2.2,0,.5,0,.7,0-.3,0-.7,0-1,0-.3,0-.6,0-.9,0,.6-.2,1.2.1,1.8,0,.3,0,.6,0,.9,0h0c-.2,0-.3.1-.5.2.5.1,1,0,1.4,0h.1c-.1-.2-.3-.1-.4-.2,0,0,.2,0,.3-.1h1.3c0,0,.3,0,.3-.2h-1.1c-.2-.2-.4,0-.6-.2h0c.6,0,1.1,0,1.7-.1h0c-.2-.1-.4-.2-.5-.3.7-.1,1.3,0,2,0h0c-.3-.2-.6-.2-.9-.2-.1,0-.3,0-.4-.2.6,0,1.4,0,2-.1.2,0,.4.1.5,0-.5,0-1.2,0-1.6-.3.9,0,1.8,0,2.6-.2h.1c-.6-.2-1.2,0-1.6-.5h0c.1,0,.3,0,.4,0h1.1s0,0,0,0h.2c0,0,.3,0,.3-.2-.2-.1-.4,0-.6-.1.2,0,.4,0,.6-.2.1-.2-.2-.2-.2-.3,0,0,0,0,.1,0,.2,0,.2-.1.2-.2-.2-.1-.4-.2-.6-.3h0ZM43.7,31.5c-.3,0-.4.4-.5.6.2.2.4-.1.5-.2,0-.2.2-.4,0-.4h0ZM13.9,32.2c-.7,0-1.4,0-2.1.3,0,0,0,0,0,0,.4.3,1,.4,1.5.5.2,0,.5.1.6,0,0-.2.1-.4.2-.6.1-.3-.2-.2-.4-.2h0ZM15.7,32.4c-.3,0-.6,0-.8.1-.7.4-.5,1.9-.4,2.1,0,.4.2.4.5.4.4,0,.9,0,1.7,0,.5,0,1.4,0,1.7.5.6.8.3,1.6,0,2.3,0,.5-.3.9.3,1.4.5.2.8-.4.8-.7,0-1,0-1.3-.5-2.5-.2-.5-1.1-1.6-1-2.8,0-.2,0-.3.2-.5-1.2,0-2-.2-2.6-.2h0ZM57.6,32.6c-.5,0-1,0-1,.2l.4,1c.7,0,1.1-.6,1.7-1,0-.1-.5-.2-1-.2h0ZM21.2,32.6c-.8,0-1.4,0-1.6,0,.6.6,0,1.2.6,1.2.2,0,.4,0,1,0v-1.3ZM55,32.8c-.8,0-1.8.1-2,.1-.5,0-.2.2-.2.5,0,1-.4,1.8-.7,2.8-.3.8-.7,1.5-.8,2.4,0,.3,0,.9.4,1,.4.1.5-.6.6-.9.1-.7-.1-1.6.1-2.3.2-.4.6-.8,1-1,.5-.1,1.1,0,1.6,0s1,.1,1.2-.1c.2-.3.3-1.8-.3-2.3-.1-.1-.5-.1-1-.1h0ZM49.7,32.8c0,1,0,2,0,3,.7-.2,2.4-.7,2.4-1-1,0-1.3-.3-1.2-1.8-.1,0-1-.2-1.3-.2h0ZM64.7,33c-.2,0-.3,0-.5,0-1.1.2-2.3.9-2.5,2-.4,1,.3,2,.3,3,.4-.1.9,0,1.4,0,.4,0,.9,0,1,.5,0-.5,0-1.1,0-1.7,0,.2-.3.4-.6.4-.5,0-1.1,0-1.5-.3-.3-.4-.5-.8-.4-1.3.2-.5.8-.9,1.3-1.2,1.2-.3,2.6-.4,3.4.7.4.4.5,1,.4,1.5-.1.6-.7,1.1-1.2,1.3,0,0-.2,0-.2.1.4,0,.9.1,1.2,0,.6-.8.9-2,.5-3-.5-1.1-1.5-1.9-2.7-1.9h0ZM30.1,34.5c.2,0,.5.1.8,0-.3,0-.6.1-1,0,0,0,.1-.1.2-.1h0ZM32.2,34.8c.4,0,.8,0,1.3,0h0c-.5.1-.9,0-1.3,0h0ZM36.4,35c0,0,.2,0,.3.2,0,.1-.2,0-.3,0-.8.1-2,0-2.8,0h-.2c1,0,2-.2,3.1-.2h0ZM7.9,35.1s0,0,0,0c.9.5.9,1.6.9,2.4,0,.2,0,.5-.3.6l-1.8.2c-.3-.5-.2-1-.2-1.5,0-.1.2-.1.2-.2-.1,0-.3,0-.4,0-.2,0-.5,0-.7,0,.5,0,.3.6.4.9,0,.3.2.6,0,.9-.5,0-1.1.2-1.6.2,0,0-.1-.1-.2-.2,0-.8-.2-1.9.5-2.4h0s0,0,0,0h-.9c0,1.3,0,2.5.2,3.8,0,.1,0,.4.2.4,0-.2,0-.3.2-.4.6,0,1.2-.2,1.8-.3.2,0,.5,0,.7-.1.8,0,1.5-.3,2.3-.3.2,0,.2.4.4.4h0c-.2-1.3,0-2.6-.3-3.9l-1.1-.6s0,0-.1,0h0ZM16.2,35.5c-.4,0-2.1,0-2.4,0-.6,0-.8.3-.8.8.3,12.1,10.2,21.7,22.4,21.7s21.9-9.5,22.4-21.5c0-.3-.2-.5-.6-.5-.4,0-2.4,0-2.7,0-.4,0-.4.6-.4.9-.6,9.7-8.8,17.5-18.7,17.5s-18.3-8-18.7-18c0-.8-.1-.9-.5-.9h0ZM33.6,36.3c-.1,0,0,.2,0,.3.7.2,1.5.2,2.3.2,0-.1-.3,0-.4,0,0-.1.2-.2.3-.3-.2,0-.5-.1-.7,0-.5,0-1,0-1.5,0h0ZM14.8,36.6c.1,0,.3.1.4.2,0,.2.1.3,0,.5,0,.2-.3.2-.4.2-.1,0-.3,0-.4-.2,0-.2,0-.4,0-.5,0,0,.1-.1.2-.1h0ZM55.9,36.7c.2,0,.3,0,.4.1,0,.1,0,.3-.1.4-.2,0-.4,0-.4-.2,0-.2,0-.4.2-.4h0ZM34.5,37.1h-.1c.2.6,0,1-.4,1.4.4.3.9.3,1.4.3.3,0,.7,0,1-.2-.3,0-.6,0-1,0,.2-.3.5,0,.6-.2-.2,0-.4,0-.6,0,0-.2.3,0,.4-.2-.1-.2-.4-.1-.6-.2,0,0,0,0,0,0,.2,0,.5-.1.7-.1,0,0,0,0,0-.1h-.5c0,0,0-.1,0-.1h.2c-.3-.2-.7-.2-1-.2h0ZM54.8,38c.1,0,.3,0,.4.1-.3,0-.5.4-.6.7,0,.2,0,.3.2.4.7,0,.9-1.3,1.7-1,.3.2.5.6.4,1,0,.3-.3.6-.5.7h-.3c.4-.3.6-.7.6-1.1,0-.1-.2-.2-.3-.3-.8,0-1,1.5-1.9.8-.2-.1-.1-.5-.2-.7,0-.3.2-.5.4-.7h0ZM61.6,38.3c0,.5-.2,1.2-.2,1.7.1,0,.2-.2.3-.3.6,0,1.1.4,1.6.8l-.3,1.5c-.1.3,0,.7-.4.9l-1.5.3c-.2,0-.1-.3-.3-.4-.1.3-.2.7-.3,1.1,0,.1-.2.3-.1.4l.2-.2c1.3-.3,2.6-.5,4-.7.9-.2,1.9-.3,2.7-.5,0-.3-.3-.6-.5-.9-1.2-.8-2.6-1.6-3.9-2.4-.4-.4-1.2-.4-1.1-1.2h0ZM13.9,38.4l.3.2c.8.3,1.7.5,2.4.9h0c-.7.8-1.4,1.3-1.9,2,0,0-.2-.1-.2-.2,0-.2,0-.5-.1-.6.2,0,.4,0,.5-.2.2-.2,0-.5,0-.7-.1-.2,0-.6-.3-.7-.1,0-.2-.1-.4,0-.1,0,0,.2-.2.2-.2-.1-.1-.5-.2-.7h0ZM33.4,38.8s-1,.1-1.3.9c1.2.7,2.8.6,4.3.5.3,0,.7,0,.9-.2-.3,0-.6,0-.9-.2.5,0,1.4-.2,1.5-.5,0,0-1,.3-1.4,0,.7,0,.9-.3,1.3-.5,0-.2-.3,0-.5-.1-1.2.7-2.8.5-3.9,0h0ZM15.2,39.3c0,.3,0,.6.2.7.2-.1.4-.3.5-.5-.2,0-.4-.2-.6-.2h0ZM9.5,40.2c0,0,0,.2-.1.3-1.6.4-3.2.8-4.9,1.2-.1,0-.1-.2-.3-.2.2.5.1,1.1.4,1.5.2,0,0-.3.3-.4l1.4-.4c.1,0,.3,0,.3.2.2.8.5,1.5.6,2.3-.2.2-.5.3-.8.4-.4,0-.8.4-1.3.3.1.5.3.9.5,1.3h0c0-.2,0-.3.2-.4,1.4-.5,2.9-1.1,4.4-1.6.2-.1.4,0,.6,0,0-.3-.2-.5-.3-.8,0-.2,0-.5-.2-.6,0,.1,0,.3-.2.4-.7.3-1.5.5-2.2.8h-.1c-.3-.9-.5-1.6-.6-2.4l.2-.2,2.1-.5c.2,0,.2.3.4.3,0-.5-.3-1-.3-1.5h0ZM56.7,40.3c0,.3,0,.7-.1,1,0-.3-.4-.3-.6-.2-.2.3-.3.7-.4,1.1.2.2.3.4.6.4,0,.2-.2.5-.2.8-.2-.7-1-1.2-1.4-1.7-.2,0-.3-.3-.3-.4.8-.3,1.6-.3,2.4-.7h.1ZM63.8,40.8c.3.2.5.2.8.5.1,0,.2.1.3.2.4.2.7.4,1.1.7h0c-.8.3-1.6.4-2.4.5h0c0,0,.3-1.6.3-1.6h0ZM16.8,41.1c.1.3.2.7.4,1,.1.4.4,1.1,0,1.4-.3.2-.6,0-.9-.2-.4.5-.6,1.2-.4,1.8-.2-.4-.4-.9-.3-1.4,0-.4.7-.7.2-1.2,0-.1-.2-.2-.3-.2-.2,0-.5.1-.6.4,0-.3-.3-.5-.3-.8.2,0,.5.1.6,0,.4-.2,1-.3,1.4-.6,0,0,0-.2,0-.3h0ZM55.4,41.3c-.2,0-.5,0-.6.2.1.2.3.4.5.5.1-.2.1-.4.2-.5h0ZM16.8,42s0,0,0,0c-.2,0-.5.1-.6.3.1.3.2.6.4.8.2,0,.4,0,.5,0,.1-.2,0-.4,0-.6,0-.1,0-.4-.3-.4h0ZM53.6,42.2c.1,0,.2,0,.3.1-.2.2-.3.5-.4.7.4.5,1,.6,1.5.8.2,0,.4.1.6-.1,0,.4-.3.6-.4,1,0,0,0-.2,0-.2-.6-.4-1.2-.7-1.8-.9-.2,0-.3.2-.3.3,0,.2,0,.3,0,.4l-.4-.2c.4-.6.6-1.4.9-2h0ZM17.9,44.3c0,0,.2,0,.2,0,.4.7.8,1.4,1.2,2,0,0-.2.1-.2.2-.1-.3-.3-.6-.5-.8-.6.1-1.1.5-1.6.8,0,.1-.3.2-.2.4-.2-.2-.3-.5-.4-.8.3,0,.6-.1.8-.3.3-.3.8-.4,1-.7,0-.3-.2-.6-.5-.8,0,0,.1,0,.2,0h0ZM60.2,44.5c0,0,0,0-.1.1,0,.4-.4.7-.4,1,0-.1.2-.2.4-.2l1.3.5c.7.4,1.6.4,2.2,1h0c-1.3.5-2.7,1-3.9,1.4h0c-.5.2-1,.4-1.6.5-.1,0-.3.2-.2.3.5.3,1.1.6,1.7.8h0c1.1.6,2.2,1,3.2,1.6,0,.2,0,.3,0,.5h.1c.2-.5.5-.8.7-1.3-.2,0-.2.3-.4.2-.7-.2-1.3-.6-2-.9-.4-.2-1-.4-1.4-.8h0c1.7-.7,3.3-1.1,5-1.7.5-.4.5-1,.8-1.6h0c-.3.3-.6.6-1.1.6-1.1-.5-2.3-.9-3.4-1.4-.3-.3-.9-.2-.9-.7h0ZM52.6,44.7v.2c.7.4,1.3.7,2,.9,0,0,.2,0,.3,0-.1.2-.2.4-.3.6-.5-.5-1.3-.7-1.9-1.1h-.3c0-.2.2-.4.3-.6h0ZM52.2,46c0,0,.2,0,.3,0h0c.1.4,0,.8.2.9.5.1,1.1,0,1.5-.3-.4.7-1.2.7-1.9.7-.1.1-.3.3-.3.5.3.1.6.6,1,.4-.2.2-.3.5-.5.7,0-.5-.6-.6-.9-1l-.7-.5c-.1,0-.2,0-.3,0h0c.5-.5.8-1.6,1.5-1.5h0ZM11.5,46.3c0,0,0,.2,0,.3-1.3.7-2.7,1.4-4,2.1,0,0-.3.2-.4,0-.1-.5-.8-1-.4-1.6-.3,0-.6.2-.8.3h0c.7,1.5,1.5,3,2.3,4.5.3,0,.6-.3.9-.4-.1,0-.2,0-.4,0-.4-.5-.6-1-.9-1.5h0c1.4-.8,2.7-1.6,4.1-2.2.1,0,.2.3.4.2h0c-.3-.6-.5-1.1-.7-1.5h0ZM51.9,46.4c-.3.2-.5.5-.6.8.1.2.4.4.6.4.3-.3.6-.6.4-1,0-.1-.3-.3-.4-.2h0ZM19.7,46.8c.5.5.8,1.1,1.3,1.6,0,.2-.3.2-.4.3,0-.4-.4-.8-.7-1.1-.3-.2-.4.2-.6.3,0,0,0,0,0,.1.2.2.3.5.6.6,0,.1-.2.2-.4.3,0-.3-.2-.5-.4-.7-.3,0-.4.3-.6.4,0,.5.5.8.8,1.1h.1s0,0,0,0c0,0,.2,0,.2,0,0,0-.2,0-.4,0,0,0-.2,0-.3,0-.4-.6-.9-1.1-1.3-1.8.3.2.6-.2.9-.3.4-.3.7-.6,1.1-.9v-.2ZM50.1,48.3c.2,0,.3.2.4.3-.3,0-.5,0-.7.3-.2.1-.3.3-.3.5.1.2.4.5.5.5.1-.1.4-.3.4-.6.1,0,.3.2.4.3-.2,0-.4.2-.5.4,0,.3.3.4.5.6.4,0,.5-.5.8-.7,0-.1,0-.3.1-.4.5.6-.4.9-.6,1.3-.2.2-.3.3-.5.5,0-.5-.5-.6-.6-1-.4-.3-.6-.7-1.1-.8l1.2-1.3ZM21.7,49.5c.6,0,1,.6,1.2,1,.1.3-.3.3-.4.5,0-.3.1-.6,0-.9-.1-.2-.3-.3-.5-.3-.1,0-.2,0-.3.2,0,.6.5,1.4-.2,1.9-.6.2-1-.3-1.3-.7l-.2-.5c.1,0,.3-.2.4-.3-.2.3,0,.6,0,.9.2.2.4.4.7.3.6-.6-.6-1.7.5-2.1h0ZM48.6,49.9c0,1,.4,1.9.5,2.9-.8-.3-1.5-.7-2.3-1.1h-.4c.2-.2.5-.4.7-.6,0,0,0,.2,0,.2.4.2.9.6,1.4.7.1-.2,0-.4,0-.6,0-.4-.1-.9-.5-1,0-.2.3-.4.5-.5h0ZM23.5,51.9c.2,0,.3,0,.4.1.1.1,0,.3,0,.5,0,.1-.3.2-.4.1-.1,0-.2-.2-.2-.4,0-.1,0-.3.2-.4h0ZM26.2,52.6c0,0,.1,0,.2,0,.4,0,.7.4,1,.7,0,.2-.2.4-.3.5,0-.4-.2-.8-.5-1-.1,0-.3,0-.4,0-.2,0-.1.3,0,.4.3.5.7,1,.6,1.6-.2.3-.6.3-1,.2-.4-.1-.8-.5-.9-.9,0-.1.2-.3.3-.4,0,.4.2.9.6,1.1,0,0,.3,0,.4,0,.2-.2.1-.4,0-.6-.3-.4-.7-.9-.5-1.4.1-.2.3-.2.5-.2h0ZM46.3,52.7c.1,0,.3,0,.4.2,0,.2,0,.3-.2.4,0,0-.3,0-.4,0-.2,0-.1-.3-.1-.5,0,0,.1-.2.2-.2h0ZM44,53.1c.6.4,1.2.8,1.8,1.2.2.1.3.2.5.1-.2.2-.5.5-.8.5h0c0-.1,0-.3-.2-.4-.4.2-.9.3-1.1.6,0,.2,0,.4.2.4-.2,0-.4.2-.6.3v-.2c.2-.9,0-1.7.2-2.5h0ZM42.5,53.7c-.3.5.2,1,.3,1.5.2.3.2.7.6.8-.2.2-.5.2-.8.4,0,0,0-.1,0-.2-.2-.7-.4-1.4-.7-2.1l-.2-.2c.2-.1.5-.3.7-.3h0ZM44.3,53.8c-.1.2,0,.4,0,.7.2.2.5-.2.7-.3-.1-.2-.4-.4-.6-.4h0ZM28.9,53.9c.5,0,.9.2,1.3.6,0,.1,0,.3-.2.4,0-.4-.5-.6-.8-.7-.4,0-.7.2-.9.5-.1.3-.2.6-.1.9,0,.3.3.5.6.6.3,0,.7,0,.9-.4h0c0,.2-.1.4-.2.6-.4.2-.8,0-1.1,0-.4-.3-.6-.6-.7-1.1,0-.6.3-1,.7-1.3.2,0,.3,0,.5,0h0ZM41.2,54.1c.1.1,0,.3.2.5-.3-.2-.6,0-.8,0-.1.1,0,.4,0,.5.1.5.2,1,.4,1.4,0,0,.2.2.3.1,0,.1-.2,0-.3.1-.2,0-.4,0-.6,0,.2,0,.3-.4.2-.6l-.4-1.4c-.2-.2-.4,0-.6,0-.2,0-.4,0-.4.3-.1-.1,0-.3,0-.4.6-.1,1.3-.3,1.9-.5,0,0,.1,0,.2,0h0ZM31.3,54.5l.8.2c0,0-.3.2-.3.3-.2.6-.3,1.3-.4,2l.2.2c-.3,0-.6,0-.9-.2.4-.3.4-.8.5-1.2,0-.4.3-.9,0-1.2h0ZM38.7,54.8c-.1,0,0,.3-.1.4,0,.7.1,1.4.1,2.1h0s-.1,0-.1,0c-.6-.6-1.2-1.2-1.7-1.8h-.1c0,.7-.3,1.5.4,1.9-.2,0-.6,0-.8,0,.1,0,.2-.2.3-.3,0-.6,0-1.2,0-1.8,0-.2-.3-.1-.5-.2.5,0,.7-.2,1.1,0,.4.4.7.9,1.2,1.2,0,0,.1,0,.1-.2,0-.4,0-.9-.3-1.1h0c.2,0,.4-.2.7-.2h0ZM33.1,54.8c.6,0,1.3.2,1.9.2h0c.2,0,.1.2.2.3,0,0,0,.2,0,.3-.2-.5-.9-.3-1.3-.4-.2.2-.2.5-.2.8.3,0,.7.2,1,0,0,.2,0,.4,0,.5-.3-.3-.6-.2-1-.2-.1.2-.2.6,0,.8h.1c.5.2,1.2.4,1.6-.1,0,.2-.2.4-.3.6-.7,0-1.4-.1-2.1-.2.2,0,.4-.3.3-.5,0-.7.2-1.3,0-1.9h-.1ZM43.2,60.6c-.1.1-.3.2-.5.3-.7,0-1.4,0-1.9.4-.3.2-.5.5-.9.5-.1.3-.1.7-.2,1,.2-.4.5-.6.9-.8.6,0,1.2-.1,1.8-.4.2.2-.1.4-.2.7-.3.9-.7,1.7-.7,2.7,0,.6,0,1.2.6,1.6.3,0,.6-.4.8-.6-.4,0-.3-.5-.4-.8-.2-1.5.1-3.2.7-4.5h0ZM28.6,60.8c-.5.3-.9.6-1.4.8h0c0,0,.2,0,.3.2-.3,1.3-.6,2.7-1.1,4,0,.2-.3.2-.4.2h0c.5.2,1,.3,1.5.4,0-.2-.3-.2-.3-.4l1.2-4.3c.2-.2.1-.5.2-.8h0ZM32.5,61.4c-.6,0-1.2.2-1.6.7-.1.3-.2.9.1,1.1.2.2.4.4.5.7-.5.3-1.3.3-1.6.9-.2.5-.2,1.1.1,1.5.2.2.4.4.7.5.6.5,1.7.7,2.5.4.4-.2.8-.5.9-.9.2-.9-.4-1.5-1-2,0-.2.3-.2.5-.3.4-.3,1-.5.9-1.1,0-.6-.6-1-1-1.3-.3-.2-.7-.3-1.1-.3h0ZM37.6,61.6s-.1,0-.2,0c-.2.3-.6.5-.9.8.1,0,.3,0,.4.2.2,1.3.2,2.7.3,4v.3c0,.1-.2.2-.4.2h0c.5,0,1.1,0,1.6,0-.2,0-.3,0-.4-.2-.1-1.6-.2-3.2-.3-4.8,0-.1,0-.5-.1-.5h0ZM32.6,61.8c.4,0,.7.3,1,.6.2.2.2.5.1.8-.2.4-.6.6-1,.7-.5,0-.8-.4-1-.8,0-.3-.1-.7,0-.9.2-.2.4-.4.7-.4,0,0,.1,0,.2,0h0ZM31.8,64.3h.3c.5.5,1.1,1,1.1,1.8,0,.4-.2.7-.6.9-.6.1-1,0-1.5-.3-.4-.4-.5-1-.3-1.5.2-.5.6-.7,1-.9h0Z"/>
</svg>