<?xml version="1.0" encoding="UTF-8"?>
<svg id="Layer_1" xmlns="http://www.w3.org/2000/svg" version="1.1" viewBox="0 0 372.6 72">
  <!-- Generator: Adobe Illustrator 30.6.0, SVG Export Plug-In . SVG Version: 2.1.4 Build 109)  -->
  <defs>
    <style>
      .st0 {
        fill: #052b4f;
      }

      .st1 {
        fill: #feca06;
      }
    </style>
  </defs>
  <polygon class="st1" points="70.7 51.7 70.7 31.4 50.1 59.4 29.7 31.3 29.7 51.7 37.8 51.8 37.8 72 0 72 0 51.7 7.7 51.7 7.7 20.3 0 20.3 0 0 29.7 0 50.2 28.4 70.6 0 100.3 0 100.3 20.3 92.7 20.3 92.7 51.7 100.3 51.7 100.3 72 62.6 72 62.6 51.7 70.7 51.7"/>
  <path class="st0" d="M344.1,44.3v20.5c0,1.1.4,2.4,1.3,3,1.3.8,2.9.7,4.3.9.1.6,0,1.3,0,1.9h-29.5s0-1.9,0-1.9c1.2-.1,2.9,0,3.7-1.1s.3-2.3,0-3.2l-1.1-3.7h-12.3s-1.5,4.5-1.5,4.5c-.4,1.3.2,2.5,1.5,3s2,.4,3.1.5v1.9s-14.4,0-14.4,0v-1.9c4.6,0,5.2-1.9,6.5-5.5l2.2-6.1,1-2.6,2-5.5,2.6-7.4,1-2.6c.2-.6.3-1-.4-1.7,2.4-.6,4.9-1.5,7-3.1l1.3,4.1,8.6,26.2c.4,1.1.8,2.2,1.7,3,1.6,1.4,4.2,1.6,6,.5s.8-1.4.9-2l.5-14.5v-11.5c-1.2-1.5-3-2.4-5.1-2.3.2-.7.2-1.2.1-1.9h10.7s6.1,8.3,6.1,8.3l12.2,15.1v-16.5c0-1.2,0-2.3-.3-3.4-1-1.6-3.2-1.6-5.3-1.5v-2s13.7,0,13.7,0c0,.6,0,1.3,0,2-1.1,0-2.5,0-3.3.9s-.7,1.8-.8,2.9l-.6,29.6h-1.9c-.7-.2-.8-.7-1.2-1.2l-20.6-25.5ZM322,57l-4.9-14.3-5.1,14.4h10Z"/>
  <path class="st0" d="M134.9,71.1h-3.3c0-.5-.2-.8-.4-1.2l-2.8-6.9-1.2-3-5.4-13.1-1.2-2.9-.2,21.8c0,1,.4,2,1.2,2.4s1.9.5,2.8.6c0,.6,0,1.2,0,1.9h-12c-.1-.6,0-1.2,0-1.9,1,0,2.2,0,3.1-.7s1-1.8,1-2.8l.2-3.7.5-15.5v-6.3c0-.8-.4-1.6-1.1-1.9s-1.8-.3-2.9-.3c.3-.7.2-1.2,0-1.9h11.2s10.9,26.3,10.9,26.3l10-22,2-4.4h10.6c.1.7.1,1.4,0,2.1-.9,0-1.8,0-2.7.4s-1.4,1.3-1.4,2.4v18.4s.2,7.2.2,7.2c0,1.9,1.8,2.6,3.8,2.6.1.6.1,1.2,0,1.9h-15.4c.2-.6.2-1.2,0-1.9l2.8-.4c.8-.1,1.4-.8,1.4-1.7.3-.8.2-1.6.3-2.5v-19.7c0,0-12.2,26.6-12.2,26.6Z"/>
  <path class="st0" d="M226,68.7c.3.6.2,1.3,0,1.9h-14.7c-.2-.6-.1-1.3,0-1.9,1.1-.1,2.4-.2,3.3-1,.2-.4.6-1.2.6-1.7v-23.8c0-1.3,0-2.8-.7-3.7s-2.2-.8-3.2-.9c-.1-.6,0-1.2,0-1.9h14.9c.2.6.1,1.2,0,1.9-2.1.2-3.8.2-4.2,2l-.3,4v6.9c5.4.3,10.7.3,16.3,0v-8.3c0-.8-.1-1.6-.4-2.4,0-1-.7-1.7-1.7-1.8l-2.8-.4v-1.8s15.1,0,15.1,0v1.8s-2.2.4-2.2.4c-1.8.4-1.9,2.2-1.9,4.5v17.7s.2,6.4.2,6.4c0,1.6,2,2.1,3.8,2.2v1.9s-15.2,0-15.2,0v-1.9s2.9-.5,2.9-.5c.5,0,.9-.4,1.3-.8.4-1,.6-2,.6-3.1v-9.7c-4.8-.3-9.4-.3-14.1-.1h-2.1c0,0,.1,10.5.1,10.5,0,1,.2,2.2,1,2.9s2.1.7,3.4.8Z"/>
  <path class="st0" d="M291.4,59.4c-.3-2-2.3-2.1-4.4-2.2v-2s14.1,0,14.1,0v1.9c-1.8,0-3,.7-3,2.3l-.2,8c-4.2,2.9-9,4.3-14.1,4.2s-10.1-2.1-13.3-6.2-3.6-6.6-3.8-10.6.8-9.7,3.7-13.6c5.9-7.9,17.5-8.2,25.5-2.4l1.9-2,.2,10.9-1.5.2c-.7-2.3-1.9-4.2-3.4-5.9s-2.8-2.7-4.9-3.3c-4.7-1.3-9.4.5-11.9,4.8-4.3,7.5-2.8,21.6,5.6,24.4s7,.1,9.1-2.7.6-3.8.3-5.7Z"/>
  <path class="st0" d="M197.1,67.3c4.5-.3,7-2.3,9.5-6l2.1,1.6-2.4,3.4c-4.2,4.7-9.6,5.8-15.8,5.1s-4.4-1.2-6.3-2.4c-4.1-2.6-6.9-7.4-7.5-12.3s-.2-4.1,0-6.2c.3-3,1.4-5.6,3-8.1,3.1-4.9,8.2-7.4,14.2-7.5s8.4,1.2,11.7,4.2l2.5-2,.2,10.3c-.2.4-1.2.5-1.6.3-1-3.5-4.4-7.5-7.6-8.7-4.7-1.8-9.8.1-12.4,4.4s-3,12.9,0,18.1,6.2,6.2,10.7,5.9Z"/>
  <path class="st0" d="M265.6,70.7h-14.5s0-1.9,0-1.9c1-.2,2.1-.2,3-.8s1.2-1.5,1.1-2.6v-23.3c0-1.2-.2-2.7-1-3.5s-2.1-.8-3.1-.9v-1.9s14.5,0,14.5,0c.1.6.1,1.2,0,1.9-.9.1-1.7,0-2.6.5s-1.4,1.5-1.4,2.6v24.5c0,1,.2,2,.8,2.6s2,.8,3.1.9c.2.6.1,1.3,0,1.9Z"/>
  <path class="st0" d="M175.9,70.7h-14.5s0-1.9,0-1.9c.9-.2,1.8-.2,2.7-.7s1.4-1.6,1.4-2.7v-20.9s-.3-4.6-.3-4.6c-.1-1.6-2-2.1-3.9-2.2v-1.9s14.5,0,14.5,0c.2.6.1,1.2,0,1.9-1,.2-1.9.1-2.8.6s-1.2,1.6-1.2,2.7v24.5c0,1,.3,2,1.1,2.6s1.9.7,3,.7v1.9Z"/>
  <path class="st0" d="M353,18.2c-2.2,6.1-8.9,8.4-15.1,6.4s-4.1-2.2-5.4-4.2c-3-4.4-3-10.4,0-14.8s7.7-5.2,12.4-4.2c7.5,1.7,10.6,9.6,8,16.7ZM345.9,21.6c1.4-1.4,2.3-3.3,2.7-5.3.8-4.1.1-9.1-3.1-11.8s-4.9-1.6-6.9.2c-3,2.7-3.4,7.4-2.7,11.4s1.5,4.3,3.1,5.7,4.9,1.8,6.9-.3Z"/>
  <path class="st0" d="M160.3,24.8c-1.4.7-1.8-.5-2.7-1.6l-13-16v13.4c0,.7.2,1.5.7,2,.9.5,1.9.6,3,.7.2.4.2.8,0,1.3h-9.3c-.1-.5-.1-.9,0-1.3.8,0,1.7,0,2.3-.5s.6-1.1.6-1.7l.4-15.7c0-.9,0-1.3-.8-1.7s-1.4-.9-2.4-.9c-.1-.5-.1-.8,0-1.3h6.9s4.7,6.2,4.7,6.2l7.5,9.3V5.6s-.2-1.4-.2-1.4c-.1-1.3-1.9-1.3-3.5-1.4,0-.4,0-.8,0-1.2h9c.1.4.1,1.1-.1,1.2-.7,0-1.4,0-1.9.5s-.7,1.1-.7,1.8l-.4,19.8Z"/>
  <path class="st0" d="M228.9,14.3l.2,7.1c0,.6.3,1.2.7,1.5s1.1.5,1.9.4c.2.4.2.8,0,1.3h-9.8s0-1.3,0-1.3c.8,0,1.6,0,2.3-.5s.7-1.2.7-1.9V5.4c0-.7,0-1.6-.6-2s-1.6-.5-2.3-.6v-1.3s12,.1,12,.1c1.9,0,3.7.7,4.9,2.1s1.5,3.9.7,6-2.1,3.1-4.1,3.8l4.9,8.5c.7,1.2,1.8,2.1,3.2,2.2,0,.2,0,.6,0,.8-4,.3-7-.4-8.8-4.1l-2.5-5.1c-.8-1.5-1.7-1.7-3.4-1.6ZM235.8,8.7c.2-1.8-.4-3.5-2-4.3s-3.3-.9-4.9-.6v8.5c3.2,1,6.6-.8,6.9-3.5Z"/>
  <path class="st0" d="M128.5,2.9c-.1-.5-.1-.9,0-1.4h8.7c.2.4.2,1.2-.2,1.3-.7,0-1.3,0-1.8.4s-.6.9-.6,1.5l-.4,8.8c-.2,4.4-.5,8.5-4.9,10.6s-10.4,1.3-13-2.5-1.4-3.3-1.4-5.1V5c-.1-.7-.4-1.4-.7-1.7-.6-.4-1.2-.5-2-.4,0-.4,0-.8,0-1.3h10.3c0,.4,0,.8,0,1.2-.8,0-1.6,0-2.3.5s-.7,1.1-.7,1.7v11.5c0,1.8.7,3.5,1.9,4.8s2.9,1.6,4.6,1.5c4.3-.4,5.7-4.4,5.7-8.5V4.7c0-1.3-1.3-2-3.1-1.8Z"/>
  <path class="st0" d="M208.7,13.8v6.7c0,1,.7,1.7,1.7,1.9,1.7.3,3.4.3,5.1,0s2.9-1.8,3.2-3.6.9-.3,1.2-.1l-.5,5.9h-17.7c0-.5,0-.9-.2-1.3.8,0,1.6-.1,2.3-.5s.6-1,.7-1.5V5.4c0-.7,0-1.7-.6-2.1s-1.5-.4-2.2-.5c0-.5,0-.8-.1-1.3h16.7s.1,5.4.1,5.4c-.4.1-.7,0-.9,0-.3,0-.2-3.2-3.3-3.2h-5.5c0-.1,0,8,0,8h4.1c2-.1,1.8-2.4,2.2-2.6s.9-.1.9.2v7.3c-.4.2-.9.2-1.2,0,0-.7,0-1.3-.3-1.8s-1-.7-1.7-.7h-4Z"/>
  <path class="st0" d="M247.7,24.4l-3-2c-.5-.3-.7-.6-.7-1.2l-.3-3.8c.5-.1.8-.2,1.3,0,.6,1.9,1.6,3.6,3.3,4.7s6.2,1.3,7.6-.8.7-2.6,0-3.7l-1-1c-1.7-1.7-6.9-1.8-9.2-5.1s-1.5-6.7,1.2-8.8,7.1-2.1,10.3-.2l1.5-.9.7,6.6c0,.3-.9.5-1.1.4-1-4-3.4-6-7.5-5.3s-2.7,1.6-2.5,3.3.9,2.3,2.1,2.8l4.1,1.6c1.3.5,2.6,1,3.7,2,1.8,1.7,2.5,4.1,1.9,6.6s-2,3.9-4.2,4.9-4.4.9-6.7.4-.8-.1-1.3-.5Z"/>
  <path class="st0" d="M317.1,4.4l-2.5,3.7-3.5,5.8v7.2c0,.6.3,1.3.8,1.7.8.5,1.7.5,2.7.5,0,.4.1.8,0,1.3h-11.3c-.1-.5-.1-.8,0-1.3l2.4-.4c.8-.1,1-1.1,1-1.8v-6.2s-6.9-10.6-6.9-10.6c-.7-1.1-1.8-1.5-3-1.5-.3-.1-.4-.9-.3-1.3h12.2s0,1.2,0,1.2c-1,0-2,0-3,.4s-.6,1.1-.3,1.7l4.2,7c.9-.7,1-1.6,1.5-2.3l1.5-2.6c.5-.9,1.3-1.9,1.3-3s-1.4-1.3-2.2-1.2c-.3-.2-.4-.9-.2-1.3h8.8c1,1.9-1.7.7-3.2,2.8Z"/>
  <path class="st0" d="M192.7,1.5h8c.1.4.1.8,0,1.2-1.3.2-2.3.9-2.9,2.2l-8.4,19.9c-.4.2-.7.4-1.2.5l-2.7-7.1-1-2.8-2.1-5.5-2.1-5.5c-.7-1.8-3.2-.9-2.5-2.8h10.8c.1.4.2.8,0,1.2-.9.1-2.2,0-2.8.8s0,1.8.2,2.5l4.4,12.8,2.5-6.3,2.9-7.8c.3-.8-.4-1.6-1.1-1.8s-1.3-.2-1.9-.2v-1.3Z"/>
  <path class="st0" d="M288.8,24.6h-9.3c-.1,0-.2-.7,0-.8.3-.4,2.7,0,2.7-2.3V4s-4.6,0-4.6,0c-1.3,0-2.3.8-2.5,2.1l-.3,1.9c-1,.2-1.6,0-1.4-.3l.3-.3.2-5.9h21s.2,6.3.2,6.3c-.2.3-1,.3-1.1,0-.3-1-.3-2.1-.9-2.9s-1.7-1-2.6-1h-3.9s0,17.5,0,17.5c0,2.3,2.5,1.9,2.7,2.3s0,.8-.2.8Z"/>
  <path class="st0" d="M368.5,16.7c0-1.5-1.1-2.7-2.6-2.7h-4.1s0,7.6,0,7.6c0,2.2,2.6,1.6,2.7,2s.1.7,0,1.1h-9.2c-.3,0-.3-.7-.3-1,.2-.7,1.7-.2,2.3-1s.4-.9.4-1.5V5.3c0-.7,0-1.5-.5-1.9s-1.3-.5-2.1-.4c-.2-.4-.2-.8,0-1.3h16.9s.4,5.5.4,5.5c-.4.2-.8.2-1.2,0-.2-.9-.4-1.9-1.1-2.6s-1.4-.8-2.1-.8h-6.1s0,8,0,8h4.7c2.4,0,1.2-3.4,3.1-2.6v7.4c-.3,0-.5.1-1.1,0Z"/>
  <path class="st0" d="M271.2,24.6h-9.4c-.2-.3-.2-.9,0-1.1s.5-.3.8-.3c1.2,0,1.9-.9,1.9-2.1V6c0-.9,0-1.9-.7-2.6s-1.3-.4-1.9-.7c-.2-.3-.2-.8,0-1.2h9.4c.2.3.1.7.1.9-.1.7-2.7-.1-2.7,2.4v16.3c0,.7.2,1.3.6,1.7s1.1.4,1.8.6.4.9.1,1.2Z"/>
  <path class="st0" d="M165.9,24.6l-.2-1.3c.9,0,1.8-.1,2.5-.8.2-.3.5-1,.5-1.5V5.6c0-.6-.2-1.6-.5-2-.5-.7-1.5-.6-2.3-.8,0-.4,0-.8-.2-1.3h9.8c.1.4.1.8,0,1.1s-.5.2-.8.2c-1.1,0-1.8.8-1.8,1.9v16.1c0,.7.1,1.4.6,1.8s1.1.6,1.8.6.5,1.2.2,1.2h-9.4Z"/>
</svg>