<?xml version="1.0" encoding="UTF-8"?>
<svg id="Layer_1" xmlns="http://www.w3.org/2000/svg" version="1.1" viewBox="0 0 147.5 72">
  <!-- Generator: Adobe Illustrator 30.6.0, SVG Export Plug-In . SVG Version: 2.1.4 Build 109)  -->
  <defs>
    <style>
      .st0 {
        fill: #73000a;
      }
    </style>
  </defs>
  <g>
    <path class="st0" d="M2.6,69c.7.8,1.9,1.5,3.2,1.5s3-1.1,3-2.8-.9-2.3-2.3-2.9l-2.8-1.3c-1.8-.8-3.1-1.9-3.1-4s2.1-4,5.8-4.8c1.6,0,3.3.5,4.5,1.4v3.4h-1.4l-.7-2.1c-.6-.7-1.4-1.2-2.8-1.2s-2.8,1-2.8,2.3.8,1.9,2,2.5l2.9,1.3c2.2,1,3.5,2.2,3.5,4.4,0,2.4-1.8,4.3-6.1,5.3-2,0-3.6-.6-4.9-1.6l-.5-3.4h1.8l.8,2.1h0Z"/>
    <path class="st0" d="M24,65.4c0,3.7-2.4,5.9-6,6.5-3.1,0-5.3-2.7-5.3-6s2.4-5.9,6-6.5c3.1,0,5.3,2.7,5.3,6h0ZM18.7,70.7c1.6,0,2.4-1.9,2.4-4.5s-1.3-5.5-3-5.5-2.4,1.9-2.4,4.5,1.3,5.5,3,5.5Z"/>
    <path class="st0" d="M35.6,68.5c0,1,.1,1.3.3,1.7h1.1v.9c0,0-3.3.6-3.3.6l-.7-2-3.4,2.1c-3,0-3.7-1-3.7-3.7v-6.8h-1.5c0,.1-.1-.9-.1-.9l2.9-.6h1.4c0,0,0,8.3,0,8.3,0,1.1.5,1.6,1.5,1.6s1.4-.5,2.2-1l.4-.3v-7.1h-1.3c0,.1-.1-.9-.1-.9l2.7-.6h1.4c0,0,0,8.6,0,8.6h0Z"/>
    <path class="st0" d="M49.1,70.4l1.2.3v.9c-.1,0-2.5,0-2.5,0h-2.8c0,0-.1-.9-.1-.9l1.5-.3v-13.6h-1.5s-.1-.9-.1-.9l3-.7h1.3c0,0,0,6.5,0,6.5l3.5-2.2c2.9,0,3.5,1,3.5,3.9v7l1.6.3v.9c-.1,0-2.9,0-2.9,0h-2.4c0,0-.1-.9-.1-.9l1.1-.3v-7.2c0-1.1-.5-1.6-1.4-1.6s-1.5.5-2.3,1l-.6.4v7.4h0Z"/>
    <g>
      <path class="st0" d="M77.7,66.5l-.5,3.8c-1.3.6-3.3,1.4-5.6,1.8-3.6,0-7.9-2.9-7.9-8.3s3.9-8.2,8.5-8.9c2.4,0,4.1,1,5.2,1.7v3.5h-1.5l-.7-2.2c-.6-.7-1.5-1.7-3.4-1.7-3.2,0-4.8,2.5-4.8,6.9s1.5,7.6,5.3,7.6,2.1-.8,2.9-1.4l1.2-2.7h1.4Z"/>
      <path class="st0" d="M83.6,59.5c3.1,0,4,.8,4,3.7v5.8c0,1,.1,1.4.4,1.8h1.1v.9c.1,0-3.4.3-3.4.3l-.7-2-2.7,2c-2.1,0-3.6-1.2-3.6-3.1s.4-1.6.9-2.3l5.3-1.7v-1.9c0-1.4-.2-2.1-1.3-2.1s-1.2.2-1.7.4l-.4,2h-2.4v-2l4.5-1.9h0ZM84.8,65.9l-3,1.2c-.4.4-.5.9-.5,1.4,0,1.2.7,1.6,1.3,1.6s1.1-.3,1.4-.5l.8-.6v-3.1Z"/>
      <path class="st0" d="M93.9,63.1l2.6-3.5h2.3l-.7,2.7h-1.7c-.6.2-1.4.9-2,1.6l-.4.5v6l2.5.2v1c-.1,0-3.8,0-3.8,0h-2.8c0,0-.1-.9-.1-.9l1.5-.3v-9h-1.5c0,.1-.1-.8-.1-.8l2.9-.7h1.1c0,0,.1,3.3.1,3.3h0Z"/>
      <path class="st0" d="M109.7,65.4c0,3.7-2.4,5.9-6,6.5-3.1,0-5.3-2.7-5.3-6s2.4-5.9,6-6.5c3.1,0,5.3,2.7,5.3,6h0ZM104.4,70.7c1.6,0,2.4-1.9,2.4-4.5s-1.3-5.5-3-5.5-2.4,1.9-2.4,4.5,1.3,5.5,3,5.5Z"/>
      <path class="st0" d="M112.7,71.5h-2.8c0,0-.1-.9-.1-.9l1.5-.3v-13.6h-1.5s-.1-.9-.1-.9l3-.7h1.3c0,0,0,15.2,0,15.2l1.6.3v.9c-.1,0-2.9,0-2.9,0h0Z"/>
      <path class="st0" d="M119.6,71.5h-2.8c0,0-.1-.9-.1-.9l1.5-.3v-9h-1.5c0,0-.1-.8-.1-.8l3-.7h1.3c0,0,0,10.6,0,10.6l1.6.3v.9c-.1,0-2.9,0-2.9,0h0ZM118.3,55.4h1.9c0-.1.7,0,.7,0v1.4c.1,0-.1,1.2-.1,1.2h-1.9c0,.1-.7,0-.7,0v-1.4c-.1,0,.1-1.2.1-1.2h0Z"/>
      <path class="st0" d="M126.5,71.5h-2.8c0,0-.1-.9-.1-.9l1.5-.3v-9h-1.5c0,.1-.1-.8-.1-.8l3-.7h1.2c0,0,0,1.9,0,1.9l3.5-2.3c2.9,0,3.6.9,3.6,3.7v7.2l1.6.3v.9c-.1,0-2.9,0-2.9,0h-2.4c0,0-.1-.9-.1-.9l1.1-.3v-7.2c0-1.1-.5-1.6-1.4-1.6s-1.5.5-2.3,1l-.6.4v7.4l1.1.3v.9c-.1,0-2.5,0-2.5,0h0Z"/>
      <path class="st0" d="M141.8,59.5c3.1,0,4,.8,4,3.7v5.8c0,1,.1,1.4.4,1.8h1.1v.9c.1,0-3.4.3-3.4.3l-.7-2-2.7,2c-2.1,0-3.6-1.2-3.6-3.1s.4-1.6.9-2.3l5.3-1.7v-1.9c0-1.4-.2-2.1-1.3-2.1s-1.2.2-1.7.4l-.4,2h-2.4v-2l4.5-1.9h0ZM143.1,65.9l-3,1.2c-.4.4-.5.9-.5,1.4,0,1.2.7,1.6,1.3,1.6s1.1-.3,1.4-.5l.8-.6v-3.1Z"/>
    </g>
    <path class="st0" d="M44.2,69.6c-.5.2-.9.4-1.5.4-.9,0-1.2-.7-1.2-1.4v-7.7h2.7v-1.1h-2.7v-2.9h-.8l-1.8,1.6v1.1h-1.1l-.9.9v.4h1.9v7.9c0,2.3.9,3.1,3.3,3.1l1.9-1.1.2-1.2h0Z"/>
  </g>
  <g>
    <path d="M86.5,24.3v-2.9s-3.2-3.9-7.7-3.9-5,2-5,2c0,0-1.6-2-5-2s-7.7,3.9-7.7,3.9v2.9s3.7-5.9,9-5.9,3.7,1.8,3.7,1.8c0,0,1.7-1.8,3.7-1.8,5.3,0,9,5.9,9,5.9h0ZM75.9,28.7h0l.9-2.2h-.9l.9-2.2h-.9l.7-1.8c1.8.7,3.1,3.2,3.1,3.2v-2.1c-1.5-2.1-3.9-1.5-3.9-1.5l-.9,2.2h.9l-.9,2.2h.9l-.9,2.2h0v7.9l1.5,2.4h1.1l-1.5-2.5h2.3v-.5h-2.4v-7.2h0ZM75.8,20.3c5.4,0,7.1,5.2,7.1,5.2v-2.8c-1.8-2.3-3.5-2.7-5-2.8-1.2,0-2.1.4-2.1.4h0ZM84.6,27.5l.5-1.1h-5.9l.5,1.1h5,0ZM93,32.5v1h-2v-2.4h-1.1v2.4h-2v-3.8h-1.1v3.8h-2.1v-5.3h-5v10.8h1.1v-9.7h2.9v9.7h1.1v-4.9h2.1v4.9h1.1v-4.9h2v4.9h1.1v-4.9h2v4.9h1.1v-6.5h-1.1,0ZM73.8,11.2c0-.6,2.7-6.1,7.3-7.4V1.3c-3.5.9-7.3,6.8-7.3,9.1,0-2.3-3.8-8.2-7.3-9.1v2.5c4.7,1.3,7.3,6.8,7.3,7.4ZM73.8,13.9s3.1-6.4,11.4-6.4v-2.5c-7.8,0-11.4,7.9-11.4,7.9,0,0-3.6-7.9-11.4-7.9v2.5c8.2,0,11.4,6.4,11.4,6.4ZM71.7,26.5h.9l-.9-2.2h.9l-.9-2.2s-2.4-.5-3.9,1.5v2.1s1.3-2.6,3.1-3.2l.7,1.8h-.9l.9,2.2h-.9l.9,2.2h0v7.2h-2.4v.5h2.3l-1.5,2.5h1.1l1.5-2.4v-7.9h0l-.9-2.2h0ZM64.9,12c5.2,0,8.9,4.3,8.9,4.3,0,0,3.7-4.3,8.9-4.3s4.9,1.3,4.9,1.3v-2.8s-2.1-.7-3.9-.7c-6.7,0-9.9,5.7-9.9,5.7,0,0-3.2-5.7-9.9-5.7s-3.9.7-3.9.7v2.8s2-1.3,4.9-1.3h0ZM73.8,7.7s0-3.9,3.3-5.5C77.1.9,77.1,0,77.1,0c-3.2,1.6-3.3,5.9-3.3,5.9,0,0-.1-4.3-3.3-5.9,0,0,0,.9,0,2.2,3.3,1.6,3.3,5.5,3.3,5.5h0ZM62.9,27.5h5l.5-1.1h-5.9l.5,1.1h0ZM69.6,20c-1.5,0-3.2.5-5,2.8v2.8s1.7-5.2,7.1-5.2c0,0-.9-.4-2.1-.4h0ZM67.8,15.5c3.7,0,5.9,2.7,5.9,2.7,0,0,2.2-2.7,5.9-2.7,5.4,0,9.3,4.9,9.3,4.9v-3.5s-3.2-2.7-8.2-2.7-7,3.3-7,3.3c0,0-2.4-3.3-7-3.3s-8.2,2.7-8.2,2.7v3.5s3.9-4.9,9.3-4.9ZM62.9,33.5h-2.1v-3.8h-1.1v3.8h-2v-2.4h-1.1v2.4h-2v-1h-1.1v6.5h1.1v-4.9h2v4.9h1.1v-4.9h2v4.9h1.1v-4.9h2.1v4.9h1.1v-9.7h2.9v9.7h1.1v-10.8h-5v5.3h0Z"/>
    <path d="M95.3,38.9h.2v-.9h-.2s0,.2,0,.2h0v-.3h.5s.5,0,.5,0v.3h0v-.2c0,0-.3,0-.3,0v.9h.2s0,.1,0,.1h-.3s-.3,0-.3,0h0c0,0,0,0,0,0ZM96.2,38.9h.1v-.9h-.1s0-.1,0-.1h.2s.3,0,.3,0l.3.8h0c0,.1.4-.8.4-.8h.2s.2,0,.2,0h0c0,0-.1.1-.1.1v.9h.1s0,.1,0,.1h-.2s-.3,0-.3,0h0c0,0,.1-.1.1-.1v-.9s-.4,1-.4,1h-.2l-.3-.8v-.2s0,.9,0,.9h.1s0,.1,0,.1h-.2s-.2,0-.2,0h0c0,0,0,0,0,0Z"/>
  </g>
  <g>
    <path d="M37.2,45.8v-.4s1.2,0,1.2,0h1.1s0,.3,0,.3h-.8v3.8c0,1.2-.5,2-2.3,2.4-1.9,0-2.6-1-2.6-2.4v-3.6h-.8c0-.1,0-.5,0-.5h1.2s1.3,0,1.3,0v.4s-.7.1-.7.1v3.7c0,1.1.5,1.8,1.5,1.8s1.4-.6,1.4-1.8v-3.7h-.8c0-.1,0-.1,0-.1Z"/>
    <path d="M42.4,51.3h.7c0,.1,0,.5,0,.5h-1s-1.1,0-1.1,0v-.4s.7-.1.7-.1v-5.4l-.7-.2v-.4s.8,0,.8,0h.8s3.1,4.1,3.1,4.1l.2.6v-4.3h-.7c0-.1,0-.5,0-.5h1s1.1,0,1.1,0v.4s-.7.1-.7.1v5.9h-.6l-3.4-4.7-.2-.7v5h0Z"/>
    <path d="M50.1,51.8h-1.3s0-.3,0-.3h.8v-5.5h-.8c0-.1,0-.5,0-.5h1.3s1.3,0,1.3,0v.4s-.7.1-.7.1v5.4h.8c0,.1,0,.5,0,.5h-1.3Z"/>
    <path d="M55.8,52l-2.3-6.1h-.7c0-.1,0-.5,0-.5h1.4s1.2,0,1.2,0v.4s-.7.1-.7.1l1.6,4.3v.5s1.8-4.9,1.8-4.9h-.8c0-.1,0-.5,0-.5h1s.9,0,.9,0v.4s-.6.1-.6.1l-2.2,5.8-.7.2h0Z"/>
    <path d="M65.5,45.4v1.7c0,0-.3,0-.3,0l-.5-1.2h-2.3s0,2.3,0,2.3h1.2s.4-1,.4-1h.4v1.2c0,0,0,1.3,0,1.3h-.4l-.4-1h-1.2s0,2.6,0,2.6h2.4s.6-1.3.6-1.3h.4l-.3,1.7h-3.7s-1.3,0-1.3,0v-.4s.7-.1.7-.1v-5.4h-.8c0-.1,0-.5,0-.5h1.3s3.7,0,3.7,0h0Z"/>
    <path d="M69.1,48.9v2.4h.7c0,.1,0,.5,0,.5h-1.3s-1.3,0-1.3,0v-.4s.7-.1.7-.1v-5.4h-.8c0-.1,0-.5,0-.5h1.3s1.8,0,1.8,0c1.1,0,2.1.5,2.1,1.6s-.9,1.5-1.9,1.7l.8.4,1.5,2.2h.5c0,.1,0,.5,0,.5h-.9s-.7,0-.7,0l-1.9-2.8h-.1c0-.1-.5-.1-.5-.1h0ZM69.1,48.4h.6c.8,0,1.4-.5,1.4-1.4s-.5-1.2-1.2-1.2h-.8v2.6h0Z"/>
    <path d="M75.2,50.8c.3.3.7.6,1.3.6s1.1-.4,1.1-1.1-.3-.9-.9-1.1l-1.1-.5c-.7-.3-1.2-.8-1.2-1.6s.8-1.6,2.3-1.9c.6,0,1.3.2,1.8.5v1.3h-.5l-.3-.8c-.2-.3-.5-.5-1.1-.5s-1.1.4-1.1.9.3.7.8,1l1.1.5c.8.4,1.4.9,1.3,1.7,0,.9-.7,1.7-2.4,2.1-.8,0-1.4-.2-1.9-.6l-.2-1.3h.7l.3.8h0Z"/>
    <path d="M81.4,51.8h-1.3s0-.3,0-.3h.8v-5.5h-.8c0-.1,0-.5,0-.5h1.3s1.3,0,1.3,0v.4s-.7.1-.7.1v5.4h.8c0,.1,0,.5,0,.5h-1.3Z"/>
    <path d="M88.4,51.8h-1.5s-1.6,0-1.6,0v-.4s1-.1,1-.1v-5.4h-1.3s-.4,1.2-.4,1.2h-.4v-1.7h2.7s2.7,0,2.7,0v1.7h-.4l-.4-1.2h-1.3s0,5.4,0,5.4h1c0,.1,0,.5,0,.5h0Z"/>
    <path d="M94.7,49.3v2s1,.1,1,.1v.4s-1.6,0-1.6,0h-1.6s0-.3,0-.3h1.1v-2.2l-2-3.4h-.7c0-.1,0-.5,0-.5h1.3s1.3,0,1.3,0v.4s-.7.1-.7.1l1.5,2.6v.4s1.6-3,1.6-3h-.7c0-.1,0-.5,0-.5h1s1,0,1,0v.4s-.6.1-.6.1l-2,3.4h0Z"/>
    <path d="M108.3,48.5c0,2-1,3.1-3.4,3.5-1.9,0-3.2-1.4-3.2-3.2s1-3.1,3.4-3.5c1.9,0,3.2,1.4,3.2,3.2ZM105.2,51.4c1.3,0,1.9-1.2,1.9-2.7s-.6-3-2.1-3-1.9,1.1-1.9,2.6.6,3,2.1,3Z"/>
    <path d="M109.7,51.8v-.4s.7-.1.7-.1v-5.4h-.8c0-.1,0-.5,0-.5h1.3s3.7,0,3.7,0v1.7c0,0-.3,0-.3,0l-.5-1.2h-2.3s0,2.5,0,2.5h1.2s.4-1,.4-1h.4v1.2c0,0,0,1.3,0,1.3h-.4l-.4-1h-1.2s0,2.5,0,2.5h1.1c0,.1,0,.5,0,.5h-1.7s-1.3,0-1.3,0h0Z"/>
  </g>
</svg>