<?xml version="1.0" encoding="UTF-8"?>
<svg id="Layer_1" xmlns="http://www.w3.org/2000/svg" version="1.1" viewBox="0 0 256.5 71.9">
  <!-- Generator: Adobe Illustrator 30.6.0, SVG Export Plug-In . SVG Version: 2.1.4 Build 109)  -->
  <defs>
    <style>
      .st0 {
        fill: #fff;
      }

      .st1 {
        fill: #bf5700;
      }
    </style>
  </defs>
  <path class="st1" d="M43.8,1.6v18.6c0,6.9-.7,15.7-6,23.5-1.1,1.6-2.3,3.1-3.8,4.5h0c-2.9,2.8-6.7,5.4-12.1,8.4-5.4-3-9.2-5.6-12.1-8.4h0c-1.5-1.5-2.7-2.9-3.8-4.5C.7,35.9,0,27,0,20.2V1.6h.9c.1-.1,11.9-1.6,21-1.6s20.9,1.5,21,1.5h.9c0,.1,0,.1,0,.1Z"/>
  <path class="st0" d="M21.9,2c-6.8,0-15.1.8-18.8,1.2l-1.1,14.6h39.7l-1-14.6c-3.7-.4-12-1.2-18.8-1.2h0ZM21.9,19.1l-19.9,1.1c0,6.6.7,15,5.6,22.3,1,1.5,2.2,2.9,3.6,4.3,4.4,4,9.3,6.2,10.7,6.8,1.4-.6,6.3-2.8,10.7-6.8,1.4-1.4,2.6-2.7,3.6-4.3,4.9-7.3,5.6-15.7,5.6-22.3,0,0-19.9-1.1-19.9-1.1Z"/>
  <path class="st1" d="M19.5,4.6c-1,0-2.1.2-3.3.3-1.3.2-2.6.4-3.9.4h-.6v2.6h-.9v1.5h.9v2.1h-.9v1.5h.9v2.8h.6c1.4,0,2.8-.2,4.2-.4,1.2-.2,2.2-.4,3.1-.4s1.3.1,1.7.3h1.2c.4-.2,1-.3,1.7-.3s2,.2,3.1.4c1.4.2,2.8.4,4.2.4h.6v-2.8h.9v-1.5h-.9v-2.1h.9v-1.5h-.9v-2.6h-.6c-1.3,0-2.7-.2-3.9-.4-1.2-.2-2.3-.3-3.3-.3s-1.8.2-2.4.5c-.7-.3-1.5-.5-2.4-.5h0ZM21.9,20.2s0,0,0,0l-2.2,6.7h-7s0,0,0,0c0,0,0,0,0,0l5.7,4.2-2.2,6.8s0,0,0,0h0l5.7-4.2,5.7,4.2h0s0,0,0,0l-2.2-6.7,5.7-4.2s0,0,0,0c0,0,0,0,0,0h-7l-2.2-6.7s0,0,0,0h0ZM8.9,21.5l-.4.4c-1,.7-1.7,1.8-1.9,3-.1.6-.1,1.2,0,1.8-.5-.4-1-.7-1.6-.9l-.5-.2v.5c-.4,1.2-.2,2.4.4,3.5.6,1.1,1.6,1.8,2.8,2.2h.5c0,.5.2.9.3,1.3-.7-.4-1.4-.7-2.2-.7h-.5c0,0,0,.5,0,.5,0,1.2.4,2.4,1.2,3.3.8.9,1.9,1.5,3.2,1.6h.5c.1.4.3.8.5,1.1-.5-.2-1.1-.3-1.7-.3s-.4,0-.6,0h-.5c0,0,.1.6.1.6.2,1.2.9,2.3,1.9,3,.8.6,1.8.9,2.8.9.2,0,.4,0,.6,0h.5c.2.3.4.6.7.9-.8-.1-1.6,0-2.3.2l-.5.2.2.5c.5,1.1,1.4,2,2.5,2.5.6.3,1.3.4,1.9.4s1.1-.1,1.6-.3h.4c.6.4,1.3.9,2.3,1.6-.5.3-.9.6-1.5,1l1,.6c.5-.4,1-.7,1.4-1,.4.3.9.6,1.4,1l1-.6c-.6-.4-1-.7-1.5-1,1-.7,1.7-1.2,2.3-1.7h.4c.5.3,1.1.4,1.6.4s1.3-.2,1.9-.4c1.1-.5,2-1.4,2.5-2.5l.2-.5-.5-.2c-.7-.3-1.5-.3-2.3-.2.3-.3.5-.6.7-.9h.5c.2,0,.4,0,.6,0,1,0,2-.3,2.8-.9,1-.7,1.7-1.8,1.9-3v-.5c.1,0-.4,0-.4,0-.2,0-.4,0-.6,0-.6,0-1.1.1-1.7.3.2-.3.4-.7.5-1h.5c1.2-.2,2.3-.7,3.2-1.6.8-.9,1.3-2.1,1.2-3.3v-.6h-.6c-.8.1-1.5.4-2.2.8.2-.4.2-.8.3-1.1h.6c1.2-.5,2.2-1.3,2.8-2.3.6-1.1.8-2.3.5-3.5v-.5c-.1,0-.7.2-.7.2-.6.2-1.1.5-1.6.9.1-.6.1-1.2,0-1.8-.2-1.2-.9-2.3-1.9-3l-.4-.3-.3.5c-.7,1-.9,2.3-.7,3.5.2,1.2.9,2.2,1.9,3-.2.4-.3.9-.4,1.3-.3-.8-.8-1.5-1.5-2.1l-.4-.4-.3.5c-.7,1-1,2.2-.9,3.4.2,1.2.8,2.3,1.7,3.1h0c-.3.4-.5.8-.7,1.3-.1-.8-.5-1.6-1-2.3l-.3-.4-.4.4c-.9.8-1.5,2-1.6,3.2-.1,1.2.3,2.4,1,3.4h0c-.4.3-.7.7-.9,1.1,0-.9-.1-1.7-.5-2.5l-.3-.5-.5.3c-1.1.6-1.8,1.6-2.2,2.8-.4,1.2-.2,2.4.3,3.5h0c-.4.3-.8.6-1.1.9.2-.8.3-1.7,0-2.5v-.5c-.1,0-.6.2-.6.2-1.2.4-2.1,1.2-2.7,2.3-.6,1-.7,2.2-.4,3.4-.2.1-.3.2-.5.3-.2-.1-.3-.2-.5-.3.3-1.2.1-2.4-.4-3.4-.6-1.1-1.5-1.9-2.7-2.3l-.5-.2v.5c-.4.8-.3,1.7-.1,2.5-.3-.3-.7-.6-1.1-.9h0c.6-1.1.7-2.4.3-3.5-.4-1.2-1.1-2.2-2.2-2.8l-.5-.3-.3.5c-.4.8-.5,1.6-.5,2.5-.3-.4-.6-.8-.9-1.1h0c.8-1,1.1-2.2,1-3.4-.1-1.2-.7-2.3-1.6-3.2l-.4-.4-.3.4c-.6.7-.9,1.5-1,2.3-.2-.4-.4-.9-.7-1.2h0c1-.8,1.6-1.9,1.7-3.1.2-1.2-.2-2.4-.9-3.4l-.3-.5-.4.4c-.7.6-1.2,1.3-1.5,2.1,0-.5-.2-.9-.4-1.3,1-.7,1.7-1.8,1.9-3,.2-1.2,0-2.4-.7-3.5l-.3-.5h0Z"/>
  <path class="st0" d="M19.5,5.9c-.9,0-2,.1-3.1.3-1,.2-2,.3-3.1.4l-.3,8c1.1,0,2.1-.2,3.2-.4,1.2-.2,2.3-.4,3.3-.4s1,0,1.5.2l.2-6.7v-1.1c-.5-.2-1-.3-1.8-.3h0ZM24.3,5.9c-.7,0-1.3,0-1.8.3v1.1l.2,6.7c.4-.1.9-.2,1.5-.2,1,0,2.2.2,3.3.4,1.1.2,2.1.3,3.2.4l-.3-8c-1.1,0-2.1-.2-3.1-.4-1.1-.2-2.2-.3-3.1-.3h0ZM8.7,23.1c-.6.6-.9,1.2-1.1,2-.1.8,0,1.5.3,2.2.6-.6.9-1.2,1.1-2,.1-.8,0-1.5-.3-2.2h0ZM35,23.1c-.3.7-.4,1.5-.3,2.2s.5,1.4,1.1,2c.3-.7.4-1.5.3-2.2-.2-.8-.5-1.5-1.1-2ZM21.9,24.9l-1.3,3.3-3.5.3,2.7,2.3-.9,3.4,3-1.9,3,1.9-.9-3.4,2.7-2.3-3.5-.2-1.3-3.3h0ZM5.3,27c0,.8.1,1.5.5,2.2.4.7,1,1.2,1.6,1.5,0-.8-.1-1.5-.5-2.2-.4-.7-1-1.2-1.6-1.5ZM38.5,27c-.7.3-1.3.9-1.6,1.5-.4.7-.6,1.4-.5,2.2.7-.3,1.3-.9,1.6-1.5.4-.7.6-1.4.5-2.2ZM10.1,28.9c-.5.6-.8,1.3-.9,2-.1.8,0,1.5.4,2.2.5-.6.8-1.3.9-2,.1-.8,0-1.5-.4-2.2ZM33.7,28.9c-.4.7-.5,1.5-.4,2.2s.4,1.5.9,2c.4-.7.5-1.5.4-2.2s-.4-1.5-.9-2ZM6.7,33.5c.1.8.5,1.5,1,2,.5.6,1.2,1,1.9,1.1-.1-.8-.5-1.5-1-2-.5-.6-1.2-1-1.9-1.1ZM37,33.5c-.7.2-1.4.6-1.9,1.1-.5.6-.9,1.3-1,2,.7-.2,1.4-.6,1.9-1.1.5-.6.9-1.3,1-2ZM31.9,34.3c-.5.6-.8,1.3-.8,2.1,0,.8.1,1.5.5,2.2.5-.6.8-1.3.8-2.1,0-.8-.1-1.5-.5-2.2ZM11.8,34.4c-.4.7-.5,1.4-.5,2.2,0,.8.4,1.5.8,2.1.4-.7.6-1.4.5-2.2,0-.8-.4-1.5-.8-2.1ZM14.7,39.4c-.2.7-.3,1.5,0,2.2.2.7.7,1.4,1.2,1.9.2-.7.3-1.5,0-2.2-.2-.7-.7-1.4-1.2-1.9h0ZM29.1,39.4c-.6.5-1,1.1-1.2,1.9-.2.7-.2,1.5,0,2.2.6-.5,1-1.1,1.2-1.9.2-.7.2-1.5,0-2.2ZM9.5,39.6c.3.7.7,1.3,1.4,1.8.6.5,1.4.7,2.1.7-.3-.7-.7-1.3-1.3-1.8-.6-.5-1.4-.7-2.1-.7ZM34.2,39.6c-.8,0-1.5.3-2.1.7-.6.5-1.1,1.1-1.3,1.8.8,0,1.5-.3,2.1-.7.6-.5,1.1-1.1,1.3-1.8ZM25.3,43.6c-.7.4-1.2.9-1.6,1.6s-.5,1.4-.4,2.2c.7-.4,1.2-.9,1.6-1.6.4-.7.5-1.4.4-2.2ZM18.5,43.7c0,.8,0,1.5.4,2.2.4.7.9,1.2,1.6,1.6,0-.8,0-1.5-.4-2.2-.4-.7-.9-1.2-1.6-1.6ZM14.1,44.9c-.2,0-.4,0-.6,0,.4.7,1,1.2,1.7,1.5.7.3,1.5.4,2.2.3-.4-.7-1-1.2-1.7-1.5-.5-.2-1.1-.3-1.6-.3ZM29.7,44.9c-.6,0-1.1.1-1.6.3-.7.3-1.3.8-1.7,1.5.2,0,.5,0,.7,0,.5,0,1.1,0,1.5-.3.7-.3,1.3-.8,1.7-1.5-.2,0-.4,0-.6,0h0Z"/>
  <path class="st1" d="M241.8,2.3c-9,1.9-15.5,6-15.5,13.1s3.8,8.8,8.5,10.8l7.9,3.4c3.9,1.7,6.7,4.2,6.7,8.7s-3.2,8.3-8.8,8.3-7.2-1.7-9.1-4.1l-2.3-5.5h-4.5l1.4,8.8c3.4,2.7,7.5,4.4,13.4,4.4,12.2-2.5,16.3-8.5,16.3-14.6s-4.5-9.9-9.6-12.1l-7.5-3.2c-3.6-1.6-6.1-3.8-6.1-7.4s3-7.1,8.2-7.1,6,1.4,7.7,3.2l1.9,5.9h3.2V6c-3.2-2.4-7.8-3.8-11.9-3.8h0ZM202.3,2.8l-3.9,1.1-16.1,42.2-3.1.4-3.1-.5-14.4-21.3,13.3-18.4,5.1-.7-.3-2.3-7.6.2-7.6-.2-.3,2.3,5.6.9-10.3,15.2-9.2-15.2,5.5-.9-.3-2.3-9.2.3-9.3-.3-.3,2.3,5.1.7,13.4,20.4-14,19.3-5.1.7.3,2.3,7.2-.2,7.6.2.3-2.3-5.3-.8,11.1-16.2,10.1,16.2-5.5.9.3,2.3,9.3-.2,7.6.2,5.3-.2,7.8.2.3-2.3-5.6-.9,4.2-12.2h16l4.4,12.2-5.5.9.3,2.3,8.6-.2,9,.2.3-2.3-5.1-.7L202.3,2.8h0ZM55.7,3.4v11.5h2.5l3-8.3h9.7c0-.1,0,39.3,0,39.3l-7.8.9.3,2.3,10.9-.2,10.5.2.3-2.3-7.5-.9V6.5h9.7c0,.1,3,8.4,3,8.4h2.5V3.4l-18.7.2-18.6-.2h0ZM96.9,3.4l-.3,2.3,5.8.9v39.4l-5.8.9.3,2.3,9-.2,25.7.2,2.3-12h-2.5l-4.3,8.8-17.8.2v-19.5l9.1.3,2.6,6.8h2.3l-.7-8.8.7-8.1h-2.3l-2.6,6.8-9.1.3V6.4l17.2.2,3.6,8.5h2.2l-.7-11.7-25.7.2-9-.2h0ZM19.4,7.1c-.7,0-1.5,0-2.2.2v1c1.1-.2,2.1-.3,2.9-.2v-1c-.2,0-.4,0-.7,0h0ZM24.9,7.1c-.4,0-.8,0-1.2,0v1c.8,0,1.6,0,2.5.1v-1c-.4,0-.9,0-1.3-.1h0ZM26.9,7.3v1c.2,0,.3,0,.5,0,.7.1,1.3.2,2,.3v-1c-.6,0-1.2-.2-1.8-.3-.2,0-.4,0-.7-.1h0ZM16.4,7.4c0,0-.1,0-.2,0-.6.1-1.2.2-1.8.3v1c.7,0,1.3-.2,2-.3h0v-1h0ZM19.1,9.4c-.9,0-1.9.2-2.9.3v1c0,0,0,0,.1,0,1.4-.2,2.6-.4,3.6-.3v-1c-.3,0-.6,0-.9,0h0ZM23.8,9.4v1c.7,0,1.4,0,2.2.1v-1c-.8,0-1.5-.1-2.2-.1h0ZM26.7,9.6v1c.2,0,.5,0,.7.1.7.1,1.4.2,2.1.3v-1c-.7,0-1.3-.2-1.9-.3-.3,0-.6,0-.9-.1h0ZM15.5,9.8c-.4,0-.8.1-1.2.2v1s1.2-.2,1.2-.2v-1s0,0,0,0ZM199,11.2l7.1,19.5h-13.8l6.7-19.5h0ZM23.9,11.7v1c.9,0,1.8,0,2.9.2v-1c-1-.2-2-.3-2.9-.2h0ZM19.9,11.7c-.9,0-1.8,0-2.8.2v1c1-.2,1.9-.3,2.7-.2v-1s0,0,0,0ZM27.5,12v1.1h0c.7.1,1.4.2,2.1.3v-1c-.7,0-1.4-.2-2-.3,0,0,0,0-.1,0h0ZM16.4,12c0,0-.1,0-.2,0-.7.1-1.3.2-2,.3v1c.7,0,1.4-.2,2.1-.3h0v-1.1h0ZM72.1,59.1l-1.5.2h-3.4s-4,0-4,0v2.4h.5l.6-1.7h2.1s0,8.1,0,8.1l-1.7.2v.5c0,0,2.4,0,2.4,0h2.2c0,0,0-.4,0-.4l-1.6-.2v-8.1h2.8s.5,0,.5,0v8.2h-.8c0,.1,0,.6,0,.6h1.5s1.3,0,1.3,0v-.5c0,0-.7-.1-.7-.1v-4l.4-.2c.5-.3,1-.6,1.5-.6s.9.3.9,1v3.8h-.7c0,.1,0,.6,0,.6h1.3s1.6,0,1.6,0v-.5c0,0-1-.1-1-.1v-3.6c0-1.7-.3-2.3-2.1-2.3l-2,1.3v-4.4h-.5ZM222.1,59.2l-.8.2-3.4,8.7h-1.1c0,.1,0,.6,0,.6h1.5c0,0,1.7,0,1.7,0v-.5c0,0-1.1-.2-1.1-.2l.9-2.5h0s3.4,0,3.4,0l.9,2.5-1.2.2v.5c0,0,1.9,0,1.9,0h1.9s0-.4,0-.4h-1.1c0-.1-3.6-9.1-3.6-9.1h0ZM161.1,59.2l-1.2,1.3c-.5.5-.8,1.1-.8,1.9h0c0,.1-.8.1-.8.1l-.4.5v.2h1.2v5h-1c0,.1,0,.6,0,.6h1.6s2.1,0,2.1,0v-.5c0,0-1.5,0-1.5,0v-5h1.7v-.6h-1.7v-.3c0-.9.1-1.3.3-1.5l.3-.4h1.8v-1.1h-1.7ZM87.2,59.3v.5c0,0,1.2.2,1.2.2v5.5c0,2.2,1,3.6,3.7,3.6,2.8-.6,3.5-1.8,3.5-3.5v-5.5l1.2-.2v-.5c0,0-1.7,0-1.7,0h-1.8s0,.4,0,.4h1.2v5.8c0,1.7-.8,2.7-2.2,2.7s-2.3-1-2.3-2.6v-5.7l1.2-.2v-.5c0,0-2,0-2,0h-1.9s0,0,0,0ZM166.6,59.3v2.4h.6l.6-1.7h2.1s0,8.1,0,8.1l-1.7.2v.5c0,0,2.4,0,2.4,0h2.2s0-.4,0-.4l-1.6-.2v-8.1h2.1s.6,1.7.6,1.7h.5v-2.4h-4s-4,0-4,0h0ZM106.8,59.3h-1c0,0-.1.7-.1.7v.8c0,0,.5,0,.5,0h1c0,0,.2-.7.2-.7v-.8c0,0-.5,0-.5,0h0ZM135.4,59.3h-1c0,0-.1.7-.1.7v.8c0,0,.5,0,.5,0h1c0,0,.2-.7.2-.7v-.8c0,0-.5,0-.5,0h0ZM247.1,59.3h-1c0,0-.1.7-.1.7v.8c0,0,.5,0,.5,0h1c0,0,.2-.7.2-.7v-.8c0,0-.5,0-.5,0h0ZM221.5,60.6v.7c.1,0,1.4,3.5,1.4,3.5h-2.9l1.5-4.3h0ZM139.2,60.7l-.9.9v.9h-.9l-.5.5v.2h1.3v4c0,1.2.2,1.8,1.8,1.8l1.7-.9-.2-.5c-.4.2-.8.4-1.2.4-.6,0-.7-.4-.7-.8v-4.1h2.1l2.3,5.7.6-.2-1.4,2h-1.2v1.3h0c0,0,1.7,0,1.7,0l1.6-3.4,2.2-5.5h.9c0-.1,0-.6,0-.6h-1.2c0,0-1.2,0-1.2,0v.5c0,0,.6.1.6.1l-1.7,4.9v-.9c-.1,0-1.6-3.9-1.6-3.9h.9c0-.1,0-.6,0-.6h-4.3v-1.7h-.4ZM211.5,60.7l-.9.9v.9h-.9l-.5.5v.2h1.3v4c0,1.2.2,1.8,1.8,1.8l1.6-.9-.2-.5c-.4.2-.7.3-1.1.3-.6,0-.7-.4-.7-.8v-3.9h2.1v-.6h-2.1v-1.8h-.4ZM241.9,60.7l-.9.9v.9h-.9l-.5.5v.2h1.3v4c0,1.2.2,1.8,1.8,1.8l1.6-.9-.2-.5c-.4.2-.7.3-1.1.3-.6,0-.7-.4-.7-.8v-3.9h2.1v-.6h-2.1v-1.8h-.4,0ZM130.4,62.1c-1.6.3-2.5.9-2.5,1.8s.6,1.3,1.2,1.6l1.1.6c.7.4,1,.6,1,1.1s-.4,1-1.1,1-.8-.1-1.1-.3l-.5-1.1h-.9l.3,1.5c.4.2,1.3.6,2.1.6,1.6-.3,2.6-.8,2.6-2s-.4-1.3-1.3-1.7l-1.1-.5c-.6-.3-1-.6-1-1s.5-.8,1.1-.8.9.2,1.1.3l.4,1h.7v-1.3c-.4-.3-1.2-.6-2-.6h0ZM197,62.1c-1.6.3-2.5.9-2.5,1.8s.6,1.3,1.2,1.6l1.1.6c.7.4,1,.6,1,1.1s-.4,1-1.1,1-.8-.1-1.1-.3l-.5-1.1h-.9l.3,1.5c.4.2,1.3.6,2.1.6,1.6-.3,2.6-.8,2.6-2s-.4-1.3-1.3-1.7l-1.1-.5c-.6-.3-1-.6-1-1s.5-.8,1.1-.8.9.2,1.1.3l.4,1h.7v-1.3c-.4-.3-1.2-.6-2-.6h0ZM237.1,62.1c-1.6.3-2.5.9-2.5,1.8s.6,1.3,1.2,1.6l1.1.6c.7.4,1,.6,1,1.1s-.4,1-1.1,1-.8-.1-1.1-.3l-.5-1.1h-.9l.3,1.5c.4.2,1.3.6,2.1.6,1.6-.3,2.6-.8,2.6-2s-.4-1.3-1.3-1.7l-1.1-.5c-.6-.3-1-.6-1-1s.5-.8,1.1-.8.9.2,1.1.3l.4,1h.7v-1.3c-.4-.3-1.2-.6-2-.6h0ZM81.4,62.2c-1.9.4-3.1,1.5-3.1,3.4s1.5,3.3,3.2,3.3c.9-.2,1.8-.6,2.4-1.1l-.2-.5c-.5.3-1.2.6-1.7.6-1.4,0-2.3-1.1-2.3-2.6h0s4.2,0,4.2,0v-.6c0-1.4-.6-2.5-2.4-2.5h0ZM118.7,62.2c-1.9.4-3.1,1.5-3.1,3.4s1.5,3.3,3.2,3.3c.9-.2,1.8-.6,2.4-1.1l-.2-.5c-.5.3-1.2.6-1.7.6-1.4,0-2.3-1.1-2.3-2.6h0s4.2,0,4.2,0v-.6c0-1.4-.6-2.5-2.4-2.5h0ZM154.3,62.2c-2.1.4-3.4,1.5-3.4,3.5s1.3,3.2,3.1,3.2c2.1-.3,3.4-1.5,3.4-3.5s-1.2-3.2-3.1-3.2h0ZM177.1,62.2c-1.9.4-3.1,1.5-3.1,3.4s1.5,3.3,3.2,3.3c.9-.2,1.8-.6,2.4-1.1l-.2-.5c-.5.3-1.2.6-1.7.6-1.4,0-2.3-1.1-2.3-2.6h0s4.2,0,4.2,0v-.6c0-1.4-.6-2.5-2.4-2.5h0ZM190.5,62.2l-2.5,1.1v1h1.2l.2-1.1c.3-.1.8-.2,1.1-.2.7,0,.8.5.8,1.3v.7l-3.1,1c-.3.4-.5.8-.5,1.2,0,1.1.9,1.7,2,1.7l1.7-1.2.4,1,1.8-.3v-.5h-.7c-.1-.2-.2-.4-.2-1v-2.6c0-1.7-.5-2.1-2.2-2.1h0ZM206.1,62.2l-2.5,1.1v1h1.2l.2-1.1c.3-.1.8-.2,1.1-.2.7,0,.8.5.8,1.3v.7l-3.1,1c-.3.4-.5.8-.5,1.2,0,1.1.9,1.7,2,1.7l1.6-1.2.4,1,1.8-.3v-.5h-.8c-.1-.2-.2-.4-.2-1v-2.6c0-1.7-.5-2.1-2.2-2.1h0ZM101.2,62.2l-2,1.3v-1.1c0,0-.7,0-.7,0l-1.7.4v.5c0,0,1,0,1,0v4.9h-1c0,.1,0,.6,0,.6h1.6s1.3,0,1.3,0v-.5c0,0-.7-.1-.7-.1v-4l.4-.3c.5-.3,1-.6,1.4-.6s.9.3.9,1v3.8h-.7c0,.1,0,.6,0,.6h1.3s1.6,0,1.6,0v-.5c0,0-1-.1-1-.1v-3.7c0-1.6-.3-2.2-2.1-2.2h0ZM253.4,62.2l-2,1.3v-1.1c0,0-.7,0-.7,0l-1.7.4v.5c0,0,1,0,1,0v4.9h-1c0,.1,0,.6,0,.6h1.6s1.3,0,1.3,0v-.5c0,0-.7-.1-.7-.1v-4l.4-.3c.5-.3,1-.6,1.4-.6s.9.3.9,1v3.8h-.7c0,.1,0,.6,0,.6h1.3s1.6,0,1.6,0v-.5c0,0-1-.1-1-.1v-3.7c0-1.6-.3-2.2-2.1-2.2h0ZM125.8,62.3l-1.6,1.9v-1.8c0,0-.6,0-.6,0l-1.7.4v.5c0,0,1,0,1,0v4.9h-1c0,.1,0,.6,0,.6h1.6c0,0,2,0,2,0v-.5c0,0-1.4-.1-1.4-.1v-3.2l.3-.3c.4-.4,1-.9,1.3-1h1v-1.3h-1.1ZM228.6,62.4h-.7s-1.7.4-1.7.4v.5c0,0,1.1,0,1.1,0v3.5c0,1.6.3,2.2,2.1,2.2l2-1.2.4,1.1,1.8-.3v-.5h-.8c-.1-.2-.2-.4-.2-1v-4.6h-.7s-1.5.4-1.5.4v.5c0,0,.9,0,.9,0v3.8l-.3.2c-.5.3-1.1.7-1.5.7-.7,0-1-.3-1-1v-4.5h0ZM107.2,62.4h-.7c0,0-1.7.5-1.7.5v.5c0,0,1,0,1,0v4.9h-1c0,.1,0,.6,0,.6h1.6s1.6,0,1.6,0v-.5c0,0-1-.1-1-.1v-5.8h0ZM108.3,62.4v.5c0,0,.8.1.8.1l2.4,5.9,1-.4,2.3-5.5h.9c0-.1,0-.6,0-.6h-1.2c0,0-1.2,0-1.2,0v.5c0,0,.6.1.6.1l-1.7,4.9v-.9c0,0-1.6-3.9-1.6-3.9h.9c0-.1,0-.6,0-.6h-1.5c0,0-1.6,0-1.6,0h0ZM135.7,62.4h-.7c0,0-1.7.5-1.7.5v.5c0,0,1,0,1,0v4.9h-1c0,.1,0,.6,0,.6h1.6s1.6,0,1.6,0v-.5c0,0-1-.1-1-.1v-5.8h0ZM180.2,62.4v.5c0,0,.8.1.8.1l2,2.7-2,2.4h-1c0,.1,0,.6,0,.6h1.4c0,0,1.1,0,1.1,0v-.5c0,0-.6,0-.6,0l1.5-2.1v.3c.1,0,1.3,1.7,1.3,1.7h-.6c0,.1,0,.6,0,.6h1.3s1.6,0,1.6,0v-.5c0,0-.8-.1-.8-.1l-2.2-3,1.8-2.2h1c0-.1,0-.6,0-.6h-1.4c0,0-1.1,0-1.1,0v.5c0,0,.6.1.6.1l-1.3,1.8v-.3c-.1,0-1.1-1.5-1.1-1.5h.6c0-.1,0-.6,0-.6h-1.3c0,0-1.6,0-1.6,0h0ZM247.4,62.4h-.7c0,0-1.7.5-1.7.5v.5c0,0,1,0,1,0v4.9h-1c0,.1,0,.6,0,.6h1.6s1.6,0,1.6,0v-.5c0,0-1-.1-1-.1v-5.8h0ZM81.1,62.8c1.1,0,1.3.7,1.3,1.8h-2.8c.1-1,.6-1.8,1.5-1.8h0ZM118.5,62.8c1.1,0,1.3.7,1.3,1.8h-2.8c.1-1,.6-1.8,1.5-1.8h0ZM154,62.8c1.2,0,2,1.2,2,2.9s-.6,2.5-1.7,2.5-2.1-1.3-2-2.8c0-1.5.6-2.6,1.7-2.6ZM176.8,62.8c1.1,0,1.3.7,1.3,1.8h-2.8c.1-1,.7-1.8,1.5-1.8h0ZM191.3,65.5v1.8l-.6.4c-.2.1-.5.3-.9.3s-.8-.2-.8-.9,0-.6.3-.8l2-.8h0ZM207,65.5v1.8l-.6.4c-.2.1-.5.3-.9.3s-.8-.2-.8-.9,0-.6.3-.8l2-.8h0Z"/>
</svg>