<?xml version="1.0" encoding="UTF-8"?>
<svg id="Layer_1" xmlns="http://www.w3.org/2000/svg" version="1.1" viewBox="0 0 229.5 72">
  <!-- Generator: Adobe Illustrator 30.6.0, SVG Export Plug-In . SVG Version: 2.1.4 Build 109)  -->
  <defs>
    <style>
      .st0 {
        fill: #232d4b;
      }
    </style>
  </defs>
  <path class="st0" d="M.5,0C0,0,0,.1,0,.4v1.1c0,.4,0,.5.4.5h2.4c1.6,0,1.9.8,1.9,2.6v12c0,6.6.2,9.9.8,12.2.8,3.2,2.6,5.4,6,6.7,1.7.7,4.2,1.1,6.8,1.1,4.4,0,7.4-1.2,9.4-3,2.8-2.4,3.9-5.6,4.2-9.7.2-2,.3-10.7.3-11.5s0-7.8.1-8.3c.2-.6.3-2,2.2-2h2.1c.3,0,.3-.2.3-.5V.4C36.7.2,36.7,0,36.2,0s-2.1.2-5.5.2S25,0,24.5,0s-.4.1-.4.4v1.2c0,.3,0,.4.4.4h2.2c1.3,0,2.1.9,2.3,2.2.2,1.3.3,4.2.3,8v10.7c0,3.7-.7,6.7-2.6,8.8-1.8,1.8-4.7,2.8-7.5,2.8s-6.1-.9-8-3.6c-1.2-1.7-1.6-4.1-1.6-6.4,0-1.6-.3-8-.3-10.6v-3.3c0-2.6,0-6.1.1-6.5.1-1.1,1-2.1,2.4-2.1h2.5c.4,0,.4,0,.4-.3V.3C14.7.1,14.6,0,14.2,0s-3,.2-6.9.2S1,0,.5,0h0ZM157.5,7.4c-2,0-3.7.5-5.1,1.6-1.2,1-2.3,2.7-2.3,4.6,0,2.7.7,4.4,1.9,5.6,1.6,1.5,4.3,2.5,5.3,2.8,2.9,1.1,5,2.5,5,5.6s-2.6,3.7-4.4,3.7-3.8-1.1-4.6-2.7c-1-1.8-1-2.9-1-3.7s-.2-.3-.4-.4h-1c-.2-.1-.3,0-.4.3,0,.9-.4,5.2-.6,6.8,0,.3.1.5.4.6.4.1.7,0,.8-.3l.2-.4c.1-.4.4-.4.8-.1,1.3,1,3.2,1.9,5.9,1.9,5,0,7.6-3.5,7.6-7.6s-.7-4.1-1.7-5.2c-1.4-1.4-3.4-2-5.9-2.9-1-.4-3-1.2-3.8-2.2-.6-.7-.9-1.9-.9-2.7s.9-3.3,3.9-3.3,2.8.5,3.6,1.5c1.1,1.3,1.6,3.2,1.9,3.9,0,.2.2.3.3.2l1-.2c.2,0,.2-.2.2-.3,0-.8-.5-4.3-.5-6.1s0-.5-.5-.5-.6,0-.7.2l-.2.4c-.1.3-.4.2-.9-.1-.7-.3-1.8-.7-3.9-.7h0ZM181.1,7.7c-.2,0-.1,0-.2,0,0,0,0,.1-.1.2-.4,1.6-1.4,5-1.7,6,0,.2,0,.4.2.5l1,.4c.2.1.4,0,.5-.3.7-1.4,1.9-3.2,3.2-4.2,2-.5,5.1-.5,6.1-.5v11.7c0,3.3,0,6.2-.2,8.2,0,.4-.4.9-1.3.9h-2.2c-.2,0-.3.1-.3.4v1.1c0,.3.1.5.4.5s4-.2,5.5-.2,5.2.2,5.6.2.4-.2.4-.3v-1.1c0-.3-.1-.5-.4-.5h-2.1c-.9,0-1.1-.5-1.3-1.4,0-.4,0-4.5,0-10.3v-9.2c1,0,5,0,6.3.5,1.1,1,2.1,2.8,2.7,4.2.1.3.3.3.6.2l.9-.3c.2-.1.3-.2.3-.4-.2-.9-.6-2.9-.9-4.4.5,0,1.3.2,1.7.6.9.8,7.5,10.6,8,11.6v2c0,3.2,0,5.2,0,5.7,0,.8-.4,1.1-2.1,1.1h-.8c-.2,0-.3.2-.3.3v1.2c0,.3.1.4.4.4s3.5-.2,4.7-.2c1.8,0,4.9.2,5.2.2s.4-.2.4-.4v-1.3c0-.2-.1-.3-.4-.3h-.7c-1,0-1.9,0-2-1.2-.1-.7,0-2.1-.1-3.5v-4.6c1.3-1.9,7.6-10.8,8.4-11.2.5-.3,1.1-.4,2-.4h.5c.2,0,.3-.1.3-.4v-1.1c0-.3-.1-.4-.4-.4s-2.2.2-3.2.2c-1.6,0-4.4-.2-4.7-.2s-.4.2-.4.4v1.2c0,.2.1.4.4.4h.9c1.2,0,1.1.7.7,1.6-.2.4-4.7,7-5.6,8.4-.9-1.3-5.4-8.6-5.7-9.1-.2-.3-.2-.9.8-.9h.8c.3,0,.4-.2.4-.4v-1.2c0-.3-.2-.4-.4-.4-.4,0-4.1.2-5.3.2s-7.7,0-8.8,0c-2.1,0-4,.2-5.8.2h-2.2c-6,0-9.1-.3-9.9-.4h0ZM64.3,7.9c-.2,0-.3.1-.3.3v1.3c0,.2,0,.4.3.4h1c2.3,0,2.8.5,2.8,1.1s.1,6.2.1,7.1v2.4c0,1.9,0,8.8-.1,9.3-.1,1-1,1-2.3,1h-1.2c-.2,0-.3.2-.3.3v1.2c0,.3.1.4.3.4.3,0,3.5-.2,5.3-.2s5.3.2,5.7.2.3-.2.3-.4v-1.3c0-.2,0-.3-.3-.3h-.8c-1.6,0-2.2-.8-2.3-2,0-.8,0-7.1,0-7.4v-2.7c0-.4,0-6.9,0-7.4,0-1.1.5-1.4,2-1.4h.9c.3,0,.3-.2.3-.4v-1.3c0-.2-.1-.3-.3-.3-.4,0-3.2.2-4.8.2-2.6,0-5.9-.2-6.3-.2h0ZM77.8,7.9c-.2,0-.3.1-.3.3v1.4c0,.2,0,.3.3.3h.5c.7,0,1.1.4,1.6,1,.4.5,2,5.5,2.9,8l.4,1.2c.4,1.2,3.3,9.1,4.5,12.3.2.4.4.8.9.8s.7-.2.9-.4c.4-.7,4.9-11.4,5.4-12.5.5-1.4,3.5-8.6,4.5-9.6.5-.5,1.3-.8,2.3-.8h1.3c2.2,0,2.5.2,2.7,1.4,0,.5.1,4.1.1,7v11.6c0,.8-.2,1-2.7,1h-.5c-.3,0-.4.1-.4.3v1.3c0,.2,0,.4.3.4.7,0,3.7-.2,4.6-.2,11.5,0,14.3.2,14.7.2s.5-.3.6-.5l2-5.8c0-.2,0-.3-.2-.4l-.9-.5c-.2-.1-.4,0-.7.3-.5.9-2.5,3.3-2.9,3.7-1.9,1.5-3.4,1.5-5.8,1.5s-3.9-.2-3.9-2.7-.1-3.9-.1-5.8v-1.9c.5,0,2.5,0,4.1.4,1.4.3,1.7,1.2,2,2.6,0,.2.2.2.3.2h1.1c.2-.1.3-.2.3-.4,0-.7-.2-2.4-.2-3.6s0-3.4.1-3.9c0-.2-.1-.3-.3-.3h-1.2c-.2,0-.3,0-.3.2,0,1.7-.5,2.5-2,2.8-.4.1-3.7.3-4,.3v-9.3h5.8c.5.1,1.4.3,2.1.9.9.9,3.5,3.9,3.7,4.1.2.3.4.3.5.2l.9-.4c.1,0,.1-.2,0-.4-.1-.4-1.6-5.1-1.7-5.6-.1-.7-.2-.8-.3-.8-.2,0-.9.1-1.5.1h-12.2c0,0-8.3,0-8.3,0-1.3,0-4.1-.2-4.4-.2s-.3.2-.3.3v1.3c0,.3.1.4.3.4h.6c.9,0,1.1.3,1.1.5,0,.5-.7,2-2.8,8.1-.3.8-2.9,7.6-3.3,8.7h-.2c-.3-.9-2.3-7.2-2.8-8.6-1.5-4.6-2.4-6.7-2.4-8s.8-.8,1.5-.8h1.3c.2,0,.4-.1.4-.3v-1.3c0-.3-.1-.4-.4-.4s-3.7.2-5,.2-4.4-.2-4.7-.2h0ZM125.2,7.9c-.2,0-.3.1-.3.3v1.3c0,.2,0,.4.2.4h.5c1.5,0,2,.6,2.1,1.7v8.6c0,3.3,0,6.5,0,9.2,0,1.2-.7,1.4-2,1.4h-.7c-.2,0-.3.1-.3.3v1.3c0,.3.1.4.3.4.4,0,3.2-.2,4.5-.2s4.7.2,5.1.2.4-.1.4-.4v-1.3c0-.2-.1-.3-.3-.3h-1.4c-1.1,0-1.4-.6-1.5-1.4v-7.2c.4-.1.9-.1,1.4-.1,2.3,0,3.1,1.2,5.1,4.6.5.8,2.9,5.2,3.9,6,.9,0,2.2-.1,3.5-.1s1.2,0,1.7,0c.5,0,1,.1,1.1.1.2,0,.3-.2.3-.4v-1.1c0-.3,0-.5-.3-.5-1,0-1.7,0-2.5-.6-1-.8-2.3-2.4-3.1-3.5-2.2-3.2-3.3-4.9-4.6-5.1h0c4.3-1.6,6.4-3.8,6.4-7.6s-.7-2.8-1.9-4c-1.4-1.2-3.8-2.1-7.1-2.1s-5.5.2-6.1.2c-1,0-4.4-.2-4.6-.2h0ZM166.8,7.9c-.2,0-.3.1-.3.3v1.3c0,.2,0,.4.3.4h1c2.3,0,2.8.5,2.8,1.1s.1,6.2.1,7.1v2.4c0,1.9,0,8.8-.1,9.3-.1,1-1,1-2.3,1h-1.2c-.2,0-.3.2-.3.3v1.2c0,.3.1.4.3.4.3,0,3.5-.2,5.3-.2s5.3.2,5.7.2.3-.2.3-.4v-1.3c0-.2,0-.3-.3-.3h-.8c-1.6,0-2.2-.8-2.3-2,0-.8,0-7.1,0-7.4v-2.7c0-.4,0-6.9,0-7.4,0-1.1.5-1.4,2-1.4h.9c.3,0,.3-.2.3-.4v-1.3c0-.2-.1-.3-.3-.3-.4,0-3.2.2-4.8.2-2.6,0-5.9-.2-6.3-.2h0ZM133.4,9.6c2.2,0,3.7.5,5.2,1.4,1,.7,1.8,2.1,1.8,3.8s-.9,5.7-7,5.7-1.3,0-1.6-.1v-9.5c0-1,.8-1.2,1.6-1.2h0ZM32.9,35.3c-4.6,0-7.9,5.9-7.9,10.3s1.7,4.5,3.6,4.5c5,0,8-6.9,8-10.7s-1.4-4-3.7-4h0ZM33.5,36.9c1.1,0,1.8.9,1.7,1.9,0,2.3-3.6,9.5-7.1,9.5s-1.6-.7-1.6-1.8c0-1.6.8-3.7,2-5.6,1.7-2.8,3.6-4.1,5-4.1h0ZM205.2,39.1c-.3,0-.5.2-.7.4-.5.4-2,1.4-3.1,1.6-.5.1-.6.3-.5.4,0,.2.1.4.2.5.4.2,0,.8,0,1.1-.3.9-3.5,8.3-3.9,9.1-1.3,2.7-4.1,9.3-4.5,9.7-.4.6-1.3,1.1-2.2,1.1h-.6c-1.6,0-2.2-.8-2.3-2,0-.8,0-7.1,0-7.4v-2.7c0-.4,0-6.9,0-7.4,0-1.1.5-1.4,2-1.4h.9c.3,0,.3-.2.3-.4v-1.3c0-.2-.1-.3-.3-.3-.4,0-3.2.2-4.8.2-2.6,0-5.9-.2-6.3-.2s-.3.1-.3.3v1.3c0,.2,0,.4.3.4h1c2.3,0,2.8.5,2.8,1.1s.1,6.2.1,7.1v2.4c0,1.9,0,8.8-.1,9.3-.1,1-1,1-2.3,1h-1.2c-.2,0-.3.2-.3.3v1.2c0,.3.1.4.3.4.3,0,3.5-.2,5.3-.2h9c.9,0,3.8.2,4.2.2s.3-.2.3-.4v-1.2c0-.2,0-.4-.4-.4h-1.4c-1.1,0-1.3-.7-1-1.8.2-.7,2-5.2,2.2-5.8h8.8c.4,1.3,1.9,5.6,2.1,6.7,0,.4-.2.9-.9.9h-.9c-.2,0-.3.2-.3.3v1.1c0,.2,0,.5.4.5.7,0,3.9-.2,5-.2s4.1.2,4.8.2.4-.3.4-.5v-1.1c0-.2,0-.3-.3-.3h-1c-.9,0-1.9-.5-2.6-1.5-.4-.5-2.7-7-3.5-9.7-.7-2.2-3.5-10-4.3-12.2-.1-.4-.2-.6-.5-.6h0ZM126,39.7c-3.9,0-7.2,1.1-9.8,3.3-2.6,2.3-4,5.6-4,8.9s1.1,7.2,3.3,9.6c2.6,2.8,6.9,4,9.8,4s6.4-.8,9.3-2.2c.4-.2.6-.3.6-.6s-.2-.6-.2-1.1v-4.2c0-.9,1-1.1,1.6-1.1h.9c.2,0,.3-.2.3-.3v-1.3c0-.2-.1-.3-.3-.3s-2.7.1-4.7.1c-2.9,0-5.6-.1-5.9-.1s-.3.1-.3.3v1.3c0,.2,0,.3.3.3h1.3c1.4,0,2.7.4,2.7,1.6v2c0,1.1-.1,1.8-.8,2.3-.9.7-2.6,1.2-4.5,1.2s-3.7-.8-5.2-2.5c-2.1-2.2-3.3-5.3-3.3-9.5s1.2-5.3,2.8-7.1c2-2.2,4.1-2.8,5.8-2.8,2.5,0,4,1.1,5.5,2.6,1.3,1.3,2.2,3,2.6,3.9.2.4.3.5.4.4l1-.3c.2,0,.2-.2.2-.4-.1-1-.8-6.1-.8-6.3s-.1-.6-.6-.6-.6.2-.7.4l-.3.5c-.1.2-.3.2-.8-.2-1-.8-3.6-1.7-6.2-1.7h0ZM77.4,40.2c-.2,0-.3.1-.3.3v1.3c0,.2,0,.4.3.4h1c2.3,0,2.8.5,2.8,1.1s.1,6.2.1,7.1v2.4c0,1.9,0,8.8-.1,9.3-.1,1-1,1-2.3,1h-1.2c-.2,0-.3.2-.3.3v1.2c0,.3.1.4.3.4.3,0,3.5-.2,5.3-.2s5.3.2,5.7.2.3-.2.3-.4v-1.3c0-.2,0-.3-.3-.3h-.8c-1.6,0-2.2-.8-2.3-2,0-.8,0-7.1,0-7.4v-2.7c0-.4,0-6.9,0-7.4,0-1.1.5-1.4,2-1.4h.9c.3,0,.3-.2.3-.4v-1.3c0-.2-.1-.3-.3-.3-.4,0-3.2.2-4.8.2-2.6,0-5.9-.2-6.3-.2h0ZM90.9,40.2c-.2,0-.3.1-.3.3v1.3c0,.2,0,.4.2.4h.5c1.5,0,2,.6,2.1,1.7v8.6c0,3.3,0,6.5,0,9.2,0,1.2-.7,1.4-2,1.4h-.7c-.2,0-.3.1-.3.3v1.3c0,.3.1.4.3.4.4,0,3.2-.2,4.5-.2s4.7.2,5.1.2.4-.1.4-.4v-1.3c0-.2-.1-.3-.3-.3h-1.4c-1.1,0-1.4-.6-1.5-1.4v-7.2c.4-.1.9-.1,1.4-.1,2.3,0,3.1,1.2,5.1,4.6.5.8,2.9,5.2,3.9,6,.9,0,2.2-.1,3.5-.1s1.2,0,1.7,0c.5,0,1,.1,1.1.1.2,0,.3-.2.3-.4v-1.1c0-.3,0-.5-.3-.5-1,0-1.7,0-2.5-.6-1-.8-2.3-2.4-3.1-3.5-2.2-3.2-3.3-4.9-4.6-5.1h0c4.3-1.6,6.4-3.8,6.4-7.6s-.7-2.8-1.9-4c-1.4-1.2-3.8-2.1-7.1-2.1s-5.5.2-6.1.2c-1,0-4.4-.2-4.6-.2h0ZM137,40.2c-.2,0-.3.1-.3.3v1.3c0,.2,0,.4.3.4h1c2.3,0,2.8.5,2.8,1.1s.1,6.2.1,7.1v2.4c0,1.9,0,8.8-.1,9.3-.1,1-1,1-2.3,1h-1.2c-.2,0-.3.2-.3.3v1.2c0,.3.1.4.3.4.3,0,3.5-.2,5.3-.2s5.3.2,5.7.2.3-.2.3-.4v-1.3c0-.2,0-.3-.3-.3h-.8c-1.6,0-2.2-.8-2.3-2,0-.8,0-7.1,0-7.4v-2.7c0-.4,0-6.9,0-7.4,0-1.1.5-1.4,2-1.4h.9c.3,0,.3-.2.3-.4v-1.3c0-.2-.1-.3-.3-.3-.4,0-3.2.2-4.8.2-2.6,0-5.9-.2-6.3-.2h0ZM150.5,40.2c-.2,0-.3.2-.3.3v1.3c0,.2.1.3.3.3h.5c1.5,0,2.9.9,2.9,2.9v5.7c0,6.2-.1,10-.2,10.7-.2,1.3-1,1.6-1.6,1.6h-1.3c-.2,0-.2,0-.2.2v1.4c0,.3,0,.4.2.4.4,0,2.9-.2,3.7-.2,1.6,0,3.8.2,4.1.2s.3-.1.3-.3v-1.3c0-.2,0-.3-.3-.3h-1.1c-.5,0-1.1-.6-1.3-1.9-.1-.5-.3-5.9-.3-9.2v-7.5h.1c.9,1,5.3,6.9,6.6,8.4.6.7,2.9,3.5,5.5,6.5,2.2,2.7,4.1,4.9,4.5,5.3.2.2.8.5,1.3.5s.8-.5.8-1v-12.8c0-2.2-.1-5.7.2-8.2.1-.8.4-1.1,1.7-1.1h.5c.2,0,.3-.2.3-.4v-1.1c0-.3-.1-.4-.4-.4s-2.3.2-3.4.2c-1.7,0-4.1-.2-4.5-.2s-.4.1-.4.3v1.3c0,.3.1.4.4.4h.9c.9,0,1.7.3,2,1,.3.7.4,3.8.4,5.1.1,1.7.2,3.4.2,6.5v3.6h-.2c-.7-.7-5.7-7.1-6.7-8.2-1.1-1.4-7.4-9.3-7.6-9.5-.2-.3-.5-.4-1.3-.4s-1.8.1-2.7.1-1.5,0-2.2-.1c-.7,0-1.3,0-1.4,0h0ZM99.5,41.9c2.2,0,3.7.5,5.2,1.4,1,.7,1.8,2.1,1.8,3.8s-.9,5.7-7,5.7-1.3,0-1.6-.1v-9.5c0-1,.8-1.2,1.6-1.2h0ZM203,43.8c.2,0,.2.2.3.5.1.4,2.7,8.6,2.9,9.4h-7.4c.3-.5,3.6-8.9,3.8-9.3.2-.4.3-.6.4-.6ZM35.4,7.8c-.2,0-.3.2-.3.3v1.3c0,.2.1.3.3.3h.5c1.5,0,2.9.9,2.9,2.9v5.7c0,6.2-.1,10-.2,10.7-.2,1.3-1,1.6-1.6,1.6h-1.3c-.2,0-.2,0-.2.2v1.4c0,.3,0,.4.2.4.4,0,2.9-.2,3.7-.2s1.9,0,2.7,0c-.4.9-.7,1.8-1.1,2.8h-3c-.3,0-.5.6-.6.8v.6c-.2.2-.1.4,0,.4h3.1l-3.5,11.7c-1.9,6.4-3.7,9.3-5.4,9.3s-.5-.2-.6-.6c-.1-.6-.6-1.6-1.6-1.6s-1.5.7-1.5,1.5,1.1,2,2.5,2c3.7,0,6.1-3.8,8.3-9.2,1.7-4.4,3.3-10.3,4.2-13.1h4.7c1.1,0,1.6.6,2.1,1.7.7,1.5,3,8.8,4.2,12.4l.5,1.7c.7,1.8,4.7,13.3,6.3,17.9.2.7.4,1.2.9,1.2s.5-.3.7-.7c.3-.5,6.7-16.5,7.3-18.1.9-2.1,4.9-12.4,6.2-14,1-1.2,1.9-2,3.6-2h1.4c.3,0,.4-.1.4-.3v-1.3c0-.3,0-.3-.4-.3-.5,0-1.7.1-5.4.1s-5.5-.1-5.9-.1-.3,0-.3.3v1.2c0,.3,0,.5.3.5h1.3c1.3,0,1.6.6,1.6,1.2s-.3,1.6-.7,2.9c-.8,2.2-2.7,8-3.2,9.3-.4,1.2-4.3,11.5-5.5,13.9-1.2-3.1-4.1-11.7-4.7-13.6-.9-2.8-2.8-8.8-3.1-10.6-.2-.7-.2-1.3-.2-1.7,0-.9.7-1.3,2.1-1.3h2.4c.4,0,.4-.2.4-.5v-1.2c0-.2,0-.3-.5-.3s-2.7.1-6.9.1-8.7-.1-8.7-.1c1.1-3.9,1.8-8.4,5-8.4s1.4.7,1.4,1c.1.8.4,1.4,1.5,1.4s1.4-.5,1.4-1.6,0-.3-.1-.5c2.2,2.6,4.1,4.9,4.4,5.2.2.2.8.5,1.3.5s.8-.5.8-1v-12.8c0-2.2-.1-5.7.2-8.2.1-.8.4-1.1,1.7-1.1h.5c.2,0,.3-.2.3-.4v-1.1c0-.3-.1-.4-.4-.4s-2.3.2-3.4.2c-1.7,0-4.1-.2-4.5-.2s-.4.1-.4.3v1.3c0,.3.1.4.4.4h.9c.9,0,1.7.3,2,1,.3.7.4,3.8.4,5.1.1,1.7.2,3.4.2,6.5v3.6h-.2c-.7-.7-5.7-7.1-6.7-8.2-1.1-1.4-7.4-9.3-7.6-9.5-.2-.3-.5-.4-1.3-.4s-1.8.1-2.7.1-1.5,0-2.2-.1c-.7,0-1.3,0-1.4,0h0ZM40.7,12.2h.1c.9,1,5.3,6.9,6.6,8.4.5.6,2.7,3.1,4.8,5.7-.5-.4-1.3-.7-2.3-.7-2.2,0-4.1,1.2-5.1,2.3-.8.8-1.4,1.8-1.9,2.8h-.6c-.5,0-1.1-.6-1.3-1.9-.1-.5-.3-5.9-.3-9.2v-7.5h0Z"/>
</svg>