<?xml version="1.0" encoding="UTF-8" standalone="no"?>
<svg xmlns="http://www.w3.org/2000/svg" xml:space="preserve" width="201.66" height="197.33" viewBox="0 0 201.66132 197.3291">
  <path d="M98.37 1c7.775-.37 16.02125.7325 22.6275 2.10625C127.89625 4.54 134.12375 6.5925 139.765 8.9825c23.13875 9.79625 40.0775 25.9 50.8675 47.88375 2.71875 5.54125 5.115 11.27 6.84 17.80375 1.7475 6.615 2.785 13.59 3.1575 21.48625.77375 16.37375-2.69375 30.2025-7.80625 41.39625-5.1925 11.37125-12.12 20.97625-20.25875 29.11625-8.28 8.28-17.69125 15.13875-29.11625 20.25875-11.40875 5.11375-24.54 8.92625-39.9925 9.2975-16.23125.38875-30.17375-2.825-41.745-7.63125-11.66375-4.84375-21.35-11.5725-29.90625-19.47-8.51-7.8525-15.53875-17.18375-21.04875-28.3275-5.4075-10.93375-9.28125-24.345-9.6475-39.64-.19625-8.19125.51375-15.75 1.92875-22.6275 2.79125-13.54625 8.23375-24.935 14.73375-34.64125 3.28125-4.8975 6.92-9.4625 11.05125-13.59375C41.1675 17.9475 56.00125 8.51 76.26875 3.72c6.705-1.585 14.165-2.72 21.925-2.72.05875 0 .1175.00375.17625 0"/>
  <path fill="#fff" d="M98.245 2.95c-7.60475 0-14.91625 1.1123-21.48625 2.665625-19.8625 4.69425-34.39875 13.9425-46.4975 26.0425-4.049875 4.048625-7.615875 8.522375-10.83025 13.3225-6.37 9.512125-11.704875 20.6725-14.43875 33.94875-1.387875 6.74-2.0825 14.1475-1.890125 22.175.358925 14.98875 4.15525 28.1325 9.4545 38.8475 5.39975 10.920875 12.288 20.065 20.6275 27.76125 8.383875 7.7395 17.87625 14.33375 29.3075 19.08 11.339875 4.710125 25.005 7.859625 40.91125 7.478625 15.1425-.363825 28.01125-4.100125 39.19125-9.1115 11.19775-5.017625 20.42125-11.739125 28.535-19.85375 7.976-7.97725 14.765-17.39 19.85375-28.53375 5.01025-10.969875 8.407125-24.5225 7.648875-40.56875-.36505-7.738375-1.38175-14.57375-3.093125-21.05625-1.6905-6.403125-4.038875-12.01725-6.704375-17.4475C178.26 36.1565 161.66175 20.374 138.9855 10.774c-5.529625-2.34225-11.631375-4.353625-18.39375-5.75875-6.472875-1.34625-14.555-2.42675-22.17375-2.064125-.057625.00375-.115125 0-.172725 0"/>
  <path d="M97.2325 8.1c7.16875-.34125 14.82125.3225 21.22375 1.75375 6.44875 1.44375 12.3425 3.08125 17.6275 5.2625 10.93 4.51 19.90375 10.7575 27.80125 17.97875 8.23375 7.5275 14.39125 15.695 19.90875 25.96 5.25625 9.7775 9.04125 22.36625 9.6475 36.1325.67 15.21125-2.0725 28.2775-6.84125 38.8525-4.8125 10.67-11.035 19.37375-18.505 27.27375-3.595 3.8025-7.965 7.29125-12.45375 10.4375-8.965 6.2825-19.06125 11.33375-31.31 14.47125-9.29125 2.37875-20.14875 3.42625-30.87 2.63125-3.41875-.255-6.77375-.89-9.99875-1.4925-19.31375-3.6-33.94125-11.59625-45.955-22.715-15.775-14.595-27.28875-34.30375-29.11625-62.53-.96625-14.9025 2.5775-28.2825 6.92875-38.58875C19.8425 52.81 26.04375 43.635 33.47375 35.90125 48.45625 20.305 68.01125 9.49125 97.2325 8.1"/>
  <path fill="#fff" d="M97.845 10.0375c-14.38375 0-26.52 3.57375-36.57125 8.24375-10.22 4.7475-18.9725 11.05875-26.0475 18.7675-7.3475 8.005-13.3425 16.16375-17.89125 26.92375C12.91 74.44 9.89125 86.77375 10.40625 101.685c.47625 13.7625 4.24625 25.73625 9.20875 35.6075 10.04125 19.97125 25.30375 34.42375 46.4825 43.1475 10.47375 4.31625 23.41875 7.34375 37.97375 6.84125 13.86625-.47875 26.00625-3.7975 36.22125-8.59375 10.38-4.87375 18.62375-10.995 26.2225-18.59375 7.3625-7.3625 13.66625-16.2375 18.0675-26.74875 2.195-5.24625 4.31375-10.6375 5.525-16.83875 1.215-6.22125 1.84-13.23875 1.4025-20.6975-.8175-13.91375-4.29-25.5625-9.29625-35.51875C177.17 50.25875 170.7775 42.165 163.0075 34.68125c-7.48-7.205-16.58625-13.24625-27.1875-17.62875-10.065-4.15875-23.4425-7.69875-37.79875-7.015-.05875.0025-.1175 0-.17625 0"/>
  <path d="M98.6325 11.525c6.73375-.32125 14.36875.6175 20.25875 1.84125 18.12 3.7675 32.23 12.145 43.41125 22.715 7.5725 7.1575 13.87875 15.35625 18.85625 25.2575 4.8425 9.6325 8.56375 21.8 8.77 35.25625.22375 14.6675-2.26375 26.7075-7.01625 36.9225-9.2975 19.985-23.99 34.97875-44.11375 44.02625-5.1475 2.31375-10.455 4.225-16.3125 5.70125-5.9425 1.49625-12.6875 2.03875-19.645 2.36625-13.39125.63375-26.425-2.58-36.48375-6.7525-20.76125-8.60875-35.90125-23.06-45.6925-42.535-4.935-9.815-8.23625-21.5325-8.77-35.25625-.285-7.305.31875-14.2275 1.57875-20.34625 1.27-6.1725 3.21875-11.52375 5.34875-16.66375 3.28375-7.9175 7.5075-14.48 12.54125-20.5225 8.16875-9.8025 18.5925-18.30125 30.96-24.1175 9.90125-4.655 21.9675-7.8925 36.1325-7.8925.05875 0 .1175.0025.17625 0"/>
  <path fill="#fff" d="M98.4575 13.5375c-13.85375.00125-25.3225 3.6075-35.08 7.98125-15.00375 6.725-26.49875 16.73875-35.08125 29.555-8.375 12.5075-15.30125 28.7-14.55875 50.165.4675 13.4975 3.9975 24.64 8.77 34.2925 4.75625 9.61625 10.8525 17.8725 18.33 24.81875 7.385 6.86125 15.70875 12.7425 26.135 16.92625 10.08625 4.04875 22.455 7.32625 36.3075 6.665 6.9-.3275 13.2175-1.0025 19.0325-2.455 17.13-4.27875 30.575-12.6825 41.3075-23.41625 7.18375-7.185 13.03375-15.65625 17.4525-25.60875 4.53875-10.22125 7.10375-21.25 7.1025-36.045 0-13.2875-4.09875-24.84625-8.76875-34.29125-2.41625-4.885-5.2225-9.435-8.1575-13.41875-9.11875-12.38125-21.015-22.08875-36.3075-28.3275-9.69-3.95375-22.51625-7.4975-36.3075-6.84125-.05875.00375-.1175 0-.17625 0"/>
  <path d="M96.5055 20.826c-.651-.05-1.723 1.502-2.076 1.744-.423.29-.961.409-1.402.701-3.38 2.255-3.969 7.292-7.893 8.596-.396-1.447.562-2.57.701-3.945.028-.269-.097-.568-.088-.877.03-.988.548-2.266-.527-2.193-.568.038-1.341 1.646-1.666 2.105-.611.863-1.272 1.434-1.666 2.104-1.526 2.607.192 7.447-2.629 8.419-.404-.968.067-2.083.262-2.982-.508-.642-.685-1.561-1.666-1.578-.795-.014-1.78.794-1.756 1.578.04 1.215 1.973 1.516 2.107 2.982.085.935-.404 2.098-.613 2.807-.258.871-.531 1.747-1.141 2.193-.511-2.125-1.725-3.64-2.457-5.437-.227-.56-.145-1.619-1.138-1.49-.479.412-.24 1.132-.264 1.666-.13 2.772-.598 6.23.35 8.33.337.746 1.036 1.279 1.228 2.017.793 3.045-2.224 5.083-3.07 6.491-.892 1.483-1.406 3.766-1.227 6.226.066.895.637 1.969.526 2.807-.215 1.621-3.061 1.98-3.159 3.945-.032.659.191 1.149.616 1.317 1.642.642 1.988-2.373 2.982-2.456 1.099 2.592 1.841 5.976 3.947 7.456 2.505 1.76 6.064-.145 8.33-.791.322 1.357-1.018 2.163-.877 3.419.125 1.113 1.915 1.618 2.106 2.897.076.509-.19.855-.088 1.227.428 1.541 3.623.955 3.682 2.63.02.534-.672 1.545-1.051 2.368-.79 1.717-1.888 3.918-2.106 5.877-.168 1.521.479 1.877.616 2.894.108.814-.119 1.966-.178 2.982-.168 2.952-.278 6.315-.438 9.115-.601 10.56.296 21.13-.175 31.49-.137 3.03-1.154 6.53.703 8.07 1.182.22 2.224-.93 2.629.26-1.168 1.27-2.5 2.19-4.034 3.33-.916.69-3.555 2.4-3.945 3.42-.217.57-.249 1.75-.351 2.55-.257 1.98-.338 5.2 1.226 5.61.285.08.953-.07 1.404-.09 9.188-.38 19.878-.7 29.908-.7 1.34 0 3.55.29 4.21 0s.62-1.26.96-2.01c.86 2.23 3.82 2.68 5.53 1.14.43-.39.67-1.26 1.14-1.32.9-.12 1.58 1.73 2.28 2.1 1.63.88 3.74-.48 4.3-1.57.63-1.26.28-2.88 2.01-3.07.37-.81.7-1.69.44-2.46-.17-.5-1.01-1.16-1.31-1.58-.5-.69-.82-1.38-1.14-2.19-.33-.82-.4-1.78-.79-2.63-.43-.94-1.28-1.84-2.02-2.46-1.09-.91-2.53-1.39-3.6-2.28-.93-.78-1.17-1.81-1.58-3.16-.27-.9-.72-1.66-.78-2.28-.25-2.34.98-3.75.96-6.13.71-.57.5-1.58.79-2.55.14-.46.52-.83.61-1.23.2-.88.21-1.84.36-2.71.74-4.44 1.77-9.67-.53-12.81-1.1-1.5-2.94-2.19-3.25-4.38-3.79-3.25-4.65-9.44-6.22-14.912-.52-1.789-1.44-3.372-2.02-5.088-.03-.099-.07-.197-.09-.264-.91-3.82-1.08-8.036-1.84-11.839-.35-1.765-.85-3.682-1.49-5.348-1.03-2.684-2.03-4.3-3.86-5.965-1.16-1.056-2.15-2.048-4.12-2.018-.64-.503-.69-1.59-.79-2.63.42-.875 2.19-.72 2.63-1.842.37-.935-.43-2.875 0-4.209.23-.721.86-.817.96-1.317.13-.627-.29-1.848-.43-2.718-.16-.917-.36-1.86-.53-2.631-.37-1.625-.55-3.759-1.23-5.174-.4-.851-1.41-1.527-2.102-1.842-.624-.281-1.276-.214-1.754-.615-1.002-.84.253-3.794-1.578-3.772-.56.008-1.271.74-1.754 1.231-.917.924-1.51 1.818-1.756 3.068-1.879 1.512-3.616 3.284-4.121 5.526-.39 1.728 1.01 3.053.965 4.734-.012.463-.393 1.015-.438 1.58-.13 1.618 1.018 3.127.787 4.561-.09.555-.595.967-.701 1.578-.324 1.859.309 4.057-.176 5.875-.353.185-.697-.024-1.052-.086-1.935 2.039-5.016 2.96-7.366 4.736-.546.413-1.736 1.854-2.455 1.666-.582-.152-1.709-3.205-1.929-3.597-.578-1.03-1.881-2.374-2.018-3.506-.231-1.884 1.466-3.607 1.49-5.789.025-2.159-1.668-5.121 1.053-5.086.502.49.17 1.817.701 2.279 2.306 1.001 2.379-2.311 1.141-3.158 2.391-.868 4.413-2.71 5.701-4.735.396-.621 1.106-1.501.703-2.281-4.202.565-7.363 2.93-9.211 6.141.133-2.199.536-3.777 1.93-4.737 1.764-1.213 4.351-1.429 5.701-3.07.507-.615.854-1.367 1.314-2.017.473-.665 1.042-1.432.877-2.543-2.462-.174-3.674 1.639-5.699 2.193.909-1.131 1.329-1.76 2.367-2.719.807-.745 2.313-1.817 3.42-1.666.701.095 1.061.934 1.842.875.866-.064 1.804-1.145 1.666-2.015-.137-.872-1.335-.797-1.402-1.58 2.521.84 8.746 2.045 9.998-1.051-1.934-.465-3.938-.858-5.789-1.405.525-.806 1.777-1.005 2.894-1.404 1.001-.355 2.259-1.035 3.244-1.139.899-.092 1.837.156 2.717.088 2.61-.201 4.99-1.477 6.67-2.631.51-.348 1.56-.813 1.31-1.666-1.3-.275-2.73.008-4.03.174-1.29.167-3.22.298-4.03.791-.944.569-1.7 1.504-2.81 2.104-1.168.632-2.288 1.026-3.684 1.316.36-.732.944-1.454 1.49-2.457.415-.76 1.278-1.996 1.141-2.806-.082-.481-.252-.675-.469-.692zm48.212 9.131c-.27.01-.54.032-.83.068-2.85.37-4.94 2.94-5.17 5.528-.77 8.755 12.37 7.901 12.46.611.04-3.576-2.44-6.354-6.46-6.207zm-91.423.025c-.079.001-.14.015-.17.043-.799.785-2.323 1.78-2.633 2.807 1.368.303 1.566 2.6 1.141 4.121-1.466.244-2.749-.389-3.771-.875-.017-.541.484-.896.087-1.316-1.046-.197-1.758 1.028-2.457 1.666-.685.627-2.122 1.27-1.666 2.369.742.16.97-.379 1.58-.527 1.979-.484 3.851.922 5.788.964.778 1.408 2.976 2.255 3.07 4.121.019.407-.515 1.028.088 1.317.566.096 1.104-.515 1.578-.877.791-.606 1.572-1.231 1.842-2.191-.418.05-.809.125-1.315.085-1.085-.381-1.65-1.991-2.369-2.892-.326-.41-.754-.529-.877-.965-.092-.326.016-.725 0-1.053-.07-1.38-.176-2.905-.176-4.562.359-.663 1.183-.862 1.053-2.016-.158-.117-.555-.222-.793-.219zm92.783 1.137c2.51-.041 3.79 2.699 2.64 5.221-.87 1.905-3.42 4.203-4.83 4.387-1.32.173-2.62-.61-3.06-1.668-.86-2.058.69-4.685 1.84-5.963.62-.694 1.81-1.755 2.89-1.93.18-.028.35-.044.52-.047zm8.83 5.391c-.8.194.3 1.741.39 1.935-2.2 2.308-4.31 4.701-6.67 6.84-.37-.254-.85-.716-1.49-.437.45 1.772 2.24 2.202 2.99 3.683.19.034.93.28.96-.088.38-.763-.62-.903-.62-1.578 1.02-.862 1.78-3.291 3.51-2.894 1.6.365-.23 2.088.18 3.244 1.57.127 2.16-1.396 2.98-2.104.49-.43 1.41-.766.96-1.666-.15.003-.22-.068-.26-.175-1.01-.17-1.13.847-1.93.875-.61.022-1.35-.504-1.4-1.051-.08-.858 1.29-1.649 1.84-2.194.19-.187.54-.838.88-.877.85-.097 1.63 1.468 2.28 2.106.33.329.99.589 1.05 1.141.11 1.007-1.2 1.836-.35 2.806.84-.252 2.19-.894 2.19-1.931 0-.593-.98-1.533-1.49-2.104-1.22-1.364-2.54-2.343-3.77-3.596-.42-.43-1.3-1.847-1.75-1.927-.21-.036-.36-.036-.48-.008zm-112.59 2.691c-.204-.006-.405.079-.592.297-1.729 2.015-4.558 4.983-6.139 6.754-.124.576-.402 1.001-.527 1.578.825.81 1.352 1.921 2.631 2.279 1.486-.886-.572-2.129-.614-3.158-.038-.971.819-1.618 1.579-2.103 1.567 1.343 3.582 3.377 5.437 4.912.499.414 1.62 1.215 1.668 1.84.038.502-.464.83-.352 1.316.993.493 1.709-.773 2.192-1.404.59-.77 1.371-1.615 1.492-2.367-.735-.56-1.119.515-1.754.615-1.174-1.144-2.468-2.141-3.683-3.246-1.192-1.082-2.49-2.167-3.42-3.508.55-.585.973-1.768 1.839-1.754.9.015 1.842 2.298 2.895.877-.003-.816-.579-1.111-1.053-1.666-.358-.421-.989-1.245-1.599-1.262zm-9.354 10.67c-.192.013-.446.213-.623.238-.357 1.72-1.968 2.648-2.191 4.209.072.22.305.279.437.44.743-.076.768-.868 1.403-1.051 2.668 1.774 5.714 3.171 7.982 5.348-.054.467-.257 1.285.174 1.49 1.607-.789 2.18-2.614 3.07-4.121-.246-.164-.396-.422-.789-.44-.509.28-.514 1.065-1.141 1.229-2.65-1.851-5.232-3.769-7.804-5.699.15-.467.212-1.542-.352-1.58-.045-.051-.102-.067-.166-.063zm135.49 1.203c-.2.028-.19.271-.35.35-.09.565.56 1.017.53 1.58-.04.694-1.16 1.889-1.58 2.543-1.18 1.849-2.24 3.361-3.51 4.912-.6.729-1.61 1.709-.96 2.719 2.46.02 5.75-.342 8.33-.526.94-.067 2.21-.351 2.89-.177.94.237.91 1.861 2.2 1.49.03-1.456-.72-2.204-1.14-3.156-.24-.528-.41-1.486-1.23-1.317-.39.348-.02 1.449-.27 1.932-1.88.425-4.5.263-6.48.613-.63.111-1.41.541-1.76-.088 1.64-2.309 3.28-4.612 5-6.84.55.304.72 1.433 1.75.963-.1-.852-.79-1.57-1.31-2.455-.58-.972-.97-2.434-2.11-2.543zm-140.17 6.242c-.068-.016-.227.108-.235.161-.311.126-.261.617-.351.964-1.379 1.497-4.13 3.967-2.805 7.018.357.825 1.345 1.896 2.455 2.016 1.748.188 2.884-1.187 4.033-2.194.959-.837 2.705-2.522 3.86-2.367.695.095 1.503 1.381 1.492 2.191-.014.934-1.308 2.488-2.457 2.633-1.146.144-1.904-.726-3.069-.176-.762 1.38.805 1.635 1.666 2.104.817.445 1.655.886 2.368.527.583-2.427 2.953-2.991 2.894-5.701-.039-1.811-1.38-3.485-2.455-3.859-4.025-1.396-6.637 4.442-8.332 4.472-.624.012-1.183-.499-1.316-1.05-.395-1.642.972-3.715 2.193-3.948 1.431-.272 2.37.98 3.332-.349-.584-1.288-1.817-1.926-3.244-2.369.007-.045-.007-.067-.029-.073zm148.24 7.44c-.51.222-.14 1.319-.35 1.842-2.63 1.49-6.02 2.222-8.68 3.683-.7-.24-.83-1.049-1.23-1.58-.39-.036-.68.027-.87.178.11.896.71 1.715 1.05 2.629.29.807.37 2.218 1.57 2.193.48-.374.05-.915.09-1.578 2.85-1.221 5.94-2.187 8.86-3.332.58.179.6.916 1.49.787.33-.897-.41-1.724-.7-2.543-.29-.796-.22-2.112-1.23-2.279zm-152.59 5.943c-.158.01-.31.045-.451.108-2.6 1.163-3.148 4.114-3.948 7.191-.381 1.473-1.149 2.24-.261 3.158 1.2.149.751-1.354 1.402-1.754 2.905 1.194 9.214.747 9.91 3.946.266.126.524.016.789-.088-.23-1.489 1.369-3.127.526-4.647-.73-.331-.797.708-1.315.875-1.206-.665-3.537-.203-4.033-1.576 1.092-2.224 5.745-1.756 7.365-3.598.285-.323 1.611-2.487.09-2.804-.892 2.265-5.026 1.754-6.666 2.98-.499-.667-.256-1.213-.527-1.842-.381-.882-1.779-2.017-2.881-1.949zm155.83 1.774c-.13.009-.27.065-.43.175-.26.592.09 1.151.09 1.756-1.35.763-3.01 1.104-4.56 1.576-1.6.485-3.19.942-4.74 1.405-.53-.234-.41-1.108-1.32-.965-.49.371.08.903.27 1.49.28.885.22 2.423 1.23 2.545.49-.124.28-.94.61-1.228 1.2-.342 2.37-1.099 3.86-.877 1.52 3.317-3.57 4.587-3.86 7.367-.04.382-.2 2.348 1.23 2.015.19-2.133 1.71-2.884 2.8-4.033.54-.567.85-1.231 1.41-1.754 1.3.737 1.42 2.096 3.15 2.104 1.44.007 2.63-1.395 2.81-3.069.26-2.403-.76-3.42-1.4-5.437-.31-.978-.28-3.139-1.15-3.07zm-156.03.783c2.056.186 3.041 3.529 1.064 4.656-.897-.68-2.869-.29-3.508-1.228.312-1.458.682-3.263 2.018-3.42.146-.018.289-.021.426-.008zm156.3 3.515c.94 1.505 1.26 4.791-.79 5.086-2.06.294-2.78-1.865-3.07-3.771.95-.78 2.25-1.201 3.86-1.315zm-160.88 6.508c-.168.011-.334.033-.493.069-1.22 2.982-1.743 7.443-1.929 11.666-.071 1.636-.135 3.55.439 4.47 1.249.255.776-1.213 1.404-1.578 1.943.638 3.921 1.507 5.7 2.194.571.22 1.398.33 1.666.96-1.202.67-2.426 1.36-3.684 2.02-1.221.65-2.434 1.49-3.769 1.76-.144-.72-.397-2.02-1.405-1.32.154.95.153 2.46.262 3.77.073.87.276 1.8.879 2.1.784-2.77 3.247-3.21 5.787-4.64.763-.43 1.374-1.03 2.545-1.41 1.34-.42 3.26-.72 2.629-2.63-3.444-1.377-6.844-2.798-10.348-4.118-.922-.856-.978-2.983-.176-4.033 3.094.237 6.056.609 9.209.787.367.54.458 1.355 1.053 1.668.93-.32.567-1.208.613-2.018.055-.984.259-2.15.44-3.246.184-1.12.598-2.463.439-3.244-.331-1.608-2.605-1.401-3.949-2.106-.754 1.898 2.087 1.969 2.369 3.332.238 1.155-.2 2.96-.965 3.596-1.322-.552-3.899.218-3.947-1.314-.027-.92 1.058-1.285 1.842-1.668-.015-1.855-2.884-.857-3.857-1.754-.345.24-.858.313-.965.791.39.994 1.87.873 1.927 2.015.032.594-.447 1.206-.875 1.317-1.03.269-2.032-.822-3.158-.613-.477-1.509-.145-3.608.614-4.649.694-.376 1.747-.05 1.929-.789.234-.948-1.051-1.461-2.226-1.385zm159.34 5.014c-1.31-.001-2.69.393-3.63.932-1.5.853-3.55 3.291-3.16 5.789.21 1.385 1.79 2.431 1.14 4.121.59 1.085 1.94.228 3.07.525.67.178.86 1.31 1.66.79.06-1.43.8-4.196-.61-4.559-.45.727-.36 1.814-1.23 1.927-1.32.174-2.5-1.812-2.98-2.804.19-4.933 9.62-5.562 10.88-1.317.77 2.615-1.54 3.742-2.9 4.91.56.86 2 .832 3.33.704.43-.679.19-1.301.27-1.93.14-1.126.68-2.069.61-3.334-.12-2.423-2.88-5.063-5.17-5.611-.41-.098-.84-.143-1.28-.143zm-5.3 14.787c-.37-.04-.6.05-.79.18.17 1.86-.51 2.88-.35 4.73 1.24.57.94-1.08 1.49-1.49 2.95.56 6.44.58 9.38 1.14.38.6.44 2.01 1.49 1.4-.46-1.89.94-3.52.18-5.17-1.13-.13-.72 1.27-1.32 1.67-1.21-.02-2.89-.18-4.55-.35-2.29-.24-5.51.09-5.53-2.11zm-143.22 5.18c-1.098-.11-.728 1.26-1.053 1.93-3.215.47-6.336 1.03-9.472 1.57-.38-.46-.386-1.61-1.227-1.4-.8.21-.095 1.76.088 2.81.227 1.29.393 2.5.789 2.98.32.03.569-.01.789-.09.232-.6-.136-1.25.088-1.84 1.912-.47 4.725-1.14 6.754-1.67.743-.19 1.835-.64 2.365-.52.727.16.678 1.36 1.58 1.22.755-.84-.117-1.95-.264-2.98-.108-.76.004-1.48-.437-2.01zm141.9 2.62c-.19 0-.37.05-.43.18.3 1.22-1.21 2.97.26 3.6.51-.25.56-1.1 1.31-1.23.96-.17 2.31.63 3.6.79 1.45.18 2.92.1 3.42.96-2.94 2.27-7.01 3.4-10.52 5.09-.09.58.09.9.26 1.23 1.92.63 4.52 1.64 6.58 2.28 1.73.54 3.28.74 3.07 2.89h.87c.25-1.36 1.06-2.61.88-4.12-1.14-.26-.87.89-1.58 1.05-1.2-.33-2.46-.56-3.59-.96s-2.26-.79-3.16-1.41c3.12-1.85 6.87-3.07 9.91-4.99.5-1.17 1.18-2.61.96-4.21-1.63-.23-1.05 1.75-1.92 2.28-2.22-.25-5.33-1.26-7.46-1.58-.29-.05-.72.04-.97-.09-.62-.33-.51-1.25-.96-1.67-.13-.04-.34-.09-.53-.09zm-140.22 6.48c-.246-.02-.48.05-.623.1-2.53 1-6.652 1.37-9.207 2.46-.73-.33-.586-1.98-1.842-1.49-.126.81.198 1.81.439 2.72.213.8.269 2.14 1.403 2.02.492-.27.107-1.42.349-1.93 1.112-.33 2.256-.76 3.422-1.14 1.106-.37 2.32-.97 3.42-.8-.501 3.66-5.873 6.29-5.262 11.23.123.99.667 2.75 1.842 2.11.353-.87-.447-1.3-.264-2.28 1.317-.78 2.862-1.19 4.297-1.76 1.462-.58 2.893-1.2 4.387-1.66.659.23.662 1.33 1.666.96.399-.66-.069-1.72-.352-2.45-.268-.7-.472-1.93-1.492-1.5-.37.25-.015 1.22-.263 1.58-.9.7-2.162 1.09-3.332 1.58-1.159.49-2.427 1.26-3.506 1.14.91-2.69 2.483-4.78 3.945-6.84.805-1.13 1.797-2.09 1.666-3.68-.191-.26-.448-.36-.693-.37zm136.01 7.65c-.99 1.19-1.25 3.13-2.1 4.47.26.24.34.65.88.61.56-.27.48-1.51 1.31-1.57.45-.04 1.54.78 2.11 1.05 2.14 1.03 5.08 2.01 6.49 3.24-.02.57.02 1.08.35 1.32.95-.13 1.18-1.37 1.49-2.19.35-.95.74-1.81 1.05-2.46-.95-1.25-1.3.9-2.1 1.14-2.81-1.46-5.96-2.58-8.69-4.12.04-.66-.01-1.22-.35-1.49h-.44zm-2.8 6.14c-.82-.05-1.12 1.43-1.41 2.1-.46 1.08-.9 1.39-.26 2.02.79-.09.85-.9 1.67-.97.86 1.04 1.86 1.94 2.54 3.16-.63.74-1.01 1.73-1.75 2.37-1.29-.29-2.91-.25-3.95-.79-.33-.46.46-1.38-.09-1.75-.73.03-1.32.9-1.75 1.57-.46.73-.93 1.69-.97 2.46.86.23 1.17-.51 1.58-.44 2.62.61 5.86 1.39 8.51 2.02 1.27.3 4.11 1.42 3.68-.88-.15-.8-1.31-1.8-1.75-2.37-1.85-2.38-3.92-4.79-5.61-6.84.27-.81.21-1.63-.44-1.66zm-128.31 1.49c-.111-.02-.256.04-.35.08-1.397.6-2.485.9-4.123 1.58-.642.27-3.32 1.9-3.945 1.76-.67-.16-.865-2.12-2.017-1.14.103.64.573 1.43.964 2.37.505 1.2.741 3 2.016 2.19.3-.66-.21-1.09-.174-1.76 2.33-1.7 5.038-3.03 8.156-3.94 1.514.67 2.939 2.12 2.719 4.03-.19 1.62-2.587 2.4-4.033 3.25-1.476.86-2.779 1.77-3.861 2.19-.545-.36-.538-1.28-1.666-1.05-.259 1.03.613 2.03 1.14 2.98.469.83 1.103 2.25 2.192 2.1.507-.68-.251-1.38-.35-2.01 1.256-1.15 2.759-1.75 4.297-2.64 1.49-.86 3.805-2.22 3.949-4.03.261-3.32-2.238-5.48-4.914-5.96zm131.82 6.05c.68.51 1.26 1.14 1.58 2.02-1.13.04-2.01-.16-2.46-.79.16-.54.4-1.01.88-1.23zm-52 24.35c-3.38.09-5.61 3.48-3.87 6.34.45.75 1.73 1.82 2.8 1.93 1.2.13 2.98-.55 2.99-1.58-1.04-.49-1.19.4-1.93.36-1.71-.1-2.67-3.36-1.76-5.09.85-1.61 2.89-1.3 3.69.09 1.75 3.06.23 7.78-2.11 9.64-.76.61-1.72.49-1.75 1.84.47 0 1.07-.08 1.49-.26 3.23-1.32 7.15-6.99 4.47-11.22-.62-.98-1.86-1.87-3.33-2.02-.24-.03-.47-.03-.69-.03zm-10.17.19c-.68.01-1.3.21-1.42.72.31.5 1.22.42 1.49.96.04 3.23-.04 6.33-.08 9.47-.32.27-1.02.16-1.23.53-.07 1.19.88.48 1.66.44 1.02-.06 3.14 1.03 3.16-.53-.31-.39-1.21-.19-1.4-.7-.19-3.47-.15-7.16-.44-10.52-.34-.21-1.07-.38-1.74-.37zm-9.311.01c-2.139.01-4.48 1.34-4.209 3.86.464 1.03 1.399 1.59 2.191 2.28-.966 1.32-2.728 1.58-2.543 3.69.152 1.73 2.41 2.87 3.948 2.98 2.353.16 4.954-1.31 4.994-3.6.01-.43-.07-1.35-.43-1.93-.37-.57-1.742-.92-1.67-1.66.058-.6 1.09-.88 1.31-1.41 1.07-2.51-1.54-4.21-3.591-4.21zm-11.871.45c-.404.03-.719.2-.846.69.314.42 1.099.37 1.404.79.124 3.01.15 6.57.086 9.48-.43.36-1.36.21-1.49.87.185.38.561.63 1.051.62.427-.02.75-.42 1.142-.44.833-.05 2.851 1.1 2.807-.53-.237-.32-1.038-.07-1.23-.44-.41-3.39.166-7.76-.614-10.78-.715.05-1.637-.3-2.31-.26zm11.863.66c1.175.05 2.091.98 2.025 2.23-.035.68-.62 1.57-1.14 1.66-.674.12-3.055-1.41-2.895-2.63.082-.62.523-1.06 1.493-1.23.176-.03.349-.04.517-.03zm-.432 5.74c.847.18 2.666 1.74 2.721 2.71.059 1.07-.745 1.57-1.404 2.11-1.709.09-3.203-.55-3.332-1.93-.086-.92 1.169-3.07 2.015-2.89z"/>
  <path fill="#fff" d="M105.0475 23.273c-1.43.155-2.53.637-3.6 1.139 1.18-.042 2.95-.267 3.6-1.139zm-10.528.965c-1.8.802-2.764 2.44-3.774 4.033 1.768-.835 3.001-2.204 3.774-4.033zm9.048.641c-.3-.003-.68.158-.72.412.25.114.87-.039.97-.352-.07-.039-.15-.059-.25-.06zm-.81.324c-.66.039-1.53-.129-1.57.526.67-.028 1.22-.185 1.57-.526zm-18.764 2.631c-.727.627-1.514 2.096-1.226 3.156.277-1.077 1.748-1.861 1.226-3.156zm8.332 2.367c-.007.153.02.272.086.35.224-.01.343-.126.354-.35h-.44zm-2.121.533c-.229.035-.435.161-.597.432.873.06 2.071 1.175 2.806.264-.618-.086-1.521-.8-2.209-.696zm-6.654.981c-.427-.161-.829.938-.258 1.117.216-.251.47-.467.44-.965-.06-.081-.121-.129-.182-.152zm2.098.666c-.77.086-1.009.924-.953 1.504.961.025 1.308-.562 1.316-1.49-.132-.022-.253-.026-.363-.014zm2.205.291c-.577-.077-.91.471-.877 1.125.24.222.611.178.963.088.217-.345.292-.655.177-1.141-.092-.038-.181-.061-.263-.072zm-9.996 1.738c-.11-.006-.237.002-.354.002-.026.436.122.698.615.611v-.525c-.057-.06-.151-.081-.261-.088zm17.295 2.369c-.713-.005-.983 1.271-.457 1.754.891.101.925-1.017.787-1.666-.119-.059-.229-.087-.33-.088zm1.47 2.28c-3.65-.079-6.292 2.619-6.576 6.052-.041.489-.226 1.283.438 1.578 1.073-2.588 2.926-4.753 5-6.314.488-.367 1.248-.903 1.138-1.316zm-23.064.087c.005.152-.067.225-.176.264.589.83.802 1.906 1.051 3.069.141.657.141 1.708.965 1.753.111-2.068-.525-4.149-1.84-5.086zm24.556.088c.625.924 1.522 1.58 2.543 2.106-.33-1.215-1.048-2.052-2.543-2.106zm-15.086.088c-1.38.463-2.509 1.933-3.507 3.071 1.22-.627 3.18-1.263 3.507-3.071zm-3.011.823c-.494-.028-1.039.609-.584 1.019.236-.35.755-.415.789-.965-.066-.033-.135-.051-.205-.054zm17.131.406c-3.12 2.375-5.575 5.415-6.225 10.261.485-.41 1.115-.156 1.93-.263.87-.115 1.912-.797 2.804-1.404.74-.503 2.299-1.232 2.457-1.752.102-.339-.089-2.844-.175-3.422-.157-1.035-1.129-2.196.261-2.367 1.572 2.375.441 7.454 4.037 7.804-.02-1.239-.38-2.136-.79-2.982-1.551.05-2.889-2.512-1.4-3.332.57.132.82 1.048 1.31.965-1.01-1.559-2.526-2.619-4.209-3.508zm-.649 2.439c.269-.02.55.061.826.28-.161 1.505-.648 2.685-2.193 2.806-.736-.996.201-2.997 1.367-3.086zm-22.941.455c-.429.554.056 1.451.525 1.666-.212-.518-.008-1.453-.525-1.666zm8.506 1.227c-1.999.341-3.877 2.025-4.471 3.771.951-.142 1.57-1.109 2.279-1.754.746-.68 1.658-1.206 2.192-2.017zm-.264 1.404c-.66.539-1.624.773-1.666 1.928.85-.29 1.863-.882 1.666-1.928zm17.143 3.092c-.578.025-1.17.305-1.532.766.909-.153 1.458.905.965 1.58-.794-.025-1.23-.778-2.015-.528.475.474 1.211.261 1.314.965.259 1.774-3.396 1.585-2.631-.527-1.047.106-.686.993-.615 1.668.09.827-.257 1.841-.35 3.068-.102 1.343.217 2.736 0 3.686-.3 1.312-1.597 1.997-1.842 3.068.609.546 1.565.909 2.631 1.316.875.332 2.01 1.024 2.895 1.051.466.015 1.421-.35 2.103-.525 1.441-.368 2.511-.77 2.901-1.93-2.52.589-3.179-2.049-3.864-3.859-2.211-.216-3.668-1.186-4.474-2.807.719-.88 1.549.609 1.756.791 1.301 1.155 3.576.5 4.472-.703.31-.41 1.29-2.8.35-3.068-1.08-.307-.79 1.692-1.666 1.84 1.426 1.525-2.34 3.325-2.104.615.175-.293.472-.463.877-.526-.055-.356-.302-.516-.263-.964 2.084-.168.566-3.936 2.546-4.211-.31-.56-.876-.791-1.454-.766zm2.094 2.113c-.07.008-.14.028-.2.057-.01.299.32.258.61.262-.02-.261-.21-.342-.41-.319zm-8.975.057c-.768.031-1.197.835-1.053 1.49.702-.086.933-.644 1.228-1.14-.118-.058-.163-.188-.175-.35zm.527 1.578c-.639.764-1.47 1.805-1.49 2.895.559-.805 2.066-1.532 1.49-2.895zm-18.506.701c-2.191.306-2.795 3.559-2.892 5.789-.04.905-.098 2.077.263 2.28.379.215 1.02-1.032 1.225-1.579.312-.825.49-1.805.791-2.281.286-.452.705-.645.789-1.053.202-1.002-.372-2.085-.176-3.156zm18.418 2.281c-.674.882-2.03 1.896-1.58 3.332.733-.847 1.681-1.944 1.58-3.332zm.088 3.069c-.507 1.014-1.635 1.407-1.668 2.894.98-.425 2.072-1.668 1.668-2.894zm-19.031 3.947c-.945.313-1.079 1.436-1.492 2.279.571 1.432.942 2.953 1.666 4.473.572 1.2 1.681 2.984 3.07 3.158.635.08 1.556-.214 2.281-.351 2.36-.445 4.323-1.192 5.963-2.192.098-1.497.765-2.837.44-4.472-.918.202-1.632.428-2.37.877-1.161.708-3.314 3.521-5.086 3.244-.976-.153-1.999-1.961-2.544-3.069-.72-1.467-1.153-3.179-1.928-3.947zm17.803.877c.9 1.14 1.907 1.984 3.334 3.156.64.528 2.654 2.622 3.507 2.631.838.01 2.075-1.316 2.635-1.928.83-.915 1.28-1.777 1.84-2.718-1.42.352-3.194 1.743-4.826 1.666-.423-.02-.982-.341-1.49-.526-1.858-.672-3.277-1.648-4.825-2.281h-.175zm13.246.088c-1.25 3.342-3.52 5.668-6.844 6.928-2.95-1.932-5.326-4.441-7.895-6.754-.867.623-1.744 1.238-2.629 1.843-.141 1-.262 2.02-.441 2.983.98.511.836 2.146 1.055 3.42 1.213.556.946 2.213 1.492 3.244.275.522 1.335 1.509 1.93 1.578 1.505.171 2.167-1.441 3.681-.877-.287 1.263-1.511 1.588-2.631 2.018.282.461.707.862.877 1.314.372.991.93 3.737.176 3.772-.489.023-.743-1.069-.877-1.491-.372-1.171-.588-2.232-.351-3.419-1.467-.259-2.39-1.06-3.596-1.579-.005.823-.004 1.64.437 2.016.134-.453.18-.991.791-.965.758 1.581 1.093 3.586 1.666 5.35 2.482.742 4.88 2.744 8.157 1.842 1.082-1.754.401-5.269 1.492-7.016h.79c.06 2.55-.58 4.388-.53 6.928 1.25.253 2.11-.553 3.07-.875.06-2.147 1.35-3.955.7-6.229-.99.189-2.97.821-2.8-1.139.82-.768 1.59.25 2.28.262 1.43.026 2.01-1.324 1.93-2.631-.08-1.288-1.42-2.731-.18-3.42.7.873 1.37 1.737 1.4 3.071.04 1.456-.9 3.084-.35 4.472.63-.14.62-1.027.79-1.58.2-.636.41-1.31.62-1.841-.87-2.844-1.87-5.811-2.81-8.506-.31-.899-.51-2.122-1.23-2.633-.02-.069-.07-.101-.17-.086zm-14.649.527c.493-.066 1.654 1.719 1.84 1.928 1.819 2.044 3.772 3.752 5.789 5.437 2.041-.912 3.25-2.661 5.44-3.419.05.833-.52 1.408-1.06 1.929-1.06 1.04-3.192 1.499-3.327 2.719-.076.694.445.745.263 1.402-1.242.435-1.889-1.103-2.542-1.841-1.417-1.597-3.09-3.135-4.649-4.823-.636-.69-2.105-1.919-2.193-2.543-.083-.58-.163-.711.439-.789zm-3.597 7.19c-.3 2.525-.925 5.397-.438 8.156.704.204 1.206.607 1.93.789-.919-2.209-.625-6.393-1.492-8.945zm-1.666.877c-.037 1.241-1.617 3.454-.174 3.773.108-1.149.332-2.65.174-3.773zm24.912 3.947c-.35 1.259-.45 2.774-1.32 3.508-.51-.01-.87.129-1.14.351.75 3.852 2.28 7.26 3.51 11.051 1.51 4.679 4.8 9.03 3.5 14.91.43-.79 1.01-1.81 1.85-1.84.92-.04 1.45 1.26 2.45 1.31-3.38-4.28-4.21-11.243-6.31-16.923-.3-.809-.83-1.573-1.05-2.369-.43-1.554-.47-3.3-.71-4.912-.24-1.66-.41-3.694-.78-5.086zm-6.85 2.543c1.79-.128 1.25 3.683.36 4.209-1.04-.528-.49-3.022-.36-4.209zm-4.555 1.578c1.363.094 1.269 3.134.787 3.947-1.036-.496-1.507-2.781-.787-3.947zm-2.369 1.141c1.243.162 1.082 1.725 1.317 2.894-.277.104-.464.297-.789.352-.452-.815-1.15-2.153-.528-3.246zm10.174.703c-.11 3.261 2.04 5.188 2.81 8.242.34 1.349.3 2.969.44 4.561.13 1.522.26 3.152.43 4.648.81 7.124 2.32 14.504 1.93 22.014-1.17.52-.82-1.21-1.14-1.84-.02 1.13.2 2.02.44 2.89 1.14-.73 2.43-2.11 3.68-3.51 1.15-1.27 2.68-2.77 2.99-4.38.33-1.72.25-4.1-.53-5.18-.47-.64-1.23-.65-1.67-1.31-.72-.03-.76.71-1.49.52-.77-.19-.87-2.2-.96-3.42-.13-1.68.01-2.99-.09-4.38-.12-1.674-.8-2.934-1.4-4.211-2.18-4.646-3.43-10.527-5.35-14.558-.01-.054-.01-.102-.09-.086zm-16.066 1.756c-.144 0-.271.07-.334.259-.285 1.259-.393 2.307-.702 4.036-.132.74-.415 3.543-1.052 3.595-.767.064-.765-1.314-.701-2.193.072-1.025.524-1.95.349-2.719-.664 1.388-1.484 2.972-1.14 5.088 1.296-.242 1.723 1.384 2.894 1.49.579.053 1.11-.348 1.666-.351 1.929-.012 2.548 1.39 4.211 1.754.885-.81 2.943-.448 4.297-.789-.39-2.33-.259-5.937-1.227-7.981-.442-.004-.574.304-.879.438-.06 1.037.045 2.044.09 3.07.046 1.074.264 4.07-.527 4.299-1.33.383-.811-2.658-.877-4.123-.078-1.703-.152-2.683-.44-3.948-.304-.107-.749-.431-1.138-.173-.553.885-.302 3.646-.44 5.525-.097 1.341-.576 3.06-1.578 1.666.103-2.021.081-4.335.352-6.139.122-.816.414-2.038-.703-1.843-.514 1.768-.737 4.353-1.051 6.402-.101.664-.097 1.534-.965 1.58-1.099-2.709.182-5.966.525-8.596-.108-.154-.392-.348-.63-.347zm12.556 1.752c-1 1.71.54 4.292.7 6.226.05.5.14 1.353-.61 1.578-.68-.781-1.13-1.999-1.32-3.508-.16-1.352-.03-3.197-1.05-3.597-.14 2.281.52 5.264.7 7.806 1.06-.516 3.03.211 4.56.088 1.76-.14 3.09-2.276 1.23-2.806-.27-.937-.57-1.98-.88-2.981-.28-.966-.4-2.244-1.14-2.72.28 1.706.93 3.807 1.23 5.527.09.534.39 1.552-.44 1.666-1.58-1.66-1.2-5.29-2.54-7.193-.1-.074-.23-.115-.44-.086zm-15.433 8.242c-.588 1.452-.588 4.165-.703 6.315-.704 13.26.365 28.09-.526 41.4-.031.46-.186 2.29.701 2.45 1.082.19.965-1.27.965-2.1 0-1.7-.059-2.19-.088-2.99-.356-10.32-.086-20.96-.088-31.04 0-4.15-.242-8.311.088-12.367.078-.929.636-1.201.088-1.491-.112-.06-.254-.182-.437-.177zm3.58.427c-.525-.052-1.078-.004-1.653.188-.015 13.82-.53 29.58 0 43.76.124 3.3-.467 7.84 2.633 7.72.526-.75.005-1.55-.088-2.37-.426-3.74-.33-7.86-.527-12.01-.533-11.18-.464-22.69-.525-33.944-.005-.865-.226-1.857.613-2.367.942.401.862 1.421.877 2.367.186 12.234.166 23.934.701 35.254.202 4.28.062 8.51.703 12.46.839-.26 2.196-.21 3.156-.09.719-16.69-1.336-32.78-2.105-48.85-.894-.885-2.212-1.959-3.785-2.118zm16.723.338c-.69.067-1.19.933-2.15.991-1.13.067-2.29-1.007-3.33-.352.03.405.38.553.52 1.053.32 1.139.34 2.58.53 3.858 1.12 7.69 2.31 15.66 2.98 23.5.13 1.45.46 2.95.35 4.13-.03.35-.31 1.75-.88 1.66-.43-.07-.46-1.23-.52-1.75-.95-7.7-1.78-15.25-2.72-22.72-.38-3.05-1.04-6.559-.88-9.379-1.283.116-1.938-.399-3.153-.352 1.483 16.041 3.393 32.431 5.093 48.231.09.91-.09 2.19.87 2.72 3.4-.52.89-4.02.79-6.22-.06-1.33.09-3.2.18-4.65.14-2.5 1.02-4.89 1.84-6.84.26-.62.77-1.52 1.22-2.19.42-.62 1.38-1.39 1.5-1.93.19-.9-.09-2.47-.18-3.69-.56-7.3-1.78-13.55-2.28-20.96-.08-1.158-.47-2.826-.26-3.682.12-.49.94-.645.79-1.402-.11-.028-.21-.035-.31-.026zm-11.231.938c-.09.005-.19.047-.303.139-.499.271.009 1.058.088 1.58.283 1.866.322 3.963.44 5.963.596 10.08 1.362 20.13 1.839 30.17.199 4.18.082 8.29.176 12.28.871-.16 2.201-.6 3.421-.7-1.11-7.56-1.62-16.05-2.63-24.82-.461-4.01-.917-8.08-1.404-12.37-.34-3-.408-6.09-.789-9.471-.103-.916-.209-2.804-.838-2.771zm9.081.754h.17c.75 2.09.73 4.728.97 7.188.65 6.7 1.95 13 2.28 20.09.02.41.15 1.53-.44 1.58-.7.05-.83-2.51-.87-2.81-1.04-7.12-1.94-16.09-2.55-22.892-.09-1.026-.57-2.38.18-2.982.06-.082.16-.13.26-.174zm12.05 10.558c-.36.01-.71.11-1 .32.66.88 2.04 1.96 3.6 1.14-.33-.78-1.53-1.5-2.6-1.46zm2.42 2.7c-.25 0-.52.03-.79.07.02.62.38.91.7 1.23 1.47-.3 2.28.82 3.51 1.05-.47-1.37-1.67-2.36-3.42-2.35zm-.26 2.35c-1.61 2.7 1.97 1.67 3.77 2.46.53.23.38.54.88.52-.53-2.02-2.39-2.7-4.65-2.98zm.61 3.22c-.9.02-1.55.34-1.4 1.17.78.56 1.84.06 2.72.17 1.17.15 1.68 1.13 2.54 1.14.2-.21.03-.79.09-1.14-.3-.61-2.46-1.38-3.95-1.34zm-1 2.17c-.22 0-.41.01-.58.05-.67.13-1.31.84-1.4 1.32 2.73-.16 4.54 1.07 6.58 1.31.14-.35.01-1.01-.26-1.31-.49-.54-2.86-1.35-4.34-1.37zm-1.2 2.71c-1.07-.03-2.03.21-2.71 1.02 2.46.15 4.49.19 6.23.97.71.32 1.12 1.03 2.02.88.17-.59.06-1.33-.27-1.67-1.45-.29-3.5-1.13-5.27-1.2zm-1.71 2.15c-2.52.1-4.58 1.15-4.86 3 2.53-.43 5.28-1.03 7.72-.27 1.3.41 2.16 1.31 3.68 1.14.13-.42.32-1.12.09-1.66-.41-.97-3.36-2.05-5.53-2.2-.37-.02-.74-.03-1.1-.01zm-.03 3.52c-3.22.07-7.25.49-7.55 3.33 3.33-1.74 9.57-1.26 13.33-.52.09-.34.29-.69.09-1.06-1.39-.54-3.39-1.8-5.87-1.75zm-.51 3.33c-3 .1-5.95.82-7.91 1.85-.22.61-.73 1.31-.36 2.01 2.72-1.05 7.69-2.78 11.49-1.49.59.2 1.41.81 1.85.62.78-.34.66-2.03.17-2.46-1.63-.44-3.45-.6-5.24-.53zm.51 3.08c-.24.01-.44.04-.62.08-2.91.71-7.09 1.18-8.77 2.55-.16.62-.47 1.64-.09 2.28.9.06 1.26-.67 2.02-.97 2.86-1.1 8.74-1.45 11.84-.7.1-.43.35-.94.26-1.41-.22-1.15-3.02-1.89-4.64-1.83zm.87 4.11c-3.45 0-7.52.69-9.21 1.76-1.13.72-1.95 2.75-.61 3.86 1.4-.54 3.12-1.66 5.17-2.28 1.65-.5 4.76-1.21 6.84-.79.62.12 1.26.93 2.2.7-.09-.51-.08-1.37-.35-1.93-.69-1.39-1.82-1.32-4.04-1.32zm.3 3.99c-3.75.02-7.75 1.41-9.68 3.38-.07 1.1-.55 1.79-.62 2.9 2.77-1.91 6.76-4.08 11.67-4.3 2.43-.11 4.85.51 6.75 1.05-.26-.11-.47-.28-.87-.26-1.55-1.99-4.33-2.8-7.25-2.77zm2.86 3.9c-.62.05-1.2.47-1.23 1.15-.02.41.49 1.27 1.06 1.31.79.07 1.24-.86 1.66-1.4-.2-.79-.86-1.11-1.49-1.06zm-6.32.27c-.49.33-1.34.29-1.58.88.07.39.66.97.45 1.93 1.43 1.15 2.36-2.32 1.13-2.81zm11.06.07c-.65.06-1.26.54-1.23 1.51.36.66.98 1.06 1.75 1.32.59-.3 1.09-1.09.97-1.76-.14-.75-.84-1.12-1.49-1.07zm-4.84.24c.32.01.63.25.54.75-.35.37-1.21.14-1.05-.53.11-.16.31-.23.51-.22zm7.82 1.1c-.34.62-.52 1.41-.88 2.01.61-.15 1.3-.22 1.67-.61-.14-.6-.25-1.22-.79-1.4zm-11.17.25c-.67-.07-1.28.19-1.2.97.05.45.83.75 1.23 1.32.29.41.54 1.03.53 1.66-.01.39-.32.97-.27 1.32 1.94-.08 1.23-2.39 1.32-4.21-.19-.58-.93-.99-1.61-1.06zm-15.67.1c-.75-.04-1.125.49-1.928.7-.656 1.03-1.484 1.91-2.633 2.72-.92.64-2.542 1.75-3.683 1.66-2.415-.18-1.54-3.67-3.242-4.73-1.905 1.08-3.827 2.61-5.44 4.03-.507.45-1.432.97-1.314 1.49 8.079.16 15.351-.49 23.42-.35-.51-.88-1.42-3.29-.44-4.65-.75.2-.82.45-1.41.53-1.83.24-2.21-1.36-3.33-1.4zm-6.26.07c-.989-.19-2.276.83-2.07 1.85.601-.14 1.232-.29 1.578.18.566-.34 1.054-.76 1.314-1.4-.197-.38-.492-.57-.822-.63zm27.48.72c-.51.42-1.51.35-2.19.61-.02.07 0 .17-.08.17.13.8.72 1.15 1.4 1.41.42-.56 1.27-1.36.87-2.19zm-11.88.36c-.09.01-.2.03-.31.07.13.61.79.68.62 1.58-.7.72-1.11-.39-1.76-.52-1.16 1.72 1.69 2.06 1.93 3.51.54.07.87.07 1.32-.09-.15-.78-1.33-1.96-.7-3.25-.22-.51-.45-1.33-1.1-1.3zm3.57.9c-1.92.01-.78 3.35.86 3.12.47-.07.88-.57.79-1.4-.43-.24-1.49.14-1.67-.35-.21-.77.57-.93.44-1.32-.15-.03-.29-.05-.42-.05zm14.34.38c-.21-.02-.41.07-.59.28.68.03 1.16.74.62 1.23-.74.15-.72-.45-1.15-.61-.22.71-.25 1.7.27 2.1.54-.65 2.04-.59 2.1-1.58.03-.5-.63-1.38-1.25-1.42zm1.6 2.83c-1.56.12-1.63 3.34-.17 3.59 1.22.22 1.64-.99 2.11-1.75-.63-.77-.84-1.93-1.94-1.84zm-10.94.3c-.86-.09-1.74.34-1.86 1.28-.07.56.18 1.36.61 1.66.48.14.8-.59 1.06-.96-2.06-.37.96-2.55.52-.26.57-.03.96.5 1.41.08-.04-1.11-.88-1.71-1.74-1.8zm11.45 1.02c.26.04.52.17.63.34.07.46-.07.69-.26.88-.78.11-.94-.4-1.05-.96.13-.22.41-.29.68-.26zm-5.46.08c-.19.02-.38.13-.57.35 1-.11 1.21 1.18.44 1.32-.49.09-.91-.54-.7-1.14-1.43.35-.88 2.3.26 2.63.3-.99 1.5-1.08 1.84-2.02-.23-.58-.72-1.23-1.27-1.14zm-10.12.08c-.55-.02-.99.38-1.59.45-1.02.11-2.28-.14-3.51-.18-8.14-.25-17.935.59-25.518.44-.954-.02-2.424-.22-2.807.26-.358.46-.319 1.72-.349 2.46-.04 1.01.058 1.94.349 2.46 11.489-.15 23.005-.28 34.295-.62.17-1.64.1-3.71-.27-5.09-.22-.12-.42-.18-.6-.18zm5.58 1.79c-.17 0-.34.02-.5.06-2.26.52-1.65 3.85.35 3.95 1.04.05 2.4-1 2.36-2.11-.03-.98-1.06-1.89-2.21-1.9zm7.28.53c-.16 0-.33.02-.51.06-.7.35-1.55.75-1.48 1.66.05.84 1.25 1.73 1.92 1.76 2.09.09 2.39-3.53.07-3.48zm-7.72.17c.28.03.57.16.73.32.13.44.19 1.38-.18 1.58-1 .07-1.15-.72-1.23-1.58.13-.26.4-.34.68-.32z"/>
  <path d="M96.4975 42.99c-1.166.089-2.101 2.09-1.365 3.086 1.545-.121 2.032-1.301 2.193-2.806-.276-.219-.559-.3-.828-.28zm-6.541 21.414c-.601.079-.521.209-.437.789.087.624 1.557 1.857 2.193 2.545 1.559 1.689 3.232 3.226 4.649 4.823.653.738 1.3 2.278 2.542 1.841.18-.656-.341-.709-.263-1.404.134-1.219 2.267-1.677 3.337-2.717.53-.521 1.11-1.096 1.05-1.929-2.19.758-3.399 2.507-5.44 3.419-2.017-1.686-3.97-3.392-5.787-5.437-.186-.209-1.35-1.995-1.844-1.93zm12.801 14.559c-.13 1.187-.68 3.68.36 4.209.89-.526 1.43-4.338-.36-4.209zm-4.557 1.58c-.718 1.165-.245 3.449.791 3.945.482-.813.573-3.851-.791-3.945zm-2.367 1.139c-.622 1.093.076 2.43.528 3.244.325-.055.512-.246.789-.35-.234-1.17-.074-2.733-1.317-2.894zm9.384 14.91c-.1.042-.2.093-.26.176-.75.602-.27 1.955-.18 2.98.61 6.802 1.51 15.772 2.55 22.892.04.3.17 2.86.87 2.81.59-.05.46-1.17.44-1.58-.33-7.09-1.63-13.39-2.28-20.09-.24-2.46-.22-5.098-.97-7.188h-.17zm14.81 48.368c-.2-.01-.4.06-.51.22-.16.67.7.9 1.05.53.09-.5-.22-.74-.54-.75zm10.34 8.03c-.27-.03-.55.04-.68.26.11.56.27 1.07 1.05.96.19-.19.34-.42.26-.88-.11-.17-.37-.3-.63-.34zm-10.44 2.65c-.28-.02-.55.06-.68.32.08.86.23 1.65 1.23 1.58.37-.2.31-1.14.18-1.58-.16-.16-.45-.29-.73-.32z"/>
</svg>