<?xml version="1.0" encoding="UTF-8"?>
<svg id="Layer_1" xmlns="http://www.w3.org/2000/svg" version="1.1" xmlns:xlink="http://www.w3.org/1999/xlink" viewBox="0 0 367 123.6">
  <!-- Generator: Adobe Illustrator 30.6.0, SVG Export Plug-In . SVG Version: 2.1.4 Build 109)  -->
  <defs>
    <style>
      .st0 {
        fill: #231f20;
      }

      .st1 {
        fill: #fff;
      }

      .st2 {
        fill: #cd1543;
      }

      .st3 {
        fill: url(#Final_Tan_Gradient);
      }
    </style>
    <radialGradient id="Final_Tan_Gradient" data-name="Final Tan Gradient" cx="180.1" cy="-6.9" fx="180.1" fy="-6.9" r="41.8" gradientTransform="translate(-182.1 70.3) scale(1.2)" gradientUnits="userSpaceOnUse">
      <stop offset=".2" stop-color="#fff"/>
      <stop offset=".8" stop-color="#d0b38d"/>
    </radialGradient>
  </defs>
  <g>
    <path class="st2" d="M127.2,47.1c4.3,1.5,2.5,6.2,1.5,9.4l-6.2,20.9-7.6-24.7c-.8-2.5-1.1-4.3-.8-5.8h-7.8v.2c3,1.6,1.9,5.3.9,8.8l-6.4,21.7-8.2-26.5c-.3-1.1-.9-2.9-.7-4.1h-8v.2c2.8,1.9,3.6,5.6,4.6,8.8l6.5,21c1.8,5.9,2.3,5.5,7.3,9.2l8.6-28.8,6,19.6c1.8,5.9,2.2,5.6,7.3,9.2l11.6-39.2h-8.5v.2Z"/>
    <path class="st2" d="M137.5,47.1c2.8,1.1,2.4,5.2,2.4,7.9v21.5c0,2.6.3,6.8-2.4,7.8v.2h10.5v-.2c-2.7-1.1-2.4-5.3-2.4-7.8v-21.5c0-2.6-.3-6.8,2.4-7.9v-.2h-10.5v.2Z"/>
    <path class="st2" d="M157.6,55.3c0-3.9,4-5.2,7.1-5.2s6.5,1.3,8.6,3.6v-6.4c-2.6-.9-5.4-1.3-8.2-1.3-6.7,0-13.8,2.7-13.8,9.9,0,12.1,18.9,10.5,18.9,19.4s-4.7,5.9-7.9,5.9-8.8-1.8-12-4.7l1.6,7.1c3.1,1.2,6.5,1.7,9.8,1.7,8.6,0,14.7-5.7,14.7-11.8,0-10.6-18.9-10.4-18.9-18.3Z"/>
    <path class="st2" d="M198.8,80.6c-8.5,0-14-7.5-14-15.9s5.3-14,12.9-14,7.2,1.3,10.2,3.3v-6.6c-3.2-.8-6.7-1.4-10-1.4-11.3,0-19.3,7.8-19.3,19.6s8,19.7,21,19.7,5.7-.5,8.3-1.7l2.8-6.6h-.2c-3.5,2-7.6,3.6-11.7,3.6Z"/>
    <path class="st2" d="M230.5,46c-11.5-.3-20.6,8.8-20.6,19.6s9.2,19.8,20.1,19.8,20.2-8.4,20.2-20.1-8.1-19.4-19.7-19.3ZM230.3,81.3c-8.6,0-14.1-8.2-14.1-16.2s5.4-15,14-15,13.8,8,13.8,16.4-5.3,14.8-13.7,14.8Z"/>
    <path class="st2" d="M278.5,47.1c2.9,1.7,2.9,4,2.9,7.2v21.6l-20.1-26.4-.8-1.1c-.4-.5-.6-.7-.8-1.4h0c0,0-8,0-8,0v.2c2.9,1.7,2.9,4,2.9,7.2v22.8c0,3.2,0,5.5-2.9,7.2v.2h9.7v-.2c-2.9-1.8-2.9-4.1-2.9-7.2v-22.1l18.9,24.8c2.4,3.3,4.1,5.1,8,6.5v-32c0-3.2,0-5.5,2.9-7.2v-.2h-9.7v.2Z"/>
    <path class="st2" d="M296.2,55.3c0-3.9,4-5.2,7.1-5.2s6.5,1.3,8.6,3.6v-6.4c-2.6-.9-5.4-1.3-8.2-1.3-6.7,0-13.8,2.7-13.8,9.9,0,12.1,18.9,10.5,18.9,19.4s-4.7,5.9-7.9,5.9-8.8-1.8-12-4.7l1.6,7.1c3.1,1.2,6.5,1.7,9.8,1.7,8.6,0,14.7-5.7,14.7-11.8,0-10.6-18.9-10.4-18.9-18.3Z"/>
    <path class="st2" d="M317.2,47.1c2.8,1.1,2.4,5.2,2.4,7.9v21.5c0,2.6.3,6.8-2.4,7.8v.2h10.4v-.2c-2.8-1.1-2.4-5.3-2.4-7.8v-21.5c0-2.6-.3-6.8,2.4-7.9v-.2h-10.4v.2Z"/>
    <path class="st2" d="M357.3,46.9v.2c2.9,1.7,2.9,4,2.9,7.2v21.6l-20.1-26.4-.8-1.1c-.4-.5-.6-.7-.8-1.4h0c0,0-8,0-8,0v.2c2.9,1.7,2.9,4,2.9,7.2v22.8c0,3.2,0,5.5-2.9,7.2v.2h9.7v-.2c-2.9-1.8-2.9-4.1-2.9-7.2v-22.1l18.9,24.8c2.4,3.3,4.1,5.1,8,6.5v-32c0-3.2,0-5.5,2.9-7.2v-.2h-9.7Z"/>
  </g>
  <g>
    <path class="st0" d="M99.3,100.7c.4,0,.8,0,1.1-.2.3-.1.6-.3.8-.6.2-.2.4-.5.5-.9.1-.3.2-.7.2-1.1v-6.1h1.5v6.1c0,.6,0,1.1-.3,1.6-.2.5-.5.9-.8,1.3-.4.4-.8.6-1.3.9-.5.2-1.1.3-1.7.3s-1.2-.1-1.7-.3c-.5-.2-.9-.5-1.3-.9-.4-.4-.6-.8-.8-1.3-.2-.5-.3-1-.3-1.6v-6.1h1.5v6.1c0,.4,0,.8.2,1.1s.3.6.5.9c.2.2.5.4.8.6.3.1.7.2,1.1.2Z"/>
    <path class="st0" d="M114.2,91.8v10.1h-.8c-.1,0-.2,0-.3,0,0,0-.2-.1-.2-.2l-5.7-7.3c0,.1,0,.2,0,.4,0,.1,0,.2,0,.3v6.9h-1.3v-10.1h.8c.1,0,.2,0,.3,0s.1,0,.2.2l5.7,7.3c0-.1,0-.3,0-.4,0-.1,0-.2,0-.4v-6.8h1.3Z"/>
    <path class="st0" d="M118.6,101.9h-1.5v-10.1h1.5v10.1Z"/>
    <path class="st0" d="M129.8,91.8l-4.1,10.1h-1.3l-4.1-10.1h1.2c.1,0,.2,0,.3,0,0,0,.1.1.2.3l2.7,6.8c0,.2.1.4.2.6,0,.2.1.4.2.6,0-.2,0-.4.2-.6,0-.2.1-.4.2-.6l2.7-6.8c0,0,0-.2.2-.2,0,0,.2-.1.3-.1h1.2Z"/>
    <path class="st0" d="M137.7,100.7v1.2h-6.2v-10.1h6.2v1.2h-4.7v3.2h3.8v1.2h-3.8v3.3h4.7Z"/>
    <path class="st0" d="M147.4,101.9h-1.3c-.3,0-.5-.1-.6-.3l-2.5-3.5c0-.1-.2-.2-.3-.2,0,0-.2,0-.4,0h-1v4.1h-1.5v-10.1h2.9c.6,0,1.2,0,1.7.2s.9.3,1.2.6.5.5.7.9c.1.3.2.7.2,1.2s0,.7-.2,1c-.1.3-.3.6-.5.8-.2.2-.5.5-.8.6-.3.2-.6.3-1,.4.2.1.3.3.5.5l2.8,3.9ZM142.7,96.7c.4,0,.7,0,1-.1.3,0,.5-.2.7-.4s.3-.4.4-.6c0-.2.1-.5.1-.8,0-.6-.2-1-.6-1.3-.4-.3-1-.4-1.7-.4h-1.4v3.7h1.4Z"/>
    <path class="st0" d="M154.3,93.5c0,0,0,.1-.1.2,0,0-.1,0-.2,0s-.2,0-.3-.1c-.1,0-.2-.2-.4-.3s-.4-.2-.6-.3c-.2,0-.5-.1-.8-.1s-.6,0-.8.1c-.2,0-.4.2-.6.3s-.3.3-.3.5-.1.4-.1.6,0,.5.2.7c.1.2.3.3.5.5.2.1.5.2.8.3.3,0,.6.2.9.3s.6.2.9.3c.3.1.5.3.8.5.2.2.4.4.5.7.1.3.2.6.2,1.1s0,.9-.2,1.2c-.2.4-.4.7-.7,1-.3.3-.6.5-1.1.7-.4.2-.9.2-1.4.2s-.6,0-.9,0c-.3,0-.6-.2-.9-.3-.3-.1-.5-.3-.8-.4s-.4-.3-.6-.5l.4-.7c0,0,0-.1.2-.1,0,0,.1,0,.2,0s.2,0,.3.2c.1.1.3.2.5.3.2.1.4.2.7.3.3.1.6.2,1,.2s.6,0,.8-.1c.2,0,.4-.2.6-.4.2-.2.3-.3.4-.5,0-.2.1-.5.1-.7s0-.5-.2-.7c-.1-.2-.3-.3-.5-.5s-.5-.2-.8-.3c-.3,0-.6-.2-.9-.3-.3,0-.6-.2-.9-.3-.3-.1-.5-.3-.8-.5-.2-.2-.4-.5-.5-.8-.1-.3-.2-.7-.2-1.1s0-.7.2-1c.1-.3.3-.6.6-.9.3-.3.6-.5,1-.6.4-.2.8-.2,1.3-.2s1.1,0,1.6.3.9.4,1.2.8l-.4.7Z"/>
    <path class="st0" d="M158.6,101.9h-1.5v-10.1h1.5v10.1Z"/>
    <path class="st0" d="M168.2,93.1h-3.2v8.8h-1.5v-8.8h-3.2v-1.2h7.9v1.2Z"/>
    <path class="st0" d="M174.3,97.9v4h-1.5v-4l-3.7-6.1h1.3c.1,0,.2,0,.3,0,0,0,.1.1.2.2l2.2,3.8c0,.2.2.3.2.5,0,.2.1.3.2.5,0-.1.1-.3.2-.5,0-.2.1-.3.2-.5l2.2-3.8c0,0,.1-.2.2-.2,0,0,.2-.1.3-.1h1.3l-3.7,6.1Z"/>
    <path class="st0" d="M192.8,96.8c0,.8-.1,1.4-.4,2.1s-.6,1.2-1,1.6-1,.8-1.6,1.1c-.6.3-1.3.4-2,.4s-1.4-.1-2-.4c-.6-.3-1.1-.6-1.6-1.1-.4-.5-.8-1-1-1.6-.2-.6-.4-1.3-.4-2.1s.1-1.4.4-2.1c.2-.6.6-1.2,1-1.6.4-.5,1-.8,1.6-1.1.6-.3,1.3-.4,2-.4s1.4.1,2,.4c.6.3,1.1.6,1.6,1.1.4.5.8,1,1,1.6s.4,1.3.4,2.1ZM191.2,96.8c0-.6,0-1.1-.2-1.6s-.4-.9-.7-1.2c-.3-.3-.7-.6-1.1-.8-.4-.2-.9-.3-1.4-.3s-1,0-1.4.3c-.4.2-.8.4-1.1.8s-.5.7-.7,1.2-.2,1-.2,1.6,0,1.1.2,1.6.4.9.7,1.2c.3.3.7.6,1.1.8s.9.3,1.4.3,1,0,1.4-.3c.4-.2.8-.4,1.1-.8.3-.3.5-.7.7-1.2s.2-1,.2-1.6Z"/>
    <path class="st0" d="M196.5,93v3.4h4v1.2h-4v4.3h-1.5v-10.1h6.2v1.2h-4.7Z"/>
    <path class="st0" d="M220.3,91.8l-3.1,10.1h-1.3l-2.5-7.5c0-.1-.1-.3-.1-.5,0,.2-.1.4-.1.5l-2.5,7.5h-1.3l-3.1-10.1h1.2c.1,0,.2,0,.3,0,0,0,.1.1.2.3l2,6.7c0,.1,0,.3.1.4s0,.3,0,.5c0-.2,0-.3.1-.5s0-.3.1-.4l2.3-6.7c0,0,0-.2.2-.2,0,0,.2-.1.3-.1h.4c.1,0,.2,0,.3,0s.1.1.2.3l2.3,6.7c0,.3.2.5.2.9,0-.3.1-.6.2-.9l2-6.7c0,0,0-.2.2-.2,0,0,.2-.1.3-.1h1.2Z"/>
    <path class="st0" d="M223.5,101.9h-1.5v-10.1h1.5v10.1Z"/>
    <path class="st0" d="M231.5,93.5c0,0,0,.1-.1.2,0,0-.1,0-.2,0s-.2,0-.3-.1c-.1,0-.2-.2-.4-.3s-.4-.2-.6-.3c-.2,0-.5-.1-.8-.1s-.6,0-.8.1c-.2,0-.4.2-.6.3s-.3.3-.3.5-.1.4-.1.6,0,.5.2.7c.1.2.3.3.5.5.2.1.5.2.8.3.3,0,.6.2.9.3s.6.2.9.3c.3.1.5.3.8.5.2.2.4.4.5.7.1.3.2.6.2,1.1s0,.9-.2,1.2c-.2.4-.4.7-.7,1-.3.3-.6.5-1.1.7-.4.2-.9.2-1.4.2s-.6,0-.9,0c-.3,0-.6-.2-.9-.3-.3-.1-.5-.3-.8-.4s-.4-.3-.6-.5l.4-.7c0,0,0-.1.2-.1,0,0,.1,0,.2,0s.2,0,.3.2c.1.1.3.2.5.3.2.1.4.2.7.3.3.1.6.2,1,.2s.6,0,.8-.1c.2,0,.4-.2.6-.4.2-.2.3-.3.4-.5,0-.2.1-.5.1-.7s0-.5-.2-.7c-.1-.2-.3-.3-.5-.5s-.5-.2-.8-.3c-.3,0-.6-.2-.9-.3-.3,0-.6-.2-.9-.3-.3-.1-.5-.3-.8-.5-.2-.2-.4-.5-.5-.8-.1-.3-.2-.7-.2-1.1s0-.7.2-1c.1-.3.3-.6.6-.9.3-.3.6-.5,1-.6.4-.2.8-.2,1.3-.2s1.1,0,1.6.3.9.4,1.2.8l-.4.7Z"/>
    <path class="st0" d="M241.3,99.7c0,0,.2,0,.2,0l.6.6c-.4.5-.9.9-1.5,1.1-.6.3-1.3.4-2.1.4s-1.4-.1-2-.4c-.6-.3-1.1-.6-1.5-1.1-.4-.5-.7-1-1-1.6-.2-.6-.3-1.3-.3-2.1s.1-1.4.4-2.1.6-1.2,1-1.6c.4-.5,1-.8,1.6-1.1s1.3-.4,2-.4,1.3.1,1.9.4,1,.5,1.4.9l-.5.7c0,0,0,0-.1.1,0,0-.1,0-.2,0s-.2,0-.3-.1-.3-.2-.5-.3c-.2-.1-.4-.2-.7-.3-.3,0-.6-.1-1.1-.1s-1,0-1.4.3c-.4.2-.8.4-1.1.8s-.5.7-.7,1.2c-.2.5-.2,1-.2,1.6s0,1.2.3,1.6c.2.5.4.9.7,1.2s.7.6,1.1.8c.4.2.9.3,1.3.3s.5,0,.8,0c.2,0,.4,0,.6-.2s.4-.2.5-.3c.2-.1.3-.2.5-.4,0,0,0,0,.1,0,0,0,0,0,.1,0Z"/>
    <path class="st0" d="M253.1,96.8c0,.8-.1,1.4-.4,2.1s-.6,1.2-1,1.6-1,.8-1.6,1.1c-.6.3-1.3.4-2,.4s-1.4-.1-2-.4c-.6-.3-1.1-.6-1.6-1.1-.4-.5-.8-1-1-1.6-.2-.6-.4-1.3-.4-2.1s.1-1.4.4-2.1c.2-.6.6-1.2,1-1.6.4-.5,1-.8,1.6-1.1.6-.3,1.3-.4,2-.4s1.4.1,2,.4c.6.3,1.1.6,1.6,1.1.4.5.8,1,1,1.6s.4,1.3.4,2.1ZM251.5,96.8c0-.6,0-1.1-.2-1.6s-.4-.9-.7-1.2c-.3-.3-.7-.6-1.1-.8-.4-.2-.9-.3-1.4-.3s-1,0-1.4.3c-.4.2-.8.4-1.1.8s-.5.7-.7,1.2-.2,1-.2,1.6,0,1.1.2,1.6.4.9.7,1.2c.3.3.7.6,1.1.8s.9.3,1.4.3,1,0,1.4-.3c.4-.2.8-.4,1.1-.8.3-.3.5-.7.7-1.2s.2-1,.2-1.6Z"/>
    <path class="st0" d="M263.4,91.8v10.1h-.8c-.1,0-.2,0-.3,0,0,0-.2-.1-.2-.2l-5.7-7.3c0,.1,0,.2,0,.4,0,.1,0,.2,0,.3v6.9h-1.3v-10.1h.8c.1,0,.2,0,.3,0s.1,0,.2.2l5.7,7.3c0-.1,0-.3,0-.4,0-.1,0-.2,0-.4v-6.8h1.3Z"/>
    <path class="st0" d="M271.5,93.5c0,0,0,.1-.1.2,0,0-.1,0-.2,0s-.2,0-.3-.1c-.1,0-.2-.2-.4-.3s-.4-.2-.6-.3c-.2,0-.5-.1-.8-.1s-.6,0-.8.1c-.2,0-.4.2-.6.3s-.3.3-.3.5-.1.4-.1.6,0,.5.2.7c.1.2.3.3.5.5.2.1.5.2.8.3.3,0,.6.2.9.3s.6.2.9.3c.3.1.5.3.8.5.2.2.4.4.5.7.1.3.2.6.2,1.1s0,.9-.2,1.2c-.2.4-.4.7-.7,1-.3.3-.6.5-1.1.7-.4.2-.9.2-1.4.2s-.6,0-.9,0c-.3,0-.6-.2-.9-.3-.3-.1-.5-.3-.8-.4s-.4-.3-.6-.5l.4-.7c0,0,0-.1.2-.1,0,0,.1,0,.2,0s.2,0,.3.2c.1.1.3.2.5.3.2.1.4.2.7.3.3.1.6.2,1,.2s.6,0,.8-.1c.2,0,.4-.2.6-.4.2-.2.3-.3.4-.5,0-.2.1-.5.1-.7s0-.5-.2-.7c-.1-.2-.3-.3-.5-.5s-.5-.2-.8-.3c-.3,0-.6-.2-.9-.3-.3,0-.6-.2-.9-.3-.3-.1-.5-.3-.8-.5-.2-.2-.4-.5-.5-.8-.1-.3-.2-.7-.2-1.1s0-.7.2-1c.1-.3.3-.6.6-.9.3-.3.6-.5,1-.6.4-.2.8-.2,1.3-.2s1.1,0,1.6.3.9.4,1.2.8l-.4.7Z"/>
    <path class="st0" d="M275.7,101.9h-1.5v-10.1h1.5v10.1Z"/>
    <path class="st0" d="M286.8,91.8v10.1h-.8c-.1,0-.2,0-.3,0,0,0-.2-.1-.2-.2l-5.7-7.3c0,.1,0,.2,0,.4,0,.1,0,.2,0,.3v6.9h-1.3v-10.1h.8c.1,0,.2,0,.3,0s.1,0,.2.2l5.7,7.3c0-.1,0-.3,0-.4,0-.1,0-.2,0-.4v-6.8h1.3Z"/>
    <path class="st0" d="M289.4,96.6h5.6v1h-5.6v-1Z"/>
    <path class="st0" d="M308.1,91.8v10.1h-1.3v-7.2c0-.1,0-.2,0-.3,0-.1,0-.2,0-.4l-3.3,6.1c-.1.2-.3.3-.5.3h-.2c-.2,0-.4-.1-.5-.3l-3.4-6.2c0,.3,0,.5,0,.7v7.2h-1.3v-10.1h1.1c.1,0,.2,0,.3,0,0,0,.1,0,.2.2l3.4,6c0,.1.1.2.2.4,0,.1.1.3.2.4,0-.3.2-.5.3-.8l3.3-6c0-.1.1-.2.2-.2,0,0,.2,0,.3,0h1.1Z"/>
    <path class="st0" d="M319.3,101.9h-1.1c-.1,0-.2,0-.3,0s-.1-.1-.2-.3l-.9-2.3h-4.4l-.9,2.3c0,0,0,.2-.2.2,0,0-.2.1-.3.1h-1.1l4-10.1h1.5l4,10.1ZM316.3,98.1l-1.5-3.9c-.1-.3-.2-.6-.3-1,0,.2-.1.4-.2.6s-.1.3-.2.5l-1.5,3.9h3.6Z"/>
    <path class="st0" d="M329.7,96.8c0,.8-.1,1.4-.4,2.1s-.6,1.1-1,1.6c-.4.4-1,.8-1.6,1-.6.2-1.3.4-2,.4h-3.8v-10.1h3.8c.7,0,1.4.1,2,.4.6.2,1.1.6,1.6,1,.4.4.8,1,1,1.6s.4,1.3.4,2ZM328.2,96.8c0-.6,0-1.1-.2-1.6-.2-.5-.4-.9-.7-1.2-.3-.3-.7-.6-1.1-.8s-.9-.3-1.4-.3h-2.3v7.6h2.3c.5,0,1,0,1.4-.3s.8-.4,1.1-.8c.3-.3.5-.7.7-1.2.2-.5.2-1,.2-1.6Z"/>
    <path class="st0" d="M333.5,101.9h-1.5v-10.1h1.5v10.1Z"/>
    <path class="st0" d="M341.5,93.5c0,0,0,.1-.1.2,0,0-.1,0-.2,0s-.2,0-.3-.1c-.1,0-.2-.2-.4-.3s-.4-.2-.6-.3c-.2,0-.5-.1-.8-.1s-.6,0-.8.1c-.2,0-.4.2-.6.3s-.3.3-.3.5-.1.4-.1.6,0,.5.2.7c.1.2.3.3.5.5.2.1.5.2.8.3.3,0,.6.2.9.3s.6.2.9.3c.3.1.5.3.8.5.2.2.4.4.5.7.1.3.2.6.2,1.1s0,.9-.2,1.2c-.2.4-.4.7-.7,1-.3.3-.6.5-1.1.7-.4.2-.9.2-1.4.2s-.6,0-.9,0c-.3,0-.6-.2-.9-.3-.3-.1-.5-.3-.8-.4s-.4-.3-.6-.5l.4-.7c0,0,0-.1.2-.1,0,0,.1,0,.2,0s.2,0,.3.2c.1.1.3.2.5.3.2.1.4.2.7.3.3.1.6.2,1,.2s.6,0,.8-.1c.2,0,.4-.2.6-.4.2-.2.3-.3.4-.5,0-.2.1-.5.1-.7s0-.5-.2-.7c-.1-.2-.3-.3-.5-.5s-.5-.2-.8-.3c-.3,0-.6-.2-.9-.3-.3,0-.6-.2-.9-.3-.3-.1-.5-.3-.8-.5-.2-.2-.4-.5-.5-.8-.1-.3-.2-.7-.2-1.1s0-.7.2-1c.1-.3.3-.6.6-.9.3-.3.6-.5,1-.6.4-.2.8-.2,1.3-.2s1.1,0,1.6.3.9.4,1.2.8l-.4.7Z"/>
    <path class="st0" d="M353.6,96.8c0,.8-.1,1.4-.4,2.1s-.6,1.2-1,1.6-1,.8-1.6,1.1c-.6.3-1.3.4-2,.4s-1.4-.1-2-.4c-.6-.3-1.1-.6-1.6-1.1-.4-.5-.8-1-1-1.6-.2-.6-.4-1.3-.4-2.1s.1-1.4.4-2.1c.2-.6.6-1.2,1-1.6.4-.5,1-.8,1.6-1.1.6-.3,1.3-.4,2-.4s1.4.1,2,.4c.6.3,1.1.6,1.6,1.1.4.5.8,1,1,1.6s.4,1.3.4,2.1ZM352.1,96.8c0-.6,0-1.1-.2-1.6s-.4-.9-.7-1.2c-.3-.3-.7-.6-1.1-.8-.4-.2-.9-.3-1.4-.3s-1,0-1.4.3c-.4.2-.8.4-1.1.8s-.5.7-.7,1.2-.2,1-.2,1.6,0,1.1.2,1.6.4.9.7,1.2c.3.3.7.6,1.1.8s.9.3,1.4.3,1,0,1.4-.3c.4-.2.8-.4,1.1-.8.3-.3.5-.7.7-1.2s.2-1,.2-1.6Z"/>
    <path class="st0" d="M364,91.8v10.1h-.8c-.1,0-.2,0-.3,0,0,0-.2-.1-.2-.2l-5.7-7.3c0,.1,0,.2,0,.4,0,.1,0,.2,0,.3v6.9h-1.3v-10.1h.8c.1,0,.2,0,.3,0s.1,0,.2.2l5.7,7.3c0-.1,0-.3,0-.4,0-.1,0-.2,0-.4v-6.8h1.3Z"/>
  </g>
  <g>
    <path class="st3" d="M39.3,123.2c-.2,0-.9-.8-1.5-1.6h0c0-.1-.2-.2-.2-.2C11.9,115.4-2.4,76,.8,44.4c.4-3.7,1-7.1,1.8-10.3.9-3.3,2-6.3,3.3-9,1.5-3.1,3.3-5.8,5.3-8,4.3-4.7,9.5-7.2,15.2-7.3.1,0,.5,0,.5-.4,1-2,3.6-3.5,5.5-3.7h.3s0-.3,0-.3c0-.2,1.3-5,6.5-5s6.4,5,6.5,5v.3c0,0,.3,0,.3,0,1.9.3,4.5,1.7,5.5,3.7,0,.4.4.4.5.4,5.7,0,11,2.6,15.2,7.3,2.3,2.5,4.4,5.7,6,9.5l.3.8c2.1,5,3.4,10.7,4.1,17,3.2,31.6-11.1,71-36.7,77h-.2s0,.2,0,.2c-.6.9-1.3,1.6-1.5,1.6Z"/>
    <path class="st0" d="M78.1,44.4c-.3-2.6-.7-5.2-1.2-7.8-.5-2.4-1.2-4.7-2-7-.9-2.4-1.9-4.8-3.2-7-1.2-2.1-2.6-4-4.2-5.8-4.3-4.7-9.6-7.3-15.5-7.4h-.1c-1-2.1-3.6-3.8-5.9-4.1,0,0-1.2-5.3-6.8-5.3-5.5,0-6.8,5.3-6.8,5.3-2.3.3-4.9,2-5.9,4.1h-.1c-5.9,0-11.2,2.7-15.5,7.4-1.6,1.8-3,3.7-4.2,5.8-1.3,2.2-2.3,4.6-3.2,7-.8,2.3-1.5,4.6-2,7-.6,2.6-1,5.2-1.2,7.8-3.3,32,11.1,71.4,37,77.4.4.6,1.3,1.8,1.8,1.8.5,0,1.4-1.2,1.8-1.8,25.9-6,40.3-45.4,37-77.4ZM39.3,1.2c4.6,0,5.6,3.9,5.6,3.9-2.3.2-4.4,1.5-5.5,3.5,0,0,0,.1,0,.1s0-.1,0-.1c-1.1-2-3.2-3.3-5.5-3.5,0,0,1-3.9,5.6-3.9ZM36.7,7.3c1.1.7,1.9,1.7,2.3,3s.2.6.4.6.3-.2.4-.6c.3-1.2,1.2-2.3,2.3-3,3.3-2,7.1-.7,8.6,2.2-.8.1-1.4.3-2.4.6-1.3.5-2.4,1-3.4,1.9-2.1,1.9-4,4.9-4.3,8.6-.9,10.4,10.9,8.7,11.5,8.7,1.5,0,2.7-2.4,2.7-5.6s-1.2-5.6-2.7-5.6-2.5.7-2.7,3.6c-.1,2,.9,4.7,2.2,4.9.7,0,1.3-1.1,1.5-2.3.2-1,0-2.6-.8-2.9-.3,0-.6.1-.7.4,0,.3.6.7.5,1.9,0,1.8-1.8.9-1.6-1.9.2-2.5,1.5-2.3,1.5-2.3.7,0,1.8,1.5,1.8,4.3s-1.2,5.1-3.5,3.7c-1.9-1.4-2.7-4.6-2.1-7.1.2-1.1,1.2-4.3,4.4-4.3,4.6,0,8.9,2.4,12.3,6.9-.4,1.2-2.8,5.8-10.3,10.2-.2,0-.4.2-.4.2-2.3-.9-4.5-1.5-7-1.4-2.2.1-4.4.5-6.6,1-.4,0-.9.2-1.3.2h0c-.4,0-.9-.1-1.3-.2-2.2-.5-4.3-.9-6.6-1-2.5-.1-4.7.4-7,1.4,0,0-.3-.1-.4-.2-7.6-4.4-9.9-9-10.3-10.2,3.4-4.5,7.7-6.9,12.3-6.9s4.2,3.1,4.4,4.3c.5,2.5-.2,5.7-2.1,7.1-2.3,1.4-3.5-1.3-3.5-3.7s1.1-4.3,1.8-4.3c0,0,1.3-.2,1.5,2.3.2,2.8-1.5,3.7-1.6,1.9,0-1.2.6-1.6.5-1.9,0-.3-.4-.5-.7-.4-.9.2-1,1.8-.8,2.9.2,1.2.8,2.4,1.5,2.3,1.3-.2,2.3-2.8,2.2-4.9-.1-2.9-1.7-3.6-2.7-3.6-1.5,0-2.7,2.4-2.7,5.6s1.2,5.6,2.7,5.6c.6,0,12.5,1.7,11.5-8.7-.3-3.8-2.2-6.7-4.3-8.6-.9-.9-2-1.4-3.4-1.9-.9-.3-1.6-.5-2.4-.6,1.5-2.9,5.2-4.3,8.6-2.2ZM14.2,50.7c-.3,2-.4,3.6-.5,4.7-.2,3.7,0,7.5.5,11.2.5,3.5,1.3,7,2.3,10.4,1.5,4.6,3.5,9,5.9,13.2-2.4,2.2-6.1,3.1-7.3,3.3-6.6-13-9.9-29.9-9.2-45.1,1.5.8,4.4,2,8.1,2.3ZM6.1,47.6c.6-10.4,3.2-18.5,7.1-23.9.7,1.8,3.6,6.2,10.5,10.2-5.8,3.5-8.4,10.7-9.3,16.1-3.9-.3-6.8-1.6-8.2-2.4ZM22.9,90.9c4.4,7.5,8.7,12,12,14.4-1.2,3-4,5.4-5,6.2-5.7-3.8-10.5-9.9-14.3-17.2,1.5-.3,4.9-1.2,7.3-3.3ZM35.5,105.7c1.8,1.3,3.6,2,3.8,2.1.2,0,2-.8,3.8-2.1,1.2,2.9,3.8,5.2,5,6.1-1.6,1-3.3,1.9-5.1,2.5,0,0,0-.1,0-.2-.4-1.9-2.8-2.3-3.7-2.3-.9,0-3.3.4-3.7,2.3,0,0,0,.1,0,.2-1.8-.6-3.4-1.5-5.1-2.5,1.2-.9,3.8-3.2,5-6.1ZM43.7,105.2c3.3-2.4,7.6-6.8,12-14.4,2.4,2.2,5.9,3,7.3,3.3-3.8,7.3-8.6,13.4-14.3,17.2-1-.8-3.8-3.1-5-6.2ZM56.1,90.2c2.4-4.2,4.4-8.6,5.9-13.2,1.1-3.4,1.9-6.8,2.3-10.4.5-3.7.7-7.5.5-11.2,0-1-.2-2.7-.5-4.7,3.7-.3,6.6-1.5,8.1-2.3.7,15.2-2.6,32-9.2,45.1-1.2-.2-4.9-1.1-7.3-3.3ZM64.3,50c-.9-5.4-3.5-12.5-9.3-16.1,6.8-4,9.8-8.4,10.5-10.2,3.8,5.4,6.4,13.5,7.1,23.9-1.4.7-4.4,2-8.2,2.4ZM35.1,119.5c-2.9-1-5.7-2.4-8.3-4.1-1.6-1.1-3.2-2.4-4.6-3.7-1.2-1.1-2.3-2.3-3.3-3.5-.7-.8-1.4-1.7-2.1-2.6-3.2-4.2-5.8-8.9-7.9-13.7-2-4.7-3.6-9.5-4.8-14.4-1.2-5-2.1-10.2-2.5-15.4-.4-5.1-.5-10.2,0-15.3.2-2.7.6-5.5,1-8.2.5-2.7,1.1-5.4,2-7.9.8-2.4,1.8-4.7,3-6.9,1.2-2.3,2.7-4.4,4.5-6.3,1.7-1.7,3.5-3.2,5.6-4.4.9-.5,1.8-.9,2.7-1.2.5-.2,1-.3,1.5-.5.4-.1,1-.3,1.5-.4,1.2-.2,2.4-.3,3.6-.3s3.4.2,5.5,1.5c2.3,1.7,4.4,4.4,4.7,8.6.6,6.4-6,7.4-7.2,7.4-.2,0-.3-.2.3-.8,1.5-1.9,2-4.9,1.5-7.2-.6-2.9-2.7-5.2-5.7-5.2-4.5,0-8.5,2.3-11.5,5.5-2.9,3.2-4.9,7.1-6.3,11.1-1.8,5.2-2.7,10.6-3.1,16.1-.3,5-.2,10.1.3,15.1.5,5.1,1.4,10.1,2.8,15,1.3,4.8,2.9,9.5,5,14,2.1,4.5,4.6,8.9,7.8,12.8,3.1,3.9,7,7.4,11.5,9.7,1,.5,2.1,1,3.1,1.4,0,1.7.4,3.2.9,4.4-.7-.2-.7-.2-1.3-.4ZM39.7,121.7s-.2.3-.4.3c-.2,0-.4-.3-.4-.3-1.1-1.4-2.8-4.1-2.1-7.3.2-.9,1.7-1.3,2.6-1.3.9,0,2.4.4,2.6,1.3.6,3.2-1,5.9-2.1,7.3ZM77.1,62.1c-.4,5.2-1.3,10.3-2.5,15.4-1.2,4.9-2.8,9.8-4.8,14.4-2.1,4.8-4.7,9.5-7.9,13.7-.7.9-1.3,1.7-2.1,2.6-1,1.2-2.2,2.4-3.3,3.5-1.4,1.3-3,2.6-4.6,3.7-2.6,1.8-5.4,3.2-8.3,4.1-.6.2-.6.2-1.3.4.6-1.2,1-2.7.9-4.4,1.1-.4,2.1-.8,3.1-1.4,4.5-2.3,8.4-5.8,11.5-9.7,3.1-3.9,5.7-8.3,7.8-12.8,2.1-4.5,3.7-9.2,5-14,1.3-4.9,2.2-9.9,2.8-15,.5-5,.7-10.1.3-15.1-.4-5.5-1.3-10.9-3.1-16.1-1.4-4-3.4-8-6.3-11.1-3-3.3-7-5.5-11.5-5.5-3,0-5.1,2.3-5.7,5.2-.5,2.4,0,5.3,1.5,7.2.6.7.5.8.3.8-1.3,0-7.8-1-7.2-7.4.4-4.2,2.4-6.9,4.7-8.6,2.1-1.3,4.5-1.5,5.5-1.5s2.4,0,3.6.3c.5,0,1,.2,1.5.4.5.1,1,.3,1.5.5.9.3,1.9.8,2.7,1.2,2.1,1.1,4,2.7,5.6,4.4,1.8,1.9,3.2,4,4.5,6.3,1.2,2.2,2.2,4.5,3,6.9.9,2.6,1.5,5.3,2,7.9.5,2.7.8,5.4,1,8.2.4,5.1.3,10.3,0,15.3Z"/>
    <path class="st2" d="M63.4,55.6c-.2-3.8-1.3-15.4-9.2-20.5-1.7-1.1-4-1.6-6.2-1.7-3.9-.3-6.8,1.2-8.7,1.3h0c-1.9,0-4.8-1.5-8.7-1.3-2.3.1-4.5.6-6.2,1.7-7.9,5-9,16.7-9.2,20.5-.6,13.5,3.7,24,5,26.9,5.5,12,12.1,20.6,18.6,23.5l.5.2.5-.2c6.5-2.9,13.1-11.4,18.6-23.5,1.3-2.9,5.6-13.4,5-26.9Z"/>
    <path class="st1" d="M51,46.5v2.6h.5c0,0,.1,0,.2,0,.3,0,.8,0,1.2.4.3.3.4.9.3,1.6,0,0-5.3,22.9-6.3,27.3-1.2-5.5-7.5-35.6-7.5-35.6h0c0-.1-1.2-.1-1.2-.1h0c0,.1-4.6,29.5-5.5,35.3-1.2-5.1-6.3-26.8-6.3-26.8,0-.1,0-.3,0-.4,0-.6.1-1.1.4-1.3.4-.4,1-.3,1-.3h.5c0,0,0-2.5,0-2.5h-8.8v2.5h.4c.2,0,1.2.3,1.3,1.2,0,0,10.3,44.4,10.8,46.3h0c0,.1,1.6.1,1.6.1h0c0-.4,4.3-28,5-33.1,1,5.1,6.4,32.7,6.4,33h0c0,.1,1.4.1,1.4.1l10.3-46.4c.2-1,1.1-1.1,1.4-1.1s0,0,.1,0h.5s0-2.6,0-2.6h-7.9Z"/>
  </g>
</svg>