<?xml version="1.0" encoding="utf-8"?>
<!-- Generator: Adobe Illustrator 30.6.0, SVG Export Plug-In . SVG Version: 9.03 Build 0)  -->
<svg version="1.0"
	 id="Layer_1" xmlns:cc="http://creativecommons.org/ns#" xmlns:dc="http://purl.org/dc/elements/1.1/" xmlns:rdf="http://www.w3.org/1999/02/22-rdf-syntax-ns#"
	 xmlns="http://www.w3.org/2000/svg" xmlns:xlink="http://www.w3.org/1999/xlink" x="0px" y="0px" viewBox="0 0 76.3 72"
	 style="enable-background:new 0 0 76.3 72;" xml:space="preserve">
<style type="text/css">
	.st0{fill:#C5050C;}
</style>
<g>
	<path class="st0" d="M64.9,0c-6,0.1-11.6,0.7-11.6,0.7l-0.2,1.8h0h0l-1.9,16.8c0,0,1.2,0,1.7,0.9c0.4,0.8,0.5,1.5,0.2,2.7
		l-4.4,16.8L45.6,26c-0.3-1.1-0.2-2.8,0.2-3.8c0.3-0.8,0.8-1.1,1.2-1.2l2.1-20c-3.4,0.4-6.7,0.9-10,1.5c-4.8,1-9,2.2-9,2.2
		l-2.3,20.4c0,0,0.9,0,1.5,1c0.6,1.2,0.4,1.7,0,3.2l-4.1,16.3l-3-13.4c-0.3-1.2-0.2-3,0.2-3.9c0.4-0.8,0.9-1.3,1.2-1.6l2.1-20.8
		c-1.8,0.6-7.4,2.7-12.2,5.5c-5,2.9-8.6,6.1-8.6,6.1L2.7,38.8c0,0,1-0.6,2.2-0.2c1.2,0.4,1.5,1.3,1.9,2.4l8.8,26.8
		c4.1-5.9,10.3-8.8,17.2-10.5c0.6-0.1,1.2-0.3,1.8-0.4l3.1-15.7l3.1,14.4c0,0,2.9-0.4,7.3-0.2c5.1,0.3,8.8,1.1,10.6,1.6
		c0.8,0.2,1.2,0.4,1.2,0.4l10.6-33.9c0,0,0.5-2.5,1.7-3.3c0.9-0.6,2.1-0.5,2.1-0.5l2-19.3C76.3,0.3,72.4-0.1,64.9,0"/>
	<path d="M53.1,2.5C51.8,2.6,51,2.7,51,2.7l-0.3,0l-1.9,17.7l0,0.4h0.4c0.1,0,0.9,0,1.3,0.6c0.3,0.6,0.3,1.5-0.1,2.8l-2.8,10.6
		l1,4.7L53,22.8c0.4-1.2,0.3-1.9-0.2-2.7c-0.4-0.8-1.7-0.9-1.7-0.9L53.1,2.5L53.1,2.5z M29.9,6.6c-0.7,0.2-1.5,0.5-2.2,0.7l-0.2,0.1
		l-2.2,18.7l0,0.5l0.5-0.1c0.1,0,0.6,0,1.1,0.6c0.5,0.7,0.3,1.4,0,2.7l-2.7,11.1l1,4.7l4.1-16.3c0.4-1.5,0.6-2.1,0-3.2
		c-0.5-1-1.5-1-1.5-1L29.9,6.6z M4.8,19.2c-0.8,0.7-1.7,1.4-2.5,2.2l-0.1,0.1L0,41.8l0.6-0.4c0,0,1.2-0.7,2.2-0.7
		c0.2,0,0.4,0,0.6,0.1c0.8,0.3,1.1,0.7,1.4,1.7L15,72l0.4-0.7c3.9-6.2,8.7-9.7,16.7-12.1l0.2-0.1l0.4-1.9
		c-6.9,1.7-13.1,4.6-17.2,10.5L6.7,40.9c-0.3-1.1-0.7-2-1.9-2.4c-0.7-0.2-1.5-0.1-2.2,0.2L4.8,19.2z M37.6,41.2l-1.1,5.7l2.7,11.3
		l0.4-0.1c0,0,2.3-0.5,6.5-0.5c0.7,0,1.4,0,2.1,0c4.8,0.2,9.5,1.4,9.6,1.4l0.3,0.1l0.7-2.1c-1.8-0.5-5.5-1.3-10.6-1.6
		c-4.5-0.2-7.3,0.2-7.3,0.2L37.6,41.2z"/>
</g>
</svg>
