<?xml version="1.0" encoding="UTF-8"?>
<svg id="Layer_2" data-name="Layer 2" xmlns="http://www.w3.org/2000/svg" xmlns:xlink="http://www.w3.org/1999/xlink" viewBox="0 0 792 612">
  <defs>
    <style>
      .vi    { font-family: FuturaPT-Heavy,'Futura PT'; font-weight: 800; font-size: 6px; }
      .title { font-family: TheSeasons-Regular,'The Seasons'; font-size: 33px; }
      .sub   { font-family: FuturaPT-Book,'Futura PT'; font-size: 7px; }
      .bay   { font-family: FuturaPT-Bold,'Futura PT'; font-weight: 700; font-size: 7.5px; }
      .role  { font-family: FuturaPT-Heavy,'Futura PT'; font-weight: 800; font-size: 5.8px; }
      .sname { font-family: FuturaPT-Heavy,'Futura PT'; font-weight: 800; font-size: 9px; }
      .shex  { font-family: FuturaPT-Bold,'Futura PT'; font-weight: 700; font-size: 7.5px; }
    </style>

    <!-- bloom colophon, debossed (black drop + white lift) -->
    <g id="bloomArt" fill="none" stroke-linecap="round" stroke-linejoin="round">
      <path d="M-8 4 L0 6 L0 1 L-8 -1 Z"/>
      <path d="M8 4 L0 6 L0 1 L8 -1 Z"/>
      <path d="M0 1 L0 -5"/>
      <path d="M0 -3 C-5 -4 -7 -7 -6 -11 C-2 -10 0 -7 0 -5"/>
      <path d="M0 -3 C5 -4 7 -7 6 -11 C2 -10 0 -7 0 -5"/>
      <circle cx="0" cy="-9.4" r="1.5"/>
    </g>
    <g id="bloom">
      <use xlink:href="#bloomArt" transform="translate(0 0.5)" stroke="#000000" stroke-opacity=".24" stroke-width="1"/>
      <use xlink:href="#bloomArt" transform="translate(0 -0.5)" stroke="#ffffff" stroke-opacity=".18" stroke-width="1"/>
    </g>

    <linearGradient id="floorShade" x1="0" y1="0" x2="0" y2="1">
      <stop offset="0" stop-color="#000000" stop-opacity="0"/><stop offset="1" stop-color="#000000" stop-opacity=".22"/>
    </linearGradient>
  </defs>

  <g id="Layer_1-2" data-name="Layer 1">
    <!-- page -->
    <rect width="792" height="612" fill="#fbf8f3"/>

    <!-- header -->
    <text class="vi" x="396" y="26" text-anchor="middle" fill="#9a9088" letter-spacing="2">VISUAL IDENTITY</text>
    <text class="title" x="40" y="80" fill="#2b2622">The Colour Library</text>
    <text class="sub" x="752" y="74" text-anchor="end" fill="#6b6258" letter-spacing="0.6">Two shelves, ten volumes · light &amp; dark</text>
    <rect x="40" y="92" width="712" height="1" fill="#2b2622" opacity=".12"/>

    <!-- ============ BOOKCASE ============ -->
    <!-- carcass -->
    <rect x="40" y="104" width="712" height="452" rx="5" fill="#34281d"/>
    <rect x="40" y="104" width="712" height="11" fill="#3f3023"/>
    <rect x="40" y="113" width="712" height="2" fill="#241a12"/>
    <!-- bay backs -->
    <rect x="54" y="116" width="330" height="420" fill="#f3ede3"/>
    <rect x="408" y="116" width="330" height="420" fill="#201811"/>
    <!-- inner top shadow in each bay -->
    <rect x="54" y="116" width="330" height="16" fill="#000000" opacity=".06"/>
    <rect x="408" y="116" width="330" height="16" fill="#000000" opacity=".22"/>
    <!-- centre divider + sides catches light -->
    <rect x="384" y="116" width="24" height="420" fill="#3a2c20"/>
    <rect x="384" y="116" width="3" height="420" fill="#4a3927"/>
    <rect x="405" y="116" width="3" height="420" fill="#241a12"/>
    <!-- floor shadow under books -->
    <rect x="54" y="512" width="330" height="24" fill="url(#floorShade)"/>
    <rect x="408" y="512" width="330" height="24" fill="url(#floorShade)"/>

    <!-- ===== LEFT BAY · LIGHT PALETTE ===== -->
    <!-- Paper / Cream (lean right) -->
    <g transform="translate(64 536) rotate(7)">
      <rect x="0" y="-332" width="44" height="332" rx="1.5" fill="#f3ede3"/>
      <rect x="0" y="-332" width="2.5" height="332" fill="#ffffff" opacity=".08"/>
      <rect x="41" y="-332" width="3" height="332" fill="#000000" opacity=".12"/>
      <rect x="0" y="-332" width="44" height="3" fill="#000000" opacity=".16"/>
      <rect x="0" y="-324" width="44" height="15" fill="#2b2622" opacity=".12"/>
      <text class="role" x="22" y="-313.5" text-anchor="middle" fill="#2b2622" opacity=".85" letter-spacing="1">PAPER</text>
      <use xlink:href="#bloom" transform="translate(22 -236) scale(0.96)"/>
      <rect x="6" y="-30" width="32" height="1.3" fill="#2b2622" opacity=".4"/>
      <rect x="6" y="-25" width="32" height="1.3" fill="#2b2622" opacity=".4"/>
      <g transform="translate(22 -149) rotate(-90)"><text text-anchor="middle"><tspan class="sname" fill="#2b2622" letter-spacing="1.1">CREAM</tspan><tspan class="shex" dx="8" fill="#2b2622" opacity=".75" letter-spacing=".3">#F3EDE3</tspan></text></g>
    </g>
    <!-- Ink / Charcoal (upright) -->
    <g transform="translate(112 536) rotate(0)">
      <rect x="0" y="-352" width="52" height="352" rx="1.5" fill="#2b2622"/>
      <rect x="0" y="-352" width="2.5" height="352" fill="#ffffff" opacity=".07"/>
      <rect x="49" y="-352" width="3" height="352" fill="#000000" opacity=".18"/>
      <rect x="0" y="-352" width="52" height="3" fill="#000000" opacity=".22"/>
      <rect x="0" y="-344" width="52" height="15" fill="#f3ede3" opacity=".12"/>
      <text class="role" x="26" y="-333.5" text-anchor="middle" fill="#f3ede3" opacity=".85" letter-spacing="1">INK</text>
      <use xlink:href="#bloom" transform="translate(26 -256) scale(1.05)"/>
      <rect x="6" y="-30" width="40" height="1.3" fill="#f3ede3" opacity=".4"/>
      <rect x="6" y="-25" width="40" height="1.3" fill="#f3ede3" opacity=".4"/>
      <g transform="translate(26 -158) rotate(-90)"><text text-anchor="middle"><tspan class="sname" fill="#f3ede3" letter-spacing="1.1">CHARCOAL</tspan><tspan class="shex" dx="8" fill="#f3ede3" opacity=".75" letter-spacing=".3">#2B2622</tspan></text></g>
    </g>
    <!-- Primary / Deep Marine (upright, widest) -->
    <g transform="translate(168 536) rotate(0)">
      <rect x="0" y="-372" width="60" height="372" rx="1.5" fill="#11332f"/>
      <rect x="0" y="-372" width="2.5" height="372" fill="#ffffff" opacity=".07"/>
      <rect x="57" y="-372" width="3" height="372" fill="#000000" opacity=".18"/>
      <rect x="0" y="-372" width="60" height="3" fill="#000000" opacity=".22"/>
      <rect x="0" y="-364" width="60" height="15" fill="#f3ede3" opacity=".12"/>
      <text class="role" x="30" y="-353.5" text-anchor="middle" fill="#f3ede3" opacity=".85" letter-spacing="1">PRIMARY</text>
      <use xlink:href="#bloom" transform="translate(30 -276) scale(1.28)"/>
      <rect x="6" y="-30" width="48" height="1.3" fill="#f3ede3" opacity=".4"/>
      <rect x="6" y="-25" width="48" height="1.3" fill="#f3ede3" opacity=".4"/>
      <g transform="translate(30 -167) rotate(-90)"><text text-anchor="middle"><tspan class="sname" fill="#f3ede3" letter-spacing="1.1">DEEP MARINE</tspan><tspan class="shex" dx="8" fill="#f3ede3" opacity=".75" letter-spacing=".3">#11332F</tspan></text></g>
    </g>
    <!-- Accent / Hunter Green (lean left onto Primary) -->
    <g transform="translate(230 536) rotate(-8)">
      <rect x="0" y="-356" width="50" height="356" rx="1.5" fill="#285f3c"/>
      <rect x="0" y="-356" width="2.5" height="356" fill="#ffffff" opacity=".08"/>
      <rect x="47" y="-356" width="3" height="356" fill="#000000" opacity=".16"/>
      <rect x="0" y="-356" width="50" height="3" fill="#000000" opacity=".2"/>
      <rect x="0" y="-348" width="50" height="15" fill="#f3ede3" opacity=".12"/>
      <text class="role" x="25" y="-337.5" text-anchor="middle" fill="#f3ede3" opacity=".85" letter-spacing="1">ACCENT</text>
      <use xlink:href="#bloom" transform="translate(25 -260) scale(1.06)"/>
      <rect x="6" y="-30" width="38" height="1.3" fill="#f3ede3" opacity=".4"/>
      <rect x="6" y="-25" width="38" height="1.3" fill="#f3ede3" opacity=".4"/>
      <g transform="translate(25 -160) rotate(-90)"><text text-anchor="middle"><tspan class="sname" fill="#f3ede3" letter-spacing="1.1">HUNTER GREEN</tspan><tspan class="shex" dx="8" fill="#f3ede3" opacity=".75" letter-spacing=".3">#285F3C</tspan></text></g>
    </g>
    <!-- Soft / Clay (lean right toward the pot) -->
    <g transform="translate(284 536) rotate(5)">
      <rect x="0" y="-330" width="46" height="330" rx="1.5" fill="#e0a98c"/>
      <rect x="0" y="-330" width="2.5" height="330" fill="#ffffff" opacity=".09"/>
      <rect x="43" y="-330" width="3" height="330" fill="#000000" opacity=".12"/>
      <rect x="0" y="-330" width="46" height="3" fill="#000000" opacity=".16"/>
      <rect x="0" y="-322" width="46" height="15" fill="#2b2622" opacity=".12"/>
      <text class="role" x="23" y="-311.5" text-anchor="middle" fill="#2b2622" opacity=".85" letter-spacing="1">SOFT</text>
      <use xlink:href="#bloom" transform="translate(23 -234) scale(0.98)"/>
      <rect x="6" y="-30" width="34" height="1.3" fill="#2b2622" opacity=".4"/>
      <rect x="6" y="-25" width="34" height="1.3" fill="#2b2622" opacity=".4"/>
      <g transform="translate(23 -148) rotate(-90)"><text text-anchor="middle"><tspan class="sname" fill="#2b2622" letter-spacing="1.1">CLAY</tspan><tspan class="shex" dx="8" fill="#2b2622" opacity=".75" letter-spacing=".3">#E0A98C</tspan></text></g>
    </g>
    <!-- potted bloom bookend -->
    <ellipse cx="350" cy="537" rx="22" ry="3.4" fill="#000000" opacity=".14"/>
    <path d="M331 502 L369 502 L364 536 L336 536 Z" fill="#b5654a"/>
    <path d="M331 502 L334 502 L339 536 L336 536 Z" fill="#000000" opacity=".12"/>
    <rect x="328" y="499" width="44" height="6" rx="2" fill="#a85c43"/>
    <ellipse cx="350" cy="502" rx="18" ry="3.4" fill="#241a12"/>
    <path d="M350 502 C349 489 351 477 350 466" fill="none" stroke="#285f3c" stroke-width="2" stroke-linecap="round"/>
    <path d="M350 487 C340 485 334 479 336 471 C344 473 350 479 350 485 Z" fill="#285f3c"/>
    <path d="M350 487 C360 485 366 479 364 471 C356 473 350 479 350 485 Z" fill="#2f6f46"/>
    <g>
      <circle cx="350" cy="461" r="3.1" fill="#e0a98c"/>
      <circle cx="345" cy="464" r="3.1" fill="#e0a98c"/>
      <circle cx="355" cy="464" r="3.1" fill="#e0a98c"/>
      <circle cx="347" cy="458" r="3.1" fill="#e0a98c"/>
      <circle cx="353" cy="458" r="3.1" fill="#e0a98c"/>
      <circle cx="350" cy="461.5" r="2.2" fill="#d8a657"/>
    </g>

    <!-- ===== RIGHT BAY · DARK PALETTE ===== -->
    <!-- Paper / Espresso (lean left) -->
    <g transform="translate(416 536) rotate(-6)">
      <rect x="0" y="-344" width="42" height="344" rx="1.5" fill="#2a211a"/>
      <rect x="0" y="-344" width="2.5" height="344" fill="#ffffff" opacity=".06"/>
      <rect x="39" y="-344" width="3" height="344" fill="#000000" opacity=".2"/>
      <rect x="0" y="-344" width="42" height="3" fill="#000000" opacity=".24"/>
      <rect x="0" y="-336" width="42" height="15" fill="#f0e8d8" opacity=".12"/>
      <text class="role" x="21" y="-325.5" text-anchor="middle" fill="#f0e8d8" opacity=".85" letter-spacing="1">PAPER</text>
      <use xlink:href="#bloom" transform="translate(21 -248) scale(0.91)"/>
      <rect x="6" y="-30" width="30" height="1.3" fill="#f0e8d8" opacity=".4"/>
      <rect x="6" y="-25" width="30" height="1.3" fill="#f0e8d8" opacity=".4"/>
      <g transform="translate(21 -155) rotate(-90)"><text text-anchor="middle"><tspan class="sname" fill="#f0e8d8" letter-spacing="1.1">ESPRESSO</tspan><tspan class="shex" dx="8" fill="#f0e8d8" opacity=".75" letter-spacing=".3">#2A211A</tspan></text></g>
    </g>
    <!-- Ink / Ecru (upright) -->
    <g transform="translate(462 536) rotate(0)">
      <rect x="0" y="-362" width="48" height="362" rx="1.5" fill="#f0e8d8"/>
      <rect x="0" y="-362" width="2.5" height="362" fill="#ffffff" opacity=".09"/>
      <rect x="45" y="-362" width="3" height="362" fill="#000000" opacity=".12"/>
      <rect x="0" y="-362" width="48" height="3" fill="#000000" opacity=".16"/>
      <rect x="0" y="-354" width="48" height="15" fill="#2a211a" opacity=".12"/>
      <text class="role" x="24" y="-343.5" text-anchor="middle" fill="#2a211a" opacity=".85" letter-spacing="1">INK</text>
      <use xlink:href="#bloom" transform="translate(24 -266) scale(1.04)"/>
      <rect x="6" y="-30" width="36" height="1.3" fill="#2a211a" opacity=".4"/>
      <rect x="6" y="-25" width="36" height="1.3" fill="#2a211a" opacity=".4"/>
      <g transform="translate(24 -163) rotate(-90)"><text text-anchor="middle"><tspan class="sname" fill="#2a211a" letter-spacing="1.1">ECRU</tspan><tspan class="shex" dx="8" fill="#2a211a" opacity=".75" letter-spacing=".3">#F0E8D8</tspan></text></g>
    </g>
    <!-- Primary / Terracotta (upright, widest) -->
    <g transform="translate(516 536) rotate(0)">
      <rect x="0" y="-376" width="58" height="376" rx="1.5" fill="#b5654a"/>
      <rect x="0" y="-376" width="2.5" height="376" fill="#ffffff" opacity=".08"/>
      <rect x="55" y="-376" width="3" height="376" fill="#000000" opacity=".18"/>
      <rect x="0" y="-376" width="58" height="3" fill="#000000" opacity=".2"/>
      <rect x="0" y="-368" width="58" height="15" fill="#f0e8d8" opacity=".12"/>
      <text class="role" x="29" y="-357.5" text-anchor="middle" fill="#f0e8d8" opacity=".85" letter-spacing="1">PRIMARY</text>
      <use xlink:href="#bloom" transform="translate(29 -280) scale(1.26)"/>
      <rect x="6" y="-30" width="46" height="1.3" fill="#f0e8d8" opacity=".4"/>
      <rect x="6" y="-25" width="46" height="1.3" fill="#f0e8d8" opacity=".4"/>
      <g transform="translate(29 -169) rotate(-90)"><text text-anchor="middle"><tspan class="sname" fill="#f0e8d8" letter-spacing="1.1">TERRACOTTA</tspan><tspan class="shex" dx="8" fill="#f0e8d8" opacity=".75" letter-spacing=".3">#B5654A</tspan></text></g>
    </g>
    <!-- Accent / Coral (lean right) -->
    <g transform="translate(578 536) rotate(7)">
      <rect x="0" y="-358" width="50" height="358" rx="1.5" fill="#e2754f"/>
      <rect x="0" y="-358" width="2.5" height="358" fill="#ffffff" opacity=".09"/>
      <rect x="47" y="-358" width="3" height="358" fill="#000000" opacity=".16"/>
      <rect x="0" y="-358" width="50" height="3" fill="#000000" opacity=".2"/>
      <rect x="0" y="-350" width="50" height="15" fill="#f0e8d8" opacity=".14"/>
      <text class="role" x="25" y="-339.5" text-anchor="middle" fill="#f0e8d8" opacity=".9" letter-spacing="1">ACCENT</text>
      <use xlink:href="#bloom" transform="translate(25 -262) scale(1.06)"/>
      <rect x="6" y="-30" width="38" height="1.3" fill="#f0e8d8" opacity=".45"/>
      <rect x="6" y="-25" width="38" height="1.3" fill="#f0e8d8" opacity=".45"/>
      <g transform="translate(25 -161) rotate(-90)"><text text-anchor="middle"><tspan class="sname" fill="#f0e8d8" letter-spacing="1.1">CORAL</tspan><tspan class="shex" dx="8" fill="#f0e8d8" opacity=".8" letter-spacing=".3">#E2754F</tspan></text></g>
    </g>
    <!-- Soft / Sand (lean right toward stack) -->
    <g transform="translate(632 536) rotate(5)">
      <rect x="0" y="-334" width="44" height="334" rx="1.5" fill="#f2ead8"/>
      <rect x="0" y="-334" width="2.5" height="334" fill="#ffffff" opacity=".09"/>
      <rect x="41" y="-334" width="3" height="334" fill="#000000" opacity=".12"/>
      <rect x="0" y="-334" width="44" height="3" fill="#000000" opacity=".16"/>
      <rect x="0" y="-326" width="44" height="15" fill="#2a211a" opacity=".12"/>
      <text class="role" x="22" y="-315.5" text-anchor="middle" fill="#2a211a" opacity=".85" letter-spacing="1">SOFT</text>
      <use xlink:href="#bloom" transform="translate(22 -238) scale(0.96)"/>
      <rect x="6" y="-30" width="32" height="1.3" fill="#2a211a" opacity=".4"/>
      <rect x="6" y="-25" width="32" height="1.3" fill="#2a211a" opacity=".4"/>
      <g transform="translate(22 -150) rotate(-90)"><text text-anchor="middle"><tspan class="sname" fill="#2a211a" letter-spacing="1.1">SAND</tspan><tspan class="shex" dx="8" fill="#2a211a" opacity=".75" letter-spacing=".3">#F2EAD8</tspan></text></g>
    </g>
    <!-- small stack of flat books (bookend) -->
    <ellipse cx="710" cy="537" rx="30" ry="3.6" fill="#000000" opacity=".18"/>
    <g transform="translate(684 514)">
      <rect x="0" y="0" width="50" height="22" rx="1.5" fill="#5e4b3a"/>
      <rect x="0" y="3" width="50" height="2" fill="#d8cdbb" opacity=".5"/>
      <rect x="0" y="0" width="50" height="2" fill="#ffffff" opacity=".06"/>
    </g>
    <g transform="translate(687 492) rotate(-3)">
      <rect x="0" y="0" width="46" height="22" rx="1.5" fill="#b9ae9d"/>
      <rect x="0" y="3" width="46" height="2" fill="#2a211a" opacity=".35"/>
      <rect x="0" y="0" width="46" height="2" fill="#ffffff" opacity=".12"/>
    </g>

    <!-- shelf face + plinth -->
    <rect x="40" y="536" width="712" height="8" fill="#2a1f16"/>
    <rect x="40" y="536" width="712" height="1.4" fill="#4a3a2a"/>
    <rect x="40" y="544" width="712" height="12" fill="#1f1710"/>
    <rect x="40" y="544" width="712" height="1.2" fill="#3a2c20"/>
    <text class="bay" x="219" y="553" text-anchor="middle" fill="#b9ae9d" letter-spacing="1.6">01 · LIGHT MODE</text>
    <text class="bay" x="573" y="553" text-anchor="middle" fill="#b9ae9d" letter-spacing="1.6">02 · DARK MODE</text>
  </g>
</svg>
